%TF.GenerationSoftware,KiCad,Pcbnew,8.0.2*%
%TF.CreationDate,2024-09-16T20:32:10-04:00*%
%TF.ProjectId,fpga,66706761-2e6b-4696-9361-645f70636258,rev?*%
%TF.SameCoordinates,Original*%
%TF.FileFunction,Legend,Top*%
%TF.FilePolarity,Positive*%
%FSLAX46Y46*%
G04 Gerber Fmt 4.6, Leading zero omitted, Abs format (unit mm)*
G04 Created by KiCad (PCBNEW 8.0.2) date 2024-09-16 20:32:10*
%MOMM*%
%LPD*%
G01*
G04 APERTURE LIST*
G04 Aperture macros list*
%AMRoundRect*
0 Rectangle with rounded corners*
0 $1 Rounding radius*
0 $2 $3 $4 $5 $6 $7 $8 $9 X,Y pos of 4 corners*
0 Add a 4 corners polygon primitive as box body*
4,1,4,$2,$3,$4,$5,$6,$7,$8,$9,$2,$3,0*
0 Add four circle primitives for the rounded corners*
1,1,$1+$1,$2,$3*
1,1,$1+$1,$4,$5*
1,1,$1+$1,$6,$7*
1,1,$1+$1,$8,$9*
0 Add four rect primitives between the rounded corners*
20,1,$1+$1,$2,$3,$4,$5,0*
20,1,$1+$1,$4,$5,$6,$7,0*
20,1,$1+$1,$6,$7,$8,$9,0*
20,1,$1+$1,$8,$9,$2,$3,0*%
%AMRotRect*
0 Rectangle, with rotation*
0 The origin of the aperture is its center*
0 $1 length*
0 $2 width*
0 $3 Rotation angle, in degrees counterclockwise*
0 Add horizontal line*
21,1,$1,$2,0,0,$3*%
%AMFreePoly0*
4,1,19,0.500000,-0.750000,0.000000,-0.750000,0.000000,-0.744911,-0.071157,-0.744911,-0.207708,-0.704816,-0.327430,-0.627875,-0.420627,-0.520320,-0.479746,-0.390866,-0.500000,-0.250000,-0.500000,0.250000,-0.479746,0.390866,-0.420627,0.520320,-0.327430,0.627875,-0.207708,0.704816,-0.071157,0.744911,0.000000,0.744911,0.000000,0.750000,0.500000,0.750000,0.500000,-0.750000,0.500000,-0.750000,
$1*%
%AMFreePoly1*
4,1,19,0.000000,0.744911,0.071157,0.744911,0.207708,0.704816,0.327430,0.627875,0.420627,0.520320,0.479746,0.390866,0.500000,0.250000,0.500000,-0.250000,0.479746,-0.390866,0.420627,-0.520320,0.327430,-0.627875,0.207708,-0.704816,0.071157,-0.744911,0.000000,-0.744911,0.000000,-0.750000,-0.500000,-0.750000,-0.500000,0.750000,0.000000,0.750000,0.000000,0.744911,0.000000,0.744911,
$1*%
G04 Aperture macros list end*
%ADD10C,0.150000*%
%ADD11C,0.120000*%
%ADD12C,0.200000*%
%ADD13C,0.152400*%
%ADD14C,0.127000*%
%ADD15C,0.300000*%
%ADD16RoundRect,0.160000X0.160000X-0.197500X0.160000X0.197500X-0.160000X0.197500X-0.160000X-0.197500X0*%
%ADD17C,1.450000*%
%ADD18C,6.000000*%
%ADD19C,2.000000*%
%ADD20RotRect,0.900000X2.000000X278.000000*%
%ADD21RoundRect,1.025000X-1.157677X0.872372X-0.872372X-1.157677X1.157677X-0.872372X0.872372X1.157677X0*%
%ADD22C,4.100000*%
%ADD23RotRect,2.300000X1.300000X278.000000*%
%ADD24FreePoly0,180.000000*%
%ADD25FreePoly1,180.000000*%
%ADD26R,1.700000X1.700000*%
%ADD27O,1.700000X1.700000*%
%ADD28FreePoly0,90.000000*%
%ADD29FreePoly1,90.000000*%
%ADD30RoundRect,0.250000X0.325000X0.450000X-0.325000X0.450000X-0.325000X-0.450000X0.325000X-0.450000X0*%
%ADD31RoundRect,0.160000X-0.160000X0.197500X-0.160000X-0.197500X0.160000X-0.197500X0.160000X0.197500X0*%
%ADD32RoundRect,0.155000X0.155000X-0.212500X0.155000X0.212500X-0.155000X0.212500X-0.155000X-0.212500X0*%
%ADD33RoundRect,0.155000X-0.155000X0.212500X-0.155000X-0.212500X0.155000X-0.212500X0.155000X0.212500X0*%
%ADD34RoundRect,0.155000X-0.212500X-0.155000X0.212500X-0.155000X0.212500X0.155000X-0.212500X0.155000X0*%
%ADD35R,0.584200X0.406400*%
%ADD36FreePoly0,0.000000*%
%ADD37FreePoly1,0.000000*%
%ADD38RoundRect,0.102000X0.754000X-0.754000X0.754000X0.754000X-0.754000X0.754000X-0.754000X-0.754000X0*%
%ADD39C,1.712000*%
%ADD40RoundRect,0.155000X0.212500X0.155000X-0.212500X0.155000X-0.212500X-0.155000X0.212500X-0.155000X0*%
%ADD41RoundRect,0.100000X0.575000X-0.100000X0.575000X0.100000X-0.575000X0.100000X-0.575000X-0.100000X0*%
%ADD42O,1.600000X0.900000*%
%ADD43RoundRect,0.250000X0.450000X-0.550000X0.450000X0.550000X-0.450000X0.550000X-0.450000X-0.550000X0*%
%ADD44RoundRect,0.250000X0.700000X-0.700000X0.700000X0.700000X-0.700000X0.700000X-0.700000X-0.700000X0*%
%ADD45RoundRect,0.160000X0.197500X0.160000X-0.197500X0.160000X-0.197500X-0.160000X0.197500X-0.160000X0*%
G04 APERTURE END LIST*
D10*
X66859600Y-34936200D02*
X71958200Y-34936200D01*
X71958200Y-37465000D01*
X66859600Y-37465000D01*
X66859600Y-34936200D01*
X84679020Y-36199581D02*
G75*
G02*
X82148180Y-36199581I-1265420J0D01*
G01*
X82148180Y-36199581D02*
G75*
G02*
X84679020Y-36199581I1265420J0D01*
G01*
X99898201Y-38735000D02*
G75*
G02*
X97367361Y-38735000I-1265420J0D01*
G01*
X97367361Y-38735000D02*
G75*
G02*
X99898201Y-38735000I1265420J0D01*
G01*
X87188900Y-37434000D02*
X89738200Y-37434000D01*
X89738200Y-39985200D01*
X87188900Y-39985200D01*
X87188900Y-37434000D01*
X92273620Y-36199581D02*
G75*
G02*
X89742780Y-36199581I-1265420J0D01*
G01*
X89742780Y-36199581D02*
G75*
G02*
X92273620Y-36199581I1265420J0D01*
G01*
X66859600Y-37465000D02*
X69408900Y-37465000D01*
X69408900Y-40016200D01*
X66859600Y-40016200D01*
X66859600Y-37465000D01*
X117673620Y-38739581D02*
G75*
G02*
X115142780Y-38739581I-1265420J0D01*
G01*
X115142780Y-38739581D02*
G75*
G02*
X117673620Y-38739581I1265420J0D01*
G01*
X110079020Y-36199581D02*
G75*
G02*
X107548180Y-36199581I-1265420J0D01*
G01*
X107548180Y-36199581D02*
G75*
G02*
X110079020Y-36199581I1265420J0D01*
G01*
X104973620Y-36199581D02*
G75*
G02*
X102442780Y-36199581I-1265420J0D01*
G01*
X102442780Y-36199581D02*
G75*
G02*
X104973620Y-36199581I1265420J0D01*
G01*
X74498201Y-36195000D02*
G75*
G02*
X71967361Y-36195000I-1265420J0D01*
G01*
X71967361Y-36195000D02*
G75*
G02*
X74498201Y-36195000I1265420J0D01*
G01*
X79578201Y-38739581D02*
G75*
G02*
X77047361Y-38739581I-1265420J0D01*
G01*
X77047361Y-38739581D02*
G75*
G02*
X79578201Y-38739581I1265420J0D01*
G01*
X80299160Y-63957200D02*
X80442017Y-64004819D01*
X80442017Y-64004819D02*
X80680112Y-64004819D01*
X80680112Y-64004819D02*
X80775350Y-63957200D01*
X80775350Y-63957200D02*
X80822969Y-63909580D01*
X80822969Y-63909580D02*
X80870588Y-63814342D01*
X80870588Y-63814342D02*
X80870588Y-63719104D01*
X80870588Y-63719104D02*
X80822969Y-63623866D01*
X80822969Y-63623866D02*
X80775350Y-63576247D01*
X80775350Y-63576247D02*
X80680112Y-63528628D01*
X80680112Y-63528628D02*
X80489636Y-63481009D01*
X80489636Y-63481009D02*
X80394398Y-63433390D01*
X80394398Y-63433390D02*
X80346779Y-63385771D01*
X80346779Y-63385771D02*
X80299160Y-63290533D01*
X80299160Y-63290533D02*
X80299160Y-63195295D01*
X80299160Y-63195295D02*
X80346779Y-63100057D01*
X80346779Y-63100057D02*
X80394398Y-63052438D01*
X80394398Y-63052438D02*
X80489636Y-63004819D01*
X80489636Y-63004819D02*
X80727731Y-63004819D01*
X80727731Y-63004819D02*
X80870588Y-63052438D01*
X81203922Y-63004819D02*
X81442017Y-64004819D01*
X81442017Y-64004819D02*
X81632493Y-63290533D01*
X81632493Y-63290533D02*
X81822969Y-64004819D01*
X81822969Y-64004819D02*
X82061065Y-63004819D01*
X82394398Y-63100057D02*
X82442017Y-63052438D01*
X82442017Y-63052438D02*
X82537255Y-63004819D01*
X82537255Y-63004819D02*
X82775350Y-63004819D01*
X82775350Y-63004819D02*
X82870588Y-63052438D01*
X82870588Y-63052438D02*
X82918207Y-63100057D01*
X82918207Y-63100057D02*
X82965826Y-63195295D01*
X82965826Y-63195295D02*
X82965826Y-63290533D01*
X82965826Y-63290533D02*
X82918207Y-63433390D01*
X82918207Y-63433390D02*
X82346779Y-64004819D01*
X82346779Y-64004819D02*
X82965826Y-64004819D01*
X134251819Y-60058058D02*
X134251819Y-59439011D01*
X134251819Y-59439011D02*
X134632771Y-59772344D01*
X134632771Y-59772344D02*
X134632771Y-59629487D01*
X134632771Y-59629487D02*
X134680390Y-59534249D01*
X134680390Y-59534249D02*
X134728009Y-59486630D01*
X134728009Y-59486630D02*
X134823247Y-59439011D01*
X134823247Y-59439011D02*
X135061342Y-59439011D01*
X135061342Y-59439011D02*
X135156580Y-59486630D01*
X135156580Y-59486630D02*
X135204200Y-59534249D01*
X135204200Y-59534249D02*
X135251819Y-59629487D01*
X135251819Y-59629487D02*
X135251819Y-59915201D01*
X135251819Y-59915201D02*
X135204200Y-60010439D01*
X135204200Y-60010439D02*
X135156580Y-60058058D01*
X134251819Y-59153296D02*
X135251819Y-58819963D01*
X135251819Y-58819963D02*
X134251819Y-58486630D01*
X134251819Y-58248534D02*
X134251819Y-57629487D01*
X134251819Y-57629487D02*
X134632771Y-57962820D01*
X134632771Y-57962820D02*
X134632771Y-57819963D01*
X134632771Y-57819963D02*
X134680390Y-57724725D01*
X134680390Y-57724725D02*
X134728009Y-57677106D01*
X134728009Y-57677106D02*
X134823247Y-57629487D01*
X134823247Y-57629487D02*
X135061342Y-57629487D01*
X135061342Y-57629487D02*
X135156580Y-57677106D01*
X135156580Y-57677106D02*
X135204200Y-57724725D01*
X135204200Y-57724725D02*
X135251819Y-57819963D01*
X135251819Y-57819963D02*
X135251819Y-58105677D01*
X135251819Y-58105677D02*
X135204200Y-58200915D01*
X135204200Y-58200915D02*
X135156580Y-58248534D01*
X134251819Y-55058057D02*
X135251819Y-54724724D01*
X135251819Y-54724724D02*
X134251819Y-54391391D01*
X134251819Y-54058057D02*
X135061342Y-54058057D01*
X135061342Y-54058057D02*
X135156580Y-54010438D01*
X135156580Y-54010438D02*
X135204200Y-53962819D01*
X135204200Y-53962819D02*
X135251819Y-53867581D01*
X135251819Y-53867581D02*
X135251819Y-53677105D01*
X135251819Y-53677105D02*
X135204200Y-53581867D01*
X135204200Y-53581867D02*
X135156580Y-53534248D01*
X135156580Y-53534248D02*
X135061342Y-53486629D01*
X135061342Y-53486629D02*
X134251819Y-53486629D01*
X135204200Y-53058057D02*
X135251819Y-52915200D01*
X135251819Y-52915200D02*
X135251819Y-52677105D01*
X135251819Y-52677105D02*
X135204200Y-52581867D01*
X135204200Y-52581867D02*
X135156580Y-52534248D01*
X135156580Y-52534248D02*
X135061342Y-52486629D01*
X135061342Y-52486629D02*
X134966104Y-52486629D01*
X134966104Y-52486629D02*
X134870866Y-52534248D01*
X134870866Y-52534248D02*
X134823247Y-52581867D01*
X134823247Y-52581867D02*
X134775628Y-52677105D01*
X134775628Y-52677105D02*
X134728009Y-52867581D01*
X134728009Y-52867581D02*
X134680390Y-52962819D01*
X134680390Y-52962819D02*
X134632771Y-53010438D01*
X134632771Y-53010438D02*
X134537533Y-53058057D01*
X134537533Y-53058057D02*
X134442295Y-53058057D01*
X134442295Y-53058057D02*
X134347057Y-53010438D01*
X134347057Y-53010438D02*
X134299438Y-52962819D01*
X134299438Y-52962819D02*
X134251819Y-52867581D01*
X134251819Y-52867581D02*
X134251819Y-52629486D01*
X134251819Y-52629486D02*
X134299438Y-52486629D01*
X134728009Y-51724724D02*
X134775628Y-51581867D01*
X134775628Y-51581867D02*
X134823247Y-51534248D01*
X134823247Y-51534248D02*
X134918485Y-51486629D01*
X134918485Y-51486629D02*
X135061342Y-51486629D01*
X135061342Y-51486629D02*
X135156580Y-51534248D01*
X135156580Y-51534248D02*
X135204200Y-51581867D01*
X135204200Y-51581867D02*
X135251819Y-51677105D01*
X135251819Y-51677105D02*
X135251819Y-52058057D01*
X135251819Y-52058057D02*
X134251819Y-52058057D01*
X134251819Y-52058057D02*
X134251819Y-51724724D01*
X134251819Y-51724724D02*
X134299438Y-51629486D01*
X134299438Y-51629486D02*
X134347057Y-51581867D01*
X134347057Y-51581867D02*
X134442295Y-51534248D01*
X134442295Y-51534248D02*
X134537533Y-51534248D01*
X134537533Y-51534248D02*
X134632771Y-51581867D01*
X134632771Y-51581867D02*
X134680390Y-51629486D01*
X134680390Y-51629486D02*
X134728009Y-51724724D01*
X134728009Y-51724724D02*
X134728009Y-52058057D01*
X122793312Y-82073809D02*
X122936169Y-82121428D01*
X122936169Y-82121428D02*
X122983788Y-82169047D01*
X122983788Y-82169047D02*
X123031407Y-82264285D01*
X123031407Y-82264285D02*
X123031407Y-82407142D01*
X123031407Y-82407142D02*
X122983788Y-82502380D01*
X122983788Y-82502380D02*
X122936169Y-82550000D01*
X122936169Y-82550000D02*
X122840931Y-82597619D01*
X122840931Y-82597619D02*
X122459979Y-82597619D01*
X122459979Y-82597619D02*
X122459979Y-81597619D01*
X122459979Y-81597619D02*
X122793312Y-81597619D01*
X122793312Y-81597619D02*
X122888550Y-81645238D01*
X122888550Y-81645238D02*
X122936169Y-81692857D01*
X122936169Y-81692857D02*
X122983788Y-81788095D01*
X122983788Y-81788095D02*
X122983788Y-81883333D01*
X122983788Y-81883333D02*
X122936169Y-81978571D01*
X122936169Y-81978571D02*
X122888550Y-82026190D01*
X122888550Y-82026190D02*
X122793312Y-82073809D01*
X122793312Y-82073809D02*
X122459979Y-82073809D01*
X124031407Y-82597619D02*
X123698074Y-82121428D01*
X123459979Y-82597619D02*
X123459979Y-81597619D01*
X123459979Y-81597619D02*
X123840931Y-81597619D01*
X123840931Y-81597619D02*
X123936169Y-81645238D01*
X123936169Y-81645238D02*
X123983788Y-81692857D01*
X123983788Y-81692857D02*
X124031407Y-81788095D01*
X124031407Y-81788095D02*
X124031407Y-81930952D01*
X124031407Y-81930952D02*
X123983788Y-82026190D01*
X123983788Y-82026190D02*
X123936169Y-82073809D01*
X123936169Y-82073809D02*
X123840931Y-82121428D01*
X123840931Y-82121428D02*
X123459979Y-82121428D01*
X124459979Y-82073809D02*
X124793312Y-82073809D01*
X124936169Y-82597619D02*
X124459979Y-82597619D01*
X124459979Y-82597619D02*
X124459979Y-81597619D01*
X124459979Y-81597619D02*
X124936169Y-81597619D01*
X125317122Y-82311904D02*
X125793312Y-82311904D01*
X125221884Y-82597619D02*
X125555217Y-81597619D01*
X125555217Y-81597619D02*
X125888550Y-82597619D01*
X126221884Y-82597619D02*
X126221884Y-81597619D01*
X126793312Y-82597619D02*
X126364741Y-82026190D01*
X126793312Y-81597619D02*
X126221884Y-82169047D01*
X127412360Y-81597619D02*
X127602836Y-81597619D01*
X127602836Y-81597619D02*
X127698074Y-81645238D01*
X127698074Y-81645238D02*
X127793312Y-81740476D01*
X127793312Y-81740476D02*
X127840931Y-81930952D01*
X127840931Y-81930952D02*
X127840931Y-82264285D01*
X127840931Y-82264285D02*
X127793312Y-82454761D01*
X127793312Y-82454761D02*
X127698074Y-82550000D01*
X127698074Y-82550000D02*
X127602836Y-82597619D01*
X127602836Y-82597619D02*
X127412360Y-82597619D01*
X127412360Y-82597619D02*
X127317122Y-82550000D01*
X127317122Y-82550000D02*
X127221884Y-82454761D01*
X127221884Y-82454761D02*
X127174265Y-82264285D01*
X127174265Y-82264285D02*
X127174265Y-81930952D01*
X127174265Y-81930952D02*
X127221884Y-81740476D01*
X127221884Y-81740476D02*
X127317122Y-81645238D01*
X127317122Y-81645238D02*
X127412360Y-81597619D01*
X128269503Y-81597619D02*
X128269503Y-82407142D01*
X128269503Y-82407142D02*
X128317122Y-82502380D01*
X128317122Y-82502380D02*
X128364741Y-82550000D01*
X128364741Y-82550000D02*
X128459979Y-82597619D01*
X128459979Y-82597619D02*
X128650455Y-82597619D01*
X128650455Y-82597619D02*
X128745693Y-82550000D01*
X128745693Y-82550000D02*
X128793312Y-82502380D01*
X128793312Y-82502380D02*
X128840931Y-82407142D01*
X128840931Y-82407142D02*
X128840931Y-81597619D01*
X129174265Y-81597619D02*
X129745693Y-81597619D01*
X129459979Y-82597619D02*
X129459979Y-81597619D01*
X108645560Y-78898312D02*
X108788417Y-78945931D01*
X108788417Y-78945931D02*
X109026512Y-78945931D01*
X109026512Y-78945931D02*
X109121750Y-78898312D01*
X109121750Y-78898312D02*
X109169369Y-78850692D01*
X109169369Y-78850692D02*
X109216988Y-78755454D01*
X109216988Y-78755454D02*
X109216988Y-78660216D01*
X109216988Y-78660216D02*
X109169369Y-78564978D01*
X109169369Y-78564978D02*
X109121750Y-78517359D01*
X109121750Y-78517359D02*
X109026512Y-78469740D01*
X109026512Y-78469740D02*
X108836036Y-78422121D01*
X108836036Y-78422121D02*
X108740798Y-78374502D01*
X108740798Y-78374502D02*
X108693179Y-78326883D01*
X108693179Y-78326883D02*
X108645560Y-78231645D01*
X108645560Y-78231645D02*
X108645560Y-78136407D01*
X108645560Y-78136407D02*
X108693179Y-78041169D01*
X108693179Y-78041169D02*
X108740798Y-77993550D01*
X108740798Y-77993550D02*
X108836036Y-77945931D01*
X108836036Y-77945931D02*
X109074131Y-77945931D01*
X109074131Y-77945931D02*
X109216988Y-77993550D01*
X109645560Y-78945931D02*
X109645560Y-77945931D01*
X109645560Y-77945931D02*
X110026512Y-77945931D01*
X110026512Y-77945931D02*
X110121750Y-77993550D01*
X110121750Y-77993550D02*
X110169369Y-78041169D01*
X110169369Y-78041169D02*
X110216988Y-78136407D01*
X110216988Y-78136407D02*
X110216988Y-78279264D01*
X110216988Y-78279264D02*
X110169369Y-78374502D01*
X110169369Y-78374502D02*
X110121750Y-78422121D01*
X110121750Y-78422121D02*
X110026512Y-78469740D01*
X110026512Y-78469740D02*
X109645560Y-78469740D01*
X110597941Y-78660216D02*
X111074131Y-78660216D01*
X110502703Y-78945931D02*
X110836036Y-77945931D01*
X110836036Y-77945931D02*
X111169369Y-78945931D01*
X112074131Y-78945931D02*
X111740798Y-78469740D01*
X111502703Y-78945931D02*
X111502703Y-77945931D01*
X111502703Y-77945931D02*
X111883655Y-77945931D01*
X111883655Y-77945931D02*
X111978893Y-77993550D01*
X111978893Y-77993550D02*
X112026512Y-78041169D01*
X112026512Y-78041169D02*
X112074131Y-78136407D01*
X112074131Y-78136407D02*
X112074131Y-78279264D01*
X112074131Y-78279264D02*
X112026512Y-78374502D01*
X112026512Y-78374502D02*
X111978893Y-78422121D01*
X111978893Y-78422121D02*
X111883655Y-78469740D01*
X111883655Y-78469740D02*
X111502703Y-78469740D01*
X112359846Y-77945931D02*
X112931274Y-77945931D01*
X112645560Y-78945931D02*
X112645560Y-77945931D01*
X113216989Y-78660216D02*
X113693179Y-78660216D01*
X113121751Y-78945931D02*
X113455084Y-77945931D01*
X113455084Y-77945931D02*
X113788417Y-78945931D01*
X114121751Y-78945931D02*
X114121751Y-77945931D01*
X114121751Y-77945931D02*
X114693179Y-78945931D01*
X114693179Y-78945931D02*
X114693179Y-77945931D01*
X116359846Y-77945931D02*
X116169370Y-77945931D01*
X116169370Y-77945931D02*
X116074132Y-77993550D01*
X116074132Y-77993550D02*
X116026513Y-78041169D01*
X116026513Y-78041169D02*
X115931275Y-78184026D01*
X115931275Y-78184026D02*
X115883656Y-78374502D01*
X115883656Y-78374502D02*
X115883656Y-78755454D01*
X115883656Y-78755454D02*
X115931275Y-78850692D01*
X115931275Y-78850692D02*
X115978894Y-78898312D01*
X115978894Y-78898312D02*
X116074132Y-78945931D01*
X116074132Y-78945931D02*
X116264608Y-78945931D01*
X116264608Y-78945931D02*
X116359846Y-78898312D01*
X116359846Y-78898312D02*
X116407465Y-78850692D01*
X116407465Y-78850692D02*
X116455084Y-78755454D01*
X116455084Y-78755454D02*
X116455084Y-78517359D01*
X116455084Y-78517359D02*
X116407465Y-78422121D01*
X116407465Y-78422121D02*
X116359846Y-78374502D01*
X116359846Y-78374502D02*
X116264608Y-78326883D01*
X116264608Y-78326883D02*
X116074132Y-78326883D01*
X116074132Y-78326883D02*
X115978894Y-78374502D01*
X115978894Y-78374502D02*
X115931275Y-78422121D01*
X115931275Y-78422121D02*
X115883656Y-78517359D01*
X117645561Y-78945931D02*
X117645561Y-77945931D01*
X117645561Y-77945931D02*
X117883656Y-77945931D01*
X117883656Y-77945931D02*
X118026513Y-77993550D01*
X118026513Y-77993550D02*
X118121751Y-78088788D01*
X118121751Y-78088788D02*
X118169370Y-78184026D01*
X118169370Y-78184026D02*
X118216989Y-78374502D01*
X118216989Y-78374502D02*
X118216989Y-78517359D01*
X118216989Y-78517359D02*
X118169370Y-78707835D01*
X118169370Y-78707835D02*
X118121751Y-78803073D01*
X118121751Y-78803073D02*
X118026513Y-78898312D01*
X118026513Y-78898312D02*
X117883656Y-78945931D01*
X117883656Y-78945931D02*
X117645561Y-78945931D01*
X118645561Y-78422121D02*
X118978894Y-78422121D01*
X119121751Y-78945931D02*
X118645561Y-78945931D01*
X118645561Y-78945931D02*
X118645561Y-77945931D01*
X118645561Y-77945931D02*
X119121751Y-77945931D01*
X119407466Y-77945931D02*
X119740799Y-78945931D01*
X119740799Y-78945931D02*
X120074132Y-77945931D01*
X120407466Y-78945931D02*
X120407466Y-77945931D01*
X120978894Y-78945931D02*
X120550323Y-78374502D01*
X120978894Y-77945931D02*
X120407466Y-78517359D01*
X121407466Y-78945931D02*
X121407466Y-77945931D01*
X121740799Y-77945931D02*
X122312227Y-77945931D01*
X122026513Y-78945931D02*
X122026513Y-77945931D01*
X123264609Y-77945931D02*
X123597942Y-78945931D01*
X123597942Y-78945931D02*
X123931275Y-77945931D01*
X124788418Y-78945931D02*
X124216990Y-78945931D01*
X124502704Y-78945931D02*
X124502704Y-77945931D01*
X124502704Y-77945931D02*
X124407466Y-78088788D01*
X124407466Y-78088788D02*
X124312228Y-78184026D01*
X124312228Y-78184026D02*
X124216990Y-78231645D01*
X108645560Y-80270160D02*
X109121750Y-80270160D01*
X108550322Y-80555875D02*
X108883655Y-79555875D01*
X108883655Y-79555875D02*
X109216988Y-80555875D01*
X110121750Y-80555875D02*
X109788417Y-80079684D01*
X109550322Y-80555875D02*
X109550322Y-79555875D01*
X109550322Y-79555875D02*
X109931274Y-79555875D01*
X109931274Y-79555875D02*
X110026512Y-79603494D01*
X110026512Y-79603494D02*
X110074131Y-79651113D01*
X110074131Y-79651113D02*
X110121750Y-79746351D01*
X110121750Y-79746351D02*
X110121750Y-79889208D01*
X110121750Y-79889208D02*
X110074131Y-79984446D01*
X110074131Y-79984446D02*
X110026512Y-80032065D01*
X110026512Y-80032065D02*
X109931274Y-80079684D01*
X109931274Y-80079684D02*
X109550322Y-80079684D01*
X110550322Y-80555875D02*
X110550322Y-79555875D01*
X112121750Y-80032065D02*
X112264607Y-80079684D01*
X112264607Y-80079684D02*
X112312226Y-80127303D01*
X112312226Y-80127303D02*
X112359845Y-80222541D01*
X112359845Y-80222541D02*
X112359845Y-80365398D01*
X112359845Y-80365398D02*
X112312226Y-80460636D01*
X112312226Y-80460636D02*
X112264607Y-80508256D01*
X112264607Y-80508256D02*
X112169369Y-80555875D01*
X112169369Y-80555875D02*
X111788417Y-80555875D01*
X111788417Y-80555875D02*
X111788417Y-79555875D01*
X111788417Y-79555875D02*
X112121750Y-79555875D01*
X112121750Y-79555875D02*
X112216988Y-79603494D01*
X112216988Y-79603494D02*
X112264607Y-79651113D01*
X112264607Y-79651113D02*
X112312226Y-79746351D01*
X112312226Y-79746351D02*
X112312226Y-79841589D01*
X112312226Y-79841589D02*
X112264607Y-79936827D01*
X112264607Y-79936827D02*
X112216988Y-79984446D01*
X112216988Y-79984446D02*
X112121750Y-80032065D01*
X112121750Y-80032065D02*
X111788417Y-80032065D01*
X112978893Y-79555875D02*
X113169369Y-79555875D01*
X113169369Y-79555875D02*
X113264607Y-79603494D01*
X113264607Y-79603494D02*
X113359845Y-79698732D01*
X113359845Y-79698732D02*
X113407464Y-79889208D01*
X113407464Y-79889208D02*
X113407464Y-80222541D01*
X113407464Y-80222541D02*
X113359845Y-80413017D01*
X113359845Y-80413017D02*
X113264607Y-80508256D01*
X113264607Y-80508256D02*
X113169369Y-80555875D01*
X113169369Y-80555875D02*
X112978893Y-80555875D01*
X112978893Y-80555875D02*
X112883655Y-80508256D01*
X112883655Y-80508256D02*
X112788417Y-80413017D01*
X112788417Y-80413017D02*
X112740798Y-80222541D01*
X112740798Y-80222541D02*
X112740798Y-79889208D01*
X112740798Y-79889208D02*
X112788417Y-79698732D01*
X112788417Y-79698732D02*
X112883655Y-79603494D01*
X112883655Y-79603494D02*
X112978893Y-79555875D01*
X114169369Y-80032065D02*
X114312226Y-80079684D01*
X114312226Y-80079684D02*
X114359845Y-80127303D01*
X114359845Y-80127303D02*
X114407464Y-80222541D01*
X114407464Y-80222541D02*
X114407464Y-80365398D01*
X114407464Y-80365398D02*
X114359845Y-80460636D01*
X114359845Y-80460636D02*
X114312226Y-80508256D01*
X114312226Y-80508256D02*
X114216988Y-80555875D01*
X114216988Y-80555875D02*
X113836036Y-80555875D01*
X113836036Y-80555875D02*
X113836036Y-79555875D01*
X113836036Y-79555875D02*
X114169369Y-79555875D01*
X114169369Y-79555875D02*
X114264607Y-79603494D01*
X114264607Y-79603494D02*
X114312226Y-79651113D01*
X114312226Y-79651113D02*
X114359845Y-79746351D01*
X114359845Y-79746351D02*
X114359845Y-79841589D01*
X114359845Y-79841589D02*
X114312226Y-79936827D01*
X114312226Y-79936827D02*
X114264607Y-79984446D01*
X114264607Y-79984446D02*
X114169369Y-80032065D01*
X114169369Y-80032065D02*
X113836036Y-80032065D01*
X114836036Y-80032065D02*
X115169369Y-80032065D01*
X115312226Y-80555875D02*
X114836036Y-80555875D01*
X114836036Y-80555875D02*
X114836036Y-79555875D01*
X114836036Y-79555875D02*
X115312226Y-79555875D01*
X115693179Y-80508256D02*
X115836036Y-80555875D01*
X115836036Y-80555875D02*
X116074131Y-80555875D01*
X116074131Y-80555875D02*
X116169369Y-80508256D01*
X116169369Y-80508256D02*
X116216988Y-80460636D01*
X116216988Y-80460636D02*
X116264607Y-80365398D01*
X116264607Y-80365398D02*
X116264607Y-80270160D01*
X116264607Y-80270160D02*
X116216988Y-80174922D01*
X116216988Y-80174922D02*
X116169369Y-80127303D01*
X116169369Y-80127303D02*
X116074131Y-80079684D01*
X116074131Y-80079684D02*
X115883655Y-80032065D01*
X115883655Y-80032065D02*
X115788417Y-79984446D01*
X115788417Y-79984446D02*
X115740798Y-79936827D01*
X115740798Y-79936827D02*
X115693179Y-79841589D01*
X115693179Y-79841589D02*
X115693179Y-79746351D01*
X115693179Y-79746351D02*
X115740798Y-79651113D01*
X115740798Y-79651113D02*
X115788417Y-79603494D01*
X115788417Y-79603494D02*
X115883655Y-79555875D01*
X115883655Y-79555875D02*
X116121750Y-79555875D01*
X116121750Y-79555875D02*
X116264607Y-79603494D01*
X116693179Y-80555875D02*
X116693179Y-79555875D01*
X116693179Y-80032065D02*
X117264607Y-80032065D01*
X117264607Y-80555875D02*
X117264607Y-79555875D01*
X108883655Y-81165819D02*
X108978893Y-81165819D01*
X108978893Y-81165819D02*
X109074131Y-81213438D01*
X109074131Y-81213438D02*
X109121750Y-81261057D01*
X109121750Y-81261057D02*
X109169369Y-81356295D01*
X109169369Y-81356295D02*
X109216988Y-81546771D01*
X109216988Y-81546771D02*
X109216988Y-81784866D01*
X109216988Y-81784866D02*
X109169369Y-81975342D01*
X109169369Y-81975342D02*
X109121750Y-82070580D01*
X109121750Y-82070580D02*
X109074131Y-82118200D01*
X109074131Y-82118200D02*
X108978893Y-82165819D01*
X108978893Y-82165819D02*
X108883655Y-82165819D01*
X108883655Y-82165819D02*
X108788417Y-82118200D01*
X108788417Y-82118200D02*
X108740798Y-82070580D01*
X108740798Y-82070580D02*
X108693179Y-81975342D01*
X108693179Y-81975342D02*
X108645560Y-81784866D01*
X108645560Y-81784866D02*
X108645560Y-81546771D01*
X108645560Y-81546771D02*
X108693179Y-81356295D01*
X108693179Y-81356295D02*
X108740798Y-81261057D01*
X108740798Y-81261057D02*
X108788417Y-81213438D01*
X108788417Y-81213438D02*
X108883655Y-81165819D01*
X109693179Y-82165819D02*
X109883655Y-82165819D01*
X109883655Y-82165819D02*
X109978893Y-82118200D01*
X109978893Y-82118200D02*
X110026512Y-82070580D01*
X110026512Y-82070580D02*
X110121750Y-81927723D01*
X110121750Y-81927723D02*
X110169369Y-81737247D01*
X110169369Y-81737247D02*
X110169369Y-81356295D01*
X110169369Y-81356295D02*
X110121750Y-81261057D01*
X110121750Y-81261057D02*
X110074131Y-81213438D01*
X110074131Y-81213438D02*
X109978893Y-81165819D01*
X109978893Y-81165819D02*
X109788417Y-81165819D01*
X109788417Y-81165819D02*
X109693179Y-81213438D01*
X109693179Y-81213438D02*
X109645560Y-81261057D01*
X109645560Y-81261057D02*
X109597941Y-81356295D01*
X109597941Y-81356295D02*
X109597941Y-81594390D01*
X109597941Y-81594390D02*
X109645560Y-81689628D01*
X109645560Y-81689628D02*
X109693179Y-81737247D01*
X109693179Y-81737247D02*
X109788417Y-81784866D01*
X109788417Y-81784866D02*
X109978893Y-81784866D01*
X109978893Y-81784866D02*
X110074131Y-81737247D01*
X110074131Y-81737247D02*
X110121750Y-81689628D01*
X110121750Y-81689628D02*
X110169369Y-81594390D01*
X111312226Y-81118200D02*
X110455084Y-82403914D01*
X111836036Y-81165819D02*
X111931274Y-81165819D01*
X111931274Y-81165819D02*
X112026512Y-81213438D01*
X112026512Y-81213438D02*
X112074131Y-81261057D01*
X112074131Y-81261057D02*
X112121750Y-81356295D01*
X112121750Y-81356295D02*
X112169369Y-81546771D01*
X112169369Y-81546771D02*
X112169369Y-81784866D01*
X112169369Y-81784866D02*
X112121750Y-81975342D01*
X112121750Y-81975342D02*
X112074131Y-82070580D01*
X112074131Y-82070580D02*
X112026512Y-82118200D01*
X112026512Y-82118200D02*
X111931274Y-82165819D01*
X111931274Y-82165819D02*
X111836036Y-82165819D01*
X111836036Y-82165819D02*
X111740798Y-82118200D01*
X111740798Y-82118200D02*
X111693179Y-82070580D01*
X111693179Y-82070580D02*
X111645560Y-81975342D01*
X111645560Y-81975342D02*
X111597941Y-81784866D01*
X111597941Y-81784866D02*
X111597941Y-81546771D01*
X111597941Y-81546771D02*
X111645560Y-81356295D01*
X111645560Y-81356295D02*
X111693179Y-81261057D01*
X111693179Y-81261057D02*
X111740798Y-81213438D01*
X111740798Y-81213438D02*
X111836036Y-81165819D01*
X112740798Y-81594390D02*
X112645560Y-81546771D01*
X112645560Y-81546771D02*
X112597941Y-81499152D01*
X112597941Y-81499152D02*
X112550322Y-81403914D01*
X112550322Y-81403914D02*
X112550322Y-81356295D01*
X112550322Y-81356295D02*
X112597941Y-81261057D01*
X112597941Y-81261057D02*
X112645560Y-81213438D01*
X112645560Y-81213438D02*
X112740798Y-81165819D01*
X112740798Y-81165819D02*
X112931274Y-81165819D01*
X112931274Y-81165819D02*
X113026512Y-81213438D01*
X113026512Y-81213438D02*
X113074131Y-81261057D01*
X113074131Y-81261057D02*
X113121750Y-81356295D01*
X113121750Y-81356295D02*
X113121750Y-81403914D01*
X113121750Y-81403914D02*
X113074131Y-81499152D01*
X113074131Y-81499152D02*
X113026512Y-81546771D01*
X113026512Y-81546771D02*
X112931274Y-81594390D01*
X112931274Y-81594390D02*
X112740798Y-81594390D01*
X112740798Y-81594390D02*
X112645560Y-81642009D01*
X112645560Y-81642009D02*
X112597941Y-81689628D01*
X112597941Y-81689628D02*
X112550322Y-81784866D01*
X112550322Y-81784866D02*
X112550322Y-81975342D01*
X112550322Y-81975342D02*
X112597941Y-82070580D01*
X112597941Y-82070580D02*
X112645560Y-82118200D01*
X112645560Y-82118200D02*
X112740798Y-82165819D01*
X112740798Y-82165819D02*
X112931274Y-82165819D01*
X112931274Y-82165819D02*
X113026512Y-82118200D01*
X113026512Y-82118200D02*
X113074131Y-82070580D01*
X113074131Y-82070580D02*
X113121750Y-81975342D01*
X113121750Y-81975342D02*
X113121750Y-81784866D01*
X113121750Y-81784866D02*
X113074131Y-81689628D01*
X113074131Y-81689628D02*
X113026512Y-81642009D01*
X113026512Y-81642009D02*
X112931274Y-81594390D01*
X114264607Y-81118200D02*
X113407465Y-82403914D01*
X114550322Y-81261057D02*
X114597941Y-81213438D01*
X114597941Y-81213438D02*
X114693179Y-81165819D01*
X114693179Y-81165819D02*
X114931274Y-81165819D01*
X114931274Y-81165819D02*
X115026512Y-81213438D01*
X115026512Y-81213438D02*
X115074131Y-81261057D01*
X115074131Y-81261057D02*
X115121750Y-81356295D01*
X115121750Y-81356295D02*
X115121750Y-81451533D01*
X115121750Y-81451533D02*
X115074131Y-81594390D01*
X115074131Y-81594390D02*
X114502703Y-82165819D01*
X114502703Y-82165819D02*
X115121750Y-82165819D01*
X115978893Y-81499152D02*
X115978893Y-82165819D01*
X115740798Y-81118200D02*
X115502703Y-81832485D01*
X115502703Y-81832485D02*
X116121750Y-81832485D01*
X87185619Y-62286944D02*
X87185619Y-62096468D01*
X87185619Y-62096468D02*
X87233238Y-62001230D01*
X87233238Y-62001230D02*
X87328476Y-61905992D01*
X87328476Y-61905992D02*
X87518952Y-61858373D01*
X87518952Y-61858373D02*
X87852285Y-61858373D01*
X87852285Y-61858373D02*
X88042761Y-61905992D01*
X88042761Y-61905992D02*
X88138000Y-62001230D01*
X88138000Y-62001230D02*
X88185619Y-62096468D01*
X88185619Y-62096468D02*
X88185619Y-62286944D01*
X88185619Y-62286944D02*
X88138000Y-62382182D01*
X88138000Y-62382182D02*
X88042761Y-62477420D01*
X88042761Y-62477420D02*
X87852285Y-62525039D01*
X87852285Y-62525039D02*
X87518952Y-62525039D01*
X87518952Y-62525039D02*
X87328476Y-62477420D01*
X87328476Y-62477420D02*
X87233238Y-62382182D01*
X87233238Y-62382182D02*
X87185619Y-62286944D01*
X88185619Y-61429801D02*
X87185619Y-61429801D01*
X87185619Y-61429801D02*
X88185619Y-60858373D01*
X88185619Y-60858373D02*
X87185619Y-60858373D01*
X87185619Y-57905991D02*
X87185619Y-57715515D01*
X87185619Y-57715515D02*
X87233238Y-57620277D01*
X87233238Y-57620277D02*
X87328476Y-57525039D01*
X87328476Y-57525039D02*
X87518952Y-57477420D01*
X87518952Y-57477420D02*
X87852285Y-57477420D01*
X87852285Y-57477420D02*
X88042761Y-57525039D01*
X88042761Y-57525039D02*
X88138000Y-57620277D01*
X88138000Y-57620277D02*
X88185619Y-57715515D01*
X88185619Y-57715515D02*
X88185619Y-57905991D01*
X88185619Y-57905991D02*
X88138000Y-58001229D01*
X88138000Y-58001229D02*
X88042761Y-58096467D01*
X88042761Y-58096467D02*
X87852285Y-58144086D01*
X87852285Y-58144086D02*
X87518952Y-58144086D01*
X87518952Y-58144086D02*
X87328476Y-58096467D01*
X87328476Y-58096467D02*
X87233238Y-58001229D01*
X87233238Y-58001229D02*
X87185619Y-57905991D01*
X87661809Y-56715515D02*
X87661809Y-57048848D01*
X88185619Y-57048848D02*
X87185619Y-57048848D01*
X87185619Y-57048848D02*
X87185619Y-56572658D01*
X87661809Y-55858372D02*
X87661809Y-56191705D01*
X88185619Y-56191705D02*
X87185619Y-56191705D01*
X87185619Y-56191705D02*
X87185619Y-55715515D01*
X103625807Y-41551219D02*
X103292474Y-41075028D01*
X103054379Y-41551219D02*
X103054379Y-40551219D01*
X103054379Y-40551219D02*
X103435331Y-40551219D01*
X103435331Y-40551219D02*
X103530569Y-40598838D01*
X103530569Y-40598838D02*
X103578188Y-40646457D01*
X103578188Y-40646457D02*
X103625807Y-40741695D01*
X103625807Y-40741695D02*
X103625807Y-40884552D01*
X103625807Y-40884552D02*
X103578188Y-40979790D01*
X103578188Y-40979790D02*
X103530569Y-41027409D01*
X103530569Y-41027409D02*
X103435331Y-41075028D01*
X103435331Y-41075028D02*
X103054379Y-41075028D01*
X104006760Y-41265504D02*
X104482950Y-41265504D01*
X103911522Y-41551219D02*
X104244855Y-40551219D01*
X104244855Y-40551219D02*
X104578188Y-41551219D01*
X104863903Y-41503600D02*
X105006760Y-41551219D01*
X105006760Y-41551219D02*
X105244855Y-41551219D01*
X105244855Y-41551219D02*
X105340093Y-41503600D01*
X105340093Y-41503600D02*
X105387712Y-41455980D01*
X105387712Y-41455980D02*
X105435331Y-41360742D01*
X105435331Y-41360742D02*
X105435331Y-41265504D01*
X105435331Y-41265504D02*
X105387712Y-41170266D01*
X105387712Y-41170266D02*
X105340093Y-41122647D01*
X105340093Y-41122647D02*
X105244855Y-41075028D01*
X105244855Y-41075028D02*
X105054379Y-41027409D01*
X105054379Y-41027409D02*
X104959141Y-40979790D01*
X104959141Y-40979790D02*
X104911522Y-40932171D01*
X104911522Y-40932171D02*
X104863903Y-40836933D01*
X104863903Y-40836933D02*
X104863903Y-40741695D01*
X104863903Y-40741695D02*
X104911522Y-40646457D01*
X104911522Y-40646457D02*
X104959141Y-40598838D01*
X104959141Y-40598838D02*
X105054379Y-40551219D01*
X105054379Y-40551219D02*
X105292474Y-40551219D01*
X105292474Y-40551219D02*
X105435331Y-40598838D01*
X105863903Y-41551219D02*
X105863903Y-40551219D01*
X105863903Y-40551219D02*
X106244855Y-40551219D01*
X106244855Y-40551219D02*
X106340093Y-40598838D01*
X106340093Y-40598838D02*
X106387712Y-40646457D01*
X106387712Y-40646457D02*
X106435331Y-40741695D01*
X106435331Y-40741695D02*
X106435331Y-40884552D01*
X106435331Y-40884552D02*
X106387712Y-40979790D01*
X106387712Y-40979790D02*
X106340093Y-41027409D01*
X106340093Y-41027409D02*
X106244855Y-41075028D01*
X106244855Y-41075028D02*
X105863903Y-41075028D01*
X106863903Y-41551219D02*
X106863903Y-40551219D01*
X108101998Y-41551219D02*
X108101998Y-40551219D01*
X108101998Y-41027409D02*
X108673426Y-41027409D01*
X108673426Y-41551219D02*
X108673426Y-40551219D01*
X109149617Y-41027409D02*
X109482950Y-41027409D01*
X109625807Y-41551219D02*
X109149617Y-41551219D01*
X109149617Y-41551219D02*
X109149617Y-40551219D01*
X109149617Y-40551219D02*
X109625807Y-40551219D01*
X110006760Y-41265504D02*
X110482950Y-41265504D01*
X109911522Y-41551219D02*
X110244855Y-40551219D01*
X110244855Y-40551219D02*
X110578188Y-41551219D01*
X110911522Y-41551219D02*
X110911522Y-40551219D01*
X110911522Y-40551219D02*
X111149617Y-40551219D01*
X111149617Y-40551219D02*
X111292474Y-40598838D01*
X111292474Y-40598838D02*
X111387712Y-40694076D01*
X111387712Y-40694076D02*
X111435331Y-40789314D01*
X111435331Y-40789314D02*
X111482950Y-40979790D01*
X111482950Y-40979790D02*
X111482950Y-41122647D01*
X111482950Y-41122647D02*
X111435331Y-41313123D01*
X111435331Y-41313123D02*
X111387712Y-41408361D01*
X111387712Y-41408361D02*
X111292474Y-41503600D01*
X111292474Y-41503600D02*
X111149617Y-41551219D01*
X111149617Y-41551219D02*
X110911522Y-41551219D01*
X111911522Y-41027409D02*
X112244855Y-41027409D01*
X112387712Y-41551219D02*
X111911522Y-41551219D01*
X111911522Y-41551219D02*
X111911522Y-40551219D01*
X111911522Y-40551219D02*
X112387712Y-40551219D01*
X113387712Y-41551219D02*
X113054379Y-41075028D01*
X112816284Y-41551219D02*
X112816284Y-40551219D01*
X112816284Y-40551219D02*
X113197236Y-40551219D01*
X113197236Y-40551219D02*
X113292474Y-40598838D01*
X113292474Y-40598838D02*
X113340093Y-40646457D01*
X113340093Y-40646457D02*
X113387712Y-40741695D01*
X113387712Y-40741695D02*
X113387712Y-40884552D01*
X113387712Y-40884552D02*
X113340093Y-40979790D01*
X113340093Y-40979790D02*
X113292474Y-41027409D01*
X113292474Y-41027409D02*
X113197236Y-41075028D01*
X113197236Y-41075028D02*
X112816284Y-41075028D01*
X124044322Y-72783819D02*
X124377655Y-73783819D01*
X124377655Y-73783819D02*
X124710988Y-72783819D01*
X125044322Y-72783819D02*
X125044322Y-73593342D01*
X125044322Y-73593342D02*
X125091941Y-73688580D01*
X125091941Y-73688580D02*
X125139560Y-73736200D01*
X125139560Y-73736200D02*
X125234798Y-73783819D01*
X125234798Y-73783819D02*
X125425274Y-73783819D01*
X125425274Y-73783819D02*
X125520512Y-73736200D01*
X125520512Y-73736200D02*
X125568131Y-73688580D01*
X125568131Y-73688580D02*
X125615750Y-73593342D01*
X125615750Y-73593342D02*
X125615750Y-72783819D01*
X126044322Y-73736200D02*
X126187179Y-73783819D01*
X126187179Y-73783819D02*
X126425274Y-73783819D01*
X126425274Y-73783819D02*
X126520512Y-73736200D01*
X126520512Y-73736200D02*
X126568131Y-73688580D01*
X126568131Y-73688580D02*
X126615750Y-73593342D01*
X126615750Y-73593342D02*
X126615750Y-73498104D01*
X126615750Y-73498104D02*
X126568131Y-73402866D01*
X126568131Y-73402866D02*
X126520512Y-73355247D01*
X126520512Y-73355247D02*
X126425274Y-73307628D01*
X126425274Y-73307628D02*
X126234798Y-73260009D01*
X126234798Y-73260009D02*
X126139560Y-73212390D01*
X126139560Y-73212390D02*
X126091941Y-73164771D01*
X126091941Y-73164771D02*
X126044322Y-73069533D01*
X126044322Y-73069533D02*
X126044322Y-72974295D01*
X126044322Y-72974295D02*
X126091941Y-72879057D01*
X126091941Y-72879057D02*
X126139560Y-72831438D01*
X126139560Y-72831438D02*
X126234798Y-72783819D01*
X126234798Y-72783819D02*
X126472893Y-72783819D01*
X126472893Y-72783819D02*
X126615750Y-72831438D01*
X127377655Y-73260009D02*
X127520512Y-73307628D01*
X127520512Y-73307628D02*
X127568131Y-73355247D01*
X127568131Y-73355247D02*
X127615750Y-73450485D01*
X127615750Y-73450485D02*
X127615750Y-73593342D01*
X127615750Y-73593342D02*
X127568131Y-73688580D01*
X127568131Y-73688580D02*
X127520512Y-73736200D01*
X127520512Y-73736200D02*
X127425274Y-73783819D01*
X127425274Y-73783819D02*
X127044322Y-73783819D01*
X127044322Y-73783819D02*
X127044322Y-72783819D01*
X127044322Y-72783819D02*
X127377655Y-72783819D01*
X127377655Y-72783819D02*
X127472893Y-72831438D01*
X127472893Y-72831438D02*
X127520512Y-72879057D01*
X127520512Y-72879057D02*
X127568131Y-72974295D01*
X127568131Y-72974295D02*
X127568131Y-73069533D01*
X127568131Y-73069533D02*
X127520512Y-73164771D01*
X127520512Y-73164771D02*
X127472893Y-73212390D01*
X127472893Y-73212390D02*
X127377655Y-73260009D01*
X127377655Y-73260009D02*
X127044322Y-73260009D01*
X130234799Y-72783819D02*
X130853846Y-72783819D01*
X130853846Y-72783819D02*
X130520513Y-73164771D01*
X130520513Y-73164771D02*
X130663370Y-73164771D01*
X130663370Y-73164771D02*
X130758608Y-73212390D01*
X130758608Y-73212390D02*
X130806227Y-73260009D01*
X130806227Y-73260009D02*
X130853846Y-73355247D01*
X130853846Y-73355247D02*
X130853846Y-73593342D01*
X130853846Y-73593342D02*
X130806227Y-73688580D01*
X130806227Y-73688580D02*
X130758608Y-73736200D01*
X130758608Y-73736200D02*
X130663370Y-73783819D01*
X130663370Y-73783819D02*
X130377656Y-73783819D01*
X130377656Y-73783819D02*
X130282418Y-73736200D01*
X130282418Y-73736200D02*
X130234799Y-73688580D01*
X131139561Y-72783819D02*
X131472894Y-73783819D01*
X131472894Y-73783819D02*
X131806227Y-72783819D01*
X132044323Y-72783819D02*
X132663370Y-72783819D01*
X132663370Y-72783819D02*
X132330037Y-73164771D01*
X132330037Y-73164771D02*
X132472894Y-73164771D01*
X132472894Y-73164771D02*
X132568132Y-73212390D01*
X132568132Y-73212390D02*
X132615751Y-73260009D01*
X132615751Y-73260009D02*
X132663370Y-73355247D01*
X132663370Y-73355247D02*
X132663370Y-73593342D01*
X132663370Y-73593342D02*
X132615751Y-73688580D01*
X132615751Y-73688580D02*
X132568132Y-73736200D01*
X132568132Y-73736200D02*
X132472894Y-73783819D01*
X132472894Y-73783819D02*
X132187180Y-73783819D01*
X132187180Y-73783819D02*
X132091942Y-73736200D01*
X132091942Y-73736200D02*
X132044323Y-73688580D01*
X71717141Y-84213819D02*
X72336188Y-84213819D01*
X72336188Y-84213819D02*
X72002855Y-84594771D01*
X72002855Y-84594771D02*
X72145712Y-84594771D01*
X72145712Y-84594771D02*
X72240950Y-84642390D01*
X72240950Y-84642390D02*
X72288569Y-84690009D01*
X72288569Y-84690009D02*
X72336188Y-84785247D01*
X72336188Y-84785247D02*
X72336188Y-85023342D01*
X72336188Y-85023342D02*
X72288569Y-85118580D01*
X72288569Y-85118580D02*
X72240950Y-85166200D01*
X72240950Y-85166200D02*
X72145712Y-85213819D01*
X72145712Y-85213819D02*
X71859998Y-85213819D01*
X71859998Y-85213819D02*
X71764760Y-85166200D01*
X71764760Y-85166200D02*
X71717141Y-85118580D01*
X72621903Y-84213819D02*
X72955236Y-85213819D01*
X72955236Y-85213819D02*
X73288569Y-84213819D01*
X73526665Y-84213819D02*
X74145712Y-84213819D01*
X74145712Y-84213819D02*
X73812379Y-84594771D01*
X73812379Y-84594771D02*
X73955236Y-84594771D01*
X73955236Y-84594771D02*
X74050474Y-84642390D01*
X74050474Y-84642390D02*
X74098093Y-84690009D01*
X74098093Y-84690009D02*
X74145712Y-84785247D01*
X74145712Y-84785247D02*
X74145712Y-85023342D01*
X74145712Y-85023342D02*
X74098093Y-85118580D01*
X74098093Y-85118580D02*
X74050474Y-85166200D01*
X74050474Y-85166200D02*
X73955236Y-85213819D01*
X73955236Y-85213819D02*
X73669522Y-85213819D01*
X73669522Y-85213819D02*
X73574284Y-85166200D01*
X73574284Y-85166200D02*
X73526665Y-85118580D01*
X66341619Y-73653420D02*
X65341619Y-73653420D01*
X65341619Y-73653420D02*
X65341619Y-73272468D01*
X65341619Y-73272468D02*
X65389238Y-73177230D01*
X65389238Y-73177230D02*
X65436857Y-73129611D01*
X65436857Y-73129611D02*
X65532095Y-73081992D01*
X65532095Y-73081992D02*
X65674952Y-73081992D01*
X65674952Y-73081992D02*
X65770190Y-73129611D01*
X65770190Y-73129611D02*
X65817809Y-73177230D01*
X65817809Y-73177230D02*
X65865428Y-73272468D01*
X65865428Y-73272468D02*
X65865428Y-73653420D01*
X66341619Y-72653420D02*
X65341619Y-72653420D01*
X65341619Y-72653420D02*
X66055904Y-72320087D01*
X66055904Y-72320087D02*
X65341619Y-71986754D01*
X65341619Y-71986754D02*
X66341619Y-71986754D01*
X65341619Y-71320087D02*
X65341619Y-71129611D01*
X65341619Y-71129611D02*
X65389238Y-71034373D01*
X65389238Y-71034373D02*
X65484476Y-70939135D01*
X65484476Y-70939135D02*
X65674952Y-70891516D01*
X65674952Y-70891516D02*
X66008285Y-70891516D01*
X66008285Y-70891516D02*
X66198761Y-70939135D01*
X66198761Y-70939135D02*
X66294000Y-71034373D01*
X66294000Y-71034373D02*
X66341619Y-71129611D01*
X66341619Y-71129611D02*
X66341619Y-71320087D01*
X66341619Y-71320087D02*
X66294000Y-71415325D01*
X66294000Y-71415325D02*
X66198761Y-71510563D01*
X66198761Y-71510563D02*
X66008285Y-71558182D01*
X66008285Y-71558182D02*
X65674952Y-71558182D01*
X65674952Y-71558182D02*
X65484476Y-71510563D01*
X65484476Y-71510563D02*
X65389238Y-71415325D01*
X65389238Y-71415325D02*
X65341619Y-71320087D01*
X66341619Y-70462944D02*
X65341619Y-70462944D01*
X65341619Y-70462944D02*
X65341619Y-70224849D01*
X65341619Y-70224849D02*
X65389238Y-70081992D01*
X65389238Y-70081992D02*
X65484476Y-69986754D01*
X65484476Y-69986754D02*
X65579714Y-69939135D01*
X65579714Y-69939135D02*
X65770190Y-69891516D01*
X65770190Y-69891516D02*
X65913047Y-69891516D01*
X65913047Y-69891516D02*
X66103523Y-69939135D01*
X66103523Y-69939135D02*
X66198761Y-69986754D01*
X66198761Y-69986754D02*
X66294000Y-70081992D01*
X66294000Y-70081992D02*
X66341619Y-70224849D01*
X66341619Y-70224849D02*
X66341619Y-70462944D01*
X86280788Y-85137619D02*
X85709360Y-85137619D01*
X85995074Y-85137619D02*
X85995074Y-84137619D01*
X85995074Y-84137619D02*
X85899836Y-84280476D01*
X85899836Y-84280476D02*
X85804598Y-84375714D01*
X85804598Y-84375714D02*
X85709360Y-84423333D01*
X86566503Y-84137619D02*
X86899836Y-85137619D01*
X86899836Y-85137619D02*
X87233169Y-84137619D01*
X87518884Y-84232857D02*
X87566503Y-84185238D01*
X87566503Y-84185238D02*
X87661741Y-84137619D01*
X87661741Y-84137619D02*
X87899836Y-84137619D01*
X87899836Y-84137619D02*
X87995074Y-84185238D01*
X87995074Y-84185238D02*
X88042693Y-84232857D01*
X88042693Y-84232857D02*
X88090312Y-84328095D01*
X88090312Y-84328095D02*
X88090312Y-84423333D01*
X88090312Y-84423333D02*
X88042693Y-84566190D01*
X88042693Y-84566190D02*
X87471265Y-85137619D01*
X87471265Y-85137619D02*
X88090312Y-85137619D01*
X93707179Y-53667019D02*
X93707179Y-52667019D01*
X93707179Y-52667019D02*
X94088131Y-52667019D01*
X94088131Y-52667019D02*
X94183369Y-52714638D01*
X94183369Y-52714638D02*
X94230988Y-52762257D01*
X94230988Y-52762257D02*
X94278607Y-52857495D01*
X94278607Y-52857495D02*
X94278607Y-53000352D01*
X94278607Y-53000352D02*
X94230988Y-53095590D01*
X94230988Y-53095590D02*
X94183369Y-53143209D01*
X94183369Y-53143209D02*
X94088131Y-53190828D01*
X94088131Y-53190828D02*
X93707179Y-53190828D01*
X95278607Y-53667019D02*
X94945274Y-53190828D01*
X94707179Y-53667019D02*
X94707179Y-52667019D01*
X94707179Y-52667019D02*
X95088131Y-52667019D01*
X95088131Y-52667019D02*
X95183369Y-52714638D01*
X95183369Y-52714638D02*
X95230988Y-52762257D01*
X95230988Y-52762257D02*
X95278607Y-52857495D01*
X95278607Y-52857495D02*
X95278607Y-53000352D01*
X95278607Y-53000352D02*
X95230988Y-53095590D01*
X95230988Y-53095590D02*
X95183369Y-53143209D01*
X95183369Y-53143209D02*
X95088131Y-53190828D01*
X95088131Y-53190828D02*
X94707179Y-53190828D01*
X95897655Y-52667019D02*
X96088131Y-52667019D01*
X96088131Y-52667019D02*
X96183369Y-52714638D01*
X96183369Y-52714638D02*
X96278607Y-52809876D01*
X96278607Y-52809876D02*
X96326226Y-53000352D01*
X96326226Y-53000352D02*
X96326226Y-53333685D01*
X96326226Y-53333685D02*
X96278607Y-53524161D01*
X96278607Y-53524161D02*
X96183369Y-53619400D01*
X96183369Y-53619400D02*
X96088131Y-53667019D01*
X96088131Y-53667019D02*
X95897655Y-53667019D01*
X95897655Y-53667019D02*
X95802417Y-53619400D01*
X95802417Y-53619400D02*
X95707179Y-53524161D01*
X95707179Y-53524161D02*
X95659560Y-53333685D01*
X95659560Y-53333685D02*
X95659560Y-53000352D01*
X95659560Y-53000352D02*
X95707179Y-52809876D01*
X95707179Y-52809876D02*
X95802417Y-52714638D01*
X95802417Y-52714638D02*
X95897655Y-52667019D01*
X97278607Y-52714638D02*
X97183369Y-52667019D01*
X97183369Y-52667019D02*
X97040512Y-52667019D01*
X97040512Y-52667019D02*
X96897655Y-52714638D01*
X96897655Y-52714638D02*
X96802417Y-52809876D01*
X96802417Y-52809876D02*
X96754798Y-52905114D01*
X96754798Y-52905114D02*
X96707179Y-53095590D01*
X96707179Y-53095590D02*
X96707179Y-53238447D01*
X96707179Y-53238447D02*
X96754798Y-53428923D01*
X96754798Y-53428923D02*
X96802417Y-53524161D01*
X96802417Y-53524161D02*
X96897655Y-53619400D01*
X96897655Y-53619400D02*
X97040512Y-53667019D01*
X97040512Y-53667019D02*
X97135750Y-53667019D01*
X97135750Y-53667019D02*
X97278607Y-53619400D01*
X97278607Y-53619400D02*
X97326226Y-53571780D01*
X97326226Y-53571780D02*
X97326226Y-53238447D01*
X97326226Y-53238447D02*
X97135750Y-53238447D01*
X98326226Y-53667019D02*
X97992893Y-53190828D01*
X97754798Y-53667019D02*
X97754798Y-52667019D01*
X97754798Y-52667019D02*
X98135750Y-52667019D01*
X98135750Y-52667019D02*
X98230988Y-52714638D01*
X98230988Y-52714638D02*
X98278607Y-52762257D01*
X98278607Y-52762257D02*
X98326226Y-52857495D01*
X98326226Y-52857495D02*
X98326226Y-53000352D01*
X98326226Y-53000352D02*
X98278607Y-53095590D01*
X98278607Y-53095590D02*
X98230988Y-53143209D01*
X98230988Y-53143209D02*
X98135750Y-53190828D01*
X98135750Y-53190828D02*
X97754798Y-53190828D01*
X98707179Y-53381304D02*
X99183369Y-53381304D01*
X98611941Y-53667019D02*
X98945274Y-52667019D01*
X98945274Y-52667019D02*
X99278607Y-53667019D01*
X99611941Y-53667019D02*
X99611941Y-52667019D01*
X99611941Y-52667019D02*
X99945274Y-53381304D01*
X99945274Y-53381304D02*
X100278607Y-52667019D01*
X100278607Y-52667019D02*
X100278607Y-53667019D01*
X91325941Y-58026419D02*
X91944988Y-58026419D01*
X91944988Y-58026419D02*
X91611655Y-58407371D01*
X91611655Y-58407371D02*
X91754512Y-58407371D01*
X91754512Y-58407371D02*
X91849750Y-58454990D01*
X91849750Y-58454990D02*
X91897369Y-58502609D01*
X91897369Y-58502609D02*
X91944988Y-58597847D01*
X91944988Y-58597847D02*
X91944988Y-58835942D01*
X91944988Y-58835942D02*
X91897369Y-58931180D01*
X91897369Y-58931180D02*
X91849750Y-58978800D01*
X91849750Y-58978800D02*
X91754512Y-59026419D01*
X91754512Y-59026419D02*
X91468798Y-59026419D01*
X91468798Y-59026419D02*
X91373560Y-58978800D01*
X91373560Y-58978800D02*
X91325941Y-58931180D01*
X92230703Y-58026419D02*
X92564036Y-59026419D01*
X92564036Y-59026419D02*
X92897369Y-58026419D01*
X93135465Y-58026419D02*
X93754512Y-58026419D01*
X93754512Y-58026419D02*
X93421179Y-58407371D01*
X93421179Y-58407371D02*
X93564036Y-58407371D01*
X93564036Y-58407371D02*
X93659274Y-58454990D01*
X93659274Y-58454990D02*
X93706893Y-58502609D01*
X93706893Y-58502609D02*
X93754512Y-58597847D01*
X93754512Y-58597847D02*
X93754512Y-58835942D01*
X93754512Y-58835942D02*
X93706893Y-58931180D01*
X93706893Y-58931180D02*
X93659274Y-58978800D01*
X93659274Y-58978800D02*
X93564036Y-59026419D01*
X93564036Y-59026419D02*
X93278322Y-59026419D01*
X93278322Y-59026419D02*
X93183084Y-58978800D01*
X93183084Y-58978800D02*
X93135465Y-58931180D01*
X96325942Y-58026419D02*
X96659275Y-59026419D01*
X96659275Y-59026419D02*
X96992608Y-58026419D01*
X97325942Y-58026419D02*
X97325942Y-58835942D01*
X97325942Y-58835942D02*
X97373561Y-58931180D01*
X97373561Y-58931180D02*
X97421180Y-58978800D01*
X97421180Y-58978800D02*
X97516418Y-59026419D01*
X97516418Y-59026419D02*
X97706894Y-59026419D01*
X97706894Y-59026419D02*
X97802132Y-58978800D01*
X97802132Y-58978800D02*
X97849751Y-58931180D01*
X97849751Y-58931180D02*
X97897370Y-58835942D01*
X97897370Y-58835942D02*
X97897370Y-58026419D01*
X98325942Y-58978800D02*
X98468799Y-59026419D01*
X98468799Y-59026419D02*
X98706894Y-59026419D01*
X98706894Y-59026419D02*
X98802132Y-58978800D01*
X98802132Y-58978800D02*
X98849751Y-58931180D01*
X98849751Y-58931180D02*
X98897370Y-58835942D01*
X98897370Y-58835942D02*
X98897370Y-58740704D01*
X98897370Y-58740704D02*
X98849751Y-58645466D01*
X98849751Y-58645466D02*
X98802132Y-58597847D01*
X98802132Y-58597847D02*
X98706894Y-58550228D01*
X98706894Y-58550228D02*
X98516418Y-58502609D01*
X98516418Y-58502609D02*
X98421180Y-58454990D01*
X98421180Y-58454990D02*
X98373561Y-58407371D01*
X98373561Y-58407371D02*
X98325942Y-58312133D01*
X98325942Y-58312133D02*
X98325942Y-58216895D01*
X98325942Y-58216895D02*
X98373561Y-58121657D01*
X98373561Y-58121657D02*
X98421180Y-58074038D01*
X98421180Y-58074038D02*
X98516418Y-58026419D01*
X98516418Y-58026419D02*
X98754513Y-58026419D01*
X98754513Y-58026419D02*
X98897370Y-58074038D01*
X99659275Y-58502609D02*
X99802132Y-58550228D01*
X99802132Y-58550228D02*
X99849751Y-58597847D01*
X99849751Y-58597847D02*
X99897370Y-58693085D01*
X99897370Y-58693085D02*
X99897370Y-58835942D01*
X99897370Y-58835942D02*
X99849751Y-58931180D01*
X99849751Y-58931180D02*
X99802132Y-58978800D01*
X99802132Y-58978800D02*
X99706894Y-59026419D01*
X99706894Y-59026419D02*
X99325942Y-59026419D01*
X99325942Y-59026419D02*
X99325942Y-58026419D01*
X99325942Y-58026419D02*
X99659275Y-58026419D01*
X99659275Y-58026419D02*
X99754513Y-58074038D01*
X99754513Y-58074038D02*
X99802132Y-58121657D01*
X99802132Y-58121657D02*
X99849751Y-58216895D01*
X99849751Y-58216895D02*
X99849751Y-58312133D01*
X99849751Y-58312133D02*
X99802132Y-58407371D01*
X99802132Y-58407371D02*
X99754513Y-58454990D01*
X99754513Y-58454990D02*
X99659275Y-58502609D01*
X99659275Y-58502609D02*
X99325942Y-58502609D01*
X132635788Y-55788038D02*
X132540550Y-55740419D01*
X132540550Y-55740419D02*
X132397693Y-55740419D01*
X132397693Y-55740419D02*
X132254836Y-55788038D01*
X132254836Y-55788038D02*
X132159598Y-55883276D01*
X132159598Y-55883276D02*
X132111979Y-55978514D01*
X132111979Y-55978514D02*
X132064360Y-56168990D01*
X132064360Y-56168990D02*
X132064360Y-56311847D01*
X132064360Y-56311847D02*
X132111979Y-56502323D01*
X132111979Y-56502323D02*
X132159598Y-56597561D01*
X132159598Y-56597561D02*
X132254836Y-56692800D01*
X132254836Y-56692800D02*
X132397693Y-56740419D01*
X132397693Y-56740419D02*
X132492931Y-56740419D01*
X132492931Y-56740419D02*
X132635788Y-56692800D01*
X132635788Y-56692800D02*
X132683407Y-56645180D01*
X132683407Y-56645180D02*
X132683407Y-56311847D01*
X132683407Y-56311847D02*
X132492931Y-56311847D01*
X133111979Y-56740419D02*
X133111979Y-55740419D01*
X133111979Y-55740419D02*
X133492931Y-55740419D01*
X133492931Y-55740419D02*
X133588169Y-55788038D01*
X133588169Y-55788038D02*
X133635788Y-55835657D01*
X133635788Y-55835657D02*
X133683407Y-55930895D01*
X133683407Y-55930895D02*
X133683407Y-56073752D01*
X133683407Y-56073752D02*
X133635788Y-56168990D01*
X133635788Y-56168990D02*
X133588169Y-56216609D01*
X133588169Y-56216609D02*
X133492931Y-56264228D01*
X133492931Y-56264228D02*
X133111979Y-56264228D01*
X134111979Y-56740419D02*
X134111979Y-55740419D01*
X134778645Y-55740419D02*
X134969121Y-55740419D01*
X134969121Y-55740419D02*
X135064359Y-55788038D01*
X135064359Y-55788038D02*
X135159597Y-55883276D01*
X135159597Y-55883276D02*
X135207216Y-56073752D01*
X135207216Y-56073752D02*
X135207216Y-56407085D01*
X135207216Y-56407085D02*
X135159597Y-56597561D01*
X135159597Y-56597561D02*
X135064359Y-56692800D01*
X135064359Y-56692800D02*
X134969121Y-56740419D01*
X134969121Y-56740419D02*
X134778645Y-56740419D01*
X134778645Y-56740419D02*
X134683407Y-56692800D01*
X134683407Y-56692800D02*
X134588169Y-56597561D01*
X134588169Y-56597561D02*
X134540550Y-56407085D01*
X134540550Y-56407085D02*
X134540550Y-56073752D01*
X134540550Y-56073752D02*
X134588169Y-55883276D01*
X134588169Y-55883276D02*
X134683407Y-55788038D01*
X134683407Y-55788038D02*
X134778645Y-55740419D01*
X97501322Y-72758419D02*
X97834655Y-73758419D01*
X97834655Y-73758419D02*
X98167988Y-72758419D01*
X99072750Y-73663180D02*
X99025131Y-73710800D01*
X99025131Y-73710800D02*
X98882274Y-73758419D01*
X98882274Y-73758419D02*
X98787036Y-73758419D01*
X98787036Y-73758419D02*
X98644179Y-73710800D01*
X98644179Y-73710800D02*
X98548941Y-73615561D01*
X98548941Y-73615561D02*
X98501322Y-73520323D01*
X98501322Y-73520323D02*
X98453703Y-73329847D01*
X98453703Y-73329847D02*
X98453703Y-73186990D01*
X98453703Y-73186990D02*
X98501322Y-72996514D01*
X98501322Y-72996514D02*
X98548941Y-72901276D01*
X98548941Y-72901276D02*
X98644179Y-72806038D01*
X98644179Y-72806038D02*
X98787036Y-72758419D01*
X98787036Y-72758419D02*
X98882274Y-72758419D01*
X98882274Y-72758419D02*
X99025131Y-72806038D01*
X99025131Y-72806038D02*
X99072750Y-72853657D01*
X100072750Y-73663180D02*
X100025131Y-73710800D01*
X100025131Y-73710800D02*
X99882274Y-73758419D01*
X99882274Y-73758419D02*
X99787036Y-73758419D01*
X99787036Y-73758419D02*
X99644179Y-73710800D01*
X99644179Y-73710800D02*
X99548941Y-73615561D01*
X99548941Y-73615561D02*
X99501322Y-73520323D01*
X99501322Y-73520323D02*
X99453703Y-73329847D01*
X99453703Y-73329847D02*
X99453703Y-73186990D01*
X99453703Y-73186990D02*
X99501322Y-72996514D01*
X99501322Y-72996514D02*
X99548941Y-72901276D01*
X99548941Y-72901276D02*
X99644179Y-72806038D01*
X99644179Y-72806038D02*
X99787036Y-72758419D01*
X99787036Y-72758419D02*
X99882274Y-72758419D01*
X99882274Y-72758419D02*
X100025131Y-72806038D01*
X100025131Y-72806038D02*
X100072750Y-72853657D01*
X100691798Y-72758419D02*
X100882274Y-72758419D01*
X100882274Y-72758419D02*
X100977512Y-72806038D01*
X100977512Y-72806038D02*
X101072750Y-72901276D01*
X101072750Y-72901276D02*
X101120369Y-73091752D01*
X101120369Y-73091752D02*
X101120369Y-73425085D01*
X101120369Y-73425085D02*
X101072750Y-73615561D01*
X101072750Y-73615561D02*
X100977512Y-73710800D01*
X100977512Y-73710800D02*
X100882274Y-73758419D01*
X100882274Y-73758419D02*
X100691798Y-73758419D01*
X100691798Y-73758419D02*
X100596560Y-73710800D01*
X100596560Y-73710800D02*
X100501322Y-73615561D01*
X100501322Y-73615561D02*
X100453703Y-73425085D01*
X100453703Y-73425085D02*
X100453703Y-73091752D01*
X100453703Y-73091752D02*
X100501322Y-72901276D01*
X100501322Y-72901276D02*
X100596560Y-72806038D01*
X100596560Y-72806038D02*
X100691798Y-72758419D01*
X101739417Y-72758419D02*
X101834655Y-72758419D01*
X101834655Y-72758419D02*
X101929893Y-72806038D01*
X101929893Y-72806038D02*
X101977512Y-72853657D01*
X101977512Y-72853657D02*
X102025131Y-72948895D01*
X102025131Y-72948895D02*
X102072750Y-73139371D01*
X102072750Y-73139371D02*
X102072750Y-73377466D01*
X102072750Y-73377466D02*
X102025131Y-73567942D01*
X102025131Y-73567942D02*
X101977512Y-73663180D01*
X101977512Y-73663180D02*
X101929893Y-73710800D01*
X101929893Y-73710800D02*
X101834655Y-73758419D01*
X101834655Y-73758419D02*
X101739417Y-73758419D01*
X101739417Y-73758419D02*
X101644179Y-73710800D01*
X101644179Y-73710800D02*
X101596560Y-73663180D01*
X101596560Y-73663180D02*
X101548941Y-73567942D01*
X101548941Y-73567942D02*
X101501322Y-73377466D01*
X101501322Y-73377466D02*
X101501322Y-73139371D01*
X101501322Y-73139371D02*
X101548941Y-72948895D01*
X101548941Y-72948895D02*
X101596560Y-72853657D01*
X101596560Y-72853657D02*
X101644179Y-72806038D01*
X101644179Y-72806038D02*
X101739417Y-72758419D01*
X98279009Y-49215487D02*
X98279009Y-49548820D01*
X98802819Y-49548820D02*
X97802819Y-49548820D01*
X97802819Y-49548820D02*
X97802819Y-49072630D01*
X98802819Y-48215487D02*
X98802819Y-48691677D01*
X98802819Y-48691677D02*
X97802819Y-48691677D01*
X98517104Y-47929772D02*
X98517104Y-47453582D01*
X98802819Y-48025010D02*
X97802819Y-47691677D01*
X97802819Y-47691677D02*
X98802819Y-47358344D01*
X98755200Y-47072629D02*
X98802819Y-46929772D01*
X98802819Y-46929772D02*
X98802819Y-46691677D01*
X98802819Y-46691677D02*
X98755200Y-46596439D01*
X98755200Y-46596439D02*
X98707580Y-46548820D01*
X98707580Y-46548820D02*
X98612342Y-46501201D01*
X98612342Y-46501201D02*
X98517104Y-46501201D01*
X98517104Y-46501201D02*
X98421866Y-46548820D01*
X98421866Y-46548820D02*
X98374247Y-46596439D01*
X98374247Y-46596439D02*
X98326628Y-46691677D01*
X98326628Y-46691677D02*
X98279009Y-46882153D01*
X98279009Y-46882153D02*
X98231390Y-46977391D01*
X98231390Y-46977391D02*
X98183771Y-47025010D01*
X98183771Y-47025010D02*
X98088533Y-47072629D01*
X98088533Y-47072629D02*
X97993295Y-47072629D01*
X97993295Y-47072629D02*
X97898057Y-47025010D01*
X97898057Y-47025010D02*
X97850438Y-46977391D01*
X97850438Y-46977391D02*
X97802819Y-46882153D01*
X97802819Y-46882153D02*
X97802819Y-46644058D01*
X97802819Y-46644058D02*
X97850438Y-46501201D01*
X98802819Y-46072629D02*
X97802819Y-46072629D01*
X98279009Y-46072629D02*
X98279009Y-45501201D01*
X98802819Y-45501201D02*
X97802819Y-45501201D01*
X115109788Y-48256819D02*
X114538360Y-48256819D01*
X114824074Y-48256819D02*
X114824074Y-47256819D01*
X114824074Y-47256819D02*
X114728836Y-47399676D01*
X114728836Y-47399676D02*
X114633598Y-47494914D01*
X114633598Y-47494914D02*
X114538360Y-47542533D01*
X115728836Y-47256819D02*
X115824074Y-47256819D01*
X115824074Y-47256819D02*
X115919312Y-47304438D01*
X115919312Y-47304438D02*
X115966931Y-47352057D01*
X115966931Y-47352057D02*
X116014550Y-47447295D01*
X116014550Y-47447295D02*
X116062169Y-47637771D01*
X116062169Y-47637771D02*
X116062169Y-47875866D01*
X116062169Y-47875866D02*
X116014550Y-48066342D01*
X116014550Y-48066342D02*
X115966931Y-48161580D01*
X115966931Y-48161580D02*
X115919312Y-48209200D01*
X115919312Y-48209200D02*
X115824074Y-48256819D01*
X115824074Y-48256819D02*
X115728836Y-48256819D01*
X115728836Y-48256819D02*
X115633598Y-48209200D01*
X115633598Y-48209200D02*
X115585979Y-48161580D01*
X115585979Y-48161580D02*
X115538360Y-48066342D01*
X115538360Y-48066342D02*
X115490741Y-47875866D01*
X115490741Y-47875866D02*
X115490741Y-47637771D01*
X115490741Y-47637771D02*
X115538360Y-47447295D01*
X115538360Y-47447295D02*
X115585979Y-47352057D01*
X115585979Y-47352057D02*
X115633598Y-47304438D01*
X115633598Y-47304438D02*
X115728836Y-47256819D01*
X116681217Y-47256819D02*
X116776455Y-47256819D01*
X116776455Y-47256819D02*
X116871693Y-47304438D01*
X116871693Y-47304438D02*
X116919312Y-47352057D01*
X116919312Y-47352057D02*
X116966931Y-47447295D01*
X116966931Y-47447295D02*
X117014550Y-47637771D01*
X117014550Y-47637771D02*
X117014550Y-47875866D01*
X117014550Y-47875866D02*
X116966931Y-48066342D01*
X116966931Y-48066342D02*
X116919312Y-48161580D01*
X116919312Y-48161580D02*
X116871693Y-48209200D01*
X116871693Y-48209200D02*
X116776455Y-48256819D01*
X116776455Y-48256819D02*
X116681217Y-48256819D01*
X116681217Y-48256819D02*
X116585979Y-48209200D01*
X116585979Y-48209200D02*
X116538360Y-48161580D01*
X116538360Y-48161580D02*
X116490741Y-48066342D01*
X116490741Y-48066342D02*
X116443122Y-47875866D01*
X116443122Y-47875866D02*
X116443122Y-47637771D01*
X116443122Y-47637771D02*
X116490741Y-47447295D01*
X116490741Y-47447295D02*
X116538360Y-47352057D01*
X116538360Y-47352057D02*
X116585979Y-47304438D01*
X116585979Y-47304438D02*
X116681217Y-47256819D01*
X118205027Y-48256819D02*
X118205027Y-47256819D01*
X118205027Y-47256819D02*
X118538360Y-47971104D01*
X118538360Y-47971104D02*
X118871693Y-47256819D01*
X118871693Y-47256819D02*
X118871693Y-48256819D01*
X119347884Y-48256819D02*
X119347884Y-47256819D01*
X119347884Y-47733009D02*
X119919312Y-47733009D01*
X119919312Y-48256819D02*
X119919312Y-47256819D01*
X120300265Y-47590152D02*
X120824074Y-47590152D01*
X120824074Y-47590152D02*
X120300265Y-48256819D01*
X120300265Y-48256819D02*
X120824074Y-48256819D01*
X97618657Y-76926839D02*
X97571038Y-76879220D01*
X97571038Y-76879220D02*
X97523419Y-76783982D01*
X97523419Y-76783982D02*
X97523419Y-76545887D01*
X97523419Y-76545887D02*
X97571038Y-76450649D01*
X97571038Y-76450649D02*
X97618657Y-76403030D01*
X97618657Y-76403030D02*
X97713895Y-76355411D01*
X97713895Y-76355411D02*
X97809133Y-76355411D01*
X97809133Y-76355411D02*
X97951990Y-76403030D01*
X97951990Y-76403030D02*
X98523419Y-76974458D01*
X98523419Y-76974458D02*
X98523419Y-76355411D01*
X97523419Y-76069696D02*
X98523419Y-75736363D01*
X98523419Y-75736363D02*
X97523419Y-75403030D01*
X97523419Y-74593506D02*
X97523419Y-75069696D01*
X97523419Y-75069696D02*
X97999609Y-75117315D01*
X97999609Y-75117315D02*
X97951990Y-75069696D01*
X97951990Y-75069696D02*
X97904371Y-74974458D01*
X97904371Y-74974458D02*
X97904371Y-74736363D01*
X97904371Y-74736363D02*
X97951990Y-74641125D01*
X97951990Y-74641125D02*
X97999609Y-74593506D01*
X97999609Y-74593506D02*
X98094847Y-74545887D01*
X98094847Y-74545887D02*
X98332942Y-74545887D01*
X98332942Y-74545887D02*
X98428180Y-74593506D01*
X98428180Y-74593506D02*
X98475800Y-74641125D01*
X98475800Y-74641125D02*
X98523419Y-74736363D01*
X98523419Y-74736363D02*
X98523419Y-74974458D01*
X98523419Y-74974458D02*
X98475800Y-75069696D01*
X98475800Y-75069696D02*
X98428180Y-75117315D01*
X97523419Y-71926838D02*
X97523419Y-71307791D01*
X97523419Y-71307791D02*
X97904371Y-71641124D01*
X97904371Y-71641124D02*
X97904371Y-71498267D01*
X97904371Y-71498267D02*
X97951990Y-71403029D01*
X97951990Y-71403029D02*
X97999609Y-71355410D01*
X97999609Y-71355410D02*
X98094847Y-71307791D01*
X98094847Y-71307791D02*
X98332942Y-71307791D01*
X98332942Y-71307791D02*
X98428180Y-71355410D01*
X98428180Y-71355410D02*
X98475800Y-71403029D01*
X98475800Y-71403029D02*
X98523419Y-71498267D01*
X98523419Y-71498267D02*
X98523419Y-71783981D01*
X98523419Y-71783981D02*
X98475800Y-71879219D01*
X98475800Y-71879219D02*
X98428180Y-71926838D01*
X97523419Y-71022076D02*
X98523419Y-70688743D01*
X98523419Y-70688743D02*
X97523419Y-70355410D01*
X97523419Y-70117314D02*
X97523419Y-69498267D01*
X97523419Y-69498267D02*
X97904371Y-69831600D01*
X97904371Y-69831600D02*
X97904371Y-69688743D01*
X97904371Y-69688743D02*
X97951990Y-69593505D01*
X97951990Y-69593505D02*
X97999609Y-69545886D01*
X97999609Y-69545886D02*
X98094847Y-69498267D01*
X98094847Y-69498267D02*
X98332942Y-69498267D01*
X98332942Y-69498267D02*
X98428180Y-69545886D01*
X98428180Y-69545886D02*
X98475800Y-69593505D01*
X98475800Y-69593505D02*
X98523419Y-69688743D01*
X98523419Y-69688743D02*
X98523419Y-69974457D01*
X98523419Y-69974457D02*
X98475800Y-70069695D01*
X98475800Y-70069695D02*
X98428180Y-70117314D01*
X66759689Y-56835487D02*
X66807308Y-56692630D01*
X66807308Y-56692630D02*
X66854927Y-56645011D01*
X66854927Y-56645011D02*
X66950165Y-56597392D01*
X66950165Y-56597392D02*
X67093022Y-56597392D01*
X67093022Y-56597392D02*
X67188260Y-56645011D01*
X67188260Y-56645011D02*
X67235880Y-56692630D01*
X67235880Y-56692630D02*
X67283499Y-56787868D01*
X67283499Y-56787868D02*
X67283499Y-57168820D01*
X67283499Y-57168820D02*
X66283499Y-57168820D01*
X66283499Y-57168820D02*
X66283499Y-56835487D01*
X66283499Y-56835487D02*
X66331118Y-56740249D01*
X66331118Y-56740249D02*
X66378737Y-56692630D01*
X66378737Y-56692630D02*
X66473975Y-56645011D01*
X66473975Y-56645011D02*
X66569213Y-56645011D01*
X66569213Y-56645011D02*
X66664451Y-56692630D01*
X66664451Y-56692630D02*
X66712070Y-56740249D01*
X66712070Y-56740249D02*
X66759689Y-56835487D01*
X66759689Y-56835487D02*
X66759689Y-57168820D01*
X66997784Y-56216439D02*
X66997784Y-55740249D01*
X67283499Y-56311677D02*
X66283499Y-55978344D01*
X66283499Y-55978344D02*
X67283499Y-55645011D01*
X66283499Y-55454534D02*
X66283499Y-54883106D01*
X67283499Y-55168820D02*
X66283499Y-55168820D01*
X66283499Y-54692629D02*
X66283499Y-54121201D01*
X67283499Y-54406915D02*
X66283499Y-54406915D01*
X67893443Y-57168820D02*
X68702966Y-57168820D01*
X68702966Y-57168820D02*
X68798204Y-57121201D01*
X68798204Y-57121201D02*
X68845824Y-57073582D01*
X68845824Y-57073582D02*
X68893443Y-56978344D01*
X68893443Y-56978344D02*
X68893443Y-56787868D01*
X68893443Y-56787868D02*
X68845824Y-56692630D01*
X68845824Y-56692630D02*
X68798204Y-56645011D01*
X68798204Y-56645011D02*
X68702966Y-56597392D01*
X68702966Y-56597392D02*
X67893443Y-56597392D01*
X68845824Y-56168820D02*
X68893443Y-56025963D01*
X68893443Y-56025963D02*
X68893443Y-55787868D01*
X68893443Y-55787868D02*
X68845824Y-55692630D01*
X68845824Y-55692630D02*
X68798204Y-55645011D01*
X68798204Y-55645011D02*
X68702966Y-55597392D01*
X68702966Y-55597392D02*
X68607728Y-55597392D01*
X68607728Y-55597392D02*
X68512490Y-55645011D01*
X68512490Y-55645011D02*
X68464871Y-55692630D01*
X68464871Y-55692630D02*
X68417252Y-55787868D01*
X68417252Y-55787868D02*
X68369633Y-55978344D01*
X68369633Y-55978344D02*
X68322014Y-56073582D01*
X68322014Y-56073582D02*
X68274395Y-56121201D01*
X68274395Y-56121201D02*
X68179157Y-56168820D01*
X68179157Y-56168820D02*
X68083919Y-56168820D01*
X68083919Y-56168820D02*
X67988681Y-56121201D01*
X67988681Y-56121201D02*
X67941062Y-56073582D01*
X67941062Y-56073582D02*
X67893443Y-55978344D01*
X67893443Y-55978344D02*
X67893443Y-55740249D01*
X67893443Y-55740249D02*
X67941062Y-55597392D01*
X68369633Y-54835487D02*
X68417252Y-54692630D01*
X68417252Y-54692630D02*
X68464871Y-54645011D01*
X68464871Y-54645011D02*
X68560109Y-54597392D01*
X68560109Y-54597392D02*
X68702966Y-54597392D01*
X68702966Y-54597392D02*
X68798204Y-54645011D01*
X68798204Y-54645011D02*
X68845824Y-54692630D01*
X68845824Y-54692630D02*
X68893443Y-54787868D01*
X68893443Y-54787868D02*
X68893443Y-55168820D01*
X68893443Y-55168820D02*
X67893443Y-55168820D01*
X67893443Y-55168820D02*
X67893443Y-54835487D01*
X67893443Y-54835487D02*
X67941062Y-54740249D01*
X67941062Y-54740249D02*
X67988681Y-54692630D01*
X67988681Y-54692630D02*
X68083919Y-54645011D01*
X68083919Y-54645011D02*
X68179157Y-54645011D01*
X68179157Y-54645011D02*
X68274395Y-54692630D01*
X68274395Y-54692630D02*
X68322014Y-54740249D01*
X68322014Y-54740249D02*
X68369633Y-54835487D01*
X68369633Y-54835487D02*
X68369633Y-55168820D01*
X69503387Y-57264058D02*
X69503387Y-56645011D01*
X69503387Y-56645011D02*
X69884339Y-56978344D01*
X69884339Y-56978344D02*
X69884339Y-56835487D01*
X69884339Y-56835487D02*
X69931958Y-56740249D01*
X69931958Y-56740249D02*
X69979577Y-56692630D01*
X69979577Y-56692630D02*
X70074815Y-56645011D01*
X70074815Y-56645011D02*
X70312910Y-56645011D01*
X70312910Y-56645011D02*
X70408148Y-56692630D01*
X70408148Y-56692630D02*
X70455768Y-56740249D01*
X70455768Y-56740249D02*
X70503387Y-56835487D01*
X70503387Y-56835487D02*
X70503387Y-57121201D01*
X70503387Y-57121201D02*
X70455768Y-57216439D01*
X70455768Y-57216439D02*
X70408148Y-57264058D01*
X69503387Y-56359296D02*
X70503387Y-56025963D01*
X70503387Y-56025963D02*
X69503387Y-55692630D01*
X69503387Y-55454534D02*
X69503387Y-54835487D01*
X69503387Y-54835487D02*
X69884339Y-55168820D01*
X69884339Y-55168820D02*
X69884339Y-55025963D01*
X69884339Y-55025963D02*
X69931958Y-54930725D01*
X69931958Y-54930725D02*
X69979577Y-54883106D01*
X69979577Y-54883106D02*
X70074815Y-54835487D01*
X70074815Y-54835487D02*
X70312910Y-54835487D01*
X70312910Y-54835487D02*
X70408148Y-54883106D01*
X70408148Y-54883106D02*
X70455768Y-54930725D01*
X70455768Y-54930725D02*
X70503387Y-55025963D01*
X70503387Y-55025963D02*
X70503387Y-55311677D01*
X70503387Y-55311677D02*
X70455768Y-55406915D01*
X70455768Y-55406915D02*
X70408148Y-55454534D01*
X71208569Y-57216439D02*
X71160950Y-57168820D01*
X71160950Y-57168820D02*
X71113331Y-57073582D01*
X71113331Y-57073582D02*
X71113331Y-56835487D01*
X71113331Y-56835487D02*
X71160950Y-56740249D01*
X71160950Y-56740249D02*
X71208569Y-56692630D01*
X71208569Y-56692630D02*
X71303807Y-56645011D01*
X71303807Y-56645011D02*
X71399045Y-56645011D01*
X71399045Y-56645011D02*
X71541902Y-56692630D01*
X71541902Y-56692630D02*
X72113331Y-57264058D01*
X72113331Y-57264058D02*
X72113331Y-56645011D01*
X71113331Y-56359296D02*
X72113331Y-56025963D01*
X72113331Y-56025963D02*
X71113331Y-55692630D01*
X71113331Y-54883106D02*
X71113331Y-55359296D01*
X71113331Y-55359296D02*
X71589521Y-55406915D01*
X71589521Y-55406915D02*
X71541902Y-55359296D01*
X71541902Y-55359296D02*
X71494283Y-55264058D01*
X71494283Y-55264058D02*
X71494283Y-55025963D01*
X71494283Y-55025963D02*
X71541902Y-54930725D01*
X71541902Y-54930725D02*
X71589521Y-54883106D01*
X71589521Y-54883106D02*
X71684759Y-54835487D01*
X71684759Y-54835487D02*
X71922854Y-54835487D01*
X71922854Y-54835487D02*
X72018092Y-54883106D01*
X72018092Y-54883106D02*
X72065712Y-54930725D01*
X72065712Y-54930725D02*
X72113331Y-55025963D01*
X72113331Y-55025963D02*
X72113331Y-55264058D01*
X72113331Y-55264058D02*
X72065712Y-55359296D01*
X72065712Y-55359296D02*
X72018092Y-55406915D01*
X73723275Y-56645011D02*
X73723275Y-57216439D01*
X73723275Y-56930725D02*
X72723275Y-56930725D01*
X72723275Y-56930725D02*
X72866132Y-57025963D01*
X72866132Y-57025963D02*
X72961370Y-57121201D01*
X72961370Y-57121201D02*
X73008989Y-57216439D01*
X72723275Y-56359296D02*
X73723275Y-56025963D01*
X73723275Y-56025963D02*
X72723275Y-55692630D01*
X72818513Y-55406915D02*
X72770894Y-55359296D01*
X72770894Y-55359296D02*
X72723275Y-55264058D01*
X72723275Y-55264058D02*
X72723275Y-55025963D01*
X72723275Y-55025963D02*
X72770894Y-54930725D01*
X72770894Y-54930725D02*
X72818513Y-54883106D01*
X72818513Y-54883106D02*
X72913751Y-54835487D01*
X72913751Y-54835487D02*
X73008989Y-54835487D01*
X73008989Y-54835487D02*
X73151846Y-54883106D01*
X73151846Y-54883106D02*
X73723275Y-55454534D01*
X73723275Y-55454534D02*
X73723275Y-54835487D01*
X74380838Y-56645011D02*
X74333219Y-56740249D01*
X74333219Y-56740249D02*
X74333219Y-56883106D01*
X74333219Y-56883106D02*
X74380838Y-57025963D01*
X74380838Y-57025963D02*
X74476076Y-57121201D01*
X74476076Y-57121201D02*
X74571314Y-57168820D01*
X74571314Y-57168820D02*
X74761790Y-57216439D01*
X74761790Y-57216439D02*
X74904647Y-57216439D01*
X74904647Y-57216439D02*
X75095123Y-57168820D01*
X75095123Y-57168820D02*
X75190361Y-57121201D01*
X75190361Y-57121201D02*
X75285600Y-57025963D01*
X75285600Y-57025963D02*
X75333219Y-56883106D01*
X75333219Y-56883106D02*
X75333219Y-56787868D01*
X75333219Y-56787868D02*
X75285600Y-56645011D01*
X75285600Y-56645011D02*
X75237980Y-56597392D01*
X75237980Y-56597392D02*
X74904647Y-56597392D01*
X74904647Y-56597392D02*
X74904647Y-56787868D01*
X75333219Y-56168820D02*
X74333219Y-56168820D01*
X74333219Y-56168820D02*
X75333219Y-55597392D01*
X75333219Y-55597392D02*
X74333219Y-55597392D01*
X75333219Y-55121201D02*
X74333219Y-55121201D01*
X74333219Y-55121201D02*
X74333219Y-54883106D01*
X74333219Y-54883106D02*
X74380838Y-54740249D01*
X74380838Y-54740249D02*
X74476076Y-54645011D01*
X74476076Y-54645011D02*
X74571314Y-54597392D01*
X74571314Y-54597392D02*
X74761790Y-54549773D01*
X74761790Y-54549773D02*
X74904647Y-54549773D01*
X74904647Y-54549773D02*
X75095123Y-54597392D01*
X75095123Y-54597392D02*
X75190361Y-54645011D01*
X75190361Y-54645011D02*
X75285600Y-54740249D01*
X75285600Y-54740249D02*
X75333219Y-54883106D01*
X75333219Y-54883106D02*
X75333219Y-55121201D01*
X140893969Y-50685819D02*
X140417779Y-50685819D01*
X140417779Y-50685819D02*
X140370160Y-51162009D01*
X140370160Y-51162009D02*
X140417779Y-51114390D01*
X140417779Y-51114390D02*
X140513017Y-51066771D01*
X140513017Y-51066771D02*
X140751112Y-51066771D01*
X140751112Y-51066771D02*
X140846350Y-51114390D01*
X140846350Y-51114390D02*
X140893969Y-51162009D01*
X140893969Y-51162009D02*
X140941588Y-51257247D01*
X140941588Y-51257247D02*
X140941588Y-51495342D01*
X140941588Y-51495342D02*
X140893969Y-51590580D01*
X140893969Y-51590580D02*
X140846350Y-51638200D01*
X140846350Y-51638200D02*
X140751112Y-51685819D01*
X140751112Y-51685819D02*
X140513017Y-51685819D01*
X140513017Y-51685819D02*
X140417779Y-51638200D01*
X140417779Y-51638200D02*
X140370160Y-51590580D01*
X141227303Y-50685819D02*
X141560636Y-51685819D01*
X141560636Y-51685819D02*
X141893969Y-50685819D01*
X143417779Y-51019152D02*
X143417779Y-51685819D01*
X142989208Y-51019152D02*
X142989208Y-51542961D01*
X142989208Y-51542961D02*
X143036827Y-51638200D01*
X143036827Y-51638200D02*
X143132065Y-51685819D01*
X143132065Y-51685819D02*
X143274922Y-51685819D01*
X143274922Y-51685819D02*
X143370160Y-51638200D01*
X143370160Y-51638200D02*
X143417779Y-51590580D01*
X144227303Y-51162009D02*
X144370160Y-51209628D01*
X144370160Y-51209628D02*
X144417779Y-51257247D01*
X144417779Y-51257247D02*
X144465398Y-51352485D01*
X144465398Y-51352485D02*
X144465398Y-51495342D01*
X144465398Y-51495342D02*
X144417779Y-51590580D01*
X144417779Y-51590580D02*
X144370160Y-51638200D01*
X144370160Y-51638200D02*
X144274922Y-51685819D01*
X144274922Y-51685819D02*
X143893970Y-51685819D01*
X143893970Y-51685819D02*
X143893970Y-50685819D01*
X143893970Y-50685819D02*
X144227303Y-50685819D01*
X144227303Y-50685819D02*
X144322541Y-50733438D01*
X144322541Y-50733438D02*
X144370160Y-50781057D01*
X144370160Y-50781057D02*
X144417779Y-50876295D01*
X144417779Y-50876295D02*
X144417779Y-50971533D01*
X144417779Y-50971533D02*
X144370160Y-51066771D01*
X144370160Y-51066771D02*
X144322541Y-51114390D01*
X144322541Y-51114390D02*
X144227303Y-51162009D01*
X144227303Y-51162009D02*
X143893970Y-51162009D01*
X94700838Y-60582011D02*
X94653219Y-60677249D01*
X94653219Y-60677249D02*
X94653219Y-60820106D01*
X94653219Y-60820106D02*
X94700838Y-60962963D01*
X94700838Y-60962963D02*
X94796076Y-61058201D01*
X94796076Y-61058201D02*
X94891314Y-61105820D01*
X94891314Y-61105820D02*
X95081790Y-61153439D01*
X95081790Y-61153439D02*
X95224647Y-61153439D01*
X95224647Y-61153439D02*
X95415123Y-61105820D01*
X95415123Y-61105820D02*
X95510361Y-61058201D01*
X95510361Y-61058201D02*
X95605600Y-60962963D01*
X95605600Y-60962963D02*
X95653219Y-60820106D01*
X95653219Y-60820106D02*
X95653219Y-60724868D01*
X95653219Y-60724868D02*
X95605600Y-60582011D01*
X95605600Y-60582011D02*
X95557980Y-60534392D01*
X95557980Y-60534392D02*
X95224647Y-60534392D01*
X95224647Y-60534392D02*
X95224647Y-60724868D01*
X95653219Y-60105820D02*
X94653219Y-60105820D01*
X94653219Y-60105820D02*
X94653219Y-59724868D01*
X94653219Y-59724868D02*
X94700838Y-59629630D01*
X94700838Y-59629630D02*
X94748457Y-59582011D01*
X94748457Y-59582011D02*
X94843695Y-59534392D01*
X94843695Y-59534392D02*
X94986552Y-59534392D01*
X94986552Y-59534392D02*
X95081790Y-59582011D01*
X95081790Y-59582011D02*
X95129409Y-59629630D01*
X95129409Y-59629630D02*
X95177028Y-59724868D01*
X95177028Y-59724868D02*
X95177028Y-60105820D01*
X95653219Y-59105820D02*
X94653219Y-59105820D01*
X94653219Y-58439154D02*
X94653219Y-58248678D01*
X94653219Y-58248678D02*
X94700838Y-58153440D01*
X94700838Y-58153440D02*
X94796076Y-58058202D01*
X94796076Y-58058202D02*
X94986552Y-58010583D01*
X94986552Y-58010583D02*
X95319885Y-58010583D01*
X95319885Y-58010583D02*
X95510361Y-58058202D01*
X95510361Y-58058202D02*
X95605600Y-58153440D01*
X95605600Y-58153440D02*
X95653219Y-58248678D01*
X95653219Y-58248678D02*
X95653219Y-58439154D01*
X95653219Y-58439154D02*
X95605600Y-58534392D01*
X95605600Y-58534392D02*
X95510361Y-58629630D01*
X95510361Y-58629630D02*
X95319885Y-58677249D01*
X95319885Y-58677249D02*
X94986552Y-58677249D01*
X94986552Y-58677249D02*
X94796076Y-58629630D01*
X94796076Y-58629630D02*
X94700838Y-58534392D01*
X94700838Y-58534392D02*
X94653219Y-58439154D01*
X83829760Y-63957200D02*
X83972617Y-64004819D01*
X83972617Y-64004819D02*
X84210712Y-64004819D01*
X84210712Y-64004819D02*
X84305950Y-63957200D01*
X84305950Y-63957200D02*
X84353569Y-63909580D01*
X84353569Y-63909580D02*
X84401188Y-63814342D01*
X84401188Y-63814342D02*
X84401188Y-63719104D01*
X84401188Y-63719104D02*
X84353569Y-63623866D01*
X84353569Y-63623866D02*
X84305950Y-63576247D01*
X84305950Y-63576247D02*
X84210712Y-63528628D01*
X84210712Y-63528628D02*
X84020236Y-63481009D01*
X84020236Y-63481009D02*
X83924998Y-63433390D01*
X83924998Y-63433390D02*
X83877379Y-63385771D01*
X83877379Y-63385771D02*
X83829760Y-63290533D01*
X83829760Y-63290533D02*
X83829760Y-63195295D01*
X83829760Y-63195295D02*
X83877379Y-63100057D01*
X83877379Y-63100057D02*
X83924998Y-63052438D01*
X83924998Y-63052438D02*
X84020236Y-63004819D01*
X84020236Y-63004819D02*
X84258331Y-63004819D01*
X84258331Y-63004819D02*
X84401188Y-63052438D01*
X84734522Y-63004819D02*
X84972617Y-64004819D01*
X84972617Y-64004819D02*
X85163093Y-63290533D01*
X85163093Y-63290533D02*
X85353569Y-64004819D01*
X85353569Y-64004819D02*
X85591665Y-63004819D01*
X85877379Y-63004819D02*
X86496426Y-63004819D01*
X86496426Y-63004819D02*
X86163093Y-63385771D01*
X86163093Y-63385771D02*
X86305950Y-63385771D01*
X86305950Y-63385771D02*
X86401188Y-63433390D01*
X86401188Y-63433390D02*
X86448807Y-63481009D01*
X86448807Y-63481009D02*
X86496426Y-63576247D01*
X86496426Y-63576247D02*
X86496426Y-63814342D01*
X86496426Y-63814342D02*
X86448807Y-63909580D01*
X86448807Y-63909580D02*
X86401188Y-63957200D01*
X86401188Y-63957200D02*
X86305950Y-64004819D01*
X86305950Y-64004819D02*
X86020236Y-64004819D01*
X86020236Y-64004819D02*
X85924998Y-63957200D01*
X85924998Y-63957200D02*
X85877379Y-63909580D01*
X133616819Y-78752506D02*
X134331104Y-78752506D01*
X134331104Y-78752506D02*
X134473961Y-78800125D01*
X134473961Y-78800125D02*
X134569200Y-78895363D01*
X134569200Y-78895363D02*
X134616819Y-79038220D01*
X134616819Y-79038220D02*
X134616819Y-79133458D01*
X133616819Y-78419172D02*
X133616819Y-77847744D01*
X134616819Y-78133458D02*
X133616819Y-78133458D01*
X134331104Y-77562029D02*
X134331104Y-77085839D01*
X134616819Y-77657267D02*
X133616819Y-77323934D01*
X133616819Y-77323934D02*
X134616819Y-76990601D01*
X133664438Y-76133458D02*
X133616819Y-76228696D01*
X133616819Y-76228696D02*
X133616819Y-76371553D01*
X133616819Y-76371553D02*
X133664438Y-76514410D01*
X133664438Y-76514410D02*
X133759676Y-76609648D01*
X133759676Y-76609648D02*
X133854914Y-76657267D01*
X133854914Y-76657267D02*
X134045390Y-76704886D01*
X134045390Y-76704886D02*
X134188247Y-76704886D01*
X134188247Y-76704886D02*
X134378723Y-76657267D01*
X134378723Y-76657267D02*
X134473961Y-76609648D01*
X134473961Y-76609648D02*
X134569200Y-76514410D01*
X134569200Y-76514410D02*
X134616819Y-76371553D01*
X134616819Y-76371553D02*
X134616819Y-76276315D01*
X134616819Y-76276315D02*
X134569200Y-76133458D01*
X134569200Y-76133458D02*
X134521580Y-76085839D01*
X134521580Y-76085839D02*
X134188247Y-76085839D01*
X134188247Y-76085839D02*
X134188247Y-76276315D01*
X99603160Y-84156657D02*
X99650779Y-84109038D01*
X99650779Y-84109038D02*
X99746017Y-84061419D01*
X99746017Y-84061419D02*
X99984112Y-84061419D01*
X99984112Y-84061419D02*
X100079350Y-84109038D01*
X100079350Y-84109038D02*
X100126969Y-84156657D01*
X100126969Y-84156657D02*
X100174588Y-84251895D01*
X100174588Y-84251895D02*
X100174588Y-84347133D01*
X100174588Y-84347133D02*
X100126969Y-84489990D01*
X100126969Y-84489990D02*
X99555541Y-85061419D01*
X99555541Y-85061419D02*
X100174588Y-85061419D01*
X100460303Y-84061419D02*
X100793636Y-85061419D01*
X100793636Y-85061419D02*
X101126969Y-84061419D01*
X101936493Y-84061419D02*
X101460303Y-84061419D01*
X101460303Y-84061419D02*
X101412684Y-84537609D01*
X101412684Y-84537609D02*
X101460303Y-84489990D01*
X101460303Y-84489990D02*
X101555541Y-84442371D01*
X101555541Y-84442371D02*
X101793636Y-84442371D01*
X101793636Y-84442371D02*
X101888874Y-84489990D01*
X101888874Y-84489990D02*
X101936493Y-84537609D01*
X101936493Y-84537609D02*
X101984112Y-84632847D01*
X101984112Y-84632847D02*
X101984112Y-84870942D01*
X101984112Y-84870942D02*
X101936493Y-84966180D01*
X101936493Y-84966180D02*
X101888874Y-85013800D01*
X101888874Y-85013800D02*
X101793636Y-85061419D01*
X101793636Y-85061419D02*
X101555541Y-85061419D01*
X101555541Y-85061419D02*
X101460303Y-85013800D01*
X101460303Y-85013800D02*
X101412684Y-84966180D01*
X76692360Y-63931800D02*
X76835217Y-63979419D01*
X76835217Y-63979419D02*
X77073312Y-63979419D01*
X77073312Y-63979419D02*
X77168550Y-63931800D01*
X77168550Y-63931800D02*
X77216169Y-63884180D01*
X77216169Y-63884180D02*
X77263788Y-63788942D01*
X77263788Y-63788942D02*
X77263788Y-63693704D01*
X77263788Y-63693704D02*
X77216169Y-63598466D01*
X77216169Y-63598466D02*
X77168550Y-63550847D01*
X77168550Y-63550847D02*
X77073312Y-63503228D01*
X77073312Y-63503228D02*
X76882836Y-63455609D01*
X76882836Y-63455609D02*
X76787598Y-63407990D01*
X76787598Y-63407990D02*
X76739979Y-63360371D01*
X76739979Y-63360371D02*
X76692360Y-63265133D01*
X76692360Y-63265133D02*
X76692360Y-63169895D01*
X76692360Y-63169895D02*
X76739979Y-63074657D01*
X76739979Y-63074657D02*
X76787598Y-63027038D01*
X76787598Y-63027038D02*
X76882836Y-62979419D01*
X76882836Y-62979419D02*
X77120931Y-62979419D01*
X77120931Y-62979419D02*
X77263788Y-63027038D01*
X77597122Y-62979419D02*
X77835217Y-63979419D01*
X77835217Y-63979419D02*
X78025693Y-63265133D01*
X78025693Y-63265133D02*
X78216169Y-63979419D01*
X78216169Y-63979419D02*
X78454265Y-62979419D01*
X79359026Y-63979419D02*
X78787598Y-63979419D01*
X79073312Y-63979419D02*
X79073312Y-62979419D01*
X79073312Y-62979419D02*
X78978074Y-63122276D01*
X78978074Y-63122276D02*
X78882836Y-63217514D01*
X78882836Y-63217514D02*
X78787598Y-63265133D01*
X133131198Y-40518699D02*
X133217352Y-41131722D01*
X133217352Y-41131722D02*
X132793716Y-40854651D01*
X132793716Y-40854651D02*
X132813598Y-40996118D01*
X132813598Y-40996118D02*
X132779697Y-41097057D01*
X132779697Y-41097057D02*
X132739169Y-41150840D01*
X132739169Y-41150840D02*
X132651485Y-41211250D01*
X132651485Y-41211250D02*
X132415707Y-41244386D01*
X132415707Y-41244386D02*
X132314768Y-41210485D01*
X132314768Y-41210485D02*
X132260985Y-41169957D01*
X132260985Y-41169957D02*
X132200575Y-41082273D01*
X132200575Y-41082273D02*
X132160811Y-40799339D01*
X132160811Y-40799339D02*
X132194712Y-40698401D01*
X132194712Y-40698401D02*
X132235241Y-40644618D01*
X132381041Y-41682041D02*
X132340513Y-41735824D01*
X132340513Y-41735824D02*
X132286730Y-41695296D01*
X132286730Y-41695296D02*
X132327258Y-41641513D01*
X132327258Y-41641513D02*
X132381041Y-41682041D01*
X132381041Y-41682041D02*
X132286730Y-41695296D01*
X133330016Y-41933367D02*
X133416171Y-42546391D01*
X133416171Y-42546391D02*
X132992535Y-42269319D01*
X132992535Y-42269319D02*
X133012417Y-42410786D01*
X133012417Y-42410786D02*
X132978516Y-42511725D01*
X132978516Y-42511725D02*
X132937988Y-42565508D01*
X132937988Y-42565508D02*
X132850304Y-42625918D01*
X132850304Y-42625918D02*
X132614525Y-42659054D01*
X132614525Y-42659054D02*
X132513587Y-42625153D01*
X132513587Y-42625153D02*
X132459804Y-42584625D01*
X132459804Y-42584625D02*
X132399394Y-42496941D01*
X132399394Y-42496941D02*
X132359630Y-42214007D01*
X132359630Y-42214007D02*
X132393531Y-42113069D01*
X132393531Y-42113069D02*
X132434059Y-42059286D01*
X132862794Y-43056946D02*
X132968830Y-43811436D01*
X133707772Y-44621238D02*
X133681263Y-44432615D01*
X133681263Y-44432615D02*
X133620852Y-44344931D01*
X133620852Y-44344931D02*
X133567070Y-44304403D01*
X133567070Y-44304403D02*
X133412348Y-44229974D01*
X133412348Y-44229974D02*
X133217098Y-44209327D01*
X133217098Y-44209327D02*
X132839853Y-44262345D01*
X132839853Y-44262345D02*
X132752169Y-44322756D01*
X132752169Y-44322756D02*
X132711641Y-44376539D01*
X132711641Y-44376539D02*
X132677740Y-44477477D01*
X132677740Y-44477477D02*
X132704249Y-44666100D01*
X132704249Y-44666100D02*
X132764659Y-44753784D01*
X132764659Y-44753784D02*
X132818442Y-44794312D01*
X132818442Y-44794312D02*
X132919381Y-44828213D01*
X132919381Y-44828213D02*
X133155159Y-44795076D01*
X133155159Y-44795076D02*
X133242843Y-44734666D01*
X133242843Y-44734666D02*
X133283371Y-44680883D01*
X133283371Y-44680883D02*
X133317272Y-44579945D01*
X133317272Y-44579945D02*
X133290763Y-44391322D01*
X133290763Y-44391322D02*
X133230353Y-44303638D01*
X133230353Y-44303638D02*
X133176570Y-44263110D01*
X133176570Y-44263110D02*
X133075631Y-44229209D01*
X133846945Y-45611506D02*
X133780672Y-45139950D01*
X133780672Y-45139950D02*
X133302489Y-45159067D01*
X133302489Y-45159067D02*
X133356271Y-45199595D01*
X133356271Y-45199595D02*
X133416682Y-45287279D01*
X133416682Y-45287279D02*
X133449818Y-45523057D01*
X133449818Y-45523057D02*
X133415917Y-45623996D01*
X133415917Y-45623996D02*
X133375389Y-45677779D01*
X133375389Y-45677779D02*
X133287705Y-45738189D01*
X133287705Y-45738189D02*
X133051927Y-45771325D01*
X133051927Y-45771325D02*
X132950988Y-45737424D01*
X132950988Y-45737424D02*
X132897205Y-45696896D01*
X132897205Y-45696896D02*
X132836795Y-45609212D01*
X132836795Y-45609212D02*
X132803659Y-45373434D01*
X132803659Y-45373434D02*
X132837560Y-45272495D01*
X132837560Y-45272495D02*
X132878088Y-45218713D01*
X133893336Y-45941595D02*
X132949459Y-46410858D01*
X132949459Y-46410858D02*
X133986118Y-46601774D01*
X128457438Y-75314011D02*
X128409819Y-75409249D01*
X128409819Y-75409249D02*
X128409819Y-75552106D01*
X128409819Y-75552106D02*
X128457438Y-75694963D01*
X128457438Y-75694963D02*
X128552676Y-75790201D01*
X128552676Y-75790201D02*
X128647914Y-75837820D01*
X128647914Y-75837820D02*
X128838390Y-75885439D01*
X128838390Y-75885439D02*
X128981247Y-75885439D01*
X128981247Y-75885439D02*
X129171723Y-75837820D01*
X129171723Y-75837820D02*
X129266961Y-75790201D01*
X129266961Y-75790201D02*
X129362200Y-75694963D01*
X129362200Y-75694963D02*
X129409819Y-75552106D01*
X129409819Y-75552106D02*
X129409819Y-75456868D01*
X129409819Y-75456868D02*
X129362200Y-75314011D01*
X129362200Y-75314011D02*
X129314580Y-75266392D01*
X129314580Y-75266392D02*
X128981247Y-75266392D01*
X128981247Y-75266392D02*
X128981247Y-75456868D01*
X129409819Y-74837820D02*
X128409819Y-74837820D01*
X128409819Y-74837820D02*
X128409819Y-74456868D01*
X128409819Y-74456868D02*
X128457438Y-74361630D01*
X128457438Y-74361630D02*
X128505057Y-74314011D01*
X128505057Y-74314011D02*
X128600295Y-74266392D01*
X128600295Y-74266392D02*
X128743152Y-74266392D01*
X128743152Y-74266392D02*
X128838390Y-74314011D01*
X128838390Y-74314011D02*
X128886009Y-74361630D01*
X128886009Y-74361630D02*
X128933628Y-74456868D01*
X128933628Y-74456868D02*
X128933628Y-74837820D01*
X129409819Y-73837820D02*
X128409819Y-73837820D01*
X128409819Y-73171154D02*
X128409819Y-72980678D01*
X128409819Y-72980678D02*
X128457438Y-72885440D01*
X128457438Y-72885440D02*
X128552676Y-72790202D01*
X128552676Y-72790202D02*
X128743152Y-72742583D01*
X128743152Y-72742583D02*
X129076485Y-72742583D01*
X129076485Y-72742583D02*
X129266961Y-72790202D01*
X129266961Y-72790202D02*
X129362200Y-72885440D01*
X129362200Y-72885440D02*
X129409819Y-72980678D01*
X129409819Y-72980678D02*
X129409819Y-73171154D01*
X129409819Y-73171154D02*
X129362200Y-73266392D01*
X129362200Y-73266392D02*
X129266961Y-73361630D01*
X129266961Y-73361630D02*
X129076485Y-73409249D01*
X129076485Y-73409249D02*
X128743152Y-73409249D01*
X128743152Y-73409249D02*
X128552676Y-73361630D01*
X128552676Y-73361630D02*
X128457438Y-73266392D01*
X128457438Y-73266392D02*
X128409819Y-73171154D01*
X66392419Y-50793420D02*
X65392419Y-50793420D01*
X65392419Y-50793420D02*
X65392419Y-50412468D01*
X65392419Y-50412468D02*
X65440038Y-50317230D01*
X65440038Y-50317230D02*
X65487657Y-50269611D01*
X65487657Y-50269611D02*
X65582895Y-50221992D01*
X65582895Y-50221992D02*
X65725752Y-50221992D01*
X65725752Y-50221992D02*
X65820990Y-50269611D01*
X65820990Y-50269611D02*
X65868609Y-50317230D01*
X65868609Y-50317230D02*
X65916228Y-50412468D01*
X65916228Y-50412468D02*
X65916228Y-50793420D01*
X66392419Y-49793420D02*
X65392419Y-49793420D01*
X65392419Y-49793420D02*
X66106704Y-49460087D01*
X66106704Y-49460087D02*
X65392419Y-49126754D01*
X65392419Y-49126754D02*
X66392419Y-49126754D01*
X65392419Y-48460087D02*
X65392419Y-48269611D01*
X65392419Y-48269611D02*
X65440038Y-48174373D01*
X65440038Y-48174373D02*
X65535276Y-48079135D01*
X65535276Y-48079135D02*
X65725752Y-48031516D01*
X65725752Y-48031516D02*
X66059085Y-48031516D01*
X66059085Y-48031516D02*
X66249561Y-48079135D01*
X66249561Y-48079135D02*
X66344800Y-48174373D01*
X66344800Y-48174373D02*
X66392419Y-48269611D01*
X66392419Y-48269611D02*
X66392419Y-48460087D01*
X66392419Y-48460087D02*
X66344800Y-48555325D01*
X66344800Y-48555325D02*
X66249561Y-48650563D01*
X66249561Y-48650563D02*
X66059085Y-48698182D01*
X66059085Y-48698182D02*
X65725752Y-48698182D01*
X65725752Y-48698182D02*
X65535276Y-48650563D01*
X65535276Y-48650563D02*
X65440038Y-48555325D01*
X65440038Y-48555325D02*
X65392419Y-48460087D01*
X66392419Y-47602944D02*
X65392419Y-47602944D01*
X65392419Y-47602944D02*
X65392419Y-47364849D01*
X65392419Y-47364849D02*
X65440038Y-47221992D01*
X65440038Y-47221992D02*
X65535276Y-47126754D01*
X65535276Y-47126754D02*
X65630514Y-47079135D01*
X65630514Y-47079135D02*
X65820990Y-47031516D01*
X65820990Y-47031516D02*
X65963847Y-47031516D01*
X65963847Y-47031516D02*
X66154323Y-47079135D01*
X66154323Y-47079135D02*
X66249561Y-47126754D01*
X66249561Y-47126754D02*
X66344800Y-47221992D01*
X66344800Y-47221992D02*
X66392419Y-47364849D01*
X66392419Y-47364849D02*
X66392419Y-47602944D01*
X113962850Y-55786564D02*
X113486659Y-56119897D01*
X113962850Y-56357992D02*
X112962850Y-56357992D01*
X112962850Y-56357992D02*
X112962850Y-55977040D01*
X112962850Y-55977040D02*
X113010469Y-55881802D01*
X113010469Y-55881802D02*
X113058088Y-55834183D01*
X113058088Y-55834183D02*
X113153326Y-55786564D01*
X113153326Y-55786564D02*
X113296183Y-55786564D01*
X113296183Y-55786564D02*
X113391421Y-55834183D01*
X113391421Y-55834183D02*
X113439040Y-55881802D01*
X113439040Y-55881802D02*
X113486659Y-55977040D01*
X113486659Y-55977040D02*
X113486659Y-56357992D01*
X113962850Y-54834183D02*
X113962850Y-55405611D01*
X113962850Y-55119897D02*
X112962850Y-55119897D01*
X112962850Y-55119897D02*
X113105707Y-55215135D01*
X113105707Y-55215135D02*
X113200945Y-55310373D01*
X113200945Y-55310373D02*
X113248564Y-55405611D01*
X113962850Y-53881802D02*
X113962850Y-54453230D01*
X113962850Y-54167516D02*
X112962850Y-54167516D01*
X112962850Y-54167516D02*
X113105707Y-54262754D01*
X113105707Y-54262754D02*
X113200945Y-54357992D01*
X113200945Y-54357992D02*
X113248564Y-54453230D01*
X141401592Y-36823811D02*
X140504106Y-37623163D01*
X141494374Y-37483990D02*
X140411324Y-36962984D01*
X141527511Y-37719768D02*
X141607038Y-38285635D01*
X140577006Y-38141875D02*
X141567274Y-38002702D01*
X141713075Y-39040126D02*
X141686566Y-38851503D01*
X141686566Y-38851503D02*
X141626156Y-38763819D01*
X141626156Y-38763819D02*
X141572373Y-38723291D01*
X141572373Y-38723291D02*
X141417651Y-38648861D01*
X141417651Y-38648861D02*
X141222401Y-38628215D01*
X141222401Y-38628215D02*
X140845156Y-38681233D01*
X140845156Y-38681233D02*
X140757472Y-38741644D01*
X140757472Y-38741644D02*
X140716944Y-38795426D01*
X140716944Y-38795426D02*
X140683043Y-38896365D01*
X140683043Y-38896365D02*
X140709552Y-39084987D01*
X140709552Y-39084987D02*
X140769962Y-39172671D01*
X140769962Y-39172671D02*
X140823745Y-39213200D01*
X140823745Y-39213200D02*
X140924684Y-39247101D01*
X140924684Y-39247101D02*
X141160462Y-39213964D01*
X141160462Y-39213964D02*
X141248146Y-39153554D01*
X141248146Y-39153554D02*
X141288674Y-39099771D01*
X141288674Y-39099771D02*
X141322575Y-38998833D01*
X141322575Y-38998833D02*
X141296066Y-38810210D01*
X141296066Y-38810210D02*
X141235656Y-38722526D01*
X141235656Y-38722526D02*
X141181873Y-38681998D01*
X141181873Y-38681998D02*
X141080935Y-38648097D01*
X141812484Y-39747460D02*
X141825739Y-39841771D01*
X141825739Y-39841771D02*
X141791838Y-39942710D01*
X141791838Y-39942710D02*
X141751309Y-39996493D01*
X141751309Y-39996493D02*
X141663625Y-40056903D01*
X141663625Y-40056903D02*
X141481630Y-40130568D01*
X141481630Y-40130568D02*
X141245852Y-40163704D01*
X141245852Y-40163704D02*
X141050602Y-40143058D01*
X141050602Y-40143058D02*
X140949664Y-40109157D01*
X140949664Y-40109157D02*
X140895881Y-40068628D01*
X140895881Y-40068628D02*
X140835471Y-39980944D01*
X140835471Y-39980944D02*
X140822216Y-39886633D01*
X140822216Y-39886633D02*
X140856117Y-39785695D01*
X140856117Y-39785695D02*
X140896646Y-39731912D01*
X140896646Y-39731912D02*
X140984330Y-39671501D01*
X140984330Y-39671501D02*
X141166325Y-39597837D01*
X141166325Y-39597837D02*
X141402103Y-39564700D01*
X141402103Y-39564700D02*
X141597353Y-39585347D01*
X141597353Y-39585347D02*
X141698291Y-39619248D01*
X141698291Y-39619248D02*
X141752074Y-39659776D01*
X141752074Y-39659776D02*
X141812484Y-39747460D01*
X140928253Y-40641123D02*
X141918521Y-40501950D01*
X141918521Y-40501950D02*
X141257578Y-40931449D01*
X141257578Y-40931449D02*
X142011303Y-41162129D01*
X142011303Y-41162129D02*
X141021035Y-41301302D01*
X133391869Y-35821157D02*
X133550924Y-36952892D01*
X135103698Y-48001455D02*
X135262753Y-49133190D01*
X134617358Y-48646850D02*
X135749093Y-48487795D01*
X118564819Y-55227457D02*
X118088628Y-55560790D01*
X118564819Y-55798885D02*
X117564819Y-55798885D01*
X117564819Y-55798885D02*
X117564819Y-55417933D01*
X117564819Y-55417933D02*
X117612438Y-55322695D01*
X117612438Y-55322695D02*
X117660057Y-55275076D01*
X117660057Y-55275076D02*
X117755295Y-55227457D01*
X117755295Y-55227457D02*
X117898152Y-55227457D01*
X117898152Y-55227457D02*
X117993390Y-55275076D01*
X117993390Y-55275076D02*
X118041009Y-55322695D01*
X118041009Y-55322695D02*
X118088628Y-55417933D01*
X118088628Y-55417933D02*
X118088628Y-55798885D01*
X118564819Y-54275076D02*
X118564819Y-54846504D01*
X118564819Y-54560790D02*
X117564819Y-54560790D01*
X117564819Y-54560790D02*
X117707676Y-54656028D01*
X117707676Y-54656028D02*
X117802914Y-54751266D01*
X117802914Y-54751266D02*
X117850533Y-54846504D01*
X117564819Y-53656028D02*
X117564819Y-53560790D01*
X117564819Y-53560790D02*
X117612438Y-53465552D01*
X117612438Y-53465552D02*
X117660057Y-53417933D01*
X117660057Y-53417933D02*
X117755295Y-53370314D01*
X117755295Y-53370314D02*
X117945771Y-53322695D01*
X117945771Y-53322695D02*
X118183866Y-53322695D01*
X118183866Y-53322695D02*
X118374342Y-53370314D01*
X118374342Y-53370314D02*
X118469580Y-53417933D01*
X118469580Y-53417933D02*
X118517200Y-53465552D01*
X118517200Y-53465552D02*
X118564819Y-53560790D01*
X118564819Y-53560790D02*
X118564819Y-53656028D01*
X118564819Y-53656028D02*
X118517200Y-53751266D01*
X118517200Y-53751266D02*
X118469580Y-53798885D01*
X118469580Y-53798885D02*
X118374342Y-53846504D01*
X118374342Y-53846504D02*
X118183866Y-53894123D01*
X118183866Y-53894123D02*
X117945771Y-53894123D01*
X117945771Y-53894123D02*
X117755295Y-53846504D01*
X117755295Y-53846504D02*
X117660057Y-53798885D01*
X117660057Y-53798885D02*
X117612438Y-53751266D01*
X117612438Y-53751266D02*
X117564819Y-53656028D01*
X125017305Y-53210619D02*
X125017305Y-52210619D01*
X125017305Y-52210619D02*
X125255400Y-52210619D01*
X125255400Y-52210619D02*
X125398257Y-52258238D01*
X125398257Y-52258238D02*
X125493495Y-52353476D01*
X125493495Y-52353476D02*
X125541114Y-52448714D01*
X125541114Y-52448714D02*
X125588733Y-52639190D01*
X125588733Y-52639190D02*
X125588733Y-52782047D01*
X125588733Y-52782047D02*
X125541114Y-52972523D01*
X125541114Y-52972523D02*
X125493495Y-53067761D01*
X125493495Y-53067761D02*
X125398257Y-53163000D01*
X125398257Y-53163000D02*
X125255400Y-53210619D01*
X125255400Y-53210619D02*
X125017305Y-53210619D01*
X126541114Y-53210619D02*
X125969686Y-53210619D01*
X126255400Y-53210619D02*
X126255400Y-52210619D01*
X126255400Y-52210619D02*
X126160162Y-52353476D01*
X126160162Y-52353476D02*
X126064924Y-52448714D01*
X126064924Y-52448714D02*
X125969686Y-52496333D01*
X121887908Y-55170073D02*
X121411717Y-55503406D01*
X121887908Y-55741501D02*
X120887908Y-55741501D01*
X120887908Y-55741501D02*
X120887908Y-55360549D01*
X120887908Y-55360549D02*
X120935527Y-55265311D01*
X120935527Y-55265311D02*
X120983146Y-55217692D01*
X120983146Y-55217692D02*
X121078384Y-55170073D01*
X121078384Y-55170073D02*
X121221241Y-55170073D01*
X121221241Y-55170073D02*
X121316479Y-55217692D01*
X121316479Y-55217692D02*
X121364098Y-55265311D01*
X121364098Y-55265311D02*
X121411717Y-55360549D01*
X121411717Y-55360549D02*
X121411717Y-55741501D01*
X120887908Y-54836739D02*
X120887908Y-54217692D01*
X120887908Y-54217692D02*
X121268860Y-54551025D01*
X121268860Y-54551025D02*
X121268860Y-54408168D01*
X121268860Y-54408168D02*
X121316479Y-54312930D01*
X121316479Y-54312930D02*
X121364098Y-54265311D01*
X121364098Y-54265311D02*
X121459336Y-54217692D01*
X121459336Y-54217692D02*
X121697431Y-54217692D01*
X121697431Y-54217692D02*
X121792669Y-54265311D01*
X121792669Y-54265311D02*
X121840289Y-54312930D01*
X121840289Y-54312930D02*
X121887908Y-54408168D01*
X121887908Y-54408168D02*
X121887908Y-54693882D01*
X121887908Y-54693882D02*
X121840289Y-54789120D01*
X121840289Y-54789120D02*
X121792669Y-54836739D01*
X115218380Y-74607657D02*
X115266000Y-74655276D01*
X115266000Y-74655276D02*
X115313619Y-74798133D01*
X115313619Y-74798133D02*
X115313619Y-74893371D01*
X115313619Y-74893371D02*
X115266000Y-75036228D01*
X115266000Y-75036228D02*
X115170761Y-75131466D01*
X115170761Y-75131466D02*
X115075523Y-75179085D01*
X115075523Y-75179085D02*
X114885047Y-75226704D01*
X114885047Y-75226704D02*
X114742190Y-75226704D01*
X114742190Y-75226704D02*
X114551714Y-75179085D01*
X114551714Y-75179085D02*
X114456476Y-75131466D01*
X114456476Y-75131466D02*
X114361238Y-75036228D01*
X114361238Y-75036228D02*
X114313619Y-74893371D01*
X114313619Y-74893371D02*
X114313619Y-74798133D01*
X114313619Y-74798133D02*
X114361238Y-74655276D01*
X114361238Y-74655276D02*
X114408857Y-74607657D01*
X115313619Y-73655276D02*
X115313619Y-74226704D01*
X115313619Y-73940990D02*
X114313619Y-73940990D01*
X114313619Y-73940990D02*
X114456476Y-74036228D01*
X114456476Y-74036228D02*
X114551714Y-74131466D01*
X114551714Y-74131466D02*
X114599333Y-74226704D01*
X114313619Y-72798133D02*
X114313619Y-72988609D01*
X114313619Y-72988609D02*
X114361238Y-73083847D01*
X114361238Y-73083847D02*
X114408857Y-73131466D01*
X114408857Y-73131466D02*
X114551714Y-73226704D01*
X114551714Y-73226704D02*
X114742190Y-73274323D01*
X114742190Y-73274323D02*
X115123142Y-73274323D01*
X115123142Y-73274323D02*
X115218380Y-73226704D01*
X115218380Y-73226704D02*
X115266000Y-73179085D01*
X115266000Y-73179085D02*
X115313619Y-73083847D01*
X115313619Y-73083847D02*
X115313619Y-72893371D01*
X115313619Y-72893371D02*
X115266000Y-72798133D01*
X115266000Y-72798133D02*
X115218380Y-72750514D01*
X115218380Y-72750514D02*
X115123142Y-72702895D01*
X115123142Y-72702895D02*
X114885047Y-72702895D01*
X114885047Y-72702895D02*
X114789809Y-72750514D01*
X114789809Y-72750514D02*
X114742190Y-72798133D01*
X114742190Y-72798133D02*
X114694571Y-72893371D01*
X114694571Y-72893371D02*
X114694571Y-73083847D01*
X114694571Y-73083847D02*
X114742190Y-73179085D01*
X114742190Y-73179085D02*
X114789809Y-73226704D01*
X114789809Y-73226704D02*
X114885047Y-73274323D01*
X109909780Y-54694057D02*
X109957400Y-54741676D01*
X109957400Y-54741676D02*
X110005019Y-54884533D01*
X110005019Y-54884533D02*
X110005019Y-54979771D01*
X110005019Y-54979771D02*
X109957400Y-55122628D01*
X109957400Y-55122628D02*
X109862161Y-55217866D01*
X109862161Y-55217866D02*
X109766923Y-55265485D01*
X109766923Y-55265485D02*
X109576447Y-55313104D01*
X109576447Y-55313104D02*
X109433590Y-55313104D01*
X109433590Y-55313104D02*
X109243114Y-55265485D01*
X109243114Y-55265485D02*
X109147876Y-55217866D01*
X109147876Y-55217866D02*
X109052638Y-55122628D01*
X109052638Y-55122628D02*
X109005019Y-54979771D01*
X109005019Y-54979771D02*
X109005019Y-54884533D01*
X109005019Y-54884533D02*
X109052638Y-54741676D01*
X109052638Y-54741676D02*
X109100257Y-54694057D01*
X109100257Y-54313104D02*
X109052638Y-54265485D01*
X109052638Y-54265485D02*
X109005019Y-54170247D01*
X109005019Y-54170247D02*
X109005019Y-53932152D01*
X109005019Y-53932152D02*
X109052638Y-53836914D01*
X109052638Y-53836914D02*
X109100257Y-53789295D01*
X109100257Y-53789295D02*
X109195495Y-53741676D01*
X109195495Y-53741676D02*
X109290733Y-53741676D01*
X109290733Y-53741676D02*
X109433590Y-53789295D01*
X109433590Y-53789295D02*
X110005019Y-54360723D01*
X110005019Y-54360723D02*
X110005019Y-53741676D01*
X109005019Y-53122628D02*
X109005019Y-53027390D01*
X109005019Y-53027390D02*
X109052638Y-52932152D01*
X109052638Y-52932152D02*
X109100257Y-52884533D01*
X109100257Y-52884533D02*
X109195495Y-52836914D01*
X109195495Y-52836914D02*
X109385971Y-52789295D01*
X109385971Y-52789295D02*
X109624066Y-52789295D01*
X109624066Y-52789295D02*
X109814542Y-52836914D01*
X109814542Y-52836914D02*
X109909780Y-52884533D01*
X109909780Y-52884533D02*
X109957400Y-52932152D01*
X109957400Y-52932152D02*
X110005019Y-53027390D01*
X110005019Y-53027390D02*
X110005019Y-53122628D01*
X110005019Y-53122628D02*
X109957400Y-53217866D01*
X109957400Y-53217866D02*
X109909780Y-53265485D01*
X109909780Y-53265485D02*
X109814542Y-53313104D01*
X109814542Y-53313104D02*
X109624066Y-53360723D01*
X109624066Y-53360723D02*
X109385971Y-53360723D01*
X109385971Y-53360723D02*
X109195495Y-53313104D01*
X109195495Y-53313104D02*
X109100257Y-53265485D01*
X109100257Y-53265485D02*
X109052638Y-53217866D01*
X109052638Y-53217866D02*
X109005019Y-53122628D01*
X101261942Y-67669580D02*
X101214323Y-67717200D01*
X101214323Y-67717200D02*
X101071466Y-67764819D01*
X101071466Y-67764819D02*
X100976228Y-67764819D01*
X100976228Y-67764819D02*
X100833371Y-67717200D01*
X100833371Y-67717200D02*
X100738133Y-67621961D01*
X100738133Y-67621961D02*
X100690514Y-67526723D01*
X100690514Y-67526723D02*
X100642895Y-67336247D01*
X100642895Y-67336247D02*
X100642895Y-67193390D01*
X100642895Y-67193390D02*
X100690514Y-67002914D01*
X100690514Y-67002914D02*
X100738133Y-66907676D01*
X100738133Y-66907676D02*
X100833371Y-66812438D01*
X100833371Y-66812438D02*
X100976228Y-66764819D01*
X100976228Y-66764819D02*
X101071466Y-66764819D01*
X101071466Y-66764819D02*
X101214323Y-66812438D01*
X101214323Y-66812438D02*
X101261942Y-66860057D01*
X101642895Y-66860057D02*
X101690514Y-66812438D01*
X101690514Y-66812438D02*
X101785752Y-66764819D01*
X101785752Y-66764819D02*
X102023847Y-66764819D01*
X102023847Y-66764819D02*
X102119085Y-66812438D01*
X102119085Y-66812438D02*
X102166704Y-66860057D01*
X102166704Y-66860057D02*
X102214323Y-66955295D01*
X102214323Y-66955295D02*
X102214323Y-67050533D01*
X102214323Y-67050533D02*
X102166704Y-67193390D01*
X102166704Y-67193390D02*
X101595276Y-67764819D01*
X101595276Y-67764819D02*
X102214323Y-67764819D01*
X103119085Y-66764819D02*
X102642895Y-66764819D01*
X102642895Y-66764819D02*
X102595276Y-67241009D01*
X102595276Y-67241009D02*
X102642895Y-67193390D01*
X102642895Y-67193390D02*
X102738133Y-67145771D01*
X102738133Y-67145771D02*
X102976228Y-67145771D01*
X102976228Y-67145771D02*
X103071466Y-67193390D01*
X103071466Y-67193390D02*
X103119085Y-67241009D01*
X103119085Y-67241009D02*
X103166704Y-67336247D01*
X103166704Y-67336247D02*
X103166704Y-67574342D01*
X103166704Y-67574342D02*
X103119085Y-67669580D01*
X103119085Y-67669580D02*
X103071466Y-67717200D01*
X103071466Y-67717200D02*
X102976228Y-67764819D01*
X102976228Y-67764819D02*
X102738133Y-67764819D01*
X102738133Y-67764819D02*
X102642895Y-67717200D01*
X102642895Y-67717200D02*
X102595276Y-67669580D01*
X104011552Y-44498419D02*
X103535362Y-44498419D01*
X103535362Y-44498419D02*
X103535362Y-43498419D01*
X104344886Y-43974609D02*
X104678219Y-43974609D01*
X104821076Y-44498419D02*
X104344886Y-44498419D01*
X104344886Y-44498419D02*
X104344886Y-43498419D01*
X104344886Y-43498419D02*
X104821076Y-43498419D01*
X105249648Y-44498419D02*
X105249648Y-43498419D01*
X105249648Y-43498419D02*
X105487743Y-43498419D01*
X105487743Y-43498419D02*
X105630600Y-43546038D01*
X105630600Y-43546038D02*
X105725838Y-43641276D01*
X105725838Y-43641276D02*
X105773457Y-43736514D01*
X105773457Y-43736514D02*
X105821076Y-43926990D01*
X105821076Y-43926990D02*
X105821076Y-44069847D01*
X105821076Y-44069847D02*
X105773457Y-44260323D01*
X105773457Y-44260323D02*
X105725838Y-44355561D01*
X105725838Y-44355561D02*
X105630600Y-44450800D01*
X105630600Y-44450800D02*
X105487743Y-44498419D01*
X105487743Y-44498419D02*
X105249648Y-44498419D01*
X106202029Y-43593657D02*
X106249648Y-43546038D01*
X106249648Y-43546038D02*
X106344886Y-43498419D01*
X106344886Y-43498419D02*
X106582981Y-43498419D01*
X106582981Y-43498419D02*
X106678219Y-43546038D01*
X106678219Y-43546038D02*
X106725838Y-43593657D01*
X106725838Y-43593657D02*
X106773457Y-43688895D01*
X106773457Y-43688895D02*
X106773457Y-43784133D01*
X106773457Y-43784133D02*
X106725838Y-43926990D01*
X106725838Y-43926990D02*
X106154410Y-44498419D01*
X106154410Y-44498419D02*
X106773457Y-44498419D01*
X107302800Y-44419819D02*
X107302800Y-44657914D01*
X107064705Y-44562676D02*
X107302800Y-44657914D01*
X107302800Y-44657914D02*
X107540895Y-44562676D01*
X107159943Y-44848390D02*
X107302800Y-44657914D01*
X107302800Y-44657914D02*
X107445657Y-44848390D01*
X107302799Y-45510180D02*
X107302799Y-45272085D01*
X107540894Y-45367323D02*
X107302799Y-45272085D01*
X107302799Y-45272085D02*
X107064704Y-45367323D01*
X107445656Y-45081609D02*
X107302799Y-45272085D01*
X107302799Y-45272085D02*
X107159942Y-45081609D01*
X106995933Y-67567980D02*
X106948314Y-67615600D01*
X106948314Y-67615600D02*
X106805457Y-67663219D01*
X106805457Y-67663219D02*
X106710219Y-67663219D01*
X106710219Y-67663219D02*
X106567362Y-67615600D01*
X106567362Y-67615600D02*
X106472124Y-67520361D01*
X106472124Y-67520361D02*
X106424505Y-67425123D01*
X106424505Y-67425123D02*
X106376886Y-67234647D01*
X106376886Y-67234647D02*
X106376886Y-67091790D01*
X106376886Y-67091790D02*
X106424505Y-66901314D01*
X106424505Y-66901314D02*
X106472124Y-66806076D01*
X106472124Y-66806076D02*
X106567362Y-66710838D01*
X106567362Y-66710838D02*
X106710219Y-66663219D01*
X106710219Y-66663219D02*
X106805457Y-66663219D01*
X106805457Y-66663219D02*
X106948314Y-66710838D01*
X106948314Y-66710838D02*
X106995933Y-66758457D01*
X107853076Y-66996552D02*
X107853076Y-67663219D01*
X107614981Y-66615600D02*
X107376886Y-67329885D01*
X107376886Y-67329885D02*
X107995933Y-67329885D01*
X107318980Y-54694057D02*
X107366600Y-54741676D01*
X107366600Y-54741676D02*
X107414219Y-54884533D01*
X107414219Y-54884533D02*
X107414219Y-54979771D01*
X107414219Y-54979771D02*
X107366600Y-55122628D01*
X107366600Y-55122628D02*
X107271361Y-55217866D01*
X107271361Y-55217866D02*
X107176123Y-55265485D01*
X107176123Y-55265485D02*
X106985647Y-55313104D01*
X106985647Y-55313104D02*
X106842790Y-55313104D01*
X106842790Y-55313104D02*
X106652314Y-55265485D01*
X106652314Y-55265485D02*
X106557076Y-55217866D01*
X106557076Y-55217866D02*
X106461838Y-55122628D01*
X106461838Y-55122628D02*
X106414219Y-54979771D01*
X106414219Y-54979771D02*
X106414219Y-54884533D01*
X106414219Y-54884533D02*
X106461838Y-54741676D01*
X106461838Y-54741676D02*
X106509457Y-54694057D01*
X106509457Y-54313104D02*
X106461838Y-54265485D01*
X106461838Y-54265485D02*
X106414219Y-54170247D01*
X106414219Y-54170247D02*
X106414219Y-53932152D01*
X106414219Y-53932152D02*
X106461838Y-53836914D01*
X106461838Y-53836914D02*
X106509457Y-53789295D01*
X106509457Y-53789295D02*
X106604695Y-53741676D01*
X106604695Y-53741676D02*
X106699933Y-53741676D01*
X106699933Y-53741676D02*
X106842790Y-53789295D01*
X106842790Y-53789295D02*
X107414219Y-54360723D01*
X107414219Y-54360723D02*
X107414219Y-53741676D01*
X106509457Y-53360723D02*
X106461838Y-53313104D01*
X106461838Y-53313104D02*
X106414219Y-53217866D01*
X106414219Y-53217866D02*
X106414219Y-52979771D01*
X106414219Y-52979771D02*
X106461838Y-52884533D01*
X106461838Y-52884533D02*
X106509457Y-52836914D01*
X106509457Y-52836914D02*
X106604695Y-52789295D01*
X106604695Y-52789295D02*
X106699933Y-52789295D01*
X106699933Y-52789295D02*
X106842790Y-52836914D01*
X106842790Y-52836914D02*
X107414219Y-53408342D01*
X107414219Y-53408342D02*
X107414219Y-52789295D01*
X112726180Y-74607657D02*
X112773800Y-74655276D01*
X112773800Y-74655276D02*
X112821419Y-74798133D01*
X112821419Y-74798133D02*
X112821419Y-74893371D01*
X112821419Y-74893371D02*
X112773800Y-75036228D01*
X112773800Y-75036228D02*
X112678561Y-75131466D01*
X112678561Y-75131466D02*
X112583323Y-75179085D01*
X112583323Y-75179085D02*
X112392847Y-75226704D01*
X112392847Y-75226704D02*
X112249990Y-75226704D01*
X112249990Y-75226704D02*
X112059514Y-75179085D01*
X112059514Y-75179085D02*
X111964276Y-75131466D01*
X111964276Y-75131466D02*
X111869038Y-75036228D01*
X111869038Y-75036228D02*
X111821419Y-74893371D01*
X111821419Y-74893371D02*
X111821419Y-74798133D01*
X111821419Y-74798133D02*
X111869038Y-74655276D01*
X111869038Y-74655276D02*
X111916657Y-74607657D01*
X112821419Y-73655276D02*
X112821419Y-74226704D01*
X112821419Y-73940990D02*
X111821419Y-73940990D01*
X111821419Y-73940990D02*
X111964276Y-74036228D01*
X111964276Y-74036228D02*
X112059514Y-74131466D01*
X112059514Y-74131466D02*
X112107133Y-74226704D01*
X112154752Y-72798133D02*
X112821419Y-72798133D01*
X111773800Y-73036228D02*
X112488085Y-73274323D01*
X112488085Y-73274323D02*
X112488085Y-72655276D01*
X107046733Y-64977180D02*
X106999114Y-65024800D01*
X106999114Y-65024800D02*
X106856257Y-65072419D01*
X106856257Y-65072419D02*
X106761019Y-65072419D01*
X106761019Y-65072419D02*
X106618162Y-65024800D01*
X106618162Y-65024800D02*
X106522924Y-64929561D01*
X106522924Y-64929561D02*
X106475305Y-64834323D01*
X106475305Y-64834323D02*
X106427686Y-64643847D01*
X106427686Y-64643847D02*
X106427686Y-64500990D01*
X106427686Y-64500990D02*
X106475305Y-64310514D01*
X106475305Y-64310514D02*
X106522924Y-64215276D01*
X106522924Y-64215276D02*
X106618162Y-64120038D01*
X106618162Y-64120038D02*
X106761019Y-64072419D01*
X106761019Y-64072419D02*
X106856257Y-64072419D01*
X106856257Y-64072419D02*
X106999114Y-64120038D01*
X106999114Y-64120038D02*
X107046733Y-64167657D01*
X107999114Y-65072419D02*
X107427686Y-65072419D01*
X107713400Y-65072419D02*
X107713400Y-64072419D01*
X107713400Y-64072419D02*
X107618162Y-64215276D01*
X107618162Y-64215276D02*
X107522924Y-64310514D01*
X107522924Y-64310514D02*
X107427686Y-64358133D01*
X107021333Y-66297980D02*
X106973714Y-66345600D01*
X106973714Y-66345600D02*
X106830857Y-66393219D01*
X106830857Y-66393219D02*
X106735619Y-66393219D01*
X106735619Y-66393219D02*
X106592762Y-66345600D01*
X106592762Y-66345600D02*
X106497524Y-66250361D01*
X106497524Y-66250361D02*
X106449905Y-66155123D01*
X106449905Y-66155123D02*
X106402286Y-65964647D01*
X106402286Y-65964647D02*
X106402286Y-65821790D01*
X106402286Y-65821790D02*
X106449905Y-65631314D01*
X106449905Y-65631314D02*
X106497524Y-65536076D01*
X106497524Y-65536076D02*
X106592762Y-65440838D01*
X106592762Y-65440838D02*
X106735619Y-65393219D01*
X106735619Y-65393219D02*
X106830857Y-65393219D01*
X106830857Y-65393219D02*
X106973714Y-65440838D01*
X106973714Y-65440838D02*
X107021333Y-65488457D01*
X107354667Y-65393219D02*
X107973714Y-65393219D01*
X107973714Y-65393219D02*
X107640381Y-65774171D01*
X107640381Y-65774171D02*
X107783238Y-65774171D01*
X107783238Y-65774171D02*
X107878476Y-65821790D01*
X107878476Y-65821790D02*
X107926095Y-65869409D01*
X107926095Y-65869409D02*
X107973714Y-65964647D01*
X107973714Y-65964647D02*
X107973714Y-66202742D01*
X107973714Y-66202742D02*
X107926095Y-66297980D01*
X107926095Y-66297980D02*
X107878476Y-66345600D01*
X107878476Y-66345600D02*
X107783238Y-66393219D01*
X107783238Y-66393219D02*
X107497524Y-66393219D01*
X107497524Y-66393219D02*
X107402286Y-66345600D01*
X107402286Y-66345600D02*
X107354667Y-66297980D01*
X121327942Y-62803980D02*
X121280323Y-62851600D01*
X121280323Y-62851600D02*
X121137466Y-62899219D01*
X121137466Y-62899219D02*
X121042228Y-62899219D01*
X121042228Y-62899219D02*
X120899371Y-62851600D01*
X120899371Y-62851600D02*
X120804133Y-62756361D01*
X120804133Y-62756361D02*
X120756514Y-62661123D01*
X120756514Y-62661123D02*
X120708895Y-62470647D01*
X120708895Y-62470647D02*
X120708895Y-62327790D01*
X120708895Y-62327790D02*
X120756514Y-62137314D01*
X120756514Y-62137314D02*
X120804133Y-62042076D01*
X120804133Y-62042076D02*
X120899371Y-61946838D01*
X120899371Y-61946838D02*
X121042228Y-61899219D01*
X121042228Y-61899219D02*
X121137466Y-61899219D01*
X121137466Y-61899219D02*
X121280323Y-61946838D01*
X121280323Y-61946838D02*
X121327942Y-61994457D01*
X122280323Y-62899219D02*
X121708895Y-62899219D01*
X121994609Y-62899219D02*
X121994609Y-61899219D01*
X121994609Y-61899219D02*
X121899371Y-62042076D01*
X121899371Y-62042076D02*
X121804133Y-62137314D01*
X121804133Y-62137314D02*
X121708895Y-62184933D01*
X122851752Y-62327790D02*
X122756514Y-62280171D01*
X122756514Y-62280171D02*
X122708895Y-62232552D01*
X122708895Y-62232552D02*
X122661276Y-62137314D01*
X122661276Y-62137314D02*
X122661276Y-62089695D01*
X122661276Y-62089695D02*
X122708895Y-61994457D01*
X122708895Y-61994457D02*
X122756514Y-61946838D01*
X122756514Y-61946838D02*
X122851752Y-61899219D01*
X122851752Y-61899219D02*
X123042228Y-61899219D01*
X123042228Y-61899219D02*
X123137466Y-61946838D01*
X123137466Y-61946838D02*
X123185085Y-61994457D01*
X123185085Y-61994457D02*
X123232704Y-62089695D01*
X123232704Y-62089695D02*
X123232704Y-62137314D01*
X123232704Y-62137314D02*
X123185085Y-62232552D01*
X123185085Y-62232552D02*
X123137466Y-62280171D01*
X123137466Y-62280171D02*
X123042228Y-62327790D01*
X123042228Y-62327790D02*
X122851752Y-62327790D01*
X122851752Y-62327790D02*
X122756514Y-62375409D01*
X122756514Y-62375409D02*
X122708895Y-62423028D01*
X122708895Y-62423028D02*
X122661276Y-62518266D01*
X122661276Y-62518266D02*
X122661276Y-62708742D01*
X122661276Y-62708742D02*
X122708895Y-62803980D01*
X122708895Y-62803980D02*
X122756514Y-62851600D01*
X122756514Y-62851600D02*
X122851752Y-62899219D01*
X122851752Y-62899219D02*
X123042228Y-62899219D01*
X123042228Y-62899219D02*
X123137466Y-62851600D01*
X123137466Y-62851600D02*
X123185085Y-62803980D01*
X123185085Y-62803980D02*
X123232704Y-62708742D01*
X123232704Y-62708742D02*
X123232704Y-62518266D01*
X123232704Y-62518266D02*
X123185085Y-62423028D01*
X123185085Y-62423028D02*
X123137466Y-62375409D01*
X123137466Y-62375409D02*
X123042228Y-62327790D01*
X121327942Y-64062780D02*
X121280323Y-64110400D01*
X121280323Y-64110400D02*
X121137466Y-64158019D01*
X121137466Y-64158019D02*
X121042228Y-64158019D01*
X121042228Y-64158019D02*
X120899371Y-64110400D01*
X120899371Y-64110400D02*
X120804133Y-64015161D01*
X120804133Y-64015161D02*
X120756514Y-63919923D01*
X120756514Y-63919923D02*
X120708895Y-63729447D01*
X120708895Y-63729447D02*
X120708895Y-63586590D01*
X120708895Y-63586590D02*
X120756514Y-63396114D01*
X120756514Y-63396114D02*
X120804133Y-63300876D01*
X120804133Y-63300876D02*
X120899371Y-63205638D01*
X120899371Y-63205638D02*
X121042228Y-63158019D01*
X121042228Y-63158019D02*
X121137466Y-63158019D01*
X121137466Y-63158019D02*
X121280323Y-63205638D01*
X121280323Y-63205638D02*
X121327942Y-63253257D01*
X122280323Y-64158019D02*
X121708895Y-64158019D01*
X121994609Y-64158019D02*
X121994609Y-63158019D01*
X121994609Y-63158019D02*
X121899371Y-63300876D01*
X121899371Y-63300876D02*
X121804133Y-63396114D01*
X121804133Y-63396114D02*
X121708895Y-63443733D01*
X122613657Y-63158019D02*
X123280323Y-63158019D01*
X123280323Y-63158019D02*
X122851752Y-64158019D01*
X116571733Y-66413780D02*
X116524114Y-66461400D01*
X116524114Y-66461400D02*
X116381257Y-66509019D01*
X116381257Y-66509019D02*
X116286019Y-66509019D01*
X116286019Y-66509019D02*
X116143162Y-66461400D01*
X116143162Y-66461400D02*
X116047924Y-66366161D01*
X116047924Y-66366161D02*
X116000305Y-66270923D01*
X116000305Y-66270923D02*
X115952686Y-66080447D01*
X115952686Y-66080447D02*
X115952686Y-65937590D01*
X115952686Y-65937590D02*
X116000305Y-65747114D01*
X116000305Y-65747114D02*
X116047924Y-65651876D01*
X116047924Y-65651876D02*
X116143162Y-65556638D01*
X116143162Y-65556638D02*
X116286019Y-65509019D01*
X116286019Y-65509019D02*
X116381257Y-65509019D01*
X116381257Y-65509019D02*
X116524114Y-65556638D01*
X116524114Y-65556638D02*
X116571733Y-65604257D01*
X117428876Y-65509019D02*
X117238400Y-65509019D01*
X117238400Y-65509019D02*
X117143162Y-65556638D01*
X117143162Y-65556638D02*
X117095543Y-65604257D01*
X117095543Y-65604257D02*
X117000305Y-65747114D01*
X117000305Y-65747114D02*
X116952686Y-65937590D01*
X116952686Y-65937590D02*
X116952686Y-66318542D01*
X116952686Y-66318542D02*
X117000305Y-66413780D01*
X117000305Y-66413780D02*
X117047924Y-66461400D01*
X117047924Y-66461400D02*
X117143162Y-66509019D01*
X117143162Y-66509019D02*
X117333638Y-66509019D01*
X117333638Y-66509019D02*
X117428876Y-66461400D01*
X117428876Y-66461400D02*
X117476495Y-66413780D01*
X117476495Y-66413780D02*
X117524114Y-66318542D01*
X117524114Y-66318542D02*
X117524114Y-66080447D01*
X117524114Y-66080447D02*
X117476495Y-65985209D01*
X117476495Y-65985209D02*
X117428876Y-65937590D01*
X117428876Y-65937590D02*
X117333638Y-65889971D01*
X117333638Y-65889971D02*
X117143162Y-65889971D01*
X117143162Y-65889971D02*
X117047924Y-65937590D01*
X117047924Y-65937590D02*
X117000305Y-65985209D01*
X117000305Y-65985209D02*
X116952686Y-66080447D01*
X108786752Y-44473019D02*
X108310562Y-44473019D01*
X108310562Y-44473019D02*
X108310562Y-43473019D01*
X109120086Y-43949209D02*
X109453419Y-43949209D01*
X109596276Y-44473019D02*
X109120086Y-44473019D01*
X109120086Y-44473019D02*
X109120086Y-43473019D01*
X109120086Y-43473019D02*
X109596276Y-43473019D01*
X110024848Y-44473019D02*
X110024848Y-43473019D01*
X110024848Y-43473019D02*
X110262943Y-43473019D01*
X110262943Y-43473019D02*
X110405800Y-43520638D01*
X110405800Y-43520638D02*
X110501038Y-43615876D01*
X110501038Y-43615876D02*
X110548657Y-43711114D01*
X110548657Y-43711114D02*
X110596276Y-43901590D01*
X110596276Y-43901590D02*
X110596276Y-44044447D01*
X110596276Y-44044447D02*
X110548657Y-44234923D01*
X110548657Y-44234923D02*
X110501038Y-44330161D01*
X110501038Y-44330161D02*
X110405800Y-44425400D01*
X110405800Y-44425400D02*
X110262943Y-44473019D01*
X110262943Y-44473019D02*
X110024848Y-44473019D01*
X110929610Y-43473019D02*
X111548657Y-43473019D01*
X111548657Y-43473019D02*
X111215324Y-43853971D01*
X111215324Y-43853971D02*
X111358181Y-43853971D01*
X111358181Y-43853971D02*
X111453419Y-43901590D01*
X111453419Y-43901590D02*
X111501038Y-43949209D01*
X111501038Y-43949209D02*
X111548657Y-44044447D01*
X111548657Y-44044447D02*
X111548657Y-44282542D01*
X111548657Y-44282542D02*
X111501038Y-44377780D01*
X111501038Y-44377780D02*
X111453419Y-44425400D01*
X111453419Y-44425400D02*
X111358181Y-44473019D01*
X111358181Y-44473019D02*
X111072467Y-44473019D01*
X111072467Y-44473019D02*
X110977229Y-44425400D01*
X110977229Y-44425400D02*
X110929610Y-44377780D01*
X112016299Y-45491579D02*
X112016299Y-45253484D01*
X112254394Y-45348722D02*
X112016299Y-45253484D01*
X112016299Y-45253484D02*
X111778204Y-45348722D01*
X112159156Y-45063008D02*
X112016299Y-45253484D01*
X112016299Y-45253484D02*
X111873442Y-45063008D01*
X112016300Y-44401218D02*
X112016300Y-44639313D01*
X111778205Y-44544075D02*
X112016300Y-44639313D01*
X112016300Y-44639313D02*
X112254395Y-44544075D01*
X111873443Y-44829789D02*
X112016300Y-44639313D01*
X112016300Y-44639313D02*
X112159157Y-44829789D01*
X116571733Y-63910380D02*
X116524114Y-63958000D01*
X116524114Y-63958000D02*
X116381257Y-64005619D01*
X116381257Y-64005619D02*
X116286019Y-64005619D01*
X116286019Y-64005619D02*
X116143162Y-63958000D01*
X116143162Y-63958000D02*
X116047924Y-63862761D01*
X116047924Y-63862761D02*
X116000305Y-63767523D01*
X116000305Y-63767523D02*
X115952686Y-63577047D01*
X115952686Y-63577047D02*
X115952686Y-63434190D01*
X115952686Y-63434190D02*
X116000305Y-63243714D01*
X116000305Y-63243714D02*
X116047924Y-63148476D01*
X116047924Y-63148476D02*
X116143162Y-63053238D01*
X116143162Y-63053238D02*
X116286019Y-63005619D01*
X116286019Y-63005619D02*
X116381257Y-63005619D01*
X116381257Y-63005619D02*
X116524114Y-63053238D01*
X116524114Y-63053238D02*
X116571733Y-63100857D01*
X117143162Y-63434190D02*
X117047924Y-63386571D01*
X117047924Y-63386571D02*
X117000305Y-63338952D01*
X117000305Y-63338952D02*
X116952686Y-63243714D01*
X116952686Y-63243714D02*
X116952686Y-63196095D01*
X116952686Y-63196095D02*
X117000305Y-63100857D01*
X117000305Y-63100857D02*
X117047924Y-63053238D01*
X117047924Y-63053238D02*
X117143162Y-63005619D01*
X117143162Y-63005619D02*
X117333638Y-63005619D01*
X117333638Y-63005619D02*
X117428876Y-63053238D01*
X117428876Y-63053238D02*
X117476495Y-63100857D01*
X117476495Y-63100857D02*
X117524114Y-63196095D01*
X117524114Y-63196095D02*
X117524114Y-63243714D01*
X117524114Y-63243714D02*
X117476495Y-63338952D01*
X117476495Y-63338952D02*
X117428876Y-63386571D01*
X117428876Y-63386571D02*
X117333638Y-63434190D01*
X117333638Y-63434190D02*
X117143162Y-63434190D01*
X117143162Y-63434190D02*
X117047924Y-63481809D01*
X117047924Y-63481809D02*
X117000305Y-63529428D01*
X117000305Y-63529428D02*
X116952686Y-63624666D01*
X116952686Y-63624666D02*
X116952686Y-63815142D01*
X116952686Y-63815142D02*
X117000305Y-63910380D01*
X117000305Y-63910380D02*
X117047924Y-63958000D01*
X117047924Y-63958000D02*
X117143162Y-64005619D01*
X117143162Y-64005619D02*
X117333638Y-64005619D01*
X117333638Y-64005619D02*
X117428876Y-63958000D01*
X117428876Y-63958000D02*
X117476495Y-63910380D01*
X117476495Y-63910380D02*
X117524114Y-63815142D01*
X117524114Y-63815142D02*
X117524114Y-63624666D01*
X117524114Y-63624666D02*
X117476495Y-63529428D01*
X117476495Y-63529428D02*
X117428876Y-63481809D01*
X117428876Y-63481809D02*
X117333638Y-63434190D01*
X106995933Y-68863380D02*
X106948314Y-68911000D01*
X106948314Y-68911000D02*
X106805457Y-68958619D01*
X106805457Y-68958619D02*
X106710219Y-68958619D01*
X106710219Y-68958619D02*
X106567362Y-68911000D01*
X106567362Y-68911000D02*
X106472124Y-68815761D01*
X106472124Y-68815761D02*
X106424505Y-68720523D01*
X106424505Y-68720523D02*
X106376886Y-68530047D01*
X106376886Y-68530047D02*
X106376886Y-68387190D01*
X106376886Y-68387190D02*
X106424505Y-68196714D01*
X106424505Y-68196714D02*
X106472124Y-68101476D01*
X106472124Y-68101476D02*
X106567362Y-68006238D01*
X106567362Y-68006238D02*
X106710219Y-67958619D01*
X106710219Y-67958619D02*
X106805457Y-67958619D01*
X106805457Y-67958619D02*
X106948314Y-68006238D01*
X106948314Y-68006238D02*
X106995933Y-68053857D01*
X107900695Y-67958619D02*
X107424505Y-67958619D01*
X107424505Y-67958619D02*
X107376886Y-68434809D01*
X107376886Y-68434809D02*
X107424505Y-68387190D01*
X107424505Y-68387190D02*
X107519743Y-68339571D01*
X107519743Y-68339571D02*
X107757838Y-68339571D01*
X107757838Y-68339571D02*
X107853076Y-68387190D01*
X107853076Y-68387190D02*
X107900695Y-68434809D01*
X107900695Y-68434809D02*
X107948314Y-68530047D01*
X107948314Y-68530047D02*
X107948314Y-68768142D01*
X107948314Y-68768142D02*
X107900695Y-68863380D01*
X107900695Y-68863380D02*
X107853076Y-68911000D01*
X107853076Y-68911000D02*
X107757838Y-68958619D01*
X107757838Y-68958619D02*
X107519743Y-68958619D01*
X107519743Y-68958619D02*
X107424505Y-68911000D01*
X107424505Y-68911000D02*
X107376886Y-68863380D01*
X101236542Y-65129580D02*
X101188923Y-65177200D01*
X101188923Y-65177200D02*
X101046066Y-65224819D01*
X101046066Y-65224819D02*
X100950828Y-65224819D01*
X100950828Y-65224819D02*
X100807971Y-65177200D01*
X100807971Y-65177200D02*
X100712733Y-65081961D01*
X100712733Y-65081961D02*
X100665114Y-64986723D01*
X100665114Y-64986723D02*
X100617495Y-64796247D01*
X100617495Y-64796247D02*
X100617495Y-64653390D01*
X100617495Y-64653390D02*
X100665114Y-64462914D01*
X100665114Y-64462914D02*
X100712733Y-64367676D01*
X100712733Y-64367676D02*
X100807971Y-64272438D01*
X100807971Y-64272438D02*
X100950828Y-64224819D01*
X100950828Y-64224819D02*
X101046066Y-64224819D01*
X101046066Y-64224819D02*
X101188923Y-64272438D01*
X101188923Y-64272438D02*
X101236542Y-64320057D01*
X101617495Y-64320057D02*
X101665114Y-64272438D01*
X101665114Y-64272438D02*
X101760352Y-64224819D01*
X101760352Y-64224819D02*
X101998447Y-64224819D01*
X101998447Y-64224819D02*
X102093685Y-64272438D01*
X102093685Y-64272438D02*
X102141304Y-64320057D01*
X102141304Y-64320057D02*
X102188923Y-64415295D01*
X102188923Y-64415295D02*
X102188923Y-64510533D01*
X102188923Y-64510533D02*
X102141304Y-64653390D01*
X102141304Y-64653390D02*
X101569876Y-65224819D01*
X101569876Y-65224819D02*
X102188923Y-65224819D01*
X102522257Y-64224819D02*
X103141304Y-64224819D01*
X103141304Y-64224819D02*
X102807971Y-64605771D01*
X102807971Y-64605771D02*
X102950828Y-64605771D01*
X102950828Y-64605771D02*
X103046066Y-64653390D01*
X103046066Y-64653390D02*
X103093685Y-64701009D01*
X103093685Y-64701009D02*
X103141304Y-64796247D01*
X103141304Y-64796247D02*
X103141304Y-65034342D01*
X103141304Y-65034342D02*
X103093685Y-65129580D01*
X103093685Y-65129580D02*
X103046066Y-65177200D01*
X103046066Y-65177200D02*
X102950828Y-65224819D01*
X102950828Y-65224819D02*
X102665114Y-65224819D01*
X102665114Y-65224819D02*
X102569876Y-65177200D01*
X102569876Y-65177200D02*
X102522257Y-65129580D01*
X116571042Y-57407980D02*
X116523423Y-57455600D01*
X116523423Y-57455600D02*
X116380566Y-57503219D01*
X116380566Y-57503219D02*
X116285328Y-57503219D01*
X116285328Y-57503219D02*
X116142471Y-57455600D01*
X116142471Y-57455600D02*
X116047233Y-57360361D01*
X116047233Y-57360361D02*
X115999614Y-57265123D01*
X115999614Y-57265123D02*
X115951995Y-57074647D01*
X115951995Y-57074647D02*
X115951995Y-56931790D01*
X115951995Y-56931790D02*
X115999614Y-56741314D01*
X115999614Y-56741314D02*
X116047233Y-56646076D01*
X116047233Y-56646076D02*
X116142471Y-56550838D01*
X116142471Y-56550838D02*
X116285328Y-56503219D01*
X116285328Y-56503219D02*
X116380566Y-56503219D01*
X116380566Y-56503219D02*
X116523423Y-56550838D01*
X116523423Y-56550838D02*
X116571042Y-56598457D01*
X117523423Y-57503219D02*
X116951995Y-57503219D01*
X117237709Y-57503219D02*
X117237709Y-56503219D01*
X117237709Y-56503219D02*
X117142471Y-56646076D01*
X117142471Y-56646076D02*
X117047233Y-56741314D01*
X117047233Y-56741314D02*
X116951995Y-56788933D01*
X117856757Y-56503219D02*
X118475804Y-56503219D01*
X118475804Y-56503219D02*
X118142471Y-56884171D01*
X118142471Y-56884171D02*
X118285328Y-56884171D01*
X118285328Y-56884171D02*
X118380566Y-56931790D01*
X118380566Y-56931790D02*
X118428185Y-56979409D01*
X118428185Y-56979409D02*
X118475804Y-57074647D01*
X118475804Y-57074647D02*
X118475804Y-57312742D01*
X118475804Y-57312742D02*
X118428185Y-57407980D01*
X118428185Y-57407980D02*
X118380566Y-57455600D01*
X118380566Y-57455600D02*
X118285328Y-57503219D01*
X118285328Y-57503219D02*
X117999614Y-57503219D01*
X117999614Y-57503219D02*
X117904376Y-57455600D01*
X117904376Y-57455600D02*
X117856757Y-57407980D01*
X103472650Y-55119273D02*
X102996459Y-55452606D01*
X103472650Y-55690701D02*
X102472650Y-55690701D01*
X102472650Y-55690701D02*
X102472650Y-55309749D01*
X102472650Y-55309749D02*
X102520269Y-55214511D01*
X102520269Y-55214511D02*
X102567888Y-55166892D01*
X102567888Y-55166892D02*
X102663126Y-55119273D01*
X102663126Y-55119273D02*
X102805983Y-55119273D01*
X102805983Y-55119273D02*
X102901221Y-55166892D01*
X102901221Y-55166892D02*
X102948840Y-55214511D01*
X102948840Y-55214511D02*
X102996459Y-55309749D01*
X102996459Y-55309749D02*
X102996459Y-55690701D01*
X102472650Y-54214511D02*
X102472650Y-54690701D01*
X102472650Y-54690701D02*
X102948840Y-54738320D01*
X102948840Y-54738320D02*
X102901221Y-54690701D01*
X102901221Y-54690701D02*
X102853602Y-54595463D01*
X102853602Y-54595463D02*
X102853602Y-54357368D01*
X102853602Y-54357368D02*
X102901221Y-54262130D01*
X102901221Y-54262130D02*
X102948840Y-54214511D01*
X102948840Y-54214511D02*
X103044078Y-54166892D01*
X103044078Y-54166892D02*
X103282173Y-54166892D01*
X103282173Y-54166892D02*
X103377411Y-54214511D01*
X103377411Y-54214511D02*
X103425031Y-54262130D01*
X103425031Y-54262130D02*
X103472650Y-54357368D01*
X103472650Y-54357368D02*
X103472650Y-54595463D01*
X103472650Y-54595463D02*
X103425031Y-54690701D01*
X103425031Y-54690701D02*
X103377411Y-54738320D01*
X116578142Y-61319580D02*
X116530523Y-61367200D01*
X116530523Y-61367200D02*
X116387666Y-61414819D01*
X116387666Y-61414819D02*
X116292428Y-61414819D01*
X116292428Y-61414819D02*
X116149571Y-61367200D01*
X116149571Y-61367200D02*
X116054333Y-61271961D01*
X116054333Y-61271961D02*
X116006714Y-61176723D01*
X116006714Y-61176723D02*
X115959095Y-60986247D01*
X115959095Y-60986247D02*
X115959095Y-60843390D01*
X115959095Y-60843390D02*
X116006714Y-60652914D01*
X116006714Y-60652914D02*
X116054333Y-60557676D01*
X116054333Y-60557676D02*
X116149571Y-60462438D01*
X116149571Y-60462438D02*
X116292428Y-60414819D01*
X116292428Y-60414819D02*
X116387666Y-60414819D01*
X116387666Y-60414819D02*
X116530523Y-60462438D01*
X116530523Y-60462438D02*
X116578142Y-60510057D01*
X117530523Y-61414819D02*
X116959095Y-61414819D01*
X117244809Y-61414819D02*
X117244809Y-60414819D01*
X117244809Y-60414819D02*
X117149571Y-60557676D01*
X117149571Y-60557676D02*
X117054333Y-60652914D01*
X117054333Y-60652914D02*
X116959095Y-60700533D01*
X118149571Y-60414819D02*
X118244809Y-60414819D01*
X118244809Y-60414819D02*
X118340047Y-60462438D01*
X118340047Y-60462438D02*
X118387666Y-60510057D01*
X118387666Y-60510057D02*
X118435285Y-60605295D01*
X118435285Y-60605295D02*
X118482904Y-60795771D01*
X118482904Y-60795771D02*
X118482904Y-61033866D01*
X118482904Y-61033866D02*
X118435285Y-61224342D01*
X118435285Y-61224342D02*
X118387666Y-61319580D01*
X118387666Y-61319580D02*
X118340047Y-61367200D01*
X118340047Y-61367200D02*
X118244809Y-61414819D01*
X118244809Y-61414819D02*
X118149571Y-61414819D01*
X118149571Y-61414819D02*
X118054333Y-61367200D01*
X118054333Y-61367200D02*
X118006714Y-61319580D01*
X118006714Y-61319580D02*
X117959095Y-61224342D01*
X117959095Y-61224342D02*
X117911476Y-61033866D01*
X117911476Y-61033866D02*
X117911476Y-60795771D01*
X117911476Y-60795771D02*
X117959095Y-60605295D01*
X117959095Y-60605295D02*
X118006714Y-60510057D01*
X118006714Y-60510057D02*
X118054333Y-60462438D01*
X118054333Y-60462438D02*
X118149571Y-60414819D01*
X116571733Y-65154980D02*
X116524114Y-65202600D01*
X116524114Y-65202600D02*
X116381257Y-65250219D01*
X116381257Y-65250219D02*
X116286019Y-65250219D01*
X116286019Y-65250219D02*
X116143162Y-65202600D01*
X116143162Y-65202600D02*
X116047924Y-65107361D01*
X116047924Y-65107361D02*
X116000305Y-65012123D01*
X116000305Y-65012123D02*
X115952686Y-64821647D01*
X115952686Y-64821647D02*
X115952686Y-64678790D01*
X115952686Y-64678790D02*
X116000305Y-64488314D01*
X116000305Y-64488314D02*
X116047924Y-64393076D01*
X116047924Y-64393076D02*
X116143162Y-64297838D01*
X116143162Y-64297838D02*
X116286019Y-64250219D01*
X116286019Y-64250219D02*
X116381257Y-64250219D01*
X116381257Y-64250219D02*
X116524114Y-64297838D01*
X116524114Y-64297838D02*
X116571733Y-64345457D01*
X116905067Y-64250219D02*
X117571733Y-64250219D01*
X117571733Y-64250219D02*
X117143162Y-65250219D01*
X104011552Y-48283019D02*
X103535362Y-48283019D01*
X103535362Y-48283019D02*
X103535362Y-47283019D01*
X104344886Y-47759209D02*
X104678219Y-47759209D01*
X104821076Y-48283019D02*
X104344886Y-48283019D01*
X104344886Y-48283019D02*
X104344886Y-47283019D01*
X104344886Y-47283019D02*
X104821076Y-47283019D01*
X105249648Y-48283019D02*
X105249648Y-47283019D01*
X105249648Y-47283019D02*
X105487743Y-47283019D01*
X105487743Y-47283019D02*
X105630600Y-47330638D01*
X105630600Y-47330638D02*
X105725838Y-47425876D01*
X105725838Y-47425876D02*
X105773457Y-47521114D01*
X105773457Y-47521114D02*
X105821076Y-47711590D01*
X105821076Y-47711590D02*
X105821076Y-47854447D01*
X105821076Y-47854447D02*
X105773457Y-48044923D01*
X105773457Y-48044923D02*
X105725838Y-48140161D01*
X105725838Y-48140161D02*
X105630600Y-48235400D01*
X105630600Y-48235400D02*
X105487743Y-48283019D01*
X105487743Y-48283019D02*
X105249648Y-48283019D01*
X106773457Y-48283019D02*
X106202029Y-48283019D01*
X106487743Y-48283019D02*
X106487743Y-47283019D01*
X106487743Y-47283019D02*
X106392505Y-47425876D01*
X106392505Y-47425876D02*
X106297267Y-47521114D01*
X106297267Y-47521114D02*
X106202029Y-47568733D01*
X107277399Y-49245180D02*
X107277399Y-49007085D01*
X107515494Y-49102323D02*
X107277399Y-49007085D01*
X107277399Y-49007085D02*
X107039304Y-49102323D01*
X107420256Y-48816609D02*
X107277399Y-49007085D01*
X107277399Y-49007085D02*
X107134542Y-48816609D01*
X107277400Y-48154819D02*
X107277400Y-48392914D01*
X107039305Y-48297676D02*
X107277400Y-48392914D01*
X107277400Y-48392914D02*
X107515495Y-48297676D01*
X107134543Y-48583390D02*
X107277400Y-48392914D01*
X107277400Y-48392914D02*
X107420257Y-48583390D01*
X116578142Y-58728780D02*
X116530523Y-58776400D01*
X116530523Y-58776400D02*
X116387666Y-58824019D01*
X116387666Y-58824019D02*
X116292428Y-58824019D01*
X116292428Y-58824019D02*
X116149571Y-58776400D01*
X116149571Y-58776400D02*
X116054333Y-58681161D01*
X116054333Y-58681161D02*
X116006714Y-58585923D01*
X116006714Y-58585923D02*
X115959095Y-58395447D01*
X115959095Y-58395447D02*
X115959095Y-58252590D01*
X115959095Y-58252590D02*
X116006714Y-58062114D01*
X116006714Y-58062114D02*
X116054333Y-57966876D01*
X116054333Y-57966876D02*
X116149571Y-57871638D01*
X116149571Y-57871638D02*
X116292428Y-57824019D01*
X116292428Y-57824019D02*
X116387666Y-57824019D01*
X116387666Y-57824019D02*
X116530523Y-57871638D01*
X116530523Y-57871638D02*
X116578142Y-57919257D01*
X117530523Y-58824019D02*
X116959095Y-58824019D01*
X117244809Y-58824019D02*
X117244809Y-57824019D01*
X117244809Y-57824019D02*
X117149571Y-57966876D01*
X117149571Y-57966876D02*
X117054333Y-58062114D01*
X117054333Y-58062114D02*
X116959095Y-58109733D01*
X117911476Y-57919257D02*
X117959095Y-57871638D01*
X117959095Y-57871638D02*
X118054333Y-57824019D01*
X118054333Y-57824019D02*
X118292428Y-57824019D01*
X118292428Y-57824019D02*
X118387666Y-57871638D01*
X118387666Y-57871638D02*
X118435285Y-57919257D01*
X118435285Y-57919257D02*
X118482904Y-58014495D01*
X118482904Y-58014495D02*
X118482904Y-58109733D01*
X118482904Y-58109733D02*
X118435285Y-58252590D01*
X118435285Y-58252590D02*
X117863857Y-58824019D01*
X117863857Y-58824019D02*
X118482904Y-58824019D01*
X121327942Y-61548180D02*
X121280323Y-61595800D01*
X121280323Y-61595800D02*
X121137466Y-61643419D01*
X121137466Y-61643419D02*
X121042228Y-61643419D01*
X121042228Y-61643419D02*
X120899371Y-61595800D01*
X120899371Y-61595800D02*
X120804133Y-61500561D01*
X120804133Y-61500561D02*
X120756514Y-61405323D01*
X120756514Y-61405323D02*
X120708895Y-61214847D01*
X120708895Y-61214847D02*
X120708895Y-61071990D01*
X120708895Y-61071990D02*
X120756514Y-60881514D01*
X120756514Y-60881514D02*
X120804133Y-60786276D01*
X120804133Y-60786276D02*
X120899371Y-60691038D01*
X120899371Y-60691038D02*
X121042228Y-60643419D01*
X121042228Y-60643419D02*
X121137466Y-60643419D01*
X121137466Y-60643419D02*
X121280323Y-60691038D01*
X121280323Y-60691038D02*
X121327942Y-60738657D01*
X122280323Y-61643419D02*
X121708895Y-61643419D01*
X121994609Y-61643419D02*
X121994609Y-60643419D01*
X121994609Y-60643419D02*
X121899371Y-60786276D01*
X121899371Y-60786276D02*
X121804133Y-60881514D01*
X121804133Y-60881514D02*
X121708895Y-60929133D01*
X122756514Y-61643419D02*
X122946990Y-61643419D01*
X122946990Y-61643419D02*
X123042228Y-61595800D01*
X123042228Y-61595800D02*
X123089847Y-61548180D01*
X123089847Y-61548180D02*
X123185085Y-61405323D01*
X123185085Y-61405323D02*
X123232704Y-61214847D01*
X123232704Y-61214847D02*
X123232704Y-60833895D01*
X123232704Y-60833895D02*
X123185085Y-60738657D01*
X123185085Y-60738657D02*
X123137466Y-60691038D01*
X123137466Y-60691038D02*
X123042228Y-60643419D01*
X123042228Y-60643419D02*
X122851752Y-60643419D01*
X122851752Y-60643419D02*
X122756514Y-60691038D01*
X122756514Y-60691038D02*
X122708895Y-60738657D01*
X122708895Y-60738657D02*
X122661276Y-60833895D01*
X122661276Y-60833895D02*
X122661276Y-61071990D01*
X122661276Y-61071990D02*
X122708895Y-61167228D01*
X122708895Y-61167228D02*
X122756514Y-61214847D01*
X122756514Y-61214847D02*
X122851752Y-61262466D01*
X122851752Y-61262466D02*
X123042228Y-61262466D01*
X123042228Y-61262466D02*
X123137466Y-61214847D01*
X123137466Y-61214847D02*
X123185085Y-61167228D01*
X123185085Y-61167228D02*
X123232704Y-61071990D01*
X104819108Y-73077073D02*
X104342917Y-73410406D01*
X104819108Y-73648501D02*
X103819108Y-73648501D01*
X103819108Y-73648501D02*
X103819108Y-73267549D01*
X103819108Y-73267549D02*
X103866727Y-73172311D01*
X103866727Y-73172311D02*
X103914346Y-73124692D01*
X103914346Y-73124692D02*
X104009584Y-73077073D01*
X104009584Y-73077073D02*
X104152441Y-73077073D01*
X104152441Y-73077073D02*
X104247679Y-73124692D01*
X104247679Y-73124692D02*
X104295298Y-73172311D01*
X104295298Y-73172311D02*
X104342917Y-73267549D01*
X104342917Y-73267549D02*
X104342917Y-73648501D01*
X104819108Y-72600882D02*
X104819108Y-72410406D01*
X104819108Y-72410406D02*
X104771489Y-72315168D01*
X104771489Y-72315168D02*
X104723869Y-72267549D01*
X104723869Y-72267549D02*
X104581012Y-72172311D01*
X104581012Y-72172311D02*
X104390536Y-72124692D01*
X104390536Y-72124692D02*
X104009584Y-72124692D01*
X104009584Y-72124692D02*
X103914346Y-72172311D01*
X103914346Y-72172311D02*
X103866727Y-72219930D01*
X103866727Y-72219930D02*
X103819108Y-72315168D01*
X103819108Y-72315168D02*
X103819108Y-72505644D01*
X103819108Y-72505644D02*
X103866727Y-72600882D01*
X103866727Y-72600882D02*
X103914346Y-72648501D01*
X103914346Y-72648501D02*
X104009584Y-72696120D01*
X104009584Y-72696120D02*
X104247679Y-72696120D01*
X104247679Y-72696120D02*
X104342917Y-72648501D01*
X104342917Y-72648501D02*
X104390536Y-72600882D01*
X104390536Y-72600882D02*
X104438155Y-72505644D01*
X104438155Y-72505644D02*
X104438155Y-72315168D01*
X104438155Y-72315168D02*
X104390536Y-72219930D01*
X104390536Y-72219930D02*
X104342917Y-72172311D01*
X104342917Y-72172311D02*
X104247679Y-72124692D01*
X125207733Y-54963219D02*
X124874400Y-54487028D01*
X124636305Y-54963219D02*
X124636305Y-53963219D01*
X124636305Y-53963219D02*
X125017257Y-53963219D01*
X125017257Y-53963219D02*
X125112495Y-54010838D01*
X125112495Y-54010838D02*
X125160114Y-54058457D01*
X125160114Y-54058457D02*
X125207733Y-54153695D01*
X125207733Y-54153695D02*
X125207733Y-54296552D01*
X125207733Y-54296552D02*
X125160114Y-54391790D01*
X125160114Y-54391790D02*
X125112495Y-54439409D01*
X125112495Y-54439409D02*
X125017257Y-54487028D01*
X125017257Y-54487028D02*
X124636305Y-54487028D01*
X126064876Y-54296552D02*
X126064876Y-54963219D01*
X125826781Y-53915600D02*
X125588686Y-54629885D01*
X125588686Y-54629885D02*
X126207733Y-54629885D01*
X113970780Y-74582257D02*
X114018400Y-74629876D01*
X114018400Y-74629876D02*
X114066019Y-74772733D01*
X114066019Y-74772733D02*
X114066019Y-74867971D01*
X114066019Y-74867971D02*
X114018400Y-75010828D01*
X114018400Y-75010828D02*
X113923161Y-75106066D01*
X113923161Y-75106066D02*
X113827923Y-75153685D01*
X113827923Y-75153685D02*
X113637447Y-75201304D01*
X113637447Y-75201304D02*
X113494590Y-75201304D01*
X113494590Y-75201304D02*
X113304114Y-75153685D01*
X113304114Y-75153685D02*
X113208876Y-75106066D01*
X113208876Y-75106066D02*
X113113638Y-75010828D01*
X113113638Y-75010828D02*
X113066019Y-74867971D01*
X113066019Y-74867971D02*
X113066019Y-74772733D01*
X113066019Y-74772733D02*
X113113638Y-74629876D01*
X113113638Y-74629876D02*
X113161257Y-74582257D01*
X114066019Y-73629876D02*
X114066019Y-74201304D01*
X114066019Y-73915590D02*
X113066019Y-73915590D01*
X113066019Y-73915590D02*
X113208876Y-74010828D01*
X113208876Y-74010828D02*
X113304114Y-74106066D01*
X113304114Y-74106066D02*
X113351733Y-74201304D01*
X113066019Y-72725114D02*
X113066019Y-73201304D01*
X113066019Y-73201304D02*
X113542209Y-73248923D01*
X113542209Y-73248923D02*
X113494590Y-73201304D01*
X113494590Y-73201304D02*
X113446971Y-73106066D01*
X113446971Y-73106066D02*
X113446971Y-72867971D01*
X113446971Y-72867971D02*
X113494590Y-72772733D01*
X113494590Y-72772733D02*
X113542209Y-72725114D01*
X113542209Y-72725114D02*
X113637447Y-72677495D01*
X113637447Y-72677495D02*
X113875542Y-72677495D01*
X113875542Y-72677495D02*
X113970780Y-72725114D01*
X113970780Y-72725114D02*
X114018400Y-72772733D01*
X114018400Y-72772733D02*
X114066019Y-72867971D01*
X114066019Y-72867971D02*
X114066019Y-73106066D01*
X114066019Y-73106066D02*
X114018400Y-73201304D01*
X114018400Y-73201304D02*
X113970780Y-73248923D01*
X108735952Y-48232219D02*
X108259762Y-48232219D01*
X108259762Y-48232219D02*
X108259762Y-47232219D01*
X109069286Y-47708409D02*
X109402619Y-47708409D01*
X109545476Y-48232219D02*
X109069286Y-48232219D01*
X109069286Y-48232219D02*
X109069286Y-47232219D01*
X109069286Y-47232219D02*
X109545476Y-47232219D01*
X109974048Y-48232219D02*
X109974048Y-47232219D01*
X109974048Y-47232219D02*
X110212143Y-47232219D01*
X110212143Y-47232219D02*
X110355000Y-47279838D01*
X110355000Y-47279838D02*
X110450238Y-47375076D01*
X110450238Y-47375076D02*
X110497857Y-47470314D01*
X110497857Y-47470314D02*
X110545476Y-47660790D01*
X110545476Y-47660790D02*
X110545476Y-47803647D01*
X110545476Y-47803647D02*
X110497857Y-47994123D01*
X110497857Y-47994123D02*
X110450238Y-48089361D01*
X110450238Y-48089361D02*
X110355000Y-48184600D01*
X110355000Y-48184600D02*
X110212143Y-48232219D01*
X110212143Y-48232219D02*
X109974048Y-48232219D01*
X111402619Y-47565552D02*
X111402619Y-48232219D01*
X111164524Y-47184600D02*
X110926429Y-47898885D01*
X110926429Y-47898885D02*
X111545476Y-47898885D01*
X112016299Y-49249579D02*
X112016299Y-49011484D01*
X112254394Y-49106722D02*
X112016299Y-49011484D01*
X112016299Y-49011484D02*
X111778204Y-49106722D01*
X112159156Y-48821008D02*
X112016299Y-49011484D01*
X112016299Y-49011484D02*
X111873442Y-48821008D01*
X112016300Y-48159218D02*
X112016300Y-48397313D01*
X111778205Y-48302075D02*
X112016300Y-48397313D01*
X112016300Y-48397313D02*
X112254395Y-48302075D01*
X111873443Y-48587789D02*
X112016300Y-48397313D01*
X112016300Y-48397313D02*
X112159157Y-48587789D01*
X116571733Y-62614980D02*
X116524114Y-62662600D01*
X116524114Y-62662600D02*
X116381257Y-62710219D01*
X116381257Y-62710219D02*
X116286019Y-62710219D01*
X116286019Y-62710219D02*
X116143162Y-62662600D01*
X116143162Y-62662600D02*
X116047924Y-62567361D01*
X116047924Y-62567361D02*
X116000305Y-62472123D01*
X116000305Y-62472123D02*
X115952686Y-62281647D01*
X115952686Y-62281647D02*
X115952686Y-62138790D01*
X115952686Y-62138790D02*
X116000305Y-61948314D01*
X116000305Y-61948314D02*
X116047924Y-61853076D01*
X116047924Y-61853076D02*
X116143162Y-61757838D01*
X116143162Y-61757838D02*
X116286019Y-61710219D01*
X116286019Y-61710219D02*
X116381257Y-61710219D01*
X116381257Y-61710219D02*
X116524114Y-61757838D01*
X116524114Y-61757838D02*
X116571733Y-61805457D01*
X117047924Y-62710219D02*
X117238400Y-62710219D01*
X117238400Y-62710219D02*
X117333638Y-62662600D01*
X117333638Y-62662600D02*
X117381257Y-62614980D01*
X117381257Y-62614980D02*
X117476495Y-62472123D01*
X117476495Y-62472123D02*
X117524114Y-62281647D01*
X117524114Y-62281647D02*
X117524114Y-61900695D01*
X117524114Y-61900695D02*
X117476495Y-61805457D01*
X117476495Y-61805457D02*
X117428876Y-61757838D01*
X117428876Y-61757838D02*
X117333638Y-61710219D01*
X117333638Y-61710219D02*
X117143162Y-61710219D01*
X117143162Y-61710219D02*
X117047924Y-61757838D01*
X117047924Y-61757838D02*
X117000305Y-61805457D01*
X117000305Y-61805457D02*
X116952686Y-61900695D01*
X116952686Y-61900695D02*
X116952686Y-62138790D01*
X116952686Y-62138790D02*
X117000305Y-62234028D01*
X117000305Y-62234028D02*
X117047924Y-62281647D01*
X117047924Y-62281647D02*
X117143162Y-62329266D01*
X117143162Y-62329266D02*
X117333638Y-62329266D01*
X117333638Y-62329266D02*
X117428876Y-62281647D01*
X117428876Y-62281647D02*
X117476495Y-62234028D01*
X117476495Y-62234028D02*
X117524114Y-62138790D01*
X108614380Y-54694057D02*
X108662000Y-54741676D01*
X108662000Y-54741676D02*
X108709619Y-54884533D01*
X108709619Y-54884533D02*
X108709619Y-54979771D01*
X108709619Y-54979771D02*
X108662000Y-55122628D01*
X108662000Y-55122628D02*
X108566761Y-55217866D01*
X108566761Y-55217866D02*
X108471523Y-55265485D01*
X108471523Y-55265485D02*
X108281047Y-55313104D01*
X108281047Y-55313104D02*
X108138190Y-55313104D01*
X108138190Y-55313104D02*
X107947714Y-55265485D01*
X107947714Y-55265485D02*
X107852476Y-55217866D01*
X107852476Y-55217866D02*
X107757238Y-55122628D01*
X107757238Y-55122628D02*
X107709619Y-54979771D01*
X107709619Y-54979771D02*
X107709619Y-54884533D01*
X107709619Y-54884533D02*
X107757238Y-54741676D01*
X107757238Y-54741676D02*
X107804857Y-54694057D01*
X107804857Y-54313104D02*
X107757238Y-54265485D01*
X107757238Y-54265485D02*
X107709619Y-54170247D01*
X107709619Y-54170247D02*
X107709619Y-53932152D01*
X107709619Y-53932152D02*
X107757238Y-53836914D01*
X107757238Y-53836914D02*
X107804857Y-53789295D01*
X107804857Y-53789295D02*
X107900095Y-53741676D01*
X107900095Y-53741676D02*
X107995333Y-53741676D01*
X107995333Y-53741676D02*
X108138190Y-53789295D01*
X108138190Y-53789295D02*
X108709619Y-54360723D01*
X108709619Y-54360723D02*
X108709619Y-53741676D01*
X108709619Y-52789295D02*
X108709619Y-53360723D01*
X108709619Y-53075009D02*
X107709619Y-53075009D01*
X107709619Y-53075009D02*
X107852476Y-53170247D01*
X107852476Y-53170247D02*
X107947714Y-53265485D01*
X107947714Y-53265485D02*
X107995333Y-53360723D01*
X101236542Y-66413780D02*
X101188923Y-66461400D01*
X101188923Y-66461400D02*
X101046066Y-66509019D01*
X101046066Y-66509019D02*
X100950828Y-66509019D01*
X100950828Y-66509019D02*
X100807971Y-66461400D01*
X100807971Y-66461400D02*
X100712733Y-66366161D01*
X100712733Y-66366161D02*
X100665114Y-66270923D01*
X100665114Y-66270923D02*
X100617495Y-66080447D01*
X100617495Y-66080447D02*
X100617495Y-65937590D01*
X100617495Y-65937590D02*
X100665114Y-65747114D01*
X100665114Y-65747114D02*
X100712733Y-65651876D01*
X100712733Y-65651876D02*
X100807971Y-65556638D01*
X100807971Y-65556638D02*
X100950828Y-65509019D01*
X100950828Y-65509019D02*
X101046066Y-65509019D01*
X101046066Y-65509019D02*
X101188923Y-65556638D01*
X101188923Y-65556638D02*
X101236542Y-65604257D01*
X101617495Y-65604257D02*
X101665114Y-65556638D01*
X101665114Y-65556638D02*
X101760352Y-65509019D01*
X101760352Y-65509019D02*
X101998447Y-65509019D01*
X101998447Y-65509019D02*
X102093685Y-65556638D01*
X102093685Y-65556638D02*
X102141304Y-65604257D01*
X102141304Y-65604257D02*
X102188923Y-65699495D01*
X102188923Y-65699495D02*
X102188923Y-65794733D01*
X102188923Y-65794733D02*
X102141304Y-65937590D01*
X102141304Y-65937590D02*
X101569876Y-66509019D01*
X101569876Y-66509019D02*
X102188923Y-66509019D01*
X103046066Y-65842352D02*
X103046066Y-66509019D01*
X102807971Y-65461400D02*
X102569876Y-66175685D01*
X102569876Y-66175685D02*
X103188923Y-66175685D01*
X116578142Y-60049580D02*
X116530523Y-60097200D01*
X116530523Y-60097200D02*
X116387666Y-60144819D01*
X116387666Y-60144819D02*
X116292428Y-60144819D01*
X116292428Y-60144819D02*
X116149571Y-60097200D01*
X116149571Y-60097200D02*
X116054333Y-60001961D01*
X116054333Y-60001961D02*
X116006714Y-59906723D01*
X116006714Y-59906723D02*
X115959095Y-59716247D01*
X115959095Y-59716247D02*
X115959095Y-59573390D01*
X115959095Y-59573390D02*
X116006714Y-59382914D01*
X116006714Y-59382914D02*
X116054333Y-59287676D01*
X116054333Y-59287676D02*
X116149571Y-59192438D01*
X116149571Y-59192438D02*
X116292428Y-59144819D01*
X116292428Y-59144819D02*
X116387666Y-59144819D01*
X116387666Y-59144819D02*
X116530523Y-59192438D01*
X116530523Y-59192438D02*
X116578142Y-59240057D01*
X117530523Y-60144819D02*
X116959095Y-60144819D01*
X117244809Y-60144819D02*
X117244809Y-59144819D01*
X117244809Y-59144819D02*
X117149571Y-59287676D01*
X117149571Y-59287676D02*
X117054333Y-59382914D01*
X117054333Y-59382914D02*
X116959095Y-59430533D01*
X118482904Y-60144819D02*
X117911476Y-60144819D01*
X118197190Y-60144819D02*
X118197190Y-59144819D01*
X118197190Y-59144819D02*
X118101952Y-59287676D01*
X118101952Y-59287676D02*
X118006714Y-59382914D01*
X118006714Y-59382914D02*
X117911476Y-59430533D01*
D11*
%TO.C,R11*%
X114298031Y-55311328D02*
X114298031Y-54976086D01*
X115058031Y-55311328D02*
X115058031Y-54976086D01*
D12*
%TO.C,J4*%
X124675149Y-83367451D02*
X124675149Y-88347451D01*
X124675149Y-83367451D02*
X126675149Y-83367451D01*
X124675149Y-88347451D02*
X126675149Y-88347451D01*
X132375149Y-83367451D02*
X134375149Y-83367451D01*
X132375149Y-88347451D02*
X134375149Y-88347451D01*
X134375149Y-88347451D02*
X134375149Y-83367451D01*
X131925149Y-89107451D02*
G75*
G02*
X131725149Y-89107451I-100000J0D01*
G01*
X131725149Y-89107451D02*
G75*
G02*
X131925149Y-89107451I100000J0D01*
G01*
%TO.C,J9*%
D11*
X66859600Y-34936200D02*
X117659600Y-34936200D01*
X117659600Y-40016200D01*
X66859600Y-40016200D01*
X66859600Y-34936200D01*
%TO.C,SW2*%
X93178000Y-41257200D02*
X80678000Y-41257200D01*
X80678000Y-53757200D01*
X93178000Y-53757200D01*
X93178000Y-41257200D01*
D12*
%TO.C,J2*%
X108231749Y-83367451D02*
X108231749Y-88347451D01*
X108231749Y-83367451D02*
X110231749Y-83367451D01*
X108231749Y-88347451D02*
X110231749Y-88347451D01*
X115931749Y-83367451D02*
X117931749Y-83367451D01*
X115931749Y-88347451D02*
X117931749Y-88347451D01*
X117931749Y-88347451D02*
X117931749Y-83367451D01*
X115481749Y-89107451D02*
G75*
G02*
X115281749Y-89107451I-100000J0D01*
G01*
X115281749Y-89107451D02*
G75*
G02*
X115481749Y-89107451I100000J0D01*
G01*
D11*
%TO.C,XT60M*%
X134429332Y-36343280D02*
X134485001Y-36739387D01*
X135127981Y-41314426D02*
X135516274Y-44077274D01*
X136093842Y-48186886D02*
X136187088Y-48850366D01*
X151563110Y-32370052D02*
X137392374Y-34361619D01*
X151563110Y-32370052D02*
X153750911Y-47937066D01*
X153750911Y-47937066D02*
X139580175Y-49928633D01*
X134429708Y-36334426D02*
G75*
G02*
X137392374Y-34361619I3534663J-2097187D01*
G01*
X139580175Y-49928633D02*
G75*
G02*
X136189460Y-48849777I-572001J4070002D01*
G01*
%TO.C,JP7*%
X107829087Y-62948807D02*
X107829087Y-62348807D01*
X108529087Y-61648807D02*
X109929087Y-61648807D01*
X109929087Y-63648807D02*
X108529087Y-63648807D01*
X110629087Y-62348807D02*
X110629087Y-62948807D01*
X107829087Y-62348807D02*
G75*
G02*
X108529087Y-61648807I700000J0D01*
G01*
X108529087Y-63648807D02*
G75*
G02*
X107829087Y-62948807I0J700000D01*
G01*
X109929087Y-61648807D02*
G75*
G02*
X110629087Y-62348807I1J-699999D01*
G01*
X110629087Y-62948807D02*
G75*
G02*
X109929087Y-63648807I-699999J-1D01*
G01*
%TO.C,R10*%
X118917889Y-55171028D02*
X118917889Y-54835786D01*
X119677889Y-55171028D02*
X119677889Y-54835786D01*
%TO.C,SW9*%
X76605000Y-55014200D02*
X77935000Y-55014200D01*
X76605000Y-56344200D02*
X76605000Y-55014200D01*
X76605000Y-57614200D02*
X76605000Y-62754200D01*
X76605000Y-57614200D02*
X79265000Y-57614200D01*
X76605000Y-62754200D02*
X79265000Y-62754200D01*
X79265000Y-57614200D02*
X79265000Y-62754200D01*
%TO.C,JP9*%
X109382487Y-72147607D02*
X109382487Y-70747607D01*
X110082487Y-70047607D02*
X110682487Y-70047607D01*
X110682487Y-72847607D02*
X110082487Y-72847607D01*
X111382487Y-70747607D02*
X111382487Y-72147607D01*
X109382487Y-70747607D02*
G75*
G02*
X110082487Y-70047607I700000J0D01*
G01*
X110082487Y-72847607D02*
G75*
G02*
X109382487Y-72147607I-1J699999D01*
G01*
X110682487Y-70047607D02*
G75*
G02*
X111382487Y-70747607I0J-700000D01*
G01*
X111382487Y-72147607D02*
G75*
G02*
X110682487Y-72847607I-699999J-1D01*
G01*
%TO.C,D1*%
X121949431Y-53702807D02*
X124809431Y-53702807D01*
X124809431Y-51782807D02*
X121949431Y-51782807D01*
X124809431Y-53702807D02*
X124809431Y-51782807D01*
%TO.C,R3*%
X119883089Y-54835786D02*
X119883089Y-55171028D01*
X120643089Y-54835786D02*
X120643089Y-55171028D01*
%TO.C,C16*%
X113632287Y-71557142D02*
X113632287Y-71325472D01*
X114352287Y-71557142D02*
X114352287Y-71325472D01*
%TO.C,SW11*%
X83819800Y-55013000D02*
X85149800Y-55013000D01*
X83819800Y-56343000D02*
X83819800Y-55013000D01*
X83819800Y-57613000D02*
X83819800Y-62753000D01*
X83819800Y-57613000D02*
X86479800Y-57613000D01*
X83819800Y-62753000D02*
X86479800Y-62753000D01*
X86479800Y-57613000D02*
X86479800Y-62753000D01*
%TO.C,JP5*%
X103003087Y-63126607D02*
X103003087Y-62526607D01*
X103703087Y-61826607D02*
X105103087Y-61826607D01*
X105103087Y-63826607D02*
X103703087Y-63826607D01*
X105803087Y-62526607D02*
X105803087Y-63126607D01*
X103003087Y-62526607D02*
G75*
G02*
X103703087Y-61826607I700000J0D01*
G01*
X103703087Y-63826607D02*
G75*
G02*
X103003087Y-63126607I0J700000D01*
G01*
X105103087Y-61826607D02*
G75*
G02*
X105803087Y-62526607I1J-699999D01*
G01*
X105803087Y-63126607D02*
G75*
G02*
X105103087Y-63826607I-699999J-1D01*
G01*
%TO.C,C20*%
X109336689Y-56496472D02*
X109336689Y-56728142D01*
X110056689Y-56496472D02*
X110056689Y-56728142D01*
%TO.C,J5*%
X51473600Y-41298200D02*
X51473600Y-56658200D01*
X51473600Y-41298200D02*
X60103600Y-41298200D01*
X51473600Y-41418200D02*
X60103600Y-41418200D01*
X51473600Y-41536295D02*
X60103600Y-41536295D01*
X51473600Y-41654390D02*
X60103600Y-41654390D01*
X51473600Y-41772485D02*
X60103600Y-41772485D01*
X51473600Y-41890580D02*
X60103600Y-41890580D01*
X51473600Y-42008675D02*
X60103600Y-42008675D01*
X51473600Y-42126770D02*
X60103600Y-42126770D01*
X51473600Y-42244865D02*
X60103600Y-42244865D01*
X51473600Y-42362960D02*
X60103600Y-42362960D01*
X51473600Y-42481055D02*
X60103600Y-42481055D01*
X51473600Y-42599150D02*
X60103600Y-42599150D01*
X51473600Y-42717245D02*
X60103600Y-42717245D01*
X51473600Y-42835340D02*
X60103600Y-42835340D01*
X51473600Y-42953435D02*
X60103600Y-42953435D01*
X51473600Y-43071530D02*
X60103600Y-43071530D01*
X51473600Y-43189625D02*
X60103600Y-43189625D01*
X51473600Y-43307720D02*
X60103600Y-43307720D01*
X51473600Y-43425815D02*
X60103600Y-43425815D01*
X51473600Y-43543910D02*
X60103600Y-43543910D01*
X51473600Y-43662005D02*
X60103600Y-43662005D01*
X51473600Y-43780100D02*
X60103600Y-43780100D01*
X51473600Y-43898200D02*
X60103600Y-43898200D01*
X51473600Y-46438200D02*
X60103600Y-46438200D01*
X51473600Y-48978200D02*
X60103600Y-48978200D01*
X51473600Y-51518200D02*
X60103600Y-51518200D01*
X51473600Y-54058200D02*
X60103600Y-54058200D01*
X51473600Y-56658200D02*
X60103600Y-56658200D01*
X60103600Y-41298200D02*
X60103600Y-56658200D01*
X60103600Y-42268200D02*
X60513600Y-42268200D01*
X60103600Y-42988200D02*
X60513600Y-42988200D01*
X60103600Y-44808200D02*
X60513600Y-44808200D01*
X60103600Y-45528200D02*
X60513600Y-45528200D01*
X60103600Y-47348200D02*
X60513600Y-47348200D01*
X60103600Y-48068200D02*
X60513600Y-48068200D01*
X60103600Y-49888200D02*
X60513600Y-49888200D01*
X60103600Y-50608200D02*
X60513600Y-50608200D01*
X60103600Y-52428200D02*
X60513600Y-52428200D01*
X60103600Y-53148200D02*
X60513600Y-53148200D01*
X60103600Y-54968200D02*
X60513600Y-54968200D01*
X60103600Y-55688200D02*
X60513600Y-55688200D01*
X62613600Y-42268200D02*
X62993600Y-42268200D01*
X62613600Y-42988200D02*
X62993600Y-42988200D01*
X62613600Y-44808200D02*
X63053600Y-44808200D01*
X62613600Y-45528200D02*
X63053600Y-45528200D01*
X62613600Y-47348200D02*
X63053600Y-47348200D01*
X62613600Y-48068200D02*
X63053600Y-48068200D01*
X62613600Y-49888200D02*
X63053600Y-49888200D01*
X62613600Y-50608200D02*
X63053600Y-50608200D01*
X62613600Y-52428200D02*
X63053600Y-52428200D01*
X62613600Y-53148200D02*
X63053600Y-53148200D01*
X62613600Y-54968200D02*
X63053600Y-54968200D01*
X62613600Y-55688200D02*
X63053600Y-55688200D01*
X64103600Y-41298200D02*
X65213600Y-41298200D01*
X65213600Y-41298200D02*
X65213600Y-42628200D01*
%TO.C,J8*%
X60298200Y-57757400D02*
X61628200Y-57757400D01*
X60298200Y-59087400D02*
X60298200Y-57757400D01*
X60298200Y-60357400D02*
X62898200Y-60357400D01*
X60298200Y-62957400D02*
X60298200Y-60357400D01*
X60298200Y-62957400D02*
X75658200Y-62957400D01*
X62898200Y-57757400D02*
X75658200Y-57757400D01*
X62898200Y-60357400D02*
X62898200Y-57757400D01*
X75658200Y-62957400D02*
X75658200Y-57757400D01*
%TO.C,C25*%
X104314352Y-66048007D02*
X104546022Y-66048007D01*
X104314352Y-66768007D02*
X104546022Y-66768007D01*
D13*
%TO.C,LED2*%
X106389971Y-44926900D02*
X105421629Y-44926900D01*
X106389971Y-46781100D02*
X105421629Y-46781100D01*
%TO.C,SW8*%
D11*
X79157200Y-41257200D02*
X66657200Y-41257200D01*
X66657200Y-53757200D01*
X79157200Y-53757200D01*
X79157200Y-41257200D01*
%TO.C,C4*%
X109114952Y-65881407D02*
X109346622Y-65881407D01*
X109114952Y-66601407D02*
X109346622Y-66601407D01*
%TO.C,C22*%
X107457089Y-56496472D02*
X107457089Y-56728142D01*
X108177089Y-56496472D02*
X108177089Y-56728142D01*
%TO.C,JP8*%
X113239287Y-68181207D02*
X113239287Y-67581207D01*
X113939287Y-66881207D02*
X115339287Y-66881207D01*
X115339287Y-68881207D02*
X113939287Y-68881207D01*
X116039287Y-67581207D02*
X116039287Y-68181207D01*
X113239287Y-67581207D02*
G75*
G02*
X113939287Y-66881207I699999J1D01*
G01*
X113939287Y-68881207D02*
G75*
G02*
X113239287Y-68181207I-1J699999D01*
G01*
X115339287Y-66881207D02*
G75*
G02*
X116039287Y-67581207I0J-700000D01*
G01*
X116039287Y-68181207D02*
G75*
G02*
X115339287Y-68881207I-700000J0D01*
G01*
%TO.C,C14*%
X111749687Y-71557142D02*
X111749687Y-71325472D01*
X112469687Y-71557142D02*
X112469687Y-71325472D01*
%TO.C,C1*%
X109114952Y-64016007D02*
X109346622Y-64016007D01*
X109114952Y-64736007D02*
X109346622Y-64736007D01*
D14*
%TO.C,J1*%
X135388800Y-61509600D02*
X144488800Y-61509600D01*
X135388800Y-86789600D02*
X135388800Y-61509600D01*
X144488800Y-61509600D02*
X144488800Y-86789600D01*
X144488800Y-86789600D02*
X135388800Y-86789600D01*
D15*
X145588800Y-81949600D02*
G75*
G02*
X145388800Y-81949600I-100000J0D01*
G01*
X145388800Y-81949600D02*
G75*
G02*
X145588800Y-81949600I100000J0D01*
G01*
D11*
%TO.C,C3*%
X109114952Y-64955807D02*
X109346622Y-64955807D01*
X109114952Y-65675807D02*
X109346622Y-65675807D01*
%TO.C,C18*%
X119603622Y-62528607D02*
X119371952Y-62528607D01*
X119603622Y-63248607D02*
X119371952Y-63248607D01*
%TO.C,SW3*%
X135626800Y-52010000D02*
X136956800Y-52010000D01*
X135626800Y-53340000D02*
X135626800Y-52010000D01*
X135626800Y-54610000D02*
X135626800Y-59750000D01*
X135626800Y-54610000D02*
X138286800Y-54610000D01*
X135626800Y-59750000D02*
X138286800Y-59750000D01*
X138286800Y-54610000D02*
X138286800Y-59750000D01*
%TO.C,C17*%
X119603622Y-63457207D02*
X119371952Y-63457207D01*
X119603622Y-64177207D02*
X119371952Y-64177207D01*
%TO.C,C6*%
X114765522Y-65794007D02*
X114533852Y-65794007D01*
X114765522Y-66514007D02*
X114533852Y-66514007D01*
D13*
%TO.C,LED3*%
X111103471Y-44908299D02*
X110135129Y-44908299D01*
X111103471Y-46762499D02*
X110135129Y-46762499D01*
D11*
%TO.C,SW5*%
X91811800Y-55007200D02*
X91811800Y-57667200D01*
X96951800Y-55007200D02*
X91811800Y-55007200D01*
X96951800Y-55007200D02*
X96951800Y-57667200D01*
X96951800Y-57667200D02*
X91811800Y-57667200D01*
X98221800Y-55007200D02*
X99551800Y-55007200D01*
X99551800Y-55007200D02*
X99551800Y-56337200D01*
%TO.C,C8*%
X114765522Y-63925607D02*
X114533852Y-63925607D01*
X114765522Y-64645607D02*
X114533852Y-64645607D01*
%TO.C,C5*%
X109114952Y-66810007D02*
X109346622Y-66810007D01*
X109114952Y-67530007D02*
X109346622Y-67530007D01*
%TO.C,JP4*%
X118060687Y-65844407D02*
X118060687Y-65244407D01*
X118760687Y-64544407D02*
X120160687Y-64544407D01*
X120160687Y-66544407D02*
X118760687Y-66544407D01*
X120860687Y-65244407D02*
X120860687Y-65844407D01*
X118060687Y-65244407D02*
G75*
G02*
X118760687Y-64544407I699999J1D01*
G01*
X118760687Y-66544407D02*
G75*
G02*
X118060687Y-65844407I-1J699999D01*
G01*
X120160687Y-64544407D02*
G75*
G02*
X120860687Y-65244407I0J-700000D01*
G01*
X120860687Y-65844407D02*
G75*
G02*
X120160687Y-66544407I-700000J0D01*
G01*
%TO.C,SW10*%
X80214800Y-55013000D02*
X81544800Y-55013000D01*
X80214800Y-56343000D02*
X80214800Y-55013000D01*
X80214800Y-57613000D02*
X80214800Y-62753000D01*
X80214800Y-57613000D02*
X82874800Y-57613000D01*
X80214800Y-62753000D02*
X82874800Y-62753000D01*
X82874800Y-57613000D02*
X82874800Y-62753000D01*
%TO.C,C23*%
X104314352Y-64193807D02*
X104546022Y-64193807D01*
X104314352Y-64913807D02*
X104546022Y-64913807D01*
%TO.C,C13*%
X114749722Y-59266207D02*
X114518052Y-59266207D01*
X114749722Y-59986207D02*
X114518052Y-59986207D01*
%TO.C,R5*%
X103807831Y-55120228D02*
X103807831Y-54784986D01*
X104567831Y-55120228D02*
X104567831Y-54784986D01*
%TO.C,C10*%
X114756822Y-62060207D02*
X114525152Y-62060207D01*
X114756822Y-62780207D02*
X114525152Y-62780207D01*
%TO.C,C7*%
X114765522Y-64854207D02*
X114533852Y-64854207D01*
X114765522Y-65574207D02*
X114533852Y-65574207D01*
%TO.C,JP6*%
X110423889Y-57303607D02*
X110423889Y-55903607D01*
X111123889Y-55203607D02*
X111723889Y-55203607D01*
X111723889Y-58003607D02*
X111123889Y-58003607D01*
X112423889Y-55903607D02*
X112423889Y-57303607D01*
X110423889Y-55903607D02*
G75*
G02*
X111123889Y-55203607I700000J0D01*
G01*
X111123889Y-58003607D02*
G75*
G02*
X110423889Y-57303607I-1J699999D01*
G01*
X111723889Y-55203607D02*
G75*
G02*
X112423889Y-55903607I0J-700000D01*
G01*
X112423889Y-57303607D02*
G75*
G02*
X111723889Y-58003607I-699999J-1D01*
G01*
D13*
%TO.C,LED1*%
X106364571Y-48661900D02*
X105396229Y-48661900D01*
X106364571Y-50516100D02*
X105396229Y-50516100D01*
D11*
%TO.C,J3*%
X139784600Y-57851600D02*
X139784600Y-58511600D01*
X139984600Y-52491600D02*
X144344600Y-52491600D01*
X139984600Y-54991600D02*
X139984600Y-52491600D01*
X139984600Y-58511600D02*
X139784600Y-58511600D01*
X139984600Y-61011600D02*
X139984600Y-58511600D01*
X139984600Y-61011600D02*
X144344600Y-61011600D01*
%TO.C,C12*%
X114756822Y-60191807D02*
X114525152Y-60191807D01*
X114756822Y-60911807D02*
X114525152Y-60911807D01*
%TO.C,C19*%
X119603622Y-61603007D02*
X119371952Y-61603007D01*
X119603622Y-62323007D02*
X119371952Y-62323007D01*
%TO.C,SW6*%
X79155800Y-64191200D02*
X66655800Y-64191200D01*
X66655800Y-76691200D01*
X79155800Y-76691200D01*
X79155800Y-64191200D01*
%TO.C,R9*%
X102814289Y-72742786D02*
X102814289Y-73078028D01*
X103574289Y-72742786D02*
X103574289Y-73078028D01*
%TO.C,SW4*%
X124425400Y-72363701D02*
X124425400Y-71033701D01*
X125755400Y-72363701D02*
X124425400Y-72363701D01*
X127025400Y-69703701D02*
X132165400Y-69703701D01*
X127025400Y-72363701D02*
X127025400Y-69703701D01*
X127025400Y-72363701D02*
X132165400Y-72363701D01*
X132165400Y-72363701D02*
X132165400Y-69703701D01*
%TO.C,R4*%
X123468352Y-53861407D02*
X123133110Y-53861407D01*
X123468352Y-54621407D02*
X123133110Y-54621407D01*
%TO.C,J6*%
X51473600Y-64183200D02*
X51473600Y-79543200D01*
X51473600Y-64183200D02*
X60103600Y-64183200D01*
X51473600Y-64303200D02*
X60103600Y-64303200D01*
X51473600Y-64421295D02*
X60103600Y-64421295D01*
X51473600Y-64539390D02*
X60103600Y-64539390D01*
X51473600Y-64657485D02*
X60103600Y-64657485D01*
X51473600Y-64775580D02*
X60103600Y-64775580D01*
X51473600Y-64893675D02*
X60103600Y-64893675D01*
X51473600Y-65011770D02*
X60103600Y-65011770D01*
X51473600Y-65129865D02*
X60103600Y-65129865D01*
X51473600Y-65247960D02*
X60103600Y-65247960D01*
X51473600Y-65366055D02*
X60103600Y-65366055D01*
X51473600Y-65484150D02*
X60103600Y-65484150D01*
X51473600Y-65602245D02*
X60103600Y-65602245D01*
X51473600Y-65720340D02*
X60103600Y-65720340D01*
X51473600Y-65838435D02*
X60103600Y-65838435D01*
X51473600Y-65956530D02*
X60103600Y-65956530D01*
X51473600Y-66074625D02*
X60103600Y-66074625D01*
X51473600Y-66192720D02*
X60103600Y-66192720D01*
X51473600Y-66310815D02*
X60103600Y-66310815D01*
X51473600Y-66428910D02*
X60103600Y-66428910D01*
X51473600Y-66547005D02*
X60103600Y-66547005D01*
X51473600Y-66665100D02*
X60103600Y-66665100D01*
X51473600Y-66783200D02*
X60103600Y-66783200D01*
X51473600Y-69323200D02*
X60103600Y-69323200D01*
X51473600Y-71863200D02*
X60103600Y-71863200D01*
X51473600Y-74403200D02*
X60103600Y-74403200D01*
X51473600Y-76943200D02*
X60103600Y-76943200D01*
X51473600Y-79543200D02*
X60103600Y-79543200D01*
X60103600Y-64183200D02*
X60103600Y-79543200D01*
X60103600Y-65153200D02*
X60513600Y-65153200D01*
X60103600Y-65873200D02*
X60513600Y-65873200D01*
X60103600Y-67693200D02*
X60513600Y-67693200D01*
X60103600Y-68413200D02*
X60513600Y-68413200D01*
X60103600Y-70233200D02*
X60513600Y-70233200D01*
X60103600Y-70953200D02*
X60513600Y-70953200D01*
X60103600Y-72773200D02*
X60513600Y-72773200D01*
X60103600Y-73493200D02*
X60513600Y-73493200D01*
X60103600Y-75313200D02*
X60513600Y-75313200D01*
X60103600Y-76033200D02*
X60513600Y-76033200D01*
X60103600Y-77853200D02*
X60513600Y-77853200D01*
X60103600Y-78573200D02*
X60513600Y-78573200D01*
X62613600Y-65153200D02*
X62993600Y-65153200D01*
X62613600Y-65873200D02*
X62993600Y-65873200D01*
X62613600Y-67693200D02*
X63053600Y-67693200D01*
X62613600Y-68413200D02*
X63053600Y-68413200D01*
X62613600Y-70233200D02*
X63053600Y-70233200D01*
X62613600Y-70953200D02*
X63053600Y-70953200D01*
X62613600Y-72773200D02*
X63053600Y-72773200D01*
X62613600Y-73493200D02*
X63053600Y-73493200D01*
X62613600Y-75313200D02*
X63053600Y-75313200D01*
X62613600Y-76033200D02*
X63053600Y-76033200D01*
X62613600Y-77853200D02*
X63053600Y-77853200D01*
X62613600Y-78573200D02*
X63053600Y-78573200D01*
X64103600Y-64183200D02*
X65213600Y-64183200D01*
X65213600Y-64183200D02*
X65213600Y-65513200D01*
%TO.C,C15*%
X112689487Y-71557142D02*
X112689487Y-71325472D01*
X113409487Y-71557142D02*
X113409487Y-71325472D01*
D13*
%TO.C,LED4*%
X111103471Y-48666299D02*
X110135129Y-48666299D01*
X111103471Y-50520499D02*
X110135129Y-50520499D01*
D11*
%TO.C,SW1*%
X94410400Y-74352800D02*
X94410400Y-69212800D01*
X97070400Y-69212800D02*
X94410400Y-69212800D01*
X97070400Y-74352800D02*
X94410400Y-74352800D01*
X97070400Y-74352800D02*
X97070400Y-69212800D01*
X97070400Y-75622800D02*
X97070400Y-76952800D01*
X97070400Y-76952800D02*
X95740400Y-76952800D01*
%TO.C,SW7*%
X93176600Y-64200400D02*
X80676600Y-64200400D01*
X80676600Y-76700400D01*
X93176600Y-76700400D01*
X93176600Y-64200400D01*
%TO.C,C9*%
X114765522Y-63000007D02*
X114533852Y-63000007D01*
X114765522Y-63720007D02*
X114533852Y-63720007D01*
%TO.C,C21*%
X108396889Y-56496472D02*
X108396889Y-56728142D01*
X109116889Y-56496472D02*
X109116889Y-56728142D01*
%TO.C,C24*%
X104314352Y-65122407D02*
X104546022Y-65122407D01*
X104314352Y-65842407D02*
X104546022Y-65842407D01*
%TO.C,C11*%
X114756822Y-61120407D02*
X114525152Y-61120407D01*
X114756822Y-61840407D02*
X114525152Y-61840407D01*
%TD*%
%LPC*%
D16*
%TO.C,R11*%
X114678031Y-55741207D03*
X114678031Y-54546207D03*
%TD*%
D17*
%TO.C,J4*%
X126025149Y-86707451D03*
X133025149Y-86707451D03*
%TD*%
D18*
%TO.C,J9*%
X63259600Y-37436200D03*
X63259600Y-86436200D03*
X121259600Y-37436200D03*
X121259600Y-86436200D03*
%TD*%
D19*
%TO.C,SW2*%
X90678000Y-51257200D03*
X85598000Y-43637200D03*
%TD*%
D17*
%TO.C,J2*%
X109581749Y-86707451D03*
X116581749Y-86707451D03*
%TD*%
D20*
%TO.C,XT60M*%
X141359388Y-34925000D03*
X143238225Y-48293619D03*
D21*
X135856175Y-38879383D03*
D22*
X136858221Y-46009313D03*
D23*
X139971677Y-41936366D03*
%TD*%
D24*
%TO.C,JP7*%
X109879087Y-62648807D03*
D25*
X108579087Y-62648807D03*
%TD*%
D16*
%TO.C,R10*%
X119297889Y-55600907D03*
X119297889Y-54405907D03*
%TD*%
D26*
%TO.C,SW9*%
X77935000Y-56344200D03*
D27*
X77935000Y-58884200D03*
X77935000Y-61424200D03*
%TD*%
D28*
%TO.C,JP9*%
X110382487Y-72097607D03*
D29*
X110382487Y-70797607D03*
%TD*%
D30*
%TO.C,D1*%
X123974431Y-52742807D03*
X121924431Y-52742807D03*
%TD*%
D31*
%TO.C,R3*%
X120263089Y-54405907D03*
X120263089Y-55600907D03*
%TD*%
D32*
%TO.C,C16*%
X113992287Y-72008807D03*
X113992287Y-70873807D03*
%TD*%
D26*
%TO.C,SW11*%
X85149800Y-56343000D03*
D27*
X85149800Y-58883000D03*
X85149800Y-61423000D03*
%TD*%
D24*
%TO.C,JP5*%
X105053087Y-62826607D03*
D25*
X103753087Y-62826607D03*
%TD*%
D33*
%TO.C,C20*%
X109696689Y-56044807D03*
X109696689Y-57179807D03*
%TD*%
D26*
%TO.C,J5*%
X64103600Y-42628200D03*
D27*
X61563600Y-42628200D03*
X64103600Y-45168200D03*
X61563600Y-45168200D03*
X64103600Y-47708200D03*
X61563600Y-47708200D03*
X64103600Y-50248200D03*
X61563600Y-50248200D03*
X64103600Y-52788200D03*
X61563600Y-52788200D03*
X64103600Y-55328200D03*
X61563600Y-55328200D03*
%TD*%
D26*
%TO.C,J8*%
X61628200Y-59087400D03*
D27*
X61628200Y-61627400D03*
X64168200Y-59087400D03*
X64168200Y-61627400D03*
X66708200Y-59087400D03*
X66708200Y-61627400D03*
X69248200Y-59087400D03*
X69248200Y-61627400D03*
X71788200Y-59087400D03*
X71788200Y-61627400D03*
X74328200Y-59087400D03*
X74328200Y-61627400D03*
%TD*%
D34*
%TO.C,C25*%
X103862687Y-66408007D03*
X104997687Y-66408007D03*
%TD*%
D35*
%TO.C,LED2*%
X106871000Y-45404001D03*
X106871000Y-46303999D03*
X104940600Y-46303999D03*
X104940600Y-45404001D03*
%TD*%
D19*
%TO.C,SW8*%
X76657200Y-51257200D03*
X71577200Y-43637200D03*
%TD*%
D34*
%TO.C,C4*%
X108663287Y-66241407D03*
X109798287Y-66241407D03*
%TD*%
D33*
%TO.C,C22*%
X107817089Y-56044807D03*
X107817089Y-57179807D03*
%TD*%
D36*
%TO.C,JP8*%
X113989287Y-67881207D03*
D37*
X115289287Y-67881207D03*
%TD*%
D32*
%TO.C,C14*%
X112109687Y-72008807D03*
X112109687Y-70873807D03*
%TD*%
D34*
%TO.C,C1*%
X108663287Y-64376007D03*
X109798287Y-64376007D03*
%TD*%
D38*
%TO.C,J1*%
X141358800Y-81769600D03*
D39*
X138818800Y-81769600D03*
X141358800Y-79229600D03*
X138818800Y-79229600D03*
X141358800Y-76689600D03*
X138818800Y-76689600D03*
X141358800Y-74149600D03*
X138818800Y-74149600D03*
X141358800Y-71609600D03*
X138818800Y-71609600D03*
X141358800Y-69069600D03*
X138818800Y-69069600D03*
X141358800Y-66529600D03*
X138818800Y-66529600D03*
%TD*%
D34*
%TO.C,C3*%
X108663287Y-65315807D03*
X109798287Y-65315807D03*
%TD*%
D40*
%TO.C,C18*%
X120055287Y-62888607D03*
X118920287Y-62888607D03*
%TD*%
D26*
%TO.C,SW3*%
X136956800Y-53340000D03*
D27*
X136956800Y-55880000D03*
X136956800Y-58420000D03*
%TD*%
D40*
%TO.C,C17*%
X120055287Y-63817207D03*
X118920287Y-63817207D03*
%TD*%
%TO.C,C6*%
X115217187Y-66154007D03*
X114082187Y-66154007D03*
%TD*%
D35*
%TO.C,LED3*%
X111584500Y-45385400D03*
X111584500Y-46285398D03*
X109654100Y-46285398D03*
X109654100Y-45385400D03*
%TD*%
D26*
%TO.C,SW5*%
X98221800Y-56337200D03*
D27*
X95681800Y-56337200D03*
X93141800Y-56337200D03*
%TD*%
D40*
%TO.C,C8*%
X115217187Y-64285607D03*
X114082187Y-64285607D03*
%TD*%
D34*
%TO.C,C5*%
X108663287Y-67170007D03*
X109798287Y-67170007D03*
%TD*%
D36*
%TO.C,JP4*%
X118810687Y-65544407D03*
D37*
X120110687Y-65544407D03*
%TD*%
D26*
%TO.C,SW10*%
X81544800Y-56343000D03*
D27*
X81544800Y-58883000D03*
X81544800Y-61423000D03*
%TD*%
D34*
%TO.C,C23*%
X103862687Y-64553807D03*
X104997687Y-64553807D03*
%TD*%
D40*
%TO.C,C13*%
X115201387Y-59626207D03*
X114066387Y-59626207D03*
%TD*%
D16*
%TO.C,R5*%
X104187831Y-55550107D03*
X104187831Y-54355107D03*
%TD*%
D40*
%TO.C,C10*%
X115208487Y-62420207D03*
X114073487Y-62420207D03*
%TD*%
%TO.C,C7*%
X115217187Y-65214207D03*
X114082187Y-65214207D03*
%TD*%
D28*
%TO.C,JP6*%
X111423889Y-57253607D03*
D29*
X111423889Y-55953607D03*
%TD*%
D35*
%TO.C,LED1*%
X106845600Y-49139001D03*
X106845600Y-50038999D03*
X104915200Y-50038999D03*
X104915200Y-49139001D03*
%TD*%
D41*
%TO.C,J3*%
X140719600Y-58051600D03*
X140719600Y-57401600D03*
X140719600Y-56751600D03*
X140719600Y-56101600D03*
X140719600Y-55451600D03*
D42*
X143394600Y-60051600D03*
D43*
X140944600Y-59951600D03*
D44*
X143394600Y-57951600D03*
X143394600Y-55551600D03*
D43*
X140944600Y-53551600D03*
D42*
X143394600Y-53451600D03*
%TD*%
D40*
%TO.C,C12*%
X115208487Y-60551807D03*
X114073487Y-60551807D03*
%TD*%
%TO.C,C19*%
X120055287Y-61963007D03*
X118920287Y-61963007D03*
%TD*%
D19*
%TO.C,SW6*%
X76655800Y-74191200D03*
X71575800Y-66571200D03*
%TD*%
D31*
%TO.C,R9*%
X103194289Y-72312907D03*
X103194289Y-73507907D03*
%TD*%
D26*
%TO.C,SW4*%
X125755400Y-71033701D03*
D27*
X128295400Y-71033701D03*
X130835400Y-71033701D03*
%TD*%
D45*
%TO.C,R4*%
X123898231Y-54241407D03*
X122703231Y-54241407D03*
%TD*%
D26*
%TO.C,J6*%
X64103600Y-65513200D03*
D27*
X61563600Y-65513200D03*
X64103600Y-68053200D03*
X61563600Y-68053200D03*
X64103600Y-70593200D03*
X61563600Y-70593200D03*
X64103600Y-73133200D03*
X61563600Y-73133200D03*
X64103600Y-75673200D03*
X61563600Y-75673200D03*
X64103600Y-78213200D03*
X61563600Y-78213200D03*
%TD*%
D32*
%TO.C,C15*%
X113049487Y-72008807D03*
X113049487Y-70873807D03*
%TD*%
D35*
%TO.C,LED4*%
X111584500Y-49143400D03*
X111584500Y-50043398D03*
X109654100Y-50043398D03*
X109654100Y-49143400D03*
%TD*%
D26*
%TO.C,SW1*%
X95740400Y-75622800D03*
D27*
X95740400Y-73082800D03*
X95740400Y-70542800D03*
%TD*%
D19*
%TO.C,SW7*%
X90676600Y-74200400D03*
X85596600Y-66580400D03*
%TD*%
D40*
%TO.C,C9*%
X115217187Y-63360007D03*
X114082187Y-63360007D03*
%TD*%
D33*
%TO.C,C21*%
X108756889Y-56044807D03*
X108756889Y-57179807D03*
%TD*%
D34*
%TO.C,C24*%
X103862687Y-65482407D03*
X104997687Y-65482407D03*
%TD*%
D40*
%TO.C,C11*%
X115208487Y-61480407D03*
X114073487Y-61480407D03*
%TD*%
D26*
%TO.C,J7*%
X68156000Y-38742000D03*
D27*
X68156000Y-36202000D03*
X70696000Y-38742000D03*
X70696000Y-36202000D03*
X73236000Y-38742000D03*
X73236000Y-36202000D03*
X75776000Y-38742000D03*
X75776000Y-36202000D03*
X78316000Y-38742000D03*
X78316000Y-36202000D03*
X80856000Y-38742000D03*
X80856000Y-36202000D03*
X83396000Y-38742000D03*
X83396000Y-36202000D03*
X85936000Y-38742000D03*
X85936000Y-36202000D03*
X88476000Y-38742000D03*
X88476000Y-36202000D03*
X91016000Y-38742000D03*
X91016000Y-36202000D03*
X93556000Y-38742000D03*
X93556000Y-36202000D03*
X96096000Y-38742000D03*
X96096000Y-36202000D03*
X98636000Y-38742000D03*
X98636000Y-36202000D03*
X101176000Y-38742000D03*
X101176000Y-36202000D03*
X103716000Y-38742000D03*
X103716000Y-36202000D03*
X106256000Y-38742000D03*
X106256000Y-36202000D03*
X108796000Y-38742000D03*
X108796000Y-36202000D03*
X111336000Y-38742000D03*
X111336000Y-36202000D03*
X113876000Y-38742000D03*
X113876000Y-36202000D03*
X116416000Y-38742000D03*
X116416000Y-36202000D03*
%TD*%
%LPD*%
M02*
