%TF.GenerationSoftware,KiCad,Pcbnew,8.0.2*%
%TF.CreationDate,2024-09-16T20:32:18-04:00*%
%TF.ProjectId,fpga,66706761-2e6b-4696-9361-645f70636258,rev?*%
%TF.SameCoordinates,Original*%
%TF.FileFunction,Drillmap*%
%TF.FilePolarity,Positive*%
%FSLAX45Y45*%
G04 Gerber Fmt 4.5, Leading zero omitted, Abs format (unit mm)*
G04 Created by KiCad (PCBNEW 8.0.2) date 2024-09-16 20:32:18*
%MOMM*%
%LPD*%
G01*
G04 APERTURE LIST*
%ADD10C,0.120000*%
%ADD11C,0.200000*%
%ADD12C,0.100000*%
%ADD13C,0.270000*%
%ADD14C,0.275000*%
G04 APERTURE END LIST*
D10*
X5975960Y-8693620D02*
X5975960Y-3693620D01*
X6275960Y-3393620D02*
X14175960Y-3393620D01*
X14175960Y-8993620D02*
X6275960Y-8993620D01*
X14475960Y-3693620D02*
X14475960Y-8693620D01*
X5975960Y-3693620D02*
G75*
G02*
X6275960Y-3393620I300000J0D01*
G01*
X6275960Y-8993620D02*
G75*
G02*
X5975960Y-8693620I0J300000D01*
G01*
X14175960Y-3393620D02*
G75*
G02*
X14475960Y-3693620I0J-300000D01*
G01*
X14475960Y-8693620D02*
G75*
G02*
X14175960Y-8993620I-300000J0D01*
G01*
X8427800Y-5125720D02*
G75*
G02*
X8183800Y-5125720I-122000J0D01*
G01*
X8183800Y-5125720D02*
G75*
G02*
X8427800Y-5125720I122000J0D01*
G01*
X8935800Y-4617720D02*
G75*
G02*
X8691800Y-4617720I-122000J0D01*
G01*
X8691800Y-4617720D02*
G75*
G02*
X8935800Y-4617720I122000J0D01*
G01*
X7025720Y-5125720D02*
G75*
G02*
X6781720Y-5125720I-122000J0D01*
G01*
X6781720Y-5125720D02*
G75*
G02*
X7025720Y-5125720I122000J0D01*
G01*
X7533720Y-4617720D02*
G75*
G02*
X7289720Y-4617720I-122000J0D01*
G01*
X7289720Y-4617720D02*
G75*
G02*
X7533720Y-4617720I122000J0D01*
G01*
X7025580Y-7419120D02*
G75*
G02*
X6781580Y-7419120I-122000J0D01*
G01*
X6781580Y-7419120D02*
G75*
G02*
X7025580Y-7419120I122000J0D01*
G01*
X7533580Y-6911120D02*
G75*
G02*
X7289580Y-6911120I-122000J0D01*
G01*
X7289580Y-6911120D02*
G75*
G02*
X7533580Y-6911120I122000J0D01*
G01*
X8427660Y-7420040D02*
G75*
G02*
X8183660Y-7420040I-122000J0D01*
G01*
X8183660Y-7420040D02*
G75*
G02*
X8427660Y-7420040I122000J0D01*
G01*
X8935660Y-6912040D02*
G75*
G02*
X8691660Y-6912040I-122000J0D01*
G01*
X8691660Y-6912040D02*
G75*
G02*
X8935660Y-6912040I122000J0D01*
G01*
D11*
D12*
X6743940Y-8518600D02*
X6773940Y-8548600D01*
X6773940Y-8518600D02*
X6743940Y-8548600D01*
X6750360Y-8203640D02*
X6780360Y-8233640D01*
X6780360Y-8203640D02*
X6750360Y-8233640D01*
X6869300Y-8630360D02*
X6899300Y-8660360D01*
X6899300Y-8630360D02*
X6869300Y-8660360D01*
X6872109Y-8830560D02*
X6902109Y-8860560D01*
X6902109Y-8830560D02*
X6872109Y-8860560D01*
X6917182Y-8464605D02*
X6947182Y-8494605D01*
X6947182Y-8464605D02*
X6917182Y-8494605D01*
X6922335Y-8545754D02*
X6952335Y-8575754D01*
X6952335Y-8545754D02*
X6922335Y-8575754D01*
X6993940Y-8729240D02*
X7023940Y-8759240D01*
X7023940Y-8729240D02*
X6993940Y-8759240D01*
X7141880Y-4619580D02*
X7171880Y-4649580D01*
X7171880Y-4619580D02*
X7141880Y-4649580D01*
X7147800Y-4958320D02*
X7177800Y-4988320D01*
X7177800Y-4958320D02*
X7147800Y-4988320D01*
X7204500Y-7996980D02*
X7234500Y-8026980D01*
X7234500Y-7996980D02*
X7204500Y-8026980D01*
X7229106Y-8809771D02*
X7259106Y-8839771D01*
X7259106Y-8809771D02*
X7229106Y-8839771D01*
X7310550Y-8810700D02*
X7340550Y-8840700D01*
X7340550Y-8810700D02*
X7310550Y-8840700D01*
X7323940Y-8339240D02*
X7353940Y-8369240D01*
X7353940Y-8339240D02*
X7323940Y-8369240D01*
X7333940Y-8589240D02*
X7363940Y-8619240D01*
X7363940Y-8589240D02*
X7333940Y-8619240D01*
X7383940Y-8029240D02*
X7413940Y-8059240D01*
X7413940Y-8029240D02*
X7383940Y-8059240D01*
X7383940Y-8119240D02*
X7413940Y-8149240D01*
X7413940Y-8119240D02*
X7383940Y-8149240D01*
X7383940Y-8209240D02*
X7413940Y-8239240D01*
X7413940Y-8209240D02*
X7383940Y-8239240D01*
X7483940Y-8029240D02*
X7513940Y-8059240D01*
X7513940Y-8029240D02*
X7483940Y-8059240D01*
X7483940Y-8119240D02*
X7513940Y-8149240D01*
X7513940Y-8119240D02*
X7483940Y-8149240D01*
X7483940Y-8209240D02*
X7513940Y-8239240D01*
X7513940Y-8209240D02*
X7483940Y-8239240D01*
X7483940Y-8309240D02*
X7513940Y-8339240D01*
X7513940Y-8309240D02*
X7483940Y-8339240D01*
X7570450Y-8859240D02*
X7600450Y-8889240D01*
X7600450Y-8859240D02*
X7570450Y-8889240D01*
X7574006Y-8414935D02*
X7604006Y-8444935D01*
X7604006Y-8414935D02*
X7574006Y-8444935D01*
X7583940Y-8029240D02*
X7613940Y-8059240D01*
X7613940Y-8029240D02*
X7583940Y-8059240D01*
X7583940Y-8119240D02*
X7613940Y-8149240D01*
X7613940Y-8119240D02*
X7583940Y-8149240D01*
X7583940Y-8209240D02*
X7613940Y-8239240D01*
X7613940Y-8209240D02*
X7583940Y-8239240D01*
X7583940Y-8309240D02*
X7613940Y-8339240D01*
X7613940Y-8309240D02*
X7583940Y-8339240D01*
X7641340Y-6245590D02*
X7671340Y-6275590D01*
X7671340Y-6245590D02*
X7641340Y-6275590D01*
X7677112Y-8859300D02*
X7707112Y-8889300D01*
X7707112Y-8859300D02*
X7677112Y-8889300D01*
X7678798Y-3972662D02*
X7708798Y-4002662D01*
X7708798Y-3972662D02*
X7678798Y-4002662D01*
X7693940Y-8159240D02*
X7723940Y-8189240D01*
X7723940Y-8159240D02*
X7693940Y-8189240D01*
X7693940Y-8259240D02*
X7723940Y-8289240D01*
X7723940Y-8259240D02*
X7693940Y-8289240D01*
X7693940Y-8359240D02*
X7723940Y-8389240D01*
X7723940Y-8359240D02*
X7693940Y-8389240D01*
X7793940Y-8159240D02*
X7823940Y-8189240D01*
X7823940Y-8159240D02*
X7793940Y-8189240D01*
X7793940Y-8259240D02*
X7823940Y-8289240D01*
X7823940Y-8259240D02*
X7793940Y-8289240D01*
X7793940Y-8359240D02*
X7823940Y-8389240D01*
X7823940Y-8359240D02*
X7793940Y-8389240D01*
X7793940Y-8459240D02*
X7823940Y-8489240D01*
X7823940Y-8459240D02*
X7793940Y-8489240D01*
X7919960Y-6497560D02*
X7949960Y-6527560D01*
X7949960Y-6497560D02*
X7919960Y-6527560D01*
X8064911Y-5011660D02*
X8094911Y-5041660D01*
X8094911Y-5011660D02*
X8064911Y-5041660D01*
X8135204Y-8516060D02*
X8165204Y-8546060D01*
X8165204Y-8516060D02*
X8135204Y-8546060D01*
X8141625Y-8201100D02*
X8171625Y-8231100D01*
X8171625Y-8201100D02*
X8141625Y-8231100D01*
X8194280Y-6893298D02*
X8224280Y-6923298D01*
X8224280Y-6893298D02*
X8194280Y-6923298D01*
X8260564Y-8627820D02*
X8290564Y-8657820D01*
X8290564Y-8627820D02*
X8260564Y-8657820D01*
X8263373Y-8828020D02*
X8293373Y-8858020D01*
X8293373Y-8828020D02*
X8263373Y-8858020D01*
X8301685Y-8459097D02*
X8331685Y-8489097D01*
X8331685Y-8459097D02*
X8301685Y-8489097D01*
X8318573Y-8537360D02*
X8348573Y-8567360D01*
X8348573Y-8537360D02*
X8318573Y-8567360D01*
X8336520Y-6738370D02*
X8366520Y-6768370D01*
X8366520Y-6738370D02*
X8336520Y-6768370D01*
X8385204Y-8726700D02*
X8415205Y-8756700D01*
X8415205Y-8726700D02*
X8385204Y-8756700D01*
X8532576Y-5194065D02*
X8562576Y-5224065D01*
X8562576Y-5194065D02*
X8532576Y-5224065D01*
X8536481Y-5113187D02*
X8566481Y-5143187D01*
X8566481Y-5113187D02*
X8536481Y-5143187D01*
X8537180Y-5288520D02*
X8567180Y-5318520D01*
X8567180Y-5288520D02*
X8537180Y-5318520D01*
X8594668Y-8017183D02*
X8624668Y-8047183D01*
X8624668Y-8017183D02*
X8594668Y-8047183D01*
X8620371Y-8807231D02*
X8650371Y-8837231D01*
X8650371Y-8807231D02*
X8620371Y-8837231D01*
X8701815Y-8808160D02*
X8731815Y-8838160D01*
X8731815Y-8808160D02*
X8701815Y-8838160D01*
X8715205Y-8336700D02*
X8745205Y-8366700D01*
X8745205Y-8336700D02*
X8715205Y-8366700D01*
X8725205Y-8586700D02*
X8755205Y-8616700D01*
X8755205Y-8586700D02*
X8725205Y-8616700D01*
X8770147Y-6309982D02*
X8800147Y-6339982D01*
X8800147Y-6309982D02*
X8770147Y-6339982D01*
X8775205Y-8026700D02*
X8805205Y-8056700D01*
X8805205Y-8026700D02*
X8775205Y-8056700D01*
X8775205Y-8116700D02*
X8805205Y-8146700D01*
X8805205Y-8116700D02*
X8775205Y-8146700D01*
X8775205Y-8206700D02*
X8805205Y-8236700D01*
X8805205Y-8206700D02*
X8775205Y-8236700D01*
X8806722Y-6099968D02*
X8836722Y-6129968D01*
X8836722Y-6099968D02*
X8806722Y-6129968D01*
X8859467Y-6191700D02*
X8889467Y-6221700D01*
X8889467Y-6191700D02*
X8859467Y-6221700D01*
X8874593Y-4829187D02*
X8904593Y-4859187D01*
X8904593Y-4829187D02*
X8874593Y-4859187D01*
X8875205Y-8026700D02*
X8905205Y-8056700D01*
X8905205Y-8026700D02*
X8875205Y-8056700D01*
X8875205Y-8116700D02*
X8905205Y-8146700D01*
X8905205Y-8116700D02*
X8875205Y-8146700D01*
X8875205Y-8206700D02*
X8905205Y-8236700D01*
X8905205Y-8206700D02*
X8875205Y-8236700D01*
X8875205Y-8306700D02*
X8905205Y-8336700D01*
X8905205Y-8306700D02*
X8875205Y-8336700D01*
X8913100Y-6256650D02*
X8943100Y-6286650D01*
X8943100Y-6256650D02*
X8913100Y-6286650D01*
X8920789Y-6498610D02*
X8950789Y-6528610D01*
X8950789Y-6498610D02*
X8920789Y-6528610D01*
X8961715Y-8856700D02*
X8991715Y-8886700D01*
X8991715Y-8856700D02*
X8961715Y-8886700D01*
X8964184Y-8411983D02*
X8994184Y-8441983D01*
X8994184Y-8411983D02*
X8964184Y-8441983D01*
X8975205Y-8026700D02*
X9005205Y-8056700D01*
X9005205Y-8026700D02*
X8975205Y-8056700D01*
X8975205Y-8116700D02*
X9005205Y-8146700D01*
X9005205Y-8116700D02*
X8975205Y-8146700D01*
X8975205Y-8206700D02*
X9005205Y-8236700D01*
X9005205Y-8206700D02*
X8975205Y-8236700D01*
X8975205Y-8306700D02*
X9005205Y-8336700D01*
X9005205Y-8306700D02*
X8975205Y-8336700D01*
X9047278Y-4843622D02*
X9077278Y-4873622D01*
X9077278Y-4843622D02*
X9047278Y-4873622D01*
X9073120Y-8875000D02*
X9103120Y-8905000D01*
X9103120Y-8875000D02*
X9073120Y-8905000D01*
X9085205Y-8156700D02*
X9115205Y-8186700D01*
X9115205Y-8156700D02*
X9085205Y-8186700D01*
X9085205Y-8256700D02*
X9115205Y-8286700D01*
X9115205Y-8256700D02*
X9085205Y-8286700D01*
X9085205Y-8356700D02*
X9115205Y-8386700D01*
X9115205Y-8356700D02*
X9085205Y-8386700D01*
X9156940Y-4998960D02*
X9186940Y-5028960D01*
X9186940Y-4998960D02*
X9156940Y-5028960D01*
X9181593Y-5194392D02*
X9211593Y-5224392D01*
X9211593Y-5194392D02*
X9181593Y-5224392D01*
X9185205Y-8156700D02*
X9215205Y-8186700D01*
X9215205Y-8156700D02*
X9185205Y-8186700D01*
X9185205Y-8256700D02*
X9215205Y-8286700D01*
X9215205Y-8256700D02*
X9185205Y-8286700D01*
X9185205Y-8356700D02*
X9215205Y-8386700D01*
X9215205Y-8356700D02*
X9185205Y-8386700D01*
X9185205Y-8456700D02*
X9215205Y-8486700D01*
X9215205Y-8456700D02*
X9185205Y-8486700D01*
X9212196Y-5325970D02*
X9242196Y-5355970D01*
X9242196Y-5325970D02*
X9212196Y-5355970D01*
X9283940Y-5200950D02*
X9313940Y-5230950D01*
X9313940Y-5200950D02*
X9283940Y-5230950D01*
X9384797Y-5363977D02*
X9414797Y-5393977D01*
X9414797Y-5363977D02*
X9384797Y-5393977D01*
X9478350Y-4956820D02*
X9508350Y-4986820D01*
X9508350Y-4956820D02*
X9478350Y-4986820D01*
X9478450Y-4292420D02*
X9508450Y-4322420D01*
X9508450Y-4292420D02*
X9478450Y-4322420D01*
X9478450Y-4514920D02*
X9508450Y-4544920D01*
X9508450Y-4514920D02*
X9478450Y-4544920D01*
X9478450Y-5177420D02*
X9508450Y-5207420D01*
X9508450Y-5177420D02*
X9478450Y-5207420D01*
X9485663Y-6333523D02*
X9515663Y-6363523D01*
X9515663Y-6333523D02*
X9485663Y-6363523D01*
X9528116Y-8513520D02*
X9558116Y-8543520D01*
X9558116Y-8513520D02*
X9528116Y-8543520D01*
X9534536Y-8198560D02*
X9564536Y-8228560D01*
X9564536Y-8198560D02*
X9534536Y-8228560D01*
X9569230Y-5824460D02*
X9599230Y-5854460D01*
X9599230Y-5824460D02*
X9569230Y-5854460D01*
X9634050Y-4387120D02*
X9664050Y-4417120D01*
X9664050Y-4387120D02*
X9634050Y-4417120D01*
X9648530Y-6327411D02*
X9678530Y-6357411D01*
X9678530Y-6327411D02*
X9648530Y-6357411D01*
X9653476Y-8625280D02*
X9683476Y-8655280D01*
X9683476Y-8625280D02*
X9653476Y-8655280D01*
X9656284Y-8825480D02*
X9686284Y-8855480D01*
X9686284Y-8825480D02*
X9656284Y-8855480D01*
X9672998Y-5832282D02*
X9702998Y-5862282D01*
X9702998Y-5832282D02*
X9672998Y-5862282D01*
X9697517Y-8457151D02*
X9727517Y-8487151D01*
X9727517Y-8457151D02*
X9697517Y-8487151D01*
X9697960Y-7462760D02*
X9727960Y-7492760D01*
X9727960Y-7462760D02*
X9697960Y-7492760D01*
X9710126Y-8537585D02*
X9740126Y-8567585D01*
X9740126Y-8537585D02*
X9710126Y-8567585D01*
X9756380Y-5805590D02*
X9786380Y-5835590D01*
X9786380Y-5805590D02*
X9756380Y-5835590D01*
X9778116Y-8724160D02*
X9808116Y-8754160D01*
X9808116Y-8724160D02*
X9778116Y-8754160D01*
X9822420Y-4704320D02*
X9852420Y-4734320D01*
X9852420Y-4704320D02*
X9822420Y-4734320D01*
X9845414Y-6459255D02*
X9875414Y-6489255D01*
X9875414Y-6459255D02*
X9845414Y-6489255D01*
X9888050Y-5117120D02*
X9918050Y-5147120D01*
X9918050Y-5117120D02*
X9888050Y-5147120D01*
X9948000Y-4706860D02*
X9978000Y-4736860D01*
X9978000Y-4706860D02*
X9948000Y-4736860D01*
X9951092Y-5618084D02*
X9981092Y-5648084D01*
X9981092Y-5618084D02*
X9951092Y-5648084D01*
X9968367Y-6412573D02*
X9998367Y-6442573D01*
X9998367Y-6412573D02*
X9968367Y-6442573D01*
X9974820Y-3755890D02*
X10004820Y-3785890D01*
X10004820Y-3755890D02*
X9974820Y-3785890D01*
X9986559Y-6494471D02*
X10016559Y-6524471D01*
X10016559Y-6494471D02*
X9986559Y-6524471D01*
X9987579Y-8014643D02*
X10017579Y-8044643D01*
X10017579Y-8014643D02*
X9987579Y-8044643D01*
X9995140Y-5539471D02*
X10025140Y-5569471D01*
X10025140Y-5539471D02*
X9995140Y-5569471D01*
X10013282Y-8804691D02*
X10043282Y-8834691D01*
X10043282Y-8804691D02*
X10013282Y-8834691D01*
X10015050Y-5117120D02*
X10045050Y-5147120D01*
X10045050Y-5117120D02*
X10015050Y-5147120D01*
X10094726Y-8805620D02*
X10124726Y-8835620D01*
X10124726Y-8805620D02*
X10094726Y-8835620D01*
X10108116Y-8334160D02*
X10138116Y-8364160D01*
X10138116Y-8334160D02*
X10108116Y-8364160D01*
X10118116Y-8584160D02*
X10148116Y-8614160D01*
X10148116Y-8584160D02*
X10118116Y-8614160D01*
X10168116Y-8024160D02*
X10198116Y-8054160D01*
X10198116Y-8024160D02*
X10168116Y-8054160D01*
X10168116Y-8114160D02*
X10198116Y-8144160D01*
X10198116Y-8114160D02*
X10168116Y-8144160D01*
X10168116Y-8204160D02*
X10198116Y-8234160D01*
X10198116Y-8204160D02*
X10168116Y-8234160D01*
X10196990Y-5327810D02*
X10226990Y-5357810D01*
X10226990Y-5327810D02*
X10196990Y-5357810D01*
X10238669Y-6073117D02*
X10268669Y-6103117D01*
X10268669Y-6073117D02*
X10238669Y-6103117D01*
X10238980Y-5781280D02*
X10268980Y-5811280D01*
X10268980Y-5781280D02*
X10238980Y-5811280D01*
X10244060Y-4666220D02*
X10274060Y-4696220D01*
X10274060Y-4666220D02*
X10244060Y-4696220D01*
X10244398Y-5580620D02*
X10274398Y-5610620D01*
X10274398Y-5580620D02*
X10244398Y-5610620D01*
X10254220Y-7163040D02*
X10284220Y-7193040D01*
X10284220Y-7163040D02*
X10254220Y-7193040D01*
X10268116Y-8024160D02*
X10298116Y-8054160D01*
X10298116Y-8024160D02*
X10268116Y-8054160D01*
X10268116Y-8114160D02*
X10298116Y-8144160D01*
X10298116Y-8114160D02*
X10268116Y-8144160D01*
X10268116Y-8204160D02*
X10298116Y-8234160D01*
X10298116Y-8204160D02*
X10268116Y-8234160D01*
X10268116Y-8304160D02*
X10298116Y-8334160D01*
X10298116Y-8304160D02*
X10268116Y-8334160D01*
X10276597Y-6576783D02*
X10306597Y-6606783D01*
X10306597Y-6576783D02*
X10276597Y-6606783D01*
X10292260Y-4453810D02*
X10322260Y-4483810D01*
X10322260Y-4453810D02*
X10292260Y-4483810D01*
X10309348Y-5511702D02*
X10339348Y-5541702D01*
X10339348Y-5511702D02*
X10309348Y-5541702D01*
X10310100Y-5733020D02*
X10340100Y-5763020D01*
X10340100Y-5733020D02*
X10310100Y-5763020D01*
X10327880Y-6964920D02*
X10357880Y-6994920D01*
X10357880Y-6964920D02*
X10327880Y-6994920D01*
X10347609Y-5904441D02*
X10377609Y-5934441D01*
X10377609Y-5904441D02*
X10347609Y-5934441D01*
X10353280Y-6141960D02*
X10383280Y-6171960D01*
X10383280Y-6141960D02*
X10353280Y-6171960D01*
X10354626Y-8854160D02*
X10384626Y-8884160D01*
X10384626Y-8854160D02*
X10354626Y-8884160D01*
X10356557Y-8409239D02*
X10386557Y-8439239D01*
X10386557Y-8409239D02*
X10356557Y-8439239D01*
X10368116Y-8024160D02*
X10398116Y-8054160D01*
X10398116Y-8024160D02*
X10368116Y-8054160D01*
X10368116Y-8114160D02*
X10398116Y-8144160D01*
X10398116Y-8114160D02*
X10368116Y-8144160D01*
X10368116Y-8204160D02*
X10398116Y-8234160D01*
X10398116Y-8204160D02*
X10368116Y-8234160D01*
X10368116Y-8304160D02*
X10398116Y-8334160D01*
X10398116Y-8304160D02*
X10368116Y-8334160D01*
X10371269Y-6625801D02*
X10401269Y-6655801D01*
X10401269Y-6625801D02*
X10371269Y-6655801D01*
X10393920Y-7305280D02*
X10423920Y-7335280D01*
X10423920Y-7305280D02*
X10393920Y-7335280D01*
X10403783Y-5420511D02*
X10433783Y-5450511D01*
X10433783Y-5420511D02*
X10403783Y-5450511D01*
X10439106Y-6046681D02*
X10469106Y-6076681D01*
X10469106Y-6046681D02*
X10439106Y-6076681D01*
X10444720Y-4233684D02*
X10474720Y-4263684D01*
X10474720Y-4233684D02*
X10444720Y-4263684D01*
X10464816Y-5106426D02*
X10494816Y-5136426D01*
X10494816Y-5106426D02*
X10464816Y-5136426D01*
X10465040Y-8877540D02*
X10495040Y-8907540D01*
X10495040Y-8877540D02*
X10465040Y-8907540D01*
X10467540Y-4900300D02*
X10497540Y-4930300D01*
X10497540Y-4900300D02*
X10467540Y-4930300D01*
X10469860Y-4526800D02*
X10499860Y-4556800D01*
X10499860Y-4526800D02*
X10469860Y-4556800D01*
X10477740Y-5475061D02*
X10507740Y-5505061D01*
X10507740Y-5475061D02*
X10477740Y-5505061D01*
X10478116Y-8154160D02*
X10508116Y-8184160D01*
X10508116Y-8154160D02*
X10478116Y-8184160D01*
X10478116Y-8254160D02*
X10508116Y-8284160D01*
X10508116Y-8254160D02*
X10478116Y-8284160D01*
X10478116Y-8354160D02*
X10508116Y-8384160D01*
X10508116Y-8354160D02*
X10478116Y-8384160D01*
X10484769Y-6625801D02*
X10514769Y-6655801D01*
X10514769Y-6625801D02*
X10484769Y-6655801D01*
X10498060Y-7838680D02*
X10528060Y-7868680D01*
X10528060Y-7838680D02*
X10498060Y-7868680D01*
X10535931Y-7953784D02*
X10565931Y-7983784D01*
X10565931Y-7953784D02*
X10535931Y-7983784D01*
X10557540Y-4895300D02*
X10587540Y-4925300D01*
X10587540Y-4895300D02*
X10557540Y-4925300D01*
X10559860Y-4521800D02*
X10589860Y-4551800D01*
X10589860Y-4521800D02*
X10559860Y-4551800D01*
X10578116Y-8154160D02*
X10608116Y-8184160D01*
X10608116Y-8154160D02*
X10578116Y-8184160D01*
X10578116Y-8254160D02*
X10608116Y-8284160D01*
X10608116Y-8254160D02*
X10578116Y-8284160D01*
X10578116Y-8354160D02*
X10608116Y-8384160D01*
X10608116Y-8354160D02*
X10578116Y-8384160D01*
X10578116Y-8454160D02*
X10608116Y-8484160D01*
X10608116Y-8454160D02*
X10578116Y-8484160D01*
X10589500Y-6540740D02*
X10619500Y-6570740D01*
X10619500Y-6540740D02*
X10589500Y-6570740D01*
X10611297Y-5632510D02*
X10641297Y-5662510D01*
X10641297Y-5632510D02*
X10611297Y-5662510D01*
X10614040Y-5543362D02*
X10644040Y-5573362D01*
X10644040Y-5543362D02*
X10614040Y-5573362D01*
X10634629Y-6357651D02*
X10664629Y-6387651D01*
X10664629Y-6357651D02*
X10634629Y-6387651D01*
X10650189Y-5113990D02*
X10680189Y-5143990D01*
X10680189Y-5113990D02*
X10650189Y-5143990D01*
X10682540Y-4895300D02*
X10712540Y-4925300D01*
X10712540Y-4895300D02*
X10682540Y-4925300D01*
X10682540Y-4990300D02*
X10712540Y-5020300D01*
X10712540Y-4990300D02*
X10682540Y-5020300D01*
X10684860Y-4521800D02*
X10714860Y-4551800D01*
X10714860Y-4521800D02*
X10684860Y-4551800D01*
X10684860Y-4616800D02*
X10714860Y-4646800D01*
X10714860Y-4616800D02*
X10684860Y-4646800D01*
X10696180Y-7246860D02*
X10726180Y-7276860D01*
X10726180Y-7246860D02*
X10696180Y-7276860D01*
X10763257Y-7331008D02*
X10793257Y-7361008D01*
X10793257Y-7331008D02*
X10763257Y-7361008D01*
X10772592Y-5454131D02*
X10802592Y-5484131D01*
X10802592Y-5454131D02*
X10772592Y-5484131D01*
X10780725Y-8113481D02*
X10810725Y-8143481D01*
X10810725Y-8113481D02*
X10780725Y-8143481D01*
X10830130Y-8539050D02*
X10860130Y-8569050D01*
X10860130Y-8539050D02*
X10830130Y-8569050D01*
X10838533Y-5499340D02*
X10868533Y-5529340D01*
X10868533Y-5499340D02*
X10838533Y-5529340D01*
X10860689Y-5702981D02*
X10890689Y-5732981D01*
X10890689Y-5702981D02*
X10860689Y-5732981D01*
X10903338Y-5106772D02*
X10933338Y-5136772D01*
X10933338Y-5106772D02*
X10903338Y-5136772D01*
X10903483Y-5429461D02*
X10933483Y-5459461D01*
X10933483Y-5429461D02*
X10903483Y-5459461D01*
X10919700Y-5979400D02*
X10949700Y-6009400D01*
X10949700Y-5979400D02*
X10919700Y-6009400D01*
X10941210Y-4524740D02*
X10971210Y-4554740D01*
X10971210Y-4524740D02*
X10941210Y-4554740D01*
X10941430Y-4900540D02*
X10971430Y-4930540D01*
X10971430Y-4900540D02*
X10941430Y-4930540D01*
X10964829Y-6422601D02*
X10994829Y-6452601D01*
X10994829Y-6422601D02*
X10964829Y-6452601D01*
X10988533Y-7326841D02*
X11018533Y-7356841D01*
X11018533Y-7326841D02*
X10988533Y-7356841D01*
X10995900Y-3779684D02*
X11025900Y-3809684D01*
X11025900Y-3779684D02*
X10995900Y-3809684D01*
X11003225Y-8818195D02*
X11033225Y-8848195D01*
X11033225Y-8818195D02*
X11003225Y-8848195D01*
X11023249Y-5848511D02*
X11053249Y-5878511D01*
X11053249Y-5848511D02*
X11023249Y-5878511D01*
X11031210Y-4519740D02*
X11061210Y-4549740D01*
X11061210Y-4519740D02*
X11031210Y-4549740D01*
X11031430Y-4895540D02*
X11061430Y-4925540D01*
X11061430Y-4895540D02*
X11031430Y-4925540D01*
X11031460Y-8267940D02*
X11061460Y-8297940D01*
X11061460Y-8267940D02*
X11031460Y-8297940D01*
X11038533Y-6956001D02*
X11068533Y-6986001D01*
X11068533Y-6956001D02*
X11038533Y-6986001D01*
X11094960Y-5184380D02*
X11124960Y-5214380D01*
X11124960Y-5184380D02*
X11094960Y-5214380D01*
X11109609Y-6884668D02*
X11139609Y-6914668D01*
X11139609Y-6884668D02*
X11109609Y-6914668D01*
X11115280Y-8262860D02*
X11145280Y-8292860D01*
X11145280Y-8262860D02*
X11115280Y-8292860D01*
X11117820Y-8181580D02*
X11147820Y-8211580D01*
X11147820Y-8181580D02*
X11117820Y-8211580D01*
X11150395Y-7704505D02*
X11180395Y-7734505D01*
X11180395Y-7704505D02*
X11150395Y-7734505D01*
X11156210Y-4519740D02*
X11186210Y-4549740D01*
X11186210Y-4519740D02*
X11156210Y-4549740D01*
X11156210Y-4614740D02*
X11186210Y-4644740D01*
X11186210Y-4614740D02*
X11156210Y-4644740D01*
X11156430Y-4895540D02*
X11186430Y-4925540D01*
X11186430Y-4895540D02*
X11156430Y-4925540D01*
X11156430Y-4990540D02*
X11186430Y-5020540D01*
X11186430Y-4990540D02*
X11156430Y-5020540D01*
X11157977Y-6297383D02*
X11187977Y-6327383D01*
X11187977Y-6297383D02*
X11157977Y-6327383D01*
X11169630Y-4813590D02*
X11199630Y-4843590D01*
X11199630Y-4813590D02*
X11169630Y-4843590D01*
X11178780Y-5189460D02*
X11208780Y-5219460D01*
X11208780Y-5189460D02*
X11178780Y-5219460D01*
X11181320Y-5471400D02*
X11211320Y-5501400D01*
X11211320Y-5471400D02*
X11181320Y-5501400D01*
X11188551Y-7281571D02*
X11218551Y-7311571D01*
X11218551Y-7281571D02*
X11188551Y-7311571D01*
X11191480Y-6774420D02*
X11221480Y-6804420D01*
X11221480Y-6774420D02*
X11191480Y-6804420D01*
X11195969Y-7072381D02*
X11225969Y-7102381D01*
X11225969Y-7072381D02*
X11195969Y-7102381D01*
X11202638Y-8180582D02*
X11232638Y-8210582D01*
X11232638Y-8180582D02*
X11202638Y-8210582D01*
X11212996Y-8101306D02*
X11242996Y-8131306D01*
X11242996Y-8101306D02*
X11212996Y-8131306D01*
X11214340Y-5961620D02*
X11244340Y-5991620D01*
X11244340Y-5961620D02*
X11214340Y-5991620D01*
X11218175Y-6357651D02*
X11248175Y-6387651D01*
X11248175Y-6357651D02*
X11218175Y-6387651D01*
X11221960Y-7759940D02*
X11251960Y-7789940D01*
X11251960Y-7759940D02*
X11221960Y-7789940D01*
X11252339Y-5645311D02*
X11282339Y-5675311D01*
X11282339Y-5645311D02*
X11252339Y-5675311D01*
X11265140Y-5072620D02*
X11295140Y-5102620D01*
X11295140Y-5072620D02*
X11265140Y-5102620D01*
X11274575Y-7319795D02*
X11304575Y-7349795D01*
X11304575Y-7319795D02*
X11274575Y-7349795D01*
X11278125Y-8618460D02*
X11308125Y-8648460D01*
X11308125Y-8618460D02*
X11278125Y-8648460D01*
X11280708Y-8521612D02*
X11310708Y-8551612D01*
X11310708Y-8521612D02*
X11280708Y-8551612D01*
X11296752Y-8100280D02*
X11326752Y-8130280D01*
X11326752Y-8100280D02*
X11296752Y-8130280D01*
X11302626Y-7807953D02*
X11332626Y-7837953D01*
X11332626Y-7807953D02*
X11302626Y-7837953D01*
X11303240Y-6665200D02*
X11333240Y-6695200D01*
X11333240Y-6665200D02*
X11303240Y-6695200D01*
X11303240Y-8016480D02*
X11333240Y-8046480D01*
X11333240Y-8016480D02*
X11303240Y-8046480D01*
X11363433Y-7631308D02*
X11393433Y-7661308D01*
X11393433Y-7631308D02*
X11363433Y-7661308D01*
X11384229Y-7185881D02*
X11414229Y-7215881D01*
X11414229Y-7185881D02*
X11384229Y-7215881D01*
X11389708Y-8020706D02*
X11419708Y-8050706D01*
X11419708Y-8020706D02*
X11389708Y-8050706D01*
X11391639Y-5947621D02*
X11421639Y-5977621D01*
X11421639Y-5947621D02*
X11391639Y-5977621D01*
X11393219Y-6413561D02*
X11423219Y-6443561D01*
X11423219Y-6413561D02*
X11393219Y-6443561D01*
X11395985Y-7816530D02*
X11425985Y-7846530D01*
X11425985Y-7816530D02*
X11395985Y-7846530D01*
X11402300Y-7937740D02*
X11432300Y-7967740D01*
X11432300Y-7937740D02*
X11402300Y-7967740D01*
X11413491Y-5742085D02*
X11443491Y-5772085D01*
X11443491Y-5742085D02*
X11413491Y-5772085D01*
X11452803Y-5439621D02*
X11482803Y-5469621D01*
X11482803Y-5439621D02*
X11452803Y-5469621D01*
X11452803Y-5559121D02*
X11482803Y-5589121D01*
X11482803Y-5559121D02*
X11452803Y-5589121D01*
X11494344Y-7945001D02*
X11524344Y-7975001D01*
X11524344Y-7945001D02*
X11494344Y-7975001D01*
X11501360Y-6972540D02*
X11531360Y-7002540D01*
X11531360Y-6972540D02*
X11501360Y-7002540D01*
X11523579Y-8531459D02*
X11553579Y-8561459D01*
X11553579Y-8531459D02*
X11523579Y-8561459D01*
X11545535Y-4766825D02*
X11575535Y-4796825D01*
X11575535Y-4766825D02*
X11545535Y-4796825D01*
X11577560Y-5857480D02*
X11607560Y-5887480D01*
X11607560Y-5857480D02*
X11577560Y-5887480D01*
X11582640Y-8118080D02*
X11612640Y-8148080D01*
X11612640Y-8118080D02*
X11582640Y-8148080D01*
X11589169Y-6664399D02*
X11619169Y-6694399D01*
X11619169Y-6664399D02*
X11589169Y-6694399D01*
X11603478Y-5458700D02*
X11633478Y-5488700D01*
X11633478Y-5458700D02*
X11603478Y-5488700D01*
X11639790Y-8254383D02*
X11669790Y-8284383D01*
X11669790Y-8254383D02*
X11639790Y-8284383D01*
X11694400Y-5702540D02*
X11724400Y-5732540D01*
X11724400Y-5702540D02*
X11694400Y-5732540D01*
X11704560Y-5446000D02*
X11734560Y-5476000D01*
X11734560Y-5446000D02*
X11704560Y-5476000D01*
X11717260Y-8288260D02*
X11747260Y-8318260D01*
X11747260Y-8288260D02*
X11717260Y-8318260D01*
X11718587Y-6424013D02*
X11748587Y-6454013D01*
X11748587Y-6424013D02*
X11718587Y-6454013D01*
X11750280Y-5181840D02*
X11780280Y-5211840D01*
X11780280Y-5181840D02*
X11750280Y-5211840D01*
X11765520Y-6616940D02*
X11795520Y-6646940D01*
X11795520Y-6616940D02*
X11765520Y-6646940D01*
X11770600Y-8349220D02*
X11800600Y-8379220D01*
X11800600Y-8349220D02*
X11770600Y-8379220D01*
X11771751Y-6354649D02*
X11801751Y-6384649D01*
X11801751Y-6354649D02*
X11771751Y-6384649D01*
X11796000Y-5556310D02*
X11826000Y-5586310D01*
X11826000Y-5556310D02*
X11796000Y-5586310D01*
X11826594Y-5136234D02*
X11856594Y-5166234D01*
X11856594Y-5136234D02*
X11826594Y-5166234D01*
X11843907Y-7296290D02*
X11873907Y-7326290D01*
X11873907Y-7296290D02*
X11843907Y-7326290D01*
X11877029Y-6273861D02*
X11907029Y-6303861D01*
X11907029Y-6273861D02*
X11877029Y-6303861D01*
X11902680Y-6789660D02*
X11932680Y-6819660D01*
X11932680Y-6789660D02*
X11902680Y-6819660D01*
X11915380Y-5430760D02*
X11945380Y-5460760D01*
X11945380Y-5430760D02*
X11915380Y-5460760D01*
X11943320Y-5664440D02*
X11973320Y-5694440D01*
X11973320Y-5664440D02*
X11943320Y-5694440D01*
X11953480Y-5141200D02*
X11983480Y-5171200D01*
X11983480Y-5141200D02*
X11953480Y-5171200D01*
X11954650Y-8308892D02*
X11984650Y-8338892D01*
X11984650Y-8308892D02*
X11954650Y-8338892D01*
X12011309Y-5425591D02*
X12041309Y-5455591D01*
X12041309Y-5425591D02*
X12011309Y-5455591D01*
X12014299Y-7219061D02*
X12044299Y-7249061D01*
X12044299Y-7219061D02*
X12014299Y-7249061D01*
X12027140Y-5184380D02*
X12057140Y-5214380D01*
X12057140Y-5184380D02*
X12027140Y-5214380D01*
X12054563Y-7321971D02*
X12084563Y-7351971D01*
X12084563Y-7321971D02*
X12054563Y-7351971D01*
X12080480Y-6451840D02*
X12110480Y-6481840D01*
X12110480Y-6451840D02*
X12080480Y-6481840D01*
X12105880Y-5626340D02*
X12135880Y-5656340D01*
X12135880Y-5626340D02*
X12105880Y-5656340D01*
X12108420Y-5428220D02*
X12138420Y-5458220D01*
X12138420Y-5428220D02*
X12108420Y-5458220D01*
X12117989Y-5528521D02*
X12147989Y-5558521D01*
X12147989Y-5528521D02*
X12117989Y-5558521D01*
X12118580Y-6154444D02*
X12148580Y-6184444D01*
X12148580Y-6154444D02*
X12118580Y-6184444D01*
X12121033Y-5739471D02*
X12151033Y-5769471D01*
X12151033Y-5739471D02*
X12121033Y-5769471D01*
X12123244Y-7004813D02*
X12153244Y-7034813D01*
X12153244Y-7004813D02*
X12123244Y-7034813D01*
X12131280Y-8158720D02*
X12161280Y-8188720D01*
X12161280Y-8158720D02*
X12131280Y-8188720D01*
X12200933Y-7269371D02*
X12230933Y-7299371D01*
X12230933Y-7269371D02*
X12200933Y-7299371D01*
X12200933Y-7353540D02*
X12230933Y-7383540D01*
X12230933Y-7353540D02*
X12200933Y-7383540D01*
X12205086Y-4217832D02*
X12235086Y-4247832D01*
X12235086Y-4217832D02*
X12205086Y-4247832D01*
X12207480Y-7442440D02*
X12237480Y-7472440D01*
X12237480Y-7442440D02*
X12207480Y-7472440D01*
X12244733Y-5489471D02*
X12274733Y-5519471D01*
X12274733Y-5489471D02*
X12244733Y-5519471D01*
X12265310Y-4157882D02*
X12295310Y-4187882D01*
X12295310Y-4157882D02*
X12265310Y-4187882D01*
X12265310Y-4277832D02*
X12295310Y-4307832D01*
X12295310Y-4277832D02*
X12265310Y-4307832D01*
X12265310Y-4437782D02*
X12295310Y-4467782D01*
X12295310Y-4437782D02*
X12265310Y-4467782D01*
X12362420Y-5614371D02*
X12392420Y-5644371D01*
X12392420Y-5614371D02*
X12362420Y-5644371D01*
X12397941Y-8360370D02*
X12427941Y-8390370D01*
X12427941Y-8360370D02*
X12397941Y-8390370D01*
X12409358Y-5737710D02*
X12439358Y-5767710D01*
X12439358Y-5737710D02*
X12409358Y-5767710D01*
X12443700Y-6384610D02*
X12473700Y-6414610D01*
X12473700Y-6384610D02*
X12443700Y-6414610D01*
X12444769Y-5602411D02*
X12474769Y-5632411D01*
X12474769Y-5602411D02*
X12444769Y-5632411D01*
X12480246Y-7729484D02*
X12510246Y-7759484D01*
X12510246Y-7729484D02*
X12480246Y-7759484D01*
X12525050Y-6384610D02*
X12555050Y-6414610D01*
X12555050Y-6384610D02*
X12525050Y-6414610D01*
X12567553Y-5652784D02*
X12597553Y-5682784D01*
X12597553Y-5652784D02*
X12567553Y-5682784D01*
X12596100Y-5788900D02*
X12626100Y-5818900D01*
X12626100Y-5788900D02*
X12596100Y-5818900D01*
X12608238Y-6358854D02*
X12638238Y-6388854D01*
X12638238Y-6358854D02*
X12608238Y-6388854D01*
X12608729Y-6267796D02*
X12638729Y-6297796D01*
X12638729Y-6267796D02*
X12608729Y-6297796D01*
X12639273Y-5712707D02*
X12669273Y-5742707D01*
X12669273Y-5712707D02*
X12639273Y-5742707D01*
X12690080Y-8326360D02*
X12720080Y-8356360D01*
X12720080Y-8326360D02*
X12690080Y-8356360D01*
X12711600Y-6970000D02*
X12741600Y-7000000D01*
X12741600Y-6970000D02*
X12711600Y-7000000D01*
X12734535Y-6359697D02*
X12764535Y-6389697D01*
X12764535Y-6359697D02*
X12734535Y-6389697D01*
X12743236Y-8263334D02*
X12773236Y-8293334D01*
X12773236Y-8263334D02*
X12743236Y-8293334D01*
X12756120Y-8184120D02*
X12786120Y-8214120D01*
X12786120Y-8184120D02*
X12756120Y-8214120D01*
X12839155Y-8187453D02*
X12869155Y-8217453D01*
X12869155Y-8187453D02*
X12839155Y-8217453D01*
X12850100Y-8105380D02*
X12880100Y-8135380D01*
X12880100Y-8105380D02*
X12850100Y-8135380D01*
X12872960Y-6388340D02*
X12902960Y-6418340D01*
X12902960Y-6388340D02*
X12872960Y-6418340D01*
X12875981Y-6470101D02*
X12905981Y-6500101D01*
X12905981Y-6470101D02*
X12875981Y-6500101D01*
X12877844Y-7717890D02*
X12907844Y-7747890D01*
X12907844Y-7717890D02*
X12877844Y-7747890D01*
X12882170Y-6195081D02*
X12912170Y-6225081D01*
X12912170Y-6195081D02*
X12882170Y-6225081D01*
X12903440Y-8534640D02*
X12933440Y-8564640D01*
X12933440Y-8534640D02*
X12903440Y-8564640D01*
X12912179Y-8626604D02*
X12942179Y-8656604D01*
X12942179Y-8626604D02*
X12912179Y-8656604D01*
X12936941Y-8107439D02*
X12966941Y-8137439D01*
X12966941Y-8107439D02*
X12936941Y-8137439D01*
X12946620Y-8024100D02*
X12976620Y-8054100D01*
X12976620Y-8024100D02*
X12946620Y-8054100D01*
X12961860Y-6472160D02*
X12991860Y-6502160D01*
X12991860Y-6472160D02*
X12961860Y-6502160D01*
X12964881Y-6553921D02*
X12994881Y-6583921D01*
X12994881Y-6553921D02*
X12964881Y-6583921D01*
X13030440Y-8529560D02*
X13060440Y-8559560D01*
X13060440Y-8529560D02*
X13030440Y-8559560D01*
X13038684Y-8031381D02*
X13068684Y-8061381D01*
X13068684Y-8031381D02*
X13038684Y-8061381D01*
X13043140Y-6576300D02*
X13073140Y-6606300D01*
X13073140Y-6576300D02*
X13043140Y-6606300D01*
X13043140Y-7947900D02*
X13073140Y-7977900D01*
X13073140Y-7947900D02*
X13043140Y-7977900D01*
X13053300Y-6657580D02*
X13083300Y-6687580D01*
X13083300Y-6657580D02*
X13053300Y-6687580D01*
X13126171Y-7946149D02*
X13156171Y-7976149D01*
X13156171Y-7946149D02*
X13126171Y-7976149D01*
X13132040Y-6672820D02*
X13162040Y-6702820D01*
X13162040Y-6672820D02*
X13132040Y-6702820D01*
X13147280Y-6751560D02*
X13177280Y-6781560D01*
X13177280Y-6751560D02*
X13147280Y-6781560D01*
X13177465Y-8755745D02*
X13207465Y-8785745D01*
X13207465Y-8755745D02*
X13177465Y-8785745D01*
X13210223Y-7862167D02*
X13240223Y-7892167D01*
X13240223Y-7862167D02*
X13210223Y-7892167D01*
X13230311Y-6753311D02*
X13260311Y-6783311D01*
X13260311Y-6753311D02*
X13230311Y-6783311D01*
X13231753Y-4509033D02*
X13261753Y-4539033D01*
X13261753Y-4509033D02*
X13231753Y-4539033D01*
X13289877Y-7632890D02*
X13319877Y-7662890D01*
X13319877Y-7632890D02*
X13289877Y-7662890D01*
X13290261Y-6827760D02*
X13320261Y-6857760D01*
X13320261Y-6827760D02*
X13290261Y-6857760D01*
X13360640Y-6776960D02*
X13390640Y-6806960D01*
X13390640Y-6776960D02*
X13360640Y-6806960D01*
X13375343Y-4362911D02*
X13405343Y-4392911D01*
X13405343Y-4362911D02*
X13375343Y-4392911D01*
X13406360Y-7188440D02*
X13436360Y-7218440D01*
X13436360Y-7188440D02*
X13406360Y-7218440D01*
X13420590Y-6835380D02*
X13450590Y-6865380D01*
X13450590Y-6835380D02*
X13420590Y-6865380D01*
X13615650Y-7382490D02*
X13645650Y-7412490D01*
X13645650Y-7382490D02*
X13615650Y-7412490D01*
X13675600Y-7713910D02*
X13705600Y-7743910D01*
X13705600Y-7713910D02*
X13675600Y-7743910D01*
X13736560Y-7594010D02*
X13766560Y-7624010D01*
X13766560Y-7594010D02*
X13736560Y-7624010D01*
X13931180Y-5539980D02*
X13961180Y-5569980D01*
X13961180Y-5539980D02*
X13931180Y-5569980D01*
X13999340Y-4736486D02*
X14029340Y-4766486D01*
X14029340Y-4736486D02*
X13999340Y-4766486D01*
X14075760Y-5339360D02*
X14105760Y-5369360D01*
X14105760Y-5339360D02*
X14075760Y-5369360D01*
X14187300Y-5665240D02*
X14217300Y-5695240D01*
X14217300Y-5665240D02*
X14187300Y-5695240D01*
X6202280Y-8145780D02*
G75*
G02*
X6152280Y-8145780I-25000J0D01*
G01*
X6152280Y-8145780D02*
G75*
G02*
X6202280Y-8145780I25000J0D01*
G01*
X6601060Y-5415280D02*
G75*
G02*
X6551060Y-5415280I-25000J0D01*
G01*
X6551060Y-5415280D02*
G75*
G02*
X6601060Y-5415280I25000J0D01*
G01*
X6685115Y-6479915D02*
G75*
G02*
X6635115Y-6479915I-25000J0D01*
G01*
X6635115Y-6479915D02*
G75*
G02*
X6685115Y-6479915I25000J0D01*
G01*
X6698748Y-8369941D02*
G75*
G02*
X6648748Y-8369941I-25000J0D01*
G01*
X6648748Y-8369941D02*
G75*
G02*
X6698748Y-8369941I25000J0D01*
G01*
X6700120Y-7838440D02*
G75*
G02*
X6650120Y-7838440I-25000J0D01*
G01*
X6650120Y-7838440D02*
G75*
G02*
X6700120Y-7838440I25000J0D01*
G01*
X6748380Y-6377940D02*
G75*
G02*
X6698380Y-6377940I-25000J0D01*
G01*
X6698380Y-6377940D02*
G75*
G02*
X6748380Y-6377940I25000J0D01*
G01*
X6842360Y-5308600D02*
G75*
G02*
X6792360Y-5308600I-25000J0D01*
G01*
X6792360Y-5308600D02*
G75*
G02*
X6842360Y-5308600I25000J0D01*
G01*
X6844900Y-6888480D02*
G75*
G02*
X6794900Y-6888480I-25000J0D01*
G01*
X6794900Y-6888480D02*
G75*
G02*
X6844900Y-6888480I25000J0D01*
G01*
X6871140Y-6675120D02*
G75*
G02*
X6821140Y-6675120I-25000J0D01*
G01*
X6821140Y-6675120D02*
G75*
G02*
X6871140Y-6675120I25000J0D01*
G01*
X6893160Y-5656580D02*
G75*
G02*
X6843160Y-5656580I-25000J0D01*
G01*
X6843160Y-5656580D02*
G75*
G02*
X6893160Y-5656580I25000J0D01*
G01*
X6921100Y-4513580D02*
G75*
G02*
X6871100Y-4513580I-25000J0D01*
G01*
X6871100Y-4513580D02*
G75*
G02*
X6921100Y-4513580I25000J0D01*
G01*
X7031220Y-7964640D02*
G75*
G02*
X6981220Y-7964640I-25000J0D01*
G01*
X6981220Y-7964640D02*
G75*
G02*
X7031220Y-7964640I25000J0D01*
G01*
X7121760Y-8430260D02*
G75*
G02*
X7071760Y-8430260I-25000J0D01*
G01*
X7071760Y-8430260D02*
G75*
G02*
X7121760Y-8430260I25000J0D01*
G01*
X7124300Y-8534400D02*
G75*
G02*
X7074300Y-8534400I-25000J0D01*
G01*
X7074300Y-8534400D02*
G75*
G02*
X7124300Y-8534400I25000J0D01*
G01*
X7149700Y-8267700D02*
G75*
G02*
X7099700Y-8267700I-25000J0D01*
G01*
X7099700Y-8267700D02*
G75*
G02*
X7149700Y-8267700I25000J0D01*
G01*
X7187800Y-8729980D02*
G75*
G02*
X7137800Y-8729980I-25000J0D01*
G01*
X7137800Y-8729980D02*
G75*
G02*
X7187800Y-8729980I25000J0D01*
G01*
X7251300Y-8270240D02*
G75*
G02*
X7201300Y-8270240I-25000J0D01*
G01*
X7201300Y-8270240D02*
G75*
G02*
X7251300Y-8270240I25000J0D01*
G01*
X7253840Y-8641080D02*
G75*
G02*
X7203840Y-8641080I-25000J0D01*
G01*
X7203840Y-8641080D02*
G75*
G02*
X7253840Y-8641080I25000J0D01*
G01*
X7258920Y-5298440D02*
G75*
G02*
X7208920Y-5298440I-25000J0D01*
G01*
X7208920Y-5298440D02*
G75*
G02*
X7258920Y-5298440I25000J0D01*
G01*
X7275450Y-8457400D02*
G75*
G02*
X7225450Y-8457400I-25000J0D01*
G01*
X7225450Y-8457400D02*
G75*
G02*
X7275450Y-8457400I25000J0D01*
G01*
X7304640Y-7409180D02*
G75*
G02*
X7254640Y-7409180I-25000J0D01*
G01*
X7254640Y-7409180D02*
G75*
G02*
X7304640Y-7409180I25000J0D01*
G01*
X7683100Y-5765800D02*
G75*
G02*
X7633100Y-5765800I-25000J0D01*
G01*
X7633100Y-5765800D02*
G75*
G02*
X7683100Y-5765800I25000J0D01*
G01*
X7693260Y-5402580D02*
G75*
G02*
X7643260Y-5402580I-25000J0D01*
G01*
X7643260Y-5402580D02*
G75*
G02*
X7693260Y-5402580I25000J0D01*
G01*
X7716390Y-7815580D02*
G75*
G02*
X7666390Y-7815580I-25000J0D01*
G01*
X7666390Y-7815580D02*
G75*
G02*
X7716390Y-7815580I25000J0D01*
G01*
X7728820Y-6832600D02*
G75*
G02*
X7678820Y-6832600I-25000J0D01*
G01*
X7678820Y-6832600D02*
G75*
G02*
X7728820Y-6832600I25000J0D01*
G01*
X7769460Y-6995160D02*
G75*
G02*
X7719460Y-6995160I-25000J0D01*
G01*
X7719460Y-6995160D02*
G75*
G02*
X7769460Y-6995160I25000J0D01*
G01*
X7805020Y-4465320D02*
G75*
G02*
X7755020Y-4465320I-25000J0D01*
G01*
X7755020Y-4465320D02*
G75*
G02*
X7805020Y-4465320I25000J0D01*
G01*
X7850740Y-7512217D02*
G75*
G02*
X7800740Y-7512217I-25000J0D01*
G01*
X7800740Y-7512217D02*
G75*
G02*
X7850740Y-7512217I25000J0D01*
G01*
X8020920Y-6992620D02*
G75*
G02*
X7970920Y-6992620I-25000J0D01*
G01*
X7970920Y-6992620D02*
G75*
G02*
X8020920Y-6992620I25000J0D01*
G01*
X8043780Y-5827090D02*
G75*
G02*
X7993780Y-5827090I-25000J0D01*
G01*
X7993780Y-5827090D02*
G75*
G02*
X8043780Y-5827090I25000J0D01*
G01*
X8091704Y-8751087D02*
G75*
G02*
X8041704Y-8751087I-25000J0D01*
G01*
X8041704Y-8751087D02*
G75*
G02*
X8091704Y-8751087I25000J0D01*
G01*
X8094600Y-8315960D02*
G75*
G02*
X8044600Y-8315960I-25000J0D01*
G01*
X8044600Y-8315960D02*
G75*
G02*
X8094600Y-8315960I25000J0D01*
G01*
X8109820Y-4782820D02*
G75*
G02*
X8059820Y-4782820I-25000J0D01*
G01*
X8059820Y-4782820D02*
G75*
G02*
X8109820Y-4782820I25000J0D01*
G01*
X8155540Y-6832600D02*
G75*
G02*
X8105540Y-6832600I-25000J0D01*
G01*
X8105540Y-6832600D02*
G75*
G02*
X8155540Y-6832600I25000J0D01*
G01*
X8304732Y-6990748D02*
G75*
G02*
X8254732Y-6990748I-25000J0D01*
G01*
X8254732Y-6990748D02*
G75*
G02*
X8304732Y-6990748I25000J0D01*
G01*
X8404460Y-5827090D02*
G75*
G02*
X8354460Y-5827090I-25000J0D01*
G01*
X8354460Y-5827090D02*
G75*
G02*
X8404460Y-5827090I25000J0D01*
G01*
X8420205Y-7961700D02*
G75*
G02*
X8370204Y-7961700I-25000J0D01*
G01*
X8370204Y-7961700D02*
G75*
G02*
X8420205Y-7961700I25000J0D01*
G01*
X8511140Y-8427720D02*
G75*
G02*
X8461140Y-8427720I-25000J0D01*
G01*
X8461140Y-8427720D02*
G75*
G02*
X8511140Y-8427720I25000J0D01*
G01*
X8513680Y-8531860D02*
G75*
G02*
X8463680Y-8531860I-25000J0D01*
G01*
X8463680Y-8531860D02*
G75*
G02*
X8513680Y-8531860I25000J0D01*
G01*
X8527834Y-6504466D02*
G75*
G02*
X8477834Y-6504466I-25000J0D01*
G01*
X8477834Y-6504466D02*
G75*
G02*
X8527834Y-6504466I25000J0D01*
G01*
X8539080Y-8265160D02*
G75*
G02*
X8489080Y-8265160I-25000J0D01*
G01*
X8489080Y-8265160D02*
G75*
G02*
X8539080Y-8265160I25000J0D01*
G01*
X8577180Y-8727440D02*
G75*
G02*
X8527180Y-8727440I-25000J0D01*
G01*
X8527180Y-8727440D02*
G75*
G02*
X8577180Y-8727440I25000J0D01*
G01*
X8640680Y-8267700D02*
G75*
G02*
X8590680Y-8267700I-25000J0D01*
G01*
X8590680Y-8267700D02*
G75*
G02*
X8640680Y-8267700I25000J0D01*
G01*
X8643220Y-8638540D02*
G75*
G02*
X8593220Y-8638540I-25000J0D01*
G01*
X8593220Y-8638540D02*
G75*
G02*
X8643220Y-8638540I25000J0D01*
G01*
X8648300Y-4033520D02*
G75*
G02*
X8598300Y-4033520I-25000J0D01*
G01*
X8598300Y-4033520D02*
G75*
G02*
X8648300Y-4033520I25000J0D01*
G01*
X8664830Y-8454860D02*
G75*
G02*
X8614830Y-8454860I-25000J0D01*
G01*
X8614830Y-8454860D02*
G75*
G02*
X8664830Y-8454860I25000J0D01*
G01*
X8787908Y-7604667D02*
G75*
G02*
X8737908Y-7604667I-25000J0D01*
G01*
X8737908Y-7604667D02*
G75*
G02*
X8787908Y-7604667I25000J0D01*
G01*
X8813400Y-7391400D02*
G75*
G02*
X8763400Y-7391400I-25000J0D01*
G01*
X8763400Y-7391400D02*
G75*
G02*
X8813400Y-7391400I25000J0D01*
G01*
X8894680Y-7818120D02*
G75*
G02*
X8844680Y-7818120I-25000J0D01*
G01*
X8844680Y-7818120D02*
G75*
G02*
X8894680Y-7818120I25000J0D01*
G01*
X9054700Y-4211320D02*
G75*
G02*
X9004700Y-4211320I-25000J0D01*
G01*
X9004700Y-4211320D02*
G75*
G02*
X9054700Y-4211320I25000J0D01*
G01*
X9107655Y-7801350D02*
G75*
G02*
X9057655Y-7801350I-25000J0D01*
G01*
X9057655Y-7801350D02*
G75*
G02*
X9107655Y-7801350I25000J0D01*
G01*
X9126490Y-6826986D02*
G75*
G02*
X9076490Y-6826986I-25000J0D01*
G01*
X9076490Y-6826986D02*
G75*
G02*
X9126490Y-6826986I25000J0D01*
G01*
X9176620Y-6718300D02*
G75*
G02*
X9126620Y-6718300I-25000J0D01*
G01*
X9126620Y-6718300D02*
G75*
G02*
X9176620Y-6718300I25000J0D01*
G01*
X9213710Y-7112000D02*
G75*
G02*
X9163710Y-7112000I-25000J0D01*
G01*
X9163710Y-7112000D02*
G75*
G02*
X9213710Y-7112000I25000J0D01*
G01*
X9303620Y-4848860D02*
G75*
G02*
X9253620Y-4848860I-25000J0D01*
G01*
X9253620Y-4848860D02*
G75*
G02*
X9303620Y-4848860I25000J0D01*
G01*
X9306160Y-7502764D02*
G75*
G02*
X9256160Y-7502764I-25000J0D01*
G01*
X9256160Y-7502764D02*
G75*
G02*
X9306160Y-7502764I25000J0D01*
G01*
X9379888Y-4145212D02*
G75*
G02*
X9329888Y-4145212I-25000J0D01*
G01*
X9329888Y-4145212D02*
G75*
G02*
X9379888Y-4145212I25000J0D01*
G01*
X9417920Y-4635500D02*
G75*
G02*
X9367920Y-4635500I-25000J0D01*
G01*
X9367920Y-4635500D02*
G75*
G02*
X9417920Y-4635500I25000J0D01*
G01*
X9450797Y-7801313D02*
G75*
G02*
X9400797Y-7801313I-25000J0D01*
G01*
X9400797Y-7801313D02*
G75*
G02*
X9450797Y-7801313I25000J0D01*
G01*
X9484616Y-8748547D02*
G75*
G02*
X9434616Y-8748547I-25000J0D01*
G01*
X9434616Y-8748547D02*
G75*
G02*
X9484616Y-8748547I25000J0D01*
G01*
X9485865Y-8326120D02*
G75*
G02*
X9435865Y-8326120I-25000J0D01*
G01*
X9435865Y-8326120D02*
G75*
G02*
X9485865Y-8326120I25000J0D01*
G01*
X9698317Y-4098684D02*
G75*
G02*
X9648317Y-4098684I-25000J0D01*
G01*
X9648317Y-4098684D02*
G75*
G02*
X9698317Y-4098684I25000J0D01*
G01*
X9737960Y-7698740D02*
G75*
G02*
X9687960Y-7698740I-25000J0D01*
G01*
X9687960Y-7698740D02*
G75*
G02*
X9737960Y-7698740I25000J0D01*
G01*
X9760339Y-3534510D02*
G75*
G02*
X9710339Y-3534510I-25000J0D01*
G01*
X9710339Y-3534510D02*
G75*
G02*
X9760339Y-3534510I25000J0D01*
G01*
X9761620Y-3715825D02*
G75*
G02*
X9711620Y-3715825I-25000J0D01*
G01*
X9711620Y-3715825D02*
G75*
G02*
X9761620Y-3715825I25000J0D01*
G01*
X9780929Y-7089140D02*
G75*
G02*
X9730929Y-7089140I-25000J0D01*
G01*
X9730929Y-7089140D02*
G75*
G02*
X9780929Y-7089140I25000J0D01*
G01*
X9815496Y-7961720D02*
G75*
G02*
X9765496Y-7961720I-25000J0D01*
G01*
X9765496Y-7961720D02*
G75*
G02*
X9815496Y-7961720I25000J0D01*
G01*
X9858100Y-4851400D02*
G75*
G02*
X9808100Y-4851400I-25000J0D01*
G01*
X9808100Y-4851400D02*
G75*
G02*
X9858100Y-4851400I25000J0D01*
G01*
X9873379Y-7169375D02*
G75*
G02*
X9823379Y-7169375I-25000J0D01*
G01*
X9823379Y-7169375D02*
G75*
G02*
X9873379Y-7169375I25000J0D01*
G01*
X9902975Y-8548305D02*
G75*
G02*
X9852975Y-8548305I-25000J0D01*
G01*
X9852975Y-8548305D02*
G75*
G02*
X9902975Y-8548305I25000J0D01*
G01*
X9909482Y-8404933D02*
G75*
G02*
X9859482Y-8404933I-25000J0D01*
G01*
X9859482Y-8404933D02*
G75*
G02*
X9909482Y-8404933I25000J0D01*
G01*
X9933540Y-8239760D02*
G75*
G02*
X9883540Y-8239760I-25000J0D01*
G01*
X9883540Y-8239760D02*
G75*
G02*
X9933540Y-8239760I25000J0D01*
G01*
X9946828Y-4161108D02*
G75*
G02*
X9896828Y-4161108I-25000J0D01*
G01*
X9896828Y-4161108D02*
G75*
G02*
X9946828Y-4161108I25000J0D01*
G01*
X9970350Y-8723160D02*
G75*
G02*
X9920350Y-8723160I-25000J0D01*
G01*
X9920350Y-8723160D02*
G75*
G02*
X9970350Y-8723160I25000J0D01*
G01*
X10036390Y-8634260D02*
G75*
G02*
X9986390Y-8634260I-25000J0D01*
G01*
X9986390Y-8634260D02*
G75*
G02*
X10036390Y-8634260I25000J0D01*
G01*
X10040220Y-8267700D02*
G75*
G02*
X9990220Y-8267700I-25000J0D01*
G01*
X9990220Y-8267700D02*
G75*
G02*
X10040220Y-8267700I25000J0D01*
G01*
X10058000Y-8450580D02*
G75*
G02*
X10008000Y-8450580I-25000J0D01*
G01*
X10008000Y-8450580D02*
G75*
G02*
X10058000Y-8450580I25000J0D01*
G01*
X10058995Y-7485735D02*
G75*
G02*
X10008995Y-7485735I-25000J0D01*
G01*
X10008995Y-7485735D02*
G75*
G02*
X10058995Y-7485735I25000J0D01*
G01*
X10078320Y-4792980D02*
G75*
G02*
X10028320Y-4792980I-25000J0D01*
G01*
X10028320Y-4792980D02*
G75*
G02*
X10078320Y-4792980I25000J0D01*
G01*
X10164865Y-7459554D02*
G75*
G02*
X10114865Y-7459554I-25000J0D01*
G01*
X10114865Y-7459554D02*
G75*
G02*
X10164865Y-7459554I25000J0D01*
G01*
X10174840Y-4988560D02*
G75*
G02*
X10124840Y-4988560I-25000J0D01*
G01*
X10124840Y-4988560D02*
G75*
G02*
X10174840Y-4988560I25000J0D01*
G01*
X10177380Y-4546600D02*
G75*
G02*
X10127380Y-4546600I-25000J0D01*
G01*
X10127380Y-4546600D02*
G75*
G02*
X10177380Y-4546600I25000J0D01*
G01*
X10306920Y-6791960D02*
G75*
G02*
X10256920Y-6791960I-25000J0D01*
G01*
X10256920Y-6791960D02*
G75*
G02*
X10306920Y-6791960I25000J0D01*
G01*
X10309460Y-6896100D02*
G75*
G02*
X10259460Y-6896100I-25000J0D01*
G01*
X10259460Y-6896100D02*
G75*
G02*
X10309460Y-6896100I25000J0D01*
G01*
X10317080Y-4326790D02*
G75*
G02*
X10267080Y-4326790I-25000J0D01*
G01*
X10267080Y-4326790D02*
G75*
G02*
X10317080Y-4326790I25000J0D01*
G01*
X10322160Y-7763971D02*
G75*
G02*
X10272160Y-7763971I-25000J0D01*
G01*
X10272160Y-7763971D02*
G75*
G02*
X10322160Y-7763971I25000J0D01*
G01*
X10515200Y-6893560D02*
G75*
G02*
X10465200Y-6893560I-25000J0D01*
G01*
X10465200Y-6893560D02*
G75*
G02*
X10515200Y-6893560I25000J0D01*
G01*
X10530309Y-6282661D02*
G75*
G02*
X10480309Y-6282661I-25000J0D01*
G01*
X10480309Y-6282661D02*
G75*
G02*
X10530309Y-6282661I25000J0D01*
G01*
X10657440Y-6929120D02*
G75*
G02*
X10607440Y-6929120I-25000J0D01*
G01*
X10607440Y-6929120D02*
G75*
G02*
X10657440Y-6929120I25000J0D01*
G01*
X10751420Y-6662501D02*
G75*
G02*
X10701420Y-6662501I-25000J0D01*
G01*
X10701420Y-6662501D02*
G75*
G02*
X10751420Y-6662501I25000J0D01*
G01*
X10755250Y-6512551D02*
G75*
G02*
X10705250Y-6512551I-25000J0D01*
G01*
X10705250Y-6512551D02*
G75*
G02*
X10755250Y-6512551I25000J0D01*
G01*
X10762422Y-5944048D02*
G75*
G02*
X10712422Y-5944048I-25000J0D01*
G01*
X10712422Y-5944048D02*
G75*
G02*
X10762422Y-5944048I25000J0D01*
G01*
X10766610Y-6324600D02*
G75*
G02*
X10716610Y-6324600I-25000J0D01*
G01*
X10716610Y-6324600D02*
G75*
G02*
X10766610Y-6324600I25000J0D01*
G01*
X10847940Y-8856980D02*
G75*
G02*
X10797940Y-8856980I-25000J0D01*
G01*
X10797940Y-8856980D02*
G75*
G02*
X10847940Y-8856980I25000J0D01*
G01*
X11012909Y-6264881D02*
G75*
G02*
X10962909Y-6264881I-25000J0D01*
G01*
X10962909Y-6264881D02*
G75*
G02*
X11012909Y-6264881I25000J0D01*
G01*
X11150200Y-5996940D02*
G75*
G02*
X11100200Y-5996940I-25000J0D01*
G01*
X11100200Y-5996940D02*
G75*
G02*
X11150200Y-5996940I25000J0D01*
G01*
X11168433Y-5725361D02*
G75*
G02*
X11118433Y-5725361I-25000J0D01*
G01*
X11118433Y-5725361D02*
G75*
G02*
X11168433Y-5725361I25000J0D01*
G01*
X11192778Y-6190582D02*
G75*
G02*
X11142778Y-6190582I-25000J0D01*
G01*
X11142778Y-6190582D02*
G75*
G02*
X11192778Y-6190582I25000J0D01*
G01*
X11423929Y-6788121D02*
G75*
G02*
X11373929Y-6788121I-25000J0D01*
G01*
X11373929Y-6788121D02*
G75*
G02*
X11423929Y-6788121I25000J0D01*
G01*
X11424229Y-7087381D02*
G75*
G02*
X11374229Y-7087381I-25000J0D01*
G01*
X11374229Y-7087381D02*
G75*
G02*
X11424229Y-7087381I25000J0D01*
G01*
X11576920Y-7203440D02*
G75*
G02*
X11526920Y-7203440I-25000J0D01*
G01*
X11526920Y-7203440D02*
G75*
G02*
X11576920Y-7203440I25000J0D01*
G01*
X11579460Y-7312660D02*
G75*
G02*
X11529460Y-7312660I-25000J0D01*
G01*
X11529460Y-7312660D02*
G75*
G02*
X11579460Y-7312660I25000J0D01*
G01*
X11592160Y-4394200D02*
G75*
G02*
X11542160Y-4394200I-25000J0D01*
G01*
X11542160Y-4394200D02*
G75*
G02*
X11592160Y-4394200I25000J0D01*
G01*
X11721700Y-6974840D02*
G75*
G02*
X11671700Y-6974840I-25000J0D01*
G01*
X11671700Y-6974840D02*
G75*
G02*
X11721700Y-6974840I25000J0D01*
G01*
X11726780Y-6073140D02*
G75*
G02*
X11676780Y-6073140I-25000J0D01*
G01*
X11676780Y-6073140D02*
G75*
G02*
X11726780Y-6073140I25000J0D01*
G01*
X11783525Y-4979815D02*
G75*
G02*
X11733525Y-4979815I-25000J0D01*
G01*
X11733525Y-4979815D02*
G75*
G02*
X11783525Y-4979815I25000J0D01*
G01*
X11918572Y-6574585D02*
G75*
G02*
X11868572Y-6574585I-25000J0D01*
G01*
X11868572Y-6574585D02*
G75*
G02*
X11918572Y-6574585I25000J0D01*
G01*
X11935935Y-7649752D02*
G75*
G02*
X11885935Y-7649752I-25000J0D01*
G01*
X11885935Y-7649752D02*
G75*
G02*
X11935935Y-7649752I25000J0D01*
G01*
X11954716Y-5045703D02*
G75*
G02*
X11904716Y-5045703I-25000J0D01*
G01*
X11904716Y-5045703D02*
G75*
G02*
X11954716Y-5045703I25000J0D01*
G01*
X11993480Y-7325360D02*
G75*
G02*
X11943480Y-7325360I-25000J0D01*
G01*
X11943480Y-7325360D02*
G75*
G02*
X11993480Y-7325360I25000J0D01*
G01*
X12089723Y-7071637D02*
G75*
G02*
X12039723Y-7071637I-25000J0D01*
G01*
X12039723Y-7071637D02*
G75*
G02*
X12089723Y-7071637I25000J0D01*
G01*
X12342518Y-7407490D02*
G75*
G02*
X12292518Y-7407490I-25000J0D01*
G01*
X12292518Y-7407490D02*
G75*
G02*
X12342518Y-7407490I25000J0D01*
G01*
X12676740Y-7657890D02*
G75*
G02*
X12626740Y-7657890I-25000J0D01*
G01*
X12626740Y-7657890D02*
G75*
G02*
X12676740Y-7657890I25000J0D01*
G01*
X12785960Y-3586480D02*
G75*
G02*
X12735960Y-3586480I-25000J0D01*
G01*
X12735960Y-3586480D02*
G75*
G02*
X12785960Y-3586480I25000J0D01*
G01*
X12956140Y-8897620D02*
G75*
G02*
X12906140Y-8897620I-25000J0D01*
G01*
X12906140Y-8897620D02*
G75*
G02*
X12956140Y-8897620I25000J0D01*
G01*
X13070440Y-4561840D02*
G75*
G02*
X13020440Y-4561840I-25000J0D01*
G01*
X13020440Y-4561840D02*
G75*
G02*
X13070440Y-4561840I25000J0D01*
G01*
X13227920Y-4053840D02*
G75*
G02*
X13177920Y-4053840I-25000J0D01*
G01*
X13177920Y-4053840D02*
G75*
G02*
X13227920Y-4053840I25000J0D01*
G01*
X13238080Y-7663180D02*
G75*
G02*
X13188080Y-7663180I-25000J0D01*
G01*
X13188080Y-7663180D02*
G75*
G02*
X13238080Y-7663180I25000J0D01*
G01*
X13393020Y-5232400D02*
G75*
G02*
X13343020Y-5232400I-25000J0D01*
G01*
X13343020Y-5232400D02*
G75*
G02*
X13393020Y-5232400I25000J0D01*
G01*
X13484460Y-8059420D02*
G75*
G02*
X13434460Y-8059420I-25000J0D01*
G01*
X13434460Y-8059420D02*
G75*
G02*
X13484460Y-8059420I25000J0D01*
G01*
X13497160Y-8707120D02*
G75*
G02*
X13447160Y-8707120I-25000J0D01*
G01*
X13447160Y-8707120D02*
G75*
G02*
X13497160Y-8707120I25000J0D01*
G01*
X13524462Y-7387538D02*
G75*
G02*
X13474462Y-7387538I-25000J0D01*
G01*
X13474462Y-7387538D02*
G75*
G02*
X13524462Y-7387538I25000J0D01*
G01*
X13547960Y-6492240D02*
G75*
G02*
X13497960Y-6492240I-25000J0D01*
G01*
X13497960Y-6492240D02*
G75*
G02*
X13547960Y-6492240I25000J0D01*
G01*
X13753700Y-6151880D02*
G75*
G02*
X13703700Y-6151880I-25000J0D01*
G01*
X13703700Y-6151880D02*
G75*
G02*
X13753700Y-6151880I25000J0D01*
G01*
X13763860Y-3563620D02*
G75*
G02*
X13713860Y-3563620I-25000J0D01*
G01*
X13713860Y-3563620D02*
G75*
G02*
X13763860Y-3563620I25000J0D01*
G01*
X13890860Y-6487160D02*
G75*
G02*
X13840860Y-6487160I-25000J0D01*
G01*
X13840860Y-6487160D02*
G75*
G02*
X13890860Y-6487160I25000J0D01*
G01*
X14074624Y-8574303D02*
G75*
G02*
X14024624Y-8574303I-25000J0D01*
G01*
X14024624Y-8574303D02*
G75*
G02*
X14074624Y-8574303I25000J0D01*
G01*
X14093260Y-5529410D02*
G75*
G02*
X14043260Y-5529410I-25000J0D01*
G01*
X14043260Y-5529410D02*
G75*
G02*
X14093260Y-5529410I25000J0D01*
G01*
X14104220Y-6273800D02*
G75*
G02*
X14054220Y-6273800I-25000J0D01*
G01*
X14054220Y-6273800D02*
G75*
G02*
X14104220Y-6273800I25000J0D01*
G01*
X14289640Y-3990340D02*
G75*
G02*
X14239640Y-3990340I-25000J0D01*
G01*
X14239640Y-3990340D02*
G75*
G02*
X14289640Y-3990340I25000J0D01*
G01*
X14317580Y-4559300D02*
G75*
G02*
X14267580Y-4559300I-25000J0D01*
G01*
X14267580Y-4559300D02*
G75*
G02*
X14317580Y-4559300I25000J0D01*
G01*
X14339460Y-5320160D02*
X14339460Y-5370160D01*
X14314460Y-5345160D02*
X14364460Y-5345160D01*
X14374460Y-5320160D02*
X14304460Y-5320160D01*
X14304460Y-5370160D02*
G75*
G02*
X14304460Y-5320160I0J25000D01*
G01*
X14304460Y-5370160D02*
X14374460Y-5370160D01*
X14374460Y-5370160D02*
G75*
G03*
X14374460Y-5320160I0J25000D01*
G01*
X14339460Y-5980160D02*
X14339460Y-6030160D01*
X14314460Y-6005160D02*
X14364460Y-6005160D01*
X14374460Y-5980160D02*
X14304460Y-5980160D01*
X14304460Y-6030160D02*
G75*
G02*
X14304460Y-5980160I0J25000D01*
G01*
X14304460Y-6030160D02*
X14374460Y-6030160D01*
X14374460Y-6030160D02*
G75*
G03*
X14374460Y-5980160I0J25000D01*
G01*
X14157152Y-3513713D02*
X14157152Y-3471287D01*
X14114725Y-3471287D01*
X14114725Y-3513713D01*
X14157152Y-3513713D01*
X14186228Y-3455137D02*
X14077299Y-3470446D01*
X14085649Y-3529862D02*
G75*
G02*
X14077299Y-3470446I-4175J29708D01*
G01*
X14085649Y-3529863D02*
X14194579Y-3514553D01*
X14194579Y-3514553D02*
G75*
G03*
X14186228Y-3455137I-4175J29708D01*
G01*
X14345036Y-4850575D02*
X14345036Y-4808149D01*
X14302609Y-4808149D01*
X14302609Y-4850575D01*
X14345036Y-4850575D01*
X14374112Y-4791999D02*
X14265183Y-4807308D01*
X14273533Y-4866724D02*
G75*
G02*
X14265183Y-4807308I-4175J29708D01*
G01*
X14273533Y-4866725D02*
X14382462Y-4851415D01*
X14382462Y-4851415D02*
G75*
G03*
X14374112Y-4791999I-4175J29708D01*
G01*
X6156360Y-4312820D02*
X6206360Y-4262820D01*
X6156360Y-4212820D01*
X6106360Y-4262820D01*
X6156360Y-4312820D01*
X6156360Y-4566820D02*
X6206360Y-4516820D01*
X6156360Y-4466820D01*
X6106360Y-4516820D01*
X6156360Y-4566820D01*
X6156360Y-4820820D02*
X6206360Y-4770820D01*
X6156360Y-4720820D01*
X6106360Y-4770820D01*
X6156360Y-4820820D01*
X6156360Y-5074820D02*
X6206360Y-5024820D01*
X6156360Y-4974820D01*
X6106360Y-5024820D01*
X6156360Y-5074820D01*
X6156360Y-5328820D02*
X6206360Y-5278820D01*
X6156360Y-5228820D01*
X6106360Y-5278820D01*
X6156360Y-5328820D01*
X6156360Y-5582820D02*
X6206360Y-5532820D01*
X6156360Y-5482820D01*
X6106360Y-5532820D01*
X6156360Y-5582820D01*
X6156360Y-6601320D02*
X6206360Y-6551320D01*
X6156360Y-6501320D01*
X6106360Y-6551320D01*
X6156360Y-6601320D01*
X6156360Y-6855320D02*
X6206360Y-6805320D01*
X6156360Y-6755320D01*
X6106360Y-6805320D01*
X6156360Y-6855320D01*
X6156360Y-7109320D02*
X6206360Y-7059320D01*
X6156360Y-7009320D01*
X6106360Y-7059320D01*
X6156360Y-7109320D01*
X6156360Y-7363320D02*
X6206360Y-7313320D01*
X6156360Y-7263320D01*
X6106360Y-7313320D01*
X6156360Y-7363320D01*
X6156360Y-7617320D02*
X6206360Y-7567320D01*
X6156360Y-7517320D01*
X6106360Y-7567320D01*
X6156360Y-7617320D01*
X6156360Y-7871320D02*
X6206360Y-7821320D01*
X6156360Y-7771320D01*
X6106360Y-7821320D01*
X6156360Y-7871320D01*
X6162820Y-5958740D02*
X6212820Y-5908740D01*
X6162820Y-5858740D01*
X6112820Y-5908740D01*
X6162820Y-5958740D01*
X6162820Y-6212740D02*
X6212820Y-6162740D01*
X6162820Y-6112740D01*
X6112820Y-6162740D01*
X6162820Y-6212740D01*
X6410360Y-4312820D02*
X6460360Y-4262820D01*
X6410360Y-4212820D01*
X6360360Y-4262820D01*
X6410360Y-4312820D01*
X6410360Y-4566820D02*
X6460360Y-4516820D01*
X6410360Y-4466820D01*
X6360360Y-4516820D01*
X6410360Y-4566820D01*
X6410360Y-4820820D02*
X6460360Y-4770820D01*
X6410360Y-4720820D01*
X6360360Y-4770820D01*
X6410360Y-4820820D01*
X6410360Y-5074820D02*
X6460360Y-5024820D01*
X6410360Y-4974820D01*
X6360360Y-5024820D01*
X6410360Y-5074820D01*
X6410360Y-5328820D02*
X6460360Y-5278820D01*
X6410360Y-5228820D01*
X6360360Y-5278820D01*
X6410360Y-5328820D01*
X6410360Y-5582820D02*
X6460360Y-5532820D01*
X6410360Y-5482820D01*
X6360360Y-5532820D01*
X6410360Y-5582820D01*
X6410360Y-6601320D02*
X6460360Y-6551320D01*
X6410360Y-6501320D01*
X6360360Y-6551320D01*
X6410360Y-6601320D01*
X6410360Y-6855320D02*
X6460360Y-6805320D01*
X6410360Y-6755320D01*
X6360360Y-6805320D01*
X6410360Y-6855320D01*
X6410360Y-7109320D02*
X6460360Y-7059320D01*
X6410360Y-7009320D01*
X6360360Y-7059320D01*
X6410360Y-7109320D01*
X6410360Y-7363320D02*
X6460360Y-7313320D01*
X6410360Y-7263320D01*
X6360360Y-7313320D01*
X6410360Y-7363320D01*
X6410360Y-7617320D02*
X6460360Y-7567320D01*
X6410360Y-7517320D01*
X6360360Y-7567320D01*
X6410360Y-7617320D01*
X6410360Y-7871320D02*
X6460360Y-7821320D01*
X6410360Y-7771320D01*
X6360360Y-7821320D01*
X6410360Y-7871320D01*
X6416820Y-5958740D02*
X6466820Y-5908740D01*
X6416820Y-5858740D01*
X6366820Y-5908740D01*
X6416820Y-5958740D01*
X6416820Y-6212740D02*
X6466820Y-6162740D01*
X6416820Y-6112740D01*
X6366820Y-6162740D01*
X6416820Y-6212740D01*
X6670820Y-5958740D02*
X6720820Y-5908740D01*
X6670820Y-5858740D01*
X6620820Y-5908740D01*
X6670820Y-5958740D01*
X6670820Y-6212740D02*
X6720820Y-6162740D01*
X6670820Y-6112740D01*
X6620820Y-6162740D01*
X6670820Y-6212740D01*
X6815600Y-3670200D02*
X6865600Y-3620200D01*
X6815600Y-3570200D01*
X6765600Y-3620200D01*
X6815600Y-3670200D01*
X6815600Y-3924200D02*
X6865600Y-3874200D01*
X6815600Y-3824200D01*
X6765600Y-3874200D01*
X6815600Y-3924200D01*
X6924820Y-5958740D02*
X6974820Y-5908740D01*
X6924820Y-5858740D01*
X6874820Y-5908740D01*
X6924820Y-5958740D01*
X6924820Y-6212740D02*
X6974820Y-6162740D01*
X6924820Y-6112740D01*
X6874820Y-6162740D01*
X6924820Y-6212740D01*
X7069600Y-3670200D02*
X7119600Y-3620200D01*
X7069600Y-3570200D01*
X7019600Y-3620200D01*
X7069600Y-3670200D01*
X7069600Y-3924200D02*
X7119600Y-3874200D01*
X7069600Y-3824200D01*
X7019600Y-3874200D01*
X7069600Y-3924200D01*
X7157580Y-6707120D02*
X7207580Y-6657120D01*
X7157580Y-6607120D01*
X7107580Y-6657120D01*
X7157580Y-6707120D01*
X7157720Y-4413720D02*
X7207720Y-4363720D01*
X7157720Y-4313720D01*
X7107720Y-4363720D01*
X7157720Y-4413720D01*
X7178820Y-5958740D02*
X7228820Y-5908740D01*
X7178820Y-5858740D01*
X7128820Y-5908740D01*
X7178820Y-5958740D01*
X7178820Y-6212740D02*
X7228820Y-6162740D01*
X7178820Y-6112740D01*
X7128820Y-6162740D01*
X7178820Y-6212740D01*
X7323600Y-3670200D02*
X7373600Y-3620200D01*
X7323600Y-3570200D01*
X7273600Y-3620200D01*
X7323600Y-3670200D01*
X7323600Y-3924200D02*
X7373600Y-3874200D01*
X7323600Y-3824200D01*
X7273600Y-3874200D01*
X7323600Y-3924200D01*
X7432820Y-5958740D02*
X7482820Y-5908740D01*
X7432820Y-5858740D01*
X7382820Y-5908740D01*
X7432820Y-5958740D01*
X7432820Y-6212740D02*
X7482820Y-6162740D01*
X7432820Y-6112740D01*
X7382820Y-6162740D01*
X7432820Y-6212740D01*
X7577600Y-3670200D02*
X7627600Y-3620200D01*
X7577600Y-3570200D01*
X7527600Y-3620200D01*
X7577600Y-3670200D01*
X7577600Y-3924200D02*
X7627600Y-3874200D01*
X7577600Y-3824200D01*
X7527600Y-3874200D01*
X7577600Y-3924200D01*
X7665580Y-7469120D02*
X7715580Y-7419120D01*
X7665580Y-7369120D01*
X7615580Y-7419120D01*
X7665580Y-7469120D01*
X7665720Y-5175720D02*
X7715720Y-5125720D01*
X7665720Y-5075720D01*
X7615720Y-5125720D01*
X7665720Y-5175720D01*
X7793500Y-5684420D02*
X7843500Y-5634420D01*
X7793500Y-5584420D01*
X7743500Y-5634420D01*
X7793500Y-5684420D01*
X7793500Y-5938420D02*
X7843500Y-5888420D01*
X7793500Y-5838420D01*
X7743500Y-5888420D01*
X7793500Y-5938420D01*
X7793500Y-6192420D02*
X7843500Y-6142420D01*
X7793500Y-6092420D01*
X7743500Y-6142420D01*
X7793500Y-6192420D01*
X7831600Y-3670200D02*
X7881600Y-3620200D01*
X7831600Y-3570200D01*
X7781600Y-3620200D01*
X7831600Y-3670200D01*
X7831600Y-3924200D02*
X7881600Y-3874200D01*
X7831600Y-3824200D01*
X7781600Y-3874200D01*
X7831600Y-3924200D01*
X8085600Y-3670200D02*
X8135600Y-3620200D01*
X8085600Y-3570200D01*
X8035600Y-3620200D01*
X8085600Y-3670200D01*
X8085600Y-3924200D02*
X8135600Y-3874200D01*
X8085600Y-3824200D01*
X8035600Y-3874200D01*
X8085600Y-3924200D01*
X8154480Y-5684300D02*
X8204480Y-5634300D01*
X8154480Y-5584300D01*
X8104480Y-5634300D01*
X8154480Y-5684300D01*
X8154480Y-5938300D02*
X8204480Y-5888300D01*
X8154480Y-5838300D01*
X8104480Y-5888300D01*
X8154480Y-5938300D01*
X8154480Y-6192300D02*
X8204480Y-6142300D01*
X8154480Y-6092300D01*
X8104480Y-6142300D01*
X8154480Y-6192300D01*
X8339600Y-3670200D02*
X8389600Y-3620200D01*
X8339600Y-3570200D01*
X8289600Y-3620200D01*
X8339600Y-3670200D01*
X8339600Y-3924200D02*
X8389600Y-3874200D01*
X8339600Y-3824200D01*
X8289600Y-3874200D01*
X8339600Y-3924200D01*
X8514980Y-5684300D02*
X8564980Y-5634300D01*
X8514980Y-5584300D01*
X8464980Y-5634300D01*
X8514980Y-5684300D01*
X8514980Y-5938300D02*
X8564980Y-5888300D01*
X8514980Y-5838300D01*
X8464980Y-5888300D01*
X8514980Y-5938300D01*
X8514980Y-6192300D02*
X8564980Y-6142300D01*
X8514980Y-6092300D01*
X8464980Y-6142300D01*
X8514980Y-6192300D01*
X8559660Y-6708040D02*
X8609660Y-6658040D01*
X8559660Y-6608040D01*
X8509660Y-6658040D01*
X8559660Y-6708040D01*
X8559800Y-4413720D02*
X8609800Y-4363720D01*
X8559800Y-4313720D01*
X8509800Y-4363720D01*
X8559800Y-4413720D01*
X8593600Y-3670200D02*
X8643600Y-3620200D01*
X8593600Y-3570200D01*
X8543600Y-3620200D01*
X8593600Y-3670200D01*
X8593600Y-3924200D02*
X8643600Y-3874200D01*
X8593600Y-3824200D01*
X8543600Y-3874200D01*
X8593600Y-3924200D01*
X8847600Y-3670200D02*
X8897600Y-3620200D01*
X8847600Y-3570200D01*
X8797600Y-3620200D01*
X8847600Y-3670200D01*
X8847600Y-3924200D02*
X8897600Y-3874200D01*
X8847600Y-3824200D01*
X8797600Y-3874200D01*
X8847600Y-3924200D01*
X9067660Y-7470040D02*
X9117660Y-7420040D01*
X9067660Y-7370040D01*
X9017660Y-7420040D01*
X9067660Y-7470040D01*
X9067800Y-5175720D02*
X9117800Y-5125720D01*
X9067800Y-5075720D01*
X9017800Y-5125720D01*
X9067800Y-5175720D01*
X9101600Y-3670200D02*
X9151600Y-3620200D01*
X9101600Y-3570200D01*
X9051600Y-3620200D01*
X9101600Y-3670200D01*
X9101600Y-3924200D02*
X9151600Y-3874200D01*
X9101600Y-3824200D01*
X9051600Y-3874200D01*
X9101600Y-3924200D01*
X9314180Y-5683720D02*
X9364180Y-5633720D01*
X9314180Y-5583720D01*
X9264180Y-5633720D01*
X9314180Y-5683720D01*
X9355600Y-3670200D02*
X9405600Y-3620200D01*
X9355600Y-3570200D01*
X9305600Y-3620200D01*
X9355600Y-3670200D01*
X9355600Y-3924200D02*
X9405600Y-3874200D01*
X9355600Y-3824200D01*
X9305600Y-3874200D01*
X9355600Y-3924200D01*
X9568180Y-5683720D02*
X9618180Y-5633720D01*
X9568180Y-5583720D01*
X9518180Y-5633720D01*
X9568180Y-5683720D01*
X9574040Y-7104280D02*
X9624040Y-7054280D01*
X9574040Y-7004280D01*
X9524040Y-7054280D01*
X9574040Y-7104280D01*
X9574040Y-7358280D02*
X9624040Y-7308280D01*
X9574040Y-7258280D01*
X9524040Y-7308280D01*
X9574040Y-7358280D01*
X9574040Y-7612280D02*
X9624040Y-7562280D01*
X9574040Y-7512280D01*
X9524040Y-7562280D01*
X9574040Y-7612280D01*
X9609600Y-3670200D02*
X9659600Y-3620200D01*
X9609600Y-3570200D01*
X9559600Y-3620200D01*
X9609600Y-3670200D01*
X9609600Y-3924200D02*
X9659600Y-3874200D01*
X9609600Y-3824200D01*
X9559600Y-3874200D01*
X9609600Y-3924200D01*
X9822180Y-5683720D02*
X9872180Y-5633720D01*
X9822180Y-5583720D01*
X9772180Y-5633720D01*
X9822180Y-5683720D01*
X9863600Y-3670200D02*
X9913600Y-3620200D01*
X9863600Y-3570200D01*
X9813600Y-3620200D01*
X9863600Y-3670200D01*
X9863600Y-3924200D02*
X9913600Y-3874200D01*
X9863600Y-3824200D01*
X9813600Y-3874200D01*
X9863600Y-3924200D01*
X10117600Y-3670200D02*
X10167600Y-3620200D01*
X10117600Y-3570200D01*
X10067600Y-3620200D01*
X10117600Y-3670200D01*
X10117600Y-3924200D02*
X10167600Y-3874200D01*
X10117600Y-3824200D01*
X10067600Y-3874200D01*
X10117600Y-3924200D01*
X10371600Y-3670200D02*
X10421600Y-3620200D01*
X10371600Y-3570200D01*
X10321600Y-3620200D01*
X10371600Y-3670200D01*
X10371600Y-3924200D02*
X10421600Y-3874200D01*
X10371600Y-3824200D01*
X10321600Y-3874200D01*
X10371600Y-3924200D01*
X10625600Y-3670200D02*
X10675600Y-3620200D01*
X10625600Y-3570200D01*
X10575600Y-3620200D01*
X10625600Y-3670200D01*
X10625600Y-3924200D02*
X10675600Y-3874200D01*
X10625600Y-3824200D01*
X10575600Y-3874200D01*
X10625600Y-3924200D01*
X10879600Y-3670200D02*
X10929600Y-3620200D01*
X10879600Y-3570200D01*
X10829600Y-3620200D01*
X10879600Y-3670200D01*
X10879600Y-3924200D02*
X10929600Y-3874200D01*
X10879600Y-3824200D01*
X10829600Y-3874200D01*
X10879600Y-3924200D01*
X11133600Y-3670200D02*
X11183600Y-3620200D01*
X11133600Y-3570200D01*
X11083600Y-3620200D01*
X11133600Y-3670200D01*
X11133600Y-3924200D02*
X11183600Y-3874200D01*
X11133600Y-3824200D01*
X11083600Y-3874200D01*
X11133600Y-3924200D01*
X11387600Y-3670200D02*
X11437600Y-3620200D01*
X11387600Y-3570200D01*
X11337600Y-3620200D01*
X11387600Y-3670200D01*
X11387600Y-3924200D02*
X11437600Y-3874200D01*
X11387600Y-3824200D01*
X11337600Y-3874200D01*
X11387600Y-3924200D01*
X11641600Y-3670200D02*
X11691600Y-3620200D01*
X11641600Y-3570200D01*
X11591600Y-3620200D01*
X11641600Y-3670200D01*
X11641600Y-3924200D02*
X11691600Y-3874200D01*
X11641600Y-3824200D01*
X11591600Y-3874200D01*
X11641600Y-3924200D01*
X12575540Y-7153370D02*
X12625540Y-7103370D01*
X12575540Y-7053370D01*
X12525540Y-7103370D01*
X12575540Y-7153370D01*
X12829540Y-7153370D02*
X12879540Y-7103370D01*
X12829540Y-7053370D01*
X12779540Y-7103370D01*
X12829540Y-7153370D01*
X13083540Y-7153370D02*
X13133540Y-7103370D01*
X13083540Y-7053370D01*
X13033540Y-7103370D01*
X13083540Y-7153370D01*
X13695680Y-5384000D02*
X13745680Y-5334000D01*
X13695680Y-5284000D01*
X13645680Y-5334000D01*
X13695680Y-5384000D01*
X13695680Y-5638000D02*
X13745680Y-5588000D01*
X13695680Y-5538000D01*
X13645680Y-5588000D01*
X13695680Y-5638000D01*
X13695680Y-5892000D02*
X13745680Y-5842000D01*
X13695680Y-5792000D01*
X13645680Y-5842000D01*
X13695680Y-5892000D01*
X13881880Y-6702960D02*
X13931880Y-6652960D01*
X13881880Y-6602960D01*
X13831880Y-6652960D01*
X13881880Y-6702960D01*
X13881880Y-6956960D02*
X13931880Y-6906960D01*
X13881880Y-6856960D01*
X13831880Y-6906960D01*
X13881880Y-6956960D01*
X13881880Y-7210960D02*
X13931880Y-7160960D01*
X13881880Y-7110960D01*
X13831880Y-7160960D01*
X13881880Y-7210960D01*
X13881880Y-7464960D02*
X13931880Y-7414960D01*
X13881880Y-7364960D01*
X13831880Y-7414960D01*
X13881880Y-7464960D01*
X13881880Y-7718960D02*
X13931880Y-7668960D01*
X13881880Y-7618960D01*
X13831880Y-7668960D01*
X13881880Y-7718960D01*
X13881880Y-7972960D02*
X13931880Y-7922960D01*
X13881880Y-7872960D01*
X13831880Y-7922960D01*
X13881880Y-7972960D01*
X13881880Y-8226960D02*
X13931880Y-8176960D01*
X13881880Y-8126960D01*
X13831880Y-8176960D01*
X13881880Y-8226960D01*
X13997168Y-4243637D02*
X14047168Y-4193637D01*
X13997168Y-4143637D01*
X13947168Y-4193637D01*
X13997168Y-4243637D01*
X13940696Y-4151082D02*
X13954613Y-4250109D01*
X14053640Y-4236191D02*
G75*
G02*
X13954613Y-4250109I-49513J-6959D01*
G01*
X14053640Y-4236191D02*
X14039722Y-4137164D01*
X14039722Y-4137164D02*
G75*
G03*
X13940696Y-4151082I-49513J-6959D01*
G01*
X14135880Y-6702960D02*
X14185880Y-6652960D01*
X14135880Y-6602960D01*
X14085880Y-6652960D01*
X14135880Y-6702960D01*
X14135880Y-6956960D02*
X14185880Y-6906960D01*
X14135880Y-6856960D01*
X14085880Y-6906960D01*
X14135880Y-6956960D01*
X14135880Y-7210960D02*
X14185880Y-7160960D01*
X14135880Y-7110960D01*
X14085880Y-7160960D01*
X14135880Y-7210960D01*
X14135880Y-7464960D02*
X14185880Y-7414960D01*
X14135880Y-7364960D01*
X14085880Y-7414960D01*
X14135880Y-7464960D01*
X14135880Y-7718960D02*
X14185880Y-7668960D01*
X14135880Y-7618960D01*
X14085880Y-7668960D01*
X14135880Y-7718960D01*
X14135880Y-7972960D02*
X14185880Y-7922960D01*
X14135880Y-7872960D01*
X14085880Y-7922960D01*
X14135880Y-7972960D01*
X14135880Y-8226960D02*
X14185880Y-8176960D01*
X14135880Y-8126960D01*
X14085880Y-8176960D01*
X14135880Y-8226960D01*
D13*
X13450617Y-3752938D02*
X13720617Y-4022938D01*
X13720617Y-3752938D02*
X13450617Y-4022938D01*
X13720617Y-3887938D02*
G75*
G02*
X13450617Y-3887938I-135000J0D01*
G01*
X13450617Y-3887938D02*
G75*
G02*
X13720617Y-3887938I135000J0D01*
G01*
X13550822Y-4465931D02*
X13820822Y-4735931D01*
X13820822Y-4465931D02*
X13550822Y-4735931D01*
X13820822Y-4600931D02*
G75*
G02*
X13550822Y-4600931I-135000J0D01*
G01*
X13550822Y-4600931D02*
G75*
G02*
X13820822Y-4600931I135000J0D01*
G01*
D14*
X6188460Y-3606120D02*
X6463460Y-3881120D01*
X6463460Y-3606120D02*
X6188460Y-3881120D01*
X6325960Y-3606120D02*
X6325960Y-3881120D01*
X6188460Y-3743620D02*
X6463460Y-3743620D01*
X6188460Y-8506120D02*
X6463460Y-8781120D01*
X6463460Y-8506120D02*
X6188460Y-8781120D01*
X6325960Y-8506120D02*
X6325960Y-8781120D01*
X6188460Y-8643620D02*
X6463460Y-8643620D01*
X11988460Y-3606120D02*
X12263460Y-3881120D01*
X12263460Y-3606120D02*
X11988460Y-3881120D01*
X12125960Y-3606120D02*
X12125960Y-3881120D01*
X11988460Y-3743620D02*
X12263460Y-3743620D01*
X11988460Y-8506120D02*
X12263460Y-8781120D01*
X12263460Y-8506120D02*
X11988460Y-8781120D01*
X12125960Y-8506120D02*
X12125960Y-8781120D01*
X11988460Y-8643620D02*
X12263460Y-8643620D01*
D11*
X6230737Y-9311104D02*
X6230737Y-9111104D01*
X6230737Y-9111104D02*
X6278356Y-9111104D01*
X6278356Y-9111104D02*
X6306927Y-9120628D01*
X6306927Y-9120628D02*
X6325975Y-9139675D01*
X6325975Y-9139675D02*
X6335499Y-9158723D01*
X6335499Y-9158723D02*
X6345022Y-9196818D01*
X6345022Y-9196818D02*
X6345022Y-9225390D01*
X6345022Y-9225390D02*
X6335499Y-9263485D01*
X6335499Y-9263485D02*
X6325975Y-9282532D01*
X6325975Y-9282532D02*
X6306927Y-9301580D01*
X6306927Y-9301580D02*
X6278356Y-9311104D01*
X6278356Y-9311104D02*
X6230737Y-9311104D01*
X6430737Y-9311104D02*
X6430737Y-9177770D01*
X6430737Y-9215866D02*
X6440261Y-9196818D01*
X6440261Y-9196818D02*
X6449784Y-9187294D01*
X6449784Y-9187294D02*
X6468832Y-9177770D01*
X6468832Y-9177770D02*
X6487880Y-9177770D01*
X6554546Y-9311104D02*
X6554546Y-9177770D01*
X6554546Y-9111104D02*
X6545022Y-9120628D01*
X6545022Y-9120628D02*
X6554546Y-9130151D01*
X6554546Y-9130151D02*
X6564070Y-9120628D01*
X6564070Y-9120628D02*
X6554546Y-9111104D01*
X6554546Y-9111104D02*
X6554546Y-9130151D01*
X6678356Y-9311104D02*
X6659308Y-9301580D01*
X6659308Y-9301580D02*
X6649784Y-9282532D01*
X6649784Y-9282532D02*
X6649784Y-9111104D01*
X6783118Y-9311104D02*
X6764070Y-9301580D01*
X6764070Y-9301580D02*
X6754546Y-9282532D01*
X6754546Y-9282532D02*
X6754546Y-9111104D01*
X7011689Y-9311104D02*
X7011689Y-9111104D01*
X7011689Y-9111104D02*
X7078356Y-9253961D01*
X7078356Y-9253961D02*
X7145022Y-9111104D01*
X7145022Y-9111104D02*
X7145022Y-9311104D01*
X7325975Y-9311104D02*
X7325975Y-9206342D01*
X7325975Y-9206342D02*
X7316451Y-9187294D01*
X7316451Y-9187294D02*
X7297403Y-9177770D01*
X7297403Y-9177770D02*
X7259308Y-9177770D01*
X7259308Y-9177770D02*
X7240261Y-9187294D01*
X7325975Y-9301580D02*
X7306927Y-9311104D01*
X7306927Y-9311104D02*
X7259308Y-9311104D01*
X7259308Y-9311104D02*
X7240261Y-9301580D01*
X7240261Y-9301580D02*
X7230737Y-9282532D01*
X7230737Y-9282532D02*
X7230737Y-9263485D01*
X7230737Y-9263485D02*
X7240261Y-9244437D01*
X7240261Y-9244437D02*
X7259308Y-9234913D01*
X7259308Y-9234913D02*
X7306927Y-9234913D01*
X7306927Y-9234913D02*
X7325975Y-9225390D01*
X7421213Y-9177770D02*
X7421213Y-9377770D01*
X7421213Y-9187294D02*
X7440261Y-9177770D01*
X7440261Y-9177770D02*
X7478356Y-9177770D01*
X7478356Y-9177770D02*
X7497403Y-9187294D01*
X7497403Y-9187294D02*
X7506927Y-9196818D01*
X7506927Y-9196818D02*
X7516451Y-9215866D01*
X7516451Y-9215866D02*
X7516451Y-9273009D01*
X7516451Y-9273009D02*
X7506927Y-9292056D01*
X7506927Y-9292056D02*
X7497403Y-9301580D01*
X7497403Y-9301580D02*
X7478356Y-9311104D01*
X7478356Y-9311104D02*
X7440261Y-9311104D01*
X7440261Y-9311104D02*
X7421213Y-9301580D01*
X7602165Y-9292056D02*
X7611689Y-9301580D01*
X7611689Y-9301580D02*
X7602165Y-9311104D01*
X7602165Y-9311104D02*
X7592642Y-9301580D01*
X7592642Y-9301580D02*
X7602165Y-9292056D01*
X7602165Y-9292056D02*
X7602165Y-9311104D01*
X7602165Y-9187294D02*
X7611689Y-9196818D01*
X7611689Y-9196818D02*
X7602165Y-9206342D01*
X7602165Y-9206342D02*
X7592642Y-9196818D01*
X7592642Y-9196818D02*
X7602165Y-9187294D01*
X7602165Y-9187294D02*
X7602165Y-9206342D01*
D12*
X5939960Y-9624620D02*
X5969960Y-9654620D01*
X5969960Y-9624620D02*
X5939960Y-9654620D01*
D11*
X6268832Y-9531104D02*
X6287880Y-9531104D01*
X6287880Y-9531104D02*
X6306927Y-9540628D01*
X6306927Y-9540628D02*
X6316451Y-9550151D01*
X6316451Y-9550151D02*
X6325975Y-9569199D01*
X6325975Y-9569199D02*
X6335499Y-9607294D01*
X6335499Y-9607294D02*
X6335499Y-9654913D01*
X6335499Y-9654913D02*
X6325975Y-9693009D01*
X6325975Y-9693009D02*
X6316451Y-9712056D01*
X6316451Y-9712056D02*
X6306927Y-9721580D01*
X6306927Y-9721580D02*
X6287880Y-9731104D01*
X6287880Y-9731104D02*
X6268832Y-9731104D01*
X6268832Y-9731104D02*
X6249784Y-9721580D01*
X6249784Y-9721580D02*
X6240261Y-9712056D01*
X6240261Y-9712056D02*
X6230737Y-9693009D01*
X6230737Y-9693009D02*
X6221213Y-9654913D01*
X6221213Y-9654913D02*
X6221213Y-9607294D01*
X6221213Y-9607294D02*
X6230737Y-9569199D01*
X6230737Y-9569199D02*
X6240261Y-9550151D01*
X6240261Y-9550151D02*
X6249784Y-9540628D01*
X6249784Y-9540628D02*
X6268832Y-9531104D01*
X6421213Y-9712056D02*
X6430737Y-9721580D01*
X6430737Y-9721580D02*
X6421213Y-9731104D01*
X6421213Y-9731104D02*
X6411689Y-9721580D01*
X6411689Y-9721580D02*
X6421213Y-9712056D01*
X6421213Y-9712056D02*
X6421213Y-9731104D01*
X6497403Y-9531104D02*
X6621213Y-9531104D01*
X6621213Y-9531104D02*
X6554546Y-9607294D01*
X6554546Y-9607294D02*
X6583118Y-9607294D01*
X6583118Y-9607294D02*
X6602165Y-9616818D01*
X6602165Y-9616818D02*
X6611689Y-9626342D01*
X6611689Y-9626342D02*
X6621213Y-9645390D01*
X6621213Y-9645390D02*
X6621213Y-9693009D01*
X6621213Y-9693009D02*
X6611689Y-9712056D01*
X6611689Y-9712056D02*
X6602165Y-9721580D01*
X6602165Y-9721580D02*
X6583118Y-9731104D01*
X6583118Y-9731104D02*
X6525975Y-9731104D01*
X6525975Y-9731104D02*
X6506927Y-9721580D01*
X6506927Y-9721580D02*
X6497403Y-9712056D01*
X6745022Y-9531104D02*
X6764070Y-9531104D01*
X6764070Y-9531104D02*
X6783118Y-9540628D01*
X6783118Y-9540628D02*
X6792642Y-9550151D01*
X6792642Y-9550151D02*
X6802165Y-9569199D01*
X6802165Y-9569199D02*
X6811689Y-9607294D01*
X6811689Y-9607294D02*
X6811689Y-9654913D01*
X6811689Y-9654913D02*
X6802165Y-9693009D01*
X6802165Y-9693009D02*
X6792642Y-9712056D01*
X6792642Y-9712056D02*
X6783118Y-9721580D01*
X6783118Y-9721580D02*
X6764070Y-9731104D01*
X6764070Y-9731104D02*
X6745022Y-9731104D01*
X6745022Y-9731104D02*
X6725975Y-9721580D01*
X6725975Y-9721580D02*
X6716451Y-9712056D01*
X6716451Y-9712056D02*
X6706927Y-9693009D01*
X6706927Y-9693009D02*
X6697403Y-9654913D01*
X6697403Y-9654913D02*
X6697403Y-9607294D01*
X6697403Y-9607294D02*
X6706927Y-9569199D01*
X6706927Y-9569199D02*
X6716451Y-9550151D01*
X6716451Y-9550151D02*
X6725975Y-9540628D01*
X6725975Y-9540628D02*
X6745022Y-9531104D01*
X6935499Y-9531104D02*
X6954546Y-9531104D01*
X6954546Y-9531104D02*
X6973594Y-9540628D01*
X6973594Y-9540628D02*
X6983118Y-9550151D01*
X6983118Y-9550151D02*
X6992642Y-9569199D01*
X6992642Y-9569199D02*
X7002165Y-9607294D01*
X7002165Y-9607294D02*
X7002165Y-9654913D01*
X7002165Y-9654913D02*
X6992642Y-9693009D01*
X6992642Y-9693009D02*
X6983118Y-9712056D01*
X6983118Y-9712056D02*
X6973594Y-9721580D01*
X6973594Y-9721580D02*
X6954546Y-9731104D01*
X6954546Y-9731104D02*
X6935499Y-9731104D01*
X6935499Y-9731104D02*
X6916451Y-9721580D01*
X6916451Y-9721580D02*
X6906927Y-9712056D01*
X6906927Y-9712056D02*
X6897403Y-9693009D01*
X6897403Y-9693009D02*
X6887880Y-9654913D01*
X6887880Y-9654913D02*
X6887880Y-9607294D01*
X6887880Y-9607294D02*
X6897403Y-9569199D01*
X6897403Y-9569199D02*
X6906927Y-9550151D01*
X6906927Y-9550151D02*
X6916451Y-9540628D01*
X6916451Y-9540628D02*
X6935499Y-9531104D01*
X7087880Y-9731104D02*
X7087880Y-9597770D01*
X7087880Y-9616818D02*
X7097403Y-9607294D01*
X7097403Y-9607294D02*
X7116451Y-9597770D01*
X7116451Y-9597770D02*
X7145023Y-9597770D01*
X7145023Y-9597770D02*
X7164070Y-9607294D01*
X7164070Y-9607294D02*
X7173594Y-9626342D01*
X7173594Y-9626342D02*
X7173594Y-9731104D01*
X7173594Y-9626342D02*
X7183118Y-9607294D01*
X7183118Y-9607294D02*
X7202165Y-9597770D01*
X7202165Y-9597770D02*
X7230737Y-9597770D01*
X7230737Y-9597770D02*
X7249784Y-9607294D01*
X7249784Y-9607294D02*
X7259308Y-9626342D01*
X7259308Y-9626342D02*
X7259308Y-9731104D01*
X7354546Y-9731104D02*
X7354546Y-9597770D01*
X7354546Y-9616818D02*
X7364070Y-9607294D01*
X7364070Y-9607294D02*
X7383118Y-9597770D01*
X7383118Y-9597770D02*
X7411689Y-9597770D01*
X7411689Y-9597770D02*
X7430737Y-9607294D01*
X7430737Y-9607294D02*
X7440261Y-9626342D01*
X7440261Y-9626342D02*
X7440261Y-9731104D01*
X7440261Y-9626342D02*
X7449784Y-9607294D01*
X7449784Y-9607294D02*
X7468832Y-9597770D01*
X7468832Y-9597770D02*
X7497403Y-9597770D01*
X7497403Y-9597770D02*
X7516451Y-9607294D01*
X7516451Y-9607294D02*
X7525975Y-9626342D01*
X7525975Y-9626342D02*
X7525975Y-9731104D01*
X7916451Y-9521580D02*
X7745023Y-9778723D01*
X8173594Y-9531104D02*
X8192642Y-9531104D01*
X8192642Y-9531104D02*
X8211689Y-9540628D01*
X8211689Y-9540628D02*
X8221213Y-9550151D01*
X8221213Y-9550151D02*
X8230737Y-9569199D01*
X8230737Y-9569199D02*
X8240261Y-9607294D01*
X8240261Y-9607294D02*
X8240261Y-9654913D01*
X8240261Y-9654913D02*
X8230737Y-9693009D01*
X8230737Y-9693009D02*
X8221213Y-9712056D01*
X8221213Y-9712056D02*
X8211689Y-9721580D01*
X8211689Y-9721580D02*
X8192642Y-9731104D01*
X8192642Y-9731104D02*
X8173594Y-9731104D01*
X8173594Y-9731104D02*
X8154546Y-9721580D01*
X8154546Y-9721580D02*
X8145023Y-9712056D01*
X8145023Y-9712056D02*
X8135499Y-9693009D01*
X8135499Y-9693009D02*
X8125975Y-9654913D01*
X8125975Y-9654913D02*
X8125975Y-9607294D01*
X8125975Y-9607294D02*
X8135499Y-9569199D01*
X8135499Y-9569199D02*
X8145023Y-9550151D01*
X8145023Y-9550151D02*
X8154546Y-9540628D01*
X8154546Y-9540628D02*
X8173594Y-9531104D01*
X8325975Y-9712056D02*
X8335499Y-9721580D01*
X8335499Y-9721580D02*
X8325975Y-9731104D01*
X8325975Y-9731104D02*
X8316451Y-9721580D01*
X8316451Y-9721580D02*
X8325975Y-9712056D01*
X8325975Y-9712056D02*
X8325975Y-9731104D01*
X8459308Y-9531104D02*
X8478356Y-9531104D01*
X8478356Y-9531104D02*
X8497404Y-9540628D01*
X8497404Y-9540628D02*
X8506928Y-9550151D01*
X8506928Y-9550151D02*
X8516451Y-9569199D01*
X8516451Y-9569199D02*
X8525975Y-9607294D01*
X8525975Y-9607294D02*
X8525975Y-9654913D01*
X8525975Y-9654913D02*
X8516451Y-9693009D01*
X8516451Y-9693009D02*
X8506928Y-9712056D01*
X8506928Y-9712056D02*
X8497404Y-9721580D01*
X8497404Y-9721580D02*
X8478356Y-9731104D01*
X8478356Y-9731104D02*
X8459308Y-9731104D01*
X8459308Y-9731104D02*
X8440261Y-9721580D01*
X8440261Y-9721580D02*
X8430737Y-9712056D01*
X8430737Y-9712056D02*
X8421213Y-9693009D01*
X8421213Y-9693009D02*
X8411689Y-9654913D01*
X8411689Y-9654913D02*
X8411689Y-9607294D01*
X8411689Y-9607294D02*
X8421213Y-9569199D01*
X8421213Y-9569199D02*
X8430737Y-9550151D01*
X8430737Y-9550151D02*
X8440261Y-9540628D01*
X8440261Y-9540628D02*
X8459308Y-9531104D01*
X8716451Y-9731104D02*
X8602166Y-9731104D01*
X8659308Y-9731104D02*
X8659308Y-9531104D01*
X8659308Y-9531104D02*
X8640261Y-9559675D01*
X8640261Y-9559675D02*
X8621213Y-9578723D01*
X8621213Y-9578723D02*
X8602166Y-9588247D01*
X8906928Y-9731104D02*
X8792642Y-9731104D01*
X8849785Y-9731104D02*
X8849785Y-9531104D01*
X8849785Y-9531104D02*
X8830737Y-9559675D01*
X8830737Y-9559675D02*
X8811689Y-9578723D01*
X8811689Y-9578723D02*
X8792642Y-9588247D01*
X9021213Y-9616818D02*
X9002166Y-9607294D01*
X9002166Y-9607294D02*
X8992642Y-9597770D01*
X8992642Y-9597770D02*
X8983118Y-9578723D01*
X8983118Y-9578723D02*
X8983118Y-9569199D01*
X8983118Y-9569199D02*
X8992642Y-9550151D01*
X8992642Y-9550151D02*
X9002166Y-9540628D01*
X9002166Y-9540628D02*
X9021213Y-9531104D01*
X9021213Y-9531104D02*
X9059309Y-9531104D01*
X9059309Y-9531104D02*
X9078356Y-9540628D01*
X9078356Y-9540628D02*
X9087880Y-9550151D01*
X9087880Y-9550151D02*
X9097404Y-9569199D01*
X9097404Y-9569199D02*
X9097404Y-9578723D01*
X9097404Y-9578723D02*
X9087880Y-9597770D01*
X9087880Y-9597770D02*
X9078356Y-9607294D01*
X9078356Y-9607294D02*
X9059309Y-9616818D01*
X9059309Y-9616818D02*
X9021213Y-9616818D01*
X9021213Y-9616818D02*
X9002166Y-9626342D01*
X9002166Y-9626342D02*
X8992642Y-9635866D01*
X8992642Y-9635866D02*
X8983118Y-9654913D01*
X8983118Y-9654913D02*
X8983118Y-9693009D01*
X8983118Y-9693009D02*
X8992642Y-9712056D01*
X8992642Y-9712056D02*
X9002166Y-9721580D01*
X9002166Y-9721580D02*
X9021213Y-9731104D01*
X9021213Y-9731104D02*
X9059309Y-9731104D01*
X9059309Y-9731104D02*
X9078356Y-9721580D01*
X9078356Y-9721580D02*
X9087880Y-9712056D01*
X9087880Y-9712056D02*
X9097404Y-9693009D01*
X9097404Y-9693009D02*
X9097404Y-9654913D01*
X9097404Y-9654913D02*
X9087880Y-9635866D01*
X9087880Y-9635866D02*
X9078356Y-9626342D01*
X9078356Y-9626342D02*
X9059309Y-9616818D01*
X9173594Y-9531104D02*
X9173594Y-9569199D01*
X9249785Y-9531104D02*
X9249785Y-9569199D01*
X9545023Y-9807294D02*
X9535499Y-9797770D01*
X9535499Y-9797770D02*
X9516451Y-9769199D01*
X9516451Y-9769199D02*
X9506928Y-9750151D01*
X9506928Y-9750151D02*
X9497404Y-9721580D01*
X9497404Y-9721580D02*
X9487880Y-9673961D01*
X9487880Y-9673961D02*
X9487880Y-9635866D01*
X9487880Y-9635866D02*
X9497404Y-9588247D01*
X9497404Y-9588247D02*
X9506928Y-9559675D01*
X9506928Y-9559675D02*
X9516451Y-9540628D01*
X9516451Y-9540628D02*
X9535499Y-9512056D01*
X9535499Y-9512056D02*
X9545023Y-9502532D01*
X9602166Y-9531104D02*
X9725975Y-9531104D01*
X9725975Y-9531104D02*
X9659309Y-9607294D01*
X9659309Y-9607294D02*
X9687880Y-9607294D01*
X9687880Y-9607294D02*
X9706928Y-9616818D01*
X9706928Y-9616818D02*
X9716451Y-9626342D01*
X9716451Y-9626342D02*
X9725975Y-9645390D01*
X9725975Y-9645390D02*
X9725975Y-9693009D01*
X9725975Y-9693009D02*
X9716451Y-9712056D01*
X9716451Y-9712056D02*
X9706928Y-9721580D01*
X9706928Y-9721580D02*
X9687880Y-9731104D01*
X9687880Y-9731104D02*
X9630737Y-9731104D01*
X9630737Y-9731104D02*
X9611690Y-9721580D01*
X9611690Y-9721580D02*
X9602166Y-9712056D01*
X9897404Y-9597770D02*
X9897404Y-9731104D01*
X9849785Y-9521580D02*
X9802166Y-9664437D01*
X9802166Y-9664437D02*
X9925975Y-9664437D01*
X10040261Y-9531104D02*
X10059309Y-9531104D01*
X10059309Y-9531104D02*
X10078356Y-9540628D01*
X10078356Y-9540628D02*
X10087880Y-9550151D01*
X10087880Y-9550151D02*
X10097404Y-9569199D01*
X10097404Y-9569199D02*
X10106928Y-9607294D01*
X10106928Y-9607294D02*
X10106928Y-9654913D01*
X10106928Y-9654913D02*
X10097404Y-9693009D01*
X10097404Y-9693009D02*
X10087880Y-9712056D01*
X10087880Y-9712056D02*
X10078356Y-9721580D01*
X10078356Y-9721580D02*
X10059309Y-9731104D01*
X10059309Y-9731104D02*
X10040261Y-9731104D01*
X10040261Y-9731104D02*
X10021213Y-9721580D01*
X10021213Y-9721580D02*
X10011690Y-9712056D01*
X10011690Y-9712056D02*
X10002166Y-9693009D01*
X10002166Y-9693009D02*
X9992642Y-9654913D01*
X9992642Y-9654913D02*
X9992642Y-9607294D01*
X9992642Y-9607294D02*
X10002166Y-9569199D01*
X10002166Y-9569199D02*
X10011690Y-9550151D01*
X10011690Y-9550151D02*
X10021213Y-9540628D01*
X10021213Y-9540628D02*
X10040261Y-9531104D01*
X10345023Y-9731104D02*
X10345023Y-9531104D01*
X10430737Y-9731104D02*
X10430737Y-9626342D01*
X10430737Y-9626342D02*
X10421213Y-9607294D01*
X10421213Y-9607294D02*
X10402166Y-9597770D01*
X10402166Y-9597770D02*
X10373594Y-9597770D01*
X10373594Y-9597770D02*
X10354547Y-9607294D01*
X10354547Y-9607294D02*
X10345023Y-9616818D01*
X10554547Y-9731104D02*
X10535499Y-9721580D01*
X10535499Y-9721580D02*
X10525975Y-9712056D01*
X10525975Y-9712056D02*
X10516452Y-9693009D01*
X10516452Y-9693009D02*
X10516452Y-9635866D01*
X10516452Y-9635866D02*
X10525975Y-9616818D01*
X10525975Y-9616818D02*
X10535499Y-9607294D01*
X10535499Y-9607294D02*
X10554547Y-9597770D01*
X10554547Y-9597770D02*
X10583118Y-9597770D01*
X10583118Y-9597770D02*
X10602166Y-9607294D01*
X10602166Y-9607294D02*
X10611690Y-9616818D01*
X10611690Y-9616818D02*
X10621213Y-9635866D01*
X10621213Y-9635866D02*
X10621213Y-9693009D01*
X10621213Y-9693009D02*
X10611690Y-9712056D01*
X10611690Y-9712056D02*
X10602166Y-9721580D01*
X10602166Y-9721580D02*
X10583118Y-9731104D01*
X10583118Y-9731104D02*
X10554547Y-9731104D01*
X10735499Y-9731104D02*
X10716452Y-9721580D01*
X10716452Y-9721580D02*
X10706928Y-9702532D01*
X10706928Y-9702532D02*
X10706928Y-9531104D01*
X10887880Y-9721580D02*
X10868833Y-9731104D01*
X10868833Y-9731104D02*
X10830737Y-9731104D01*
X10830737Y-9731104D02*
X10811690Y-9721580D01*
X10811690Y-9721580D02*
X10802166Y-9702532D01*
X10802166Y-9702532D02*
X10802166Y-9626342D01*
X10802166Y-9626342D02*
X10811690Y-9607294D01*
X10811690Y-9607294D02*
X10830737Y-9597770D01*
X10830737Y-9597770D02*
X10868833Y-9597770D01*
X10868833Y-9597770D02*
X10887880Y-9607294D01*
X10887880Y-9607294D02*
X10897404Y-9626342D01*
X10897404Y-9626342D02*
X10897404Y-9645390D01*
X10897404Y-9645390D02*
X10802166Y-9664437D01*
X10973594Y-9721580D02*
X10992642Y-9731104D01*
X10992642Y-9731104D02*
X11030737Y-9731104D01*
X11030737Y-9731104D02*
X11049785Y-9721580D01*
X11049785Y-9721580D02*
X11059309Y-9702532D01*
X11059309Y-9702532D02*
X11059309Y-9693009D01*
X11059309Y-9693009D02*
X11049785Y-9673961D01*
X11049785Y-9673961D02*
X11030737Y-9664437D01*
X11030737Y-9664437D02*
X11002166Y-9664437D01*
X11002166Y-9664437D02*
X10983118Y-9654913D01*
X10983118Y-9654913D02*
X10973594Y-9635866D01*
X10973594Y-9635866D02*
X10973594Y-9626342D01*
X10973594Y-9626342D02*
X10983118Y-9607294D01*
X10983118Y-9607294D02*
X11002166Y-9597770D01*
X11002166Y-9597770D02*
X11030737Y-9597770D01*
X11030737Y-9597770D02*
X11049785Y-9607294D01*
X11125975Y-9807294D02*
X11135499Y-9797770D01*
X11135499Y-9797770D02*
X11154547Y-9769199D01*
X11154547Y-9769199D02*
X11164071Y-9750151D01*
X11164071Y-9750151D02*
X11173594Y-9721580D01*
X11173594Y-9721580D02*
X11183118Y-9673961D01*
X11183118Y-9673961D02*
X11183118Y-9635866D01*
X11183118Y-9635866D02*
X11173594Y-9588247D01*
X11173594Y-9588247D02*
X11164071Y-9559675D01*
X11164071Y-9559675D02*
X11154547Y-9540628D01*
X11154547Y-9540628D02*
X11135499Y-9512056D01*
X11135499Y-9512056D02*
X11125975Y-9502532D01*
D12*
X5969960Y-9903620D02*
G75*
G02*
X5919960Y-9903620I-25000J0D01*
G01*
X5919960Y-9903620D02*
G75*
G02*
X5969960Y-9903620I25000J0D01*
G01*
D11*
X6268832Y-9795104D02*
X6287880Y-9795104D01*
X6287880Y-9795104D02*
X6306927Y-9804628D01*
X6306927Y-9804628D02*
X6316451Y-9814151D01*
X6316451Y-9814151D02*
X6325975Y-9833199D01*
X6325975Y-9833199D02*
X6335499Y-9871294D01*
X6335499Y-9871294D02*
X6335499Y-9918913D01*
X6335499Y-9918913D02*
X6325975Y-9957009D01*
X6325975Y-9957009D02*
X6316451Y-9976056D01*
X6316451Y-9976056D02*
X6306927Y-9985580D01*
X6306927Y-9985580D02*
X6287880Y-9995104D01*
X6287880Y-9995104D02*
X6268832Y-9995104D01*
X6268832Y-9995104D02*
X6249784Y-9985580D01*
X6249784Y-9985580D02*
X6240261Y-9976056D01*
X6240261Y-9976056D02*
X6230737Y-9957009D01*
X6230737Y-9957009D02*
X6221213Y-9918913D01*
X6221213Y-9918913D02*
X6221213Y-9871294D01*
X6221213Y-9871294D02*
X6230737Y-9833199D01*
X6230737Y-9833199D02*
X6240261Y-9814151D01*
X6240261Y-9814151D02*
X6249784Y-9804628D01*
X6249784Y-9804628D02*
X6268832Y-9795104D01*
X6421213Y-9976056D02*
X6430737Y-9985580D01*
X6430737Y-9985580D02*
X6421213Y-9995104D01*
X6421213Y-9995104D02*
X6411689Y-9985580D01*
X6411689Y-9985580D02*
X6421213Y-9976056D01*
X6421213Y-9976056D02*
X6421213Y-9995104D01*
X6611689Y-9795104D02*
X6516451Y-9795104D01*
X6516451Y-9795104D02*
X6506927Y-9890342D01*
X6506927Y-9890342D02*
X6516451Y-9880818D01*
X6516451Y-9880818D02*
X6535499Y-9871294D01*
X6535499Y-9871294D02*
X6583118Y-9871294D01*
X6583118Y-9871294D02*
X6602165Y-9880818D01*
X6602165Y-9880818D02*
X6611689Y-9890342D01*
X6611689Y-9890342D02*
X6621213Y-9909390D01*
X6621213Y-9909390D02*
X6621213Y-9957009D01*
X6621213Y-9957009D02*
X6611689Y-9976056D01*
X6611689Y-9976056D02*
X6602165Y-9985580D01*
X6602165Y-9985580D02*
X6583118Y-9995104D01*
X6583118Y-9995104D02*
X6535499Y-9995104D01*
X6535499Y-9995104D02*
X6516451Y-9985580D01*
X6516451Y-9985580D02*
X6506927Y-9976056D01*
X6745022Y-9795104D02*
X6764070Y-9795104D01*
X6764070Y-9795104D02*
X6783118Y-9804628D01*
X6783118Y-9804628D02*
X6792642Y-9814151D01*
X6792642Y-9814151D02*
X6802165Y-9833199D01*
X6802165Y-9833199D02*
X6811689Y-9871294D01*
X6811689Y-9871294D02*
X6811689Y-9918913D01*
X6811689Y-9918913D02*
X6802165Y-9957009D01*
X6802165Y-9957009D02*
X6792642Y-9976056D01*
X6792642Y-9976056D02*
X6783118Y-9985580D01*
X6783118Y-9985580D02*
X6764070Y-9995104D01*
X6764070Y-9995104D02*
X6745022Y-9995104D01*
X6745022Y-9995104D02*
X6725975Y-9985580D01*
X6725975Y-9985580D02*
X6716451Y-9976056D01*
X6716451Y-9976056D02*
X6706927Y-9957009D01*
X6706927Y-9957009D02*
X6697403Y-9918913D01*
X6697403Y-9918913D02*
X6697403Y-9871294D01*
X6697403Y-9871294D02*
X6706927Y-9833199D01*
X6706927Y-9833199D02*
X6716451Y-9814151D01*
X6716451Y-9814151D02*
X6725975Y-9804628D01*
X6725975Y-9804628D02*
X6745022Y-9795104D01*
X6935499Y-9795104D02*
X6954546Y-9795104D01*
X6954546Y-9795104D02*
X6973594Y-9804628D01*
X6973594Y-9804628D02*
X6983118Y-9814151D01*
X6983118Y-9814151D02*
X6992642Y-9833199D01*
X6992642Y-9833199D02*
X7002165Y-9871294D01*
X7002165Y-9871294D02*
X7002165Y-9918913D01*
X7002165Y-9918913D02*
X6992642Y-9957009D01*
X6992642Y-9957009D02*
X6983118Y-9976056D01*
X6983118Y-9976056D02*
X6973594Y-9985580D01*
X6973594Y-9985580D02*
X6954546Y-9995104D01*
X6954546Y-9995104D02*
X6935499Y-9995104D01*
X6935499Y-9995104D02*
X6916451Y-9985580D01*
X6916451Y-9985580D02*
X6906927Y-9976056D01*
X6906927Y-9976056D02*
X6897403Y-9957009D01*
X6897403Y-9957009D02*
X6887880Y-9918913D01*
X6887880Y-9918913D02*
X6887880Y-9871294D01*
X6887880Y-9871294D02*
X6897403Y-9833199D01*
X6897403Y-9833199D02*
X6906927Y-9814151D01*
X6906927Y-9814151D02*
X6916451Y-9804628D01*
X6916451Y-9804628D02*
X6935499Y-9795104D01*
X7087880Y-9995104D02*
X7087880Y-9861770D01*
X7087880Y-9880818D02*
X7097403Y-9871294D01*
X7097403Y-9871294D02*
X7116451Y-9861770D01*
X7116451Y-9861770D02*
X7145023Y-9861770D01*
X7145023Y-9861770D02*
X7164070Y-9871294D01*
X7164070Y-9871294D02*
X7173594Y-9890342D01*
X7173594Y-9890342D02*
X7173594Y-9995104D01*
X7173594Y-9890342D02*
X7183118Y-9871294D01*
X7183118Y-9871294D02*
X7202165Y-9861770D01*
X7202165Y-9861770D02*
X7230737Y-9861770D01*
X7230737Y-9861770D02*
X7249784Y-9871294D01*
X7249784Y-9871294D02*
X7259308Y-9890342D01*
X7259308Y-9890342D02*
X7259308Y-9995104D01*
X7354546Y-9995104D02*
X7354546Y-9861770D01*
X7354546Y-9880818D02*
X7364070Y-9871294D01*
X7364070Y-9871294D02*
X7383118Y-9861770D01*
X7383118Y-9861770D02*
X7411689Y-9861770D01*
X7411689Y-9861770D02*
X7430737Y-9871294D01*
X7430737Y-9871294D02*
X7440261Y-9890342D01*
X7440261Y-9890342D02*
X7440261Y-9995104D01*
X7440261Y-9890342D02*
X7449784Y-9871294D01*
X7449784Y-9871294D02*
X7468832Y-9861770D01*
X7468832Y-9861770D02*
X7497403Y-9861770D01*
X7497403Y-9861770D02*
X7516451Y-9871294D01*
X7516451Y-9871294D02*
X7525975Y-9890342D01*
X7525975Y-9890342D02*
X7525975Y-9995104D01*
X7916451Y-9785580D02*
X7745023Y-10042723D01*
X8173594Y-9795104D02*
X8192642Y-9795104D01*
X8192642Y-9795104D02*
X8211689Y-9804628D01*
X8211689Y-9804628D02*
X8221213Y-9814151D01*
X8221213Y-9814151D02*
X8230737Y-9833199D01*
X8230737Y-9833199D02*
X8240261Y-9871294D01*
X8240261Y-9871294D02*
X8240261Y-9918913D01*
X8240261Y-9918913D02*
X8230737Y-9957009D01*
X8230737Y-9957009D02*
X8221213Y-9976056D01*
X8221213Y-9976056D02*
X8211689Y-9985580D01*
X8211689Y-9985580D02*
X8192642Y-9995104D01*
X8192642Y-9995104D02*
X8173594Y-9995104D01*
X8173594Y-9995104D02*
X8154546Y-9985580D01*
X8154546Y-9985580D02*
X8145023Y-9976056D01*
X8145023Y-9976056D02*
X8135499Y-9957009D01*
X8135499Y-9957009D02*
X8125975Y-9918913D01*
X8125975Y-9918913D02*
X8125975Y-9871294D01*
X8125975Y-9871294D02*
X8135499Y-9833199D01*
X8135499Y-9833199D02*
X8145023Y-9814151D01*
X8145023Y-9814151D02*
X8154546Y-9804628D01*
X8154546Y-9804628D02*
X8173594Y-9795104D01*
X8325975Y-9976056D02*
X8335499Y-9985580D01*
X8335499Y-9985580D02*
X8325975Y-9995104D01*
X8325975Y-9995104D02*
X8316451Y-9985580D01*
X8316451Y-9985580D02*
X8325975Y-9976056D01*
X8325975Y-9976056D02*
X8325975Y-9995104D01*
X8459308Y-9795104D02*
X8478356Y-9795104D01*
X8478356Y-9795104D02*
X8497404Y-9804628D01*
X8497404Y-9804628D02*
X8506928Y-9814151D01*
X8506928Y-9814151D02*
X8516451Y-9833199D01*
X8516451Y-9833199D02*
X8525975Y-9871294D01*
X8525975Y-9871294D02*
X8525975Y-9918913D01*
X8525975Y-9918913D02*
X8516451Y-9957009D01*
X8516451Y-9957009D02*
X8506928Y-9976056D01*
X8506928Y-9976056D02*
X8497404Y-9985580D01*
X8497404Y-9985580D02*
X8478356Y-9995104D01*
X8478356Y-9995104D02*
X8459308Y-9995104D01*
X8459308Y-9995104D02*
X8440261Y-9985580D01*
X8440261Y-9985580D02*
X8430737Y-9976056D01*
X8430737Y-9976056D02*
X8421213Y-9957009D01*
X8421213Y-9957009D02*
X8411689Y-9918913D01*
X8411689Y-9918913D02*
X8411689Y-9871294D01*
X8411689Y-9871294D02*
X8421213Y-9833199D01*
X8421213Y-9833199D02*
X8430737Y-9814151D01*
X8430737Y-9814151D02*
X8440261Y-9804628D01*
X8440261Y-9804628D02*
X8459308Y-9795104D01*
X8716451Y-9995104D02*
X8602166Y-9995104D01*
X8659308Y-9995104D02*
X8659308Y-9795104D01*
X8659308Y-9795104D02*
X8640261Y-9823675D01*
X8640261Y-9823675D02*
X8621213Y-9842723D01*
X8621213Y-9842723D02*
X8602166Y-9852247D01*
X8811689Y-9995104D02*
X8849785Y-9995104D01*
X8849785Y-9995104D02*
X8868832Y-9985580D01*
X8868832Y-9985580D02*
X8878356Y-9976056D01*
X8878356Y-9976056D02*
X8897404Y-9947485D01*
X8897404Y-9947485D02*
X8906928Y-9909390D01*
X8906928Y-9909390D02*
X8906928Y-9833199D01*
X8906928Y-9833199D02*
X8897404Y-9814151D01*
X8897404Y-9814151D02*
X8887880Y-9804628D01*
X8887880Y-9804628D02*
X8868832Y-9795104D01*
X8868832Y-9795104D02*
X8830737Y-9795104D01*
X8830737Y-9795104D02*
X8811689Y-9804628D01*
X8811689Y-9804628D02*
X8802166Y-9814151D01*
X8802166Y-9814151D02*
X8792642Y-9833199D01*
X8792642Y-9833199D02*
X8792642Y-9880818D01*
X8792642Y-9880818D02*
X8802166Y-9899866D01*
X8802166Y-9899866D02*
X8811689Y-9909390D01*
X8811689Y-9909390D02*
X8830737Y-9918913D01*
X8830737Y-9918913D02*
X8868832Y-9918913D01*
X8868832Y-9918913D02*
X8887880Y-9909390D01*
X8887880Y-9909390D02*
X8897404Y-9899866D01*
X8897404Y-9899866D02*
X8906928Y-9880818D01*
X8973594Y-9795104D02*
X9106928Y-9795104D01*
X9106928Y-9795104D02*
X9021213Y-9995104D01*
X9173594Y-9795104D02*
X9173594Y-9833199D01*
X9249785Y-9795104D02*
X9249785Y-9833199D01*
X9545023Y-10071294D02*
X9535499Y-10061770D01*
X9535499Y-10061770D02*
X9516451Y-10033199D01*
X9516451Y-10033199D02*
X9506928Y-10014151D01*
X9506928Y-10014151D02*
X9497404Y-9985580D01*
X9497404Y-9985580D02*
X9487880Y-9937961D01*
X9487880Y-9937961D02*
X9487880Y-9899866D01*
X9487880Y-9899866D02*
X9497404Y-9852247D01*
X9497404Y-9852247D02*
X9506928Y-9823675D01*
X9506928Y-9823675D02*
X9516451Y-9804628D01*
X9516451Y-9804628D02*
X9535499Y-9776056D01*
X9535499Y-9776056D02*
X9545023Y-9766532D01*
X9725975Y-9995104D02*
X9611690Y-9995104D01*
X9668832Y-9995104D02*
X9668832Y-9795104D01*
X9668832Y-9795104D02*
X9649785Y-9823675D01*
X9649785Y-9823675D02*
X9630737Y-9842723D01*
X9630737Y-9842723D02*
X9611690Y-9852247D01*
X9792642Y-9795104D02*
X9916451Y-9795104D01*
X9916451Y-9795104D02*
X9849785Y-9871294D01*
X9849785Y-9871294D02*
X9878356Y-9871294D01*
X9878356Y-9871294D02*
X9897404Y-9880818D01*
X9897404Y-9880818D02*
X9906928Y-9890342D01*
X9906928Y-9890342D02*
X9916451Y-9909390D01*
X9916451Y-9909390D02*
X9916451Y-9957009D01*
X9916451Y-9957009D02*
X9906928Y-9976056D01*
X9906928Y-9976056D02*
X9897404Y-9985580D01*
X9897404Y-9985580D02*
X9878356Y-9995104D01*
X9878356Y-9995104D02*
X9821213Y-9995104D01*
X9821213Y-9995104D02*
X9802166Y-9985580D01*
X9802166Y-9985580D02*
X9792642Y-9976056D01*
X10106928Y-9995104D02*
X9992642Y-9995104D01*
X10049785Y-9995104D02*
X10049785Y-9795104D01*
X10049785Y-9795104D02*
X10030737Y-9823675D01*
X10030737Y-9823675D02*
X10011690Y-9842723D01*
X10011690Y-9842723D02*
X9992642Y-9852247D01*
X10345023Y-9995104D02*
X10345023Y-9795104D01*
X10430737Y-9995104D02*
X10430737Y-9890342D01*
X10430737Y-9890342D02*
X10421213Y-9871294D01*
X10421213Y-9871294D02*
X10402166Y-9861770D01*
X10402166Y-9861770D02*
X10373594Y-9861770D01*
X10373594Y-9861770D02*
X10354547Y-9871294D01*
X10354547Y-9871294D02*
X10345023Y-9880818D01*
X10554547Y-9995104D02*
X10535499Y-9985580D01*
X10535499Y-9985580D02*
X10525975Y-9976056D01*
X10525975Y-9976056D02*
X10516452Y-9957009D01*
X10516452Y-9957009D02*
X10516452Y-9899866D01*
X10516452Y-9899866D02*
X10525975Y-9880818D01*
X10525975Y-9880818D02*
X10535499Y-9871294D01*
X10535499Y-9871294D02*
X10554547Y-9861770D01*
X10554547Y-9861770D02*
X10583118Y-9861770D01*
X10583118Y-9861770D02*
X10602166Y-9871294D01*
X10602166Y-9871294D02*
X10611690Y-9880818D01*
X10611690Y-9880818D02*
X10621213Y-9899866D01*
X10621213Y-9899866D02*
X10621213Y-9957009D01*
X10621213Y-9957009D02*
X10611690Y-9976056D01*
X10611690Y-9976056D02*
X10602166Y-9985580D01*
X10602166Y-9985580D02*
X10583118Y-9995104D01*
X10583118Y-9995104D02*
X10554547Y-9995104D01*
X10735499Y-9995104D02*
X10716452Y-9985580D01*
X10716452Y-9985580D02*
X10706928Y-9966532D01*
X10706928Y-9966532D02*
X10706928Y-9795104D01*
X10887880Y-9985580D02*
X10868833Y-9995104D01*
X10868833Y-9995104D02*
X10830737Y-9995104D01*
X10830737Y-9995104D02*
X10811690Y-9985580D01*
X10811690Y-9985580D02*
X10802166Y-9966532D01*
X10802166Y-9966532D02*
X10802166Y-9890342D01*
X10802166Y-9890342D02*
X10811690Y-9871294D01*
X10811690Y-9871294D02*
X10830737Y-9861770D01*
X10830737Y-9861770D02*
X10868833Y-9861770D01*
X10868833Y-9861770D02*
X10887880Y-9871294D01*
X10887880Y-9871294D02*
X10897404Y-9890342D01*
X10897404Y-9890342D02*
X10897404Y-9909390D01*
X10897404Y-9909390D02*
X10802166Y-9928437D01*
X10973594Y-9985580D02*
X10992642Y-9995104D01*
X10992642Y-9995104D02*
X11030737Y-9995104D01*
X11030737Y-9995104D02*
X11049785Y-9985580D01*
X11049785Y-9985580D02*
X11059309Y-9966532D01*
X11059309Y-9966532D02*
X11059309Y-9957009D01*
X11059309Y-9957009D02*
X11049785Y-9937961D01*
X11049785Y-9937961D02*
X11030737Y-9928437D01*
X11030737Y-9928437D02*
X11002166Y-9928437D01*
X11002166Y-9928437D02*
X10983118Y-9918913D01*
X10983118Y-9918913D02*
X10973594Y-9899866D01*
X10973594Y-9899866D02*
X10973594Y-9890342D01*
X10973594Y-9890342D02*
X10983118Y-9871294D01*
X10983118Y-9871294D02*
X11002166Y-9861770D01*
X11002166Y-9861770D02*
X11030737Y-9861770D01*
X11030737Y-9861770D02*
X11049785Y-9871294D01*
X11125975Y-10071294D02*
X11135499Y-10061770D01*
X11135499Y-10061770D02*
X11154547Y-10033199D01*
X11154547Y-10033199D02*
X11164071Y-10014151D01*
X11164071Y-10014151D02*
X11173594Y-9985580D01*
X11173594Y-9985580D02*
X11183118Y-9937961D01*
X11183118Y-9937961D02*
X11183118Y-9899866D01*
X11183118Y-9899866D02*
X11173594Y-9852247D01*
X11173594Y-9852247D02*
X11164071Y-9823675D01*
X11164071Y-9823675D02*
X11154547Y-9804628D01*
X11154547Y-9804628D02*
X11135499Y-9776056D01*
X11135499Y-9776056D02*
X11125975Y-9766532D01*
D12*
X5944960Y-10142620D02*
X5944960Y-10192620D01*
X5919960Y-10167620D02*
X5969960Y-10167620D01*
D11*
X6268832Y-10059104D02*
X6287880Y-10059104D01*
X6287880Y-10059104D02*
X6306927Y-10068628D01*
X6306927Y-10068628D02*
X6316451Y-10078151D01*
X6316451Y-10078151D02*
X6325975Y-10097199D01*
X6325975Y-10097199D02*
X6335499Y-10135294D01*
X6335499Y-10135294D02*
X6335499Y-10182913D01*
X6335499Y-10182913D02*
X6325975Y-10221009D01*
X6325975Y-10221009D02*
X6316451Y-10240056D01*
X6316451Y-10240056D02*
X6306927Y-10249580D01*
X6306927Y-10249580D02*
X6287880Y-10259104D01*
X6287880Y-10259104D02*
X6268832Y-10259104D01*
X6268832Y-10259104D02*
X6249784Y-10249580D01*
X6249784Y-10249580D02*
X6240261Y-10240056D01*
X6240261Y-10240056D02*
X6230737Y-10221009D01*
X6230737Y-10221009D02*
X6221213Y-10182913D01*
X6221213Y-10182913D02*
X6221213Y-10135294D01*
X6221213Y-10135294D02*
X6230737Y-10097199D01*
X6230737Y-10097199D02*
X6240261Y-10078151D01*
X6240261Y-10078151D02*
X6249784Y-10068628D01*
X6249784Y-10068628D02*
X6268832Y-10059104D01*
X6421213Y-10240056D02*
X6430737Y-10249580D01*
X6430737Y-10249580D02*
X6421213Y-10259104D01*
X6421213Y-10259104D02*
X6411689Y-10249580D01*
X6411689Y-10249580D02*
X6421213Y-10240056D01*
X6421213Y-10240056D02*
X6421213Y-10259104D01*
X6611689Y-10059104D02*
X6516451Y-10059104D01*
X6516451Y-10059104D02*
X6506927Y-10154342D01*
X6506927Y-10154342D02*
X6516451Y-10144818D01*
X6516451Y-10144818D02*
X6535499Y-10135294D01*
X6535499Y-10135294D02*
X6583118Y-10135294D01*
X6583118Y-10135294D02*
X6602165Y-10144818D01*
X6602165Y-10144818D02*
X6611689Y-10154342D01*
X6611689Y-10154342D02*
X6621213Y-10173390D01*
X6621213Y-10173390D02*
X6621213Y-10221009D01*
X6621213Y-10221009D02*
X6611689Y-10240056D01*
X6611689Y-10240056D02*
X6602165Y-10249580D01*
X6602165Y-10249580D02*
X6583118Y-10259104D01*
X6583118Y-10259104D02*
X6535499Y-10259104D01*
X6535499Y-10259104D02*
X6516451Y-10249580D01*
X6516451Y-10249580D02*
X6506927Y-10240056D01*
X6745022Y-10059104D02*
X6764070Y-10059104D01*
X6764070Y-10059104D02*
X6783118Y-10068628D01*
X6783118Y-10068628D02*
X6792642Y-10078151D01*
X6792642Y-10078151D02*
X6802165Y-10097199D01*
X6802165Y-10097199D02*
X6811689Y-10135294D01*
X6811689Y-10135294D02*
X6811689Y-10182913D01*
X6811689Y-10182913D02*
X6802165Y-10221009D01*
X6802165Y-10221009D02*
X6792642Y-10240056D01*
X6792642Y-10240056D02*
X6783118Y-10249580D01*
X6783118Y-10249580D02*
X6764070Y-10259104D01*
X6764070Y-10259104D02*
X6745022Y-10259104D01*
X6745022Y-10259104D02*
X6725975Y-10249580D01*
X6725975Y-10249580D02*
X6716451Y-10240056D01*
X6716451Y-10240056D02*
X6706927Y-10221009D01*
X6706927Y-10221009D02*
X6697403Y-10182913D01*
X6697403Y-10182913D02*
X6697403Y-10135294D01*
X6697403Y-10135294D02*
X6706927Y-10097199D01*
X6706927Y-10097199D02*
X6716451Y-10078151D01*
X6716451Y-10078151D02*
X6725975Y-10068628D01*
X6725975Y-10068628D02*
X6745022Y-10059104D01*
X6935499Y-10059104D02*
X6954546Y-10059104D01*
X6954546Y-10059104D02*
X6973594Y-10068628D01*
X6973594Y-10068628D02*
X6983118Y-10078151D01*
X6983118Y-10078151D02*
X6992642Y-10097199D01*
X6992642Y-10097199D02*
X7002165Y-10135294D01*
X7002165Y-10135294D02*
X7002165Y-10182913D01*
X7002165Y-10182913D02*
X6992642Y-10221009D01*
X6992642Y-10221009D02*
X6983118Y-10240056D01*
X6983118Y-10240056D02*
X6973594Y-10249580D01*
X6973594Y-10249580D02*
X6954546Y-10259104D01*
X6954546Y-10259104D02*
X6935499Y-10259104D01*
X6935499Y-10259104D02*
X6916451Y-10249580D01*
X6916451Y-10249580D02*
X6906927Y-10240056D01*
X6906927Y-10240056D02*
X6897403Y-10221009D01*
X6897403Y-10221009D02*
X6887880Y-10182913D01*
X6887880Y-10182913D02*
X6887880Y-10135294D01*
X6887880Y-10135294D02*
X6897403Y-10097199D01*
X6897403Y-10097199D02*
X6906927Y-10078151D01*
X6906927Y-10078151D02*
X6916451Y-10068628D01*
X6916451Y-10068628D02*
X6935499Y-10059104D01*
X7087880Y-10259104D02*
X7087880Y-10125770D01*
X7087880Y-10144818D02*
X7097403Y-10135294D01*
X7097403Y-10135294D02*
X7116451Y-10125770D01*
X7116451Y-10125770D02*
X7145023Y-10125770D01*
X7145023Y-10125770D02*
X7164070Y-10135294D01*
X7164070Y-10135294D02*
X7173594Y-10154342D01*
X7173594Y-10154342D02*
X7173594Y-10259104D01*
X7173594Y-10154342D02*
X7183118Y-10135294D01*
X7183118Y-10135294D02*
X7202165Y-10125770D01*
X7202165Y-10125770D02*
X7230737Y-10125770D01*
X7230737Y-10125770D02*
X7249784Y-10135294D01*
X7249784Y-10135294D02*
X7259308Y-10154342D01*
X7259308Y-10154342D02*
X7259308Y-10259104D01*
X7354546Y-10259104D02*
X7354546Y-10125770D01*
X7354546Y-10144818D02*
X7364070Y-10135294D01*
X7364070Y-10135294D02*
X7383118Y-10125770D01*
X7383118Y-10125770D02*
X7411689Y-10125770D01*
X7411689Y-10125770D02*
X7430737Y-10135294D01*
X7430737Y-10135294D02*
X7440261Y-10154342D01*
X7440261Y-10154342D02*
X7440261Y-10259104D01*
X7440261Y-10154342D02*
X7449784Y-10135294D01*
X7449784Y-10135294D02*
X7468832Y-10125770D01*
X7468832Y-10125770D02*
X7497403Y-10125770D01*
X7497403Y-10125770D02*
X7516451Y-10135294D01*
X7516451Y-10135294D02*
X7525975Y-10154342D01*
X7525975Y-10154342D02*
X7525975Y-10259104D01*
X7916451Y-10049580D02*
X7745023Y-10306723D01*
X8173594Y-10059104D02*
X8192642Y-10059104D01*
X8192642Y-10059104D02*
X8211689Y-10068628D01*
X8211689Y-10068628D02*
X8221213Y-10078151D01*
X8221213Y-10078151D02*
X8230737Y-10097199D01*
X8230737Y-10097199D02*
X8240261Y-10135294D01*
X8240261Y-10135294D02*
X8240261Y-10182913D01*
X8240261Y-10182913D02*
X8230737Y-10221009D01*
X8230737Y-10221009D02*
X8221213Y-10240056D01*
X8221213Y-10240056D02*
X8211689Y-10249580D01*
X8211689Y-10249580D02*
X8192642Y-10259104D01*
X8192642Y-10259104D02*
X8173594Y-10259104D01*
X8173594Y-10259104D02*
X8154546Y-10249580D01*
X8154546Y-10249580D02*
X8145023Y-10240056D01*
X8145023Y-10240056D02*
X8135499Y-10221009D01*
X8135499Y-10221009D02*
X8125975Y-10182913D01*
X8125975Y-10182913D02*
X8125975Y-10135294D01*
X8125975Y-10135294D02*
X8135499Y-10097199D01*
X8135499Y-10097199D02*
X8145023Y-10078151D01*
X8145023Y-10078151D02*
X8154546Y-10068628D01*
X8154546Y-10068628D02*
X8173594Y-10059104D01*
X8325975Y-10240056D02*
X8335499Y-10249580D01*
X8335499Y-10249580D02*
X8325975Y-10259104D01*
X8325975Y-10259104D02*
X8316451Y-10249580D01*
X8316451Y-10249580D02*
X8325975Y-10240056D01*
X8325975Y-10240056D02*
X8325975Y-10259104D01*
X8459308Y-10059104D02*
X8478356Y-10059104D01*
X8478356Y-10059104D02*
X8497404Y-10068628D01*
X8497404Y-10068628D02*
X8506928Y-10078151D01*
X8506928Y-10078151D02*
X8516451Y-10097199D01*
X8516451Y-10097199D02*
X8525975Y-10135294D01*
X8525975Y-10135294D02*
X8525975Y-10182913D01*
X8525975Y-10182913D02*
X8516451Y-10221009D01*
X8516451Y-10221009D02*
X8506928Y-10240056D01*
X8506928Y-10240056D02*
X8497404Y-10249580D01*
X8497404Y-10249580D02*
X8478356Y-10259104D01*
X8478356Y-10259104D02*
X8459308Y-10259104D01*
X8459308Y-10259104D02*
X8440261Y-10249580D01*
X8440261Y-10249580D02*
X8430737Y-10240056D01*
X8430737Y-10240056D02*
X8421213Y-10221009D01*
X8421213Y-10221009D02*
X8411689Y-10182913D01*
X8411689Y-10182913D02*
X8411689Y-10135294D01*
X8411689Y-10135294D02*
X8421213Y-10097199D01*
X8421213Y-10097199D02*
X8430737Y-10078151D01*
X8430737Y-10078151D02*
X8440261Y-10068628D01*
X8440261Y-10068628D02*
X8459308Y-10059104D01*
X8716451Y-10259104D02*
X8602166Y-10259104D01*
X8659308Y-10259104D02*
X8659308Y-10059104D01*
X8659308Y-10059104D02*
X8640261Y-10087675D01*
X8640261Y-10087675D02*
X8621213Y-10106723D01*
X8621213Y-10106723D02*
X8602166Y-10116247D01*
X8811689Y-10259104D02*
X8849785Y-10259104D01*
X8849785Y-10259104D02*
X8868832Y-10249580D01*
X8868832Y-10249580D02*
X8878356Y-10240056D01*
X8878356Y-10240056D02*
X8897404Y-10211485D01*
X8897404Y-10211485D02*
X8906928Y-10173390D01*
X8906928Y-10173390D02*
X8906928Y-10097199D01*
X8906928Y-10097199D02*
X8897404Y-10078151D01*
X8897404Y-10078151D02*
X8887880Y-10068628D01*
X8887880Y-10068628D02*
X8868832Y-10059104D01*
X8868832Y-10059104D02*
X8830737Y-10059104D01*
X8830737Y-10059104D02*
X8811689Y-10068628D01*
X8811689Y-10068628D02*
X8802166Y-10078151D01*
X8802166Y-10078151D02*
X8792642Y-10097199D01*
X8792642Y-10097199D02*
X8792642Y-10144818D01*
X8792642Y-10144818D02*
X8802166Y-10163866D01*
X8802166Y-10163866D02*
X8811689Y-10173390D01*
X8811689Y-10173390D02*
X8830737Y-10182913D01*
X8830737Y-10182913D02*
X8868832Y-10182913D01*
X8868832Y-10182913D02*
X8887880Y-10173390D01*
X8887880Y-10173390D02*
X8897404Y-10163866D01*
X8897404Y-10163866D02*
X8906928Y-10144818D01*
X8973594Y-10059104D02*
X9106928Y-10059104D01*
X9106928Y-10059104D02*
X9021213Y-10259104D01*
X9173594Y-10059104D02*
X9173594Y-10097199D01*
X9249785Y-10059104D02*
X9249785Y-10097199D01*
X9545023Y-10335294D02*
X9535499Y-10325770D01*
X9535499Y-10325770D02*
X9516451Y-10297199D01*
X9516451Y-10297199D02*
X9506928Y-10278151D01*
X9506928Y-10278151D02*
X9497404Y-10249580D01*
X9497404Y-10249580D02*
X9487880Y-10201961D01*
X9487880Y-10201961D02*
X9487880Y-10163866D01*
X9487880Y-10163866D02*
X9497404Y-10116247D01*
X9497404Y-10116247D02*
X9506928Y-10087675D01*
X9506928Y-10087675D02*
X9516451Y-10068628D01*
X9516451Y-10068628D02*
X9535499Y-10040056D01*
X9535499Y-10040056D02*
X9545023Y-10030532D01*
X9659309Y-10059104D02*
X9678356Y-10059104D01*
X9678356Y-10059104D02*
X9697404Y-10068628D01*
X9697404Y-10068628D02*
X9706928Y-10078151D01*
X9706928Y-10078151D02*
X9716451Y-10097199D01*
X9716451Y-10097199D02*
X9725975Y-10135294D01*
X9725975Y-10135294D02*
X9725975Y-10182913D01*
X9725975Y-10182913D02*
X9716451Y-10221009D01*
X9716451Y-10221009D02*
X9706928Y-10240056D01*
X9706928Y-10240056D02*
X9697404Y-10249580D01*
X9697404Y-10249580D02*
X9678356Y-10259104D01*
X9678356Y-10259104D02*
X9659309Y-10259104D01*
X9659309Y-10259104D02*
X9640261Y-10249580D01*
X9640261Y-10249580D02*
X9630737Y-10240056D01*
X9630737Y-10240056D02*
X9621213Y-10221009D01*
X9621213Y-10221009D02*
X9611690Y-10182913D01*
X9611690Y-10182913D02*
X9611690Y-10135294D01*
X9611690Y-10135294D02*
X9621213Y-10097199D01*
X9621213Y-10097199D02*
X9630737Y-10078151D01*
X9630737Y-10078151D02*
X9640261Y-10068628D01*
X9640261Y-10068628D02*
X9659309Y-10059104D01*
X9964071Y-10259104D02*
X9964071Y-10059104D01*
X10049785Y-10259104D02*
X10049785Y-10154342D01*
X10049785Y-10154342D02*
X10040261Y-10135294D01*
X10040261Y-10135294D02*
X10021213Y-10125770D01*
X10021213Y-10125770D02*
X9992642Y-10125770D01*
X9992642Y-10125770D02*
X9973594Y-10135294D01*
X9973594Y-10135294D02*
X9964071Y-10144818D01*
X10173594Y-10259104D02*
X10154547Y-10249580D01*
X10154547Y-10249580D02*
X10145023Y-10240056D01*
X10145023Y-10240056D02*
X10135499Y-10221009D01*
X10135499Y-10221009D02*
X10135499Y-10163866D01*
X10135499Y-10163866D02*
X10145023Y-10144818D01*
X10145023Y-10144818D02*
X10154547Y-10135294D01*
X10154547Y-10135294D02*
X10173594Y-10125770D01*
X10173594Y-10125770D02*
X10202166Y-10125770D01*
X10202166Y-10125770D02*
X10221213Y-10135294D01*
X10221213Y-10135294D02*
X10230737Y-10144818D01*
X10230737Y-10144818D02*
X10240261Y-10163866D01*
X10240261Y-10163866D02*
X10240261Y-10221009D01*
X10240261Y-10221009D02*
X10230737Y-10240056D01*
X10230737Y-10240056D02*
X10221213Y-10249580D01*
X10221213Y-10249580D02*
X10202166Y-10259104D01*
X10202166Y-10259104D02*
X10173594Y-10259104D01*
X10354547Y-10259104D02*
X10335499Y-10249580D01*
X10335499Y-10249580D02*
X10325975Y-10230532D01*
X10325975Y-10230532D02*
X10325975Y-10059104D01*
X10506928Y-10249580D02*
X10487880Y-10259104D01*
X10487880Y-10259104D02*
X10449785Y-10259104D01*
X10449785Y-10259104D02*
X10430737Y-10249580D01*
X10430737Y-10249580D02*
X10421213Y-10230532D01*
X10421213Y-10230532D02*
X10421213Y-10154342D01*
X10421213Y-10154342D02*
X10430737Y-10135294D01*
X10430737Y-10135294D02*
X10449785Y-10125770D01*
X10449785Y-10125770D02*
X10487880Y-10125770D01*
X10487880Y-10125770D02*
X10506928Y-10135294D01*
X10506928Y-10135294D02*
X10516452Y-10154342D01*
X10516452Y-10154342D02*
X10516452Y-10173390D01*
X10516452Y-10173390D02*
X10421213Y-10192437D01*
X10592642Y-10249580D02*
X10611690Y-10259104D01*
X10611690Y-10259104D02*
X10649785Y-10259104D01*
X10649785Y-10259104D02*
X10668833Y-10249580D01*
X10668833Y-10249580D02*
X10678356Y-10230532D01*
X10678356Y-10230532D02*
X10678356Y-10221009D01*
X10678356Y-10221009D02*
X10668833Y-10201961D01*
X10668833Y-10201961D02*
X10649785Y-10192437D01*
X10649785Y-10192437D02*
X10621213Y-10192437D01*
X10621213Y-10192437D02*
X10602166Y-10182913D01*
X10602166Y-10182913D02*
X10592642Y-10163866D01*
X10592642Y-10163866D02*
X10592642Y-10154342D01*
X10592642Y-10154342D02*
X10602166Y-10135294D01*
X10602166Y-10135294D02*
X10621213Y-10125770D01*
X10621213Y-10125770D02*
X10649785Y-10125770D01*
X10649785Y-10125770D02*
X10668833Y-10135294D01*
X10916452Y-10182913D02*
X11068833Y-10182913D01*
X10992642Y-10259104D02*
X10992642Y-10106723D01*
X11306928Y-10078151D02*
X11316452Y-10068628D01*
X11316452Y-10068628D02*
X11335499Y-10059104D01*
X11335499Y-10059104D02*
X11383118Y-10059104D01*
X11383118Y-10059104D02*
X11402166Y-10068628D01*
X11402166Y-10068628D02*
X11411690Y-10078151D01*
X11411690Y-10078151D02*
X11421213Y-10097199D01*
X11421213Y-10097199D02*
X11421213Y-10116247D01*
X11421213Y-10116247D02*
X11411690Y-10144818D01*
X11411690Y-10144818D02*
X11297404Y-10259104D01*
X11297404Y-10259104D02*
X11421213Y-10259104D01*
X11649785Y-10249580D02*
X11668833Y-10259104D01*
X11668833Y-10259104D02*
X11706928Y-10259104D01*
X11706928Y-10259104D02*
X11725975Y-10249580D01*
X11725975Y-10249580D02*
X11735499Y-10230532D01*
X11735499Y-10230532D02*
X11735499Y-10221009D01*
X11735499Y-10221009D02*
X11725975Y-10201961D01*
X11725975Y-10201961D02*
X11706928Y-10192437D01*
X11706928Y-10192437D02*
X11678356Y-10192437D01*
X11678356Y-10192437D02*
X11659309Y-10182913D01*
X11659309Y-10182913D02*
X11649785Y-10163866D01*
X11649785Y-10163866D02*
X11649785Y-10154342D01*
X11649785Y-10154342D02*
X11659309Y-10135294D01*
X11659309Y-10135294D02*
X11678356Y-10125770D01*
X11678356Y-10125770D02*
X11706928Y-10125770D01*
X11706928Y-10125770D02*
X11725975Y-10135294D01*
X11849785Y-10259104D02*
X11830737Y-10249580D01*
X11830737Y-10249580D02*
X11821214Y-10230532D01*
X11821214Y-10230532D02*
X11821214Y-10059104D01*
X11954547Y-10259104D02*
X11935499Y-10249580D01*
X11935499Y-10249580D02*
X11925975Y-10240056D01*
X11925975Y-10240056D02*
X11916452Y-10221009D01*
X11916452Y-10221009D02*
X11916452Y-10163866D01*
X11916452Y-10163866D02*
X11925975Y-10144818D01*
X11925975Y-10144818D02*
X11935499Y-10135294D01*
X11935499Y-10135294D02*
X11954547Y-10125770D01*
X11954547Y-10125770D02*
X11983118Y-10125770D01*
X11983118Y-10125770D02*
X12002166Y-10135294D01*
X12002166Y-10135294D02*
X12011690Y-10144818D01*
X12011690Y-10144818D02*
X12021214Y-10163866D01*
X12021214Y-10163866D02*
X12021214Y-10221009D01*
X12021214Y-10221009D02*
X12011690Y-10240056D01*
X12011690Y-10240056D02*
X12002166Y-10249580D01*
X12002166Y-10249580D02*
X11983118Y-10259104D01*
X11983118Y-10259104D02*
X11954547Y-10259104D01*
X12078356Y-10125770D02*
X12154547Y-10125770D01*
X12106928Y-10059104D02*
X12106928Y-10230532D01*
X12106928Y-10230532D02*
X12116452Y-10249580D01*
X12116452Y-10249580D02*
X12135499Y-10259104D01*
X12135499Y-10259104D02*
X12154547Y-10259104D01*
X12211690Y-10249580D02*
X12230737Y-10259104D01*
X12230737Y-10259104D02*
X12268833Y-10259104D01*
X12268833Y-10259104D02*
X12287880Y-10249580D01*
X12287880Y-10249580D02*
X12297404Y-10230532D01*
X12297404Y-10230532D02*
X12297404Y-10221009D01*
X12297404Y-10221009D02*
X12287880Y-10201961D01*
X12287880Y-10201961D02*
X12268833Y-10192437D01*
X12268833Y-10192437D02*
X12240261Y-10192437D01*
X12240261Y-10192437D02*
X12221214Y-10182913D01*
X12221214Y-10182913D02*
X12211690Y-10163866D01*
X12211690Y-10163866D02*
X12211690Y-10154342D01*
X12211690Y-10154342D02*
X12221214Y-10135294D01*
X12221214Y-10135294D02*
X12240261Y-10125770D01*
X12240261Y-10125770D02*
X12268833Y-10125770D01*
X12268833Y-10125770D02*
X12287880Y-10135294D01*
X12364071Y-10335294D02*
X12373595Y-10325770D01*
X12373595Y-10325770D02*
X12392642Y-10297199D01*
X12392642Y-10297199D02*
X12402166Y-10278151D01*
X12402166Y-10278151D02*
X12411690Y-10249580D01*
X12411690Y-10249580D02*
X12421214Y-10201961D01*
X12421214Y-10201961D02*
X12421214Y-10163866D01*
X12421214Y-10163866D02*
X12411690Y-10116247D01*
X12411690Y-10116247D02*
X12402166Y-10087675D01*
X12402166Y-10087675D02*
X12392642Y-10068628D01*
X12392642Y-10068628D02*
X12373595Y-10040056D01*
X12373595Y-10040056D02*
X12364071Y-10030532D01*
D12*
X5961173Y-10452833D02*
X5961173Y-10410407D01*
X5918747Y-10410407D01*
X5918747Y-10452833D01*
X5961173Y-10452833D01*
D11*
X6268832Y-10323104D02*
X6287880Y-10323104D01*
X6287880Y-10323104D02*
X6306927Y-10332628D01*
X6306927Y-10332628D02*
X6316451Y-10342151D01*
X6316451Y-10342151D02*
X6325975Y-10361199D01*
X6325975Y-10361199D02*
X6335499Y-10399294D01*
X6335499Y-10399294D02*
X6335499Y-10446913D01*
X6335499Y-10446913D02*
X6325975Y-10485009D01*
X6325975Y-10485009D02*
X6316451Y-10504056D01*
X6316451Y-10504056D02*
X6306927Y-10513580D01*
X6306927Y-10513580D02*
X6287880Y-10523104D01*
X6287880Y-10523104D02*
X6268832Y-10523104D01*
X6268832Y-10523104D02*
X6249784Y-10513580D01*
X6249784Y-10513580D02*
X6240261Y-10504056D01*
X6240261Y-10504056D02*
X6230737Y-10485009D01*
X6230737Y-10485009D02*
X6221213Y-10446913D01*
X6221213Y-10446913D02*
X6221213Y-10399294D01*
X6221213Y-10399294D02*
X6230737Y-10361199D01*
X6230737Y-10361199D02*
X6240261Y-10342151D01*
X6240261Y-10342151D02*
X6249784Y-10332628D01*
X6249784Y-10332628D02*
X6268832Y-10323104D01*
X6421213Y-10504056D02*
X6430737Y-10513580D01*
X6430737Y-10513580D02*
X6421213Y-10523104D01*
X6421213Y-10523104D02*
X6411689Y-10513580D01*
X6411689Y-10513580D02*
X6421213Y-10504056D01*
X6421213Y-10504056D02*
X6421213Y-10523104D01*
X6602165Y-10323104D02*
X6564070Y-10323104D01*
X6564070Y-10323104D02*
X6545022Y-10332628D01*
X6545022Y-10332628D02*
X6535499Y-10342151D01*
X6535499Y-10342151D02*
X6516451Y-10370723D01*
X6516451Y-10370723D02*
X6506927Y-10408818D01*
X6506927Y-10408818D02*
X6506927Y-10485009D01*
X6506927Y-10485009D02*
X6516451Y-10504056D01*
X6516451Y-10504056D02*
X6525975Y-10513580D01*
X6525975Y-10513580D02*
X6545022Y-10523104D01*
X6545022Y-10523104D02*
X6583118Y-10523104D01*
X6583118Y-10523104D02*
X6602165Y-10513580D01*
X6602165Y-10513580D02*
X6611689Y-10504056D01*
X6611689Y-10504056D02*
X6621213Y-10485009D01*
X6621213Y-10485009D02*
X6621213Y-10437390D01*
X6621213Y-10437390D02*
X6611689Y-10418342D01*
X6611689Y-10418342D02*
X6602165Y-10408818D01*
X6602165Y-10408818D02*
X6583118Y-10399294D01*
X6583118Y-10399294D02*
X6545022Y-10399294D01*
X6545022Y-10399294D02*
X6525975Y-10408818D01*
X6525975Y-10408818D02*
X6516451Y-10418342D01*
X6516451Y-10418342D02*
X6506927Y-10437390D01*
X6745022Y-10323104D02*
X6764070Y-10323104D01*
X6764070Y-10323104D02*
X6783118Y-10332628D01*
X6783118Y-10332628D02*
X6792642Y-10342151D01*
X6792642Y-10342151D02*
X6802165Y-10361199D01*
X6802165Y-10361199D02*
X6811689Y-10399294D01*
X6811689Y-10399294D02*
X6811689Y-10446913D01*
X6811689Y-10446913D02*
X6802165Y-10485009D01*
X6802165Y-10485009D02*
X6792642Y-10504056D01*
X6792642Y-10504056D02*
X6783118Y-10513580D01*
X6783118Y-10513580D02*
X6764070Y-10523104D01*
X6764070Y-10523104D02*
X6745022Y-10523104D01*
X6745022Y-10523104D02*
X6725975Y-10513580D01*
X6725975Y-10513580D02*
X6716451Y-10504056D01*
X6716451Y-10504056D02*
X6706927Y-10485009D01*
X6706927Y-10485009D02*
X6697403Y-10446913D01*
X6697403Y-10446913D02*
X6697403Y-10399294D01*
X6697403Y-10399294D02*
X6706927Y-10361199D01*
X6706927Y-10361199D02*
X6716451Y-10342151D01*
X6716451Y-10342151D02*
X6725975Y-10332628D01*
X6725975Y-10332628D02*
X6745022Y-10323104D01*
X6935499Y-10323104D02*
X6954546Y-10323104D01*
X6954546Y-10323104D02*
X6973594Y-10332628D01*
X6973594Y-10332628D02*
X6983118Y-10342151D01*
X6983118Y-10342151D02*
X6992642Y-10361199D01*
X6992642Y-10361199D02*
X7002165Y-10399294D01*
X7002165Y-10399294D02*
X7002165Y-10446913D01*
X7002165Y-10446913D02*
X6992642Y-10485009D01*
X6992642Y-10485009D02*
X6983118Y-10504056D01*
X6983118Y-10504056D02*
X6973594Y-10513580D01*
X6973594Y-10513580D02*
X6954546Y-10523104D01*
X6954546Y-10523104D02*
X6935499Y-10523104D01*
X6935499Y-10523104D02*
X6916451Y-10513580D01*
X6916451Y-10513580D02*
X6906927Y-10504056D01*
X6906927Y-10504056D02*
X6897403Y-10485009D01*
X6897403Y-10485009D02*
X6887880Y-10446913D01*
X6887880Y-10446913D02*
X6887880Y-10399294D01*
X6887880Y-10399294D02*
X6897403Y-10361199D01*
X6897403Y-10361199D02*
X6906927Y-10342151D01*
X6906927Y-10342151D02*
X6916451Y-10332628D01*
X6916451Y-10332628D02*
X6935499Y-10323104D01*
X7087880Y-10523104D02*
X7087880Y-10389770D01*
X7087880Y-10408818D02*
X7097403Y-10399294D01*
X7097403Y-10399294D02*
X7116451Y-10389770D01*
X7116451Y-10389770D02*
X7145023Y-10389770D01*
X7145023Y-10389770D02*
X7164070Y-10399294D01*
X7164070Y-10399294D02*
X7173594Y-10418342D01*
X7173594Y-10418342D02*
X7173594Y-10523104D01*
X7173594Y-10418342D02*
X7183118Y-10399294D01*
X7183118Y-10399294D02*
X7202165Y-10389770D01*
X7202165Y-10389770D02*
X7230737Y-10389770D01*
X7230737Y-10389770D02*
X7249784Y-10399294D01*
X7249784Y-10399294D02*
X7259308Y-10418342D01*
X7259308Y-10418342D02*
X7259308Y-10523104D01*
X7354546Y-10523104D02*
X7354546Y-10389770D01*
X7354546Y-10408818D02*
X7364070Y-10399294D01*
X7364070Y-10399294D02*
X7383118Y-10389770D01*
X7383118Y-10389770D02*
X7411689Y-10389770D01*
X7411689Y-10389770D02*
X7430737Y-10399294D01*
X7430737Y-10399294D02*
X7440261Y-10418342D01*
X7440261Y-10418342D02*
X7440261Y-10523104D01*
X7440261Y-10418342D02*
X7449784Y-10399294D01*
X7449784Y-10399294D02*
X7468832Y-10389770D01*
X7468832Y-10389770D02*
X7497403Y-10389770D01*
X7497403Y-10389770D02*
X7516451Y-10399294D01*
X7516451Y-10399294D02*
X7525975Y-10418342D01*
X7525975Y-10418342D02*
X7525975Y-10523104D01*
X7916451Y-10313580D02*
X7745023Y-10570723D01*
X8173594Y-10323104D02*
X8192642Y-10323104D01*
X8192642Y-10323104D02*
X8211689Y-10332628D01*
X8211689Y-10332628D02*
X8221213Y-10342151D01*
X8221213Y-10342151D02*
X8230737Y-10361199D01*
X8230737Y-10361199D02*
X8240261Y-10399294D01*
X8240261Y-10399294D02*
X8240261Y-10446913D01*
X8240261Y-10446913D02*
X8230737Y-10485009D01*
X8230737Y-10485009D02*
X8221213Y-10504056D01*
X8221213Y-10504056D02*
X8211689Y-10513580D01*
X8211689Y-10513580D02*
X8192642Y-10523104D01*
X8192642Y-10523104D02*
X8173594Y-10523104D01*
X8173594Y-10523104D02*
X8154546Y-10513580D01*
X8154546Y-10513580D02*
X8145023Y-10504056D01*
X8145023Y-10504056D02*
X8135499Y-10485009D01*
X8135499Y-10485009D02*
X8125975Y-10446913D01*
X8125975Y-10446913D02*
X8125975Y-10399294D01*
X8125975Y-10399294D02*
X8135499Y-10361199D01*
X8135499Y-10361199D02*
X8145023Y-10342151D01*
X8145023Y-10342151D02*
X8154546Y-10332628D01*
X8154546Y-10332628D02*
X8173594Y-10323104D01*
X8325975Y-10504056D02*
X8335499Y-10513580D01*
X8335499Y-10513580D02*
X8325975Y-10523104D01*
X8325975Y-10523104D02*
X8316451Y-10513580D01*
X8316451Y-10513580D02*
X8325975Y-10504056D01*
X8325975Y-10504056D02*
X8325975Y-10523104D01*
X8459308Y-10323104D02*
X8478356Y-10323104D01*
X8478356Y-10323104D02*
X8497404Y-10332628D01*
X8497404Y-10332628D02*
X8506928Y-10342151D01*
X8506928Y-10342151D02*
X8516451Y-10361199D01*
X8516451Y-10361199D02*
X8525975Y-10399294D01*
X8525975Y-10399294D02*
X8525975Y-10446913D01*
X8525975Y-10446913D02*
X8516451Y-10485009D01*
X8516451Y-10485009D02*
X8506928Y-10504056D01*
X8506928Y-10504056D02*
X8497404Y-10513580D01*
X8497404Y-10513580D02*
X8478356Y-10523104D01*
X8478356Y-10523104D02*
X8459308Y-10523104D01*
X8459308Y-10523104D02*
X8440261Y-10513580D01*
X8440261Y-10513580D02*
X8430737Y-10504056D01*
X8430737Y-10504056D02*
X8421213Y-10485009D01*
X8421213Y-10485009D02*
X8411689Y-10446913D01*
X8411689Y-10446913D02*
X8411689Y-10399294D01*
X8411689Y-10399294D02*
X8421213Y-10361199D01*
X8421213Y-10361199D02*
X8430737Y-10342151D01*
X8430737Y-10342151D02*
X8440261Y-10332628D01*
X8440261Y-10332628D02*
X8459308Y-10323104D01*
X8602166Y-10342151D02*
X8611689Y-10332628D01*
X8611689Y-10332628D02*
X8630737Y-10323104D01*
X8630737Y-10323104D02*
X8678356Y-10323104D01*
X8678356Y-10323104D02*
X8697404Y-10332628D01*
X8697404Y-10332628D02*
X8706928Y-10342151D01*
X8706928Y-10342151D02*
X8716451Y-10361199D01*
X8716451Y-10361199D02*
X8716451Y-10380247D01*
X8716451Y-10380247D02*
X8706928Y-10408818D01*
X8706928Y-10408818D02*
X8592642Y-10523104D01*
X8592642Y-10523104D02*
X8716451Y-10523104D01*
X8783118Y-10323104D02*
X8906928Y-10323104D01*
X8906928Y-10323104D02*
X8840261Y-10399294D01*
X8840261Y-10399294D02*
X8868832Y-10399294D01*
X8868832Y-10399294D02*
X8887880Y-10408818D01*
X8887880Y-10408818D02*
X8897404Y-10418342D01*
X8897404Y-10418342D02*
X8906928Y-10437390D01*
X8906928Y-10437390D02*
X8906928Y-10485009D01*
X8906928Y-10485009D02*
X8897404Y-10504056D01*
X8897404Y-10504056D02*
X8887880Y-10513580D01*
X8887880Y-10513580D02*
X8868832Y-10523104D01*
X8868832Y-10523104D02*
X8811689Y-10523104D01*
X8811689Y-10523104D02*
X8792642Y-10513580D01*
X8792642Y-10513580D02*
X8783118Y-10504056D01*
X9078356Y-10323104D02*
X9040261Y-10323104D01*
X9040261Y-10323104D02*
X9021213Y-10332628D01*
X9021213Y-10332628D02*
X9011689Y-10342151D01*
X9011689Y-10342151D02*
X8992642Y-10370723D01*
X8992642Y-10370723D02*
X8983118Y-10408818D01*
X8983118Y-10408818D02*
X8983118Y-10485009D01*
X8983118Y-10485009D02*
X8992642Y-10504056D01*
X8992642Y-10504056D02*
X9002166Y-10513580D01*
X9002166Y-10513580D02*
X9021213Y-10523104D01*
X9021213Y-10523104D02*
X9059309Y-10523104D01*
X9059309Y-10523104D02*
X9078356Y-10513580D01*
X9078356Y-10513580D02*
X9087880Y-10504056D01*
X9087880Y-10504056D02*
X9097404Y-10485009D01*
X9097404Y-10485009D02*
X9097404Y-10437390D01*
X9097404Y-10437390D02*
X9087880Y-10418342D01*
X9087880Y-10418342D02*
X9078356Y-10408818D01*
X9078356Y-10408818D02*
X9059309Y-10399294D01*
X9059309Y-10399294D02*
X9021213Y-10399294D01*
X9021213Y-10399294D02*
X9002166Y-10408818D01*
X9002166Y-10408818D02*
X8992642Y-10418342D01*
X8992642Y-10418342D02*
X8983118Y-10437390D01*
X9173594Y-10323104D02*
X9173594Y-10361199D01*
X9249785Y-10323104D02*
X9249785Y-10361199D01*
X9545023Y-10599294D02*
X9535499Y-10589770D01*
X9535499Y-10589770D02*
X9516451Y-10561199D01*
X9516451Y-10561199D02*
X9506928Y-10542151D01*
X9506928Y-10542151D02*
X9497404Y-10513580D01*
X9497404Y-10513580D02*
X9487880Y-10465961D01*
X9487880Y-10465961D02*
X9487880Y-10427866D01*
X9487880Y-10427866D02*
X9497404Y-10380247D01*
X9497404Y-10380247D02*
X9506928Y-10351675D01*
X9506928Y-10351675D02*
X9516451Y-10332628D01*
X9516451Y-10332628D02*
X9535499Y-10304056D01*
X9535499Y-10304056D02*
X9545023Y-10294532D01*
X9659309Y-10323104D02*
X9678356Y-10323104D01*
X9678356Y-10323104D02*
X9697404Y-10332628D01*
X9697404Y-10332628D02*
X9706928Y-10342151D01*
X9706928Y-10342151D02*
X9716451Y-10361199D01*
X9716451Y-10361199D02*
X9725975Y-10399294D01*
X9725975Y-10399294D02*
X9725975Y-10446913D01*
X9725975Y-10446913D02*
X9716451Y-10485009D01*
X9716451Y-10485009D02*
X9706928Y-10504056D01*
X9706928Y-10504056D02*
X9697404Y-10513580D01*
X9697404Y-10513580D02*
X9678356Y-10523104D01*
X9678356Y-10523104D02*
X9659309Y-10523104D01*
X9659309Y-10523104D02*
X9640261Y-10513580D01*
X9640261Y-10513580D02*
X9630737Y-10504056D01*
X9630737Y-10504056D02*
X9621213Y-10485009D01*
X9621213Y-10485009D02*
X9611690Y-10446913D01*
X9611690Y-10446913D02*
X9611690Y-10399294D01*
X9611690Y-10399294D02*
X9621213Y-10361199D01*
X9621213Y-10361199D02*
X9630737Y-10342151D01*
X9630737Y-10342151D02*
X9640261Y-10332628D01*
X9640261Y-10332628D02*
X9659309Y-10323104D01*
X9964071Y-10523104D02*
X9964071Y-10323104D01*
X10049785Y-10523104D02*
X10049785Y-10418342D01*
X10049785Y-10418342D02*
X10040261Y-10399294D01*
X10040261Y-10399294D02*
X10021213Y-10389770D01*
X10021213Y-10389770D02*
X9992642Y-10389770D01*
X9992642Y-10389770D02*
X9973594Y-10399294D01*
X9973594Y-10399294D02*
X9964071Y-10408818D01*
X10173594Y-10523104D02*
X10154547Y-10513580D01*
X10154547Y-10513580D02*
X10145023Y-10504056D01*
X10145023Y-10504056D02*
X10135499Y-10485009D01*
X10135499Y-10485009D02*
X10135499Y-10427866D01*
X10135499Y-10427866D02*
X10145023Y-10408818D01*
X10145023Y-10408818D02*
X10154547Y-10399294D01*
X10154547Y-10399294D02*
X10173594Y-10389770D01*
X10173594Y-10389770D02*
X10202166Y-10389770D01*
X10202166Y-10389770D02*
X10221213Y-10399294D01*
X10221213Y-10399294D02*
X10230737Y-10408818D01*
X10230737Y-10408818D02*
X10240261Y-10427866D01*
X10240261Y-10427866D02*
X10240261Y-10485009D01*
X10240261Y-10485009D02*
X10230737Y-10504056D01*
X10230737Y-10504056D02*
X10221213Y-10513580D01*
X10221213Y-10513580D02*
X10202166Y-10523104D01*
X10202166Y-10523104D02*
X10173594Y-10523104D01*
X10354547Y-10523104D02*
X10335499Y-10513580D01*
X10335499Y-10513580D02*
X10325975Y-10494532D01*
X10325975Y-10494532D02*
X10325975Y-10323104D01*
X10506928Y-10513580D02*
X10487880Y-10523104D01*
X10487880Y-10523104D02*
X10449785Y-10523104D01*
X10449785Y-10523104D02*
X10430737Y-10513580D01*
X10430737Y-10513580D02*
X10421213Y-10494532D01*
X10421213Y-10494532D02*
X10421213Y-10418342D01*
X10421213Y-10418342D02*
X10430737Y-10399294D01*
X10430737Y-10399294D02*
X10449785Y-10389770D01*
X10449785Y-10389770D02*
X10487880Y-10389770D01*
X10487880Y-10389770D02*
X10506928Y-10399294D01*
X10506928Y-10399294D02*
X10516452Y-10418342D01*
X10516452Y-10418342D02*
X10516452Y-10437390D01*
X10516452Y-10437390D02*
X10421213Y-10456437D01*
X10592642Y-10513580D02*
X10611690Y-10523104D01*
X10611690Y-10523104D02*
X10649785Y-10523104D01*
X10649785Y-10523104D02*
X10668833Y-10513580D01*
X10668833Y-10513580D02*
X10678356Y-10494532D01*
X10678356Y-10494532D02*
X10678356Y-10485009D01*
X10678356Y-10485009D02*
X10668833Y-10465961D01*
X10668833Y-10465961D02*
X10649785Y-10456437D01*
X10649785Y-10456437D02*
X10621213Y-10456437D01*
X10621213Y-10456437D02*
X10602166Y-10446913D01*
X10602166Y-10446913D02*
X10592642Y-10427866D01*
X10592642Y-10427866D02*
X10592642Y-10418342D01*
X10592642Y-10418342D02*
X10602166Y-10399294D01*
X10602166Y-10399294D02*
X10621213Y-10389770D01*
X10621213Y-10389770D02*
X10649785Y-10389770D01*
X10649785Y-10389770D02*
X10668833Y-10399294D01*
X10916452Y-10446913D02*
X11068833Y-10446913D01*
X10992642Y-10523104D02*
X10992642Y-10370723D01*
X11306928Y-10342151D02*
X11316452Y-10332628D01*
X11316452Y-10332628D02*
X11335499Y-10323104D01*
X11335499Y-10323104D02*
X11383118Y-10323104D01*
X11383118Y-10323104D02*
X11402166Y-10332628D01*
X11402166Y-10332628D02*
X11411690Y-10342151D01*
X11411690Y-10342151D02*
X11421213Y-10361199D01*
X11421213Y-10361199D02*
X11421213Y-10380247D01*
X11421213Y-10380247D02*
X11411690Y-10408818D01*
X11411690Y-10408818D02*
X11297404Y-10523104D01*
X11297404Y-10523104D02*
X11421213Y-10523104D01*
X11649785Y-10513580D02*
X11668833Y-10523104D01*
X11668833Y-10523104D02*
X11706928Y-10523104D01*
X11706928Y-10523104D02*
X11725975Y-10513580D01*
X11725975Y-10513580D02*
X11735499Y-10494532D01*
X11735499Y-10494532D02*
X11735499Y-10485009D01*
X11735499Y-10485009D02*
X11725975Y-10465961D01*
X11725975Y-10465961D02*
X11706928Y-10456437D01*
X11706928Y-10456437D02*
X11678356Y-10456437D01*
X11678356Y-10456437D02*
X11659309Y-10446913D01*
X11659309Y-10446913D02*
X11649785Y-10427866D01*
X11649785Y-10427866D02*
X11649785Y-10418342D01*
X11649785Y-10418342D02*
X11659309Y-10399294D01*
X11659309Y-10399294D02*
X11678356Y-10389770D01*
X11678356Y-10389770D02*
X11706928Y-10389770D01*
X11706928Y-10389770D02*
X11725975Y-10399294D01*
X11849785Y-10523104D02*
X11830737Y-10513580D01*
X11830737Y-10513580D02*
X11821214Y-10494532D01*
X11821214Y-10494532D02*
X11821214Y-10323104D01*
X11954547Y-10523104D02*
X11935499Y-10513580D01*
X11935499Y-10513580D02*
X11925975Y-10504056D01*
X11925975Y-10504056D02*
X11916452Y-10485009D01*
X11916452Y-10485009D02*
X11916452Y-10427866D01*
X11916452Y-10427866D02*
X11925975Y-10408818D01*
X11925975Y-10408818D02*
X11935499Y-10399294D01*
X11935499Y-10399294D02*
X11954547Y-10389770D01*
X11954547Y-10389770D02*
X11983118Y-10389770D01*
X11983118Y-10389770D02*
X12002166Y-10399294D01*
X12002166Y-10399294D02*
X12011690Y-10408818D01*
X12011690Y-10408818D02*
X12021214Y-10427866D01*
X12021214Y-10427866D02*
X12021214Y-10485009D01*
X12021214Y-10485009D02*
X12011690Y-10504056D01*
X12011690Y-10504056D02*
X12002166Y-10513580D01*
X12002166Y-10513580D02*
X11983118Y-10523104D01*
X11983118Y-10523104D02*
X11954547Y-10523104D01*
X12078356Y-10389770D02*
X12154547Y-10389770D01*
X12106928Y-10323104D02*
X12106928Y-10494532D01*
X12106928Y-10494532D02*
X12116452Y-10513580D01*
X12116452Y-10513580D02*
X12135499Y-10523104D01*
X12135499Y-10523104D02*
X12154547Y-10523104D01*
X12211690Y-10513580D02*
X12230737Y-10523104D01*
X12230737Y-10523104D02*
X12268833Y-10523104D01*
X12268833Y-10523104D02*
X12287880Y-10513580D01*
X12287880Y-10513580D02*
X12297404Y-10494532D01*
X12297404Y-10494532D02*
X12297404Y-10485009D01*
X12297404Y-10485009D02*
X12287880Y-10465961D01*
X12287880Y-10465961D02*
X12268833Y-10456437D01*
X12268833Y-10456437D02*
X12240261Y-10456437D01*
X12240261Y-10456437D02*
X12221214Y-10446913D01*
X12221214Y-10446913D02*
X12211690Y-10427866D01*
X12211690Y-10427866D02*
X12211690Y-10418342D01*
X12211690Y-10418342D02*
X12221214Y-10399294D01*
X12221214Y-10399294D02*
X12240261Y-10389770D01*
X12240261Y-10389770D02*
X12268833Y-10389770D01*
X12268833Y-10389770D02*
X12287880Y-10399294D01*
X12364071Y-10599294D02*
X12373595Y-10589770D01*
X12373595Y-10589770D02*
X12392642Y-10561199D01*
X12392642Y-10561199D02*
X12402166Y-10542151D01*
X12402166Y-10542151D02*
X12411690Y-10513580D01*
X12411690Y-10513580D02*
X12421214Y-10465961D01*
X12421214Y-10465961D02*
X12421214Y-10427866D01*
X12421214Y-10427866D02*
X12411690Y-10380247D01*
X12411690Y-10380247D02*
X12402166Y-10351675D01*
X12402166Y-10351675D02*
X12392642Y-10332628D01*
X12392642Y-10332628D02*
X12373595Y-10304056D01*
X12373595Y-10304056D02*
X12364071Y-10294532D01*
D12*
X5919960Y-10745620D02*
X5969960Y-10695620D01*
X5919960Y-10645620D01*
X5869960Y-10695620D01*
X5919960Y-10745620D01*
D11*
X6335499Y-10787104D02*
X6221213Y-10787104D01*
X6278356Y-10787104D02*
X6278356Y-10587104D01*
X6278356Y-10587104D02*
X6259308Y-10615675D01*
X6259308Y-10615675D02*
X6240261Y-10634723D01*
X6240261Y-10634723D02*
X6221213Y-10644247D01*
X6421213Y-10768056D02*
X6430737Y-10777580D01*
X6430737Y-10777580D02*
X6421213Y-10787104D01*
X6421213Y-10787104D02*
X6411689Y-10777580D01*
X6411689Y-10777580D02*
X6421213Y-10768056D01*
X6421213Y-10768056D02*
X6421213Y-10787104D01*
X6554546Y-10587104D02*
X6573594Y-10587104D01*
X6573594Y-10587104D02*
X6592642Y-10596628D01*
X6592642Y-10596628D02*
X6602165Y-10606151D01*
X6602165Y-10606151D02*
X6611689Y-10625199D01*
X6611689Y-10625199D02*
X6621213Y-10663294D01*
X6621213Y-10663294D02*
X6621213Y-10710913D01*
X6621213Y-10710913D02*
X6611689Y-10749009D01*
X6611689Y-10749009D02*
X6602165Y-10768056D01*
X6602165Y-10768056D02*
X6592642Y-10777580D01*
X6592642Y-10777580D02*
X6573594Y-10787104D01*
X6573594Y-10787104D02*
X6554546Y-10787104D01*
X6554546Y-10787104D02*
X6535499Y-10777580D01*
X6535499Y-10777580D02*
X6525975Y-10768056D01*
X6525975Y-10768056D02*
X6516451Y-10749009D01*
X6516451Y-10749009D02*
X6506927Y-10710913D01*
X6506927Y-10710913D02*
X6506927Y-10663294D01*
X6506927Y-10663294D02*
X6516451Y-10625199D01*
X6516451Y-10625199D02*
X6525975Y-10606151D01*
X6525975Y-10606151D02*
X6535499Y-10596628D01*
X6535499Y-10596628D02*
X6554546Y-10587104D01*
X6745022Y-10587104D02*
X6764070Y-10587104D01*
X6764070Y-10587104D02*
X6783118Y-10596628D01*
X6783118Y-10596628D02*
X6792642Y-10606151D01*
X6792642Y-10606151D02*
X6802165Y-10625199D01*
X6802165Y-10625199D02*
X6811689Y-10663294D01*
X6811689Y-10663294D02*
X6811689Y-10710913D01*
X6811689Y-10710913D02*
X6802165Y-10749009D01*
X6802165Y-10749009D02*
X6792642Y-10768056D01*
X6792642Y-10768056D02*
X6783118Y-10777580D01*
X6783118Y-10777580D02*
X6764070Y-10787104D01*
X6764070Y-10787104D02*
X6745022Y-10787104D01*
X6745022Y-10787104D02*
X6725975Y-10777580D01*
X6725975Y-10777580D02*
X6716451Y-10768056D01*
X6716451Y-10768056D02*
X6706927Y-10749009D01*
X6706927Y-10749009D02*
X6697403Y-10710913D01*
X6697403Y-10710913D02*
X6697403Y-10663294D01*
X6697403Y-10663294D02*
X6706927Y-10625199D01*
X6706927Y-10625199D02*
X6716451Y-10606151D01*
X6716451Y-10606151D02*
X6725975Y-10596628D01*
X6725975Y-10596628D02*
X6745022Y-10587104D01*
X6935499Y-10587104D02*
X6954546Y-10587104D01*
X6954546Y-10587104D02*
X6973594Y-10596628D01*
X6973594Y-10596628D02*
X6983118Y-10606151D01*
X6983118Y-10606151D02*
X6992642Y-10625199D01*
X6992642Y-10625199D02*
X7002165Y-10663294D01*
X7002165Y-10663294D02*
X7002165Y-10710913D01*
X7002165Y-10710913D02*
X6992642Y-10749009D01*
X6992642Y-10749009D02*
X6983118Y-10768056D01*
X6983118Y-10768056D02*
X6973594Y-10777580D01*
X6973594Y-10777580D02*
X6954546Y-10787104D01*
X6954546Y-10787104D02*
X6935499Y-10787104D01*
X6935499Y-10787104D02*
X6916451Y-10777580D01*
X6916451Y-10777580D02*
X6906927Y-10768056D01*
X6906927Y-10768056D02*
X6897403Y-10749009D01*
X6897403Y-10749009D02*
X6887880Y-10710913D01*
X6887880Y-10710913D02*
X6887880Y-10663294D01*
X6887880Y-10663294D02*
X6897403Y-10625199D01*
X6897403Y-10625199D02*
X6906927Y-10606151D01*
X6906927Y-10606151D02*
X6916451Y-10596628D01*
X6916451Y-10596628D02*
X6935499Y-10587104D01*
X7087880Y-10787104D02*
X7087880Y-10653770D01*
X7087880Y-10672818D02*
X7097403Y-10663294D01*
X7097403Y-10663294D02*
X7116451Y-10653770D01*
X7116451Y-10653770D02*
X7145023Y-10653770D01*
X7145023Y-10653770D02*
X7164070Y-10663294D01*
X7164070Y-10663294D02*
X7173594Y-10682342D01*
X7173594Y-10682342D02*
X7173594Y-10787104D01*
X7173594Y-10682342D02*
X7183118Y-10663294D01*
X7183118Y-10663294D02*
X7202165Y-10653770D01*
X7202165Y-10653770D02*
X7230737Y-10653770D01*
X7230737Y-10653770D02*
X7249784Y-10663294D01*
X7249784Y-10663294D02*
X7259308Y-10682342D01*
X7259308Y-10682342D02*
X7259308Y-10787104D01*
X7354546Y-10787104D02*
X7354546Y-10653770D01*
X7354546Y-10672818D02*
X7364070Y-10663294D01*
X7364070Y-10663294D02*
X7383118Y-10653770D01*
X7383118Y-10653770D02*
X7411689Y-10653770D01*
X7411689Y-10653770D02*
X7430737Y-10663294D01*
X7430737Y-10663294D02*
X7440261Y-10682342D01*
X7440261Y-10682342D02*
X7440261Y-10787104D01*
X7440261Y-10682342D02*
X7449784Y-10663294D01*
X7449784Y-10663294D02*
X7468832Y-10653770D01*
X7468832Y-10653770D02*
X7497403Y-10653770D01*
X7497403Y-10653770D02*
X7516451Y-10663294D01*
X7516451Y-10663294D02*
X7525975Y-10682342D01*
X7525975Y-10682342D02*
X7525975Y-10787104D01*
X7916451Y-10577580D02*
X7745023Y-10834723D01*
X8173594Y-10587104D02*
X8192642Y-10587104D01*
X8192642Y-10587104D02*
X8211689Y-10596628D01*
X8211689Y-10596628D02*
X8221213Y-10606151D01*
X8221213Y-10606151D02*
X8230737Y-10625199D01*
X8230737Y-10625199D02*
X8240261Y-10663294D01*
X8240261Y-10663294D02*
X8240261Y-10710913D01*
X8240261Y-10710913D02*
X8230737Y-10749009D01*
X8230737Y-10749009D02*
X8221213Y-10768056D01*
X8221213Y-10768056D02*
X8211689Y-10777580D01*
X8211689Y-10777580D02*
X8192642Y-10787104D01*
X8192642Y-10787104D02*
X8173594Y-10787104D01*
X8173594Y-10787104D02*
X8154546Y-10777580D01*
X8154546Y-10777580D02*
X8145023Y-10768056D01*
X8145023Y-10768056D02*
X8135499Y-10749009D01*
X8135499Y-10749009D02*
X8125975Y-10710913D01*
X8125975Y-10710913D02*
X8125975Y-10663294D01*
X8125975Y-10663294D02*
X8135499Y-10625199D01*
X8135499Y-10625199D02*
X8145023Y-10606151D01*
X8145023Y-10606151D02*
X8154546Y-10596628D01*
X8154546Y-10596628D02*
X8173594Y-10587104D01*
X8325975Y-10768056D02*
X8335499Y-10777580D01*
X8335499Y-10777580D02*
X8325975Y-10787104D01*
X8325975Y-10787104D02*
X8316451Y-10777580D01*
X8316451Y-10777580D02*
X8325975Y-10768056D01*
X8325975Y-10768056D02*
X8325975Y-10787104D01*
X8459308Y-10587104D02*
X8478356Y-10587104D01*
X8478356Y-10587104D02*
X8497404Y-10596628D01*
X8497404Y-10596628D02*
X8506928Y-10606151D01*
X8506928Y-10606151D02*
X8516451Y-10625199D01*
X8516451Y-10625199D02*
X8525975Y-10663294D01*
X8525975Y-10663294D02*
X8525975Y-10710913D01*
X8525975Y-10710913D02*
X8516451Y-10749009D01*
X8516451Y-10749009D02*
X8506928Y-10768056D01*
X8506928Y-10768056D02*
X8497404Y-10777580D01*
X8497404Y-10777580D02*
X8478356Y-10787104D01*
X8478356Y-10787104D02*
X8459308Y-10787104D01*
X8459308Y-10787104D02*
X8440261Y-10777580D01*
X8440261Y-10777580D02*
X8430737Y-10768056D01*
X8430737Y-10768056D02*
X8421213Y-10749009D01*
X8421213Y-10749009D02*
X8411689Y-10710913D01*
X8411689Y-10710913D02*
X8411689Y-10663294D01*
X8411689Y-10663294D02*
X8421213Y-10625199D01*
X8421213Y-10625199D02*
X8430737Y-10606151D01*
X8430737Y-10606151D02*
X8440261Y-10596628D01*
X8440261Y-10596628D02*
X8459308Y-10587104D01*
X8592642Y-10587104D02*
X8716451Y-10587104D01*
X8716451Y-10587104D02*
X8649785Y-10663294D01*
X8649785Y-10663294D02*
X8678356Y-10663294D01*
X8678356Y-10663294D02*
X8697404Y-10672818D01*
X8697404Y-10672818D02*
X8706928Y-10682342D01*
X8706928Y-10682342D02*
X8716451Y-10701390D01*
X8716451Y-10701390D02*
X8716451Y-10749009D01*
X8716451Y-10749009D02*
X8706928Y-10768056D01*
X8706928Y-10768056D02*
X8697404Y-10777580D01*
X8697404Y-10777580D02*
X8678356Y-10787104D01*
X8678356Y-10787104D02*
X8621213Y-10787104D01*
X8621213Y-10787104D02*
X8602166Y-10777580D01*
X8602166Y-10777580D02*
X8592642Y-10768056D01*
X8811689Y-10787104D02*
X8849785Y-10787104D01*
X8849785Y-10787104D02*
X8868832Y-10777580D01*
X8868832Y-10777580D02*
X8878356Y-10768056D01*
X8878356Y-10768056D02*
X8897404Y-10739485D01*
X8897404Y-10739485D02*
X8906928Y-10701390D01*
X8906928Y-10701390D02*
X8906928Y-10625199D01*
X8906928Y-10625199D02*
X8897404Y-10606151D01*
X8897404Y-10606151D02*
X8887880Y-10596628D01*
X8887880Y-10596628D02*
X8868832Y-10587104D01*
X8868832Y-10587104D02*
X8830737Y-10587104D01*
X8830737Y-10587104D02*
X8811689Y-10596628D01*
X8811689Y-10596628D02*
X8802166Y-10606151D01*
X8802166Y-10606151D02*
X8792642Y-10625199D01*
X8792642Y-10625199D02*
X8792642Y-10672818D01*
X8792642Y-10672818D02*
X8802166Y-10691866D01*
X8802166Y-10691866D02*
X8811689Y-10701390D01*
X8811689Y-10701390D02*
X8830737Y-10710913D01*
X8830737Y-10710913D02*
X8868832Y-10710913D01*
X8868832Y-10710913D02*
X8887880Y-10701390D01*
X8887880Y-10701390D02*
X8897404Y-10691866D01*
X8897404Y-10691866D02*
X8906928Y-10672818D01*
X9078356Y-10653770D02*
X9078356Y-10787104D01*
X9030737Y-10577580D02*
X8983118Y-10720437D01*
X8983118Y-10720437D02*
X9106928Y-10720437D01*
X9173594Y-10587104D02*
X9173594Y-10625199D01*
X9249785Y-10587104D02*
X9249785Y-10625199D01*
X9545023Y-10863294D02*
X9535499Y-10853770D01*
X9535499Y-10853770D02*
X9516451Y-10825199D01*
X9516451Y-10825199D02*
X9506928Y-10806151D01*
X9506928Y-10806151D02*
X9497404Y-10777580D01*
X9497404Y-10777580D02*
X9487880Y-10729961D01*
X9487880Y-10729961D02*
X9487880Y-10691866D01*
X9487880Y-10691866D02*
X9497404Y-10644247D01*
X9497404Y-10644247D02*
X9506928Y-10615675D01*
X9506928Y-10615675D02*
X9516451Y-10596628D01*
X9516451Y-10596628D02*
X9535499Y-10568056D01*
X9535499Y-10568056D02*
X9545023Y-10558532D01*
X9725975Y-10787104D02*
X9611690Y-10787104D01*
X9668832Y-10787104D02*
X9668832Y-10587104D01*
X9668832Y-10587104D02*
X9649785Y-10615675D01*
X9649785Y-10615675D02*
X9630737Y-10634723D01*
X9630737Y-10634723D02*
X9611690Y-10644247D01*
X9916451Y-10787104D02*
X9802166Y-10787104D01*
X9859309Y-10787104D02*
X9859309Y-10587104D01*
X9859309Y-10587104D02*
X9840261Y-10615675D01*
X9840261Y-10615675D02*
X9821213Y-10634723D01*
X9821213Y-10634723D02*
X9802166Y-10644247D01*
X10011690Y-10787104D02*
X10049785Y-10787104D01*
X10049785Y-10787104D02*
X10068832Y-10777580D01*
X10068832Y-10777580D02*
X10078356Y-10768056D01*
X10078356Y-10768056D02*
X10097404Y-10739485D01*
X10097404Y-10739485D02*
X10106928Y-10701390D01*
X10106928Y-10701390D02*
X10106928Y-10625199D01*
X10106928Y-10625199D02*
X10097404Y-10606151D01*
X10097404Y-10606151D02*
X10087880Y-10596628D01*
X10087880Y-10596628D02*
X10068832Y-10587104D01*
X10068832Y-10587104D02*
X10030737Y-10587104D01*
X10030737Y-10587104D02*
X10011690Y-10596628D01*
X10011690Y-10596628D02*
X10002166Y-10606151D01*
X10002166Y-10606151D02*
X9992642Y-10625199D01*
X9992642Y-10625199D02*
X9992642Y-10672818D01*
X9992642Y-10672818D02*
X10002166Y-10691866D01*
X10002166Y-10691866D02*
X10011690Y-10701390D01*
X10011690Y-10701390D02*
X10030737Y-10710913D01*
X10030737Y-10710913D02*
X10068832Y-10710913D01*
X10068832Y-10710913D02*
X10087880Y-10701390D01*
X10087880Y-10701390D02*
X10097404Y-10691866D01*
X10097404Y-10691866D02*
X10106928Y-10672818D01*
X10345023Y-10787104D02*
X10345023Y-10587104D01*
X10430737Y-10787104D02*
X10430737Y-10682342D01*
X10430737Y-10682342D02*
X10421213Y-10663294D01*
X10421213Y-10663294D02*
X10402166Y-10653770D01*
X10402166Y-10653770D02*
X10373594Y-10653770D01*
X10373594Y-10653770D02*
X10354547Y-10663294D01*
X10354547Y-10663294D02*
X10345023Y-10672818D01*
X10554547Y-10787104D02*
X10535499Y-10777580D01*
X10535499Y-10777580D02*
X10525975Y-10768056D01*
X10525975Y-10768056D02*
X10516452Y-10749009D01*
X10516452Y-10749009D02*
X10516452Y-10691866D01*
X10516452Y-10691866D02*
X10525975Y-10672818D01*
X10525975Y-10672818D02*
X10535499Y-10663294D01*
X10535499Y-10663294D02*
X10554547Y-10653770D01*
X10554547Y-10653770D02*
X10583118Y-10653770D01*
X10583118Y-10653770D02*
X10602166Y-10663294D01*
X10602166Y-10663294D02*
X10611690Y-10672818D01*
X10611690Y-10672818D02*
X10621213Y-10691866D01*
X10621213Y-10691866D02*
X10621213Y-10749009D01*
X10621213Y-10749009D02*
X10611690Y-10768056D01*
X10611690Y-10768056D02*
X10602166Y-10777580D01*
X10602166Y-10777580D02*
X10583118Y-10787104D01*
X10583118Y-10787104D02*
X10554547Y-10787104D01*
X10735499Y-10787104D02*
X10716452Y-10777580D01*
X10716452Y-10777580D02*
X10706928Y-10758532D01*
X10706928Y-10758532D02*
X10706928Y-10587104D01*
X10887880Y-10777580D02*
X10868833Y-10787104D01*
X10868833Y-10787104D02*
X10830737Y-10787104D01*
X10830737Y-10787104D02*
X10811690Y-10777580D01*
X10811690Y-10777580D02*
X10802166Y-10758532D01*
X10802166Y-10758532D02*
X10802166Y-10682342D01*
X10802166Y-10682342D02*
X10811690Y-10663294D01*
X10811690Y-10663294D02*
X10830737Y-10653770D01*
X10830737Y-10653770D02*
X10868833Y-10653770D01*
X10868833Y-10653770D02*
X10887880Y-10663294D01*
X10887880Y-10663294D02*
X10897404Y-10682342D01*
X10897404Y-10682342D02*
X10897404Y-10701390D01*
X10897404Y-10701390D02*
X10802166Y-10720437D01*
X10973594Y-10777580D02*
X10992642Y-10787104D01*
X10992642Y-10787104D02*
X11030737Y-10787104D01*
X11030737Y-10787104D02*
X11049785Y-10777580D01*
X11049785Y-10777580D02*
X11059309Y-10758532D01*
X11059309Y-10758532D02*
X11059309Y-10749009D01*
X11059309Y-10749009D02*
X11049785Y-10729961D01*
X11049785Y-10729961D02*
X11030737Y-10720437D01*
X11030737Y-10720437D02*
X11002166Y-10720437D01*
X11002166Y-10720437D02*
X10983118Y-10710913D01*
X10983118Y-10710913D02*
X10973594Y-10691866D01*
X10973594Y-10691866D02*
X10973594Y-10682342D01*
X10973594Y-10682342D02*
X10983118Y-10663294D01*
X10983118Y-10663294D02*
X11002166Y-10653770D01*
X11002166Y-10653770D02*
X11030737Y-10653770D01*
X11030737Y-10653770D02*
X11049785Y-10663294D01*
X11297404Y-10710913D02*
X11449785Y-10710913D01*
X11373594Y-10787104D02*
X11373594Y-10634723D01*
X11802166Y-10787104D02*
X11687880Y-10787104D01*
X11745023Y-10787104D02*
X11745023Y-10587104D01*
X11745023Y-10587104D02*
X11725975Y-10615675D01*
X11725975Y-10615675D02*
X11706928Y-10634723D01*
X11706928Y-10634723D02*
X11687880Y-10644247D01*
X12030737Y-10777580D02*
X12049785Y-10787104D01*
X12049785Y-10787104D02*
X12087880Y-10787104D01*
X12087880Y-10787104D02*
X12106928Y-10777580D01*
X12106928Y-10777580D02*
X12116452Y-10758532D01*
X12116452Y-10758532D02*
X12116452Y-10749009D01*
X12116452Y-10749009D02*
X12106928Y-10729961D01*
X12106928Y-10729961D02*
X12087880Y-10720437D01*
X12087880Y-10720437D02*
X12059309Y-10720437D01*
X12059309Y-10720437D02*
X12040261Y-10710913D01*
X12040261Y-10710913D02*
X12030737Y-10691866D01*
X12030737Y-10691866D02*
X12030737Y-10682342D01*
X12030737Y-10682342D02*
X12040261Y-10663294D01*
X12040261Y-10663294D02*
X12059309Y-10653770D01*
X12059309Y-10653770D02*
X12087880Y-10653770D01*
X12087880Y-10653770D02*
X12106928Y-10663294D01*
X12230737Y-10787104D02*
X12211690Y-10777580D01*
X12211690Y-10777580D02*
X12202166Y-10758532D01*
X12202166Y-10758532D02*
X12202166Y-10587104D01*
X12335499Y-10787104D02*
X12316452Y-10777580D01*
X12316452Y-10777580D02*
X12306928Y-10768056D01*
X12306928Y-10768056D02*
X12297404Y-10749009D01*
X12297404Y-10749009D02*
X12297404Y-10691866D01*
X12297404Y-10691866D02*
X12306928Y-10672818D01*
X12306928Y-10672818D02*
X12316452Y-10663294D01*
X12316452Y-10663294D02*
X12335499Y-10653770D01*
X12335499Y-10653770D02*
X12364071Y-10653770D01*
X12364071Y-10653770D02*
X12383118Y-10663294D01*
X12383118Y-10663294D02*
X12392642Y-10672818D01*
X12392642Y-10672818D02*
X12402166Y-10691866D01*
X12402166Y-10691866D02*
X12402166Y-10749009D01*
X12402166Y-10749009D02*
X12392642Y-10768056D01*
X12392642Y-10768056D02*
X12383118Y-10777580D01*
X12383118Y-10777580D02*
X12364071Y-10787104D01*
X12364071Y-10787104D02*
X12335499Y-10787104D01*
X12459309Y-10653770D02*
X12535499Y-10653770D01*
X12487880Y-10587104D02*
X12487880Y-10758532D01*
X12487880Y-10758532D02*
X12497404Y-10777580D01*
X12497404Y-10777580D02*
X12516452Y-10787104D01*
X12516452Y-10787104D02*
X12535499Y-10787104D01*
X12583118Y-10863294D02*
X12592642Y-10853770D01*
X12592642Y-10853770D02*
X12611690Y-10825199D01*
X12611690Y-10825199D02*
X12621214Y-10806151D01*
X12621214Y-10806151D02*
X12630737Y-10777580D01*
X12630737Y-10777580D02*
X12640261Y-10729961D01*
X12640261Y-10729961D02*
X12640261Y-10691866D01*
X12640261Y-10691866D02*
X12630737Y-10644247D01*
X12630737Y-10644247D02*
X12621214Y-10615675D01*
X12621214Y-10615675D02*
X12611690Y-10596628D01*
X12611690Y-10596628D02*
X12592642Y-10568056D01*
X12592642Y-10568056D02*
X12583118Y-10558532D01*
X5769960Y-10859620D02*
X5969960Y-11059620D01*
X5969960Y-10859620D02*
X5769960Y-11059620D01*
X5969960Y-10959620D02*
G75*
G02*
X5769960Y-10959620I-100000J0D01*
G01*
X5769960Y-10959620D02*
G75*
G02*
X5969960Y-10959620I100000J0D01*
G01*
X6221213Y-10870151D02*
X6230737Y-10860628D01*
X6230737Y-10860628D02*
X6249784Y-10851104D01*
X6249784Y-10851104D02*
X6297403Y-10851104D01*
X6297403Y-10851104D02*
X6316451Y-10860628D01*
X6316451Y-10860628D02*
X6325975Y-10870151D01*
X6325975Y-10870151D02*
X6335499Y-10889199D01*
X6335499Y-10889199D02*
X6335499Y-10908247D01*
X6335499Y-10908247D02*
X6325975Y-10936818D01*
X6325975Y-10936818D02*
X6211689Y-11051104D01*
X6211689Y-11051104D02*
X6335499Y-11051104D01*
X6421213Y-11032056D02*
X6430737Y-11041580D01*
X6430737Y-11041580D02*
X6421213Y-11051104D01*
X6421213Y-11051104D02*
X6411689Y-11041580D01*
X6411689Y-11041580D02*
X6421213Y-11032056D01*
X6421213Y-11032056D02*
X6421213Y-11051104D01*
X6497403Y-10851104D02*
X6630737Y-10851104D01*
X6630737Y-10851104D02*
X6545022Y-11051104D01*
X6745022Y-10851104D02*
X6764070Y-10851104D01*
X6764070Y-10851104D02*
X6783118Y-10860628D01*
X6783118Y-10860628D02*
X6792642Y-10870151D01*
X6792642Y-10870151D02*
X6802165Y-10889199D01*
X6802165Y-10889199D02*
X6811689Y-10927294D01*
X6811689Y-10927294D02*
X6811689Y-10974913D01*
X6811689Y-10974913D02*
X6802165Y-11013009D01*
X6802165Y-11013009D02*
X6792642Y-11032056D01*
X6792642Y-11032056D02*
X6783118Y-11041580D01*
X6783118Y-11041580D02*
X6764070Y-11051104D01*
X6764070Y-11051104D02*
X6745022Y-11051104D01*
X6745022Y-11051104D02*
X6725975Y-11041580D01*
X6725975Y-11041580D02*
X6716451Y-11032056D01*
X6716451Y-11032056D02*
X6706927Y-11013009D01*
X6706927Y-11013009D02*
X6697403Y-10974913D01*
X6697403Y-10974913D02*
X6697403Y-10927294D01*
X6697403Y-10927294D02*
X6706927Y-10889199D01*
X6706927Y-10889199D02*
X6716451Y-10870151D01*
X6716451Y-10870151D02*
X6725975Y-10860628D01*
X6725975Y-10860628D02*
X6745022Y-10851104D01*
X6935499Y-10851104D02*
X6954546Y-10851104D01*
X6954546Y-10851104D02*
X6973594Y-10860628D01*
X6973594Y-10860628D02*
X6983118Y-10870151D01*
X6983118Y-10870151D02*
X6992642Y-10889199D01*
X6992642Y-10889199D02*
X7002165Y-10927294D01*
X7002165Y-10927294D02*
X7002165Y-10974913D01*
X7002165Y-10974913D02*
X6992642Y-11013009D01*
X6992642Y-11013009D02*
X6983118Y-11032056D01*
X6983118Y-11032056D02*
X6973594Y-11041580D01*
X6973594Y-11041580D02*
X6954546Y-11051104D01*
X6954546Y-11051104D02*
X6935499Y-11051104D01*
X6935499Y-11051104D02*
X6916451Y-11041580D01*
X6916451Y-11041580D02*
X6906927Y-11032056D01*
X6906927Y-11032056D02*
X6897403Y-11013009D01*
X6897403Y-11013009D02*
X6887880Y-10974913D01*
X6887880Y-10974913D02*
X6887880Y-10927294D01*
X6887880Y-10927294D02*
X6897403Y-10889199D01*
X6897403Y-10889199D02*
X6906927Y-10870151D01*
X6906927Y-10870151D02*
X6916451Y-10860628D01*
X6916451Y-10860628D02*
X6935499Y-10851104D01*
X7087880Y-11051104D02*
X7087880Y-10917770D01*
X7087880Y-10936818D02*
X7097403Y-10927294D01*
X7097403Y-10927294D02*
X7116451Y-10917770D01*
X7116451Y-10917770D02*
X7145023Y-10917770D01*
X7145023Y-10917770D02*
X7164070Y-10927294D01*
X7164070Y-10927294D02*
X7173594Y-10946342D01*
X7173594Y-10946342D02*
X7173594Y-11051104D01*
X7173594Y-10946342D02*
X7183118Y-10927294D01*
X7183118Y-10927294D02*
X7202165Y-10917770D01*
X7202165Y-10917770D02*
X7230737Y-10917770D01*
X7230737Y-10917770D02*
X7249784Y-10927294D01*
X7249784Y-10927294D02*
X7259308Y-10946342D01*
X7259308Y-10946342D02*
X7259308Y-11051104D01*
X7354546Y-11051104D02*
X7354546Y-10917770D01*
X7354546Y-10936818D02*
X7364070Y-10927294D01*
X7364070Y-10927294D02*
X7383118Y-10917770D01*
X7383118Y-10917770D02*
X7411689Y-10917770D01*
X7411689Y-10917770D02*
X7430737Y-10927294D01*
X7430737Y-10927294D02*
X7440261Y-10946342D01*
X7440261Y-10946342D02*
X7440261Y-11051104D01*
X7440261Y-10946342D02*
X7449784Y-10927294D01*
X7449784Y-10927294D02*
X7468832Y-10917770D01*
X7468832Y-10917770D02*
X7497403Y-10917770D01*
X7497403Y-10917770D02*
X7516451Y-10927294D01*
X7516451Y-10927294D02*
X7525975Y-10946342D01*
X7525975Y-10946342D02*
X7525975Y-11051104D01*
X7916451Y-10841580D02*
X7745023Y-11098723D01*
X8173594Y-10851104D02*
X8192642Y-10851104D01*
X8192642Y-10851104D02*
X8211689Y-10860628D01*
X8211689Y-10860628D02*
X8221213Y-10870151D01*
X8221213Y-10870151D02*
X8230737Y-10889199D01*
X8230737Y-10889199D02*
X8240261Y-10927294D01*
X8240261Y-10927294D02*
X8240261Y-10974913D01*
X8240261Y-10974913D02*
X8230737Y-11013009D01*
X8230737Y-11013009D02*
X8221213Y-11032056D01*
X8221213Y-11032056D02*
X8211689Y-11041580D01*
X8211689Y-11041580D02*
X8192642Y-11051104D01*
X8192642Y-11051104D02*
X8173594Y-11051104D01*
X8173594Y-11051104D02*
X8154546Y-11041580D01*
X8154546Y-11041580D02*
X8145023Y-11032056D01*
X8145023Y-11032056D02*
X8135499Y-11013009D01*
X8135499Y-11013009D02*
X8125975Y-10974913D01*
X8125975Y-10974913D02*
X8125975Y-10927294D01*
X8125975Y-10927294D02*
X8135499Y-10889199D01*
X8135499Y-10889199D02*
X8145023Y-10870151D01*
X8145023Y-10870151D02*
X8154546Y-10860628D01*
X8154546Y-10860628D02*
X8173594Y-10851104D01*
X8325975Y-11032056D02*
X8335499Y-11041580D01*
X8335499Y-11041580D02*
X8325975Y-11051104D01*
X8325975Y-11051104D02*
X8316451Y-11041580D01*
X8316451Y-11041580D02*
X8325975Y-11032056D01*
X8325975Y-11032056D02*
X8325975Y-11051104D01*
X8525975Y-11051104D02*
X8411689Y-11051104D01*
X8468832Y-11051104D02*
X8468832Y-10851104D01*
X8468832Y-10851104D02*
X8449785Y-10879675D01*
X8449785Y-10879675D02*
X8430737Y-10898723D01*
X8430737Y-10898723D02*
X8411689Y-10908247D01*
X8649785Y-10851104D02*
X8668832Y-10851104D01*
X8668832Y-10851104D02*
X8687880Y-10860628D01*
X8687880Y-10860628D02*
X8697404Y-10870151D01*
X8697404Y-10870151D02*
X8706928Y-10889199D01*
X8706928Y-10889199D02*
X8716451Y-10927294D01*
X8716451Y-10927294D02*
X8716451Y-10974913D01*
X8716451Y-10974913D02*
X8706928Y-11013009D01*
X8706928Y-11013009D02*
X8697404Y-11032056D01*
X8697404Y-11032056D02*
X8687880Y-11041580D01*
X8687880Y-11041580D02*
X8668832Y-11051104D01*
X8668832Y-11051104D02*
X8649785Y-11051104D01*
X8649785Y-11051104D02*
X8630737Y-11041580D01*
X8630737Y-11041580D02*
X8621213Y-11032056D01*
X8621213Y-11032056D02*
X8611689Y-11013009D01*
X8611689Y-11013009D02*
X8602166Y-10974913D01*
X8602166Y-10974913D02*
X8602166Y-10927294D01*
X8602166Y-10927294D02*
X8611689Y-10889199D01*
X8611689Y-10889199D02*
X8621213Y-10870151D01*
X8621213Y-10870151D02*
X8630737Y-10860628D01*
X8630737Y-10860628D02*
X8649785Y-10851104D01*
X8887880Y-10851104D02*
X8849785Y-10851104D01*
X8849785Y-10851104D02*
X8830737Y-10860628D01*
X8830737Y-10860628D02*
X8821213Y-10870151D01*
X8821213Y-10870151D02*
X8802166Y-10898723D01*
X8802166Y-10898723D02*
X8792642Y-10936818D01*
X8792642Y-10936818D02*
X8792642Y-11013009D01*
X8792642Y-11013009D02*
X8802166Y-11032056D01*
X8802166Y-11032056D02*
X8811689Y-11041580D01*
X8811689Y-11041580D02*
X8830737Y-11051104D01*
X8830737Y-11051104D02*
X8868832Y-11051104D01*
X8868832Y-11051104D02*
X8887880Y-11041580D01*
X8887880Y-11041580D02*
X8897404Y-11032056D01*
X8897404Y-11032056D02*
X8906928Y-11013009D01*
X8906928Y-11013009D02*
X8906928Y-10965390D01*
X8906928Y-10965390D02*
X8897404Y-10946342D01*
X8897404Y-10946342D02*
X8887880Y-10936818D01*
X8887880Y-10936818D02*
X8868832Y-10927294D01*
X8868832Y-10927294D02*
X8830737Y-10927294D01*
X8830737Y-10927294D02*
X8811689Y-10936818D01*
X8811689Y-10936818D02*
X8802166Y-10946342D01*
X8802166Y-10946342D02*
X8792642Y-10965390D01*
X8973594Y-10851104D02*
X9097404Y-10851104D01*
X9097404Y-10851104D02*
X9030737Y-10927294D01*
X9030737Y-10927294D02*
X9059309Y-10927294D01*
X9059309Y-10927294D02*
X9078356Y-10936818D01*
X9078356Y-10936818D02*
X9087880Y-10946342D01*
X9087880Y-10946342D02*
X9097404Y-10965390D01*
X9097404Y-10965390D02*
X9097404Y-11013009D01*
X9097404Y-11013009D02*
X9087880Y-11032056D01*
X9087880Y-11032056D02*
X9078356Y-11041580D01*
X9078356Y-11041580D02*
X9059309Y-11051104D01*
X9059309Y-11051104D02*
X9002166Y-11051104D01*
X9002166Y-11051104D02*
X8983118Y-11041580D01*
X8983118Y-11041580D02*
X8973594Y-11032056D01*
X9173594Y-10851104D02*
X9173594Y-10889199D01*
X9249785Y-10851104D02*
X9249785Y-10889199D01*
X9545023Y-11127294D02*
X9535499Y-11117770D01*
X9535499Y-11117770D02*
X9516451Y-11089199D01*
X9516451Y-11089199D02*
X9506928Y-11070151D01*
X9506928Y-11070151D02*
X9497404Y-11041580D01*
X9497404Y-11041580D02*
X9487880Y-10993961D01*
X9487880Y-10993961D02*
X9487880Y-10955866D01*
X9487880Y-10955866D02*
X9497404Y-10908247D01*
X9497404Y-10908247D02*
X9506928Y-10879675D01*
X9506928Y-10879675D02*
X9516451Y-10860628D01*
X9516451Y-10860628D02*
X9535499Y-10832056D01*
X9535499Y-10832056D02*
X9545023Y-10822532D01*
X9611690Y-10870151D02*
X9621213Y-10860628D01*
X9621213Y-10860628D02*
X9640261Y-10851104D01*
X9640261Y-10851104D02*
X9687880Y-10851104D01*
X9687880Y-10851104D02*
X9706928Y-10860628D01*
X9706928Y-10860628D02*
X9716451Y-10870151D01*
X9716451Y-10870151D02*
X9725975Y-10889199D01*
X9725975Y-10889199D02*
X9725975Y-10908247D01*
X9725975Y-10908247D02*
X9716451Y-10936818D01*
X9716451Y-10936818D02*
X9602166Y-11051104D01*
X9602166Y-11051104D02*
X9725975Y-11051104D01*
X9964071Y-11051104D02*
X9964071Y-10851104D01*
X10049785Y-11051104D02*
X10049785Y-10946342D01*
X10049785Y-10946342D02*
X10040261Y-10927294D01*
X10040261Y-10927294D02*
X10021213Y-10917770D01*
X10021213Y-10917770D02*
X9992642Y-10917770D01*
X9992642Y-10917770D02*
X9973594Y-10927294D01*
X9973594Y-10927294D02*
X9964071Y-10936818D01*
X10173594Y-11051104D02*
X10154547Y-11041580D01*
X10154547Y-11041580D02*
X10145023Y-11032056D01*
X10145023Y-11032056D02*
X10135499Y-11013009D01*
X10135499Y-11013009D02*
X10135499Y-10955866D01*
X10135499Y-10955866D02*
X10145023Y-10936818D01*
X10145023Y-10936818D02*
X10154547Y-10927294D01*
X10154547Y-10927294D02*
X10173594Y-10917770D01*
X10173594Y-10917770D02*
X10202166Y-10917770D01*
X10202166Y-10917770D02*
X10221213Y-10927294D01*
X10221213Y-10927294D02*
X10230737Y-10936818D01*
X10230737Y-10936818D02*
X10240261Y-10955866D01*
X10240261Y-10955866D02*
X10240261Y-11013009D01*
X10240261Y-11013009D02*
X10230737Y-11032056D01*
X10230737Y-11032056D02*
X10221213Y-11041580D01*
X10221213Y-11041580D02*
X10202166Y-11051104D01*
X10202166Y-11051104D02*
X10173594Y-11051104D01*
X10354547Y-11051104D02*
X10335499Y-11041580D01*
X10335499Y-11041580D02*
X10325975Y-11022532D01*
X10325975Y-11022532D02*
X10325975Y-10851104D01*
X10506928Y-11041580D02*
X10487880Y-11051104D01*
X10487880Y-11051104D02*
X10449785Y-11051104D01*
X10449785Y-11051104D02*
X10430737Y-11041580D01*
X10430737Y-11041580D02*
X10421213Y-11022532D01*
X10421213Y-11022532D02*
X10421213Y-10946342D01*
X10421213Y-10946342D02*
X10430737Y-10927294D01*
X10430737Y-10927294D02*
X10449785Y-10917770D01*
X10449785Y-10917770D02*
X10487880Y-10917770D01*
X10487880Y-10917770D02*
X10506928Y-10927294D01*
X10506928Y-10927294D02*
X10516452Y-10946342D01*
X10516452Y-10946342D02*
X10516452Y-10965390D01*
X10516452Y-10965390D02*
X10421213Y-10984437D01*
X10592642Y-11041580D02*
X10611690Y-11051104D01*
X10611690Y-11051104D02*
X10649785Y-11051104D01*
X10649785Y-11051104D02*
X10668833Y-11041580D01*
X10668833Y-11041580D02*
X10678356Y-11022532D01*
X10678356Y-11022532D02*
X10678356Y-11013009D01*
X10678356Y-11013009D02*
X10668833Y-10993961D01*
X10668833Y-10993961D02*
X10649785Y-10984437D01*
X10649785Y-10984437D02*
X10621213Y-10984437D01*
X10621213Y-10984437D02*
X10602166Y-10974913D01*
X10602166Y-10974913D02*
X10592642Y-10955866D01*
X10592642Y-10955866D02*
X10592642Y-10946342D01*
X10592642Y-10946342D02*
X10602166Y-10927294D01*
X10602166Y-10927294D02*
X10621213Y-10917770D01*
X10621213Y-10917770D02*
X10649785Y-10917770D01*
X10649785Y-10917770D02*
X10668833Y-10927294D01*
X10745023Y-11127294D02*
X10754547Y-11117770D01*
X10754547Y-11117770D02*
X10773594Y-11089199D01*
X10773594Y-11089199D02*
X10783118Y-11070151D01*
X10783118Y-11070151D02*
X10792642Y-11041580D01*
X10792642Y-11041580D02*
X10802166Y-10993961D01*
X10802166Y-10993961D02*
X10802166Y-10955866D01*
X10802166Y-10955866D02*
X10792642Y-10908247D01*
X10792642Y-10908247D02*
X10783118Y-10879675D01*
X10783118Y-10879675D02*
X10773594Y-10860628D01*
X10773594Y-10860628D02*
X10754547Y-10832056D01*
X10754547Y-10832056D02*
X10745023Y-10822532D01*
X5769960Y-11179620D02*
X5969960Y-11379620D01*
X5969960Y-11179620D02*
X5769960Y-11379620D01*
X5869960Y-11179620D02*
X5869960Y-11379620D01*
X5769960Y-11279620D02*
X5969960Y-11279620D01*
X6221213Y-11190151D02*
X6230737Y-11180628D01*
X6230737Y-11180628D02*
X6249784Y-11171104D01*
X6249784Y-11171104D02*
X6297403Y-11171104D01*
X6297403Y-11171104D02*
X6316451Y-11180628D01*
X6316451Y-11180628D02*
X6325975Y-11190151D01*
X6325975Y-11190151D02*
X6335499Y-11209199D01*
X6335499Y-11209199D02*
X6335499Y-11228247D01*
X6335499Y-11228247D02*
X6325975Y-11256818D01*
X6325975Y-11256818D02*
X6211689Y-11371104D01*
X6211689Y-11371104D02*
X6335499Y-11371104D01*
X6421213Y-11352056D02*
X6430737Y-11361580D01*
X6430737Y-11361580D02*
X6421213Y-11371104D01*
X6421213Y-11371104D02*
X6411689Y-11361580D01*
X6411689Y-11361580D02*
X6421213Y-11352056D01*
X6421213Y-11352056D02*
X6421213Y-11371104D01*
X6497403Y-11171104D02*
X6630737Y-11171104D01*
X6630737Y-11171104D02*
X6545022Y-11371104D01*
X6802165Y-11171104D02*
X6706927Y-11171104D01*
X6706927Y-11171104D02*
X6697403Y-11266342D01*
X6697403Y-11266342D02*
X6706927Y-11256818D01*
X6706927Y-11256818D02*
X6725975Y-11247294D01*
X6725975Y-11247294D02*
X6773594Y-11247294D01*
X6773594Y-11247294D02*
X6792642Y-11256818D01*
X6792642Y-11256818D02*
X6802165Y-11266342D01*
X6802165Y-11266342D02*
X6811689Y-11285389D01*
X6811689Y-11285389D02*
X6811689Y-11333008D01*
X6811689Y-11333008D02*
X6802165Y-11352056D01*
X6802165Y-11352056D02*
X6792642Y-11361580D01*
X6792642Y-11361580D02*
X6773594Y-11371104D01*
X6773594Y-11371104D02*
X6725975Y-11371104D01*
X6725975Y-11371104D02*
X6706927Y-11361580D01*
X6706927Y-11361580D02*
X6697403Y-11352056D01*
X6935499Y-11171104D02*
X6954546Y-11171104D01*
X6954546Y-11171104D02*
X6973594Y-11180628D01*
X6973594Y-11180628D02*
X6983118Y-11190151D01*
X6983118Y-11190151D02*
X6992642Y-11209199D01*
X6992642Y-11209199D02*
X7002165Y-11247294D01*
X7002165Y-11247294D02*
X7002165Y-11294913D01*
X7002165Y-11294913D02*
X6992642Y-11333008D01*
X6992642Y-11333008D02*
X6983118Y-11352056D01*
X6983118Y-11352056D02*
X6973594Y-11361580D01*
X6973594Y-11361580D02*
X6954546Y-11371104D01*
X6954546Y-11371104D02*
X6935499Y-11371104D01*
X6935499Y-11371104D02*
X6916451Y-11361580D01*
X6916451Y-11361580D02*
X6906927Y-11352056D01*
X6906927Y-11352056D02*
X6897403Y-11333008D01*
X6897403Y-11333008D02*
X6887880Y-11294913D01*
X6887880Y-11294913D02*
X6887880Y-11247294D01*
X6887880Y-11247294D02*
X6897403Y-11209199D01*
X6897403Y-11209199D02*
X6906927Y-11190151D01*
X6906927Y-11190151D02*
X6916451Y-11180628D01*
X6916451Y-11180628D02*
X6935499Y-11171104D01*
X7087880Y-11371104D02*
X7087880Y-11237770D01*
X7087880Y-11256818D02*
X7097403Y-11247294D01*
X7097403Y-11247294D02*
X7116451Y-11237770D01*
X7116451Y-11237770D02*
X7145023Y-11237770D01*
X7145023Y-11237770D02*
X7164070Y-11247294D01*
X7164070Y-11247294D02*
X7173594Y-11266342D01*
X7173594Y-11266342D02*
X7173594Y-11371104D01*
X7173594Y-11266342D02*
X7183118Y-11247294D01*
X7183118Y-11247294D02*
X7202165Y-11237770D01*
X7202165Y-11237770D02*
X7230737Y-11237770D01*
X7230737Y-11237770D02*
X7249784Y-11247294D01*
X7249784Y-11247294D02*
X7259308Y-11266342D01*
X7259308Y-11266342D02*
X7259308Y-11371104D01*
X7354546Y-11371104D02*
X7354546Y-11237770D01*
X7354546Y-11256818D02*
X7364070Y-11247294D01*
X7364070Y-11247294D02*
X7383118Y-11237770D01*
X7383118Y-11237770D02*
X7411689Y-11237770D01*
X7411689Y-11237770D02*
X7430737Y-11247294D01*
X7430737Y-11247294D02*
X7440261Y-11266342D01*
X7440261Y-11266342D02*
X7440261Y-11371104D01*
X7440261Y-11266342D02*
X7449784Y-11247294D01*
X7449784Y-11247294D02*
X7468832Y-11237770D01*
X7468832Y-11237770D02*
X7497403Y-11237770D01*
X7497403Y-11237770D02*
X7516451Y-11247294D01*
X7516451Y-11247294D02*
X7525975Y-11266342D01*
X7525975Y-11266342D02*
X7525975Y-11371104D01*
X7916451Y-11161580D02*
X7745023Y-11418723D01*
X8173594Y-11171104D02*
X8192642Y-11171104D01*
X8192642Y-11171104D02*
X8211689Y-11180628D01*
X8211689Y-11180628D02*
X8221213Y-11190151D01*
X8221213Y-11190151D02*
X8230737Y-11209199D01*
X8230737Y-11209199D02*
X8240261Y-11247294D01*
X8240261Y-11247294D02*
X8240261Y-11294913D01*
X8240261Y-11294913D02*
X8230737Y-11333008D01*
X8230737Y-11333008D02*
X8221213Y-11352056D01*
X8221213Y-11352056D02*
X8211689Y-11361580D01*
X8211689Y-11361580D02*
X8192642Y-11371104D01*
X8192642Y-11371104D02*
X8173594Y-11371104D01*
X8173594Y-11371104D02*
X8154546Y-11361580D01*
X8154546Y-11361580D02*
X8145023Y-11352056D01*
X8145023Y-11352056D02*
X8135499Y-11333008D01*
X8135499Y-11333008D02*
X8125975Y-11294913D01*
X8125975Y-11294913D02*
X8125975Y-11247294D01*
X8125975Y-11247294D02*
X8135499Y-11209199D01*
X8135499Y-11209199D02*
X8145023Y-11190151D01*
X8145023Y-11190151D02*
X8154546Y-11180628D01*
X8154546Y-11180628D02*
X8173594Y-11171104D01*
X8325975Y-11352056D02*
X8335499Y-11361580D01*
X8335499Y-11361580D02*
X8325975Y-11371104D01*
X8325975Y-11371104D02*
X8316451Y-11361580D01*
X8316451Y-11361580D02*
X8325975Y-11352056D01*
X8325975Y-11352056D02*
X8325975Y-11371104D01*
X8525975Y-11371104D02*
X8411689Y-11371104D01*
X8468832Y-11371104D02*
X8468832Y-11171104D01*
X8468832Y-11171104D02*
X8449785Y-11199675D01*
X8449785Y-11199675D02*
X8430737Y-11218723D01*
X8430737Y-11218723D02*
X8411689Y-11228247D01*
X8649785Y-11171104D02*
X8668832Y-11171104D01*
X8668832Y-11171104D02*
X8687880Y-11180628D01*
X8687880Y-11180628D02*
X8697404Y-11190151D01*
X8697404Y-11190151D02*
X8706928Y-11209199D01*
X8706928Y-11209199D02*
X8716451Y-11247294D01*
X8716451Y-11247294D02*
X8716451Y-11294913D01*
X8716451Y-11294913D02*
X8706928Y-11333008D01*
X8706928Y-11333008D02*
X8697404Y-11352056D01*
X8697404Y-11352056D02*
X8687880Y-11361580D01*
X8687880Y-11361580D02*
X8668832Y-11371104D01*
X8668832Y-11371104D02*
X8649785Y-11371104D01*
X8649785Y-11371104D02*
X8630737Y-11361580D01*
X8630737Y-11361580D02*
X8621213Y-11352056D01*
X8621213Y-11352056D02*
X8611689Y-11333008D01*
X8611689Y-11333008D02*
X8602166Y-11294913D01*
X8602166Y-11294913D02*
X8602166Y-11247294D01*
X8602166Y-11247294D02*
X8611689Y-11209199D01*
X8611689Y-11209199D02*
X8621213Y-11190151D01*
X8621213Y-11190151D02*
X8630737Y-11180628D01*
X8630737Y-11180628D02*
X8649785Y-11171104D01*
X8830737Y-11256818D02*
X8811689Y-11247294D01*
X8811689Y-11247294D02*
X8802166Y-11237770D01*
X8802166Y-11237770D02*
X8792642Y-11218723D01*
X8792642Y-11218723D02*
X8792642Y-11209199D01*
X8792642Y-11209199D02*
X8802166Y-11190151D01*
X8802166Y-11190151D02*
X8811689Y-11180628D01*
X8811689Y-11180628D02*
X8830737Y-11171104D01*
X8830737Y-11171104D02*
X8868832Y-11171104D01*
X8868832Y-11171104D02*
X8887880Y-11180628D01*
X8887880Y-11180628D02*
X8897404Y-11190151D01*
X8897404Y-11190151D02*
X8906928Y-11209199D01*
X8906928Y-11209199D02*
X8906928Y-11218723D01*
X8906928Y-11218723D02*
X8897404Y-11237770D01*
X8897404Y-11237770D02*
X8887880Y-11247294D01*
X8887880Y-11247294D02*
X8868832Y-11256818D01*
X8868832Y-11256818D02*
X8830737Y-11256818D01*
X8830737Y-11256818D02*
X8811689Y-11266342D01*
X8811689Y-11266342D02*
X8802166Y-11275866D01*
X8802166Y-11275866D02*
X8792642Y-11294913D01*
X8792642Y-11294913D02*
X8792642Y-11333008D01*
X8792642Y-11333008D02*
X8802166Y-11352056D01*
X8802166Y-11352056D02*
X8811689Y-11361580D01*
X8811689Y-11361580D02*
X8830737Y-11371104D01*
X8830737Y-11371104D02*
X8868832Y-11371104D01*
X8868832Y-11371104D02*
X8887880Y-11361580D01*
X8887880Y-11361580D02*
X8897404Y-11352056D01*
X8897404Y-11352056D02*
X8906928Y-11333008D01*
X8906928Y-11333008D02*
X8906928Y-11294913D01*
X8906928Y-11294913D02*
X8897404Y-11275866D01*
X8897404Y-11275866D02*
X8887880Y-11266342D01*
X8887880Y-11266342D02*
X8868832Y-11256818D01*
X8973594Y-11171104D02*
X9097404Y-11171104D01*
X9097404Y-11171104D02*
X9030737Y-11247294D01*
X9030737Y-11247294D02*
X9059309Y-11247294D01*
X9059309Y-11247294D02*
X9078356Y-11256818D01*
X9078356Y-11256818D02*
X9087880Y-11266342D01*
X9087880Y-11266342D02*
X9097404Y-11285389D01*
X9097404Y-11285389D02*
X9097404Y-11333008D01*
X9097404Y-11333008D02*
X9087880Y-11352056D01*
X9087880Y-11352056D02*
X9078356Y-11361580D01*
X9078356Y-11361580D02*
X9059309Y-11371104D01*
X9059309Y-11371104D02*
X9002166Y-11371104D01*
X9002166Y-11371104D02*
X8983118Y-11361580D01*
X8983118Y-11361580D02*
X8973594Y-11352056D01*
X9173594Y-11171104D02*
X9173594Y-11209199D01*
X9249785Y-11171104D02*
X9249785Y-11209199D01*
X9545023Y-11447294D02*
X9535499Y-11437770D01*
X9535499Y-11437770D02*
X9516451Y-11409199D01*
X9516451Y-11409199D02*
X9506928Y-11390151D01*
X9506928Y-11390151D02*
X9497404Y-11361580D01*
X9497404Y-11361580D02*
X9487880Y-11313961D01*
X9487880Y-11313961D02*
X9487880Y-11275866D01*
X9487880Y-11275866D02*
X9497404Y-11228247D01*
X9497404Y-11228247D02*
X9506928Y-11199675D01*
X9506928Y-11199675D02*
X9516451Y-11180628D01*
X9516451Y-11180628D02*
X9535499Y-11152056D01*
X9535499Y-11152056D02*
X9545023Y-11142532D01*
X9706928Y-11237770D02*
X9706928Y-11371104D01*
X9659309Y-11161580D02*
X9611690Y-11304437D01*
X9611690Y-11304437D02*
X9735499Y-11304437D01*
X9964071Y-11371104D02*
X9964071Y-11171104D01*
X10049785Y-11371104D02*
X10049785Y-11266342D01*
X10049785Y-11266342D02*
X10040261Y-11247294D01*
X10040261Y-11247294D02*
X10021213Y-11237770D01*
X10021213Y-11237770D02*
X9992642Y-11237770D01*
X9992642Y-11237770D02*
X9973594Y-11247294D01*
X9973594Y-11247294D02*
X9964071Y-11256818D01*
X10173594Y-11371104D02*
X10154547Y-11361580D01*
X10154547Y-11361580D02*
X10145023Y-11352056D01*
X10145023Y-11352056D02*
X10135499Y-11333008D01*
X10135499Y-11333008D02*
X10135499Y-11275866D01*
X10135499Y-11275866D02*
X10145023Y-11256818D01*
X10145023Y-11256818D02*
X10154547Y-11247294D01*
X10154547Y-11247294D02*
X10173594Y-11237770D01*
X10173594Y-11237770D02*
X10202166Y-11237770D01*
X10202166Y-11237770D02*
X10221213Y-11247294D01*
X10221213Y-11247294D02*
X10230737Y-11256818D01*
X10230737Y-11256818D02*
X10240261Y-11275866D01*
X10240261Y-11275866D02*
X10240261Y-11333008D01*
X10240261Y-11333008D02*
X10230737Y-11352056D01*
X10230737Y-11352056D02*
X10221213Y-11361580D01*
X10221213Y-11361580D02*
X10202166Y-11371104D01*
X10202166Y-11371104D02*
X10173594Y-11371104D01*
X10354547Y-11371104D02*
X10335499Y-11361580D01*
X10335499Y-11361580D02*
X10325975Y-11342532D01*
X10325975Y-11342532D02*
X10325975Y-11171104D01*
X10506928Y-11361580D02*
X10487880Y-11371104D01*
X10487880Y-11371104D02*
X10449785Y-11371104D01*
X10449785Y-11371104D02*
X10430737Y-11361580D01*
X10430737Y-11361580D02*
X10421213Y-11342532D01*
X10421213Y-11342532D02*
X10421213Y-11266342D01*
X10421213Y-11266342D02*
X10430737Y-11247294D01*
X10430737Y-11247294D02*
X10449785Y-11237770D01*
X10449785Y-11237770D02*
X10487880Y-11237770D01*
X10487880Y-11237770D02*
X10506928Y-11247294D01*
X10506928Y-11247294D02*
X10516452Y-11266342D01*
X10516452Y-11266342D02*
X10516452Y-11285389D01*
X10516452Y-11285389D02*
X10421213Y-11304437D01*
X10592642Y-11361580D02*
X10611690Y-11371104D01*
X10611690Y-11371104D02*
X10649785Y-11371104D01*
X10649785Y-11371104D02*
X10668833Y-11361580D01*
X10668833Y-11361580D02*
X10678356Y-11342532D01*
X10678356Y-11342532D02*
X10678356Y-11333008D01*
X10678356Y-11333008D02*
X10668833Y-11313961D01*
X10668833Y-11313961D02*
X10649785Y-11304437D01*
X10649785Y-11304437D02*
X10621213Y-11304437D01*
X10621213Y-11304437D02*
X10602166Y-11294913D01*
X10602166Y-11294913D02*
X10592642Y-11275866D01*
X10592642Y-11275866D02*
X10592642Y-11266342D01*
X10592642Y-11266342D02*
X10602166Y-11247294D01*
X10602166Y-11247294D02*
X10621213Y-11237770D01*
X10621213Y-11237770D02*
X10649785Y-11237770D01*
X10649785Y-11237770D02*
X10668833Y-11247294D01*
X10745023Y-11447294D02*
X10754547Y-11437770D01*
X10754547Y-11437770D02*
X10773594Y-11409199D01*
X10773594Y-11409199D02*
X10783118Y-11390151D01*
X10783118Y-11390151D02*
X10792642Y-11361580D01*
X10792642Y-11361580D02*
X10802166Y-11313961D01*
X10802166Y-11313961D02*
X10802166Y-11275866D01*
X10802166Y-11275866D02*
X10792642Y-11228247D01*
X10792642Y-11228247D02*
X10783118Y-11199675D01*
X10783118Y-11199675D02*
X10773594Y-11180628D01*
X10773594Y-11180628D02*
X10754547Y-11152056D01*
X10754547Y-11152056D02*
X10745023Y-11142532D01*
M02*
