M48
; DRILL file {KiCad 8.0.2} date 2024-09-16T20:32:17-0400
; FORMAT={-:-/ absolute / metric / decimal}
; #@! TF.CreationDate,2024-09-16T20:32:17-04:00
; #@! TF.GenerationSoftware,Kicad,Pcbnew,8.0.2
; #@! TF.FileFunction,Plated,1,2,PTH
FMAT,2
METRIC
; #@! TA.AperFunction,Plated,PTH,ViaDrill
T1C0.300
; #@! TA.AperFunction,Plated,PTH,ViaDrill
T2C0.500
; #@! TA.AperFunction,Plated,PTH,ComponentDrill
T3C0.500
; #@! TA.AperFunction,Plated,PTH,ComponentDrill
T4C0.600
; #@! TA.AperFunction,Plated,PTH,ComponentDrill
T5C1.000
; #@! TA.AperFunction,Plated,PTH,ComponentDrill
T6C2.700
; #@! TA.AperFunction,Plated,PTH,ComponentDrill
T7C2.750
%
G90
G05
T1
X67.589Y-85.336
X67.654Y-82.186
X68.843Y-86.454
X68.871Y-88.456
X69.322Y-84.796
X69.373Y-85.608
X70.089Y-87.442
X71.569Y-46.346
X71.628Y-49.733
X72.195Y-80.12
X72.441Y-88.248
X73.255Y-88.257
X73.389Y-83.542
X73.489Y-86.042
X73.989Y-80.442
X73.989Y-81.342
X73.989Y-82.242
X74.989Y-80.442
X74.989Y-81.342
X74.989Y-82.242
X74.989Y-83.242
X75.855Y-88.742
X75.89Y-84.299
X75.989Y-80.442
X75.989Y-81.342
X75.989Y-82.242
X75.989Y-83.242
X76.563Y-62.606
X76.921Y-88.743
X76.938Y-39.877
X77.089Y-81.742
X77.089Y-82.742
X77.089Y-83.742
X78.089Y-81.742
X78.089Y-82.742
X78.089Y-83.742
X78.089Y-84.742
X79.35Y-65.126
X80.799Y-50.267
X81.502Y-85.311
X81.566Y-82.161
X82.093Y-69.083
X82.756Y-86.428
X82.784Y-88.43
X83.167Y-84.741
X83.336Y-85.524
X83.515Y-67.534
X84.002Y-87.417
X85.476Y-52.091
X85.515Y-51.282
X85.522Y-53.035
X86.097Y-80.322
X86.354Y-88.222
X87.168Y-88.232
X87.302Y-83.517
X87.402Y-86.017
X87.851Y-63.25
X87.902Y-80.417
X87.902Y-81.317
X87.902Y-82.217
X88.217Y-61.15
X88.745Y-62.067
X88.896Y-48.442
X88.902Y-80.417
X88.902Y-81.317
X88.902Y-82.217
X88.902Y-83.217
X89.281Y-62.716
X89.358Y-65.136
X89.767Y-88.717
X89.792Y-84.27
X89.902Y-80.417
X89.902Y-81.317
X89.902Y-82.217
X89.902Y-83.217
X90.623Y-48.586
X90.881Y-88.9
X91.002Y-81.717
X91.002Y-82.717
X91.002Y-83.717
X91.719Y-50.14
X91.966Y-52.094
X92.002Y-81.717
X92.002Y-82.717
X92.002Y-83.717
X92.002Y-84.717
X92.272Y-53.41
X92.989Y-52.159
X93.998Y-53.79
X94.933Y-49.718
X94.934Y-43.074
X94.934Y-45.299
X94.934Y-51.924
X95.007Y-63.485
X95.431Y-85.285
X95.495Y-82.136
X95.842Y-58.395
X96.49Y-44.021
X96.635Y-63.424
X96.685Y-86.403
X96.713Y-88.405
X96.88Y-58.473
X97.125Y-84.722
X97.13Y-74.778
X97.251Y-85.526
X97.714Y-58.206
X97.931Y-87.392
X98.374Y-47.193
X98.604Y-64.743
X99.03Y-51.321
X99.63Y-47.219
X99.661Y-56.331
X99.834Y-64.276
X99.898Y-37.709
X100.016Y-65.095
X100.026Y-80.296
X100.101Y-55.545
X100.283Y-88.197
X100.3Y-51.321
X101.097Y-88.206
X101.231Y-83.492
X101.331Y-85.992
X101.831Y-80.392
X101.831Y-81.292
X101.831Y-82.192
X102.12Y-53.428
X102.537Y-60.881
X102.54Y-57.963
X102.591Y-46.812
X102.594Y-55.956
X102.692Y-71.78
X102.831Y-80.392
X102.831Y-81.292
X102.831Y-82.192
X102.831Y-83.192
X102.916Y-65.918
X103.073Y-44.688
X103.243Y-55.267
X103.251Y-57.48
X103.429Y-69.799
X103.626Y-59.194
X103.683Y-61.57
X103.696Y-88.692
X103.716Y-84.242
X103.831Y-80.392
X103.831Y-81.292
X103.831Y-82.192
X103.831Y-83.192
X103.863Y-66.408
X104.089Y-73.203
X104.188Y-54.355
X104.541Y-60.617
X104.597Y-42.487
X104.798Y-51.214
X104.8Y-88.925
X104.825Y-49.153
X104.849Y-45.418
X104.927Y-54.901
X104.931Y-81.692
X104.931Y-82.692
X104.931Y-83.692
X104.998Y-66.408
X105.131Y-78.537
X105.509Y-79.688
X105.725Y-49.103
X105.749Y-45.368
X105.931Y-81.692
X105.931Y-82.692
X105.931Y-83.692
X105.931Y-84.692
X106.045Y-65.557
X106.263Y-56.475
X106.29Y-55.584
X106.496Y-63.727
X106.652Y-51.29
X106.975Y-49.103
X106.975Y-50.053
X106.999Y-45.368
X106.999Y-46.318
X107.112Y-72.619
X107.783Y-73.46
X107.876Y-54.691
X107.957Y-81.285
X108.451Y-85.541
X108.535Y-55.143
X108.757Y-57.18
X109.183Y-51.218
X109.185Y-54.445
X109.347Y-59.944
X109.562Y-45.397
X109.564Y-49.155
X109.798Y-64.376
X110.035Y-73.418
X110.109Y-37.947
X110.182Y-88.332
X110.382Y-58.635
X110.462Y-45.347
X110.464Y-49.105
X110.465Y-82.829
X110.535Y-69.71
X111.1Y-51.994
X111.246Y-68.997
X111.303Y-82.779
X111.328Y-81.966
X111.654Y-77.195
X111.712Y-45.347
X111.712Y-46.297
X111.714Y-49.105
X111.714Y-50.055
X111.73Y-63.124
X111.846Y-48.286
X111.938Y-52.045
X111.963Y-54.864
X112.036Y-72.966
X112.065Y-67.894
X112.11Y-70.874
X112.176Y-81.956
X112.28Y-81.163
X112.293Y-59.766
X112.332Y-63.727
X112.37Y-77.749
X112.673Y-56.603
X112.801Y-50.876
X112.896Y-73.348
X112.931Y-86.335
X112.957Y-85.366
X113.118Y-81.153
X113.176Y-78.23
X113.182Y-66.802
X113.182Y-80.315
X113.784Y-76.463
X113.992Y-72.009
X114.047Y-80.357
X114.066Y-59.626
X114.082Y-64.286
X114.11Y-78.315
X114.173Y-79.527
X114.285Y-57.571
X114.678Y-54.546
X114.678Y-55.741
X115.093Y-79.6
X115.164Y-69.875
X115.386Y-85.465
X115.605Y-47.818
X115.926Y-58.725
X115.976Y-81.331
X116.042Y-66.794
X116.185Y-54.737
X116.548Y-82.694
X117.094Y-57.175
X117.196Y-54.61
X117.323Y-83.033
X117.336Y-64.39
X117.653Y-51.968
X117.805Y-66.319
X117.856Y-83.642
X117.868Y-63.696
X118.11Y-55.713
X118.416Y-51.512
X118.589Y-73.113
X118.92Y-62.889
X119.177Y-68.047
X119.304Y-54.458
X119.583Y-56.794
X119.685Y-51.562
X119.697Y-83.239
X120.263Y-54.406
X120.293Y-72.341
X120.421Y-51.994
X120.696Y-73.37
X120.955Y-64.668
X121.209Y-56.413
X121.234Y-54.432
X121.33Y-55.435
X121.336Y-61.694
X121.36Y-57.545
X121.382Y-70.198
X121.463Y-81.737
X122.159Y-72.844
X122.159Y-73.685
X122.201Y-42.328
X122.225Y-74.574
X122.597Y-55.045
X122.803Y-41.729
X122.803Y-42.928
X122.803Y-44.528
X123.774Y-56.294
X124.129Y-83.754
X124.244Y-57.527
X124.587Y-63.996
X124.598Y-56.174
X124.952Y-77.445
X125.401Y-63.996
X125.826Y-56.678
X126.111Y-58.039
X126.232Y-63.739
X126.237Y-62.828
X126.543Y-57.277
X127.051Y-83.414
X127.266Y-69.85
X127.495Y-63.747
X127.582Y-82.783
X127.711Y-81.991
X128.542Y-82.025
X128.651Y-81.204
X128.88Y-64.033
X128.91Y-64.851
X128.928Y-77.329
X128.972Y-62.101
X129.184Y-85.496
X129.272Y-86.416
X129.519Y-81.224
X129.616Y-80.391
X129.769Y-64.872
X129.799Y-65.689
X130.454Y-85.446
X130.537Y-80.464
X130.581Y-65.913
X130.581Y-79.629
X130.683Y-66.726
X131.412Y-79.611
X131.47Y-66.878
X131.623Y-67.666
X131.925Y-87.707
X132.252Y-78.772
X132.453Y-67.683
X132.468Y-45.24
X133.049Y-76.479
X133.053Y-68.428
X133.756Y-67.92
X133.903Y-43.779
X134.214Y-72.034
X134.356Y-68.504
X136.306Y-73.975
X136.906Y-77.289
X137.516Y-76.09
X139.462Y-55.55
X140.143Y-47.515
X140.908Y-53.544
X142.023Y-56.802
T2
X61.773Y-81.458
X65.761Y-54.153
X66.601Y-64.799
X66.737Y-83.699
X66.751Y-78.384
X67.234Y-63.779
X68.174Y-53.086
X68.199Y-68.885
X68.461Y-66.751
X68.682Y-56.566
X68.961Y-45.136
X70.062Y-79.646
X70.968Y-84.303
X70.993Y-85.344
X71.247Y-82.677
X71.628Y-87.3
X72.263Y-82.702
X72.288Y-86.411
X72.339Y-52.984
X72.504Y-84.574
X72.796Y-74.092
X76.581Y-57.658
X76.683Y-54.026
X76.914Y-78.156
X77.038Y-68.326
X77.445Y-69.952
X77.8Y-44.653
X78.257Y-75.122
X79.959Y-69.926
X80.188Y-58.271
X80.667Y-87.511
X80.696Y-83.16
X80.848Y-47.828
X81.305Y-68.326
X82.797Y-69.907
X83.795Y-58.271
X83.952Y-79.617
X84.861Y-84.277
X84.887Y-85.319
X85.028Y-65.045
X85.141Y-82.652
X85.522Y-87.274
X86.157Y-82.677
X86.182Y-86.385
X86.233Y-40.335
X86.398Y-84.549
X87.629Y-76.047
X87.884Y-73.914
X88.697Y-78.181
X90.297Y-42.113
X90.827Y-78.013
X91.015Y-68.27
X91.516Y-67.183
X91.887Y-71.12
X92.786Y-48.489
X92.812Y-75.028
X93.549Y-41.452
X93.929Y-46.355
X94.258Y-78.013
X94.596Y-87.485
X94.609Y-83.261
X96.733Y-40.987
X97.13Y-76.987
X97.353Y-35.345
X97.366Y-37.158
X97.559Y-70.891
X97.905Y-79.617
X98.331Y-48.514
X98.484Y-71.694
X98.78Y-85.483
X98.845Y-84.049
X99.085Y-82.398
X99.218Y-41.611
X99.453Y-87.232
X100.114Y-86.343
X100.152Y-82.677
X100.33Y-84.506
X100.34Y-74.857
X100.533Y-47.93
X101.399Y-74.596
X101.498Y-49.886
X101.524Y-45.466
X102.819Y-67.92
X102.845Y-68.961
X102.921Y-43.268
X102.972Y-77.64
X104.902Y-68.936
X105.053Y-62.827
X106.324Y-69.291
X107.264Y-66.625
X107.302Y-65.126
X107.374Y-59.44
X107.416Y-63.246
X108.229Y-88.57
X109.879Y-62.649
X111.252Y-59.969
X111.434Y-57.254
X111.678Y-61.906
X113.989Y-67.881
X113.992Y-70.874
X115.519Y-72.034
X115.545Y-73.127
X115.672Y-43.942
X116.967Y-69.748
X117.018Y-60.731
X117.585Y-49.798
X118.936Y-65.746
X119.109Y-76.498
X119.297Y-50.457
X119.685Y-73.254
X120.647Y-70.716
X123.175Y-74.075
X126.517Y-76.579
X127.61Y-35.865
X129.311Y-88.976
X130.454Y-45.618
X132.029Y-40.538
X132.131Y-76.632
X133.68Y-52.324
X134.595Y-80.594
X134.722Y-87.071
X134.995Y-73.875
X135.23Y-64.922
X137.287Y-61.519
X137.389Y-35.636
X138.659Y-64.872
X140.496Y-85.743
X140.683Y-55.294
X140.792Y-62.738
X142.646Y-39.903
X142.926Y-45.593
T5
X61.564Y-42.628
X61.564Y-45.168
X61.564Y-47.708
X61.564Y-50.248
X61.564Y-52.788
X61.564Y-55.328
X61.564Y-65.513
X61.564Y-68.053
X61.564Y-70.593
X61.564Y-73.133
X61.564Y-75.673
X61.564Y-78.213
X61.628Y-59.087
X61.628Y-61.627
X64.104Y-42.628
X64.104Y-45.168
X64.104Y-47.708
X64.104Y-50.248
X64.104Y-52.788
X64.104Y-55.328
X64.104Y-65.513
X64.104Y-68.053
X64.104Y-70.593
X64.104Y-73.133
X64.104Y-75.673
X64.104Y-78.213
X64.168Y-59.087
X64.168Y-61.627
X66.708Y-59.087
X66.708Y-61.627
X68.156Y-36.202
X68.156Y-38.742
X69.248Y-59.087
X69.248Y-61.627
X70.696Y-36.202
X70.696Y-38.742
X71.576Y-66.571
X71.577Y-43.637
X71.788Y-59.087
X71.788Y-61.627
X73.236Y-36.202
X73.236Y-38.742
X74.328Y-59.087
X74.328Y-61.627
X75.776Y-36.202
X75.776Y-38.742
X76.656Y-74.191
X76.657Y-51.257
X77.935Y-56.344
X77.935Y-58.884
X77.935Y-61.424
X78.316Y-36.202
X78.316Y-38.742
X80.856Y-36.202
X80.856Y-38.742
X81.545Y-56.343
X81.545Y-58.883
X81.545Y-61.423
X83.396Y-36.202
X83.396Y-38.742
X85.15Y-56.343
X85.15Y-58.883
X85.15Y-61.423
X85.597Y-66.58
X85.598Y-43.637
X85.936Y-36.202
X85.936Y-38.742
X88.476Y-36.202
X88.476Y-38.742
X90.677Y-74.2
X90.678Y-51.257
X91.016Y-36.202
X91.016Y-38.742
X93.142Y-56.337
X93.556Y-36.202
X93.556Y-38.742
X95.682Y-56.337
X95.74Y-70.543
X95.74Y-73.083
X95.74Y-75.623
X96.096Y-36.202
X96.096Y-38.742
X98.222Y-56.337
X98.636Y-36.202
X98.636Y-38.742
X101.176Y-36.202
X101.176Y-38.742
X103.716Y-36.202
X103.716Y-38.742
X106.256Y-36.202
X106.256Y-38.742
X108.796Y-36.202
X108.796Y-38.742
X111.336Y-36.202
X111.336Y-38.742
X113.876Y-36.202
X113.876Y-38.742
X116.416Y-36.202
X116.416Y-38.742
X125.755Y-71.034
X128.295Y-71.034
X130.835Y-71.034
X136.957Y-53.34
X136.957Y-55.88
X136.957Y-58.42
X138.819Y-66.53
X138.819Y-69.07
X138.819Y-71.61
X138.819Y-74.15
X138.819Y-76.69
X138.819Y-79.23
X138.819Y-81.77
X141.359Y-66.53
X141.359Y-69.07
X141.359Y-71.61
X141.359Y-74.15
X141.359Y-76.69
X141.359Y-79.23
X141.359Y-81.77
T6
X135.856Y-38.879
X136.858Y-46.009
T7
X63.26Y-37.436
X63.26Y-86.436
X121.26Y-37.436
X121.26Y-86.436
T3
G00X143.745Y-53.452
M15
G01X143.045Y-53.452
M16
G05
G00X143.745Y-60.052
M15
G01X143.045Y-60.052
M16
G05
T4
G00X141.904Y-34.848
M15
G01X140.815Y-35.002
M16
G05
G00X143.783Y-48.217
M15
G01X142.694Y-48.37
M16
G05
T5
G00X139.902Y-41.441
M15
G01X140.041Y-42.431
M16
G05
M30
