<?xml version="1.0" encoding="utf-8"?>
<!-- Generator: Adobe Illustrator 26.5.0, SVG Export Plug-In . SVG Version: 6.00 Build 0)  -->
<svg version="1.1" id="Layer_1" xmlns="http://www.w3.org/2000/svg" xmlns:xlink="http://www.w3.org/1999/xlink" x="0px" y="0px"
	 viewBox="0 0 432 288" style="enable-background:new 0 0 432 288;" xml:space="preserve">
<style type="text/css">
	.st0{fill:none;stroke:#0000FF;stroke-width:0.1875;stroke-miterlimit:11.3386;}
	.st1{fill:none;stroke:#000000;stroke-width:0.1875;stroke-miterlimit:11.3386;}
	.st2{fill:none;stroke:#0000FF;stroke-width:7.200000e-02;stroke-miterlimit:11.3386;}
</style>
<path class="st0" d="M235.6,95.4h-39.3l-1.1,0.1l-1.2,0.3l-1.1,0.5l-1,0.7l-0.9,0.9l-0.7,1l-0.5,1.1l-0.3,1.2l-0.1,1.1v83.2l0.1,1.1
	l0.3,1.2l0.5,1.1l0.7,1l0.9,0.9l1,0.7l1.1,0.5l1.2,0.3l1.1,0.1h39.3l1.1-0.1l1.2-0.3l1.1-0.5l1-0.7l0.9-0.9l0.7-1l0.5-1.1l0.3-1.2
	l0.1-1.1v-83.2l-0.1-1.1l-0.3-1.2l-0.5-1.1l-0.7-1l-0.9-0.9l-1-0.7l-1.1-0.5l-1.2-0.3L235.6,95.4z"/>
<path class="st1" d="M235.5,98.3h-39l-0.7,0.1l-0.7,0.2l-0.7,0.3l-0.6,0.4l-0.5,0.5l-0.4,0.6l-0.3,0.7l-0.2,0.7l-0.1,0.7v82.9
	l0.1,0.7l0.2,0.7l0.3,0.7l0.4,0.6l0.5,0.5l0.6,0.4l0.7,0.3l0.7,0.2l0.7,0.1h39l0.7-0.1l0.7-0.2l0.7-0.3l0.6-0.4l0.5-0.5l0.4-0.6
	l0.3-0.7l0.2-0.7l0.1-0.7v-82.9l-0.1-0.7l-0.2-0.7l-0.3-0.7l-0.4-0.6l-0.5-0.5l-0.6-0.4l-0.7-0.3l-0.7-0.2L235.5,98.3z"/>
<rect x="120.2" y="26.3" class="st2" width="191.5" height="235.4"/>
</svg>
