M48
; DRILL file {KiCad 7.0.8} date Fri Apr 19 19:22:33 2024
; FORMAT={-:-/ absolute / metric / decimal}
; #@! TF.CreationDate,2024-04-19T19:22:33-04:00
; #@! TF.GenerationSoftware,Kicad,Pcbnew,7.0.8
; #@! TF.FileFunction,Plated,1,2,PTH
FMAT,2
METRIC
; #@! TA.AperFunction,Plated,PTH,ViaDrill
T1C0.300
; #@! TA.AperFunction,Plated,PTH,ComponentDrill
T2C0.950
; #@! TA.AperFunction,Plated,PTH,ComponentDrill
T3C2.700
%
G90
G05
T1
X150.114Y-90.17
X150.114Y-91.17
X150.114Y-92.17
X150.114Y-93.17
X150.114Y-94.17
X150.114Y-95.17
X150.114Y-96.17
X150.114Y-97.17
X151.114Y-90.17
X151.114Y-91.17
X151.114Y-92.17
X151.114Y-93.17
X151.114Y-94.17
X151.114Y-95.17
X151.114Y-96.17
X151.114Y-97.17
X152.114Y-90.17
X152.114Y-91.17
X152.114Y-92.17
X152.114Y-93.17
X152.114Y-94.17
X152.114Y-95.17
X152.114Y-96.17
X152.114Y-97.17
X153.114Y-90.17
X153.114Y-91.17
X153.114Y-92.17
X153.114Y-93.17
X153.114Y-94.17
X153.114Y-95.17
X153.114Y-96.17
X153.114Y-97.17
X154.693Y-80.338
X154.693Y-81.338
X154.693Y-82.338
X154.693Y-83.338
X154.94Y-103.886
X154.94Y-105.664
X155.194Y-85.09
X155.448Y-97.79
X155.693Y-80.338
X155.693Y-81.338
X155.693Y-82.338
X155.693Y-83.338
X156.693Y-80.338
X156.693Y-81.338
X156.693Y-82.338
X156.693Y-83.338
X156.972Y-87.604
X157.226Y-101.6
X157.693Y-80.338
X157.693Y-81.338
X157.693Y-82.338
X157.693Y-83.338
X158.693Y-80.338
X158.693Y-81.338
X158.693Y-82.338
X158.693Y-83.338
X158.75Y-98.044
X159.512Y-102.108
X159.693Y-80.338
X159.693Y-81.338
X159.693Y-82.338
X159.693Y-83.338
X160.782Y-90.17
X160.782Y-91.17
X160.782Y-92.17
X160.782Y-93.17
X160.782Y-94.17
X160.782Y-95.17
X160.782Y-96.17
X160.782Y-97.17
X161.782Y-90.17
X161.782Y-91.17
X161.782Y-92.17
X161.782Y-93.17
X161.782Y-94.17
X161.782Y-95.17
X161.782Y-96.17
X161.782Y-97.17
X162.782Y-90.17
X162.782Y-91.17
X162.782Y-92.17
X162.782Y-93.17
X162.782Y-94.17
X162.782Y-95.17
X162.782Y-96.17
X162.782Y-97.17
X163.782Y-90.17
X163.782Y-91.17
X163.782Y-92.17
X163.782Y-93.17
X163.782Y-94.17
X163.782Y-95.17
X163.782Y-96.17
X163.782Y-97.17
X163.83Y-101.346
T2
X151.76Y-100.746
X151.76Y-103.246
X151.76Y-105.746
X151.76Y-108.246
T3
X151.638Y-82.042
X151.638Y-87.63
X162.307Y-82.104
X162.307Y-87.692
T0
M30
