G04 #@! TF.GenerationSoftware,KiCad,Pcbnew,7.0.8*
G04 #@! TF.CreationDate,2024-04-19T19:22:21-04:00*
G04 #@! TF.ProjectId,PMB,504d422e-6b69-4636-9164-5f7063625858,rev?*
G04 #@! TF.SameCoordinates,Original*
G04 #@! TF.FileFunction,Copper,L2,Bot*
G04 #@! TF.FilePolarity,Positive*
%FSLAX46Y46*%
G04 Gerber Fmt 4.6, Leading zero omitted, Abs format (unit mm)*
G04 Created by KiCad (PCBNEW 7.0.8) date 2024-04-19 19:22:21*
%MOMM*%
%LPD*%
G01*
G04 APERTURE LIST*
G04 Aperture macros list*
%AMRoundRect*
0 Rectangle with rounded corners*
0 $1 Rounding radius*
0 $2 $3 $4 $5 $6 $7 $8 $9 X,Y pos of 4 corners*
0 Add a 4 corners polygon primitive as box body*
4,1,4,$2,$3,$4,$5,$6,$7,$8,$9,$2,$3,0*
0 Add four circle primitives for the rounded corners*
1,1,$1+$1,$2,$3*
1,1,$1+$1,$4,$5*
1,1,$1+$1,$6,$7*
1,1,$1+$1,$8,$9*
0 Add four rect primitives between the rounded corners*
20,1,$1+$1,$2,$3,$4,$5,0*
20,1,$1+$1,$4,$5,$6,$7,0*
20,1,$1+$1,$6,$7,$8,$9,0*
20,1,$1+$1,$8,$9,$2,$3,0*%
G04 Aperture macros list end*
G04 #@! TA.AperFunction,ComponentPad*
%ADD10RoundRect,1.000000X-1.000000X-1.000000X1.000000X-1.000000X1.000000X1.000000X-1.000000X1.000000X0*%
G04 #@! TD*
G04 #@! TA.AperFunction,SMDPad,CuDef*
%ADD11RoundRect,0.636363X-1.463637X-3.163637X1.463637X-3.163637X1.463637X3.163637X-1.463637X3.163637X0*%
G04 #@! TD*
G04 #@! TA.AperFunction,ComponentPad*
%ADD12RoundRect,1.000000X1.000000X1.000000X-1.000000X1.000000X-1.000000X-1.000000X1.000000X-1.000000X0*%
G04 #@! TD*
G04 #@! TA.AperFunction,ComponentPad*
%ADD13RoundRect,0.250000X-0.725000X0.600000X-0.725000X-0.600000X0.725000X-0.600000X0.725000X0.600000X0*%
G04 #@! TD*
G04 #@! TA.AperFunction,ComponentPad*
%ADD14O,1.950000X1.700000*%
G04 #@! TD*
G04 #@! TA.AperFunction,ViaPad*
%ADD15C,0.600000*%
G04 #@! TD*
G04 #@! TA.AperFunction,Conductor*
%ADD16C,4.000000*%
G04 #@! TD*
G04 #@! TA.AperFunction,Conductor*
%ADD17C,0.650000*%
G04 #@! TD*
G04 APERTURE END LIST*
D10*
X162307125Y-82104190D03*
X162307125Y-87692190D03*
D11*
X162316862Y-94099085D03*
X151648862Y-94099085D03*
D12*
X151638000Y-87630000D03*
X151638000Y-82042000D03*
D13*
X151759554Y-100745813D03*
D14*
X151759554Y-103245813D03*
X151759554Y-105745813D03*
X151759554Y-108245813D03*
D15*
X154693417Y-83337912D03*
X157693417Y-83337912D03*
X156693417Y-81337912D03*
X159693417Y-80337912D03*
X158693417Y-80337912D03*
X159693417Y-83337912D03*
X159693417Y-81337912D03*
X159693417Y-82337912D03*
X155693417Y-80337912D03*
X158693417Y-82337912D03*
X157693417Y-80337912D03*
X157693417Y-82337912D03*
X156693417Y-82337912D03*
X155693417Y-82337912D03*
X155693417Y-81337912D03*
X154693417Y-80337912D03*
X155693417Y-83337912D03*
X158693417Y-81337912D03*
X154693417Y-82337912D03*
X157693417Y-81337912D03*
X156693417Y-80337912D03*
X156693417Y-83337912D03*
X154693417Y-81337912D03*
X158693417Y-83337912D03*
X152114000Y-90170000D03*
X151114000Y-93170000D03*
X153114000Y-93170000D03*
X150114000Y-97170000D03*
X152114000Y-92170000D03*
X154940000Y-105664000D03*
X151114000Y-97170000D03*
X150114000Y-92170000D03*
X151114000Y-91170000D03*
X151114000Y-96170000D03*
X157226000Y-101600000D03*
X156972000Y-87603619D03*
X152114000Y-95170000D03*
X150114000Y-91170000D03*
X151114000Y-94170000D03*
X150114000Y-93170000D03*
X154940000Y-103886000D03*
X159512000Y-102108000D03*
X150114000Y-90170000D03*
X152114000Y-93170000D03*
X153114000Y-94170000D03*
X153114000Y-97170000D03*
X155448000Y-97790000D03*
X151114000Y-90170000D03*
X150114000Y-96170000D03*
X153114000Y-90170000D03*
X150114000Y-94170000D03*
X152114000Y-96170000D03*
X151114000Y-95170000D03*
X153114000Y-96170000D03*
X151114000Y-92170000D03*
X153114000Y-91170000D03*
X155194000Y-85090000D03*
X152114000Y-91170000D03*
X163830000Y-101346000D03*
X152114000Y-94170000D03*
X152114000Y-97170000D03*
X153114000Y-92170000D03*
X150114000Y-95170000D03*
X153114000Y-95170000D03*
X163782000Y-93170000D03*
X160782000Y-91170000D03*
X163782000Y-97170000D03*
X162782000Y-92170000D03*
X163782000Y-90170000D03*
X161782000Y-94170000D03*
X160782000Y-94170000D03*
X161782000Y-97170000D03*
X161782000Y-95170000D03*
X163782000Y-94170000D03*
X160782000Y-90170000D03*
X161782000Y-93170000D03*
X160782000Y-92170000D03*
X160782000Y-93170000D03*
X162782000Y-96170000D03*
X161782000Y-96170000D03*
X163782000Y-96170000D03*
X160782000Y-95170000D03*
X163782000Y-95170000D03*
X158750000Y-98044000D03*
X163782000Y-92170000D03*
X162782000Y-93170000D03*
X162782000Y-95170000D03*
X162782000Y-94170000D03*
X163782000Y-91170000D03*
X161782000Y-92170000D03*
X162782000Y-97170000D03*
X161782000Y-91170000D03*
X160782000Y-96170000D03*
X160782000Y-97170000D03*
X161782000Y-90170000D03*
X162782000Y-91170000D03*
X162782000Y-90170000D03*
D16*
X162306000Y-82042000D02*
X151638000Y-82042000D01*
X151638000Y-94088223D02*
X151638000Y-87630000D01*
X151648862Y-94099085D02*
X151638000Y-94088223D01*
D17*
X151727947Y-94020000D02*
X151648862Y-94099085D01*
X152964000Y-94020000D02*
X151727947Y-94020000D01*
D16*
X162316862Y-94099085D02*
X162306000Y-94088223D01*
X162306000Y-94088223D02*
X162306000Y-87630000D01*
G04 #@! TA.AperFunction,Conductor*
G36*
X165016353Y-83136608D02*
G01*
X165050413Y-83197613D01*
X165053500Y-83225109D01*
X165053500Y-98938500D01*
X165033815Y-99005539D01*
X164981011Y-99051294D01*
X164929500Y-99062500D01*
X158617500Y-99062500D01*
X158550461Y-99042815D01*
X158504706Y-98990011D01*
X158493500Y-98938500D01*
X158493500Y-98311108D01*
X158486357Y-98226422D01*
X158486357Y-98226423D01*
X158479398Y-98185468D01*
X158462149Y-98118606D01*
X158460575Y-98110061D01*
X158454697Y-98057886D01*
X158454696Y-98030126D01*
X158457231Y-98007617D01*
X158460577Y-97977928D01*
X158462152Y-97969380D01*
X158479401Y-97902516D01*
X158486359Y-97861562D01*
X158493500Y-97776892D01*
X158493500Y-84666500D01*
X158513185Y-84599461D01*
X158565989Y-84553706D01*
X158617500Y-84542500D01*
X160843524Y-84542500D01*
X160872383Y-84546704D01*
X160872492Y-84546187D01*
X160877507Y-84547238D01*
X160877511Y-84547240D01*
X161120888Y-84598271D01*
X161140056Y-84599461D01*
X161224280Y-84604690D01*
X161224283Y-84604690D01*
X163389970Y-84604690D01*
X163452004Y-84600838D01*
X163493362Y-84598271D01*
X163736739Y-84547240D01*
X163736746Y-84547236D01*
X163736750Y-84547236D01*
X163816105Y-84516270D01*
X163968398Y-84456846D01*
X164182019Y-84329556D01*
X164182023Y-84329551D01*
X164182027Y-84329550D01*
X164371774Y-84168841D01*
X164371776Y-84168839D01*
X164532485Y-83979092D01*
X164532486Y-83979088D01*
X164532491Y-83979084D01*
X164659781Y-83765463D01*
X164750175Y-83533804D01*
X164801206Y-83290427D01*
X164805738Y-83217425D01*
X164829539Y-83151735D01*
X164885076Y-83109340D01*
X164954718Y-83103700D01*
X165016353Y-83136608D01*
G37*
G04 #@! TD.AperFunction*
G04 #@! TA.AperFunction,Conductor*
G36*
X149095703Y-83051085D02*
G01*
X149133477Y-83109863D01*
X149138262Y-83137115D01*
X149143918Y-83228235D01*
X149143919Y-83228238D01*
X149194950Y-83471615D01*
X149194953Y-83471625D01*
X149285342Y-83703269D01*
X149412639Y-83916902D01*
X149573348Y-84106649D01*
X149573350Y-84106651D01*
X149763097Y-84267360D01*
X149763103Y-84267363D01*
X149763106Y-84267366D01*
X149976727Y-84394656D01*
X149976730Y-84394657D01*
X150208374Y-84485046D01*
X150208381Y-84485048D01*
X150208386Y-84485050D01*
X150451763Y-84536081D01*
X150477611Y-84537685D01*
X150555155Y-84542500D01*
X150555158Y-84542500D01*
X151559417Y-84542500D01*
X157864000Y-84542500D01*
X157931039Y-84562185D01*
X157976794Y-84614989D01*
X157988000Y-84666500D01*
X157988000Y-97776892D01*
X157981042Y-97817846D01*
X157964632Y-97864742D01*
X157964630Y-97864750D01*
X157944435Y-98043996D01*
X157944435Y-98044003D01*
X157964630Y-98223251D01*
X157981041Y-98270148D01*
X157988000Y-98311103D01*
X157988000Y-99568000D01*
X164929500Y-99568000D01*
X164996539Y-99587685D01*
X165042294Y-99640489D01*
X165053500Y-99692000D01*
X165053500Y-110003559D01*
X165053309Y-110008426D01*
X165039497Y-110183915D01*
X165036453Y-110203133D01*
X164997070Y-110367176D01*
X164991057Y-110385682D01*
X164926495Y-110541547D01*
X164917661Y-110558884D01*
X164829515Y-110702725D01*
X164818079Y-110718466D01*
X164708513Y-110846753D01*
X164694753Y-110860513D01*
X164566466Y-110970079D01*
X164550725Y-110981515D01*
X164406884Y-111069661D01*
X164389547Y-111078495D01*
X164233682Y-111143057D01*
X164215176Y-111149070D01*
X164051133Y-111188453D01*
X164031915Y-111191497D01*
X163856427Y-111205309D01*
X163851560Y-111205500D01*
X150092440Y-111205500D01*
X150087573Y-111205309D01*
X149912084Y-111191497D01*
X149892866Y-111188453D01*
X149728823Y-111149070D01*
X149710317Y-111143057D01*
X149554452Y-111078495D01*
X149537115Y-111069661D01*
X149393274Y-110981515D01*
X149377533Y-110970079D01*
X149249246Y-110860513D01*
X149235486Y-110846753D01*
X149125920Y-110718466D01*
X149114484Y-110702725D01*
X149026338Y-110558884D01*
X149017504Y-110541547D01*
X149004994Y-110511347D01*
X148952940Y-110385675D01*
X148946931Y-110367183D01*
X148907545Y-110203128D01*
X148904502Y-110183915D01*
X148890691Y-110008425D01*
X148890500Y-110003559D01*
X148890500Y-105745813D01*
X150278895Y-105745813D01*
X150299490Y-105981216D01*
X150299492Y-105981226D01*
X150360648Y-106209468D01*
X150360650Y-106209472D01*
X150360651Y-106209476D01*
X150410585Y-106316559D01*
X150460518Y-106423641D01*
X150460519Y-106423643D01*
X150596059Y-106617215D01*
X150763151Y-106784307D01*
X150956723Y-106919847D01*
X150956725Y-106919848D01*
X151170891Y-107019716D01*
X151399146Y-107080876D01*
X151575588Y-107096313D01*
X151943520Y-107096313D01*
X152119962Y-107080876D01*
X152348217Y-107019716D01*
X152562383Y-106919848D01*
X152755955Y-106784308D01*
X152923049Y-106617214D01*
X153058589Y-106423643D01*
X153158457Y-106209476D01*
X153219617Y-105981221D01*
X153240213Y-105745813D01*
X153219617Y-105510405D01*
X153158457Y-105282150D01*
X153058589Y-105067984D01*
X153058588Y-105067982D01*
X152923048Y-104874410D01*
X152755956Y-104707318D01*
X152562384Y-104571778D01*
X152562382Y-104571777D01*
X152455300Y-104521844D01*
X152348217Y-104471910D01*
X152348213Y-104471909D01*
X152348209Y-104471907D01*
X152119967Y-104410751D01*
X152119957Y-104410749D01*
X151943520Y-104395313D01*
X151575588Y-104395313D01*
X151399150Y-104410749D01*
X151399140Y-104410751D01*
X151170898Y-104471907D01*
X151170889Y-104471911D01*
X150956725Y-104571777D01*
X150956723Y-104571778D01*
X150763151Y-104707318D01*
X150596060Y-104874410D01*
X150596055Y-104874417D01*
X150460521Y-105067978D01*
X150460519Y-105067982D01*
X150360652Y-105282148D01*
X150360648Y-105282157D01*
X150299492Y-105510399D01*
X150299490Y-105510409D01*
X150278895Y-105745812D01*
X150278895Y-105745813D01*
X148890500Y-105745813D01*
X148890500Y-101395814D01*
X150284054Y-101395814D01*
X150284055Y-101395831D01*
X150294554Y-101498609D01*
X150294555Y-101498612D01*
X150349739Y-101665144D01*
X150349740Y-101665147D01*
X150441842Y-101814469D01*
X150565898Y-101938525D01*
X150715220Y-102030627D01*
X150881757Y-102085812D01*
X150984545Y-102096313D01*
X152534562Y-102096312D01*
X152637351Y-102085812D01*
X152803888Y-102030627D01*
X152953210Y-101938525D01*
X153077266Y-101814469D01*
X153169368Y-101665147D01*
X153224553Y-101498610D01*
X153235054Y-101395822D01*
X153235053Y-100095805D01*
X153224553Y-99993016D01*
X153169368Y-99826479D01*
X153077266Y-99677157D01*
X152953210Y-99553101D01*
X152803888Y-99460999D01*
X152637351Y-99405814D01*
X152637349Y-99405813D01*
X152534564Y-99395313D01*
X150984552Y-99395313D01*
X150984535Y-99395314D01*
X150881757Y-99405813D01*
X150881754Y-99405814D01*
X150715222Y-99460998D01*
X150715217Y-99461000D01*
X150565896Y-99553102D01*
X150441843Y-99677155D01*
X150349741Y-99826476D01*
X150349740Y-99826479D01*
X150294555Y-99993016D01*
X150294555Y-99993017D01*
X150294554Y-99993017D01*
X150284054Y-100095796D01*
X150284054Y-101395814D01*
X148890500Y-101395814D01*
X148890500Y-83144798D01*
X148910185Y-83077759D01*
X148962989Y-83032004D01*
X149032147Y-83022060D01*
X149095703Y-83051085D01*
G37*
G04 #@! TD.AperFunction*
M02*
