G04 #@! TF.GenerationSoftware,KiCad,Pcbnew,7.0.8*
G04 #@! TF.CreationDate,2024-04-19T19:22:21-04:00*
G04 #@! TF.ProjectId,PMB,504d422e-6b69-4636-9164-5f7063625858,rev?*
G04 #@! TF.SameCoordinates,Original*
G04 #@! TF.FileFunction,Legend,Top*
G04 #@! TF.FilePolarity,Positive*
%FSLAX46Y46*%
G04 Gerber Fmt 4.6, Leading zero omitted, Abs format (unit mm)*
G04 Created by KiCad (PCBNEW 7.0.8) date 2024-04-19 19:22:21*
%MOMM*%
%LPD*%
G01*
G04 APERTURE LIST*
G04 Aperture macros list*
%AMRoundRect*
0 Rectangle with rounded corners*
0 $1 Rounding radius*
0 $2 $3 $4 $5 $6 $7 $8 $9 X,Y pos of 4 corners*
0 Add a 4 corners polygon primitive as box body*
4,1,4,$2,$3,$4,$5,$6,$7,$8,$9,$2,$3,0*
0 Add four circle primitives for the rounded corners*
1,1,$1+$1,$2,$3*
1,1,$1+$1,$4,$5*
1,1,$1+$1,$6,$7*
1,1,$1+$1,$8,$9*
0 Add four rect primitives between the rounded corners*
20,1,$1+$1,$2,$3,$4,$5,0*
20,1,$1+$1,$4,$5,$6,$7,0*
20,1,$1+$1,$6,$7,$8,$9,0*
20,1,$1+$1,$8,$9,$2,$3,0*%
G04 Aperture macros list end*
%ADD10C,0.150000*%
%ADD11C,0.220000*%
%ADD12C,0.200000*%
%ADD13C,0.210000*%
%ADD14C,0.120000*%
%ADD15RoundRect,1.000000X-1.000000X-1.000000X1.000000X-1.000000X1.000000X1.000000X-1.000000X1.000000X0*%
%ADD16R,0.400000X1.100000*%
%ADD17RoundRect,0.237500X0.250000X0.237500X-0.250000X0.237500X-0.250000X-0.237500X0.250000X-0.237500X0*%
%ADD18RoundRect,0.636363X1.463637X3.163637X-1.463637X3.163637X-1.463637X-3.163637X1.463637X-3.163637X0*%
%ADD19RoundRect,0.237500X0.300000X0.237500X-0.300000X0.237500X-0.300000X-0.237500X0.300000X-0.237500X0*%
%ADD20RoundRect,0.237500X-0.237500X0.250000X-0.237500X-0.250000X0.237500X-0.250000X0.237500X0.250000X0*%
%ADD21RoundRect,0.237500X-0.250000X-0.237500X0.250000X-0.237500X0.250000X0.237500X-0.250000X0.237500X0*%
%ADD22R,0.650000X1.560000*%
%ADD23RoundRect,1.000000X1.000000X1.000000X-1.000000X1.000000X-1.000000X-1.000000X1.000000X-1.000000X0*%
%ADD24RoundRect,0.250000X-0.725000X0.600000X-0.725000X-0.600000X0.725000X-0.600000X0.725000X0.600000X0*%
%ADD25O,1.950000X1.700000*%
G04 APERTURE END LIST*
D10*
G36*
X157356505Y-97335720D02*
G01*
X157356251Y-97350081D01*
X157355491Y-97364196D01*
X157354224Y-97378065D01*
X157352450Y-97391689D01*
X157350170Y-97405066D01*
X157347382Y-97418198D01*
X157344088Y-97431084D01*
X157340287Y-97443725D01*
X157335979Y-97456119D01*
X157331165Y-97468268D01*
X157325843Y-97480171D01*
X157320015Y-97491828D01*
X157313680Y-97503240D01*
X157306838Y-97514405D01*
X157299489Y-97525325D01*
X157291634Y-97536000D01*
X157214453Y-97482071D01*
X157219324Y-97475947D01*
X157225471Y-97467767D01*
X157231222Y-97459568D01*
X157236575Y-97451350D01*
X157241532Y-97443115D01*
X157246092Y-97434861D01*
X157250254Y-97426589D01*
X157254020Y-97418298D01*
X157254900Y-97416223D01*
X157258151Y-97407787D01*
X157260969Y-97399089D01*
X157263354Y-97390129D01*
X157265304Y-97380905D01*
X157266822Y-97371420D01*
X157267906Y-97361671D01*
X157268556Y-97351660D01*
X157268773Y-97341387D01*
X157268446Y-97330250D01*
X157267468Y-97319629D01*
X157265836Y-97309523D01*
X157263552Y-97299933D01*
X157260615Y-97290857D01*
X157257026Y-97282297D01*
X157252784Y-97274252D01*
X157247890Y-97266722D01*
X157242343Y-97259707D01*
X157236143Y-97253207D01*
X157231648Y-97249161D01*
X157224429Y-97243504D01*
X157216696Y-97238403D01*
X157208447Y-97233859D01*
X157199683Y-97229872D01*
X157190403Y-97226440D01*
X157180609Y-97223566D01*
X157170299Y-97221247D01*
X157159474Y-97219485D01*
X157148134Y-97218280D01*
X157140288Y-97217785D01*
X157132212Y-97217538D01*
X157128089Y-97217507D01*
X156618696Y-97217507D01*
X156618696Y-97113948D01*
X157128480Y-97113948D01*
X157138568Y-97114065D01*
X157148416Y-97114415D01*
X157158022Y-97114999D01*
X157167387Y-97115816D01*
X157176511Y-97116867D01*
X157185394Y-97118152D01*
X157194036Y-97119670D01*
X157202436Y-97121422D01*
X157210596Y-97123407D01*
X157218514Y-97125626D01*
X157226190Y-97128078D01*
X157233626Y-97130764D01*
X157244327Y-97135231D01*
X157254486Y-97140223D01*
X157260957Y-97143843D01*
X157270233Y-97149592D01*
X157279012Y-97155702D01*
X157287292Y-97162172D01*
X157295075Y-97169003D01*
X157302359Y-97176195D01*
X157309145Y-97183747D01*
X157315434Y-97191660D01*
X157321224Y-97199934D01*
X157326516Y-97208568D01*
X157331310Y-97217563D01*
X157334230Y-97223759D01*
X157338211Y-97233243D01*
X157341800Y-97242936D01*
X157344997Y-97252839D01*
X157347804Y-97262951D01*
X157350218Y-97273273D01*
X157352241Y-97283804D01*
X157353873Y-97294545D01*
X157355113Y-97305495D01*
X157355961Y-97316655D01*
X157356418Y-97328024D01*
X157356505Y-97335720D01*
G37*
G36*
X157256267Y-96837660D02*
G01*
X157256267Y-96479698D01*
X157344000Y-96479698D01*
X157344000Y-96941219D01*
X156618696Y-96941219D01*
X156618696Y-96837660D01*
X157256267Y-96837660D01*
G37*
G36*
X157356505Y-96113334D02*
G01*
X157356326Y-96127257D01*
X157355790Y-96140890D01*
X157354897Y-96154234D01*
X157353647Y-96167287D01*
X157352040Y-96180050D01*
X157350075Y-96192523D01*
X157347753Y-96204707D01*
X157345074Y-96216600D01*
X157342038Y-96228203D01*
X157338644Y-96239516D01*
X157334894Y-96250539D01*
X157330786Y-96261272D01*
X157326321Y-96271715D01*
X157321499Y-96281867D01*
X157316319Y-96291730D01*
X157310782Y-96301303D01*
X157304895Y-96310579D01*
X157298714Y-96319551D01*
X157292238Y-96328219D01*
X157285467Y-96336584D01*
X157278401Y-96344645D01*
X157271041Y-96352402D01*
X157263386Y-96359855D01*
X157255437Y-96367004D01*
X157247193Y-96373850D01*
X157238655Y-96380392D01*
X157229821Y-96386630D01*
X157220693Y-96392564D01*
X157211271Y-96398195D01*
X157201554Y-96403522D01*
X157191542Y-96408545D01*
X157181236Y-96413264D01*
X157170641Y-96417689D01*
X157159810Y-96421828D01*
X157148744Y-96425681D01*
X157137443Y-96429250D01*
X157125907Y-96432532D01*
X157114136Y-96435530D01*
X157102130Y-96438242D01*
X157089889Y-96440668D01*
X157077413Y-96442809D01*
X157064702Y-96444664D01*
X157051755Y-96446234D01*
X157038574Y-96447519D01*
X157025157Y-96448518D01*
X157011506Y-96449232D01*
X156997619Y-96449660D01*
X156983497Y-96449803D01*
X156975312Y-96449757D01*
X156967221Y-96449620D01*
X156959221Y-96449392D01*
X156951315Y-96449073D01*
X156943501Y-96448663D01*
X156928152Y-96447568D01*
X156913174Y-96446109D01*
X156898567Y-96444285D01*
X156884330Y-96442096D01*
X156870465Y-96439542D01*
X156856971Y-96436623D01*
X156843847Y-96433339D01*
X156831095Y-96429691D01*
X156818713Y-96425678D01*
X156806702Y-96421300D01*
X156795063Y-96416557D01*
X156783794Y-96411449D01*
X156772896Y-96405977D01*
X156767586Y-96403103D01*
X156757214Y-96397154D01*
X156747201Y-96390980D01*
X156737547Y-96384581D01*
X156728251Y-96377959D01*
X156719314Y-96371111D01*
X156710736Y-96364040D01*
X156702516Y-96356744D01*
X156694655Y-96349224D01*
X156687153Y-96341479D01*
X156680010Y-96333510D01*
X156673225Y-96325316D01*
X156666800Y-96316898D01*
X156660732Y-96308256D01*
X156655024Y-96299389D01*
X156649674Y-96290298D01*
X156644683Y-96280982D01*
X156640022Y-96271497D01*
X156635662Y-96261898D01*
X156631602Y-96252184D01*
X156627843Y-96242355D01*
X156624385Y-96232412D01*
X156621227Y-96222355D01*
X156618370Y-96212183D01*
X156615814Y-96201896D01*
X156613558Y-96191495D01*
X156611604Y-96180980D01*
X156609950Y-96170350D01*
X156608596Y-96159606D01*
X156607544Y-96148747D01*
X156606792Y-96137773D01*
X156606341Y-96126685D01*
X156606191Y-96115483D01*
X156606256Y-96106952D01*
X156606453Y-96098505D01*
X156606781Y-96090142D01*
X156607241Y-96081863D01*
X156607832Y-96073668D01*
X156608554Y-96065557D01*
X156609407Y-96057530D01*
X156610392Y-96049586D01*
X156611508Y-96041727D01*
X156612755Y-96033952D01*
X156614872Y-96022446D01*
X156617284Y-96011130D01*
X156619992Y-96000002D01*
X156622995Y-95989063D01*
X156626248Y-95978227D01*
X156629779Y-95967480D01*
X156633589Y-95956822D01*
X156637677Y-95946253D01*
X156642043Y-95935774D01*
X156646687Y-95925384D01*
X156651609Y-95915084D01*
X156656810Y-95904872D01*
X156662289Y-95894751D01*
X156668046Y-95884718D01*
X156672039Y-95878079D01*
X156750196Y-95923020D01*
X156743382Y-95934058D01*
X156737007Y-95945191D01*
X156731072Y-95956418D01*
X156725577Y-95967741D01*
X156720521Y-95979157D01*
X156715905Y-95990669D01*
X156711728Y-96002275D01*
X156707991Y-96013976D01*
X156704694Y-96025771D01*
X156701836Y-96037661D01*
X156699418Y-96049646D01*
X156697440Y-96061725D01*
X156695901Y-96073899D01*
X156694802Y-96086168D01*
X156694143Y-96098531D01*
X156693923Y-96110989D01*
X156694221Y-96125380D01*
X156695116Y-96139291D01*
X156696609Y-96152723D01*
X156698698Y-96165675D01*
X156701384Y-96178148D01*
X156704666Y-96190142D01*
X156708546Y-96201657D01*
X156713023Y-96212692D01*
X156718096Y-96223248D01*
X156723766Y-96233324D01*
X156730033Y-96242921D01*
X156736897Y-96252039D01*
X156744358Y-96260678D01*
X156752416Y-96268837D01*
X156761070Y-96276517D01*
X156770322Y-96283718D01*
X156780063Y-96290461D01*
X156790237Y-96296769D01*
X156800842Y-96302643D01*
X156811880Y-96308081D01*
X156823349Y-96313084D01*
X156835251Y-96317652D01*
X156847584Y-96321785D01*
X156860350Y-96325483D01*
X156873547Y-96328746D01*
X156887177Y-96331574D01*
X156901238Y-96333967D01*
X156915732Y-96335924D01*
X156930657Y-96337447D01*
X156946015Y-96338535D01*
X156953856Y-96338916D01*
X156961804Y-96339187D01*
X156969861Y-96339351D01*
X156978026Y-96339405D01*
X156986457Y-96339348D01*
X156994773Y-96339177D01*
X157002977Y-96338891D01*
X157011066Y-96338492D01*
X157019042Y-96337979D01*
X157026904Y-96337351D01*
X157042286Y-96335754D01*
X157057214Y-96333700D01*
X157071687Y-96331189D01*
X157085705Y-96328222D01*
X157099268Y-96324799D01*
X157112376Y-96320920D01*
X157125030Y-96316584D01*
X157137228Y-96311791D01*
X157148972Y-96306542D01*
X157160260Y-96300837D01*
X157171094Y-96294675D01*
X157181473Y-96288057D01*
X157191397Y-96280982D01*
X157200766Y-96273440D01*
X157209532Y-96265467D01*
X157217692Y-96257063D01*
X157225249Y-96248229D01*
X157232200Y-96238965D01*
X157238548Y-96229270D01*
X157244290Y-96219144D01*
X157249429Y-96208588D01*
X157253962Y-96197602D01*
X157257892Y-96186185D01*
X157261216Y-96174338D01*
X157263937Y-96162060D01*
X157266052Y-96149352D01*
X157267564Y-96136213D01*
X157268470Y-96122644D01*
X157268773Y-96108644D01*
X157268642Y-96098008D01*
X157268251Y-96087567D01*
X157267598Y-96077322D01*
X157266684Y-96067273D01*
X157265510Y-96057419D01*
X157264074Y-96047761D01*
X157262377Y-96038299D01*
X157260420Y-96029033D01*
X157258201Y-96019963D01*
X157255721Y-96011088D01*
X157253923Y-96005281D01*
X157250992Y-95996600D01*
X157247841Y-95987922D01*
X157244471Y-95979248D01*
X157240880Y-95970577D01*
X157237070Y-95961909D01*
X157233040Y-95953246D01*
X157228790Y-95944585D01*
X157224321Y-95935928D01*
X157219631Y-95927274D01*
X157214722Y-95918624D01*
X157211327Y-95912859D01*
X157286163Y-95871240D01*
X157290421Y-95878679D01*
X157294549Y-95886096D01*
X157298548Y-95893492D01*
X157302417Y-95900867D01*
X157306156Y-95908220D01*
X157309766Y-95915552D01*
X157313246Y-95922863D01*
X157316595Y-95930152D01*
X157319816Y-95937419D01*
X157322906Y-95944666D01*
X157327298Y-95955495D01*
X157331399Y-95966277D01*
X157335207Y-95977010D01*
X157338724Y-95987695D01*
X157341901Y-95998461D01*
X157344767Y-96009437D01*
X157347319Y-96020622D01*
X157349559Y-96032016D01*
X157350879Y-96039729D01*
X157352060Y-96047535D01*
X157353101Y-96055434D01*
X157354004Y-96063426D01*
X157354768Y-96071511D01*
X157355393Y-96079689D01*
X157355880Y-96087961D01*
X157356227Y-96096325D01*
X157356435Y-96104783D01*
X157356505Y-96113334D01*
G37*
G36*
X157356505Y-95642043D02*
G01*
X157356251Y-95656403D01*
X157355491Y-95670518D01*
X157354224Y-95684388D01*
X157352450Y-95698011D01*
X157350170Y-95711389D01*
X157347382Y-95724521D01*
X157344088Y-95737407D01*
X157340287Y-95750047D01*
X157335979Y-95762442D01*
X157331165Y-95774590D01*
X157325843Y-95786493D01*
X157320015Y-95798151D01*
X157313680Y-95809562D01*
X157306838Y-95820728D01*
X157299489Y-95831648D01*
X157291634Y-95842322D01*
X157214453Y-95788393D01*
X157219324Y-95782270D01*
X157225471Y-95774089D01*
X157231222Y-95765890D01*
X157236575Y-95757673D01*
X157241532Y-95749437D01*
X157246092Y-95741183D01*
X157250254Y-95732911D01*
X157254020Y-95724621D01*
X157254900Y-95722545D01*
X157258151Y-95714110D01*
X157260969Y-95705412D01*
X157263354Y-95696451D01*
X157265304Y-95687228D01*
X157266822Y-95677742D01*
X157267906Y-95667994D01*
X157268556Y-95657983D01*
X157268773Y-95647709D01*
X157268446Y-95636573D01*
X157267468Y-95625952D01*
X157265836Y-95615846D01*
X157263552Y-95606255D01*
X157260615Y-95597180D01*
X157257026Y-95588619D01*
X157252784Y-95580574D01*
X157247890Y-95573044D01*
X157242343Y-95566029D01*
X157236143Y-95559530D01*
X157231648Y-95555483D01*
X157224429Y-95549826D01*
X157216696Y-95544726D01*
X157208447Y-95540182D01*
X157199683Y-95536194D01*
X157190403Y-95532763D01*
X157180609Y-95529888D01*
X157170299Y-95527570D01*
X157159474Y-95525808D01*
X157148134Y-95524602D01*
X157140288Y-95524107D01*
X157132212Y-95523860D01*
X157128089Y-95523829D01*
X156618696Y-95523829D01*
X156618696Y-95420270D01*
X157128480Y-95420270D01*
X157138568Y-95420387D01*
X157148416Y-95420737D01*
X157158022Y-95421321D01*
X157167387Y-95422139D01*
X157176511Y-95423190D01*
X157185394Y-95424474D01*
X157194036Y-95425992D01*
X157202436Y-95427744D01*
X157210596Y-95429729D01*
X157218514Y-95431948D01*
X157226190Y-95434400D01*
X157233626Y-95437086D01*
X157244327Y-95441553D01*
X157254486Y-95446545D01*
X157260957Y-95450166D01*
X157270233Y-95455915D01*
X157279012Y-95462024D01*
X157287292Y-95468495D01*
X157295075Y-95475326D01*
X157302359Y-95482517D01*
X157309145Y-95490070D01*
X157315434Y-95497982D01*
X157321224Y-95506256D01*
X157326516Y-95514890D01*
X157331310Y-95523885D01*
X157334230Y-95530082D01*
X157338211Y-95539566D01*
X157341800Y-95549259D01*
X157344997Y-95559161D01*
X157347804Y-95569274D01*
X157350218Y-95579595D01*
X157352241Y-95590127D01*
X157353873Y-95600867D01*
X157355113Y-95611818D01*
X157355961Y-95622978D01*
X157356418Y-95634347D01*
X157356505Y-95642043D01*
G37*
G36*
X157256267Y-95143983D02*
G01*
X157256267Y-94786020D01*
X157344000Y-94786020D01*
X157344000Y-95247542D01*
X156618696Y-95247542D01*
X156618696Y-95143983D01*
X157256267Y-95143983D01*
G37*
G36*
X157356505Y-94419656D02*
G01*
X157356326Y-94433580D01*
X157355790Y-94447213D01*
X157354897Y-94460556D01*
X157353647Y-94473609D01*
X157352040Y-94486373D01*
X157350075Y-94498846D01*
X157347753Y-94511029D01*
X157345074Y-94522922D01*
X157342038Y-94534525D01*
X157338644Y-94545838D01*
X157334894Y-94556861D01*
X157330786Y-94567594D01*
X157326321Y-94578037D01*
X157321499Y-94588190D01*
X157316319Y-94598053D01*
X157310782Y-94607625D01*
X157304895Y-94616901D01*
X157298714Y-94625873D01*
X157292238Y-94634542D01*
X157285467Y-94642906D01*
X157278401Y-94650967D01*
X157271041Y-94658724D01*
X157263386Y-94666177D01*
X157255437Y-94673327D01*
X157247193Y-94680172D01*
X157238655Y-94686714D01*
X157229821Y-94692952D01*
X157220693Y-94698887D01*
X157211271Y-94704517D01*
X157201554Y-94709844D01*
X157191542Y-94714867D01*
X157181236Y-94719586D01*
X157170641Y-94724011D01*
X157159810Y-94728150D01*
X157148744Y-94732004D01*
X157137443Y-94735572D01*
X157125907Y-94738855D01*
X157114136Y-94741852D01*
X157102130Y-94744564D01*
X157089889Y-94746990D01*
X157077413Y-94749131D01*
X157064702Y-94750987D01*
X157051755Y-94752557D01*
X157038574Y-94753841D01*
X157025157Y-94754841D01*
X157011506Y-94755554D01*
X156997619Y-94755982D01*
X156983497Y-94756125D01*
X156975312Y-94756080D01*
X156967221Y-94755943D01*
X156959221Y-94755715D01*
X156951315Y-94755395D01*
X156943501Y-94754985D01*
X156928152Y-94753890D01*
X156913174Y-94752431D01*
X156898567Y-94750607D01*
X156884330Y-94748418D01*
X156870465Y-94745864D01*
X156856971Y-94742945D01*
X156843847Y-94739662D01*
X156831095Y-94736013D01*
X156818713Y-94732000D01*
X156806702Y-94727622D01*
X156795063Y-94722879D01*
X156783794Y-94717772D01*
X156772896Y-94712299D01*
X156767586Y-94709426D01*
X156757214Y-94703476D01*
X156747201Y-94697302D01*
X156737547Y-94690904D01*
X156728251Y-94684281D01*
X156719314Y-94677434D01*
X156710736Y-94670362D01*
X156702516Y-94663066D01*
X156694655Y-94655546D01*
X156687153Y-94647801D01*
X156680010Y-94639832D01*
X156673225Y-94631638D01*
X156666800Y-94623220D01*
X156660732Y-94614578D01*
X156655024Y-94605711D01*
X156649674Y-94596620D01*
X156644683Y-94587304D01*
X156640022Y-94577819D01*
X156635662Y-94568220D01*
X156631602Y-94558506D01*
X156627843Y-94548677D01*
X156624385Y-94538734D01*
X156621227Y-94528677D01*
X156618370Y-94518505D01*
X156615814Y-94508219D01*
X156613558Y-94497818D01*
X156611604Y-94487302D01*
X156609950Y-94476672D01*
X156608596Y-94465928D01*
X156607544Y-94455069D01*
X156606792Y-94444096D01*
X156606341Y-94433008D01*
X156606191Y-94421806D01*
X156606256Y-94413275D01*
X156606453Y-94404828D01*
X156606781Y-94396465D01*
X156607241Y-94388185D01*
X156607832Y-94379990D01*
X156608554Y-94371879D01*
X156609407Y-94363852D01*
X156610392Y-94355909D01*
X156611508Y-94348050D01*
X156612755Y-94340274D01*
X156614872Y-94328769D01*
X156617284Y-94317452D01*
X156619992Y-94306324D01*
X156622995Y-94295385D01*
X156626248Y-94284549D01*
X156629779Y-94273802D01*
X156633589Y-94263144D01*
X156637677Y-94252576D01*
X156642043Y-94242097D01*
X156646687Y-94231707D01*
X156651609Y-94221406D01*
X156656810Y-94211195D01*
X156662289Y-94201073D01*
X156668046Y-94191040D01*
X156672039Y-94184401D01*
X156750196Y-94229342D01*
X156743382Y-94240380D01*
X156737007Y-94251513D01*
X156731072Y-94262741D01*
X156725577Y-94274063D01*
X156720521Y-94285480D01*
X156715905Y-94296991D01*
X156711728Y-94308597D01*
X156707991Y-94320298D01*
X156704694Y-94332094D01*
X156701836Y-94343984D01*
X156699418Y-94355968D01*
X156697440Y-94368048D01*
X156695901Y-94380222D01*
X156694802Y-94392490D01*
X156694143Y-94404854D01*
X156693923Y-94417311D01*
X156694221Y-94431702D01*
X156695116Y-94445613D01*
X156696609Y-94459045D01*
X156698698Y-94471997D01*
X156701384Y-94484471D01*
X156704666Y-94496464D01*
X156708546Y-94507979D01*
X156713023Y-94519014D01*
X156718096Y-94529570D01*
X156723766Y-94539647D01*
X156730033Y-94549244D01*
X156736897Y-94558362D01*
X156744358Y-94567000D01*
X156752416Y-94575159D01*
X156761070Y-94582839D01*
X156770322Y-94590040D01*
X156780063Y-94596783D01*
X156790237Y-94603092D01*
X156800842Y-94608965D01*
X156811880Y-94614403D01*
X156823349Y-94619406D01*
X156835251Y-94623974D01*
X156847584Y-94628108D01*
X156860350Y-94631806D01*
X156873547Y-94635068D01*
X156887177Y-94637896D01*
X156901238Y-94640289D01*
X156915732Y-94642247D01*
X156930657Y-94643770D01*
X156946015Y-94644857D01*
X156953856Y-94645238D01*
X156961804Y-94645510D01*
X156969861Y-94645673D01*
X156978026Y-94645727D01*
X156986457Y-94645670D01*
X156994773Y-94645499D01*
X157002977Y-94645214D01*
X157011066Y-94644814D01*
X157019042Y-94644301D01*
X157026904Y-94643673D01*
X157042286Y-94642076D01*
X157057214Y-94640022D01*
X157071687Y-94637512D01*
X157085705Y-94634545D01*
X157099268Y-94631122D01*
X157112376Y-94627242D01*
X157125030Y-94622906D01*
X157137228Y-94618113D01*
X157148972Y-94612864D01*
X157160260Y-94607159D01*
X157171094Y-94600997D01*
X157181473Y-94594379D01*
X157191397Y-94587304D01*
X157200766Y-94579762D01*
X157209532Y-94571789D01*
X157217692Y-94563385D01*
X157225249Y-94554551D01*
X157232200Y-94545287D01*
X157238548Y-94535592D01*
X157244290Y-94525467D01*
X157249429Y-94514911D01*
X157253962Y-94503925D01*
X157257892Y-94492508D01*
X157261216Y-94480660D01*
X157263937Y-94468383D01*
X157266052Y-94455674D01*
X157267564Y-94442536D01*
X157268470Y-94428966D01*
X157268773Y-94414967D01*
X157268642Y-94404330D01*
X157268251Y-94393889D01*
X157267598Y-94383644D01*
X157266684Y-94373595D01*
X157265510Y-94363742D01*
X157264074Y-94354084D01*
X157262377Y-94344622D01*
X157260420Y-94335356D01*
X157258201Y-94326285D01*
X157255721Y-94317411D01*
X157253923Y-94311603D01*
X157250992Y-94302922D01*
X157247841Y-94294244D01*
X157244471Y-94285570D01*
X157240880Y-94276899D01*
X157237070Y-94268232D01*
X157233040Y-94259568D01*
X157228790Y-94250907D01*
X157224321Y-94242250D01*
X157219631Y-94233597D01*
X157214722Y-94224947D01*
X157211327Y-94219182D01*
X157286163Y-94177563D01*
X157290421Y-94185001D01*
X157294549Y-94192419D01*
X157298548Y-94199815D01*
X157302417Y-94207189D01*
X157306156Y-94214543D01*
X157309766Y-94221874D01*
X157313246Y-94229185D01*
X157316595Y-94236474D01*
X157319816Y-94243742D01*
X157322906Y-94250988D01*
X157327298Y-94261818D01*
X157331399Y-94272599D01*
X157335207Y-94283332D01*
X157338724Y-94294018D01*
X157341901Y-94304784D01*
X157344767Y-94315759D01*
X157347319Y-94326944D01*
X157349559Y-94338339D01*
X157350879Y-94346051D01*
X157352060Y-94353857D01*
X157353101Y-94361756D01*
X157354004Y-94369748D01*
X157354768Y-94377833D01*
X157355393Y-94386012D01*
X157355880Y-94394283D01*
X157356227Y-94402648D01*
X157356435Y-94411105D01*
X157356505Y-94419656D01*
G37*
G36*
X157356505Y-93948365D02*
G01*
X157356251Y-93962726D01*
X157355491Y-93976841D01*
X157354224Y-93990710D01*
X157352450Y-94004333D01*
X157350170Y-94017711D01*
X157347382Y-94030843D01*
X157344088Y-94043729D01*
X157340287Y-94056369D01*
X157335979Y-94068764D01*
X157331165Y-94080913D01*
X157325843Y-94092816D01*
X157320015Y-94104473D01*
X157313680Y-94115884D01*
X157306838Y-94127050D01*
X157299489Y-94137970D01*
X157291634Y-94148644D01*
X157214453Y-94094715D01*
X157219324Y-94088592D01*
X157225471Y-94080411D01*
X157231222Y-94072213D01*
X157236575Y-94063995D01*
X157241532Y-94055760D01*
X157246092Y-94047506D01*
X157250254Y-94039234D01*
X157254020Y-94030943D01*
X157254900Y-94028868D01*
X157258151Y-94020432D01*
X157260969Y-94011734D01*
X157263354Y-94002773D01*
X157265304Y-93993550D01*
X157266822Y-93984064D01*
X157267906Y-93974316D01*
X157268556Y-93964305D01*
X157268773Y-93954032D01*
X157268446Y-93942895D01*
X157267468Y-93932274D01*
X157265836Y-93922168D01*
X157263552Y-93912577D01*
X157260615Y-93903502D01*
X157257026Y-93894942D01*
X157252784Y-93886896D01*
X157247890Y-93879367D01*
X157242343Y-93872352D01*
X157236143Y-93865852D01*
X157231648Y-93861806D01*
X157224429Y-93856149D01*
X157216696Y-93851048D01*
X157208447Y-93846504D01*
X157199683Y-93842516D01*
X157190403Y-93839085D01*
X157180609Y-93836210D01*
X157170299Y-93833892D01*
X157159474Y-93832130D01*
X157148134Y-93830924D01*
X157140288Y-93830430D01*
X157132212Y-93830183D01*
X157128089Y-93830152D01*
X156618696Y-93830152D01*
X156618696Y-93726593D01*
X157128480Y-93726593D01*
X157138568Y-93726709D01*
X157148416Y-93727060D01*
X157158022Y-93727644D01*
X157167387Y-93728461D01*
X157176511Y-93729512D01*
X157185394Y-93730797D01*
X157194036Y-93732315D01*
X157202436Y-93734066D01*
X157210596Y-93736052D01*
X157218514Y-93738271D01*
X157226190Y-93740723D01*
X157233626Y-93743409D01*
X157244327Y-93747876D01*
X157254486Y-93752868D01*
X157260957Y-93756488D01*
X157270233Y-93762237D01*
X157279012Y-93768347D01*
X157287292Y-93774817D01*
X157295075Y-93781648D01*
X157302359Y-93788840D01*
X157309145Y-93796392D01*
X157315434Y-93804305D01*
X157321224Y-93812578D01*
X157326516Y-93821213D01*
X157331310Y-93830207D01*
X157334230Y-93836404D01*
X157338211Y-93845888D01*
X157341800Y-93855581D01*
X157344997Y-93865484D01*
X157347804Y-93875596D01*
X157350218Y-93885918D01*
X157352241Y-93896449D01*
X157353873Y-93907190D01*
X157355113Y-93918140D01*
X157355961Y-93929300D01*
X157356418Y-93940669D01*
X157356505Y-93948365D01*
G37*
G36*
X157256267Y-93450305D02*
G01*
X157256267Y-93092343D01*
X157344000Y-93092343D01*
X157344000Y-93553864D01*
X156618696Y-93553864D01*
X156618696Y-93450305D01*
X157256267Y-93450305D01*
G37*
G36*
X157356505Y-92725979D02*
G01*
X157356326Y-92739902D01*
X157355790Y-92753535D01*
X157354897Y-92766879D01*
X157353647Y-92779932D01*
X157352040Y-92792695D01*
X157350075Y-92805168D01*
X157347753Y-92817351D01*
X157345074Y-92829244D01*
X157342038Y-92840848D01*
X157338644Y-92852161D01*
X157334894Y-92863184D01*
X157330786Y-92873916D01*
X157326321Y-92884359D01*
X157321499Y-92894512D01*
X157316319Y-92904375D01*
X157310782Y-92913948D01*
X157304895Y-92923224D01*
X157298714Y-92932196D01*
X157292238Y-92940864D01*
X157285467Y-92949229D01*
X157278401Y-92957290D01*
X157271041Y-92965047D01*
X157263386Y-92972500D01*
X157255437Y-92979649D01*
X157247193Y-92986495D01*
X157238655Y-92993037D01*
X157229821Y-92999275D01*
X157220693Y-93005209D01*
X157211271Y-93010840D01*
X157201554Y-93016167D01*
X157191542Y-93021190D01*
X157181236Y-93025909D01*
X157170641Y-93030333D01*
X157159810Y-93034473D01*
X157148744Y-93038326D01*
X157137443Y-93041894D01*
X157125907Y-93045177D01*
X157114136Y-93048175D01*
X157102130Y-93050886D01*
X157089889Y-93053313D01*
X157077413Y-93055454D01*
X157064702Y-93057309D01*
X157051755Y-93058879D01*
X157038574Y-93060164D01*
X157025157Y-93061163D01*
X157011506Y-93061877D01*
X156997619Y-93062305D01*
X156983497Y-93062448D01*
X156975312Y-93062402D01*
X156967221Y-93062265D01*
X156959221Y-93062037D01*
X156951315Y-93061718D01*
X156943501Y-93061307D01*
X156928152Y-93060213D01*
X156913174Y-93058754D01*
X156898567Y-93056929D01*
X156884330Y-93054740D01*
X156870465Y-93052186D01*
X156856971Y-93049268D01*
X156843847Y-93045984D01*
X156831095Y-93042336D01*
X156818713Y-93038323D01*
X156806702Y-93033945D01*
X156795063Y-93029202D01*
X156783794Y-93024094D01*
X156772896Y-93018621D01*
X156767586Y-93015748D01*
X156757214Y-93009799D01*
X156747201Y-93003625D01*
X156737547Y-92997226D01*
X156728251Y-92990603D01*
X156719314Y-92983756D01*
X156710736Y-92976685D01*
X156702516Y-92969389D01*
X156694655Y-92961868D01*
X156687153Y-92954124D01*
X156680010Y-92946154D01*
X156673225Y-92937961D01*
X156666800Y-92929543D01*
X156660732Y-92920900D01*
X156655024Y-92912034D01*
X156649674Y-92902942D01*
X156644683Y-92893627D01*
X156640022Y-92884142D01*
X156635662Y-92874542D01*
X156631602Y-92864828D01*
X156627843Y-92855000D01*
X156624385Y-92845057D01*
X156621227Y-92834999D01*
X156618370Y-92824827D01*
X156615814Y-92814541D01*
X156613558Y-92804140D01*
X156611604Y-92793625D01*
X156609950Y-92782995D01*
X156608596Y-92772250D01*
X156607544Y-92761391D01*
X156606792Y-92750418D01*
X156606341Y-92739330D01*
X156606191Y-92728128D01*
X156606256Y-92719597D01*
X156606453Y-92711150D01*
X156606781Y-92702787D01*
X156607241Y-92694508D01*
X156607832Y-92686313D01*
X156608554Y-92678202D01*
X156609407Y-92670174D01*
X156610392Y-92662231D01*
X156611508Y-92654372D01*
X156612755Y-92646597D01*
X156614872Y-92635091D01*
X156617284Y-92623774D01*
X156619992Y-92612647D01*
X156622995Y-92601708D01*
X156626248Y-92590871D01*
X156629779Y-92580124D01*
X156633589Y-92569467D01*
X156637677Y-92558898D01*
X156642043Y-92548419D01*
X156646687Y-92538029D01*
X156651609Y-92527729D01*
X156656810Y-92517517D01*
X156662289Y-92507395D01*
X156668046Y-92497363D01*
X156672039Y-92490724D01*
X156750196Y-92535665D01*
X156743382Y-92546703D01*
X156737007Y-92557836D01*
X156731072Y-92569063D01*
X156725577Y-92580385D01*
X156720521Y-92591802D01*
X156715905Y-92603314D01*
X156711728Y-92614920D01*
X156707991Y-92626621D01*
X156704694Y-92638416D01*
X156701836Y-92650306D01*
X156699418Y-92662291D01*
X156697440Y-92674370D01*
X156695901Y-92686544D01*
X156694802Y-92698813D01*
X156694143Y-92711176D01*
X156693923Y-92723634D01*
X156694221Y-92738024D01*
X156695116Y-92751935D01*
X156696609Y-92765367D01*
X156698698Y-92778320D01*
X156701384Y-92790793D01*
X156704666Y-92802787D01*
X156708546Y-92814301D01*
X156713023Y-92825337D01*
X156718096Y-92835892D01*
X156723766Y-92845969D01*
X156730033Y-92855566D01*
X156736897Y-92864684D01*
X156744358Y-92873323D01*
X156752416Y-92881482D01*
X156761070Y-92889162D01*
X156770322Y-92896362D01*
X156780063Y-92903106D01*
X156790237Y-92909414D01*
X156800842Y-92915287D01*
X156811880Y-92920726D01*
X156823349Y-92925729D01*
X156835251Y-92930297D01*
X156847584Y-92934430D01*
X156860350Y-92938128D01*
X156873547Y-92941391D01*
X156887177Y-92944219D01*
X156901238Y-92946612D01*
X156915732Y-92948569D01*
X156930657Y-92950092D01*
X156946015Y-92951180D01*
X156953856Y-92951560D01*
X156961804Y-92951832D01*
X156969861Y-92951995D01*
X156978026Y-92952050D01*
X156986457Y-92951993D01*
X156994773Y-92951822D01*
X157002977Y-92951536D01*
X157011066Y-92951137D01*
X157019042Y-92950623D01*
X157026904Y-92949996D01*
X157042286Y-92948398D01*
X157057214Y-92946344D01*
X157071687Y-92943834D01*
X157085705Y-92940867D01*
X157099268Y-92937444D01*
X157112376Y-92933564D01*
X157125030Y-92929228D01*
X157137228Y-92924436D01*
X157148972Y-92919187D01*
X157160260Y-92913482D01*
X157171094Y-92907320D01*
X157181473Y-92900702D01*
X157191397Y-92893627D01*
X157200766Y-92886084D01*
X157209532Y-92878111D01*
X157217692Y-92869708D01*
X157225249Y-92860874D01*
X157232200Y-92851609D01*
X157238548Y-92841915D01*
X157244290Y-92831789D01*
X157249429Y-92821233D01*
X157253962Y-92810247D01*
X157257892Y-92798830D01*
X157261216Y-92786983D01*
X157263937Y-92774705D01*
X157266052Y-92761997D01*
X157267564Y-92748858D01*
X157268470Y-92735289D01*
X157268773Y-92721289D01*
X157268642Y-92710653D01*
X157268251Y-92700212D01*
X157267598Y-92689967D01*
X157266684Y-92679917D01*
X157265510Y-92670064D01*
X157264074Y-92660406D01*
X157262377Y-92650944D01*
X157260420Y-92641678D01*
X157258201Y-92632608D01*
X157255721Y-92623733D01*
X157253923Y-92617926D01*
X157250992Y-92609244D01*
X157247841Y-92600567D01*
X157244471Y-92591892D01*
X157240880Y-92583222D01*
X157237070Y-92574554D01*
X157233040Y-92565890D01*
X157228790Y-92557230D01*
X157224321Y-92548573D01*
X157219631Y-92539919D01*
X157214722Y-92531269D01*
X157211327Y-92525504D01*
X157286163Y-92483885D01*
X157290421Y-92491324D01*
X157294549Y-92498741D01*
X157298548Y-92506137D01*
X157302417Y-92513512D01*
X157306156Y-92520865D01*
X157309766Y-92528197D01*
X157313246Y-92535507D01*
X157316595Y-92542796D01*
X157319816Y-92550064D01*
X157322906Y-92557311D01*
X157327298Y-92568140D01*
X157331399Y-92578921D01*
X157335207Y-92589655D01*
X157338724Y-92600340D01*
X157341901Y-92611106D01*
X157344767Y-92622081D01*
X157347319Y-92633266D01*
X157349559Y-92644661D01*
X157350879Y-92652374D01*
X157352060Y-92660180D01*
X157353101Y-92668079D01*
X157354004Y-92676071D01*
X157354768Y-92684156D01*
X157355393Y-92692334D01*
X157355880Y-92700606D01*
X157356227Y-92708970D01*
X157356435Y-92717428D01*
X157356505Y-92725979D01*
G37*
G36*
X157356505Y-92254688D02*
G01*
X157356251Y-92269048D01*
X157355491Y-92283163D01*
X157354224Y-92297032D01*
X157352450Y-92310656D01*
X157350170Y-92324033D01*
X157347382Y-92337165D01*
X157344088Y-92350051D01*
X157340287Y-92362692D01*
X157335979Y-92375086D01*
X157331165Y-92387235D01*
X157325843Y-92399138D01*
X157320015Y-92410795D01*
X157313680Y-92422207D01*
X157306838Y-92433373D01*
X157299489Y-92444293D01*
X157291634Y-92454967D01*
X157214453Y-92401038D01*
X157219324Y-92394914D01*
X157225471Y-92386734D01*
X157231222Y-92378535D01*
X157236575Y-92370318D01*
X157241532Y-92362082D01*
X157246092Y-92353828D01*
X157250254Y-92345556D01*
X157254020Y-92337266D01*
X157254900Y-92335190D01*
X157258151Y-92326754D01*
X157260969Y-92318056D01*
X157263354Y-92309096D01*
X157265304Y-92299872D01*
X157266822Y-92290387D01*
X157267906Y-92280638D01*
X157268556Y-92270627D01*
X157268773Y-92260354D01*
X157268446Y-92249218D01*
X157267468Y-92238597D01*
X157265836Y-92228491D01*
X157263552Y-92218900D01*
X157260615Y-92209824D01*
X157257026Y-92201264D01*
X157252784Y-92193219D01*
X157247890Y-92185689D01*
X157242343Y-92178674D01*
X157236143Y-92172175D01*
X157231648Y-92168128D01*
X157224429Y-92162471D01*
X157216696Y-92157371D01*
X157208447Y-92152826D01*
X157199683Y-92148839D01*
X157190403Y-92145408D01*
X157180609Y-92142533D01*
X157170299Y-92140214D01*
X157159474Y-92138452D01*
X157148134Y-92137247D01*
X157140288Y-92136752D01*
X157132212Y-92136505D01*
X157128089Y-92136474D01*
X156618696Y-92136474D01*
X156618696Y-92032915D01*
X157128480Y-92032915D01*
X157138568Y-92033032D01*
X157148416Y-92033382D01*
X157158022Y-92033966D01*
X157167387Y-92034784D01*
X157176511Y-92035835D01*
X157185394Y-92037119D01*
X157194036Y-92038637D01*
X157202436Y-92040389D01*
X157210596Y-92042374D01*
X157218514Y-92044593D01*
X157226190Y-92047045D01*
X157233626Y-92049731D01*
X157244327Y-92054198D01*
X157254486Y-92059190D01*
X157260957Y-92062810D01*
X157270233Y-92068559D01*
X157279012Y-92074669D01*
X157287292Y-92081139D01*
X157295075Y-92087970D01*
X157302359Y-92095162D01*
X157309145Y-92102714D01*
X157315434Y-92110627D01*
X157321224Y-92118901D01*
X157326516Y-92127535D01*
X157331310Y-92136530D01*
X157334230Y-92142727D01*
X157338211Y-92152210D01*
X157341800Y-92161904D01*
X157344997Y-92171806D01*
X157347804Y-92181918D01*
X157350218Y-92192240D01*
X157352241Y-92202771D01*
X157353873Y-92213512D01*
X157355113Y-92224463D01*
X157355961Y-92235622D01*
X157356418Y-92246992D01*
X157356505Y-92254688D01*
G37*
G36*
X157256267Y-91756628D02*
G01*
X157256267Y-91398665D01*
X157344000Y-91398665D01*
X157344000Y-91860187D01*
X156618696Y-91860187D01*
X156618696Y-91756628D01*
X157256267Y-91756628D01*
G37*
G36*
X157356505Y-91032301D02*
G01*
X157356326Y-91046224D01*
X157355790Y-91059858D01*
X157354897Y-91073201D01*
X157353647Y-91086254D01*
X157352040Y-91099017D01*
X157350075Y-91111491D01*
X157347753Y-91123674D01*
X157345074Y-91135567D01*
X157342038Y-91147170D01*
X157338644Y-91158483D01*
X157334894Y-91169506D01*
X157330786Y-91180239D01*
X157326321Y-91190682D01*
X157321499Y-91200835D01*
X157316319Y-91210697D01*
X157310782Y-91220270D01*
X157304895Y-91229546D01*
X157298714Y-91238518D01*
X157292238Y-91247187D01*
X157285467Y-91255551D01*
X157278401Y-91263612D01*
X157271041Y-91271369D01*
X157263386Y-91278822D01*
X157255437Y-91285972D01*
X157247193Y-91292817D01*
X157238655Y-91299359D01*
X157229821Y-91305597D01*
X157220693Y-91311532D01*
X157211271Y-91317162D01*
X157201554Y-91322489D01*
X157191542Y-91327512D01*
X157181236Y-91332231D01*
X157170641Y-91336656D01*
X157159810Y-91340795D01*
X157148744Y-91344649D01*
X157137443Y-91348217D01*
X157125907Y-91351500D01*
X157114136Y-91354497D01*
X157102130Y-91357209D01*
X157089889Y-91359635D01*
X157077413Y-91361776D01*
X157064702Y-91363632D01*
X157051755Y-91365202D01*
X157038574Y-91366486D01*
X157025157Y-91367485D01*
X157011506Y-91368199D01*
X156997619Y-91368627D01*
X156983497Y-91368770D01*
X156975312Y-91368724D01*
X156967221Y-91368587D01*
X156959221Y-91368359D01*
X156951315Y-91368040D01*
X156943501Y-91367630D01*
X156928152Y-91366535D01*
X156913174Y-91365076D01*
X156898567Y-91363252D01*
X156884330Y-91361063D01*
X156870465Y-91358509D01*
X156856971Y-91355590D01*
X156843847Y-91352307D01*
X156831095Y-91348658D01*
X156818713Y-91344645D01*
X156806702Y-91340267D01*
X156795063Y-91335524D01*
X156783794Y-91330416D01*
X156772896Y-91324944D01*
X156767586Y-91322071D01*
X156757214Y-91316121D01*
X156747201Y-91309947D01*
X156737547Y-91303549D01*
X156728251Y-91296926D01*
X156719314Y-91290079D01*
X156710736Y-91283007D01*
X156702516Y-91275711D01*
X156694655Y-91268191D01*
X156687153Y-91260446D01*
X156680010Y-91252477D01*
X156673225Y-91244283D01*
X156666800Y-91235865D01*
X156660732Y-91227223D01*
X156655024Y-91218356D01*
X156649674Y-91209265D01*
X156644683Y-91199949D01*
X156640022Y-91190464D01*
X156635662Y-91180865D01*
X156631602Y-91171151D01*
X156627843Y-91161322D01*
X156624385Y-91151379D01*
X156621227Y-91141322D01*
X156618370Y-91131150D01*
X156615814Y-91120863D01*
X156613558Y-91110462D01*
X156611604Y-91099947D01*
X156609950Y-91089317D01*
X156608596Y-91078573D01*
X156607544Y-91067714D01*
X156606792Y-91056741D01*
X156606341Y-91045653D01*
X156606191Y-91034450D01*
X156606256Y-91025919D01*
X156606453Y-91017472D01*
X156606781Y-91009109D01*
X156607241Y-91000830D01*
X156607832Y-90992635D01*
X156608554Y-90984524D01*
X156609407Y-90976497D01*
X156610392Y-90968554D01*
X156611508Y-90960694D01*
X156612755Y-90952919D01*
X156614872Y-90941413D01*
X156617284Y-90930097D01*
X156619992Y-90918969D01*
X156622995Y-90908030D01*
X156626248Y-90897194D01*
X156629779Y-90886447D01*
X156633589Y-90875789D01*
X156637677Y-90865221D01*
X156642043Y-90854741D01*
X156646687Y-90844352D01*
X156651609Y-90834051D01*
X156656810Y-90823840D01*
X156662289Y-90813718D01*
X156668046Y-90803685D01*
X156672039Y-90797046D01*
X156750196Y-90841987D01*
X156743382Y-90853025D01*
X156737007Y-90864158D01*
X156731072Y-90875386D01*
X156725577Y-90886708D01*
X156720521Y-90898125D01*
X156715905Y-90909636D01*
X156711728Y-90921242D01*
X156707991Y-90932943D01*
X156704694Y-90944738D01*
X156701836Y-90956628D01*
X156699418Y-90968613D01*
X156697440Y-90980692D01*
X156695901Y-90992866D01*
X156694802Y-91005135D01*
X156694143Y-91017498D01*
X156693923Y-91029956D01*
X156694221Y-91044347D01*
X156695116Y-91058258D01*
X156696609Y-91071690D01*
X156698698Y-91084642D01*
X156701384Y-91097115D01*
X156704666Y-91109109D01*
X156708546Y-91120624D01*
X156713023Y-91131659D01*
X156718096Y-91142215D01*
X156723766Y-91152291D01*
X156730033Y-91161889D01*
X156736897Y-91171006D01*
X156744358Y-91179645D01*
X156752416Y-91187804D01*
X156761070Y-91195484D01*
X156770322Y-91202685D01*
X156780063Y-91209428D01*
X156790237Y-91215737D01*
X156800842Y-91221610D01*
X156811880Y-91227048D01*
X156823349Y-91232051D01*
X156835251Y-91236619D01*
X156847584Y-91240752D01*
X156860350Y-91244450D01*
X156873547Y-91247713D01*
X156887177Y-91250541D01*
X156901238Y-91252934D01*
X156915732Y-91254892D01*
X156930657Y-91256414D01*
X156946015Y-91257502D01*
X156953856Y-91257883D01*
X156961804Y-91258155D01*
X156969861Y-91258318D01*
X156978026Y-91258372D01*
X156986457Y-91258315D01*
X156994773Y-91258144D01*
X157002977Y-91257859D01*
X157011066Y-91257459D01*
X157019042Y-91256946D01*
X157026904Y-91256318D01*
X157042286Y-91254721D01*
X157057214Y-91252667D01*
X157071687Y-91250156D01*
X157085705Y-91247190D01*
X157099268Y-91243766D01*
X157112376Y-91239887D01*
X157125030Y-91235551D01*
X157137228Y-91230758D01*
X157148972Y-91225509D01*
X157160260Y-91219804D01*
X157171094Y-91213642D01*
X157181473Y-91207024D01*
X157191397Y-91199949D01*
X157200766Y-91192407D01*
X157209532Y-91184434D01*
X157217692Y-91176030D01*
X157225249Y-91167196D01*
X157232200Y-91157932D01*
X157238548Y-91148237D01*
X157244290Y-91138112D01*
X157249429Y-91127556D01*
X157253962Y-91116569D01*
X157257892Y-91105153D01*
X157261216Y-91093305D01*
X157263937Y-91081027D01*
X157266052Y-91068319D01*
X157267564Y-91055180D01*
X157268470Y-91041611D01*
X157268773Y-91027612D01*
X157268642Y-91016975D01*
X157268251Y-91006534D01*
X157267598Y-90996289D01*
X157266684Y-90986240D01*
X157265510Y-90976386D01*
X157264074Y-90966729D01*
X157262377Y-90957267D01*
X157260420Y-90948001D01*
X157258201Y-90938930D01*
X157255721Y-90930056D01*
X157253923Y-90924248D01*
X157250992Y-90915567D01*
X157247841Y-90906889D01*
X157244471Y-90898215D01*
X157240880Y-90889544D01*
X157237070Y-90880877D01*
X157233040Y-90872213D01*
X157228790Y-90863552D01*
X157224321Y-90854895D01*
X157219631Y-90846242D01*
X157214722Y-90837591D01*
X157211327Y-90831826D01*
X157286163Y-90790207D01*
X157290421Y-90797646D01*
X157294549Y-90805064D01*
X157298548Y-90812460D01*
X157302417Y-90819834D01*
X157306156Y-90827187D01*
X157309766Y-90834519D01*
X157313246Y-90841830D01*
X157316595Y-90849119D01*
X157319816Y-90856387D01*
X157322906Y-90863633D01*
X157327298Y-90874462D01*
X157331399Y-90885244D01*
X157335207Y-90895977D01*
X157338724Y-90906662D01*
X157341901Y-90917428D01*
X157344767Y-90928404D01*
X157347319Y-90939589D01*
X157349559Y-90950983D01*
X157350879Y-90958696D01*
X157352060Y-90966502D01*
X157353101Y-90974401D01*
X157354004Y-90982393D01*
X157354768Y-90990478D01*
X157355393Y-90998657D01*
X157355880Y-91006928D01*
X157356227Y-91015293D01*
X157356435Y-91023750D01*
X157356505Y-91032301D01*
G37*
D11*
G36*
X163926930Y-110114557D02*
G01*
X163947086Y-110115445D01*
X163966819Y-110116925D01*
X163986131Y-110118997D01*
X164005020Y-110121660D01*
X164023488Y-110124916D01*
X164041534Y-110128763D01*
X164059158Y-110133202D01*
X164076360Y-110138234D01*
X164093140Y-110143857D01*
X164109498Y-110150072D01*
X164125435Y-110156879D01*
X164140949Y-110164278D01*
X164156042Y-110172268D01*
X164170712Y-110180851D01*
X164184961Y-110190026D01*
X164198771Y-110199693D01*
X164212126Y-110209756D01*
X164225025Y-110220213D01*
X164237469Y-110231064D01*
X164249457Y-110242311D01*
X164260990Y-110253952D01*
X164272067Y-110265987D01*
X164282689Y-110278417D01*
X164292855Y-110291242D01*
X164302566Y-110304461D01*
X164311821Y-110318075D01*
X164320621Y-110332083D01*
X164328966Y-110346486D01*
X164336855Y-110361284D01*
X164344288Y-110376476D01*
X164351266Y-110392063D01*
X164357773Y-110407915D01*
X164363860Y-110423967D01*
X164369527Y-110440222D01*
X164374774Y-110456678D01*
X164379602Y-110473335D01*
X164384010Y-110490194D01*
X164387998Y-110507254D01*
X164391566Y-110524516D01*
X164394715Y-110541980D01*
X164397443Y-110559644D01*
X164399752Y-110577511D01*
X164401641Y-110595579D01*
X164403110Y-110613848D01*
X164404160Y-110632319D01*
X164404790Y-110650991D01*
X164405000Y-110669865D01*
X164405000Y-110996296D01*
X163407707Y-110996296D01*
X163407707Y-110776526D01*
X163596580Y-110776526D01*
X164216127Y-110776526D01*
X164216127Y-110708553D01*
X164216028Y-110692869D01*
X164215732Y-110677585D01*
X164215239Y-110662702D01*
X164214548Y-110648221D01*
X164213660Y-110634140D01*
X164212575Y-110620460D01*
X164211293Y-110607181D01*
X164209813Y-110594302D01*
X164208136Y-110581825D01*
X164206261Y-110569749D01*
X164204190Y-110558073D01*
X164201921Y-110546799D01*
X164199454Y-110535925D01*
X164196791Y-110525452D01*
X164192426Y-110510495D01*
X164190872Y-110505709D01*
X164185766Y-110491830D01*
X164179918Y-110478601D01*
X164173329Y-110466025D01*
X164165999Y-110454100D01*
X164157927Y-110442827D01*
X164149114Y-110432206D01*
X164139559Y-110422236D01*
X164129263Y-110412919D01*
X164118225Y-110404252D01*
X164106446Y-110396238D01*
X164098182Y-110391257D01*
X164084991Y-110384343D01*
X164070809Y-110378109D01*
X164055635Y-110372556D01*
X164044968Y-110369231D01*
X164033861Y-110366208D01*
X164022312Y-110363488D01*
X164010323Y-110361070D01*
X163997893Y-110358954D01*
X163985022Y-110357141D01*
X163971710Y-110355629D01*
X163957958Y-110354420D01*
X163943765Y-110353514D01*
X163929131Y-110352909D01*
X163914056Y-110352607D01*
X163906353Y-110352569D01*
X163892165Y-110352706D01*
X163878349Y-110353115D01*
X163864904Y-110353797D01*
X163851831Y-110354752D01*
X163839129Y-110355980D01*
X163826798Y-110357481D01*
X163814840Y-110359254D01*
X163803252Y-110361301D01*
X163792036Y-110363620D01*
X163781192Y-110366212D01*
X163770719Y-110369078D01*
X163755707Y-110373887D01*
X163741530Y-110379310D01*
X163728189Y-110385347D01*
X163723928Y-110387496D01*
X163711615Y-110394289D01*
X163699962Y-110401673D01*
X163688971Y-110409648D01*
X163678641Y-110418212D01*
X163668972Y-110427367D01*
X163659965Y-110437112D01*
X163651618Y-110447448D01*
X163643933Y-110458374D01*
X163636909Y-110469890D01*
X163630546Y-110481996D01*
X163626671Y-110490395D01*
X163621293Y-110503454D01*
X163616445Y-110517141D01*
X163612125Y-110531457D01*
X163608334Y-110546400D01*
X163605073Y-110561971D01*
X163603192Y-110572701D01*
X163601546Y-110583710D01*
X163600136Y-110594999D01*
X163598960Y-110606566D01*
X163598020Y-110618412D01*
X163597315Y-110630538D01*
X163596845Y-110642943D01*
X163596609Y-110655627D01*
X163596580Y-110662074D01*
X163596580Y-110776526D01*
X163407707Y-110776526D01*
X163407707Y-110662074D01*
X163407818Y-110645933D01*
X163408149Y-110630019D01*
X163408701Y-110614333D01*
X163409474Y-110598874D01*
X163410469Y-110583642D01*
X163411684Y-110568637D01*
X163413120Y-110553860D01*
X163414776Y-110539310D01*
X163416654Y-110524987D01*
X163418753Y-110510891D01*
X163421073Y-110497022D01*
X163423613Y-110483381D01*
X163426374Y-110469966D01*
X163429357Y-110456780D01*
X163432560Y-110443820D01*
X163435984Y-110431087D01*
X163439629Y-110418582D01*
X163443495Y-110406304D01*
X163447582Y-110394253D01*
X163451890Y-110382429D01*
X163456419Y-110370833D01*
X163461169Y-110359463D01*
X163466139Y-110348321D01*
X163471331Y-110337406D01*
X163476743Y-110326719D01*
X163482377Y-110316258D01*
X163488231Y-110306025D01*
X163494306Y-110296019D01*
X163500602Y-110286240D01*
X163507119Y-110276689D01*
X163513857Y-110267364D01*
X163520816Y-110258267D01*
X163528041Y-110249407D01*
X163535577Y-110240829D01*
X163543424Y-110232532D01*
X163551583Y-110224516D01*
X163560052Y-110216781D01*
X163568833Y-110209328D01*
X163577925Y-110202155D01*
X163587328Y-110195265D01*
X163597042Y-110188655D01*
X163607068Y-110182327D01*
X163617404Y-110176279D01*
X163628052Y-110170514D01*
X163639011Y-110165029D01*
X163650281Y-110159826D01*
X163661862Y-110154904D01*
X163673755Y-110150263D01*
X163685958Y-110145903D01*
X163698473Y-110141825D01*
X163711299Y-110138028D01*
X163724436Y-110134512D01*
X163737885Y-110131278D01*
X163751644Y-110128324D01*
X163765715Y-110125653D01*
X163780097Y-110123262D01*
X163794790Y-110121152D01*
X163809794Y-110119324D01*
X163825109Y-110117777D01*
X163840736Y-110116512D01*
X163856673Y-110115527D01*
X163872922Y-110114824D01*
X163889482Y-110114402D01*
X163906353Y-110114261D01*
X163926930Y-110114557D01*
G37*
G36*
X164422194Y-109537433D02*
G01*
X164421976Y-109556196D01*
X164421321Y-109574534D01*
X164420230Y-109592449D01*
X164418702Y-109609940D01*
X164416737Y-109627006D01*
X164414336Y-109643649D01*
X164411498Y-109659868D01*
X164408224Y-109675662D01*
X164404513Y-109691033D01*
X164400365Y-109705980D01*
X164395781Y-109720502D01*
X164390760Y-109734601D01*
X164385303Y-109748276D01*
X164379409Y-109761527D01*
X164373078Y-109774353D01*
X164366311Y-109786756D01*
X164359171Y-109798738D01*
X164351719Y-109810302D01*
X164343957Y-109821449D01*
X164335885Y-109832178D01*
X164327502Y-109842489D01*
X164318808Y-109852382D01*
X164309803Y-109861858D01*
X164300488Y-109870916D01*
X164290862Y-109879557D01*
X164280926Y-109887779D01*
X164270679Y-109895584D01*
X164260121Y-109902972D01*
X164249252Y-109909941D01*
X164238073Y-109916493D01*
X164226584Y-109922627D01*
X164214783Y-109928344D01*
X164202689Y-109933679D01*
X164190385Y-109938671D01*
X164177871Y-109943318D01*
X164165147Y-109947621D01*
X164152213Y-109951579D01*
X164139069Y-109955194D01*
X164125716Y-109958464D01*
X164112152Y-109961390D01*
X164098379Y-109963972D01*
X164084396Y-109966209D01*
X164070202Y-109968102D01*
X164055799Y-109969651D01*
X164041186Y-109970856D01*
X164026364Y-109971717D01*
X164011331Y-109972233D01*
X163996088Y-109972405D01*
X163407707Y-109972405D01*
X163407707Y-109752635D01*
X163968953Y-109752635D01*
X163984782Y-109752436D01*
X164000164Y-109751838D01*
X164015099Y-109750841D01*
X164029588Y-109749445D01*
X164043629Y-109747650D01*
X164057222Y-109745457D01*
X164070369Y-109742865D01*
X164083069Y-109739874D01*
X164095322Y-109736484D01*
X164107127Y-109732695D01*
X164118486Y-109728508D01*
X164129397Y-109723922D01*
X164139862Y-109718937D01*
X164149879Y-109713553D01*
X164159449Y-109707770D01*
X164168572Y-109701589D01*
X164177161Y-109694911D01*
X164185196Y-109687639D01*
X164192677Y-109679773D01*
X164199603Y-109671313D01*
X164205976Y-109662259D01*
X164211794Y-109652612D01*
X164217058Y-109642370D01*
X164221769Y-109631534D01*
X164225924Y-109620104D01*
X164229526Y-109608080D01*
X164232574Y-109595462D01*
X164235068Y-109582250D01*
X164237007Y-109568444D01*
X164238392Y-109554044D01*
X164239223Y-109539050D01*
X164239501Y-109523462D01*
X164239223Y-109508662D01*
X164238392Y-109494417D01*
X164237007Y-109480729D01*
X164235068Y-109467596D01*
X164232574Y-109455021D01*
X164229526Y-109443001D01*
X164225924Y-109431537D01*
X164221769Y-109420630D01*
X164217058Y-109410279D01*
X164211794Y-109400484D01*
X164205976Y-109391246D01*
X164199603Y-109382563D01*
X164189006Y-109370583D01*
X164177161Y-109359854D01*
X164168572Y-109353396D01*
X164159509Y-109347377D01*
X164150118Y-109341747D01*
X164140400Y-109336505D01*
X164130355Y-109331651D01*
X164119981Y-109327185D01*
X164109281Y-109323108D01*
X164098253Y-109319419D01*
X164086898Y-109316119D01*
X164075215Y-109313206D01*
X164063205Y-109310682D01*
X164050867Y-109308547D01*
X164038202Y-109306799D01*
X164025209Y-109305440D01*
X164011889Y-109304469D01*
X163998242Y-109303887D01*
X163984267Y-109303693D01*
X163407707Y-109303693D01*
X163407707Y-109083923D01*
X163991521Y-109083923D01*
X164010277Y-109084153D01*
X164028597Y-109084842D01*
X164046480Y-109085992D01*
X164063927Y-109087600D01*
X164080937Y-109089669D01*
X164097510Y-109092197D01*
X164113647Y-109095185D01*
X164129347Y-109098633D01*
X164144611Y-109102540D01*
X164159438Y-109106907D01*
X164173828Y-109111733D01*
X164187782Y-109117019D01*
X164201299Y-109122765D01*
X164214380Y-109128971D01*
X164227024Y-109135636D01*
X164239232Y-109142761D01*
X164250985Y-109150283D01*
X164262333Y-109158138D01*
X164273276Y-109166327D01*
X164283814Y-109174850D01*
X164293947Y-109183707D01*
X164303674Y-109192897D01*
X164312997Y-109202421D01*
X164321914Y-109212279D01*
X164330427Y-109222470D01*
X164338534Y-109232995D01*
X164346236Y-109243854D01*
X164353533Y-109255047D01*
X164360425Y-109266574D01*
X164366912Y-109278434D01*
X164372993Y-109290628D01*
X164378670Y-109303155D01*
X164383941Y-109315940D01*
X164388871Y-109328973D01*
X164393462Y-109342253D01*
X164397712Y-109355781D01*
X164401622Y-109369556D01*
X164405193Y-109383579D01*
X164408423Y-109397850D01*
X164411313Y-109412369D01*
X164413863Y-109427135D01*
X164416074Y-109442149D01*
X164417944Y-109457410D01*
X164419474Y-109472919D01*
X164420664Y-109488676D01*
X164421514Y-109504681D01*
X164422024Y-109520933D01*
X164422194Y-109537433D01*
G37*
G36*
X164405000Y-108259652D02*
G01*
X164168841Y-108339984D01*
X164168841Y-108711550D01*
X164405000Y-108790538D01*
X164405000Y-109021055D01*
X164392641Y-109021055D01*
X163407707Y-108660504D01*
X163407707Y-108527245D01*
X163611357Y-108527245D01*
X163992327Y-108652712D01*
X163992327Y-108398822D01*
X163611357Y-108527245D01*
X163407707Y-108527245D01*
X163407707Y-108386463D01*
X164392641Y-108025912D01*
X164405000Y-108025912D01*
X164405000Y-108259652D01*
G37*
G36*
X164216127Y-107681481D02*
G01*
X164216127Y-107226627D01*
X164405000Y-107226627D01*
X164405000Y-107901250D01*
X163407707Y-107901250D01*
X163407707Y-107681481D01*
X164216127Y-107681481D01*
G37*
G36*
X163930483Y-105797319D02*
G01*
X163951221Y-105798128D01*
X163971522Y-105799477D01*
X163991386Y-105801365D01*
X164010814Y-105803792D01*
X164029806Y-105806759D01*
X164048361Y-105810265D01*
X164066479Y-105814311D01*
X164084161Y-105818896D01*
X164101406Y-105824021D01*
X164118214Y-105829685D01*
X164134586Y-105835888D01*
X164150521Y-105842631D01*
X164166020Y-105849914D01*
X164181082Y-105857736D01*
X164195708Y-105866097D01*
X164209851Y-105874876D01*
X164223532Y-105884018D01*
X164236751Y-105893523D01*
X164249508Y-105903391D01*
X164261804Y-105913623D01*
X164273638Y-105924217D01*
X164285010Y-105935175D01*
X164295921Y-105946495D01*
X164306369Y-105958179D01*
X164316356Y-105970226D01*
X164325881Y-105982636D01*
X164334945Y-105995410D01*
X164343546Y-106008546D01*
X164351686Y-106022045D01*
X164359364Y-106035908D01*
X164366580Y-106050134D01*
X164373315Y-106064641D01*
X164379615Y-106079347D01*
X164385480Y-106094253D01*
X164390911Y-106109358D01*
X164395908Y-106124663D01*
X164400470Y-106140167D01*
X164404598Y-106155870D01*
X164408291Y-106171773D01*
X164411549Y-106187875D01*
X164414373Y-106204177D01*
X164416763Y-106220678D01*
X164418718Y-106237378D01*
X164420239Y-106254278D01*
X164421325Y-106271377D01*
X164421977Y-106288676D01*
X164422194Y-106306174D01*
X164421938Y-106326100D01*
X164421170Y-106345647D01*
X164419890Y-106364813D01*
X164418097Y-106383600D01*
X164415792Y-106402007D01*
X164412976Y-106420034D01*
X164409647Y-106437681D01*
X164405806Y-106454948D01*
X164401452Y-106471835D01*
X164396587Y-106488342D01*
X164391209Y-106504470D01*
X164385320Y-106520217D01*
X164378918Y-106535585D01*
X164372004Y-106550572D01*
X164364578Y-106565180D01*
X164356639Y-106579408D01*
X164348213Y-106593231D01*
X164339390Y-106606623D01*
X164330170Y-106619585D01*
X164320554Y-106632117D01*
X164310541Y-106644219D01*
X164300131Y-106655890D01*
X164289325Y-106667131D01*
X164278121Y-106677942D01*
X164266522Y-106688322D01*
X164254525Y-106698272D01*
X164242132Y-106707792D01*
X164229342Y-106716882D01*
X164216155Y-106725541D01*
X164202571Y-106733770D01*
X164188591Y-106741569D01*
X164174214Y-106748937D01*
X164159461Y-106755867D01*
X164144418Y-106762349D01*
X164129085Y-106768385D01*
X164113462Y-106773973D01*
X164097550Y-106779115D01*
X164081348Y-106783809D01*
X164064856Y-106788056D01*
X164048075Y-106791857D01*
X164031004Y-106795210D01*
X164013644Y-106798116D01*
X163995994Y-106800575D01*
X163978054Y-106802586D01*
X163959824Y-106804151D01*
X163941305Y-106805269D01*
X163922496Y-106805940D01*
X163903398Y-106806163D01*
X163882225Y-106805891D01*
X163861490Y-106805076D01*
X163841194Y-106803717D01*
X163821337Y-106801814D01*
X163801918Y-106799368D01*
X163782939Y-106796378D01*
X163764397Y-106792844D01*
X163746295Y-106788767D01*
X163728631Y-106784146D01*
X163711406Y-106778981D01*
X163694619Y-106773273D01*
X163678272Y-106767022D01*
X163662363Y-106760226D01*
X163646892Y-106752887D01*
X163631861Y-106745005D01*
X163617267Y-106736578D01*
X163603093Y-106727702D01*
X163589385Y-106718468D01*
X163576143Y-106708878D01*
X163563366Y-106698931D01*
X163551056Y-106688627D01*
X163539211Y-106677967D01*
X163527833Y-106666949D01*
X163516920Y-106655575D01*
X163506474Y-106643844D01*
X163496493Y-106631756D01*
X163486979Y-106619311D01*
X163477930Y-106606510D01*
X163469347Y-106593351D01*
X163461231Y-106579836D01*
X163453580Y-106565964D01*
X163446395Y-106551735D01*
X163439628Y-106537196D01*
X163433298Y-106522459D01*
X163427404Y-106507525D01*
X163421946Y-106492393D01*
X163416926Y-106477065D01*
X163412342Y-106461539D01*
X163408194Y-106445815D01*
X163404483Y-106429895D01*
X163401209Y-106413777D01*
X163398371Y-106397462D01*
X163395970Y-106380949D01*
X163394005Y-106364239D01*
X163392477Y-106347332D01*
X163391386Y-106330228D01*
X163390731Y-106312926D01*
X163390512Y-106295427D01*
X163569982Y-106295427D01*
X163570328Y-106312564D01*
X163571367Y-106329182D01*
X163573099Y-106345282D01*
X163575523Y-106360864D01*
X163578640Y-106375927D01*
X163582450Y-106390472D01*
X163586952Y-106404498D01*
X163592147Y-106418006D01*
X163598035Y-106430996D01*
X163604615Y-106443467D01*
X163611888Y-106455419D01*
X163619853Y-106466853D01*
X163628512Y-106477769D01*
X163637862Y-106488166D01*
X163647906Y-106498045D01*
X163658642Y-106507405D01*
X163669982Y-106516222D01*
X163681836Y-106524470D01*
X163694204Y-106532149D01*
X163707086Y-106539259D01*
X163720483Y-106545800D01*
X163734394Y-106551773D01*
X163748819Y-106557177D01*
X163763758Y-106562012D01*
X163779212Y-106566278D01*
X163795180Y-106569975D01*
X163811662Y-106573104D01*
X163828658Y-106575663D01*
X163846169Y-106577654D01*
X163864194Y-106579076D01*
X163882733Y-106579930D01*
X163901786Y-106580214D01*
X163921594Y-106579942D01*
X163940852Y-106579127D01*
X163959560Y-106577768D01*
X163977718Y-106575865D01*
X163995326Y-106573419D01*
X164012384Y-106570429D01*
X164028893Y-106566895D01*
X164044851Y-106562818D01*
X164060260Y-106558197D01*
X164075118Y-106553032D01*
X164089427Y-106547324D01*
X164103186Y-106541073D01*
X164116394Y-106534277D01*
X164129053Y-106526938D01*
X164141162Y-106519055D01*
X164152721Y-106510629D01*
X164163620Y-106501676D01*
X164173816Y-106492213D01*
X164183308Y-106482240D01*
X164192098Y-106471756D01*
X164200184Y-106460763D01*
X164207567Y-106449260D01*
X164214247Y-106437246D01*
X164220224Y-106424723D01*
X164225497Y-106411689D01*
X164230068Y-106398146D01*
X164233935Y-106384092D01*
X164237099Y-106369529D01*
X164239560Y-106354455D01*
X164241318Y-106338871D01*
X164242373Y-106322777D01*
X164242725Y-106306174D01*
X164242568Y-106294861D01*
X164242099Y-106283761D01*
X164241317Y-106272872D01*
X164239558Y-106256937D01*
X164237095Y-106241479D01*
X164233929Y-106226498D01*
X164230058Y-106211994D01*
X164225484Y-106197967D01*
X164220207Y-106184417D01*
X164214226Y-106171344D01*
X164207541Y-106158748D01*
X164202693Y-106150615D01*
X164194832Y-106138861D01*
X164186362Y-106127679D01*
X164177283Y-106117068D01*
X164167594Y-106107028D01*
X164157297Y-106097560D01*
X164146390Y-106088663D01*
X164134873Y-106080338D01*
X164122748Y-106072584D01*
X164110013Y-106065402D01*
X164096669Y-106058791D01*
X164087435Y-106054701D01*
X164073147Y-106049035D01*
X164058391Y-106043927D01*
X164043167Y-106039376D01*
X164032758Y-106036652D01*
X164022142Y-106034175D01*
X164011317Y-106031946D01*
X164000285Y-106029964D01*
X163989045Y-106028231D01*
X163977598Y-106026744D01*
X163965942Y-106025506D01*
X163954079Y-106024515D01*
X163942008Y-106023772D01*
X163929729Y-106023277D01*
X163917242Y-106023029D01*
X163910921Y-106022998D01*
X163891114Y-106023271D01*
X163871859Y-106024090D01*
X163853156Y-106025454D01*
X163835005Y-106027364D01*
X163817407Y-106029820D01*
X163800360Y-106032822D01*
X163783865Y-106036369D01*
X163767923Y-106040462D01*
X163752532Y-106045100D01*
X163737693Y-106050285D01*
X163723407Y-106056015D01*
X163709672Y-106062291D01*
X163696490Y-106069113D01*
X163683859Y-106076480D01*
X163671781Y-106084393D01*
X163660254Y-106092852D01*
X163649323Y-106101798D01*
X163639097Y-106111239D01*
X163629576Y-106121175D01*
X163620760Y-106131607D01*
X163612650Y-106142534D01*
X163605245Y-106153957D01*
X163598545Y-106165875D01*
X163592550Y-106178288D01*
X163587261Y-106191197D01*
X163582677Y-106204601D01*
X163578798Y-106218500D01*
X163575624Y-106232895D01*
X163573156Y-106247785D01*
X163571393Y-106263170D01*
X163570335Y-106279051D01*
X163569982Y-106295427D01*
X163390512Y-106295427D01*
X163390770Y-106275501D01*
X163391541Y-106255958D01*
X163392827Y-106236797D01*
X163394626Y-106218017D01*
X163396940Y-106199620D01*
X163399769Y-106181604D01*
X163403111Y-106163971D01*
X163406968Y-106146720D01*
X163411339Y-106129850D01*
X163416225Y-106113363D01*
X163421624Y-106097258D01*
X163427538Y-106081534D01*
X163433966Y-106066193D01*
X163440908Y-106051234D01*
X163448365Y-106036656D01*
X163456336Y-106022461D01*
X163464731Y-106008641D01*
X163473526Y-105995258D01*
X163482723Y-105982312D01*
X163492320Y-105969802D01*
X163502319Y-105957729D01*
X163512718Y-105946092D01*
X163523518Y-105934892D01*
X163534719Y-105924129D01*
X163546322Y-105913802D01*
X163558324Y-105903912D01*
X163570728Y-105894458D01*
X163583533Y-105885441D01*
X163596739Y-105876860D01*
X163610345Y-105868716D01*
X163624353Y-105861009D01*
X163638761Y-105853738D01*
X163653482Y-105846873D01*
X163668495Y-105840452D01*
X163683799Y-105834473D01*
X163699396Y-105828937D01*
X163715284Y-105823844D01*
X163731464Y-105819193D01*
X163747935Y-105814986D01*
X163764699Y-105811221D01*
X163781754Y-105807900D01*
X163799101Y-105805021D01*
X163816739Y-105802585D01*
X163834670Y-105800592D01*
X163852892Y-105799042D01*
X163871406Y-105797935D01*
X163890211Y-105797271D01*
X163909309Y-105797049D01*
X163930483Y-105797319D01*
G37*
G36*
X163737578Y-104888592D02*
G01*
X163749712Y-104889118D01*
X163761674Y-104889994D01*
X163773464Y-104891221D01*
X163785082Y-104892799D01*
X163796527Y-104894727D01*
X163807801Y-104897005D01*
X163818902Y-104899634D01*
X163829831Y-104902613D01*
X163840589Y-104905943D01*
X163851174Y-104909624D01*
X163861587Y-104913655D01*
X163871827Y-104918037D01*
X163881896Y-104922769D01*
X163891793Y-104927851D01*
X163901517Y-104933284D01*
X163911025Y-104939071D01*
X163920269Y-104945215D01*
X163929252Y-104951715D01*
X163937972Y-104958573D01*
X163946430Y-104965787D01*
X163954625Y-104973358D01*
X163962558Y-104981286D01*
X163970229Y-104989570D01*
X163977637Y-104998212D01*
X163984783Y-105007210D01*
X163991667Y-105016565D01*
X163998288Y-105026277D01*
X164004647Y-105036346D01*
X164010743Y-105046771D01*
X164016577Y-105057554D01*
X164022149Y-105068693D01*
X164027419Y-105080165D01*
X164032350Y-105091945D01*
X164036940Y-105104034D01*
X164041191Y-105116432D01*
X164045101Y-105129138D01*
X164048671Y-105142152D01*
X164051902Y-105155475D01*
X164054792Y-105169107D01*
X164057342Y-105183047D01*
X164059552Y-105197296D01*
X164061423Y-105211853D01*
X164062953Y-105226719D01*
X164064143Y-105241894D01*
X164064993Y-105257377D01*
X164065503Y-105273168D01*
X164065673Y-105289268D01*
X164065673Y-105416079D01*
X164405000Y-105416079D01*
X164405000Y-105635849D01*
X163407707Y-105635849D01*
X163407707Y-105416079D01*
X163584221Y-105416079D01*
X163889159Y-105416079D01*
X163889159Y-105310762D01*
X163889021Y-105299143D01*
X163888609Y-105287862D01*
X163887921Y-105276919D01*
X163886375Y-105261138D01*
X163884209Y-105246118D01*
X163881425Y-105231858D01*
X163878023Y-105218358D01*
X163874001Y-105205619D01*
X163869361Y-105193640D01*
X163864103Y-105182421D01*
X163858225Y-105171963D01*
X163853963Y-105165413D01*
X163846860Y-105156290D01*
X163838851Y-105148065D01*
X163829934Y-105140737D01*
X163820111Y-105134306D01*
X163809381Y-105128773D01*
X163797745Y-105124137D01*
X163785201Y-105120398D01*
X163771751Y-105117557D01*
X163757394Y-105115612D01*
X163742131Y-105114566D01*
X163731451Y-105114366D01*
X163717972Y-105114768D01*
X163705139Y-105115972D01*
X163692954Y-105117979D01*
X163681416Y-105120789D01*
X163670525Y-105124402D01*
X163660280Y-105128817D01*
X163650683Y-105134036D01*
X163641733Y-105140057D01*
X163633430Y-105146882D01*
X163625774Y-105154509D01*
X163621029Y-105160040D01*
X163614451Y-105168922D01*
X163608520Y-105178442D01*
X163603236Y-105188600D01*
X163598599Y-105199395D01*
X163594609Y-105210828D01*
X163591267Y-105222898D01*
X163588571Y-105235606D01*
X163586522Y-105248952D01*
X163585120Y-105262935D01*
X163584365Y-105277555D01*
X163584221Y-105287656D01*
X163584221Y-105416079D01*
X163407707Y-105416079D01*
X163407707Y-105284701D01*
X163407869Y-105268220D01*
X163408354Y-105252092D01*
X163409162Y-105236316D01*
X163410293Y-105220893D01*
X163411748Y-105205822D01*
X163413525Y-105191104D01*
X163415626Y-105176739D01*
X163418051Y-105162726D01*
X163420798Y-105149066D01*
X163423869Y-105135759D01*
X163427263Y-105122804D01*
X163430980Y-105110202D01*
X163435021Y-105097952D01*
X163439385Y-105086055D01*
X163444072Y-105074511D01*
X163449082Y-105063319D01*
X163454337Y-105052479D01*
X163459824Y-105041990D01*
X163465545Y-105031851D01*
X163471499Y-105022062D01*
X163477685Y-105012624D01*
X163484105Y-105003537D01*
X163490758Y-104994800D01*
X163497643Y-104986413D01*
X163508409Y-104974491D01*
X163519698Y-104963357D01*
X163531512Y-104953012D01*
X163543850Y-104943456D01*
X163556712Y-104934688D01*
X163561116Y-104931941D01*
X163574611Y-104924163D01*
X163588498Y-104917150D01*
X163602777Y-104910902D01*
X163617448Y-104905419D01*
X163632511Y-104900701D01*
X163647966Y-104896748D01*
X163658487Y-104894538D01*
X163669182Y-104892667D01*
X163680052Y-104891137D01*
X163691095Y-104889947D01*
X163702313Y-104889097D01*
X163713705Y-104888587D01*
X163725272Y-104888417D01*
X163737578Y-104888592D01*
G37*
G36*
X164405000Y-104179136D02*
G01*
X164168841Y-104259467D01*
X164168841Y-104631034D01*
X164405000Y-104710022D01*
X164405000Y-104940538D01*
X164392641Y-104940538D01*
X163407707Y-104579987D01*
X163407707Y-104446728D01*
X163611357Y-104446728D01*
X163992327Y-104572196D01*
X163992327Y-104318305D01*
X163611357Y-104446728D01*
X163407707Y-104446728D01*
X163407707Y-104305947D01*
X164392641Y-103945395D01*
X164405000Y-103945395D01*
X164405000Y-104179136D01*
G37*
G36*
X163407707Y-102735856D02*
G01*
X164405000Y-102735856D01*
X164405000Y-102952670D01*
X163785990Y-102952670D01*
X163797030Y-102956692D01*
X163808688Y-102961200D01*
X163820964Y-102966194D01*
X163833859Y-102971674D01*
X163847373Y-102977641D01*
X163861506Y-102984095D01*
X163871271Y-102988668D01*
X163881312Y-102993456D01*
X163891627Y-102998461D01*
X163902217Y-103003683D01*
X163913083Y-103009120D01*
X163924223Y-103014773D01*
X163935638Y-103020643D01*
X164284637Y-103193933D01*
X164284637Y-103362656D01*
X163935638Y-103539171D01*
X163924034Y-103545040D01*
X163912730Y-103550694D01*
X163901726Y-103556131D01*
X163891022Y-103561353D01*
X163880619Y-103566358D01*
X163870516Y-103571146D01*
X163860712Y-103575719D01*
X163846570Y-103582172D01*
X163833104Y-103588140D01*
X163820312Y-103593620D01*
X163808196Y-103598614D01*
X163796756Y-103603122D01*
X163785990Y-103607144D01*
X164405000Y-103607144D01*
X164405000Y-103820734D01*
X163407707Y-103820734D01*
X163407707Y-103594785D01*
X163846172Y-103365880D01*
X163855764Y-103360972D01*
X163865399Y-103356120D01*
X163875077Y-103351325D01*
X163884797Y-103346587D01*
X163894559Y-103341905D01*
X163904365Y-103337280D01*
X163914212Y-103332712D01*
X163924102Y-103328200D01*
X163934035Y-103323745D01*
X163944010Y-103319346D01*
X163950683Y-103316446D01*
X163960542Y-103312146D01*
X163973327Y-103306670D01*
X163985700Y-103301487D01*
X163997662Y-103296599D01*
X164009213Y-103292004D01*
X164020352Y-103287703D01*
X164031080Y-103283696D01*
X164041396Y-103279983D01*
X164043911Y-103279101D01*
X164030121Y-103274640D01*
X164015348Y-103269419D01*
X164004954Y-103265516D01*
X163994123Y-103261276D01*
X163982856Y-103256697D01*
X163971152Y-103251780D01*
X163959012Y-103246525D01*
X163946435Y-103240932D01*
X163933422Y-103235002D01*
X163919971Y-103228733D01*
X163906085Y-103222127D01*
X163891761Y-103215182D01*
X163877001Y-103207900D01*
X163861805Y-103200280D01*
X163846172Y-103192321D01*
X163407707Y-102961805D01*
X163407707Y-102735856D01*
G37*
G36*
X163737578Y-101775278D02*
G01*
X163749712Y-101775803D01*
X163761674Y-101776680D01*
X163773464Y-101777907D01*
X163785082Y-101779484D01*
X163796527Y-101781412D01*
X163807801Y-101783690D01*
X163818902Y-101786319D01*
X163829831Y-101789299D01*
X163840589Y-101792629D01*
X163851174Y-101796309D01*
X163861587Y-101800340D01*
X163871827Y-101804722D01*
X163881896Y-101809454D01*
X163891793Y-101814537D01*
X163901517Y-101819970D01*
X163911025Y-101825757D01*
X163920269Y-101831900D01*
X163929252Y-101838401D01*
X163937972Y-101845258D01*
X163946430Y-101852472D01*
X163954625Y-101860043D01*
X163962558Y-101867971D01*
X163970229Y-101876256D01*
X163977637Y-101884897D01*
X163984783Y-101893895D01*
X163991667Y-101903250D01*
X163998288Y-101912962D01*
X164004647Y-101923031D01*
X164010743Y-101933456D01*
X164016577Y-101944239D01*
X164022149Y-101955378D01*
X164027419Y-101966850D01*
X164032350Y-101978630D01*
X164036940Y-101990719D01*
X164041191Y-102003117D01*
X164045101Y-102015823D01*
X164048671Y-102028837D01*
X164051902Y-102042161D01*
X164054792Y-102055792D01*
X164057342Y-102069733D01*
X164059552Y-102083981D01*
X164061423Y-102098539D01*
X164062953Y-102113405D01*
X164064143Y-102128579D01*
X164064993Y-102144062D01*
X164065503Y-102159854D01*
X164065673Y-102175954D01*
X164065673Y-102302765D01*
X164405000Y-102302765D01*
X164405000Y-102522534D01*
X163407707Y-102522534D01*
X163407707Y-102302765D01*
X163584221Y-102302765D01*
X163889159Y-102302765D01*
X163889159Y-102197447D01*
X163889021Y-102185828D01*
X163888609Y-102174547D01*
X163887921Y-102163604D01*
X163886375Y-102147824D01*
X163884209Y-102132803D01*
X163881425Y-102118543D01*
X163878023Y-102105043D01*
X163874001Y-102092304D01*
X163869361Y-102080325D01*
X163864103Y-102069106D01*
X163858225Y-102058648D01*
X163853963Y-102052098D01*
X163846860Y-102042976D01*
X163838851Y-102034750D01*
X163829934Y-102027422D01*
X163820111Y-102020992D01*
X163809381Y-102015458D01*
X163797745Y-102010822D01*
X163785201Y-102007083D01*
X163771751Y-102004242D01*
X163757394Y-102002298D01*
X163742131Y-102001251D01*
X163731451Y-102001051D01*
X163717972Y-102001453D01*
X163705139Y-102002657D01*
X163692954Y-102004664D01*
X163681416Y-102007474D01*
X163670525Y-102011087D01*
X163660280Y-102015503D01*
X163650683Y-102020721D01*
X163641733Y-102026743D01*
X163633430Y-102033567D01*
X163625774Y-102041194D01*
X163621029Y-102046725D01*
X163614451Y-102055607D01*
X163608520Y-102065127D01*
X163603236Y-102075285D01*
X163598599Y-102086080D01*
X163594609Y-102097513D01*
X163591267Y-102109583D01*
X163588571Y-102122291D01*
X163586522Y-102135637D01*
X163585120Y-102149620D01*
X163584365Y-102164240D01*
X163584221Y-102174342D01*
X163584221Y-102302765D01*
X163407707Y-102302765D01*
X163407707Y-102171386D01*
X163407869Y-102154905D01*
X163408354Y-102138777D01*
X163409162Y-102123001D01*
X163410293Y-102107578D01*
X163411748Y-102092507D01*
X163413525Y-102077789D01*
X163415626Y-102063424D01*
X163418051Y-102049411D01*
X163420798Y-102035751D01*
X163423869Y-102022444D01*
X163427263Y-102009489D01*
X163430980Y-101996887D01*
X163435021Y-101984638D01*
X163439385Y-101972741D01*
X163444072Y-101961196D01*
X163449082Y-101950005D01*
X163454337Y-101939165D01*
X163459824Y-101928675D01*
X163465545Y-101918536D01*
X163471499Y-101908747D01*
X163477685Y-101899309D01*
X163484105Y-101890222D01*
X163490758Y-101881485D01*
X163497643Y-101873099D01*
X163508409Y-101861176D01*
X163519698Y-101850043D01*
X163531512Y-101839698D01*
X163543850Y-101830141D01*
X163556712Y-101821374D01*
X163561116Y-101818626D01*
X163574611Y-101810848D01*
X163588498Y-101803835D01*
X163602777Y-101797587D01*
X163617448Y-101792104D01*
X163632511Y-101787386D01*
X163647966Y-101783433D01*
X163658487Y-101781223D01*
X163669182Y-101779353D01*
X163680052Y-101777823D01*
X163691095Y-101776632D01*
X163702313Y-101775782D01*
X163713705Y-101775272D01*
X163725272Y-101775102D01*
X163737578Y-101775278D01*
G37*
G36*
X154854292Y-83523292D02*
G01*
X154854160Y-83538060D01*
X154853763Y-83552543D01*
X154853102Y-83566741D01*
X154852176Y-83580652D01*
X154850986Y-83594279D01*
X154849531Y-83607620D01*
X154847812Y-83620675D01*
X154845829Y-83633446D01*
X154843581Y-83645930D01*
X154841068Y-83658129D01*
X154838292Y-83670043D01*
X154835250Y-83681671D01*
X154831944Y-83693014D01*
X154828374Y-83704071D01*
X154824539Y-83714843D01*
X154820440Y-83725330D01*
X154816138Y-83735513D01*
X154811628Y-83745375D01*
X154804474Y-83759566D01*
X154796853Y-83773034D01*
X154788764Y-83785780D01*
X154780207Y-83797803D01*
X154771183Y-83809103D01*
X154761691Y-83819681D01*
X154751732Y-83829537D01*
X154741305Y-83838669D01*
X154730410Y-83847080D01*
X154726675Y-83849723D01*
X154715204Y-83857213D01*
X154703361Y-83863966D01*
X154691144Y-83869983D01*
X154678554Y-83875263D01*
X154665591Y-83879806D01*
X154652255Y-83883612D01*
X154638546Y-83886682D01*
X154624464Y-83889015D01*
X154610009Y-83890611D01*
X154595180Y-83891471D01*
X154585087Y-83891635D01*
X154572533Y-83891295D01*
X154560158Y-83890275D01*
X154547963Y-83888574D01*
X154535947Y-83886194D01*
X154524110Y-83883134D01*
X154512453Y-83879393D01*
X154500975Y-83874973D01*
X154489677Y-83869873D01*
X154478558Y-83864092D01*
X154467619Y-83857631D01*
X154460426Y-83852947D01*
X154449985Y-83845353D01*
X154440021Y-83837078D01*
X154430534Y-83828124D01*
X154421524Y-83818490D01*
X154412991Y-83808176D01*
X154404935Y-83797181D01*
X154397355Y-83785507D01*
X154390253Y-83773152D01*
X154383628Y-83760118D01*
X154377480Y-83746403D01*
X154373646Y-83736882D01*
X154370355Y-83748889D01*
X154366729Y-83760527D01*
X154362768Y-83771797D01*
X154358471Y-83782699D01*
X154353839Y-83793232D01*
X154348871Y-83803396D01*
X154343569Y-83813193D01*
X154337930Y-83822621D01*
X154331957Y-83831680D01*
X154323471Y-83843187D01*
X154321256Y-83845961D01*
X154312235Y-83856616D01*
X154302903Y-83866548D01*
X154293260Y-83875758D01*
X154283307Y-83884246D01*
X154273043Y-83892012D01*
X154262469Y-83899057D01*
X154251583Y-83905379D01*
X154240387Y-83910979D01*
X154228961Y-83915890D01*
X154217383Y-83920147D01*
X154205654Y-83923749D01*
X154193774Y-83926696D01*
X154181742Y-83928988D01*
X154169560Y-83930625D01*
X154157227Y-83931607D01*
X154144742Y-83931935D01*
X154127759Y-83931547D01*
X154111268Y-83930386D01*
X154095267Y-83928449D01*
X154079758Y-83925739D01*
X154064740Y-83922253D01*
X154050213Y-83917993D01*
X154036177Y-83912959D01*
X154022633Y-83907150D01*
X154009579Y-83900567D01*
X153997017Y-83893209D01*
X153984946Y-83885076D01*
X153973366Y-83876169D01*
X153962277Y-83866488D01*
X153951679Y-83856032D01*
X153941573Y-83844802D01*
X153931958Y-83832797D01*
X153922881Y-83820104D01*
X153914389Y-83806744D01*
X153906484Y-83792717D01*
X153899163Y-83778022D01*
X153892429Y-83762660D01*
X153886280Y-83746630D01*
X153880717Y-83729933D01*
X153875739Y-83712568D01*
X153871347Y-83694536D01*
X153867540Y-83675836D01*
X153864320Y-83656469D01*
X153861684Y-83636434D01*
X153859635Y-83615732D01*
X153858171Y-83594363D01*
X153857658Y-83583428D01*
X153857292Y-83572326D01*
X153857073Y-83561057D01*
X153857000Y-83549621D01*
X153857000Y-83376331D01*
X154033514Y-83376331D01*
X154033514Y-83531083D01*
X154033644Y-83542660D01*
X154034034Y-83553815D01*
X154034685Y-83564548D01*
X154036149Y-83579857D01*
X154038199Y-83594216D01*
X154040834Y-83607626D01*
X154044055Y-83620087D01*
X154047861Y-83631598D01*
X154052253Y-83642160D01*
X154057231Y-83651773D01*
X154064779Y-83663114D01*
X154066829Y-83665686D01*
X154075514Y-83675131D01*
X154084913Y-83683317D01*
X154095026Y-83690243D01*
X154105852Y-83695911D01*
X154117393Y-83700318D01*
X154129646Y-83703467D01*
X154142614Y-83705356D01*
X154156295Y-83705986D01*
X154169648Y-83705331D01*
X154182305Y-83703366D01*
X154194265Y-83700092D01*
X154205528Y-83695508D01*
X154216094Y-83689614D01*
X154225963Y-83682410D01*
X154235136Y-83673897D01*
X154243612Y-83664074D01*
X154251231Y-83652983D01*
X154257834Y-83640532D01*
X154262120Y-83630301D01*
X154265834Y-83619305D01*
X154268977Y-83607544D01*
X154271549Y-83595018D01*
X154273549Y-83581727D01*
X154274977Y-83567670D01*
X154275835Y-83552849D01*
X154276120Y-83537263D01*
X154276120Y-83376331D01*
X154441619Y-83376331D01*
X154441619Y-83498575D01*
X154442108Y-83519201D01*
X154443575Y-83538497D01*
X154446021Y-83556462D01*
X154449444Y-83573096D01*
X154453846Y-83588400D01*
X154459225Y-83602372D01*
X154465583Y-83615015D01*
X154472919Y-83626326D01*
X154481233Y-83636306D01*
X154490525Y-83644956D01*
X154500795Y-83652275D01*
X154512044Y-83658264D01*
X154524270Y-83662921D01*
X154537475Y-83666248D01*
X154551657Y-83668244D01*
X154566818Y-83668910D01*
X154580310Y-83668318D01*
X154592980Y-83666542D01*
X154604826Y-83663582D01*
X154615850Y-83659439D01*
X154626051Y-83654112D01*
X154635429Y-83647601D01*
X154643984Y-83639906D01*
X154651717Y-83631028D01*
X154658580Y-83621011D01*
X154664529Y-83609904D01*
X154669562Y-83597704D01*
X154673680Y-83584414D01*
X154676168Y-83573730D01*
X154678142Y-83562431D01*
X154679600Y-83550519D01*
X154680544Y-83537993D01*
X154680973Y-83524853D01*
X154681002Y-83520337D01*
X154681002Y-83376331D01*
X154441619Y-83376331D01*
X154276120Y-83376331D01*
X154033514Y-83376331D01*
X153857000Y-83376331D01*
X153857000Y-83156561D01*
X154854292Y-83156561D01*
X154854292Y-83523292D01*
G37*
G36*
X154854292Y-84341383D02*
G01*
X154854292Y-84615424D01*
X153869358Y-84975975D01*
X153857000Y-84975975D01*
X153857000Y-84742235D01*
X154093158Y-84661903D01*
X154093158Y-84349175D01*
X154269672Y-84349175D01*
X154269672Y-84603065D01*
X154650642Y-84474642D01*
X154269672Y-84349175D01*
X154093158Y-84349175D01*
X154093158Y-84290337D01*
X153857000Y-84211349D01*
X153857000Y-83980832D01*
X153869358Y-83980832D01*
X154854292Y-84341383D01*
G37*
G36*
X154854292Y-85722870D02*
G01*
X154667031Y-85722870D01*
X154667031Y-85410141D01*
X153857000Y-85410141D01*
X153857000Y-85190372D01*
X154667031Y-85190372D01*
X154667031Y-84870120D01*
X154854292Y-84870120D01*
X154854292Y-85722870D01*
G37*
G36*
X154854292Y-86610546D02*
G01*
X154667031Y-86610546D01*
X154667031Y-86297817D01*
X153857000Y-86297817D01*
X153857000Y-86078048D01*
X154667031Y-86078048D01*
X154667031Y-85757797D01*
X154854292Y-85757797D01*
X154854292Y-86610546D01*
G37*
G36*
X159613608Y-85364596D02*
G01*
X159634346Y-85365406D01*
X159654647Y-85366754D01*
X159674511Y-85368642D01*
X159693939Y-85371070D01*
X159712931Y-85374036D01*
X159731486Y-85377543D01*
X159749604Y-85381589D01*
X159767286Y-85386174D01*
X159784531Y-85391298D01*
X159801339Y-85396962D01*
X159817711Y-85403166D01*
X159833646Y-85409909D01*
X159849145Y-85417191D01*
X159864207Y-85425013D01*
X159878833Y-85433374D01*
X159892976Y-85442153D01*
X159906657Y-85451295D01*
X159919876Y-85460800D01*
X159932633Y-85470668D01*
X159944929Y-85480900D01*
X159956763Y-85491494D01*
X159968135Y-85502452D01*
X159979046Y-85513773D01*
X159989494Y-85525457D01*
X159999481Y-85537504D01*
X160009006Y-85549914D01*
X160018070Y-85562687D01*
X160026671Y-85575823D01*
X160034811Y-85589323D01*
X160042489Y-85603185D01*
X160049705Y-85617411D01*
X160056440Y-85631918D01*
X160062740Y-85646624D01*
X160068605Y-85661530D01*
X160074036Y-85676635D01*
X160079033Y-85691940D01*
X160083595Y-85707444D01*
X160087723Y-85723147D01*
X160091416Y-85739050D01*
X160094674Y-85755152D01*
X160097498Y-85771454D01*
X160099888Y-85787955D01*
X160101843Y-85804655D01*
X160103364Y-85821555D01*
X160104450Y-85838654D01*
X160105102Y-85855953D01*
X160105319Y-85873451D01*
X160105063Y-85893377D01*
X160104295Y-85912924D01*
X160103015Y-85932091D01*
X160101222Y-85950877D01*
X160098917Y-85969284D01*
X160096101Y-85987311D01*
X160092772Y-86004958D01*
X160088931Y-86022225D01*
X160084577Y-86039112D01*
X160079712Y-86055620D01*
X160074334Y-86071747D01*
X160068445Y-86087495D01*
X160062043Y-86102862D01*
X160055129Y-86117850D01*
X160047703Y-86132458D01*
X160039764Y-86146685D01*
X160031338Y-86160508D01*
X160022515Y-86173900D01*
X160013295Y-86186863D01*
X160003679Y-86199394D01*
X159993666Y-86211496D01*
X159983256Y-86223167D01*
X159972450Y-86234408D01*
X159961246Y-86245219D01*
X159949647Y-86255599D01*
X159937650Y-86265550D01*
X159925257Y-86275069D01*
X159912467Y-86284159D01*
X159899280Y-86292818D01*
X159885696Y-86301047D01*
X159871716Y-86308846D01*
X159857339Y-86316214D01*
X159842586Y-86323144D01*
X159827543Y-86329627D01*
X159812210Y-86335662D01*
X159796587Y-86341251D01*
X159780675Y-86346392D01*
X159764473Y-86351086D01*
X159747981Y-86355334D01*
X159731200Y-86359134D01*
X159714129Y-86362487D01*
X159696769Y-86365393D01*
X159679119Y-86367852D01*
X159661179Y-86369864D01*
X159642949Y-86371429D01*
X159624430Y-86372546D01*
X159605621Y-86373217D01*
X159586523Y-86373440D01*
X159565350Y-86373169D01*
X159544615Y-86372353D01*
X159524319Y-86370994D01*
X159504462Y-86369091D01*
X159485043Y-86366645D01*
X159466064Y-86363655D01*
X159447522Y-86360121D01*
X159429420Y-86356044D01*
X159411756Y-86351423D01*
X159394531Y-86346259D01*
X159377744Y-86340551D01*
X159361397Y-86334299D01*
X159345488Y-86327504D01*
X159330017Y-86320165D01*
X159314986Y-86312282D01*
X159300392Y-86303856D01*
X159286218Y-86294979D01*
X159272510Y-86285746D01*
X159259268Y-86276156D01*
X159246491Y-86266209D01*
X159234181Y-86255905D01*
X159222336Y-86245244D01*
X159210958Y-86234227D01*
X159200045Y-86222852D01*
X159189599Y-86211121D01*
X159179618Y-86199033D01*
X159170104Y-86186589D01*
X159161055Y-86173787D01*
X159152472Y-86160629D01*
X159144356Y-86147114D01*
X159136705Y-86133241D01*
X159129520Y-86119013D01*
X159122753Y-86104473D01*
X159116423Y-86089736D01*
X159110529Y-86074802D01*
X159105071Y-86059671D01*
X159100051Y-86044342D01*
X159095467Y-86028816D01*
X159091319Y-86013093D01*
X159087608Y-85997172D01*
X159084334Y-85981054D01*
X159081496Y-85964739D01*
X159079095Y-85948226D01*
X159077130Y-85931517D01*
X159075602Y-85914609D01*
X159074511Y-85897505D01*
X159073856Y-85880203D01*
X159073637Y-85862704D01*
X159253107Y-85862704D01*
X159253453Y-85879841D01*
X159254492Y-85896460D01*
X159256224Y-85912560D01*
X159258648Y-85928141D01*
X159261765Y-85943205D01*
X159265575Y-85957749D01*
X159270077Y-85971776D01*
X159275272Y-85985284D01*
X159281160Y-85998273D01*
X159287740Y-86010744D01*
X159295013Y-86022697D01*
X159302978Y-86034131D01*
X159311637Y-86045046D01*
X159320987Y-86055443D01*
X159331031Y-86065322D01*
X159341767Y-86074683D01*
X159353107Y-86083499D01*
X159364961Y-86091747D01*
X159377329Y-86099426D01*
X159390211Y-86106536D01*
X159403608Y-86113078D01*
X159417519Y-86119050D01*
X159431944Y-86124454D01*
X159446883Y-86129289D01*
X159462337Y-86133555D01*
X159478305Y-86137253D01*
X159494787Y-86140381D01*
X159511783Y-86142941D01*
X159529294Y-86144932D01*
X159547319Y-86146354D01*
X159565858Y-86147207D01*
X159584911Y-86147491D01*
X159604719Y-86147220D01*
X159623977Y-86146404D01*
X159642685Y-86145045D01*
X159660843Y-86143142D01*
X159678451Y-86140696D01*
X159695509Y-86137706D01*
X159712018Y-86134172D01*
X159727976Y-86130095D01*
X159743385Y-86125474D01*
X159758243Y-86120310D01*
X159772552Y-86114602D01*
X159786311Y-86108350D01*
X159799519Y-86101555D01*
X159812178Y-86094215D01*
X159824287Y-86086333D01*
X159835846Y-86077907D01*
X159846745Y-86068953D01*
X159856941Y-86059490D01*
X159866433Y-86049517D01*
X159875223Y-86039034D01*
X159883309Y-86028040D01*
X159890692Y-86016537D01*
X159897372Y-86004524D01*
X159903349Y-85992000D01*
X159908622Y-85978967D01*
X159913193Y-85965423D01*
X159917060Y-85951370D01*
X159920224Y-85936806D01*
X159922685Y-85921732D01*
X159924443Y-85906148D01*
X159925498Y-85890055D01*
X159925850Y-85873451D01*
X159925693Y-85862139D01*
X159925224Y-85851038D01*
X159924442Y-85840150D01*
X159922683Y-85824215D01*
X159920220Y-85808757D01*
X159917054Y-85793776D01*
X159913183Y-85779271D01*
X159908609Y-85765244D01*
X159903332Y-85751694D01*
X159897351Y-85738621D01*
X159890666Y-85726025D01*
X159885818Y-85717893D01*
X159877957Y-85706139D01*
X159869487Y-85694956D01*
X159860408Y-85684345D01*
X159850719Y-85674306D01*
X159840422Y-85664837D01*
X159829515Y-85655941D01*
X159817998Y-85647615D01*
X159805873Y-85639862D01*
X159793138Y-85632679D01*
X159779794Y-85626068D01*
X159770560Y-85621978D01*
X159756272Y-85616313D01*
X159741516Y-85611204D01*
X159726292Y-85606653D01*
X159715883Y-85603929D01*
X159705267Y-85601452D01*
X159694442Y-85599223D01*
X159683410Y-85597242D01*
X159672170Y-85595508D01*
X159660723Y-85594022D01*
X159649067Y-85592783D01*
X159637204Y-85591793D01*
X159625133Y-85591050D01*
X159612854Y-85590554D01*
X159600367Y-85590307D01*
X159594046Y-85590276D01*
X159574239Y-85590549D01*
X159554984Y-85591367D01*
X159536281Y-85592731D01*
X159518130Y-85594642D01*
X159500532Y-85597097D01*
X159483485Y-85600099D01*
X159466990Y-85603646D01*
X159451048Y-85607739D01*
X159435657Y-85612378D01*
X159420818Y-85617562D01*
X159406532Y-85623292D01*
X159392797Y-85629568D01*
X159379615Y-85636390D01*
X159366984Y-85643757D01*
X159354906Y-85651670D01*
X159343379Y-85660129D01*
X159332448Y-85669075D01*
X159322222Y-85678516D01*
X159312701Y-85688453D01*
X159303885Y-85698884D01*
X159295775Y-85709812D01*
X159288370Y-85721234D01*
X159281670Y-85733152D01*
X159275675Y-85745565D01*
X159270386Y-85758474D01*
X159265802Y-85771878D01*
X159261923Y-85785777D01*
X159258749Y-85800172D01*
X159256281Y-85815062D01*
X159254518Y-85830447D01*
X159253460Y-85846328D01*
X159253107Y-85862704D01*
X159073637Y-85862704D01*
X159073895Y-85842779D01*
X159074666Y-85823235D01*
X159075952Y-85804074D01*
X159077751Y-85785294D01*
X159080065Y-85766897D01*
X159082894Y-85748882D01*
X159086236Y-85731248D01*
X159090093Y-85713997D01*
X159094464Y-85697128D01*
X159099350Y-85680640D01*
X159104749Y-85664535D01*
X159110663Y-85648812D01*
X159117091Y-85633470D01*
X159124033Y-85618511D01*
X159131490Y-85603934D01*
X159139461Y-85589738D01*
X159147856Y-85575919D01*
X159156651Y-85562536D01*
X159165848Y-85549589D01*
X159175445Y-85537080D01*
X159185444Y-85525006D01*
X159195843Y-85513370D01*
X159206643Y-85502170D01*
X159217844Y-85491406D01*
X159229447Y-85481079D01*
X159241449Y-85471189D01*
X159253853Y-85461735D01*
X159266658Y-85452718D01*
X159279864Y-85444138D01*
X159293470Y-85435994D01*
X159307478Y-85428286D01*
X159321886Y-85421015D01*
X159336607Y-85414151D01*
X159351620Y-85407729D01*
X159366924Y-85401750D01*
X159382521Y-85396214D01*
X159398409Y-85391121D01*
X159414589Y-85386471D01*
X159431060Y-85382263D01*
X159447824Y-85378499D01*
X159464879Y-85375177D01*
X159482226Y-85372299D01*
X159499864Y-85369863D01*
X159517795Y-85367870D01*
X159536017Y-85366320D01*
X159554531Y-85365212D01*
X159573336Y-85364548D01*
X159592434Y-85364327D01*
X159613608Y-85364596D01*
G37*
G36*
X160105319Y-84789916D02*
G01*
X160105101Y-84808679D01*
X160104446Y-84827018D01*
X160103355Y-84844932D01*
X160101827Y-84862423D01*
X160099862Y-84879490D01*
X160097461Y-84896132D01*
X160094623Y-84912351D01*
X160091349Y-84928146D01*
X160087638Y-84943516D01*
X160083490Y-84958463D01*
X160078906Y-84972986D01*
X160073885Y-84987084D01*
X160068428Y-85000759D01*
X160062534Y-85014010D01*
X160056203Y-85026837D01*
X160049436Y-85039239D01*
X160042296Y-85051221D01*
X160034844Y-85062786D01*
X160027082Y-85073932D01*
X160019010Y-85084661D01*
X160010627Y-85094972D01*
X160001933Y-85104866D01*
X159992928Y-85114341D01*
X159983613Y-85123399D01*
X159973987Y-85132040D01*
X159964051Y-85140262D01*
X159953804Y-85148067D01*
X159943246Y-85155455D01*
X159932377Y-85162424D01*
X159921198Y-85168976D01*
X159909709Y-85175110D01*
X159897908Y-85180827D01*
X159885814Y-85186163D01*
X159873510Y-85191154D01*
X159860996Y-85195801D01*
X159848272Y-85200104D01*
X159835338Y-85204063D01*
X159822194Y-85207677D01*
X159808841Y-85210947D01*
X159795277Y-85213873D01*
X159781504Y-85216455D01*
X159767521Y-85218692D01*
X159753327Y-85220586D01*
X159738924Y-85222135D01*
X159724311Y-85223339D01*
X159709489Y-85224200D01*
X159694456Y-85224716D01*
X159679213Y-85224888D01*
X159090832Y-85224888D01*
X159090832Y-85005119D01*
X159652078Y-85005119D01*
X159667907Y-85004919D01*
X159683289Y-85004321D01*
X159698224Y-85003324D01*
X159712713Y-85001928D01*
X159726754Y-85000134D01*
X159740347Y-84997940D01*
X159753494Y-84995348D01*
X159766194Y-84992357D01*
X159778447Y-84988967D01*
X159790252Y-84985179D01*
X159801611Y-84980991D01*
X159812522Y-84976405D01*
X159822987Y-84971420D01*
X159833004Y-84966036D01*
X159842574Y-84960253D01*
X159851697Y-84954072D01*
X159860286Y-84947394D01*
X159868321Y-84940122D01*
X159875802Y-84932256D01*
X159882728Y-84923797D01*
X159889101Y-84914743D01*
X159894919Y-84905095D01*
X159900183Y-84894853D01*
X159904894Y-84884017D01*
X159909049Y-84872587D01*
X159912651Y-84860563D01*
X159915699Y-84847945D01*
X159918193Y-84834733D01*
X159920132Y-84820927D01*
X159921517Y-84806528D01*
X159922348Y-84791534D01*
X159922626Y-84775946D01*
X159922348Y-84761145D01*
X159921517Y-84746900D01*
X159920132Y-84733212D01*
X159918193Y-84720080D01*
X159915699Y-84707504D01*
X159912651Y-84695484D01*
X159909049Y-84684021D01*
X159904894Y-84673113D01*
X159900183Y-84662762D01*
X159894919Y-84652967D01*
X159889101Y-84643729D01*
X159882728Y-84635047D01*
X159872131Y-84623066D01*
X159860286Y-84612337D01*
X159851697Y-84605879D01*
X159842634Y-84599861D01*
X159833243Y-84594230D01*
X159823525Y-84588988D01*
X159813480Y-84584134D01*
X159803106Y-84579669D01*
X159792406Y-84575591D01*
X159781378Y-84571902D01*
X159770023Y-84568602D01*
X159758340Y-84565689D01*
X159746330Y-84563165D01*
X159733992Y-84561030D01*
X159721327Y-84559282D01*
X159708334Y-84557923D01*
X159695014Y-84556953D01*
X159681367Y-84556370D01*
X159667392Y-84556176D01*
X159090832Y-84556176D01*
X159090832Y-84336406D01*
X159674646Y-84336406D01*
X159693402Y-84336636D01*
X159711722Y-84337326D01*
X159729605Y-84338475D01*
X159747052Y-84340084D01*
X159764062Y-84342152D01*
X159780635Y-84344680D01*
X159796772Y-84347668D01*
X159812472Y-84351116D01*
X159827736Y-84355023D01*
X159842563Y-84359390D01*
X159856953Y-84364216D01*
X159870907Y-84369503D01*
X159884424Y-84375249D01*
X159897505Y-84381454D01*
X159910149Y-84388119D01*
X159922357Y-84395244D01*
X159934110Y-84402766D01*
X159945458Y-84410621D01*
X159956401Y-84418810D01*
X159966939Y-84427333D01*
X159977072Y-84436190D01*
X159986799Y-84445380D01*
X159996122Y-84454904D01*
X160005039Y-84464762D01*
X160013552Y-84474953D01*
X160021659Y-84485479D01*
X160029361Y-84496338D01*
X160036658Y-84507530D01*
X160043550Y-84519057D01*
X160050037Y-84530917D01*
X160056118Y-84543111D01*
X160061795Y-84555639D01*
X160067066Y-84568423D01*
X160071996Y-84581456D01*
X160076587Y-84594736D01*
X160080837Y-84608264D01*
X160084747Y-84622039D01*
X160088318Y-84636062D01*
X160091548Y-84650333D01*
X160094438Y-84664852D01*
X160096988Y-84679618D01*
X160099199Y-84694632D01*
X160101069Y-84709893D01*
X160102599Y-84725403D01*
X160103789Y-84741160D01*
X160104639Y-84757164D01*
X160105149Y-84773416D01*
X160105319Y-84789916D01*
G37*
G36*
X159090832Y-83380489D02*
G01*
X159278093Y-83380489D01*
X159278093Y-83693217D01*
X160088125Y-83693217D01*
X160088125Y-83912987D01*
X159278093Y-83912987D01*
X159278093Y-84233238D01*
X159090832Y-84233238D01*
X159090832Y-83380489D01*
G37*
D12*
G36*
X155904250Y-82639442D02*
G01*
X156317754Y-82639442D01*
X156317754Y-82811145D01*
X155704460Y-82811145D01*
X155704460Y-81904515D01*
X155904250Y-81904515D01*
X155904250Y-82639442D01*
G37*
G36*
X156751792Y-81904615D02*
G01*
X156766259Y-81904917D01*
X156780519Y-81905419D01*
X156794573Y-81906122D01*
X156808420Y-81907025D01*
X156822061Y-81908130D01*
X156835495Y-81909435D01*
X156848722Y-81910942D01*
X156861743Y-81912649D01*
X156874558Y-81914557D01*
X156887166Y-81916665D01*
X156899567Y-81918975D01*
X156911762Y-81921485D01*
X156923750Y-81924197D01*
X156935531Y-81927109D01*
X156947106Y-81930222D01*
X156958475Y-81933535D01*
X156969637Y-81937050D01*
X156980592Y-81940765D01*
X156991341Y-81944682D01*
X157001883Y-81948799D01*
X157012219Y-81953117D01*
X157022348Y-81957635D01*
X157032271Y-81962355D01*
X157041987Y-81967275D01*
X157051496Y-81972396D01*
X157060799Y-81977718D01*
X157069896Y-81983241D01*
X157078785Y-81988965D01*
X157087469Y-81994890D01*
X157095945Y-82001015D01*
X157104216Y-82007341D01*
X157112270Y-82013909D01*
X157120068Y-82020760D01*
X157127611Y-82027894D01*
X157134899Y-82035311D01*
X157141930Y-82043011D01*
X157148706Y-82050993D01*
X157155226Y-82059258D01*
X157161491Y-82067807D01*
X157167499Y-82076638D01*
X157173252Y-82085752D01*
X157178750Y-82095149D01*
X157183991Y-82104829D01*
X157188977Y-82114791D01*
X157193708Y-82125037D01*
X157198182Y-82135565D01*
X157202401Y-82146377D01*
X157206364Y-82157471D01*
X157210072Y-82168848D01*
X157213524Y-82180508D01*
X157216720Y-82192451D01*
X157219660Y-82204676D01*
X157222345Y-82217185D01*
X157224774Y-82229977D01*
X157226948Y-82243051D01*
X157228865Y-82256408D01*
X157230527Y-82270048D01*
X157231934Y-82283971D01*
X157233084Y-82298177D01*
X157233979Y-82312666D01*
X157234618Y-82327438D01*
X157235002Y-82342492D01*
X157235130Y-82357830D01*
X157234861Y-82376536D01*
X157234054Y-82394859D01*
X157232708Y-82412799D01*
X157230825Y-82430355D01*
X157228404Y-82447527D01*
X157225444Y-82464316D01*
X157221946Y-82480721D01*
X157217911Y-82496743D01*
X157213337Y-82512381D01*
X157208225Y-82527636D01*
X157202575Y-82542507D01*
X157196387Y-82556995D01*
X157189661Y-82571099D01*
X157182396Y-82584819D01*
X157174594Y-82598156D01*
X157166253Y-82611110D01*
X157157464Y-82623664D01*
X157148317Y-82635805D01*
X157138810Y-82647531D01*
X157128945Y-82658844D01*
X157118721Y-82669742D01*
X157108139Y-82680227D01*
X157097197Y-82690297D01*
X157085897Y-82699953D01*
X157074239Y-82709195D01*
X157062221Y-82718023D01*
X157049845Y-82726437D01*
X157037110Y-82734437D01*
X157024016Y-82742023D01*
X157010564Y-82749195D01*
X156996753Y-82755952D01*
X156982583Y-82762296D01*
X156968172Y-82768211D01*
X156953579Y-82773745D01*
X156938802Y-82778897D01*
X156923842Y-82783667D01*
X156908699Y-82788056D01*
X156893373Y-82792063D01*
X156877864Y-82795689D01*
X156862171Y-82798932D01*
X156846295Y-82801795D01*
X156830236Y-82804275D01*
X156813994Y-82806374D01*
X156797569Y-82808091D01*
X156780960Y-82809427D01*
X156764168Y-82810381D01*
X156747194Y-82810954D01*
X156730036Y-82811145D01*
X156433280Y-82811145D01*
X156433280Y-82076218D01*
X156633071Y-82076218D01*
X156633071Y-82639442D01*
X156694865Y-82639442D01*
X156709123Y-82639352D01*
X156723017Y-82639083D01*
X156736547Y-82638635D01*
X156749712Y-82638007D01*
X156762513Y-82637200D01*
X156774950Y-82636213D01*
X156787021Y-82635047D01*
X156798729Y-82633702D01*
X156810072Y-82632177D01*
X156821050Y-82630473D01*
X156831664Y-82628590D01*
X156841914Y-82626527D01*
X156851799Y-82624285D01*
X156861320Y-82621864D01*
X156874918Y-82617895D01*
X156879268Y-82616483D01*
X156891886Y-82611841D01*
X156903912Y-82606525D01*
X156915345Y-82600535D01*
X156926185Y-82593871D01*
X156936434Y-82586533D01*
X156946089Y-82578521D01*
X156955153Y-82569835D01*
X156963623Y-82560475D01*
X156971502Y-82550441D01*
X156978787Y-82539732D01*
X156983315Y-82532219D01*
X156989601Y-82520228D01*
X156995268Y-82507335D01*
X157000317Y-82493541D01*
X157003339Y-82483843D01*
X157006087Y-82473745D01*
X157008560Y-82463247D01*
X157010758Y-82452347D01*
X157012682Y-82441047D01*
X157014330Y-82429347D01*
X157015704Y-82417245D01*
X157016803Y-82404743D01*
X157017628Y-82391840D01*
X157018177Y-82378537D01*
X157018452Y-82364832D01*
X157018486Y-82357830D01*
X157018362Y-82344932D01*
X157017990Y-82332371D01*
X157017370Y-82320149D01*
X157016502Y-82308264D01*
X157015386Y-82296717D01*
X157014021Y-82285507D01*
X157012409Y-82274636D01*
X157010548Y-82264102D01*
X157008440Y-82253905D01*
X157006083Y-82244047D01*
X157003479Y-82234526D01*
X156999107Y-82220878D01*
X156994177Y-82207991D01*
X156988688Y-82195863D01*
X156986735Y-82191989D01*
X156980559Y-82180795D01*
X156973846Y-82170202D01*
X156966597Y-82160210D01*
X156958811Y-82150819D01*
X156950488Y-82142029D01*
X156941629Y-82133840D01*
X156932233Y-82126252D01*
X156922300Y-82119266D01*
X156911831Y-82112880D01*
X156900825Y-82107095D01*
X156893190Y-82103573D01*
X156881318Y-82098684D01*
X156868875Y-82094276D01*
X156855861Y-82090350D01*
X156842277Y-82086903D01*
X156828121Y-82083938D01*
X156818366Y-82082228D01*
X156808358Y-82080732D01*
X156798096Y-82079450D01*
X156787580Y-82078382D01*
X156776811Y-82077527D01*
X156765787Y-82076886D01*
X156754510Y-82076458D01*
X156742979Y-82076244D01*
X156737119Y-82076218D01*
X156633071Y-82076218D01*
X156433280Y-82076218D01*
X156433280Y-81904515D01*
X156737119Y-81904515D01*
X156751792Y-81904615D01*
G37*
G36*
X157818422Y-81889117D02*
G01*
X157836188Y-81889819D01*
X157853608Y-81890987D01*
X157870680Y-81892623D01*
X157887405Y-81894727D01*
X157903783Y-81897298D01*
X157919813Y-81900337D01*
X157935496Y-81903843D01*
X157950832Y-81907817D01*
X157965820Y-81912258D01*
X157980462Y-81917167D01*
X157994756Y-81922543D01*
X158008702Y-81928387D01*
X158022302Y-81934698D01*
X158035554Y-81941477D01*
X158048458Y-81948723D01*
X158061022Y-81956355D01*
X158073188Y-81964351D01*
X158084957Y-81972711D01*
X158096330Y-81981436D01*
X158107306Y-81990526D01*
X158117884Y-81999980D01*
X158128066Y-82009798D01*
X158137851Y-82019981D01*
X158147239Y-82030528D01*
X158156231Y-82041440D01*
X158164825Y-82052716D01*
X158173022Y-82064357D01*
X158180823Y-82076362D01*
X158188226Y-82088731D01*
X158195233Y-82101465D01*
X158201843Y-82114564D01*
X158208084Y-82127947D01*
X158213922Y-82141595D01*
X158219357Y-82155508D01*
X158224390Y-82169686D01*
X158229020Y-82184130D01*
X158233247Y-82198839D01*
X158237072Y-82213813D01*
X158240494Y-82229053D01*
X158243514Y-82244557D01*
X158246131Y-82260327D01*
X158248345Y-82276362D01*
X158250157Y-82292663D01*
X158251566Y-82309228D01*
X158252573Y-82326059D01*
X158253177Y-82343155D01*
X158253378Y-82360516D01*
X158253133Y-82379766D01*
X158252397Y-82398618D01*
X158251171Y-82417074D01*
X158249455Y-82435133D01*
X158247248Y-82452794D01*
X158244551Y-82470059D01*
X158241364Y-82486927D01*
X158237686Y-82503399D01*
X158233517Y-82519473D01*
X158228858Y-82535150D01*
X158223709Y-82550431D01*
X158218070Y-82565314D01*
X158211940Y-82579801D01*
X158205320Y-82593890D01*
X158198209Y-82607583D01*
X158190608Y-82620879D01*
X158182627Y-82633736D01*
X158174316Y-82646174D01*
X158165675Y-82658191D01*
X158156704Y-82669789D01*
X158147403Y-82680967D01*
X158137771Y-82691725D01*
X158127810Y-82702063D01*
X158117518Y-82711982D01*
X158106896Y-82721481D01*
X158095945Y-82730560D01*
X158084663Y-82739219D01*
X158073051Y-82747458D01*
X158061108Y-82755278D01*
X158048836Y-82762678D01*
X158036234Y-82769658D01*
X158023301Y-82776218D01*
X158010113Y-82782340D01*
X157996744Y-82788067D01*
X157983193Y-82793400D01*
X157969461Y-82798337D01*
X157955548Y-82802879D01*
X157941453Y-82807027D01*
X157927178Y-82810779D01*
X157912720Y-82814136D01*
X157898082Y-82817099D01*
X157883262Y-82819666D01*
X157868262Y-82821839D01*
X157853079Y-82823616D01*
X157837716Y-82824999D01*
X157822171Y-82825986D01*
X157806445Y-82826579D01*
X157790538Y-82826776D01*
X157772423Y-82826543D01*
X157754653Y-82825845D01*
X157737229Y-82824681D01*
X157720150Y-82823051D01*
X157703417Y-82820956D01*
X157687029Y-82818395D01*
X157670986Y-82815369D01*
X157655289Y-82811877D01*
X157639937Y-82807920D01*
X157624930Y-82803497D01*
X157610269Y-82798608D01*
X157595953Y-82793254D01*
X157581982Y-82787434D01*
X157568357Y-82781148D01*
X157555077Y-82774397D01*
X157542143Y-82767181D01*
X157529577Y-82759521D01*
X157517402Y-82751500D01*
X157505618Y-82743118D01*
X157494226Y-82734376D01*
X157483224Y-82725273D01*
X157472614Y-82715810D01*
X157462395Y-82705986D01*
X157452567Y-82695801D01*
X157443130Y-82685255D01*
X157434085Y-82674349D01*
X157425430Y-82663083D01*
X157417167Y-82651455D01*
X157409295Y-82639468D01*
X157401814Y-82627119D01*
X157394724Y-82614410D01*
X157388026Y-82601340D01*
X157381726Y-82587928D01*
X157375833Y-82574252D01*
X157370346Y-82560313D01*
X157365265Y-82546110D01*
X157360591Y-82531645D01*
X157356324Y-82516916D01*
X157352463Y-82501924D01*
X157349008Y-82486668D01*
X157345960Y-82471149D01*
X157343318Y-82455367D01*
X157341082Y-82439321D01*
X157339254Y-82423012D01*
X157337831Y-82406440D01*
X157336815Y-82389604D01*
X157336205Y-82372505D01*
X157336002Y-82355143D01*
X157336021Y-82353678D01*
X157541410Y-82353678D01*
X157541657Y-82371685D01*
X157542399Y-82389192D01*
X157543634Y-82406199D01*
X157545364Y-82422707D01*
X157547588Y-82438714D01*
X157550306Y-82454222D01*
X157553518Y-82469229D01*
X157557225Y-82483737D01*
X157561426Y-82497745D01*
X157566121Y-82511252D01*
X157571310Y-82524260D01*
X157576993Y-82536768D01*
X157583171Y-82548776D01*
X157589843Y-82560284D01*
X157597009Y-82571292D01*
X157604669Y-82581800D01*
X157612808Y-82591709D01*
X157621411Y-82600977D01*
X157630478Y-82609607D01*
X157640008Y-82617597D01*
X157650002Y-82624948D01*
X157660460Y-82631660D01*
X157671381Y-82637733D01*
X157682766Y-82643166D01*
X157694614Y-82647961D01*
X157706927Y-82652116D01*
X157719703Y-82655631D01*
X157732942Y-82658508D01*
X157746646Y-82660745D01*
X157760813Y-82662343D01*
X157775444Y-82663302D01*
X157790538Y-82663622D01*
X157800822Y-82663480D01*
X157810913Y-82663053D01*
X157820812Y-82662342D01*
X157835298Y-82660743D01*
X157849351Y-82658504D01*
X157862970Y-82655625D01*
X157876156Y-82652107D01*
X157888908Y-82647949D01*
X157901226Y-82643151D01*
X157913110Y-82637714D01*
X157924561Y-82631637D01*
X157931955Y-82627230D01*
X157942640Y-82620083D01*
X157952806Y-82612383D01*
X157962452Y-82604129D01*
X157971579Y-82595322D01*
X157980187Y-82585960D01*
X157988275Y-82576045D01*
X157995843Y-82565575D01*
X158002892Y-82554552D01*
X158009421Y-82542975D01*
X158015431Y-82530844D01*
X158019149Y-82522449D01*
X158024300Y-82509460D01*
X158028944Y-82496045D01*
X158033081Y-82482206D01*
X158035558Y-82472743D01*
X158037810Y-82463092D01*
X158039836Y-82453252D01*
X158041637Y-82443222D01*
X158043213Y-82433004D01*
X158044564Y-82422597D01*
X158045690Y-82412001D01*
X158046591Y-82401217D01*
X158047266Y-82390243D01*
X158047717Y-82379080D01*
X158047942Y-82367729D01*
X158047970Y-82361982D01*
X158047722Y-82343976D01*
X158046978Y-82326471D01*
X158045737Y-82309469D01*
X158044001Y-82292968D01*
X158041768Y-82276969D01*
X158039040Y-82261472D01*
X158035815Y-82246477D01*
X158032094Y-82231984D01*
X158027877Y-82217992D01*
X158023164Y-82204503D01*
X158017955Y-82191515D01*
X158012249Y-82179029D01*
X158006048Y-82167045D01*
X157999350Y-82155562D01*
X157992157Y-82144582D01*
X157984467Y-82134103D01*
X157976334Y-82124166D01*
X157967751Y-82114869D01*
X157958718Y-82106214D01*
X157949235Y-82098200D01*
X157939301Y-82090827D01*
X157928917Y-82084095D01*
X157918082Y-82078004D01*
X157906798Y-82072554D01*
X157895062Y-82067746D01*
X157882877Y-82063578D01*
X157870241Y-82060052D01*
X157857155Y-82057167D01*
X157843619Y-82054923D01*
X157829632Y-82053320D01*
X157815195Y-82052358D01*
X157800308Y-82052038D01*
X157784729Y-82052353D01*
X157769621Y-82053297D01*
X157754984Y-82054871D01*
X157740819Y-82057075D01*
X157727125Y-82059909D01*
X157713903Y-82063372D01*
X157701152Y-82067465D01*
X157688872Y-82072188D01*
X157677063Y-82077540D01*
X157665726Y-82083522D01*
X157654860Y-82090134D01*
X157644465Y-82097375D01*
X157634542Y-82105246D01*
X157625090Y-82113747D01*
X157616109Y-82122878D01*
X157607600Y-82132638D01*
X157599585Y-82142947D01*
X157592087Y-82153723D01*
X157585106Y-82164967D01*
X157578642Y-82176678D01*
X157572695Y-82188857D01*
X157567266Y-82201503D01*
X157562353Y-82214617D01*
X157557958Y-82228198D01*
X157554079Y-82242247D01*
X157550718Y-82256763D01*
X157547874Y-82271747D01*
X157545547Y-82287198D01*
X157543737Y-82303117D01*
X157542444Y-82319503D01*
X157541669Y-82336356D01*
X157541410Y-82353678D01*
X157336021Y-82353678D01*
X157336249Y-82335895D01*
X157336990Y-82317045D01*
X157338226Y-82298594D01*
X157339956Y-82280542D01*
X157342180Y-82262889D01*
X157344898Y-82245635D01*
X157348110Y-82228779D01*
X157351817Y-82212322D01*
X157356018Y-82196264D01*
X157360713Y-82180605D01*
X157365902Y-82165344D01*
X157371585Y-82150483D01*
X157377763Y-82136020D01*
X157384435Y-82121956D01*
X157391601Y-82108291D01*
X157399261Y-82095024D01*
X157407330Y-82082139D01*
X157415724Y-82069677D01*
X157424443Y-82057638D01*
X157433485Y-82046023D01*
X157442853Y-82034832D01*
X157452544Y-82024064D01*
X157462560Y-82013720D01*
X157472900Y-82003800D01*
X157483565Y-81994303D01*
X157494554Y-81985230D01*
X157505867Y-81976580D01*
X157517505Y-81968354D01*
X157529467Y-81960552D01*
X157541754Y-81953173D01*
X157554365Y-81946218D01*
X157567300Y-81939686D01*
X157580518Y-81933534D01*
X157593915Y-81927779D01*
X157607491Y-81922421D01*
X157621247Y-81917460D01*
X157635182Y-81912896D01*
X157649297Y-81908728D01*
X157663591Y-81904958D01*
X157678064Y-81901584D01*
X157692717Y-81898607D01*
X157707549Y-81896028D01*
X157722560Y-81893845D01*
X157737751Y-81892059D01*
X157753121Y-81890670D01*
X157768671Y-81889677D01*
X157784399Y-81889082D01*
X157800308Y-81888884D01*
X157818422Y-81889117D01*
G37*
D13*
G36*
X160914415Y-102980691D02*
G01*
X160914415Y-103932652D01*
X160707456Y-103932652D01*
X160707456Y-103341779D01*
X160703617Y-103352317D01*
X160699314Y-103363445D01*
X160694547Y-103375163D01*
X160689315Y-103387472D01*
X160683620Y-103400372D01*
X160677459Y-103413862D01*
X160673095Y-103423184D01*
X160668524Y-103432768D01*
X160663746Y-103442614D01*
X160658762Y-103452723D01*
X160653572Y-103463094D01*
X160648175Y-103473728D01*
X160642573Y-103484625D01*
X160477159Y-103817760D01*
X160316105Y-103817760D01*
X160147614Y-103484625D01*
X160142011Y-103473548D01*
X160136615Y-103462758D01*
X160131425Y-103452254D01*
X160126441Y-103442037D01*
X160121663Y-103432106D01*
X160117092Y-103422462D01*
X160112728Y-103413105D01*
X160106567Y-103399606D01*
X160100871Y-103386751D01*
X160095640Y-103374541D01*
X160090873Y-103362976D01*
X160086570Y-103352055D01*
X160082731Y-103341779D01*
X160082731Y-103932652D01*
X159878850Y-103932652D01*
X159878850Y-102980691D01*
X160094528Y-102980691D01*
X160313028Y-103399225D01*
X160317713Y-103408382D01*
X160322344Y-103417579D01*
X160326922Y-103426816D01*
X160331445Y-103436095D01*
X160335913Y-103445413D01*
X160340328Y-103454773D01*
X160344689Y-103464173D01*
X160348996Y-103473613D01*
X160353248Y-103483094D01*
X160357447Y-103492616D01*
X160360216Y-103498986D01*
X160364320Y-103508397D01*
X160369547Y-103520600D01*
X160374494Y-103532411D01*
X160379160Y-103543829D01*
X160383546Y-103554855D01*
X160387652Y-103565488D01*
X160391476Y-103575728D01*
X160395021Y-103585575D01*
X160395863Y-103587976D01*
X160400121Y-103574813D01*
X160405104Y-103560712D01*
X160408830Y-103550790D01*
X160412878Y-103540452D01*
X160417249Y-103529697D01*
X160421942Y-103518525D01*
X160426958Y-103506936D01*
X160432296Y-103494931D01*
X160437958Y-103482509D01*
X160443941Y-103469670D01*
X160450247Y-103456415D01*
X160456876Y-103442742D01*
X160463827Y-103428653D01*
X160471101Y-103414148D01*
X160478698Y-103399225D01*
X160698736Y-102980691D01*
X160914415Y-102980691D01*
G37*
G36*
X161531702Y-103949065D02*
G01*
X161516778Y-103948936D01*
X161502105Y-103948550D01*
X161487686Y-103947906D01*
X161473519Y-103947005D01*
X161459604Y-103945846D01*
X161445942Y-103944430D01*
X161432532Y-103942757D01*
X161419375Y-103940826D01*
X161406470Y-103938638D01*
X161393817Y-103936192D01*
X161381417Y-103933488D01*
X161369270Y-103930528D01*
X161357375Y-103927310D01*
X161345732Y-103923834D01*
X161334342Y-103920101D01*
X161323204Y-103916110D01*
X161312319Y-103911862D01*
X161301686Y-103907357D01*
X161291305Y-103902594D01*
X161281178Y-103897573D01*
X161271302Y-103892295D01*
X161261679Y-103886760D01*
X161252308Y-103880967D01*
X161243190Y-103874917D01*
X161234324Y-103868609D01*
X161225711Y-103862044D01*
X161217350Y-103855222D01*
X161209242Y-103848142D01*
X161201386Y-103840804D01*
X161193782Y-103833209D01*
X161186431Y-103825357D01*
X161179333Y-103817247D01*
X161172469Y-103808920D01*
X161165824Y-103800419D01*
X161159396Y-103791742D01*
X161153186Y-103782890D01*
X161147195Y-103773862D01*
X161141421Y-103764659D01*
X161135864Y-103755281D01*
X161130526Y-103745728D01*
X161125406Y-103735999D01*
X161120503Y-103726095D01*
X161115819Y-103716016D01*
X161111352Y-103705761D01*
X161107103Y-103695331D01*
X161103073Y-103684726D01*
X161099260Y-103673945D01*
X161095664Y-103662989D01*
X161092287Y-103651858D01*
X161089128Y-103640551D01*
X161086186Y-103629069D01*
X161083463Y-103617412D01*
X161080957Y-103605580D01*
X161078669Y-103593572D01*
X161076599Y-103581389D01*
X161074747Y-103569030D01*
X161073113Y-103556497D01*
X161071697Y-103543788D01*
X161070499Y-103530903D01*
X161069518Y-103517844D01*
X161068755Y-103504609D01*
X161068211Y-103491198D01*
X161067884Y-103477613D01*
X161067775Y-103463852D01*
X161067836Y-103452730D01*
X161068017Y-103441741D01*
X161068320Y-103430883D01*
X161068745Y-103420158D01*
X161069290Y-103409565D01*
X161069957Y-103399105D01*
X161070745Y-103388777D01*
X161072684Y-103368517D01*
X161075108Y-103348786D01*
X161078018Y-103329584D01*
X161081412Y-103310910D01*
X161085290Y-103292766D01*
X161089654Y-103275151D01*
X161094503Y-103258065D01*
X161099836Y-103241507D01*
X161105655Y-103225479D01*
X161111958Y-103209979D01*
X161118746Y-103195009D01*
X161126019Y-103180567D01*
X161129837Y-103173545D01*
X161137753Y-103159845D01*
X161145986Y-103146637D01*
X161154535Y-103133919D01*
X161163401Y-103121693D01*
X161172583Y-103109957D01*
X161182082Y-103098712D01*
X161191897Y-103087958D01*
X161202029Y-103077695D01*
X161212478Y-103067922D01*
X161223243Y-103058641D01*
X161234324Y-103049850D01*
X161245723Y-103041551D01*
X161257437Y-103033742D01*
X161269469Y-103026424D01*
X161281817Y-103019597D01*
X161294481Y-103013260D01*
X161307405Y-103007329D01*
X161320531Y-103001780D01*
X161333860Y-102996614D01*
X161347391Y-102991830D01*
X161361124Y-102987430D01*
X161375060Y-102983411D01*
X161389198Y-102979776D01*
X161403539Y-102976523D01*
X161418081Y-102973653D01*
X161432827Y-102971166D01*
X161447774Y-102969061D01*
X161462924Y-102967339D01*
X161478276Y-102966000D01*
X161493831Y-102965043D01*
X161509588Y-102964469D01*
X161525547Y-102964277D01*
X161536772Y-102964362D01*
X161547879Y-102964614D01*
X161558867Y-102965035D01*
X161569737Y-102965624D01*
X161580490Y-102966381D01*
X161591123Y-102967307D01*
X161601639Y-102968401D01*
X161612037Y-102969663D01*
X161622316Y-102971094D01*
X161632477Y-102972692D01*
X161647497Y-102975406D01*
X161662251Y-102978499D01*
X161676739Y-102981970D01*
X161690961Y-102985820D01*
X161705098Y-102990014D01*
X161719235Y-102994613D01*
X161733372Y-102999619D01*
X161747509Y-103005030D01*
X161761646Y-103010847D01*
X161771071Y-103014950D01*
X161780495Y-103019233D01*
X161789920Y-103023697D01*
X161799345Y-103028342D01*
X161808770Y-103033166D01*
X161818194Y-103038171D01*
X161827619Y-103043356D01*
X161837044Y-103048722D01*
X161841756Y-103051472D01*
X161763537Y-103206627D01*
X161750357Y-103198398D01*
X161737038Y-103190699D01*
X161723581Y-103183531D01*
X161709986Y-103176895D01*
X161696253Y-103170789D01*
X161682381Y-103165214D01*
X161668371Y-103160170D01*
X161654223Y-103155657D01*
X161639937Y-103151675D01*
X161625512Y-103148224D01*
X161610950Y-103145304D01*
X161596249Y-103142914D01*
X161581409Y-103141056D01*
X161566432Y-103139729D01*
X161551316Y-103138932D01*
X161536062Y-103138667D01*
X161520710Y-103138973D01*
X161505845Y-103139892D01*
X161491468Y-103141423D01*
X161477578Y-103143568D01*
X161464175Y-103146324D01*
X161451260Y-103149693D01*
X161438832Y-103153675D01*
X161426892Y-103158270D01*
X161415439Y-103163477D01*
X161404473Y-103169296D01*
X161393995Y-103175728D01*
X161384004Y-103182773D01*
X161374500Y-103190430D01*
X161365484Y-103198700D01*
X161356955Y-103207583D01*
X161348914Y-103217078D01*
X161341360Y-103227186D01*
X161334293Y-103237906D01*
X161327713Y-103249239D01*
X161321621Y-103261184D01*
X161316017Y-103273742D01*
X161310899Y-103286913D01*
X161306269Y-103300696D01*
X161302127Y-103315092D01*
X161298471Y-103330100D01*
X161295304Y-103345721D01*
X161292623Y-103361955D01*
X161290430Y-103378801D01*
X161288724Y-103396260D01*
X161287506Y-103414331D01*
X161286775Y-103433015D01*
X161286531Y-103452311D01*
X161286802Y-103471540D01*
X161287613Y-103490182D01*
X161288965Y-103508238D01*
X161290859Y-103525706D01*
X161293293Y-103542586D01*
X161296268Y-103558880D01*
X161299785Y-103574587D01*
X161303842Y-103589707D01*
X161308440Y-103604240D01*
X161313579Y-103618186D01*
X161319259Y-103631544D01*
X161325480Y-103644316D01*
X161332242Y-103656501D01*
X161339545Y-103668098D01*
X161347389Y-103679109D01*
X161355774Y-103689532D01*
X161364687Y-103699315D01*
X161374050Y-103708466D01*
X161383865Y-103716986D01*
X161394130Y-103724875D01*
X161404846Y-103732133D01*
X161416013Y-103738760D01*
X161427630Y-103744755D01*
X161439699Y-103750120D01*
X161452218Y-103754853D01*
X161465188Y-103758955D01*
X161478609Y-103762426D01*
X161492480Y-103765267D01*
X161506803Y-103767475D01*
X161521576Y-103769053D01*
X161536800Y-103770000D01*
X161552475Y-103770315D01*
X161564498Y-103770167D01*
X161576238Y-103769720D01*
X161587694Y-103768977D01*
X161598865Y-103767935D01*
X161609753Y-103766596D01*
X161620356Y-103764960D01*
X161630676Y-103763026D01*
X161640711Y-103760795D01*
X161653650Y-103757357D01*
X161666084Y-103753389D01*
X161678334Y-103748877D01*
X161690720Y-103743933D01*
X161703242Y-103738555D01*
X161712723Y-103734238D01*
X161722281Y-103729677D01*
X161731915Y-103724873D01*
X161741626Y-103719826D01*
X161751414Y-103714535D01*
X161761278Y-103709001D01*
X161767897Y-103705176D01*
X161849193Y-103852894D01*
X161839238Y-103858734D01*
X161829310Y-103864394D01*
X161819410Y-103869874D01*
X161809539Y-103875174D01*
X161799695Y-103880293D01*
X161789880Y-103885231D01*
X161780093Y-103889990D01*
X161770333Y-103894568D01*
X161760602Y-103898966D01*
X161750899Y-103903183D01*
X161741224Y-103907220D01*
X161731577Y-103911077D01*
X161721958Y-103914754D01*
X161707582Y-103919930D01*
X161693269Y-103924701D01*
X161678950Y-103929055D01*
X161664460Y-103932981D01*
X161649798Y-103936479D01*
X161634965Y-103939548D01*
X161619961Y-103942189D01*
X161604786Y-103944401D01*
X161594574Y-103945639D01*
X161584285Y-103946685D01*
X161573921Y-103947542D01*
X161563480Y-103948208D01*
X161552964Y-103948684D01*
X161542371Y-103948969D01*
X161531702Y-103949065D01*
G37*
G36*
X162318338Y-102980845D02*
G01*
X162333733Y-102981308D01*
X162348792Y-102982079D01*
X162363514Y-102983159D01*
X162377899Y-102984547D01*
X162391948Y-102986244D01*
X162405661Y-102988250D01*
X162419036Y-102990564D01*
X162432075Y-102993187D01*
X162444778Y-102996118D01*
X162457144Y-102999358D01*
X162469173Y-103002906D01*
X162480866Y-103006763D01*
X162492222Y-103010928D01*
X162503242Y-103015402D01*
X162513925Y-103020185D01*
X162524272Y-103025201D01*
X162534285Y-103030439D01*
X162543963Y-103035900D01*
X162553306Y-103041583D01*
X162562315Y-103047488D01*
X162570990Y-103053616D01*
X162579330Y-103059966D01*
X162587335Y-103066539D01*
X162598715Y-103076815D01*
X162609343Y-103087591D01*
X162619218Y-103098868D01*
X162628340Y-103110645D01*
X162636709Y-103122923D01*
X162639331Y-103127126D01*
X162646756Y-103140008D01*
X162653450Y-103153264D01*
X162659414Y-103166894D01*
X162664648Y-103180898D01*
X162669152Y-103195276D01*
X162672925Y-103210028D01*
X162675034Y-103220071D01*
X162676820Y-103230280D01*
X162678280Y-103240656D01*
X162679416Y-103251197D01*
X162680228Y-103261905D01*
X162680715Y-103272780D01*
X162680877Y-103283820D01*
X162680710Y-103295567D01*
X162680208Y-103307150D01*
X162679371Y-103318568D01*
X162678200Y-103329822D01*
X162676694Y-103340912D01*
X162674854Y-103351837D01*
X162672679Y-103362598D01*
X162670170Y-103373195D01*
X162667326Y-103383627D01*
X162664147Y-103393896D01*
X162660634Y-103404000D01*
X162656786Y-103413939D01*
X162652604Y-103423715D01*
X162648087Y-103433326D01*
X162643235Y-103442772D01*
X162638049Y-103452055D01*
X162632525Y-103461130D01*
X162626661Y-103469955D01*
X162620456Y-103478529D01*
X162613910Y-103486853D01*
X162607024Y-103494926D01*
X162599797Y-103502749D01*
X162592230Y-103510321D01*
X162584322Y-103517643D01*
X162576073Y-103524715D01*
X162567484Y-103531536D01*
X162558554Y-103538107D01*
X162549283Y-103544427D01*
X162539672Y-103550496D01*
X162529721Y-103556316D01*
X162519428Y-103561885D01*
X162508796Y-103567203D01*
X162497845Y-103572234D01*
X162486600Y-103576940D01*
X162475061Y-103581322D01*
X162463227Y-103585379D01*
X162451098Y-103589112D01*
X162438675Y-103592520D01*
X162425958Y-103595604D01*
X162412945Y-103598362D01*
X162399639Y-103600797D01*
X162386038Y-103602906D01*
X162372142Y-103604692D01*
X162357952Y-103606152D01*
X162343467Y-103607288D01*
X162328688Y-103608100D01*
X162313614Y-103608587D01*
X162298246Y-103608749D01*
X162177199Y-103608749D01*
X162177199Y-103932652D01*
X161967419Y-103932652D01*
X161967419Y-103149182D01*
X162177199Y-103149182D01*
X162177199Y-103440258D01*
X162277730Y-103440258D01*
X162288820Y-103440127D01*
X162299588Y-103439733D01*
X162310034Y-103439077D01*
X162325097Y-103437600D01*
X162339435Y-103435534D01*
X162353047Y-103432876D01*
X162365933Y-103429628D01*
X162378093Y-103425790D01*
X162389528Y-103421360D01*
X162400237Y-103416341D01*
X162410220Y-103410731D01*
X162416472Y-103406662D01*
X162425180Y-103399882D01*
X162433031Y-103392237D01*
X162440026Y-103383726D01*
X162446164Y-103374349D01*
X162451446Y-103364107D01*
X162455872Y-103352999D01*
X162459440Y-103341026D01*
X162462153Y-103328187D01*
X162464009Y-103314483D01*
X162465008Y-103299913D01*
X162465198Y-103289719D01*
X162464815Y-103276852D01*
X162463665Y-103264603D01*
X162461750Y-103252972D01*
X162459067Y-103241958D01*
X162455619Y-103231562D01*
X162451404Y-103221783D01*
X162446422Y-103212622D01*
X162440675Y-103204079D01*
X162434161Y-103196153D01*
X162426880Y-103188845D01*
X162421601Y-103184316D01*
X162413122Y-103178037D01*
X162404035Y-103172376D01*
X162394339Y-103167332D01*
X162384034Y-103162906D01*
X162373121Y-103159097D01*
X162361599Y-103155906D01*
X162349469Y-103153333D01*
X162336730Y-103151377D01*
X162323383Y-103150039D01*
X162309427Y-103149319D01*
X162299785Y-103149182D01*
X162177199Y-103149182D01*
X161967419Y-103149182D01*
X161967419Y-102980691D01*
X162302606Y-102980691D01*
X162318338Y-102980845D01*
G37*
G36*
X160153834Y-104728422D02*
G01*
X160166208Y-104728854D01*
X160178582Y-104729576D01*
X160190956Y-104730586D01*
X160203329Y-104731884D01*
X160215703Y-104733471D01*
X160228077Y-104735346D01*
X160240451Y-104737510D01*
X160252825Y-104739962D01*
X160265199Y-104742703D01*
X160277573Y-104745732D01*
X160289947Y-104749050D01*
X160302321Y-104752657D01*
X160314695Y-104756552D01*
X160327069Y-104760735D01*
X160339443Y-104765207D01*
X160296615Y-104914207D01*
X160283455Y-104909212D01*
X160270039Y-104904707D01*
X160256365Y-104900695D01*
X160242435Y-104897173D01*
X160228247Y-104894143D01*
X160213803Y-104891604D01*
X160199102Y-104889557D01*
X160184143Y-104888001D01*
X160168928Y-104886936D01*
X160158642Y-104886499D01*
X160148241Y-104886281D01*
X160142998Y-104886254D01*
X160130821Y-104886506D01*
X160119036Y-104887264D01*
X160107644Y-104888526D01*
X160096644Y-104890293D01*
X160086037Y-104892565D01*
X160075823Y-104895342D01*
X160066002Y-104898624D01*
X160052006Y-104904493D01*
X160038894Y-104911499D01*
X160026665Y-104919640D01*
X160015320Y-104928917D01*
X160004858Y-104939331D01*
X159995280Y-104950880D01*
X159986442Y-104963351D01*
X159980880Y-104972111D01*
X159975582Y-104981227D01*
X159970549Y-104990700D01*
X159965781Y-105000529D01*
X159961277Y-105010715D01*
X159957038Y-105021258D01*
X159953062Y-105032157D01*
X159949352Y-105043413D01*
X159945906Y-105055026D01*
X159942724Y-105066995D01*
X159939807Y-105079321D01*
X159937154Y-105092003D01*
X159934766Y-105105042D01*
X159932642Y-105118438D01*
X159931680Y-105125270D01*
X159942822Y-105118935D01*
X159954067Y-105113008D01*
X159965414Y-105107490D01*
X159976864Y-105102381D01*
X159988415Y-105097681D01*
X160000069Y-105093389D01*
X160011825Y-105089506D01*
X160023683Y-105086032D01*
X160035643Y-105082967D01*
X160047705Y-105080310D01*
X160059870Y-105078062D01*
X160072137Y-105076223D01*
X160084506Y-105074792D01*
X160096977Y-105073770D01*
X160109550Y-105073157D01*
X160122226Y-105072953D01*
X160137043Y-105073260D01*
X160151585Y-105074179D01*
X160165852Y-105075712D01*
X160179844Y-105077858D01*
X160193561Y-105080617D01*
X160207003Y-105083989D01*
X160220170Y-105087974D01*
X160233062Y-105092572D01*
X160245679Y-105097783D01*
X160258022Y-105103607D01*
X160266097Y-105107831D01*
X160277939Y-105114679D01*
X160289325Y-105122145D01*
X160300256Y-105130229D01*
X160310732Y-105138930D01*
X160320753Y-105148249D01*
X160330318Y-105158185D01*
X160339428Y-105168739D01*
X160348082Y-105179911D01*
X160356282Y-105191700D01*
X160364026Y-105204107D01*
X160368935Y-105212721D01*
X160375810Y-105226068D01*
X160382008Y-105239952D01*
X160385765Y-105249506D01*
X160389221Y-105259299D01*
X160392377Y-105269329D01*
X160395232Y-105279599D01*
X160397786Y-105290106D01*
X160400040Y-105300852D01*
X160401994Y-105311837D01*
X160403647Y-105323060D01*
X160404999Y-105334521D01*
X160406051Y-105346221D01*
X160406802Y-105358159D01*
X160407253Y-105370336D01*
X160407404Y-105382751D01*
X160407195Y-105397665D01*
X160406570Y-105412211D01*
X160405528Y-105426388D01*
X160404070Y-105440197D01*
X160402194Y-105453636D01*
X160399902Y-105466708D01*
X160397193Y-105479410D01*
X160394068Y-105491744D01*
X160390526Y-105503709D01*
X160386567Y-105515306D01*
X160382191Y-105526534D01*
X160377398Y-105537393D01*
X160372189Y-105547884D01*
X160366563Y-105558006D01*
X160360520Y-105567759D01*
X160354061Y-105577143D01*
X160347327Y-105586147D01*
X160340397Y-105594823D01*
X160333270Y-105603170D01*
X160325947Y-105611188D01*
X160318428Y-105618878D01*
X160310712Y-105626239D01*
X160302800Y-105633271D01*
X160294692Y-105639975D01*
X160286387Y-105646350D01*
X160277886Y-105652397D01*
X160269188Y-105658115D01*
X160260295Y-105663505D01*
X160251204Y-105668566D01*
X160241918Y-105673298D01*
X160232435Y-105677702D01*
X160222756Y-105681777D01*
X160212967Y-105685566D01*
X160203153Y-105689110D01*
X160193316Y-105692410D01*
X160183454Y-105695465D01*
X160173569Y-105698276D01*
X160158695Y-105702035D01*
X160143768Y-105705243D01*
X160128786Y-105707901D01*
X160113751Y-105710009D01*
X160098661Y-105711567D01*
X160083517Y-105712576D01*
X160068319Y-105713034D01*
X160063241Y-105713065D01*
X160050050Y-105712873D01*
X160037083Y-105712299D01*
X160024340Y-105711343D01*
X160011822Y-105710003D01*
X159999528Y-105708281D01*
X159987458Y-105706176D01*
X159975613Y-105703689D01*
X159963993Y-105700819D01*
X159952597Y-105697566D01*
X159941425Y-105693931D01*
X159930477Y-105689913D01*
X159919754Y-105685512D01*
X159909256Y-105680728D01*
X159898982Y-105675562D01*
X159888932Y-105670013D01*
X159879106Y-105664082D01*
X159869563Y-105657791D01*
X159860297Y-105651163D01*
X159851307Y-105644198D01*
X159842593Y-105636897D01*
X159834157Y-105629260D01*
X159825996Y-105621286D01*
X159818112Y-105612975D01*
X159810505Y-105604328D01*
X159803174Y-105595344D01*
X159796119Y-105586023D01*
X159789341Y-105576366D01*
X159782839Y-105566372D01*
X159776614Y-105556042D01*
X159770666Y-105545375D01*
X159764994Y-105534372D01*
X159759598Y-105523031D01*
X159754505Y-105511404D01*
X159749741Y-105499538D01*
X159745305Y-105487433D01*
X159741198Y-105475090D01*
X159737419Y-105462509D01*
X159733969Y-105449689D01*
X159730847Y-105436631D01*
X159728054Y-105423335D01*
X159725590Y-105409800D01*
X159723454Y-105396026D01*
X159721647Y-105382014D01*
X159720168Y-105367764D01*
X159719018Y-105353275D01*
X159718197Y-105338548D01*
X159717704Y-105323583D01*
X159717570Y-105311200D01*
X159921421Y-105311200D01*
X159921560Y-105326180D01*
X159921974Y-105340668D01*
X159922666Y-105354663D01*
X159923633Y-105368165D01*
X159924877Y-105381174D01*
X159926398Y-105393690D01*
X159928195Y-105405713D01*
X159930269Y-105417244D01*
X159932619Y-105428281D01*
X159935246Y-105438826D01*
X159938149Y-105448878D01*
X159943022Y-105463032D01*
X159948517Y-105476076D01*
X159954635Y-105488012D01*
X159956812Y-105491744D01*
X159963813Y-105502239D01*
X159971544Y-105511702D01*
X159980006Y-105520133D01*
X159989198Y-105527531D01*
X159999120Y-105533898D01*
X160009772Y-105539231D01*
X160021155Y-105543533D01*
X160033268Y-105546802D01*
X160046111Y-105549038D01*
X160059685Y-105550243D01*
X160069139Y-105550472D01*
X160081334Y-105550114D01*
X160093011Y-105549039D01*
X160104169Y-105547247D01*
X160114808Y-105544738D01*
X160124930Y-105541513D01*
X160134532Y-105537570D01*
X160146530Y-105531199D01*
X160157605Y-105523553D01*
X160167759Y-105514634D01*
X160172491Y-105509696D01*
X160179090Y-105501696D01*
X160185041Y-105493082D01*
X160190342Y-105483856D01*
X160194995Y-105474017D01*
X160198998Y-105463564D01*
X160202352Y-105452498D01*
X160205057Y-105440820D01*
X160207112Y-105428528D01*
X160208519Y-105415623D01*
X160209276Y-105402105D01*
X160209420Y-105392752D01*
X160209148Y-105377788D01*
X160208329Y-105363477D01*
X160206966Y-105349820D01*
X160205057Y-105336817D01*
X160202602Y-105324467D01*
X160199602Y-105312771D01*
X160196056Y-105301729D01*
X160191965Y-105291340D01*
X160187329Y-105281605D01*
X160182147Y-105272524D01*
X160178389Y-105266833D01*
X160169870Y-105256374D01*
X160159828Y-105247310D01*
X160151298Y-105241427D01*
X160141911Y-105236329D01*
X160131667Y-105232015D01*
X160120567Y-105228485D01*
X160108610Y-105225740D01*
X160095797Y-105223779D01*
X160082127Y-105222602D01*
X160067601Y-105222210D01*
X160055705Y-105222473D01*
X160044059Y-105223262D01*
X160032664Y-105224576D01*
X160021519Y-105226417D01*
X160010625Y-105228784D01*
X159999981Y-105231677D01*
X159995793Y-105232981D01*
X159985255Y-105236641D01*
X159974315Y-105240890D01*
X159962975Y-105245727D01*
X159953614Y-105250021D01*
X159943997Y-105254691D01*
X159934124Y-105259738D01*
X159923994Y-105265162D01*
X159921421Y-105266576D01*
X159921421Y-105311200D01*
X159717570Y-105311200D01*
X159717540Y-105308379D01*
X159717594Y-105296292D01*
X159717759Y-105284331D01*
X159718033Y-105272496D01*
X159718417Y-105260786D01*
X159718911Y-105249202D01*
X159719514Y-105237744D01*
X159720227Y-105226412D01*
X159721050Y-105215205D01*
X159721982Y-105204124D01*
X159723024Y-105193169D01*
X159724176Y-105182340D01*
X159725438Y-105171636D01*
X159726809Y-105161058D01*
X159728290Y-105150606D01*
X159729880Y-105140279D01*
X159731581Y-105130078D01*
X159735310Y-105110054D01*
X159739479Y-105090532D01*
X159744086Y-105071513D01*
X159749132Y-105052998D01*
X159754616Y-105034985D01*
X159760540Y-105017475D01*
X159766902Y-105000467D01*
X159773703Y-104983963D01*
X159780879Y-104967973D01*
X159788365Y-104952507D01*
X159796162Y-104937567D01*
X159804269Y-104923151D01*
X159812687Y-104909261D01*
X159821416Y-104895895D01*
X159830455Y-104883054D01*
X159839805Y-104870738D01*
X159849465Y-104858947D01*
X159859435Y-104847681D01*
X159869717Y-104836940D01*
X159880308Y-104826724D01*
X159891211Y-104817033D01*
X159902424Y-104807867D01*
X159913947Y-104799225D01*
X159925781Y-104791109D01*
X159937894Y-104783500D01*
X159950188Y-104776383D01*
X159962665Y-104769756D01*
X159975325Y-104763620D01*
X159988167Y-104757975D01*
X160001191Y-104752821D01*
X160014397Y-104748158D01*
X160027786Y-104743985D01*
X160041357Y-104740304D01*
X160055111Y-104737113D01*
X160069046Y-104734413D01*
X160083164Y-104732204D01*
X160097465Y-104730486D01*
X160111947Y-104729259D01*
X160126612Y-104728523D01*
X160141460Y-104728277D01*
X160153834Y-104728422D01*
G37*
G36*
X160866467Y-104728393D02*
G01*
X160886572Y-104729321D01*
X160906107Y-104731176D01*
X160925071Y-104733959D01*
X160943463Y-104737670D01*
X160961285Y-104742308D01*
X160978536Y-104747874D01*
X160995215Y-104754367D01*
X161011324Y-104761789D01*
X161026861Y-104770137D01*
X161041828Y-104779414D01*
X161056223Y-104789618D01*
X161070048Y-104800750D01*
X161083301Y-104812809D01*
X161095984Y-104825796D01*
X161108095Y-104839711D01*
X161113937Y-104847016D01*
X161125117Y-104862401D01*
X161135575Y-104878873D01*
X161145313Y-104896430D01*
X161149911Y-104905616D01*
X161154329Y-104915073D01*
X161158566Y-104924802D01*
X161162623Y-104934802D01*
X161166500Y-104945074D01*
X161170197Y-104955617D01*
X161173713Y-104966431D01*
X161177049Y-104977518D01*
X161180205Y-104988875D01*
X161183180Y-105000504D01*
X161185975Y-105012405D01*
X161188589Y-105024577D01*
X161191024Y-105037021D01*
X161193278Y-105049736D01*
X161195351Y-105062722D01*
X161197245Y-105075980D01*
X161198958Y-105089510D01*
X161200491Y-105103311D01*
X161201843Y-105117383D01*
X161203015Y-105131727D01*
X161204007Y-105146343D01*
X161204818Y-105161230D01*
X161205449Y-105176388D01*
X161205900Y-105191818D01*
X161206171Y-105207519D01*
X161206261Y-105223492D01*
X161206156Y-105240448D01*
X161205842Y-105257081D01*
X161205319Y-105273389D01*
X161204586Y-105289373D01*
X161203644Y-105305033D01*
X161202492Y-105320369D01*
X161201131Y-105335381D01*
X161199561Y-105350069D01*
X161197781Y-105364432D01*
X161195792Y-105378472D01*
X161193594Y-105392188D01*
X161191186Y-105405579D01*
X161188569Y-105418647D01*
X161185742Y-105431390D01*
X161182707Y-105443809D01*
X161179461Y-105455904D01*
X161176007Y-105467676D01*
X161172343Y-105479123D01*
X161168469Y-105490246D01*
X161164387Y-105501044D01*
X161160094Y-105511519D01*
X161155593Y-105521670D01*
X161150882Y-105531497D01*
X161145962Y-105540999D01*
X161140832Y-105550178D01*
X161135493Y-105559032D01*
X161124187Y-105575769D01*
X161112044Y-105591209D01*
X161099063Y-105605354D01*
X161085513Y-105618397D01*
X161071598Y-105630598D01*
X161057319Y-105641958D01*
X161042675Y-105652477D01*
X161027666Y-105662154D01*
X161012293Y-105670990D01*
X160996555Y-105678984D01*
X160980452Y-105686137D01*
X160963985Y-105692448D01*
X160947153Y-105697918D01*
X160929957Y-105702546D01*
X160912395Y-105706333D01*
X160894470Y-105709278D01*
X160876179Y-105711382D01*
X160857524Y-105712644D01*
X160838504Y-105713065D01*
X160825155Y-105712857D01*
X160812033Y-105712235D01*
X160799141Y-105711198D01*
X160786476Y-105709747D01*
X160774040Y-105707880D01*
X160761832Y-105705599D01*
X160749853Y-105702904D01*
X160738102Y-105699793D01*
X160726580Y-105696268D01*
X160715286Y-105692328D01*
X160704220Y-105687973D01*
X160693383Y-105683204D01*
X160682774Y-105678019D01*
X160672394Y-105672421D01*
X160662242Y-105666407D01*
X160652318Y-105659978D01*
X160642679Y-105653090D01*
X160633316Y-105645761D01*
X160624230Y-105637991D01*
X160615421Y-105629781D01*
X160606887Y-105621130D01*
X160598631Y-105612037D01*
X160590651Y-105602504D01*
X160582947Y-105592531D01*
X160575520Y-105582116D01*
X160568369Y-105571261D01*
X160561495Y-105559965D01*
X160554897Y-105548228D01*
X160548576Y-105536051D01*
X160542531Y-105523432D01*
X160536763Y-105510373D01*
X160531271Y-105496873D01*
X160526085Y-105482901D01*
X160521233Y-105468491D01*
X160516716Y-105453641D01*
X160512534Y-105438353D01*
X160508686Y-105422626D01*
X160505173Y-105406461D01*
X160501994Y-105389856D01*
X160499150Y-105372813D01*
X160496641Y-105355331D01*
X160494466Y-105337410D01*
X160492626Y-105319051D01*
X160491120Y-105300252D01*
X160489949Y-105281015D01*
X160489112Y-105261339D01*
X160488611Y-105241225D01*
X160488466Y-105223492D01*
X160701044Y-105223492D01*
X160701171Y-105243046D01*
X160701549Y-105261956D01*
X160702181Y-105280224D01*
X160703064Y-105297848D01*
X160704200Y-105314829D01*
X160705589Y-105331167D01*
X160707229Y-105346862D01*
X160709123Y-105361914D01*
X160711269Y-105376322D01*
X160713667Y-105390088D01*
X160716318Y-105403210D01*
X160719221Y-105415689D01*
X160722376Y-105427525D01*
X160725784Y-105438718D01*
X160729445Y-105449268D01*
X160733358Y-105459174D01*
X160739855Y-105472878D01*
X160747131Y-105485233D01*
X160755188Y-105496241D01*
X160764024Y-105505901D01*
X160773641Y-105514213D01*
X160784037Y-105521177D01*
X160795213Y-105526793D01*
X160807169Y-105531062D01*
X160819905Y-105533982D01*
X160833420Y-105535555D01*
X160842864Y-105535854D01*
X160855462Y-105535381D01*
X160867484Y-105533963D01*
X160878928Y-105531599D01*
X160889795Y-105528289D01*
X160900086Y-105524033D01*
X160909799Y-105518832D01*
X160918935Y-105512685D01*
X160927494Y-105505593D01*
X160935561Y-105497370D01*
X160943090Y-105487961D01*
X160950082Y-105477366D01*
X160956538Y-105465586D01*
X160961027Y-105455971D01*
X160965214Y-105445690D01*
X160969099Y-105434742D01*
X160972682Y-105423126D01*
X160975963Y-105410843D01*
X160976990Y-105406601D01*
X160979923Y-105393288D01*
X160982568Y-105379123D01*
X160984924Y-105364106D01*
X160986335Y-105353622D01*
X160987617Y-105342758D01*
X160988771Y-105331516D01*
X160989797Y-105319896D01*
X160990694Y-105307897D01*
X160991464Y-105295519D01*
X160992105Y-105282762D01*
X160992618Y-105269627D01*
X160993002Y-105256113D01*
X160993259Y-105242220D01*
X160993387Y-105227949D01*
X160993403Y-105220671D01*
X160993276Y-105201112D01*
X160992894Y-105182187D01*
X160992258Y-105163894D01*
X160991368Y-105146235D01*
X160990223Y-105129209D01*
X160988823Y-105112816D01*
X160987169Y-105097056D01*
X160985261Y-105081929D01*
X160983098Y-105067435D01*
X160980681Y-105053575D01*
X160978009Y-105040347D01*
X160975083Y-105027753D01*
X160971902Y-105015792D01*
X160968467Y-105004463D01*
X160964777Y-104993768D01*
X160960833Y-104983707D01*
X160956620Y-104974235D01*
X160949646Y-104961173D01*
X160941888Y-104949486D01*
X160933345Y-104939174D01*
X160924018Y-104930237D01*
X160913907Y-104922675D01*
X160903011Y-104916487D01*
X160891331Y-104911675D01*
X160878866Y-104908238D01*
X160865617Y-104906175D01*
X160851584Y-104905488D01*
X160838981Y-104905973D01*
X160826948Y-104907427D01*
X160815484Y-104909852D01*
X160804588Y-104913246D01*
X160794262Y-104917609D01*
X160784505Y-104922943D01*
X160775316Y-104929246D01*
X160766697Y-104936519D01*
X160758687Y-104944890D01*
X160751197Y-104954487D01*
X160744229Y-104965310D01*
X160737782Y-104977359D01*
X160733288Y-104987201D01*
X160729087Y-104997733D01*
X160725180Y-105008954D01*
X160721565Y-105020865D01*
X160718243Y-105033465D01*
X160717201Y-105037819D01*
X160714314Y-105051347D01*
X160711710Y-105065678D01*
X160709391Y-105080811D01*
X160708003Y-105091346D01*
X160706740Y-105102237D01*
X160705604Y-105113485D01*
X160704595Y-105125090D01*
X160703711Y-105137051D01*
X160702954Y-105149369D01*
X160702323Y-105162044D01*
X160701818Y-105175075D01*
X160701439Y-105188462D01*
X160701186Y-105202207D01*
X160701060Y-105216308D01*
X160701044Y-105223492D01*
X160488466Y-105223492D01*
X160488443Y-105220671D01*
X160488497Y-105208920D01*
X160488657Y-105197326D01*
X160488923Y-105185887D01*
X160489297Y-105174605D01*
X160489777Y-105163480D01*
X160490364Y-105152510D01*
X160491057Y-105141697D01*
X160491857Y-105131040D01*
X160492764Y-105120539D01*
X160493778Y-105110195D01*
X160496125Y-105089975D01*
X160498899Y-105070380D01*
X160502100Y-105051411D01*
X160505727Y-105033066D01*
X160509781Y-105015347D01*
X160514262Y-104998252D01*
X160519170Y-104981783D01*
X160524504Y-104965939D01*
X160530266Y-104950720D01*
X160536453Y-104936126D01*
X160543068Y-104922157D01*
X160550006Y-104908733D01*
X160557161Y-104895835D01*
X160564535Y-104883464D01*
X160572128Y-104871620D01*
X160579939Y-104860303D01*
X160587968Y-104849513D01*
X160596216Y-104839249D01*
X160604682Y-104829513D01*
X160613366Y-104820304D01*
X160622269Y-104811621D01*
X160631390Y-104803466D01*
X160640729Y-104795837D01*
X160650287Y-104788736D01*
X160660064Y-104782161D01*
X160670059Y-104776113D01*
X160680272Y-104770593D01*
X160690666Y-104765468D01*
X160701141Y-104760675D01*
X160711695Y-104756212D01*
X160722330Y-104752080D01*
X160733045Y-104748278D01*
X160743840Y-104744807D01*
X160754716Y-104741666D01*
X160765671Y-104738856D01*
X160776707Y-104736377D01*
X160787822Y-104734228D01*
X160799018Y-104732410D01*
X160810294Y-104730922D01*
X160821650Y-104729765D01*
X160833087Y-104728939D01*
X160844603Y-104728443D01*
X160856200Y-104728277D01*
X160866467Y-104728393D01*
G37*
G36*
X161659426Y-104728393D02*
G01*
X161679531Y-104729321D01*
X161699066Y-104731176D01*
X161718030Y-104733959D01*
X161736422Y-104737670D01*
X161754244Y-104742308D01*
X161771494Y-104747874D01*
X161788174Y-104754367D01*
X161804283Y-104761789D01*
X161819820Y-104770137D01*
X161834787Y-104779414D01*
X161849182Y-104789618D01*
X161863007Y-104800750D01*
X161876260Y-104812809D01*
X161888943Y-104825796D01*
X161901054Y-104839711D01*
X161906896Y-104847016D01*
X161918076Y-104862401D01*
X161928534Y-104878873D01*
X161938272Y-104896430D01*
X161942870Y-104905616D01*
X161947288Y-104915073D01*
X161951525Y-104924802D01*
X161955582Y-104934802D01*
X161959459Y-104945074D01*
X161963156Y-104955617D01*
X161966672Y-104966431D01*
X161970008Y-104977518D01*
X161973163Y-104988875D01*
X161976139Y-105000504D01*
X161978934Y-105012405D01*
X161981548Y-105024577D01*
X161983983Y-105037021D01*
X161986237Y-105049736D01*
X161988310Y-105062722D01*
X161990204Y-105075980D01*
X161991917Y-105089510D01*
X161993449Y-105103311D01*
X161994802Y-105117383D01*
X161995974Y-105131727D01*
X161996966Y-105146343D01*
X161997777Y-105161230D01*
X161998408Y-105176388D01*
X161998859Y-105191818D01*
X161999129Y-105207519D01*
X161999220Y-105223492D01*
X161999115Y-105240448D01*
X161998801Y-105257081D01*
X161998277Y-105273389D01*
X161997545Y-105289373D01*
X161996603Y-105305033D01*
X161995451Y-105320369D01*
X161994090Y-105335381D01*
X161992520Y-105350069D01*
X161990740Y-105364432D01*
X161988751Y-105378472D01*
X161986553Y-105392188D01*
X161984145Y-105405579D01*
X161981528Y-105418647D01*
X161978701Y-105431390D01*
X161975665Y-105443809D01*
X161972420Y-105455904D01*
X161968965Y-105467676D01*
X161965301Y-105479123D01*
X161961428Y-105490246D01*
X161957345Y-105501044D01*
X161953053Y-105511519D01*
X161948552Y-105521670D01*
X161943841Y-105531497D01*
X161938921Y-105540999D01*
X161933791Y-105550178D01*
X161928452Y-105559032D01*
X161917146Y-105575769D01*
X161905002Y-105591209D01*
X161892021Y-105605354D01*
X161878471Y-105618397D01*
X161864557Y-105630598D01*
X161850277Y-105641958D01*
X161835633Y-105652477D01*
X161820625Y-105662154D01*
X161805252Y-105670990D01*
X161789514Y-105678984D01*
X161773411Y-105686137D01*
X161756944Y-105692448D01*
X161740112Y-105697918D01*
X161722915Y-105702546D01*
X161705354Y-105706333D01*
X161687428Y-105709278D01*
X161669138Y-105711382D01*
X161650483Y-105712644D01*
X161631463Y-105713065D01*
X161618114Y-105712857D01*
X161604992Y-105712235D01*
X161592099Y-105711198D01*
X161579435Y-105709747D01*
X161566999Y-105707880D01*
X161554791Y-105705599D01*
X161542812Y-105702904D01*
X161531061Y-105699793D01*
X161519539Y-105696268D01*
X161508245Y-105692328D01*
X161497179Y-105687973D01*
X161486342Y-105683204D01*
X161475733Y-105678019D01*
X161465352Y-105672421D01*
X161455200Y-105666407D01*
X161445277Y-105659978D01*
X161435638Y-105653090D01*
X161426275Y-105645761D01*
X161417189Y-105637991D01*
X161408379Y-105629781D01*
X161399846Y-105621130D01*
X161391590Y-105612037D01*
X161383609Y-105602504D01*
X161375906Y-105592531D01*
X161368479Y-105582116D01*
X161361328Y-105571261D01*
X161354454Y-105559965D01*
X161347856Y-105548228D01*
X161341535Y-105536051D01*
X161335490Y-105523432D01*
X161329722Y-105510373D01*
X161324230Y-105496873D01*
X161319044Y-105482901D01*
X161314192Y-105468491D01*
X161309675Y-105453641D01*
X161305493Y-105438353D01*
X161301645Y-105422626D01*
X161298132Y-105406461D01*
X161294953Y-105389856D01*
X161292109Y-105372813D01*
X161289600Y-105355331D01*
X161287425Y-105337410D01*
X161285585Y-105319051D01*
X161284079Y-105300252D01*
X161282908Y-105281015D01*
X161282071Y-105261339D01*
X161281569Y-105241225D01*
X161281425Y-105223492D01*
X161494003Y-105223492D01*
X161494130Y-105243046D01*
X161494508Y-105261956D01*
X161495139Y-105280224D01*
X161496023Y-105297848D01*
X161497159Y-105314829D01*
X161498547Y-105331167D01*
X161500188Y-105346862D01*
X161502082Y-105361914D01*
X161504227Y-105376322D01*
X161506626Y-105390088D01*
X161509276Y-105403210D01*
X161512180Y-105415689D01*
X161515335Y-105427525D01*
X161518743Y-105438718D01*
X161522404Y-105449268D01*
X161526317Y-105459174D01*
X161532813Y-105472878D01*
X161540090Y-105485233D01*
X161548147Y-105496241D01*
X161556983Y-105505901D01*
X161566599Y-105514213D01*
X161576996Y-105521177D01*
X161588172Y-105526793D01*
X161600128Y-105531062D01*
X161612863Y-105533982D01*
X161626379Y-105535555D01*
X161635823Y-105535854D01*
X161648421Y-105535381D01*
X161660443Y-105533963D01*
X161671887Y-105531599D01*
X161682754Y-105528289D01*
X161693044Y-105524033D01*
X161702758Y-105518832D01*
X161711894Y-105512685D01*
X161720453Y-105505593D01*
X161728519Y-105497370D01*
X161736049Y-105487961D01*
X161743041Y-105477366D01*
X161749497Y-105465586D01*
X161753986Y-105455971D01*
X161758173Y-105445690D01*
X161762058Y-105434742D01*
X161765641Y-105423126D01*
X161768922Y-105410843D01*
X161769949Y-105406601D01*
X161772882Y-105393288D01*
X161775527Y-105379123D01*
X161777883Y-105364106D01*
X161779293Y-105353622D01*
X161780576Y-105342758D01*
X161781730Y-105331516D01*
X161782756Y-105319896D01*
X161783653Y-105307897D01*
X161784423Y-105295519D01*
X161785064Y-105282762D01*
X161785577Y-105269627D01*
X161785961Y-105256113D01*
X161786218Y-105242220D01*
X161786346Y-105227949D01*
X161786362Y-105220671D01*
X161786235Y-105201112D01*
X161785853Y-105182187D01*
X161785217Y-105163894D01*
X161784326Y-105146235D01*
X161783181Y-105129209D01*
X161781782Y-105112816D01*
X161780128Y-105097056D01*
X161778220Y-105081929D01*
X161776057Y-105067435D01*
X161773639Y-105053575D01*
X161770968Y-105040347D01*
X161768042Y-105027753D01*
X161764861Y-105015792D01*
X161761426Y-105004463D01*
X161757736Y-104993768D01*
X161753792Y-104983707D01*
X161749579Y-104974235D01*
X161742605Y-104961173D01*
X161734847Y-104949486D01*
X161726304Y-104939174D01*
X161716977Y-104930237D01*
X161706865Y-104922675D01*
X161695970Y-104916487D01*
X161684289Y-104911675D01*
X161671825Y-104908238D01*
X161658576Y-104906175D01*
X161644542Y-104905488D01*
X161631940Y-104905973D01*
X161619907Y-104907427D01*
X161608442Y-104909852D01*
X161597547Y-104913246D01*
X161587221Y-104917609D01*
X161577463Y-104922943D01*
X161568275Y-104929246D01*
X161559656Y-104936519D01*
X161551646Y-104944890D01*
X161544156Y-104954487D01*
X161537188Y-104965310D01*
X161530740Y-104977359D01*
X161526247Y-104987201D01*
X161522046Y-104997733D01*
X161518138Y-105008954D01*
X161514524Y-105020865D01*
X161511202Y-105033465D01*
X161510160Y-105037819D01*
X161507273Y-105051347D01*
X161504669Y-105065678D01*
X161502350Y-105080811D01*
X161500961Y-105091346D01*
X161499699Y-105102237D01*
X161498563Y-105113485D01*
X161497553Y-105125090D01*
X161496670Y-105137051D01*
X161495912Y-105149369D01*
X161495281Y-105162044D01*
X161494776Y-105175075D01*
X161494398Y-105188462D01*
X161494145Y-105202207D01*
X161494019Y-105216308D01*
X161494003Y-105223492D01*
X161281425Y-105223492D01*
X161281402Y-105220671D01*
X161281455Y-105208920D01*
X161281616Y-105197326D01*
X161281882Y-105185887D01*
X161282256Y-105174605D01*
X161282736Y-105163480D01*
X161283323Y-105152510D01*
X161284016Y-105141697D01*
X161284816Y-105131040D01*
X161285723Y-105120539D01*
X161286737Y-105110195D01*
X161289084Y-105089975D01*
X161291858Y-105070380D01*
X161295058Y-105051411D01*
X161298686Y-105033066D01*
X161302740Y-105015347D01*
X161307221Y-104998252D01*
X161312129Y-104981783D01*
X161317463Y-104965939D01*
X161323224Y-104950720D01*
X161329412Y-104936126D01*
X161336027Y-104922157D01*
X161342964Y-104908733D01*
X161350120Y-104895835D01*
X161357494Y-104883464D01*
X161365087Y-104871620D01*
X161372897Y-104860303D01*
X161380927Y-104849513D01*
X161389174Y-104839249D01*
X161397640Y-104829513D01*
X161406325Y-104820304D01*
X161415228Y-104811621D01*
X161424349Y-104803466D01*
X161433688Y-104795837D01*
X161443246Y-104788736D01*
X161453023Y-104782161D01*
X161463017Y-104776113D01*
X161473230Y-104770593D01*
X161483625Y-104765468D01*
X161494099Y-104760675D01*
X161504654Y-104756212D01*
X161515289Y-104752080D01*
X161526004Y-104748278D01*
X161536799Y-104744807D01*
X161547675Y-104741666D01*
X161558630Y-104738856D01*
X161569666Y-104736377D01*
X161580781Y-104734228D01*
X161591977Y-104732410D01*
X161603253Y-104730922D01*
X161614609Y-104729765D01*
X161626046Y-104728939D01*
X161637562Y-104728443D01*
X161649159Y-104728277D01*
X161659426Y-104728393D01*
G37*
G36*
X162767046Y-104744691D02*
G01*
X162767046Y-104837784D01*
X162748092Y-104864942D01*
X162729635Y-104892079D01*
X162711673Y-104919196D01*
X162694209Y-104946292D01*
X162677240Y-104973368D01*
X162660768Y-105000423D01*
X162644793Y-105027458D01*
X162629314Y-105054472D01*
X162614331Y-105081466D01*
X162599844Y-105108439D01*
X162585854Y-105135391D01*
X162572360Y-105162324D01*
X162559363Y-105189235D01*
X162546862Y-105216126D01*
X162534858Y-105242996D01*
X162523350Y-105269846D01*
X162512338Y-105296676D01*
X162501822Y-105323484D01*
X162491803Y-105350273D01*
X162482281Y-105377040D01*
X162473254Y-105403788D01*
X162464725Y-105430514D01*
X162456691Y-105457220D01*
X162449154Y-105483906D01*
X162442113Y-105510571D01*
X162435569Y-105537216D01*
X162429521Y-105563840D01*
X162423969Y-105590443D01*
X162418914Y-105617026D01*
X162414355Y-105643588D01*
X162410293Y-105670130D01*
X162406727Y-105696652D01*
X162189509Y-105696652D01*
X162190871Y-105684904D01*
X162192359Y-105673126D01*
X162193974Y-105661318D01*
X162195716Y-105649480D01*
X162197585Y-105637612D01*
X162199580Y-105625714D01*
X162201702Y-105613785D01*
X162203951Y-105601827D01*
X162206326Y-105589839D01*
X162208829Y-105577821D01*
X162211457Y-105565772D01*
X162214213Y-105553694D01*
X162217095Y-105541585D01*
X162220105Y-105529447D01*
X162223240Y-105517278D01*
X162226503Y-105505080D01*
X162229892Y-105492851D01*
X162233408Y-105480592D01*
X162237051Y-105468303D01*
X162240820Y-105455985D01*
X162244716Y-105443636D01*
X162248739Y-105431257D01*
X162252889Y-105418848D01*
X162257165Y-105406409D01*
X162261568Y-105393939D01*
X162266098Y-105381440D01*
X162270755Y-105368911D01*
X162275538Y-105356352D01*
X162280448Y-105343762D01*
X162285485Y-105331143D01*
X162290648Y-105318494D01*
X162295938Y-105305814D01*
X162301348Y-105293117D01*
X162306869Y-105280448D01*
X162312503Y-105267806D01*
X162318250Y-105255192D01*
X162324108Y-105242606D01*
X162330079Y-105230047D01*
X162336161Y-105217515D01*
X162342356Y-105205011D01*
X162348664Y-105192535D01*
X162355083Y-105180086D01*
X162361615Y-105167665D01*
X162368258Y-105155271D01*
X162375014Y-105142905D01*
X162381883Y-105130566D01*
X162388863Y-105118255D01*
X162395956Y-105105972D01*
X162403160Y-105093716D01*
X162410477Y-105081487D01*
X162417906Y-105069286D01*
X162425448Y-105057113D01*
X162433101Y-105044967D01*
X162440867Y-105032849D01*
X162448745Y-105020758D01*
X162456735Y-105008695D01*
X162464838Y-104996659D01*
X162473052Y-104984651D01*
X162481379Y-104972671D01*
X162489818Y-104960718D01*
X162498369Y-104948792D01*
X162507033Y-104936895D01*
X162515808Y-104925024D01*
X162524696Y-104913182D01*
X162097955Y-104913182D01*
X162118728Y-104744691D01*
X162767046Y-104744691D01*
G37*
D10*
X159509991Y-82275410D02*
X159509991Y-81513506D01*
X159890944Y-81894458D02*
X159129039Y-81894458D01*
X159509991Y-88117410D02*
X159509991Y-87355506D01*
X164954295Y-100971332D02*
X164573342Y-101237999D01*
X164954295Y-101428475D02*
X164154295Y-101428475D01*
X164154295Y-101428475D02*
X164154295Y-101123713D01*
X164154295Y-101123713D02*
X164192390Y-101047523D01*
X164192390Y-101047523D02*
X164230485Y-101009428D01*
X164230485Y-101009428D02*
X164306676Y-100971332D01*
X164306676Y-100971332D02*
X164420961Y-100971332D01*
X164420961Y-100971332D02*
X164497152Y-101009428D01*
X164497152Y-101009428D02*
X164535247Y-101047523D01*
X164535247Y-101047523D02*
X164573342Y-101123713D01*
X164573342Y-101123713D02*
X164573342Y-101428475D01*
X164154295Y-100285618D02*
X164154295Y-100437999D01*
X164154295Y-100437999D02*
X164192390Y-100514190D01*
X164192390Y-100514190D02*
X164230485Y-100552285D01*
X164230485Y-100552285D02*
X164344771Y-100628475D01*
X164344771Y-100628475D02*
X164497152Y-100666571D01*
X164497152Y-100666571D02*
X164801914Y-100666571D01*
X164801914Y-100666571D02*
X164878104Y-100628475D01*
X164878104Y-100628475D02*
X164916200Y-100590380D01*
X164916200Y-100590380D02*
X164954295Y-100514190D01*
X164954295Y-100514190D02*
X164954295Y-100361809D01*
X164954295Y-100361809D02*
X164916200Y-100285618D01*
X164916200Y-100285618D02*
X164878104Y-100247523D01*
X164878104Y-100247523D02*
X164801914Y-100209428D01*
X164801914Y-100209428D02*
X164611438Y-100209428D01*
X164611438Y-100209428D02*
X164535247Y-100247523D01*
X164535247Y-100247523D02*
X164497152Y-100285618D01*
X164497152Y-100285618D02*
X164459057Y-100361809D01*
X164459057Y-100361809D02*
X164459057Y-100514190D01*
X164459057Y-100514190D02*
X164497152Y-100590380D01*
X164497152Y-100590380D02*
X164535247Y-100628475D01*
X164535247Y-100628475D02*
X164611438Y-100666571D01*
X158108667Y-102216295D02*
X157842000Y-101835342D01*
X157651524Y-102216295D02*
X157651524Y-101416295D01*
X157651524Y-101416295D02*
X157956286Y-101416295D01*
X157956286Y-101416295D02*
X158032476Y-101454390D01*
X158032476Y-101454390D02*
X158070571Y-101492485D01*
X158070571Y-101492485D02*
X158108667Y-101568676D01*
X158108667Y-101568676D02*
X158108667Y-101682961D01*
X158108667Y-101682961D02*
X158070571Y-101759152D01*
X158070571Y-101759152D02*
X158032476Y-101797247D01*
X158032476Y-101797247D02*
X157956286Y-101835342D01*
X157956286Y-101835342D02*
X157651524Y-101835342D01*
X158832476Y-101416295D02*
X158451524Y-101416295D01*
X158451524Y-101416295D02*
X158413428Y-101797247D01*
X158413428Y-101797247D02*
X158451524Y-101759152D01*
X158451524Y-101759152D02*
X158527714Y-101721057D01*
X158527714Y-101721057D02*
X158718190Y-101721057D01*
X158718190Y-101721057D02*
X158794381Y-101759152D01*
X158794381Y-101759152D02*
X158832476Y-101797247D01*
X158832476Y-101797247D02*
X158870571Y-101873438D01*
X158870571Y-101873438D02*
X158870571Y-102063914D01*
X158870571Y-102063914D02*
X158832476Y-102140104D01*
X158832476Y-102140104D02*
X158794381Y-102178200D01*
X158794381Y-102178200D02*
X158718190Y-102216295D01*
X158718190Y-102216295D02*
X158527714Y-102216295D01*
X158527714Y-102216295D02*
X158451524Y-102178200D01*
X158451524Y-102178200D02*
X158413428Y-102140104D01*
X151515529Y-99247380D02*
X151248862Y-98866427D01*
X151058386Y-99247380D02*
X151058386Y-98447380D01*
X151058386Y-98447380D02*
X151363148Y-98447380D01*
X151363148Y-98447380D02*
X151439338Y-98485475D01*
X151439338Y-98485475D02*
X151477433Y-98523570D01*
X151477433Y-98523570D02*
X151515529Y-98599761D01*
X151515529Y-98599761D02*
X151515529Y-98714046D01*
X151515529Y-98714046D02*
X151477433Y-98790237D01*
X151477433Y-98790237D02*
X151439338Y-98828332D01*
X151439338Y-98828332D02*
X151363148Y-98866427D01*
X151363148Y-98866427D02*
X151058386Y-98866427D01*
X152277433Y-99247380D02*
X151820290Y-99247380D01*
X152048862Y-99247380D02*
X152048862Y-98447380D01*
X152048862Y-98447380D02*
X151972671Y-98561665D01*
X151972671Y-98561665D02*
X151896481Y-98637856D01*
X151896481Y-98637856D02*
X151820290Y-98675951D01*
X154298667Y-106712104D02*
X154260571Y-106750200D01*
X154260571Y-106750200D02*
X154146286Y-106788295D01*
X154146286Y-106788295D02*
X154070095Y-106788295D01*
X154070095Y-106788295D02*
X153955809Y-106750200D01*
X153955809Y-106750200D02*
X153879619Y-106674009D01*
X153879619Y-106674009D02*
X153841524Y-106597819D01*
X153841524Y-106597819D02*
X153803428Y-106445438D01*
X153803428Y-106445438D02*
X153803428Y-106331152D01*
X153803428Y-106331152D02*
X153841524Y-106178771D01*
X153841524Y-106178771D02*
X153879619Y-106102580D01*
X153879619Y-106102580D02*
X153955809Y-106026390D01*
X153955809Y-106026390D02*
X154070095Y-105988295D01*
X154070095Y-105988295D02*
X154146286Y-105988295D01*
X154146286Y-105988295D02*
X154260571Y-106026390D01*
X154260571Y-106026390D02*
X154298667Y-106064485D01*
X155060571Y-106788295D02*
X154603428Y-106788295D01*
X154832000Y-106788295D02*
X154832000Y-105988295D01*
X154832000Y-105988295D02*
X154755809Y-106102580D01*
X154755809Y-106102580D02*
X154679619Y-106178771D01*
X154679619Y-106178771D02*
X154603428Y-106216866D01*
X154298667Y-102724295D02*
X154032000Y-102343342D01*
X153841524Y-102724295D02*
X153841524Y-101924295D01*
X153841524Y-101924295D02*
X154146286Y-101924295D01*
X154146286Y-101924295D02*
X154222476Y-101962390D01*
X154222476Y-101962390D02*
X154260571Y-102000485D01*
X154260571Y-102000485D02*
X154298667Y-102076676D01*
X154298667Y-102076676D02*
X154298667Y-102190961D01*
X154298667Y-102190961D02*
X154260571Y-102267152D01*
X154260571Y-102267152D02*
X154222476Y-102305247D01*
X154222476Y-102305247D02*
X154146286Y-102343342D01*
X154146286Y-102343342D02*
X153841524Y-102343342D01*
X154603428Y-102000485D02*
X154641524Y-101962390D01*
X154641524Y-101962390D02*
X154717714Y-101924295D01*
X154717714Y-101924295D02*
X154908190Y-101924295D01*
X154908190Y-101924295D02*
X154984381Y-101962390D01*
X154984381Y-101962390D02*
X155022476Y-102000485D01*
X155022476Y-102000485D02*
X155060571Y-102076676D01*
X155060571Y-102076676D02*
X155060571Y-102152866D01*
X155060571Y-102152866D02*
X155022476Y-102267152D01*
X155022476Y-102267152D02*
X154565333Y-102724295D01*
X154565333Y-102724295D02*
X155060571Y-102724295D01*
X157055727Y-99193332D02*
X156674774Y-99459999D01*
X157055727Y-99650475D02*
X156255727Y-99650475D01*
X156255727Y-99650475D02*
X156255727Y-99345713D01*
X156255727Y-99345713D02*
X156293822Y-99269523D01*
X156293822Y-99269523D02*
X156331917Y-99231428D01*
X156331917Y-99231428D02*
X156408108Y-99193332D01*
X156408108Y-99193332D02*
X156522393Y-99193332D01*
X156522393Y-99193332D02*
X156598584Y-99231428D01*
X156598584Y-99231428D02*
X156636679Y-99269523D01*
X156636679Y-99269523D02*
X156674774Y-99345713D01*
X156674774Y-99345713D02*
X156674774Y-99650475D01*
X156522393Y-98507618D02*
X157055727Y-98507618D01*
X156217632Y-98698094D02*
X156789060Y-98888571D01*
X156789060Y-98888571D02*
X156789060Y-98393332D01*
X154298667Y-100616104D02*
X154260571Y-100654200D01*
X154260571Y-100654200D02*
X154146286Y-100692295D01*
X154146286Y-100692295D02*
X154070095Y-100692295D01*
X154070095Y-100692295D02*
X153955809Y-100654200D01*
X153955809Y-100654200D02*
X153879619Y-100578009D01*
X153879619Y-100578009D02*
X153841524Y-100501819D01*
X153841524Y-100501819D02*
X153803428Y-100349438D01*
X153803428Y-100349438D02*
X153803428Y-100235152D01*
X153803428Y-100235152D02*
X153841524Y-100082771D01*
X153841524Y-100082771D02*
X153879619Y-100006580D01*
X153879619Y-100006580D02*
X153955809Y-99930390D01*
X153955809Y-99930390D02*
X154070095Y-99892295D01*
X154070095Y-99892295D02*
X154146286Y-99892295D01*
X154146286Y-99892295D02*
X154260571Y-99930390D01*
X154260571Y-99930390D02*
X154298667Y-99968485D01*
X154603428Y-99968485D02*
X154641524Y-99930390D01*
X154641524Y-99930390D02*
X154717714Y-99892295D01*
X154717714Y-99892295D02*
X154908190Y-99892295D01*
X154908190Y-99892295D02*
X154984381Y-99930390D01*
X154984381Y-99930390D02*
X155022476Y-99968485D01*
X155022476Y-99968485D02*
X155060571Y-100044676D01*
X155060571Y-100044676D02*
X155060571Y-100120866D01*
X155060571Y-100120866D02*
X155022476Y-100235152D01*
X155022476Y-100235152D02*
X154565333Y-100692295D01*
X154565333Y-100692295D02*
X155060571Y-100692295D01*
X156799261Y-83720414D02*
X156761165Y-83758510D01*
X156761165Y-83758510D02*
X156646880Y-83796605D01*
X156646880Y-83796605D02*
X156570689Y-83796605D01*
X156570689Y-83796605D02*
X156456403Y-83758510D01*
X156456403Y-83758510D02*
X156380213Y-83682319D01*
X156380213Y-83682319D02*
X156342118Y-83606129D01*
X156342118Y-83606129D02*
X156304022Y-83453748D01*
X156304022Y-83453748D02*
X156304022Y-83339462D01*
X156304022Y-83339462D02*
X156342118Y-83187081D01*
X156342118Y-83187081D02*
X156380213Y-83110890D01*
X156380213Y-83110890D02*
X156456403Y-83034700D01*
X156456403Y-83034700D02*
X156570689Y-82996605D01*
X156570689Y-82996605D02*
X156646880Y-82996605D01*
X156646880Y-82996605D02*
X156761165Y-83034700D01*
X156761165Y-83034700D02*
X156799261Y-83072795D01*
X157065927Y-82996605D02*
X157561165Y-82996605D01*
X157561165Y-82996605D02*
X157294499Y-83301367D01*
X157294499Y-83301367D02*
X157408784Y-83301367D01*
X157408784Y-83301367D02*
X157484975Y-83339462D01*
X157484975Y-83339462D02*
X157523070Y-83377557D01*
X157523070Y-83377557D02*
X157561165Y-83453748D01*
X157561165Y-83453748D02*
X157561165Y-83644224D01*
X157561165Y-83644224D02*
X157523070Y-83720414D01*
X157523070Y-83720414D02*
X157484975Y-83758510D01*
X157484975Y-83758510D02*
X157408784Y-83796605D01*
X157408784Y-83796605D02*
X157180213Y-83796605D01*
X157180213Y-83796605D02*
X157104022Y-83758510D01*
X157104022Y-83758510D02*
X157065927Y-83720414D01*
X164954295Y-99119628D02*
X164573342Y-99386295D01*
X164954295Y-99576771D02*
X164154295Y-99576771D01*
X164154295Y-99576771D02*
X164154295Y-99272009D01*
X164154295Y-99272009D02*
X164192390Y-99195819D01*
X164192390Y-99195819D02*
X164230485Y-99157724D01*
X164230485Y-99157724D02*
X164306676Y-99119628D01*
X164306676Y-99119628D02*
X164420961Y-99119628D01*
X164420961Y-99119628D02*
X164497152Y-99157724D01*
X164497152Y-99157724D02*
X164535247Y-99195819D01*
X164535247Y-99195819D02*
X164573342Y-99272009D01*
X164573342Y-99272009D02*
X164573342Y-99576771D01*
X164154295Y-98852962D02*
X164154295Y-98319628D01*
X164154295Y-98319628D02*
X164954295Y-98662486D01*
X154435133Y-81451316D02*
X154435133Y-82213221D01*
X154054180Y-81832268D02*
X154816085Y-81832268D01*
X154435133Y-87293316D02*
X154435133Y-88055221D01*
X154298667Y-105264295D02*
X154032000Y-104883342D01*
X153841524Y-105264295D02*
X153841524Y-104464295D01*
X153841524Y-104464295D02*
X154146286Y-104464295D01*
X154146286Y-104464295D02*
X154222476Y-104502390D01*
X154222476Y-104502390D02*
X154260571Y-104540485D01*
X154260571Y-104540485D02*
X154298667Y-104616676D01*
X154298667Y-104616676D02*
X154298667Y-104730961D01*
X154298667Y-104730961D02*
X154260571Y-104807152D01*
X154260571Y-104807152D02*
X154222476Y-104845247D01*
X154222476Y-104845247D02*
X154146286Y-104883342D01*
X154146286Y-104883342D02*
X153841524Y-104883342D01*
X154565333Y-104464295D02*
X155060571Y-104464295D01*
X155060571Y-104464295D02*
X154793905Y-104769057D01*
X154793905Y-104769057D02*
X154908190Y-104769057D01*
X154908190Y-104769057D02*
X154984381Y-104807152D01*
X154984381Y-104807152D02*
X155022476Y-104845247D01*
X155022476Y-104845247D02*
X155060571Y-104921438D01*
X155060571Y-104921438D02*
X155060571Y-105111914D01*
X155060571Y-105111914D02*
X155022476Y-105188104D01*
X155022476Y-105188104D02*
X154984381Y-105226200D01*
X154984381Y-105226200D02*
X154908190Y-105264295D01*
X154908190Y-105264295D02*
X154679619Y-105264295D01*
X154679619Y-105264295D02*
X154603428Y-105226200D01*
X154603428Y-105226200D02*
X154565333Y-105188104D01*
D14*
X158751125Y-79762068D02*
X164847125Y-79762068D01*
X164847125Y-79762068D02*
X164847125Y-89978190D01*
X164847125Y-89978190D02*
X158751125Y-89978190D01*
X158751125Y-89978190D02*
X158751125Y-79762068D01*
D10*
X162868194Y-102698104D02*
X162743194Y-102698104D01*
X162868194Y-102698104D02*
X162868194Y-105948104D01*
X162743194Y-102698104D02*
X162743194Y-101623104D01*
X159618194Y-102698104D02*
X159843194Y-102698104D01*
X159618194Y-102698104D02*
X159618194Y-105948104D01*
X162868194Y-105948104D02*
X162643194Y-105948104D01*
X159618194Y-105948104D02*
X159843194Y-105948104D01*
D14*
X162560724Y-101032796D02*
X162051276Y-101032796D01*
X162560724Y-99987796D02*
X162051276Y-99987796D01*
X159004724Y-101042465D02*
X158495276Y-101042465D01*
X159004724Y-99997465D02*
X158495276Y-99997465D01*
X164482862Y-98099085D02*
X149482862Y-98099085D01*
X164482862Y-90099085D02*
X149482862Y-90099085D01*
X156961713Y-106972861D02*
X156669179Y-106972861D01*
X156961713Y-105952861D02*
X156669179Y-105952861D01*
X156478500Y-102267687D02*
X156478500Y-102777135D01*
X155433500Y-102267687D02*
X155433500Y-102777135D01*
X158495276Y-98438985D02*
X159004724Y-98438985D01*
X158495276Y-99483985D02*
X159004724Y-99483985D01*
X154578267Y-99570000D02*
X154285733Y-99570000D01*
X154578267Y-98550000D02*
X154285733Y-98550000D01*
X157107616Y-84946857D02*
X156815082Y-84946857D01*
X157107616Y-83926857D02*
X156815082Y-83926857D01*
X162051276Y-98463796D02*
X162560724Y-98463796D01*
X162051276Y-99508796D02*
X162560724Y-99508796D01*
X155360611Y-86658619D02*
X155360611Y-88458619D01*
X158580611Y-88458619D02*
X158580611Y-86008619D01*
X155194000Y-89972122D02*
X149098000Y-89972122D01*
X149098000Y-89972122D02*
X149098000Y-79756000D01*
X149098000Y-79756000D02*
X155194000Y-79756000D01*
X155194000Y-79756000D02*
X155194000Y-89972122D01*
X157070233Y-105455675D02*
X156560785Y-105455675D01*
X157070233Y-104410675D02*
X156560785Y-104410675D01*
%LPC*%
D15*
X162307125Y-82104190D03*
X162307125Y-87692190D03*
D16*
X162218194Y-102173104D03*
X161568194Y-102173104D03*
X160918194Y-102173104D03*
X160268194Y-102173104D03*
X160268194Y-106473104D03*
X160918194Y-106473104D03*
X161568194Y-106473104D03*
X162218194Y-106473104D03*
D17*
X163218500Y-100510296D03*
X161393500Y-100510296D03*
X159662500Y-100519965D03*
X157837500Y-100519965D03*
D18*
X162316862Y-94099085D03*
X151648862Y-94099085D03*
D19*
X157677946Y-106462861D03*
X155952946Y-106462861D03*
D20*
X155956000Y-101609911D03*
X155956000Y-103434911D03*
D21*
X157837500Y-98961485D03*
X159662500Y-98961485D03*
D19*
X155294500Y-99060000D03*
X153569500Y-99060000D03*
X157823849Y-84436857D03*
X156098849Y-84436857D03*
D21*
X161393500Y-98986296D03*
X163218500Y-98986296D03*
D22*
X157920611Y-86208619D03*
X156970611Y-86208619D03*
X156020611Y-86208619D03*
X156020611Y-88908619D03*
X157920611Y-88908619D03*
D23*
X151638000Y-87630000D03*
X151638000Y-82042000D03*
D17*
X157728009Y-104933175D03*
X155903009Y-104933175D03*
D24*
X151759554Y-100745813D03*
D25*
X151759554Y-103245813D03*
X151759554Y-105745813D03*
X151759554Y-108245813D03*
%LPD*%
M02*
