<?xml version="1.0" encoding="utf-8"?>
<!-- Generator: Adobe Illustrator 26.5.0, SVG Export Plug-In . SVG Version: 6.00 Build 0)  -->
<svg version="1.1" id="Layer_1" xmlns="http://www.w3.org/2000/svg" xmlns:xlink="http://www.w3.org/1999/xlink" x="0px" y="0px"
	 viewBox="0 0 288 288" style="enable-background:new 0 0 288 288;" xml:space="preserve">
<style type="text/css">
	.st0{fill:#0000FF;stroke:#0000FF;stroke-width:0.1875;stroke-miterlimit:11.3386;}
	.st1{fill:none;stroke:#000000;stroke-width:0.1875;stroke-miterlimit:11.3386;}
	.st2{fill:none;stroke:#0000FF;stroke-width:7.200000e-02;stroke-miterlimit:11.3386;}
</style>
<path class="st0" d="M158.5,161.9h0.7v2.7h-0.7V161.9z"/>
<path class="st0" d="M156.7,161.9h0.7v2.7h-0.7V161.9z"/>
<path class="st0" d="M154.8,161.9h0.7v2.7h-0.7V161.9z"/>
<path class="st0" d="M153,161.9h0.7v2.7H153V161.9z"/>
<path class="st0" d="M153,174.1h0.7v2.7H153V174.1z"/>
<path class="st0" d="M154.8,174.1h0.7v2.7h-0.7V174.1z"/>
<path class="st0" d="M156.7,174.1h0.7v2.7h-0.7V174.1z"/>
<path class="st0" d="M158.5,174.1h0.7v2.7h-0.7V174.1z"/>
<path class="st0" d="M162.9,159.2l0,0.2l-0.1,0.1l-0.1,0.1l-0.2,0H161l-0.2,0l-0.1-0.1l-0.1-0.1l0-0.2v-1.3l0-0.2l0.1-0.1l0.1-0.1
	l0.2,0h1.4l0.2,0l0.1,0.1l0.1,0.1l0,0.2V159.2z"/>
<path class="st0" d="M157.7,159.2l0,0.2l-0.1,0.1l-0.1,0.1l-0.2,0h-1.4l-0.2,0l-0.1-0.1l-0.1-0.1l0-0.2v-1.3l0-0.2l0.1-0.1l0.1-0.1
	l0.2,0h1.4l0.2,0l0.1,0.1l0.1,0.1l0,0.2V159.2z"/>
<path class="st0" d="M152.8,159.2l0,0.2l-0.1,0.1l-0.1,0.1l-0.2,0h-1.4l-0.2,0l-0.1-0.1l-0.1-0.1l0-0.2v-1.3l0-0.2l0.1-0.1l0.1-0.1
	l0.2,0h1.4l0.2,0l0.1,0.1l0.1,0.1l0,0.2V159.2z"/>
<path class="st0" d="M147.6,159.2l0,0.2l-0.1,0.1l-0.1,0.1l-0.2,0h-1.4l-0.2,0l-0.1-0.1l-0.1-0.1l0-0.2v-1.3l0-0.2l0.1-0.1l0.1-0.1
	l0.2,0h1.4l0.2,0l0.1,0.1l0.1,0.1l0,0.2V159.2z"/>
<path class="st0" d="M164.9,149.3l0,0.3l-0.1,0.4l-0.2,0.3l-0.3,0.3l-0.3,0.2l-0.4,0.1l-0.3,0H155l-0.3,0l-0.4-0.1l-0.3-0.2
	l-0.3-0.3l-0.2-0.3l-0.1-0.4l0-0.3v-17.9l0-0.3l0.1-0.4l0.2-0.3l0.3-0.3l0.3-0.2l0.4-0.1l0.3,0h8.3l0.3,0l0.4,0.1l0.3,0.2l0.3,0.3
	l0.2,0.3l0.1,0.4l0,0.3V149.3z"/>
<path class="st0" d="M134.7,149.3l0,0.3l-0.1,0.4l-0.2,0.3l-0.3,0.3l-0.3,0.2l-0.4,0.1l-0.3,0h-8.3l-0.3,0l-0.4-0.1l-0.3-0.2
	l-0.3-0.3l-0.2-0.3l-0.1-0.4l0-0.3v-17.9l0-0.3l0.1-0.4l0.2-0.3l0.3-0.3l0.3-0.2l0.4-0.1l0.3,0h8.3l0.3,0l0.4,0.1l0.3,0.2l0.3,0.3
	l0.2,0.3l0.1,0.4l0,0.3V149.3z"/>
<path class="st0" d="M147.3,176.1l0,0.2l-0.1,0.1l-0.1,0.1l-0.2,0h-1.7l-0.2,0l-0.1-0.1l-0.1-0.1l0-0.2v-1.3l0-0.2l0.1-0.1l0.1-0.1
	l0.2,0h1.7l0.2,0l0.1,0.1l0.1,0.1l0,0.2V176.1z"/>
<path class="st0" d="M142.4,176.1l0,0.2l-0.1,0.1l-0.1,0.1l-0.2,0h-1.7l-0.2,0l-0.1-0.1l-0.1-0.1l0-0.2v-1.3l0-0.2l0.1-0.1l0.1-0.1
	l0.2,0h1.7l0.2,0l0.1,0.1l0.1,0.1l0,0.2V176.1z"/>
<path class="st0" d="M141.8,160.5l0.2,0l0.1,0.1l0.1,0.1l0,0.2v1.4l0,0.2l-0.1,0.1l-0.1,0.1l-0.2,0h-1.3l-0.2,0l-0.1-0.1l-0.1-0.1
	l0-0.2V161l0-0.2l0.1-0.1l0.1-0.1l0.2,0H141.8z"/>
<path class="st0" d="M141.8,165.7l0.2,0l0.1,0.1l0.1,0.1l0,0.2v1.4l0,0.2l-0.1,0.1L142,168l-0.2,0h-1.3l-0.2,0l-0.1-0.1l-0.1-0.1
	l0-0.2v-1.4l0-0.2l0.1-0.1l0.1-0.1l0.2,0H141.8z"/>
<path class="st0" d="M145.3,153.5l0-0.2l0.1-0.1l0.1-0.1l0.2,0h1.4l0.2,0l0.1,0.1l0.1,0.1l0,0.2v1.3l0,0.2l-0.1,0.1l-0.1,0.1l-0.2,0
	h-1.4l-0.2,0l-0.1-0.1l-0.1-0.1l0-0.2V153.5z"/>
<path class="st0" d="M150.5,153.5l0-0.2l0.1-0.1l0.1-0.1l0.2,0h1.4l0.2,0l0.1,0.1l0.1,0.1l0,0.2v1.3l0,0.2l-0.1,0.1l-0.1,0.1l-0.2,0
	h-1.4l-0.2,0l-0.1-0.1l-0.1-0.1l0-0.2V153.5z"/>
<path class="st0" d="M140.6,155.1l0,0.2l-0.1,0.1l-0.1,0.1l-0.2,0h-1.7l-0.2,0l-0.1-0.1l-0.1-0.1l0-0.2v-1.3l0-0.2l0.1-0.1l0.1-0.1
	l0.2,0h1.7l0.2,0l0.1,0.1l0.1,0.1l0,0.2V155.1z"/>
<path class="st0" d="M135.7,155.1l0,0.2l-0.1,0.1l-0.1,0.1l-0.2,0h-1.7l-0.2,0l-0.1-0.1l-0.1-0.1l0-0.2v-1.3l0-0.2l0.1-0.1l0.1-0.1
	l0.2,0h1.7l0.2,0l0.1,0.1l0.1,0.1l0,0.2V155.1z"/>
<path class="st0" d="M147.7,113.6l0,0.2l-0.1,0.1l-0.1,0.1l-0.2,0h-1.7l-0.2,0l-0.1-0.1l-0.1-0.1l0-0.2v-1.3l0-0.2l0.1-0.1l0.1-0.1
	l0.2,0h1.7l0.2,0l0.1,0.1l0.1,0.1l0,0.2V113.6z"/>
<path class="st0" d="M142.8,113.6l0,0.2l-0.1,0.1l-0.1,0.1l-0.2,0h-1.7l-0.2,0l-0.1-0.1l-0.1-0.1l0-0.2v-1.3l0-0.2l0.1-0.1l0.1-0.1
	l0.2,0h1.7l0.2,0l0.1,0.1l0.1,0.1l0,0.2V113.6z"/>
<path class="st0" d="M155.4,153.6l0-0.2l0.1-0.1l0.1-0.1l0.2,0h1.4l0.2,0l0.1,0.1l0.1,0.1l0,0.2v1.3l0,0.2l-0.1,0.1l-0.1,0.1l-0.2,0
	h-1.4l-0.2,0l-0.1-0.1l-0.1-0.1l0-0.2V153.6z"/>
<path class="st0" d="M160.5,153.6l0-0.2l0.1-0.1l0.1-0.1l0.2,0h1.4l0.2,0l0.1,0.1l0.1,0.1l0,0.2v1.3l0,0.2l-0.1,0.1l-0.1,0.1l-0.2,0
	H161l-0.2,0l-0.1-0.1l-0.1-0.1l0-0.2V153.6z"/>
<path class="st0" d="M146,116h1.4v4H146V116z"/>
<path class="st0" d="M143.3,116h1.4v4h-1.4V116z"/>
<path class="st0" d="M140.6,116h1.4v4h-1.4V116z"/>
<path class="st0" d="M140.6,123.7h1.4v4h-1.4V123.7z"/>
<path class="st0" d="M146,123.7h1.4v4H146V123.7z"/>
<path class="st0" d="M147.3,171.7l0,0.2l-0.1,0.1l-0.1,0.1l-0.2,0h-1.4l-0.2,0l-0.1-0.1l-0.1-0.1l0-0.2v-1.3l0-0.2l0.1-0.1l0.1-0.1
	l0.2,0h1.4l0.2,0l0.1,0.1l0.1,0.1l0,0.2V171.7z"/>
<path class="st0" d="M142.1,171.7l0,0.2l-0.1,0.1l-0.1,0.1l-0.2,0h-1.4l-0.2,0l-0.1-0.1l-0.1-0.1l0-0.2v-1.3l0-0.2l0.1-0.1l0.1-0.1
	l0.2,0h1.4l0.2,0l0.1,0.1l0.1,0.1l0,0.2V171.7z"/>
<path class="st1" d="M163.5,98.3h-39l-0.7,0.1l-0.7,0.2l-0.7,0.3l-0.6,0.4l-0.5,0.5l-0.4,0.6l-0.3,0.7l-0.2,0.7l-0.1,0.7v82.9
	l0.1,0.7l0.2,0.7l0.3,0.7l0.4,0.6l0.5,0.5l0.6,0.4l0.7,0.3l0.7,0.2l0.7,0.1h39l0.7-0.1l0.7-0.2l0.7-0.3l0.6-0.4l0.5-0.5l0.4-0.6
	l0.3-0.7l0.2-0.7l0.1-0.7v-82.9l-0.1-0.7l-0.2-0.7l-0.3-0.7l-0.4-0.6l-0.5-0.5l-0.6-0.4l-0.7-0.3l-0.7-0.2L163.5,98.3z"/>
<rect x="48.2" y="26.3" class="st2" width="191.5" height="235.4"/>
</svg>
