<?xml version="1.0" standalone="no"?>
 <!DOCTYPE svg PUBLIC "-//W3C//DTD SVG 1.1//EN" 
 "http://www.w3.org/Graphics/SVG/1.1/DTD/svg11.dtd"> 
<svg
  xmlns:svg="http://www.w3.org/2000/svg"
  xmlns="http://www.w3.org/2000/svg"
  xmlns:xlink="http://www.w3.org/1999/xlink"
  version="1.1"
  width="297.0022mm" height="210.0072mm" viewBox="0.0000 0.0000 297.0022 210.0072">
<title>SVG Image created as PMB-F_Paste.svg date 2024/04/26 19:55:34 </title>
  <desc>Image generated by PCBNEW </desc>
<g style="fill:#000000; fill-opacity:1.0000;stroke:#000000; stroke-opacity:1.0000;
stroke-linecap:round; stroke-linejoin:round;"
 transform="translate(0 0) scale(1 1)">
</g>
<g style="fill:#000000; fill-opacity:0.0; 
stroke:#000000; stroke-width:0.0000; stroke-opacity:1; 
stroke-linecap:round; stroke-linejoin:round;">
<g >
</g>
<g >
</g>
<g style="fill:#000000; fill-opacity:0.0; 
stroke:#000000; stroke-width:0.0000; stroke-opacity:1; 
stroke-linecap:round; stroke-linejoin:round;">
</g>
<g style="fill:#000000; fill-opacity:0.0; 
stroke:#000000; stroke-width:0.0000; stroke-opacity:1; 
stroke-linecap:round; stroke-linejoin:round;">
</g>
<g style="fill:#000000; fill-opacity:1.0000; 
stroke:#000000; stroke-width:0.0000; stroke-opacity:1; 
stroke-linecap:round; stroke-linejoin:round;">
<path style="fill:#000000; fill-opacity:1.0000; 
stroke:#000000; stroke-width:0.0000; stroke-opacity:1; 
stroke-linecap:round; stroke-linejoin:round;fill-rule:evenodd;"
d="M 162.0182,101.6231
162.4182,101.6231
162.4182,102.7231
162.0182,102.7231
Z" /> 
<path style="fill:#000000; fill-opacity:1.0000; 
stroke:#000000; stroke-width:0.0000; stroke-opacity:1; 
stroke-linecap:round; stroke-linejoin:round;fill-rule:evenodd;"
d="M 161.3682,101.6231
161.7682,101.6231
161.7682,102.7231
161.3682,102.7231
Z" /> 
<path style="fill:#000000; fill-opacity:1.0000; 
stroke:#000000; stroke-width:0.0000; stroke-opacity:1; 
stroke-linecap:round; stroke-linejoin:round;fill-rule:evenodd;"
d="M 160.7182,101.6231
161.1182,101.6231
161.1182,102.7231
160.7182,102.7231
Z" /> 
<path style="fill:#000000; fill-opacity:1.0000; 
stroke:#000000; stroke-width:0.0000; stroke-opacity:1; 
stroke-linecap:round; stroke-linejoin:round;fill-rule:evenodd;"
d="M 160.0682,101.6231
160.4682,101.6231
160.4682,102.7231
160.0682,102.7231
Z" /> 
<path style="fill:#000000; fill-opacity:1.0000; 
stroke:#000000; stroke-width:0.0000; stroke-opacity:1; 
stroke-linecap:round; stroke-linejoin:round;fill-rule:evenodd;"
d="M 160.0682,105.9231
160.4682,105.9231
160.4682,107.0231
160.0682,107.0231
Z" /> 
<path style="fill:#000000; fill-opacity:1.0000; 
stroke:#000000; stroke-width:0.0000; stroke-opacity:1; 
stroke-linecap:round; stroke-linejoin:round;fill-rule:evenodd;"
d="M 160.7182,105.9231
161.1182,105.9231
161.1182,107.0231
160.7182,107.0231
Z" /> 
<path style="fill:#000000; fill-opacity:1.0000; 
stroke:#000000; stroke-width:0.0000; stroke-opacity:1; 
stroke-linecap:round; stroke-linejoin:round;fill-rule:evenodd;"
d="M 161.3682,105.9231
161.7682,105.9231
161.7682,107.0231
161.3682,107.0231
Z" /> 
<path style="fill:#000000; fill-opacity:1.0000; 
stroke:#000000; stroke-width:0.0000; stroke-opacity:1; 
stroke-linecap:round; stroke-linejoin:round;fill-rule:evenodd;"
d="M 162.0182,105.9231
162.4182,105.9231
162.4182,107.0231
162.0182,107.0231
Z" /> 
</g>
<g >
</g>
<g style="fill:#000000; fill-opacity:1.0000; 
stroke:#000000; stroke-width:0.0000; stroke-opacity:1; 
stroke-linecap:round; stroke-linejoin:round;">
<path style="fill:#000000; fill-opacity:1.0000; 
stroke:#000000; stroke-width:0.0000; stroke-opacity:1; 
stroke-linecap:round; stroke-linejoin:round;fill-rule:evenodd;"
d="M 163.7060,100.7478
163.6879,100.8387
163.6364,100.9157
163.5594,100.9672
163.4685,100.9853
162.9685,100.9853
162.8776,100.9672
162.8006,100.9157
162.7491,100.8387
162.7310,100.7478
162.7310,100.2728
162.7491,100.1819
162.8006,100.1049
162.8776,100.0534
162.9685,100.0353
163.4685,100.0353
163.5594,100.0534
163.6364,100.1049
163.6879,100.1819
163.7060,100.2728
Z" /> 
<path style="fill:#000000; fill-opacity:1.0000; 
stroke:#000000; stroke-width:0.0000; stroke-opacity:1; 
stroke-linecap:round; stroke-linejoin:round;fill-rule:evenodd;"
d="M 161.8810,100.7478
161.8629,100.8387
161.8114,100.9157
161.7344,100.9672
161.6435,100.9853
161.1435,100.9853
161.0526,100.9672
160.9756,100.9157
160.9241,100.8387
160.9060,100.7478
160.9060,100.2728
160.9241,100.1819
160.9756,100.1049
161.0526,100.0534
161.1435,100.0353
161.6435,100.0353
161.7344,100.0534
161.8114,100.1049
161.8629,100.1819
161.8810,100.2728
Z" /> 
</g>
<g >
</g>
<g style="fill:#000000; fill-opacity:1.0000; 
stroke:#000000; stroke-width:0.0000; stroke-opacity:1; 
stroke-linecap:round; stroke-linejoin:round;">
<path style="fill:#000000; fill-opacity:1.0000; 
stroke:#000000; stroke-width:0.0000; stroke-opacity:1; 
stroke-linecap:round; stroke-linejoin:round;fill-rule:evenodd;"
d="M 160.1500,100.7575
160.1319,100.8484
160.0804,100.9254
160.0034,100.9769
159.9125,100.9950
159.4125,100.9950
159.3216,100.9769
159.2446,100.9254
159.1931,100.8484
159.1750,100.7575
159.1750,100.2825
159.1931,100.1916
159.2446,100.1145
159.3216,100.0630
159.4125,100.0450
159.9125,100.0450
160.0034,100.0630
160.0804,100.1145
160.1319,100.1916
160.1500,100.2825
Z" /> 
<path style="fill:#000000; fill-opacity:1.0000; 
stroke:#000000; stroke-width:0.0000; stroke-opacity:1; 
stroke-linecap:round; stroke-linejoin:round;fill-rule:evenodd;"
d="M 158.3250,100.7575
158.3069,100.8484
158.2554,100.9254
158.1784,100.9769
158.0875,100.9950
157.5875,100.9950
157.4966,100.9769
157.4196,100.9254
157.3681,100.8484
157.3500,100.7575
157.3500,100.2825
157.3681,100.1916
157.4196,100.1145
157.4966,100.0630
157.5875,100.0450
158.0875,100.0450
158.1784,100.0630
158.2554,100.1145
158.3069,100.1916
158.3250,100.2825
Z" /> 
</g>
<g >
</g>
<g style="fill:#000000; fill-opacity:1.0000; 
stroke:#000000; stroke-width:0.0000; stroke-opacity:1; 
stroke-linecap:round; stroke-linejoin:round;">
<path style="fill:#000000; fill-opacity:1.0000; 
stroke:#000000; stroke-width:0.0000; stroke-opacity:1; 
stroke-linecap:round; stroke-linejoin:round;fill-rule:evenodd;"
d="M 164.4169,97.2627
164.4090,97.3623
164.3645,97.5155
164.2833,97.6528
164.1705,97.7655
164.0332,97.8467
163.8800,97.8912
163.7805,97.8991
160.8532,97.8991
160.7537,97.8912
160.6005,97.8467
160.4632,97.7655
160.3504,97.6528
160.2692,97.5155
160.2247,97.3623
160.2169,97.2627
160.2169,90.9354
160.2247,90.8359
160.2692,90.6827
160.3504,90.5454
160.4632,90.4326
160.6005,90.3514
160.7537,90.3069
160.8532,90.2991
163.7805,90.2991
163.8800,90.3069
164.0332,90.3514
164.1705,90.4326
164.2833,90.5454
164.3645,90.6827
164.4090,90.8359
164.4169,90.9354
Z" /> 
<path style="fill:#000000; fill-opacity:1.0000; 
stroke:#000000; stroke-width:0.0000; stroke-opacity:1; 
stroke-linecap:round; stroke-linejoin:round;fill-rule:evenodd;"
d="M 153.7489,97.2627
153.7410,97.3623
153.6965,97.5155
153.6153,97.6528
153.5025,97.7655
153.3652,97.8467
153.2120,97.8912
153.1125,97.8991
150.1852,97.8991
150.0857,97.8912
149.9325,97.8467
149.7952,97.7655
149.6824,97.6528
149.6012,97.5155
149.5567,97.3623
149.5489,97.2627
149.5489,90.9354
149.5567,90.8359
149.6012,90.6827
149.6824,90.5454
149.7952,90.4326
149.9325,90.3514
150.0857,90.3069
150.1852,90.2991
153.1125,90.2991
153.2120,90.3069
153.3652,90.3514
153.5025,90.4326
153.6153,90.5454
153.6965,90.6827
153.7410,90.8359
153.7489,90.9354
Z" /> 
</g>
<g >
</g>
<g style="fill:#000000; fill-opacity:1.0000; 
stroke:#000000; stroke-width:0.0000; stroke-opacity:1; 
stroke-linecap:round; stroke-linejoin:round;">
<path style="fill:#000000; fill-opacity:1.0000; 
stroke:#000000; stroke-width:0.0000; stroke-opacity:1; 
stroke-linecap:round; stroke-linejoin:round;fill-rule:evenodd;"
d="M 158.2154,106.7004
158.1974,106.7912
158.1459,106.8683
158.0688,106.9198
157.9779,106.9379
157.3779,106.9379
157.2871,106.9198
157.2100,106.8683
157.1585,106.7912
157.1404,106.7004
157.1404,106.2254
157.1585,106.1345
157.2100,106.0574
157.2871,106.0059
157.3779,105.9879
157.9779,105.9879
158.0688,106.0059
158.1459,106.0574
158.1974,106.1345
158.2154,106.2254
Z" /> 
<path style="fill:#000000; fill-opacity:1.0000; 
stroke:#000000; stroke-width:0.0000; stroke-opacity:1; 
stroke-linecap:round; stroke-linejoin:round;fill-rule:evenodd;"
d="M 156.4904,106.7004
156.4724,106.7912
156.4209,106.8683
156.3438,106.9198
156.2529,106.9379
155.6529,106.9379
155.5621,106.9198
155.4850,106.8683
155.4335,106.7912
155.4154,106.7004
155.4154,106.2254
155.4335,106.1345
155.4850,106.0574
155.5621,106.0059
155.6529,105.9879
156.2529,105.9879
156.3438,106.0059
156.4209,106.0574
156.4724,106.1345
156.4904,106.2254
Z" /> 
</g>
<g >
</g>
<g style="fill:#000000; fill-opacity:1.0000; 
stroke:#000000; stroke-width:0.0000; stroke-opacity:1; 
stroke-linecap:round; stroke-linejoin:round;">
<path style="fill:#000000; fill-opacity:1.0000; 
stroke:#000000; stroke-width:0.0000; stroke-opacity:1; 
stroke-linecap:round; stroke-linejoin:round;fill-rule:evenodd;"
d="M 156.1935,101.1224
156.2844,101.1405
156.3614,101.1920
156.4129,101.2690
156.4310,101.3599
156.4310,101.8599
156.4129,101.9508
156.3614,102.0278
156.2844,102.0793
156.1935,102.0974
155.7185,102.0974
155.6276,102.0793
155.5506,102.0278
155.4991,101.9508
155.4810,101.8599
155.4810,101.3599
155.4991,101.2690
155.5506,101.1920
155.6276,101.1405
155.7185,101.1224
Z" /> 
<path style="fill:#000000; fill-opacity:1.0000; 
stroke:#000000; stroke-width:0.0000; stroke-opacity:1; 
stroke-linecap:round; stroke-linejoin:round;fill-rule:evenodd;"
d="M 156.1935,102.9474
156.2844,102.9655
156.3614,103.0170
156.4129,103.0940
156.4310,103.1849
156.4310,103.6849
156.4129,103.7758
156.3614,103.8528
156.2844,103.9043
156.1935,103.9224
155.7185,103.9224
155.6276,103.9043
155.5506,103.8528
155.4991,103.7758
155.4810,103.6849
155.4810,103.1849
155.4991,103.0940
155.5506,103.0170
155.6276,102.9655
155.7185,102.9474
Z" /> 
</g>
<g >
</g>
<g style="fill:#000000; fill-opacity:1.0000; 
stroke:#000000; stroke-width:0.0000; stroke-opacity:1; 
stroke-linecap:round; stroke-linejoin:round;">
<path style="fill:#000000; fill-opacity:1.0000; 
stroke:#000000; stroke-width:0.0000; stroke-opacity:1; 
stroke-linecap:round; stroke-linejoin:round;fill-rule:evenodd;"
d="M 157.3500,98.7240
157.3681,98.6331
157.4196,98.5560
157.4966,98.5046
157.5875,98.4865
158.0875,98.4865
158.1784,98.5046
158.2554,98.5560
158.3069,98.6331
158.3250,98.7240
158.3250,99.1990
158.3069,99.2899
158.2554,99.3669
158.1784,99.4184
158.0875,99.4365
157.5875,99.4365
157.4966,99.4184
157.4196,99.3669
157.3681,99.2899
157.3500,99.1990
Z" /> 
<path style="fill:#000000; fill-opacity:1.0000; 
stroke:#000000; stroke-width:0.0000; stroke-opacity:1; 
stroke-linecap:round; stroke-linejoin:round;fill-rule:evenodd;"
d="M 159.1750,98.7240
159.1931,98.6331
159.2446,98.5560
159.3216,98.5046
159.4125,98.4865
159.9125,98.4865
160.0034,98.5046
160.0804,98.5560
160.1319,98.6331
160.1500,98.7240
160.1500,99.1990
160.1319,99.2899
160.0804,99.3669
160.0034,99.4184
159.9125,99.4365
159.4125,99.4365
159.3216,99.4184
159.2446,99.3669
159.1931,99.2899
159.1750,99.1990
Z" /> 
</g>
<g >
</g>
<g style="fill:#000000; fill-opacity:1.0000; 
stroke:#000000; stroke-width:0.0000; stroke-opacity:1; 
stroke-linecap:round; stroke-linejoin:round;">
<path style="fill:#000000; fill-opacity:1.0000; 
stroke:#000000; stroke-width:0.0000; stroke-opacity:1; 
stroke-linecap:round; stroke-linejoin:round;fill-rule:evenodd;"
d="M 155.8320,99.2975
155.8139,99.3884
155.7624,99.4654
155.6854,99.5169
155.5945,99.5350
154.9945,99.5350
154.9036,99.5169
154.8266,99.4654
154.7751,99.3884
154.7570,99.2975
154.7570,98.8225
154.7751,98.7316
154.8266,98.6546
154.9036,98.6031
154.9945,98.5850
155.5945,98.5850
155.6854,98.6031
155.7624,98.6546
155.8139,98.7316
155.8320,98.8225
Z" /> 
<path style="fill:#000000; fill-opacity:1.0000; 
stroke:#000000; stroke-width:0.0000; stroke-opacity:1; 
stroke-linecap:round; stroke-linejoin:round;fill-rule:evenodd;"
d="M 154.1070,99.2975
154.0889,99.3884
154.0374,99.4654
153.9604,99.5169
153.8695,99.5350
153.2695,99.5350
153.1786,99.5169
153.1016,99.4654
153.0501,99.3884
153.0320,99.2975
153.0320,98.8225
153.0501,98.7316
153.1016,98.6546
153.1786,98.6031
153.2695,98.5850
153.8695,98.5850
153.9604,98.6031
154.0374,98.6546
154.0889,98.7316
154.1070,98.8225
Z" /> 
</g>
<g >
</g>
<g style="fill:#000000; fill-opacity:1.0000; 
stroke:#000000; stroke-width:0.0000; stroke-opacity:1; 
stroke-linecap:round; stroke-linejoin:round;">
<path style="fill:#000000; fill-opacity:1.0000; 
stroke:#000000; stroke-width:0.0000; stroke-opacity:1; 
stroke-linecap:round; stroke-linejoin:round;fill-rule:evenodd;"
d="M 158.3613,84.6744
158.3433,84.7652
158.2918,84.8423
158.2147,84.8938
158.1238,84.9119
157.5238,84.9119
157.4330,84.8938
157.3559,84.8423
157.3044,84.7652
157.2863,84.6744
157.2863,84.1994
157.3044,84.1085
157.3559,84.0314
157.4330,83.9799
157.5238,83.9619
158.1238,83.9619
158.2147,83.9799
158.2918,84.0314
158.3433,84.1085
158.3613,84.1994
Z" /> 
<path style="fill:#000000; fill-opacity:1.0000; 
stroke:#000000; stroke-width:0.0000; stroke-opacity:1; 
stroke-linecap:round; stroke-linejoin:round;fill-rule:evenodd;"
d="M 156.6363,84.6744
156.6183,84.7652
156.5668,84.8423
156.4897,84.8938
156.3988,84.9119
155.7988,84.9119
155.7080,84.8938
155.6309,84.8423
155.5794,84.7652
155.5613,84.6744
155.5613,84.1994
155.5794,84.1085
155.6309,84.0314
155.7080,83.9799
155.7988,83.9619
156.3988,83.9619
156.4897,83.9799
156.5668,84.0314
156.6183,84.1085
156.6363,84.1994
Z" /> 
</g>
<g >
</g>
<g style="fill:#000000; fill-opacity:1.0000; 
stroke:#000000; stroke-width:0.0000; stroke-opacity:1; 
stroke-linecap:round; stroke-linejoin:round;">
<path style="fill:#000000; fill-opacity:1.0000; 
stroke:#000000; stroke-width:0.0000; stroke-opacity:1; 
stroke-linecap:round; stroke-linejoin:round;fill-rule:evenodd;"
d="M 160.9060,98.7488
160.9241,98.6579
160.9756,98.5809
161.0526,98.5294
161.1435,98.5113
161.6435,98.5113
161.7344,98.5294
161.8114,98.5809
161.8629,98.6579
161.8810,98.7488
161.8810,99.2238
161.8629,99.3147
161.8114,99.3917
161.7344,99.4432
161.6435,99.4613
161.1435,99.4613
161.0526,99.4432
160.9756,99.3917
160.9241,99.3147
160.9060,99.2238
Z" /> 
<path style="fill:#000000; fill-opacity:1.0000; 
stroke:#000000; stroke-width:0.0000; stroke-opacity:1; 
stroke-linecap:round; stroke-linejoin:round;fill-rule:evenodd;"
d="M 162.7310,98.7488
162.7491,98.6579
162.8006,98.5809
162.8776,98.5294
162.9685,98.5113
163.4685,98.5113
163.5594,98.5294
163.6364,98.5809
163.6879,98.6579
163.7060,98.7488
163.7060,99.2238
163.6879,99.3147
163.6364,99.3917
163.5594,99.4432
163.4685,99.4613
162.9685,99.4613
162.8776,99.4432
162.8006,99.3917
162.7491,99.3147
162.7310,99.2238
Z" /> 
</g>
<g >
</g>
<g style="fill:#000000; fill-opacity:1.0000; 
stroke:#000000; stroke-width:0.0000; stroke-opacity:1; 
stroke-linecap:round; stroke-linejoin:round;">
<path style="fill:#000000; fill-opacity:1.0000; 
stroke:#000000; stroke-width:0.0000; stroke-opacity:1; 
stroke-linecap:round; stroke-linejoin:round;fill-rule:evenodd;"
d="M 157.5956,85.4286
158.2456,85.4286
158.2456,86.9886
157.5956,86.9886
Z" /> 
<path style="fill:#000000; fill-opacity:1.0000; 
stroke:#000000; stroke-width:0.0000; stroke-opacity:1; 
stroke-linecap:round; stroke-linejoin:round;fill-rule:evenodd;"
d="M 156.6456,85.4286
157.2956,85.4286
157.2956,86.9886
156.6456,86.9886
Z" /> 
<path style="fill:#000000; fill-opacity:1.0000; 
stroke:#000000; stroke-width:0.0000; stroke-opacity:1; 
stroke-linecap:round; stroke-linejoin:round;fill-rule:evenodd;"
d="M 155.6956,85.4286
156.3456,85.4286
156.3456,86.9886
155.6956,86.9886
Z" /> 
<path style="fill:#000000; fill-opacity:1.0000; 
stroke:#000000; stroke-width:0.0000; stroke-opacity:1; 
stroke-linecap:round; stroke-linejoin:round;fill-rule:evenodd;"
d="M 155.6956,88.1286
156.3456,88.1286
156.3456,89.6886
155.6956,89.6886
Z" /> 
<path style="fill:#000000; fill-opacity:1.0000; 
stroke:#000000; stroke-width:0.0000; stroke-opacity:1; 
stroke-linecap:round; stroke-linejoin:round;fill-rule:evenodd;"
d="M 157.5956,88.1286
158.2456,88.1286
158.2456,89.6886
157.5956,89.6886
Z" /> 
</g>
<g >
</g>
<g >
</g>
<g style="fill:#000000; fill-opacity:1.0000; 
stroke:#000000; stroke-width:0.0000; stroke-opacity:1; 
stroke-linecap:round; stroke-linejoin:round;">
<path style="fill:#000000; fill-opacity:1.0000; 
stroke:#000000; stroke-width:0.0000; stroke-opacity:1; 
stroke-linecap:round; stroke-linejoin:round;fill-rule:evenodd;"
d="M 158.2155,105.1707
158.1974,105.2616
158.1459,105.3386
158.0689,105.3901
157.9780,105.4082
157.4780,105.4082
157.3871,105.3901
157.3101,105.3386
157.2586,105.2616
157.2405,105.1707
157.2405,104.6957
157.2586,104.6048
157.3101,104.5277
157.3871,104.4763
157.4780,104.4582
157.9780,104.4582
158.0689,104.4763
158.1459,104.5277
158.1974,104.6048
158.2155,104.6957
Z" /> 
<path style="fill:#000000; fill-opacity:1.0000; 
stroke:#000000; stroke-width:0.0000; stroke-opacity:1; 
stroke-linecap:round; stroke-linejoin:round;fill-rule:evenodd;"
d="M 156.3905,105.1707
156.3724,105.2616
156.3209,105.3386
156.2439,105.3901
156.1530,105.4082
155.6530,105.4082
155.5621,105.3901
155.4851,105.3386
155.4336,105.2616
155.4155,105.1707
155.4155,104.6957
155.4336,104.6048
155.4851,104.5277
155.5621,104.4763
155.6530,104.4582
156.1530,104.4582
156.2439,104.4763
156.3209,104.5277
156.3724,104.6048
156.3905,104.6957
Z" /> 
</g>
<g >
</g>
<g >
</g>
<g >
</g>
<g >
</g>
<g >
</g>
</g> 
</svg>
