<?xml version="1.0" standalone="no"?>
 <!DOCTYPE svg PUBLIC "-//W3C//DTD SVG 1.1//EN" 
 "http://www.w3.org/Graphics/SVG/1.1/DTD/svg11.dtd"> 
<svg
  xmlns:svg="http://www.w3.org/2000/svg"
  xmlns="http://www.w3.org/2000/svg"
  xmlns:xlink="http://www.w3.org/1999/xlink"
  version="1.1"
  width="297.0022mm" height="210.0072mm" viewBox="0.0000 0.0000 297.0022 210.0072">
<title>SVG Image created as programmer-F_Paste.svg date 2024/04/26 19:15:53 </title>
  <desc>Image generated by PCBNEW </desc>
<g style="fill:#000000; fill-opacity:1.0000;stroke:#000000; stroke-opacity:1.0000;
stroke-linecap:round; stroke-linejoin:round;"
 transform="translate(0 0) scale(1 1)">
</g>
<g style="fill:#000000; fill-opacity:0.0; 
stroke:#000000; stroke-width:0.0000; stroke-opacity:1; 
stroke-linecap:round; stroke-linejoin:round;">
<g >
</g>
<g style="fill:#000000; fill-opacity:0.0; 
stroke:#000000; stroke-width:0.0000; stroke-opacity:1; 
stroke-linecap:round; stroke-linejoin:round;">
</g>
<g style="fill:#000000; fill-opacity:1.0000; 
stroke:#000000; stroke-width:0.0000; stroke-opacity:1; 
stroke-linecap:round; stroke-linejoin:round;">
<path style="fill:#000000; fill-opacity:1.0000; 
stroke:#000000; stroke-width:0.0000; stroke-opacity:1; 
stroke-linecap:round; stroke-linejoin:round;fill-rule:evenodd;"
d="M 106.0000,73.7189
106.0181,73.6281
106.0696,73.5510
106.1466,73.4995
106.2375,73.4814
106.7375,73.4814
106.8284,73.4995
106.9054,73.5510
106.9569,73.6281
106.9750,73.7189
106.9750,74.1939
106.9569,74.2848
106.9054,74.3619
106.8284,74.4134
106.7375,74.4314
106.2375,74.4314
106.1466,74.4134
106.0696,74.3619
106.0181,74.2848
106.0000,74.1939
Z" /> 
<path style="fill:#000000; fill-opacity:1.0000; 
stroke:#000000; stroke-width:0.0000; stroke-opacity:1; 
stroke-linecap:round; stroke-linejoin:round;fill-rule:evenodd;"
d="M 107.8250,73.7189
107.8431,73.6281
107.8946,73.5510
107.9716,73.4995
108.0625,73.4814
108.5625,73.4814
108.6534,73.4995
108.7304,73.5510
108.7819,73.6281
108.8000,73.7189
108.8000,74.1939
108.7819,74.2848
108.7304,74.3619
108.6534,74.4134
108.5625,74.4314
108.0625,74.4314
107.9716,74.4134
107.8946,74.3619
107.8431,74.2848
107.8250,74.1939
Z" /> 
</g>
<g >
</g>
<g style="fill:#000000; fill-opacity:1.0000; 
stroke:#000000; stroke-width:0.0000; stroke-opacity:1; 
stroke-linecap:round; stroke-linejoin:round;">
<path style="fill:#000000; fill-opacity:1.0000; 
stroke:#000000; stroke-width:0.0000; stroke-opacity:1; 
stroke-linecap:round; stroke-linejoin:round;fill-rule:evenodd;"
d="M 102.5587,72.2551
102.5768,72.1642
102.6282,72.0872
102.7053,72.0357
102.7962,72.0176
103.3962,72.0176
103.4871,72.0357
103.5641,72.0872
103.6156,72.1642
103.6337,72.2551
103.6337,72.7301
103.6156,72.8210
103.5641,72.8980
103.4871,72.9495
103.3962,72.9676
102.7962,72.9676
102.7053,72.9495
102.6282,72.8980
102.5768,72.8210
102.5587,72.7301
Z" /> 
<path style="fill:#000000; fill-opacity:1.0000; 
stroke:#000000; stroke-width:0.0000; stroke-opacity:1; 
stroke-linecap:round; stroke-linejoin:round;fill-rule:evenodd;"
d="M 104.2837,72.2551
104.3018,72.1642
104.3532,72.0872
104.4303,72.0357
104.5212,72.0176
105.1212,72.0176
105.2121,72.0357
105.2891,72.0872
105.3406,72.1642
105.3587,72.2551
105.3587,72.7301
105.3406,72.8210
105.2891,72.8980
105.2121,72.9495
105.1212,72.9676
104.5212,72.9676
104.4303,72.9495
104.3532,72.8980
104.3018,72.8210
104.2837,72.7301
Z" /> 
</g>
<g >
</g>
<g >
</g>
<g style="fill:#000000; fill-opacity:1.0000; 
stroke:#000000; stroke-width:0.0000; stroke-opacity:1; 
stroke-linecap:round; stroke-linejoin:round;">
<path style="fill:#000000; fill-opacity:1.0000; 
stroke:#000000; stroke-width:0.0000; stroke-opacity:1; 
stroke-linecap:round; stroke-linejoin:round;fill-rule:evenodd;"
d="M 136.6375,78.2125
136.7284,78.2306
136.8054,78.2821
136.8569,78.3591
136.8750,78.4500
136.8750,78.9500
136.8569,79.0409
136.8054,79.1179
136.7284,79.1694
136.6375,79.1875
136.1625,79.1875
136.0716,79.1694
135.9946,79.1179
135.9431,79.0409
135.9250,78.9500
135.9250,78.4500
135.9431,78.3591
135.9946,78.2821
136.0716,78.2306
136.1625,78.2125
Z" /> 
<path style="fill:#000000; fill-opacity:1.0000; 
stroke:#000000; stroke-width:0.0000; stroke-opacity:1; 
stroke-linecap:round; stroke-linejoin:round;fill-rule:evenodd;"
d="M 136.6375,80.0375
136.7284,80.0556
136.8054,80.1071
136.8569,80.1841
136.8750,80.2750
136.8750,80.7750
136.8569,80.8659
136.8054,80.9429
136.7284,80.9944
136.6375,81.0125
136.1625,81.0125
136.0716,80.9944
135.9946,80.9429
135.9431,80.8659
135.9250,80.7750
135.9250,80.2750
135.9431,80.1841
135.9946,80.1071
136.0716,80.0556
136.1625,80.0375
Z" /> 
</g>
<g >
</g>
<g style="fill:#000000; fill-opacity:1.0000; 
stroke:#000000; stroke-width:0.0000; stroke-opacity:1; 
stroke-linecap:round; stroke-linejoin:round;">
<path style="fill:#000000; fill-opacity:1.0000; 
stroke:#000000; stroke-width:0.0000; stroke-opacity:1; 
stroke-linecap:round; stroke-linejoin:round;fill-rule:evenodd;"
d="M 100.3935,82.5675
100.3754,82.6584
100.3240,82.7354
100.2469,82.7869
100.1560,82.8050
99.5810,82.8050
99.4901,82.7869
99.4131,82.7354
99.3616,82.6584
99.3435,82.5675
99.3435,82.0925
99.3616,82.0016
99.4131,81.9246
99.4901,81.8731
99.5810,81.8550
100.1560,81.8550
100.2469,81.8731
100.3240,81.9246
100.3754,82.0016
100.3935,82.0925
Z" /> 
<path style="fill:#000000; fill-opacity:1.0000; 
stroke:#000000; stroke-width:0.0000; stroke-opacity:1; 
stroke-linecap:round; stroke-linejoin:round;fill-rule:evenodd;"
d="M 98.6435,82.5675
98.6254,82.6584
98.5740,82.7354
98.4969,82.7869
98.4060,82.8050
97.8310,82.8050
97.7401,82.7869
97.6631,82.7354
97.6116,82.6584
97.5935,82.5675
97.5935,82.0925
97.6116,82.0016
97.6631,81.9246
97.7401,81.8731
97.8310,81.8550
98.4060,81.8550
98.4969,81.8731
98.5740,81.9246
98.6254,82.0016
98.6435,82.0925
Z" /> 
</g>
<g >
</g>
<g style="fill:#000000; fill-opacity:1.0000; 
stroke:#000000; stroke-width:0.0000; stroke-opacity:1; 
stroke-linecap:round; stroke-linejoin:round;">
<path style="fill:#000000; fill-opacity:1.0000; 
stroke:#000000; stroke-width:0.0000; stroke-opacity:1; 
stroke-linecap:round; stroke-linejoin:round;fill-rule:evenodd;"
d="M 105.6181,68.3498
105.6181,69.8498
103.6181,69.8498
103.6181,68.3498
Z" /> 
<path style="fill:#000000; fill-opacity:1.0000; 
stroke:#000000; stroke-width:0.0000; stroke-opacity:1; 
stroke-linecap:round; stroke-linejoin:round;fill-rule:evenodd;"
d="M 105.6181,66.0498
105.6181,67.5498
103.6181,67.5498
103.6181,66.0498
Z" /> 
<path style="fill:#000000; fill-opacity:1.0000; 
stroke:#000000; stroke-width:0.0000; stroke-opacity:1; 
stroke-linecap:round; stroke-linejoin:round;fill-rule:evenodd;"
d="M 105.6181,63.7498
105.6181,65.2498
103.6181,65.2498
103.6181,63.7498
Z" /> 
<path style="fill:#000000; fill-opacity:1.0000; 
stroke:#000000; stroke-width:0.0000; stroke-opacity:1; 
stroke-linecap:round; stroke-linejoin:round;fill-rule:evenodd;"
d="M 99.3181,64.8998
99.3181,68.6998
97.3181,68.6998
97.3181,64.8998
Z" /> 
</g>
<g >
</g>
<g style="fill:#000000; fill-opacity:1.0000; 
stroke:#000000; stroke-width:0.0000; stroke-opacity:1; 
stroke-linecap:round; stroke-linejoin:round;">
<path style="fill:#000000; fill-opacity:1.0000; 
stroke:#000000; stroke-width:0.0000; stroke-opacity:1; 
stroke-linecap:round; stroke-linejoin:round;fill-rule:evenodd;"
d="M 105.9914,79.0853
106.0095,78.9944
106.0610,78.9173
106.1380,78.8659
106.2289,78.8478
106.7289,78.8478
106.8198,78.8659
106.8969,78.9173
106.9483,78.9944
106.9664,79.0853
106.9664,79.5603
106.9483,79.6512
106.8969,79.7282
106.8198,79.7797
106.7289,79.7978
106.2289,79.7978
106.1380,79.7797
106.0610,79.7282
106.0095,79.6512
105.9914,79.5603
Z" /> 
<path style="fill:#000000; fill-opacity:1.0000; 
stroke:#000000; stroke-width:0.0000; stroke-opacity:1; 
stroke-linecap:round; stroke-linejoin:round;fill-rule:evenodd;"
d="M 107.8164,79.0853
107.8345,78.9944
107.8860,78.9173
107.9630,78.8659
108.0539,78.8478
108.5539,78.8478
108.6448,78.8659
108.7219,78.9173
108.7733,78.9944
108.7914,79.0853
108.7914,79.5603
108.7733,79.6512
108.7219,79.7282
108.6448,79.7797
108.5539,79.7978
108.0539,79.7978
107.9630,79.7797
107.8860,79.7282
107.8345,79.6512
107.8164,79.5603
Z" /> 
</g>
<g >
</g>
<g style="fill:#000000; fill-opacity:1.0000; 
stroke:#000000; stroke-width:0.0000; stroke-opacity:1; 
stroke-linecap:round; stroke-linejoin:round;">
<path style="fill:#000000; fill-opacity:1.0000; 
stroke:#000000; stroke-width:0.0000; stroke-opacity:1; 
stroke-linecap:round; stroke-linejoin:round;fill-rule:evenodd;"
d="M 108.7953,72.6375
108.7773,72.7284
108.7258,72.8054
108.6487,72.8569
108.5579,72.8750
107.9828,72.8750
107.8920,72.8569
107.8149,72.8054
107.7634,72.7284
107.7454,72.6375
107.7454,72.1625
107.7634,72.0716
107.8149,71.9946
107.8920,71.9431
107.9828,71.9250
108.5579,71.9250
108.6487,71.9431
108.7258,71.9946
108.7773,72.0716
108.7953,72.1625
Z" /> 
<path style="fill:#000000; fill-opacity:1.0000; 
stroke:#000000; stroke-width:0.0000; stroke-opacity:1; 
stroke-linecap:round; stroke-linejoin:round;fill-rule:evenodd;"
d="M 107.0453,72.6375
107.0273,72.7284
106.9758,72.8054
106.8987,72.8569
106.8079,72.8750
106.2328,72.8750
106.1420,72.8569
106.0649,72.8054
106.0134,72.7284
105.9954,72.6375
105.9954,72.1625
106.0134,72.0716
106.0649,71.9946
106.1420,71.9431
106.2328,71.9250
106.8079,71.9250
106.8987,71.9431
106.9758,71.9946
107.0273,72.0716
107.0453,72.1625
Z" /> 
</g>
<g >
</g>
<g style="fill:#000000; fill-opacity:1.0000; 
stroke:#000000; stroke-width:0.0000; stroke-opacity:1; 
stroke-linecap:round; stroke-linejoin:round;">
<path style="fill:#000000; fill-opacity:1.0000; 
stroke:#000000; stroke-width:0.0000; stroke-opacity:1; 
stroke-linecap:round; stroke-linejoin:round;fill-rule:evenodd;"
d="M 120.4625,69.1625
120.4806,69.0716
120.5321,68.9946
120.6091,68.9431
120.7000,68.9250
121.3000,68.9250
121.3909,68.9431
121.4679,68.9946
121.5194,69.0716
121.5375,69.1625
121.5375,69.6375
121.5194,69.7284
121.4679,69.8054
121.3909,69.8569
121.3000,69.8750
120.7000,69.8750
120.6091,69.8569
120.5321,69.8054
120.4806,69.7284
120.4625,69.6375
Z" /> 
<path style="fill:#000000; fill-opacity:1.0000; 
stroke:#000000; stroke-width:0.0000; stroke-opacity:1; 
stroke-linecap:round; stroke-linejoin:round;fill-rule:evenodd;"
d="M 122.1875,69.1625
122.2056,69.0716
122.2571,68.9946
122.3341,68.9431
122.4250,68.9250
123.0250,68.9250
123.1159,68.9431
123.1929,68.9946
123.2444,69.0716
123.2625,69.1625
123.2625,69.6375
123.2444,69.7284
123.1929,69.8054
123.1159,69.8569
123.0250,69.8750
122.4250,69.8750
122.3341,69.8569
122.2571,69.8054
122.2056,69.7284
122.1875,69.6375
Z" /> 
</g>
<g >
</g>
<g style="fill:#000000; fill-opacity:1.0000; 
stroke:#000000; stroke-width:0.0000; stroke-opacity:1; 
stroke-linecap:round; stroke-linejoin:round;">
<path style="fill:#000000; fill-opacity:1.0000; 
stroke:#000000; stroke-width:0.0000; stroke-opacity:1; 
stroke-linecap:round; stroke-linejoin:round;fill-rule:evenodd;"
d="M 137.7625,77.6125
137.6716,77.5944
137.5946,77.5429
137.5431,77.4659
137.5250,77.3750
137.5250,76.8000
137.5431,76.7091
137.5946,76.6321
137.6716,76.5806
137.7625,76.5625
138.2375,76.5625
138.3284,76.5806
138.4054,76.6321
138.4569,76.7091
138.4750,76.8000
138.4750,77.3750
138.4569,77.4659
138.4054,77.5429
138.3284,77.5944
138.2375,77.6125
Z" /> 
<path style="fill:#000000; fill-opacity:1.0000; 
stroke:#000000; stroke-width:0.0000; stroke-opacity:1; 
stroke-linecap:round; stroke-linejoin:round;fill-rule:evenodd;"
d="M 137.7625,75.8625
137.6716,75.8444
137.5946,75.7929
137.5431,75.7159
137.5250,75.6250
137.5250,75.0500
137.5431,74.9591
137.5946,74.8821
137.6716,74.8306
137.7625,74.8125
138.2375,74.8125
138.3284,74.8306
138.4054,74.8821
138.4569,74.9591
138.4750,75.0500
138.4750,75.6250
138.4569,75.7159
138.4054,75.7929
138.3284,75.8444
138.2375,75.8625
Z" /> 
</g>
<g >
</g>
<g style="fill:#000000; fill-opacity:1.0000; 
stroke:#000000; stroke-width:0.0000; stroke-opacity:1; 
stroke-linecap:round; stroke-linejoin:round;">
<path style="fill:#000000; fill-opacity:1.0000; 
stroke:#000000; stroke-width:0.0000; stroke-opacity:1; 
stroke-linecap:round; stroke-linejoin:round;fill-rule:evenodd;"
d="M 108.8047,76.4281
108.7867,76.5190
108.7352,76.5961
108.6581,76.6475
108.5672,76.6656
107.9922,76.6656
107.9013,76.6475
107.8243,76.5961
107.7728,76.5190
107.7547,76.4281
107.7547,75.9531
107.7728,75.8622
107.8243,75.7852
107.9013,75.7337
107.9922,75.7156
108.5672,75.7156
108.6581,75.7337
108.7352,75.7852
108.7867,75.8622
108.8047,75.9531
Z" /> 
<path style="fill:#000000; fill-opacity:1.0000; 
stroke:#000000; stroke-width:0.0000; stroke-opacity:1; 
stroke-linecap:round; stroke-linejoin:round;fill-rule:evenodd;"
d="M 107.0547,76.4281
107.0367,76.5190
106.9852,76.5961
106.9081,76.6475
106.8172,76.6656
106.2422,76.6656
106.1513,76.6475
106.0743,76.5961
106.0228,76.5190
106.0047,76.4281
106.0047,75.9531
106.0228,75.8622
106.0743,75.7852
106.1513,75.7337
106.2422,75.7156
106.8172,75.7156
106.9081,75.7337
106.9852,75.7852
107.0367,75.8622
107.0547,75.9531
Z" /> 
</g>
<g >
</g>
<g style="fill:#000000; fill-opacity:1.0000; 
stroke:#000000; stroke-width:0.0000; stroke-opacity:1; 
stroke-linecap:round; stroke-linejoin:round;">
<path style="fill:#000000; fill-opacity:1.0000; 
stroke:#000000; stroke-width:0.0000; stroke-opacity:1; 
stroke-linecap:round; stroke-linejoin:round;fill-rule:evenodd;"
d="M 125.9375,68.5625
125.9556,68.4716
126.0071,68.3946
126.0841,68.3431
126.1750,68.3250
126.7750,68.3250
126.8659,68.3431
126.9429,68.3946
126.9944,68.4716
127.0125,68.5625
127.0125,69.0375
126.9944,69.1284
126.9429,69.2054
126.8659,69.2569
126.7750,69.2750
126.1750,69.2750
126.0841,69.2569
126.0071,69.2054
125.9556,69.1284
125.9375,69.0375
Z" /> 
<path style="fill:#000000; fill-opacity:1.0000; 
stroke:#000000; stroke-width:0.0000; stroke-opacity:1; 
stroke-linecap:round; stroke-linejoin:round;fill-rule:evenodd;"
d="M 127.6625,68.5625
127.6806,68.4716
127.7321,68.3946
127.8091,68.3431
127.9000,68.3250
128.5000,68.3250
128.5909,68.3431
128.6679,68.3946
128.7194,68.4716
128.7375,68.5625
128.7375,69.0375
128.7194,69.1284
128.6679,69.2054
128.5909,69.2569
128.5000,69.2750
127.9000,69.2750
127.8091,69.2569
127.7321,69.2054
127.6806,69.1284
127.6625,69.0375
Z" /> 
</g>
<g >
</g>
<g style="fill:#000000; fill-opacity:1.0000; 
stroke:#000000; stroke-width:0.0000; stroke-opacity:1; 
stroke-linecap:round; stroke-linejoin:round;">
<path style="fill:#000000; fill-opacity:1.0000; 
stroke:#000000; stroke-width:0.0000; stroke-opacity:1; 
stroke-linecap:round; stroke-linejoin:round;fill-rule:evenodd;"
d="M 114.1375,83.2375
114.1194,83.3284
114.0679,83.4054
113.9909,83.4569
113.9000,83.4750
113.3000,83.4750
113.2091,83.4569
113.1321,83.4054
113.0806,83.3284
113.0625,83.2375
113.0625,82.7625
113.0806,82.6716
113.1321,82.5946
113.2091,82.5431
113.3000,82.5250
113.9000,82.5250
113.9909,82.5431
114.0679,82.5946
114.1194,82.6716
114.1375,82.7625
Z" /> 
<path style="fill:#000000; fill-opacity:1.0000; 
stroke:#000000; stroke-width:0.0000; stroke-opacity:1; 
stroke-linecap:round; stroke-linejoin:round;fill-rule:evenodd;"
d="M 112.4125,83.2375
112.3944,83.3284
112.3429,83.4054
112.2659,83.4569
112.1750,83.4750
111.5750,83.4750
111.4841,83.4569
111.4071,83.4054
111.3556,83.3284
111.3375,83.2375
111.3375,82.7625
111.3556,82.6716
111.4071,82.5946
111.4841,82.5431
111.5750,82.5250
112.1750,82.5250
112.2659,82.5431
112.3429,82.5946
112.3944,82.6716
112.4125,82.7625
Z" /> 
</g>
<g >
</g>
<g style="fill:#000000; fill-opacity:1.0000; 
stroke:#000000; stroke-width:0.0000; stroke-opacity:1; 
stroke-linecap:round; stroke-linejoin:round;">
<path style="fill:#000000; fill-opacity:1.0000; 
stroke:#000000; stroke-width:0.0000; stroke-opacity:1; 
stroke-linecap:round; stroke-linejoin:round;fill-rule:evenodd;"
d="M 125.9750,63.7625
125.9931,63.6716
126.0446,63.5946
126.1216,63.5431
126.2125,63.5250
126.7125,63.5250
126.8034,63.5431
126.8804,63.5946
126.9319,63.6716
126.9500,63.7625
126.9500,64.2375
126.9319,64.3284
126.8804,64.4054
126.8034,64.4569
126.7125,64.4750
126.2125,64.4750
126.1216,64.4569
126.0446,64.4054
125.9931,64.3284
125.9750,64.2375
Z" /> 
<path style="fill:#000000; fill-opacity:1.0000; 
stroke:#000000; stroke-width:0.0000; stroke-opacity:1; 
stroke-linecap:round; stroke-linejoin:round;fill-rule:evenodd;"
d="M 127.8000,63.7625
127.8181,63.6716
127.8696,63.5946
127.9466,63.5431
128.0375,63.5250
128.5375,63.5250
128.6284,63.5431
128.7054,63.5946
128.7569,63.6716
128.7750,63.7625
128.7750,64.2375
128.7569,64.3284
128.7054,64.4054
128.6284,64.4569
128.5375,64.4750
128.0375,64.4750
127.9466,64.4569
127.8696,64.4054
127.8181,64.3284
127.8000,64.2375
Z" /> 
</g>
<g >
</g>
<g style="fill:#000000; fill-opacity:1.0000; 
stroke:#000000; stroke-width:0.0000; stroke-opacity:1; 
stroke-linecap:round; stroke-linejoin:round;">
<path style="fill:#000000; fill-opacity:1.0000; 
stroke:#000000; stroke-width:0.0000; stroke-opacity:1; 
stroke-linecap:round; stroke-linejoin:round;fill-rule:evenodd;"
d="M 118.3500,63.8825
118.3614,63.8251
118.3939,63.7764
118.4426,63.7439
118.5000,63.7325
120.1500,63.7325
120.2074,63.7439
120.2561,63.7764
120.2886,63.8251
120.3000,63.8825
120.3000,64.1825
120.2886,64.2399
120.2561,64.2886
120.2074,64.3211
120.1500,64.3325
118.5000,64.3325
118.4426,64.3211
118.3939,64.2886
118.3614,64.2399
118.3500,64.1825
Z" /> 
<path style="fill:#000000; fill-opacity:1.0000; 
stroke:#000000; stroke-width:0.0000; stroke-opacity:1; 
stroke-linecap:round; stroke-linejoin:round;fill-rule:evenodd;"
d="M 118.3500,65.1525
118.3614,65.0951
118.3939,65.0464
118.4426,65.0139
118.5000,65.0025
120.1500,65.0025
120.2074,65.0139
120.2561,65.0464
120.2886,65.0951
120.3000,65.1525
120.3000,65.4525
120.2886,65.5099
120.2561,65.5586
120.2074,65.5911
120.1500,65.6025
118.5000,65.6025
118.4426,65.5911
118.3939,65.5586
118.3614,65.5099
118.3500,65.4525
Z" /> 
<path style="fill:#000000; fill-opacity:1.0000; 
stroke:#000000; stroke-width:0.0000; stroke-opacity:1; 
stroke-linecap:round; stroke-linejoin:round;fill-rule:evenodd;"
d="M 118.3500,66.4225
118.3614,66.3651
118.3939,66.3164
118.4426,66.2839
118.5000,66.2725
120.1500,66.2725
120.2074,66.2839
120.2561,66.3164
120.2886,66.3651
120.3000,66.4225
120.3000,66.7225
120.2886,66.7799
120.2561,66.8286
120.2074,66.8611
120.1500,66.8725
118.5000,66.8725
118.4426,66.8611
118.3939,66.8286
118.3614,66.7799
118.3500,66.7225
Z" /> 
<path style="fill:#000000; fill-opacity:1.0000; 
stroke:#000000; stroke-width:0.0000; stroke-opacity:1; 
stroke-linecap:round; stroke-linejoin:round;fill-rule:evenodd;"
d="M 118.3500,67.6925
118.3614,67.6351
118.3939,67.5864
118.4426,67.5539
118.5000,67.5425
120.1500,67.5425
120.2074,67.5539
120.2561,67.5864
120.2886,67.6351
120.3000,67.6925
120.3000,67.9925
120.2886,68.0499
120.2561,68.0986
120.2074,68.1311
120.1500,68.1425
118.5000,68.1425
118.4426,68.1311
118.3939,68.0986
118.3614,68.0499
118.3500,67.9925
Z" /> 
<path style="fill:#000000; fill-opacity:1.0000; 
stroke:#000000; stroke-width:0.0000; stroke-opacity:1; 
stroke-linecap:round; stroke-linejoin:round;fill-rule:evenodd;"
d="M 123.3000,67.6925
123.3114,67.6351
123.3439,67.5864
123.3926,67.5539
123.4500,67.5425
125.1000,67.5425
125.1574,67.5539
125.2061,67.5864
125.2386,67.6351
125.2500,67.6925
125.2500,67.9925
125.2386,68.0499
125.2061,68.0986
125.1574,68.1311
125.1000,68.1425
123.4500,68.1425
123.3926,68.1311
123.3439,68.0986
123.3114,68.0499
123.3000,67.9925
Z" /> 
<path style="fill:#000000; fill-opacity:1.0000; 
stroke:#000000; stroke-width:0.0000; stroke-opacity:1; 
stroke-linecap:round; stroke-linejoin:round;fill-rule:evenodd;"
d="M 123.3000,66.4225
123.3114,66.3651
123.3439,66.3164
123.3926,66.2839
123.4500,66.2725
125.1000,66.2725
125.1574,66.2839
125.2061,66.3164
125.2386,66.3651
125.2500,66.4225
125.2500,66.7225
125.2386,66.7799
125.2061,66.8286
125.1574,66.8611
125.1000,66.8725
123.4500,66.8725
123.3926,66.8611
123.3439,66.8286
123.3114,66.7799
123.3000,66.7225
Z" /> 
<path style="fill:#000000; fill-opacity:1.0000; 
stroke:#000000; stroke-width:0.0000; stroke-opacity:1; 
stroke-linecap:round; stroke-linejoin:round;fill-rule:evenodd;"
d="M 123.3000,65.1525
123.3114,65.0951
123.3439,65.0464
123.3926,65.0139
123.4500,65.0025
125.1000,65.0025
125.1574,65.0139
125.2061,65.0464
125.2386,65.0951
125.2500,65.1525
125.2500,65.4525
125.2386,65.5099
125.2061,65.5586
125.1574,65.5911
125.1000,65.6025
123.4500,65.6025
123.3926,65.5911
123.3439,65.5586
123.3114,65.5099
123.3000,65.4525
Z" /> 
<path style="fill:#000000; fill-opacity:1.0000; 
stroke:#000000; stroke-width:0.0000; stroke-opacity:1; 
stroke-linecap:round; stroke-linejoin:round;fill-rule:evenodd;"
d="M 123.3000,63.8825
123.3114,63.8251
123.3439,63.7764
123.3926,63.7439
123.4500,63.7325
125.1000,63.7325
125.1574,63.7439
125.2061,63.7764
125.2386,63.8251
125.2500,63.8825
125.2500,64.1825
125.2386,64.2399
125.2061,64.2886
125.1574,64.3211
125.1000,64.3325
123.4500,64.3325
123.3926,64.3211
123.3439,64.2886
123.3114,64.2399
123.3000,64.1825
Z" /> 
</g>
<g >
</g>
<g style="fill:#000000; fill-opacity:1.0000; 
stroke:#000000; stroke-width:0.0000; stroke-opacity:1; 
stroke-linecap:round; stroke-linejoin:round;">
<path style="fill:#000000; fill-opacity:1.0000; 
stroke:#000000; stroke-width:0.0000; stroke-opacity:1; 
stroke-linecap:round; stroke-linejoin:round;fill-rule:evenodd;"
d="M 127.7000,84.6290
128.9000,84.6290
128.9000,86.6290
127.7000,86.6290
Z" /> 
<path style="fill:#000000; fill-opacity:1.0000; 
stroke:#000000; stroke-width:0.0000; stroke-opacity:1; 
stroke-linecap:round; stroke-linejoin:round;fill-rule:evenodd;"
d="M 130.2000,84.6290
131.4000,84.6290
131.4000,86.6290
130.2000,86.6290
Z" /> 
<path style="fill:#000000; fill-opacity:1.0000; 
stroke:#000000; stroke-width:0.0000; stroke-opacity:1; 
stroke-linecap:round; stroke-linejoin:round;fill-rule:evenodd;"
d="M 132.7000,84.6290
133.9000,84.6290
133.9000,86.6290
132.7000,86.6290
Z" /> 
<path style="fill:#000000; fill-opacity:1.0000; 
stroke:#000000; stroke-width:0.0000; stroke-opacity:1; 
stroke-linecap:round; stroke-linejoin:round;fill-rule:evenodd;"
d="M 127.7000,90.4290
128.9000,90.4290
128.9000,92.4290
127.7000,92.4290
Z" /> 
<path style="fill:#000000; fill-opacity:1.0000; 
stroke:#000000; stroke-width:0.0000; stroke-opacity:1; 
stroke-linecap:round; stroke-linejoin:round;fill-rule:evenodd;"
d="M 130.2000,90.4290
131.4000,90.4290
131.4000,92.4290
130.2000,92.4290
Z" /> 
<path style="fill:#000000; fill-opacity:1.0000; 
stroke:#000000; stroke-width:0.0000; stroke-opacity:1; 
stroke-linecap:round; stroke-linejoin:round;fill-rule:evenodd;"
d="M 132.7000,90.4290
133.9000,90.4290
133.9000,92.4290
132.7000,92.4290
Z" /> 
</g>
<g >
</g>
<g style="fill:#000000; fill-opacity:1.0000; 
stroke:#000000; stroke-width:0.0000; stroke-opacity:1; 
stroke-linecap:round; stroke-linejoin:round;">
<path style="fill:#000000; fill-opacity:1.0000; 
stroke:#000000; stroke-width:0.0000; stroke-opacity:1; 
stroke-linecap:round; stroke-linejoin:round;fill-rule:evenodd;"
d="M 136.1625,77.6125
136.0716,77.5944
135.9946,77.5429
135.9431,77.4659
135.9250,77.3750
135.9250,76.8750
135.9431,76.7841
135.9946,76.7071
136.0716,76.6556
136.1625,76.6375
136.6375,76.6375
136.7284,76.6556
136.8054,76.7071
136.8569,76.7841
136.8750,76.8750
136.8750,77.3750
136.8569,77.4659
136.8054,77.5429
136.7284,77.5944
136.6375,77.6125
Z" /> 
<path style="fill:#000000; fill-opacity:1.0000; 
stroke:#000000; stroke-width:0.0000; stroke-opacity:1; 
stroke-linecap:round; stroke-linejoin:round;fill-rule:evenodd;"
d="M 136.1625,75.7875
136.0716,75.7694
135.9946,75.7179
135.9431,75.6409
135.9250,75.5500
135.9250,75.0500
135.9431,74.9591
135.9946,74.8821
136.0716,74.8306
136.1625,74.8125
136.6375,74.8125
136.7284,74.8306
136.8054,74.8821
136.8569,74.9591
136.8750,75.0500
136.8750,75.5500
136.8569,75.6409
136.8054,75.7179
136.7284,75.7694
136.6375,75.7875
Z" /> 
</g>
<g >
</g>
<g style="fill:#000000; fill-opacity:1.0000; 
stroke:#000000; stroke-width:0.0000; stroke-opacity:1; 
stroke-linecap:round; stroke-linejoin:round;">
<path style="fill:#000000; fill-opacity:1.0000; 
stroke:#000000; stroke-width:0.0000; stroke-opacity:1; 
stroke-linecap:round; stroke-linejoin:round;fill-rule:evenodd;"
d="M 135.6875,84.3750
135.7056,84.2841
135.7571,84.2071
135.8341,84.1556
135.9250,84.1375
136.4250,84.1375
136.5159,84.1556
136.5929,84.2071
136.6444,84.2841
136.6625,84.3750
136.6625,84.8500
136.6444,84.9409
136.5929,85.0179
136.5159,85.0694
136.4250,85.0875
135.9250,85.0875
135.8341,85.0694
135.7571,85.0179
135.7056,84.9409
135.6875,84.8500
Z" /> 
<path style="fill:#000000; fill-opacity:1.0000; 
stroke:#000000; stroke-width:0.0000; stroke-opacity:1; 
stroke-linecap:round; stroke-linejoin:round;fill-rule:evenodd;"
d="M 137.5125,84.3750
137.5306,84.2841
137.5821,84.2071
137.6591,84.1556
137.7500,84.1375
138.2500,84.1375
138.3409,84.1556
138.4179,84.2071
138.4694,84.2841
138.4875,84.3750
138.4875,84.8500
138.4694,84.9409
138.4179,85.0179
138.3409,85.0694
138.2500,85.0875
137.7500,85.0875
137.6591,85.0694
137.5821,85.0179
137.5306,84.9409
137.5125,84.8500
Z" /> 
</g>
<g >
</g>
<g >
</g>
<g style="fill:#000000; fill-opacity:1.0000; 
stroke:#000000; stroke-width:0.0000; stroke-opacity:1; 
stroke-linecap:round; stroke-linejoin:round;">
<path style="fill:#000000; fill-opacity:1.0000; 
stroke:#000000; stroke-width:0.0000; stroke-opacity:1; 
stroke-linecap:round; stroke-linejoin:round;fill-rule:evenodd;"
d="M 138.4875,88.0500
138.4694,88.1409
138.4179,88.2179
138.3409,88.2694
138.2500,88.2875
137.7500,88.2875
137.6591,88.2694
137.5821,88.2179
137.5306,88.1409
137.5125,88.0500
137.5125,87.5750
137.5306,87.4841
137.5821,87.4071
137.6591,87.3556
137.7500,87.3375
138.2500,87.3375
138.3409,87.3556
138.4179,87.4071
138.4694,87.4841
138.4875,87.5750
Z" /> 
<path style="fill:#000000; fill-opacity:1.0000; 
stroke:#000000; stroke-width:0.0000; stroke-opacity:1; 
stroke-linecap:round; stroke-linejoin:round;fill-rule:evenodd;"
d="M 136.6625,88.0500
136.6444,88.1409
136.5929,88.2179
136.5159,88.2694
136.4250,88.2875
135.9250,88.2875
135.8341,88.2694
135.7571,88.2179
135.7056,88.1409
135.6875,88.0500
135.6875,87.5750
135.7056,87.4841
135.7571,87.4071
135.8341,87.3556
135.9250,87.3375
136.4250,87.3375
136.5159,87.3556
136.5929,87.4071
136.6444,87.4841
136.6625,87.5750
Z" /> 
</g>
<g >
</g>
<g style="fill:#000000; fill-opacity:1.0000; 
stroke:#000000; stroke-width:0.0000; stroke-opacity:1; 
stroke-linecap:round; stroke-linejoin:round;">
<path style="fill:#000000; fill-opacity:1.0000; 
stroke:#000000; stroke-width:0.0000; stroke-opacity:1; 
stroke-linecap:round; stroke-linejoin:round;fill-rule:evenodd;"
d="M 115.6226,68.3905
115.5317,68.3724
115.4546,68.3209
115.4031,68.2438
115.3851,68.1530
115.3851,67.6530
115.4031,67.5621
115.4546,67.4850
115.5317,67.4335
115.6226,67.4155
116.0976,67.4155
116.1884,67.4335
116.2655,67.4850
116.3170,67.5621
116.3351,67.6530
116.3351,68.1530
116.3170,68.2438
116.2655,68.3209
116.1884,68.3724
116.0976,68.3905
Z" /> 
<path style="fill:#000000; fill-opacity:1.0000; 
stroke:#000000; stroke-width:0.0000; stroke-opacity:1; 
stroke-linecap:round; stroke-linejoin:round;fill-rule:evenodd;"
d="M 115.6226,66.5655
115.5317,66.5474
115.4546,66.4959
115.4031,66.4188
115.3851,66.3280
115.3851,65.8280
115.4031,65.7371
115.4546,65.6600
115.5317,65.6085
115.6226,65.5905
116.0976,65.5905
116.1884,65.6085
116.2655,65.6600
116.3170,65.7371
116.3351,65.8280
116.3351,66.3280
116.3170,66.4188
116.2655,66.4959
116.1884,66.5474
116.0976,66.5655
Z" /> 
</g>
<g >
</g>
<g style="fill:#000000; fill-opacity:1.0000; 
stroke:#000000; stroke-width:0.0000; stroke-opacity:1; 
stroke-linecap:round; stroke-linejoin:round;">
<path style="fill:#000000; fill-opacity:1.0000; 
stroke:#000000; stroke-width:0.0000; stroke-opacity:1; 
stroke-linecap:round; stroke-linejoin:round;fill-rule:evenodd;"
d="M 123.2462,75.1373
123.1553,75.1192
123.0782,75.0677
123.0267,74.9907
123.0087,74.8998
123.0087,74.2998
123.0267,74.2089
123.0782,74.1319
123.1553,74.0804
123.2462,74.0623
123.7212,74.0623
123.8120,74.0804
123.8891,74.1319
123.9406,74.2089
123.9587,74.2998
123.9587,74.8998
123.9406,74.9907
123.8891,75.0677
123.8120,75.1192
123.7212,75.1373
Z" /> 
<path style="fill:#000000; fill-opacity:1.0000; 
stroke:#000000; stroke-width:0.0000; stroke-opacity:1; 
stroke-linecap:round; stroke-linejoin:round;fill-rule:evenodd;"
d="M 123.2462,73.4123
123.1553,73.3942
123.0782,73.3427
123.0267,73.2657
123.0087,73.1748
123.0087,72.5748
123.0267,72.4839
123.0782,72.4069
123.1553,72.3554
123.2462,72.3373
123.7212,72.3373
123.8120,72.3554
123.8891,72.4069
123.9406,72.4839
123.9587,72.5748
123.9587,73.1748
123.9406,73.2657
123.8891,73.3427
123.8120,73.3942
123.7212,73.4123
Z" /> 
</g>
<g >
</g>
<g style="fill:#000000; fill-opacity:1.0000; 
stroke:#000000; stroke-width:0.0000; stroke-opacity:1; 
stroke-linecap:round; stroke-linejoin:round;">
<path style="fill:#000000; fill-opacity:1.0000; 
stroke:#000000; stroke-width:0.0000; stroke-opacity:1; 
stroke-linecap:round; stroke-linejoin:round;fill-rule:evenodd;"
d="M 100.9810,82.0925
100.9991,82.0016
101.0506,81.9246
101.1276,81.8731
101.2185,81.8550
101.7185,81.8550
101.8094,81.8731
101.8865,81.9246
101.9379,82.0016
101.9560,82.0925
101.9560,82.5675
101.9379,82.6584
101.8865,82.7354
101.8094,82.7869
101.7185,82.8050
101.2185,82.8050
101.1276,82.7869
101.0506,82.7354
100.9991,82.6584
100.9810,82.5675
Z" /> 
<path style="fill:#000000; fill-opacity:1.0000; 
stroke:#000000; stroke-width:0.0000; stroke-opacity:1; 
stroke-linecap:round; stroke-linejoin:round;fill-rule:evenodd;"
d="M 102.8060,82.0925
102.8241,82.0016
102.8756,81.9246
102.9526,81.8731
103.0435,81.8550
103.5435,81.8550
103.6344,81.8731
103.7115,81.9246
103.7629,82.0016
103.7810,82.0925
103.7810,82.5675
103.7629,82.6584
103.7115,82.7354
103.6344,82.7869
103.5435,82.8050
103.0435,82.8050
102.9526,82.7869
102.8756,82.7354
102.8241,82.6584
102.8060,82.5675
Z" /> 
</g>
<g >
</g>
<g style="fill:#000000; fill-opacity:1.0000; 
stroke:#000000; stroke-width:0.0000; stroke-opacity:1; 
stroke-linecap:round; stroke-linejoin:round;">
<path style="fill:#000000; fill-opacity:1.0000; 
stroke:#000000; stroke-width:0.0000; stroke-opacity:1; 
stroke-linecap:round; stroke-linejoin:round;fill-rule:evenodd;"
d="M 125.9750,65.3625
125.9931,65.2716
126.0446,65.1946
126.1216,65.1431
126.2125,65.1250
126.7125,65.1250
126.8034,65.1431
126.8804,65.1946
126.9319,65.2716
126.9500,65.3625
126.9500,65.8375
126.9319,65.9284
126.8804,66.0054
126.8034,66.0569
126.7125,66.0750
126.2125,66.0750
126.1216,66.0569
126.0446,66.0054
125.9931,65.9284
125.9750,65.8375
Z" /> 
<path style="fill:#000000; fill-opacity:1.0000; 
stroke:#000000; stroke-width:0.0000; stroke-opacity:1; 
stroke-linecap:round; stroke-linejoin:round;fill-rule:evenodd;"
d="M 127.8000,65.3625
127.8181,65.2716
127.8696,65.1946
127.9466,65.1431
128.0375,65.1250
128.5375,65.1250
128.6284,65.1431
128.7054,65.1946
128.7569,65.2716
128.7750,65.3625
128.7750,65.8375
128.7569,65.9284
128.7054,66.0054
128.6284,66.0569
128.5375,66.0750
128.0375,66.0750
127.9466,66.0569
127.8696,66.0054
127.8181,65.9284
127.8000,65.8375
Z" /> 
</g>
<g >
</g>
<g style="fill:#000000; fill-opacity:1.0000; 
stroke:#000000; stroke-width:0.0000; stroke-opacity:1; 
stroke-linecap:round; stroke-linejoin:round;">
<path style="fill:#000000; fill-opacity:1.0000; 
stroke:#000000; stroke-width:0.0000; stroke-opacity:1; 
stroke-linecap:round; stroke-linejoin:round;fill-rule:evenodd;"
d="M 113.3496,67.4601
113.2587,67.4420
113.1817,67.3905
113.1302,67.3134
113.1121,67.2226
113.1121,66.6226
113.1302,66.5317
113.1817,66.4546
113.2587,66.4031
113.3496,66.3851
113.8246,66.3851
113.9155,66.4031
113.9926,66.4546
114.0440,66.5317
114.0621,66.6226
114.0621,67.2226
114.0440,67.3134
113.9926,67.3905
113.9155,67.4420
113.8246,67.4601
Z" /> 
<path style="fill:#000000; fill-opacity:1.0000; 
stroke:#000000; stroke-width:0.0000; stroke-opacity:1; 
stroke-linecap:round; stroke-linejoin:round;fill-rule:evenodd;"
d="M 113.3496,65.7351
113.2587,65.7170
113.1817,65.6655
113.1302,65.5884
113.1121,65.4976
113.1121,64.8976
113.1302,64.8067
113.1817,64.7296
113.2587,64.6781
113.3496,64.6601
113.8246,64.6601
113.9155,64.6781
113.9926,64.7296
114.0440,64.8067
114.0621,64.8976
114.0621,65.4976
114.0440,65.5884
113.9926,65.6655
113.9155,65.7170
113.8246,65.7351
Z" /> 
</g>
<g >
</g>
<g style="fill:#000000; fill-opacity:1.0000; 
stroke:#000000; stroke-width:0.0000; stroke-opacity:1; 
stroke-linecap:round; stroke-linejoin:round;">
<path style="fill:#000000; fill-opacity:1.0000; 
stroke:#000000; stroke-width:0.0000; stroke-opacity:1; 
stroke-linecap:round; stroke-linejoin:round;fill-rule:evenodd;"
d="M 118.9000,82.7625
118.9181,82.6716
118.9696,82.5946
119.0466,82.5431
119.1375,82.5250
119.7375,82.5250
119.8284,82.5431
119.9054,82.5946
119.9569,82.6716
119.9750,82.7625
119.9750,83.2375
119.9569,83.3284
119.9054,83.4054
119.8284,83.4569
119.7375,83.4750
119.1375,83.4750
119.0466,83.4569
118.9696,83.4054
118.9181,83.3284
118.9000,83.2375
Z" /> 
<path style="fill:#000000; fill-opacity:1.0000; 
stroke:#000000; stroke-width:0.0000; stroke-opacity:1; 
stroke-linecap:round; stroke-linejoin:round;fill-rule:evenodd;"
d="M 120.6250,82.7625
120.6431,82.6716
120.6946,82.5946
120.7716,82.5431
120.8625,82.5250
121.4625,82.5250
121.5534,82.5431
121.6304,82.5946
121.6819,82.6716
121.7000,82.7625
121.7000,83.2375
121.6819,83.3284
121.6304,83.4054
121.5534,83.4569
121.4625,83.4750
120.8625,83.4750
120.7716,83.4569
120.6946,83.4054
120.6431,83.3284
120.6250,83.2375
Z" /> 
</g>
<g >
</g>
<g style="fill:#000000; fill-opacity:1.0000; 
stroke:#000000; stroke-width:0.0000; stroke-opacity:1; 
stroke-linecap:round; stroke-linejoin:round;">
<path style="fill:#000000; fill-opacity:1.0000; 
stroke:#000000; stroke-width:0.0000; stroke-opacity:1; 
stroke-linecap:round; stroke-linejoin:round;fill-rule:evenodd;"
d="M 112.5750,63.8750
112.5750,65.5250
110.6250,65.5250
110.6250,63.8750
Z" /> 
<path style="fill:#000000; fill-opacity:1.0000; 
stroke:#000000; stroke-width:0.0000; stroke-opacity:1; 
stroke-linecap:round; stroke-linejoin:round;fill-rule:evenodd;"
d="M 109.8250,63.8750
109.8250,65.5250
107.8750,65.5250
107.8750,63.8750
Z" /> 
<path style="fill:#000000; fill-opacity:1.0000; 
stroke:#000000; stroke-width:0.0000; stroke-opacity:1; 
stroke-linecap:round; stroke-linejoin:round;fill-rule:evenodd;"
d="M 109.8250,66.0750
109.8250,67.7250
107.8750,67.7250
107.8750,66.0750
Z" /> 
<path style="fill:#000000; fill-opacity:1.0000; 
stroke:#000000; stroke-width:0.0000; stroke-opacity:1; 
stroke-linecap:round; stroke-linejoin:round;fill-rule:evenodd;"
d="M 112.5750,66.0750
112.5750,67.7250
110.6250,67.7250
110.6250,66.0750
Z" /> 
</g>
<g >
</g>
<g style="fill:#000000; fill-opacity:1.0000; 
stroke:#000000; stroke-width:0.0000; stroke-opacity:1; 
stroke-linecap:round; stroke-linejoin:round;">
<path style="fill:#000000; fill-opacity:1.0000; 
stroke:#000000; stroke-width:0.0000; stroke-opacity:1; 
stroke-linecap:round; stroke-linejoin:round;fill-rule:evenodd;"
d="M 108.8000,78.0375
108.7819,78.1284
108.7304,78.2054
108.6534,78.2569
108.5625,78.2750
107.9625,78.2750
107.8716,78.2569
107.7946,78.2054
107.7431,78.1284
107.7250,78.0375
107.7250,77.5625
107.7431,77.4716
107.7946,77.3946
107.8716,77.3431
107.9625,77.3250
108.5625,77.3250
108.6534,77.3431
108.7304,77.3946
108.7819,77.4716
108.8000,77.5625
Z" /> 
<path style="fill:#000000; fill-opacity:1.0000; 
stroke:#000000; stroke-width:0.0000; stroke-opacity:1; 
stroke-linecap:round; stroke-linejoin:round;fill-rule:evenodd;"
d="M 107.0750,78.0375
107.0569,78.1284
107.0054,78.2054
106.9284,78.2569
106.8375,78.2750
106.2375,78.2750
106.1466,78.2569
106.0696,78.2054
106.0181,78.1284
106.0000,78.0375
106.0000,77.5625
106.0181,77.4716
106.0696,77.3946
106.1466,77.3431
106.2375,77.3250
106.8375,77.3250
106.9284,77.3431
107.0054,77.3946
107.0569,77.4716
107.0750,77.5625
Z" /> 
</g>
<g >
</g>
<g style="fill:#000000; fill-opacity:1.0000; 
stroke:#000000; stroke-width:0.0000; stroke-opacity:1; 
stroke-linecap:round; stroke-linejoin:round;">
<path style="fill:#000000; fill-opacity:1.0000; 
stroke:#000000; stroke-width:0.0000; stroke-opacity:1; 
stroke-linecap:round; stroke-linejoin:round;fill-rule:evenodd;"
d="M 107.8500,68.5625
107.8681,68.4716
107.9196,68.3946
107.9966,68.3431
108.0875,68.3250
108.6875,68.3250
108.7784,68.3431
108.8554,68.3946
108.9069,68.4716
108.9250,68.5625
108.9250,69.0375
108.9069,69.1284
108.8554,69.2054
108.7784,69.2569
108.6875,69.2750
108.0875,69.2750
107.9966,69.2569
107.9196,69.2054
107.8681,69.1284
107.8500,69.0375
Z" /> 
<path style="fill:#000000; fill-opacity:1.0000; 
stroke:#000000; stroke-width:0.0000; stroke-opacity:1; 
stroke-linecap:round; stroke-linejoin:round;fill-rule:evenodd;"
d="M 109.5750,68.5625
109.5931,68.4716
109.6446,68.3946
109.7216,68.3431
109.8125,68.3250
110.4125,68.3250
110.5034,68.3431
110.5804,68.3946
110.6319,68.4716
110.6500,68.5625
110.6500,69.0375
110.6319,69.1284
110.5804,69.2054
110.5034,69.2569
110.4125,69.2750
109.8125,69.2750
109.7216,69.2569
109.6446,69.2054
109.5931,69.1284
109.5750,69.0375
Z" /> 
</g>
<g >
</g>
<g style="fill:#000000; fill-opacity:1.0000; 
stroke:#000000; stroke-width:0.0000; stroke-opacity:1; 
stroke-linecap:round; stroke-linejoin:round;">
<path style="fill:#000000; fill-opacity:1.0000; 
stroke:#000000; stroke-width:0.0000; stroke-opacity:1; 
stroke-linecap:round; stroke-linejoin:round;fill-rule:evenodd;"
d="M 125.9750,66.9625
125.9931,66.8716
126.0446,66.7946
126.1216,66.7431
126.2125,66.7250
126.7125,66.7250
126.8034,66.7431
126.8804,66.7946
126.9319,66.8716
126.9500,66.9625
126.9500,67.4375
126.9319,67.5284
126.8804,67.6054
126.8034,67.6569
126.7125,67.6750
126.2125,67.6750
126.1216,67.6569
126.0446,67.6054
125.9931,67.5284
125.9750,67.4375
Z" /> 
<path style="fill:#000000; fill-opacity:1.0000; 
stroke:#000000; stroke-width:0.0000; stroke-opacity:1; 
stroke-linecap:round; stroke-linejoin:round;fill-rule:evenodd;"
d="M 127.8000,66.9625
127.8181,66.8716
127.8696,66.7946
127.9466,66.7431
128.0375,66.7250
128.5375,66.7250
128.6284,66.7431
128.7054,66.7946
128.7569,66.8716
128.7750,66.9625
128.7750,67.4375
128.7569,67.5284
128.7054,67.6054
128.6284,67.6569
128.5375,67.6750
128.0375,67.6750
127.9466,67.6569
127.8696,67.6054
127.8181,67.5284
127.8000,67.4375
Z" /> 
</g>
<g >
</g>
<g style="fill:#000000; fill-opacity:1.0000; 
stroke:#000000; stroke-width:0.0000; stroke-opacity:1; 
stroke-linecap:round; stroke-linejoin:round;">
<path style="fill:#000000; fill-opacity:1.0000; 
stroke:#000000; stroke-width:0.0000; stroke-opacity:1; 
stroke-linecap:round; stroke-linejoin:round;fill-rule:evenodd;"
d="M 138.4750,86.4500
138.4569,86.5409
138.4054,86.6179
138.3284,86.6694
138.2375,86.6875
137.6625,86.6875
137.5716,86.6694
137.4946,86.6179
137.4431,86.5409
137.4250,86.4500
137.4250,85.9750
137.4431,85.8841
137.4946,85.8071
137.5716,85.7556
137.6625,85.7375
138.2375,85.7375
138.3284,85.7556
138.4054,85.8071
138.4569,85.8841
138.4750,85.9750
Z" /> 
<path style="fill:#000000; fill-opacity:1.0000; 
stroke:#000000; stroke-width:0.0000; stroke-opacity:1; 
stroke-linecap:round; stroke-linejoin:round;fill-rule:evenodd;"
d="M 136.7250,86.4500
136.7069,86.5409
136.6554,86.6179
136.5784,86.6694
136.4875,86.6875
135.9125,86.6875
135.8216,86.6694
135.7446,86.6179
135.6931,86.5409
135.6750,86.4500
135.6750,85.9750
135.6931,85.8841
135.7446,85.8071
135.8216,85.7556
135.9125,85.7375
136.4875,85.7375
136.5784,85.7556
136.6554,85.8071
136.7069,85.8841
136.7250,85.9750
Z" /> 
</g>
<g >
</g>
<g style="fill:#000000; fill-opacity:1.0000; 
stroke:#000000; stroke-width:0.0000; stroke-opacity:1; 
stroke-linecap:round; stroke-linejoin:round;">
<path style="fill:#000000; fill-opacity:1.0000; 
stroke:#000000; stroke-width:0.0000; stroke-opacity:1; 
stroke-linecap:round; stroke-linejoin:round;fill-rule:evenodd;"
d="M 109.4750,71.6250
109.4807,71.5963
109.4970,71.5720
109.5213,71.5557
109.5500,71.5500
110.9500,71.5500
110.9787,71.5557
111.0030,71.5720
111.0193,71.5963
111.0250,71.6250
111.0250,71.7750
111.0193,71.8037
111.0030,71.8280
110.9787,71.8443
110.9500,71.8500
109.5500,71.8500
109.5213,71.8443
109.4970,71.8280
109.4807,71.8037
109.4750,71.7750
Z" /> 
<path style="fill:#000000; fill-opacity:1.0000; 
stroke:#000000; stroke-width:0.0000; stroke-opacity:1; 
stroke-linecap:round; stroke-linejoin:round;fill-rule:evenodd;"
d="M 109.4750,72.1250
109.4807,72.0963
109.4970,72.0720
109.5213,72.0557
109.5500,72.0500
110.9500,72.0500
110.9787,72.0557
111.0030,72.0720
111.0193,72.0963
111.0250,72.1250
111.0250,72.2750
111.0193,72.3037
111.0030,72.3280
110.9787,72.3443
110.9500,72.3500
109.5500,72.3500
109.5213,72.3443
109.4970,72.3280
109.4807,72.3037
109.4750,72.2750
Z" /> 
<path style="fill:#000000; fill-opacity:1.0000; 
stroke:#000000; stroke-width:0.0000; stroke-opacity:1; 
stroke-linecap:round; stroke-linejoin:round;fill-rule:evenodd;"
d="M 109.4750,72.6250
109.4807,72.5963
109.4970,72.5720
109.5213,72.5557
109.5500,72.5500
110.9500,72.5500
110.9787,72.5557
111.0030,72.5720
111.0193,72.5963
111.0250,72.6250
111.0250,72.7750
111.0193,72.8037
111.0030,72.8280
110.9787,72.8443
110.9500,72.8500
109.5500,72.8500
109.5213,72.8443
109.4970,72.8280
109.4807,72.8037
109.4750,72.7750
Z" /> 
<path style="fill:#000000; fill-opacity:1.0000; 
stroke:#000000; stroke-width:0.0000; stroke-opacity:1; 
stroke-linecap:round; stroke-linejoin:round;fill-rule:evenodd;"
d="M 109.4750,73.1250
109.4807,73.0963
109.4970,73.0720
109.5213,73.0557
109.5500,73.0500
110.9500,73.0500
110.9787,73.0557
111.0030,73.0720
111.0193,73.0963
111.0250,73.1250
111.0250,73.2750
111.0193,73.3037
111.0030,73.3280
110.9787,73.3443
110.9500,73.3500
109.5500,73.3500
109.5213,73.3443
109.4970,73.3280
109.4807,73.3037
109.4750,73.2750
Z" /> 
<path style="fill:#000000; fill-opacity:1.0000; 
stroke:#000000; stroke-width:0.0000; stroke-opacity:1; 
stroke-linecap:round; stroke-linejoin:round;fill-rule:evenodd;"
d="M 109.4750,73.6250
109.4807,73.5963
109.4970,73.5720
109.5213,73.5557
109.5500,73.5500
110.9500,73.5500
110.9787,73.5557
111.0030,73.5720
111.0193,73.5963
111.0250,73.6250
111.0250,73.7750
111.0193,73.8037
111.0030,73.8280
110.9787,73.8443
110.9500,73.8500
109.5500,73.8500
109.5213,73.8443
109.4970,73.8280
109.4807,73.8037
109.4750,73.7750
Z" /> 
<path style="fill:#000000; fill-opacity:1.0000; 
stroke:#000000; stroke-width:0.0000; stroke-opacity:1; 
stroke-linecap:round; stroke-linejoin:round;fill-rule:evenodd;"
d="M 109.4750,74.1250
109.4807,74.0963
109.4970,74.0720
109.5213,74.0557
109.5500,74.0500
110.9500,74.0500
110.9787,74.0557
111.0030,74.0720
111.0193,74.0963
111.0250,74.1250
111.0250,74.2750
111.0193,74.3037
111.0030,74.3280
110.9787,74.3443
110.9500,74.3500
109.5500,74.3500
109.5213,74.3443
109.4970,74.3280
109.4807,74.3037
109.4750,74.2750
Z" /> 
<path style="fill:#000000; fill-opacity:1.0000; 
stroke:#000000; stroke-width:0.0000; stroke-opacity:1; 
stroke-linecap:round; stroke-linejoin:round;fill-rule:evenodd;"
d="M 109.4750,74.6250
109.4807,74.5963
109.4970,74.5720
109.5213,74.5557
109.5500,74.5500
110.9500,74.5500
110.9787,74.5557
111.0030,74.5720
111.0193,74.5963
111.0250,74.6250
111.0250,74.7750
111.0193,74.8037
111.0030,74.8280
110.9787,74.8443
110.9500,74.8500
109.5500,74.8500
109.5213,74.8443
109.4970,74.8280
109.4807,74.8037
109.4750,74.7750
Z" /> 
<path style="fill:#000000; fill-opacity:1.0000; 
stroke:#000000; stroke-width:0.0000; stroke-opacity:1; 
stroke-linecap:round; stroke-linejoin:round;fill-rule:evenodd;"
d="M 109.4750,75.1250
109.4807,75.0963
109.4970,75.0720
109.5213,75.0557
109.5500,75.0500
110.9500,75.0500
110.9787,75.0557
111.0030,75.0720
111.0193,75.0963
111.0250,75.1250
111.0250,75.2750
111.0193,75.3037
111.0030,75.3280
110.9787,75.3443
110.9500,75.3500
109.5500,75.3500
109.5213,75.3443
109.4970,75.3280
109.4807,75.3037
109.4750,75.2750
Z" /> 
<path style="fill:#000000; fill-opacity:1.0000; 
stroke:#000000; stroke-width:0.0000; stroke-opacity:1; 
stroke-linecap:round; stroke-linejoin:round;fill-rule:evenodd;"
d="M 109.4750,75.6250
109.4807,75.5963
109.4970,75.5720
109.5213,75.5557
109.5500,75.5500
110.9500,75.5500
110.9787,75.5557
111.0030,75.5720
111.0193,75.5963
111.0250,75.6250
111.0250,75.7750
111.0193,75.8037
111.0030,75.8280
110.9787,75.8443
110.9500,75.8500
109.5500,75.8500
109.5213,75.8443
109.4970,75.8280
109.4807,75.8037
109.4750,75.7750
Z" /> 
<path style="fill:#000000; fill-opacity:1.0000; 
stroke:#000000; stroke-width:0.0000; stroke-opacity:1; 
stroke-linecap:round; stroke-linejoin:round;fill-rule:evenodd;"
d="M 109.4750,76.1250
109.4807,76.0963
109.4970,76.0720
109.5213,76.0557
109.5500,76.0500
110.9500,76.0500
110.9787,76.0557
111.0030,76.0720
111.0193,76.0963
111.0250,76.1250
111.0250,76.2750
111.0193,76.3037
111.0030,76.3280
110.9787,76.3443
110.9500,76.3500
109.5500,76.3500
109.5213,76.3443
109.4970,76.3280
109.4807,76.3037
109.4750,76.2750
Z" /> 
<path style="fill:#000000; fill-opacity:1.0000; 
stroke:#000000; stroke-width:0.0000; stroke-opacity:1; 
stroke-linecap:round; stroke-linejoin:round;fill-rule:evenodd;"
d="M 109.4750,76.6250
109.4807,76.5963
109.4970,76.5720
109.5213,76.5557
109.5500,76.5500
110.9500,76.5500
110.9787,76.5557
111.0030,76.5720
111.0193,76.5963
111.0250,76.6250
111.0250,76.7750
111.0193,76.8037
111.0030,76.8280
110.9787,76.8443
110.9500,76.8500
109.5500,76.8500
109.5213,76.8443
109.4970,76.8280
109.4807,76.8037
109.4750,76.7750
Z" /> 
<path style="fill:#000000; fill-opacity:1.0000; 
stroke:#000000; stroke-width:0.0000; stroke-opacity:1; 
stroke-linecap:round; stroke-linejoin:round;fill-rule:evenodd;"
d="M 109.4750,77.1250
109.4807,77.0963
109.4970,77.0720
109.5213,77.0557
109.5500,77.0500
110.9500,77.0500
110.9787,77.0557
111.0030,77.0720
111.0193,77.0963
111.0250,77.1250
111.0250,77.2750
111.0193,77.3037
111.0030,77.3280
110.9787,77.3443
110.9500,77.3500
109.5500,77.3500
109.5213,77.3443
109.4970,77.3280
109.4807,77.3037
109.4750,77.2750
Z" /> 
<path style="fill:#000000; fill-opacity:1.0000; 
stroke:#000000; stroke-width:0.0000; stroke-opacity:1; 
stroke-linecap:round; stroke-linejoin:round;fill-rule:evenodd;"
d="M 109.4750,77.6250
109.4807,77.5963
109.4970,77.5720
109.5213,77.5557
109.5500,77.5500
110.9500,77.5500
110.9787,77.5557
111.0030,77.5720
111.0193,77.5963
111.0250,77.6250
111.0250,77.7750
111.0193,77.8037
111.0030,77.8280
110.9787,77.8443
110.9500,77.8500
109.5500,77.8500
109.5213,77.8443
109.4970,77.8280
109.4807,77.8037
109.4750,77.7750
Z" /> 
<path style="fill:#000000; fill-opacity:1.0000; 
stroke:#000000; stroke-width:0.0000; stroke-opacity:1; 
stroke-linecap:round; stroke-linejoin:round;fill-rule:evenodd;"
d="M 109.4750,78.1250
109.4807,78.0963
109.4970,78.0720
109.5213,78.0557
109.5500,78.0500
110.9500,78.0500
110.9787,78.0557
111.0030,78.0720
111.0193,78.0963
111.0250,78.1250
111.0250,78.2750
111.0193,78.3037
111.0030,78.3280
110.9787,78.3443
110.9500,78.3500
109.5500,78.3500
109.5213,78.3443
109.4970,78.3280
109.4807,78.3037
109.4750,78.2750
Z" /> 
<path style="fill:#000000; fill-opacity:1.0000; 
stroke:#000000; stroke-width:0.0000; stroke-opacity:1; 
stroke-linecap:round; stroke-linejoin:round;fill-rule:evenodd;"
d="M 109.4750,78.6250
109.4807,78.5963
109.4970,78.5720
109.5213,78.5557
109.5500,78.5500
110.9500,78.5500
110.9787,78.5557
111.0030,78.5720
111.0193,78.5963
111.0250,78.6250
111.0250,78.7750
111.0193,78.8037
111.0030,78.8280
110.9787,78.8443
110.9500,78.8500
109.5500,78.8500
109.5213,78.8443
109.4970,78.8280
109.4807,78.8037
109.4750,78.7750
Z" /> 
<path style="fill:#000000; fill-opacity:1.0000; 
stroke:#000000; stroke-width:0.0000; stroke-opacity:1; 
stroke-linecap:round; stroke-linejoin:round;fill-rule:evenodd;"
d="M 109.4750,79.1250
109.4807,79.0963
109.4970,79.0720
109.5213,79.0557
109.5500,79.0500
110.9500,79.0500
110.9787,79.0557
111.0030,79.0720
111.0193,79.0963
111.0250,79.1250
111.0250,79.2750
111.0193,79.3037
111.0030,79.3280
110.9787,79.3443
110.9500,79.3500
109.5500,79.3500
109.5213,79.3443
109.4970,79.3280
109.4807,79.3037
109.4750,79.2750
Z" /> 
<path style="fill:#000000; fill-opacity:1.0000; 
stroke:#000000; stroke-width:0.0000; stroke-opacity:1; 
stroke-linecap:round; stroke-linejoin:round;fill-rule:evenodd;"
d="M 112.0250,80.4250
112.0307,80.3963
112.0470,80.3720
112.0713,80.3557
112.1000,80.3500
112.2500,80.3500
112.2787,80.3557
112.3030,80.3720
112.3193,80.3963
112.3250,80.4250
112.3250,81.8250
112.3193,81.8537
112.3030,81.8780
112.2787,81.8943
112.2500,81.9000
112.1000,81.9000
112.0713,81.8943
112.0470,81.8780
112.0307,81.8537
112.0250,81.8250
Z" /> 
<path style="fill:#000000; fill-opacity:1.0000; 
stroke:#000000; stroke-width:0.0000; stroke-opacity:1; 
stroke-linecap:round; stroke-linejoin:round;fill-rule:evenodd;"
d="M 112.5250,80.4250
112.5307,80.3963
112.5470,80.3720
112.5713,80.3557
112.6000,80.3500
112.7500,80.3500
112.7787,80.3557
112.8030,80.3720
112.8193,80.3963
112.8250,80.4250
112.8250,81.8250
112.8193,81.8537
112.8030,81.8780
112.7787,81.8943
112.7500,81.9000
112.6000,81.9000
112.5713,81.8943
112.5470,81.8780
112.5307,81.8537
112.5250,81.8250
Z" /> 
<path style="fill:#000000; fill-opacity:1.0000; 
stroke:#000000; stroke-width:0.0000; stroke-opacity:1; 
stroke-linecap:round; stroke-linejoin:round;fill-rule:evenodd;"
d="M 113.0250,80.4250
113.0307,80.3963
113.0470,80.3720
113.0713,80.3557
113.1000,80.3500
113.2500,80.3500
113.2787,80.3557
113.3030,80.3720
113.3193,80.3963
113.3250,80.4250
113.3250,81.8250
113.3193,81.8537
113.3030,81.8780
113.2787,81.8943
113.2500,81.9000
113.1000,81.9000
113.0713,81.8943
113.0470,81.8780
113.0307,81.8537
113.0250,81.8250
Z" /> 
<path style="fill:#000000; fill-opacity:1.0000; 
stroke:#000000; stroke-width:0.0000; stroke-opacity:1; 
stroke-linecap:round; stroke-linejoin:round;fill-rule:evenodd;"
d="M 113.5250,80.4250
113.5307,80.3963
113.5470,80.3720
113.5713,80.3557
113.6000,80.3500
113.7500,80.3500
113.7787,80.3557
113.8030,80.3720
113.8193,80.3963
113.8250,80.4250
113.8250,81.8250
113.8193,81.8537
113.8030,81.8780
113.7787,81.8943
113.7500,81.9000
113.6000,81.9000
113.5713,81.8943
113.5470,81.8780
113.5307,81.8537
113.5250,81.8250
Z" /> 
<path style="fill:#000000; fill-opacity:1.0000; 
stroke:#000000; stroke-width:0.0000; stroke-opacity:1; 
stroke-linecap:round; stroke-linejoin:round;fill-rule:evenodd;"
d="M 114.0250,80.4250
114.0307,80.3963
114.0470,80.3720
114.0713,80.3557
114.1000,80.3500
114.2500,80.3500
114.2787,80.3557
114.3030,80.3720
114.3193,80.3963
114.3250,80.4250
114.3250,81.8250
114.3193,81.8537
114.3030,81.8780
114.2787,81.8943
114.2500,81.9000
114.1000,81.9000
114.0713,81.8943
114.0470,81.8780
114.0307,81.8537
114.0250,81.8250
Z" /> 
<path style="fill:#000000; fill-opacity:1.0000; 
stroke:#000000; stroke-width:0.0000; stroke-opacity:1; 
stroke-linecap:round; stroke-linejoin:round;fill-rule:evenodd;"
d="M 114.5250,80.4250
114.5307,80.3963
114.5470,80.3720
114.5713,80.3557
114.6000,80.3500
114.7500,80.3500
114.7787,80.3557
114.8030,80.3720
114.8193,80.3963
114.8250,80.4250
114.8250,81.8250
114.8193,81.8537
114.8030,81.8780
114.7787,81.8943
114.7500,81.9000
114.6000,81.9000
114.5713,81.8943
114.5470,81.8780
114.5307,81.8537
114.5250,81.8250
Z" /> 
<path style="fill:#000000; fill-opacity:1.0000; 
stroke:#000000; stroke-width:0.0000; stroke-opacity:1; 
stroke-linecap:round; stroke-linejoin:round;fill-rule:evenodd;"
d="M 115.0250,80.4250
115.0307,80.3963
115.0470,80.3720
115.0713,80.3557
115.1000,80.3500
115.2500,80.3500
115.2787,80.3557
115.3030,80.3720
115.3193,80.3963
115.3250,80.4250
115.3250,81.8250
115.3193,81.8537
115.3030,81.8780
115.2787,81.8943
115.2500,81.9000
115.1000,81.9000
115.0713,81.8943
115.0470,81.8780
115.0307,81.8537
115.0250,81.8250
Z" /> 
<path style="fill:#000000; fill-opacity:1.0000; 
stroke:#000000; stroke-width:0.0000; stroke-opacity:1; 
stroke-linecap:round; stroke-linejoin:round;fill-rule:evenodd;"
d="M 115.5250,80.4250
115.5307,80.3963
115.5470,80.3720
115.5713,80.3557
115.6000,80.3500
115.7500,80.3500
115.7787,80.3557
115.8030,80.3720
115.8193,80.3963
115.8250,80.4250
115.8250,81.8250
115.8193,81.8537
115.8030,81.8780
115.7787,81.8943
115.7500,81.9000
115.6000,81.9000
115.5713,81.8943
115.5470,81.8780
115.5307,81.8537
115.5250,81.8250
Z" /> 
<path style="fill:#000000; fill-opacity:1.0000; 
stroke:#000000; stroke-width:0.0000; stroke-opacity:1; 
stroke-linecap:round; stroke-linejoin:round;fill-rule:evenodd;"
d="M 116.0250,80.4250
116.0307,80.3963
116.0470,80.3720
116.0713,80.3557
116.1000,80.3500
116.2500,80.3500
116.2787,80.3557
116.3030,80.3720
116.3193,80.3963
116.3250,80.4250
116.3250,81.8250
116.3193,81.8537
116.3030,81.8780
116.2787,81.8943
116.2500,81.9000
116.1000,81.9000
116.0713,81.8943
116.0470,81.8780
116.0307,81.8537
116.0250,81.8250
Z" /> 
<path style="fill:#000000; fill-opacity:1.0000; 
stroke:#000000; stroke-width:0.0000; stroke-opacity:1; 
stroke-linecap:round; stroke-linejoin:round;fill-rule:evenodd;"
d="M 116.5250,80.4250
116.5307,80.3963
116.5470,80.3720
116.5713,80.3557
116.6000,80.3500
116.7500,80.3500
116.7787,80.3557
116.8030,80.3720
116.8193,80.3963
116.8250,80.4250
116.8250,81.8250
116.8193,81.8537
116.8030,81.8780
116.7787,81.8943
116.7500,81.9000
116.6000,81.9000
116.5713,81.8943
116.5470,81.8780
116.5307,81.8537
116.5250,81.8250
Z" /> 
<path style="fill:#000000; fill-opacity:1.0000; 
stroke:#000000; stroke-width:0.0000; stroke-opacity:1; 
stroke-linecap:round; stroke-linejoin:round;fill-rule:evenodd;"
d="M 117.0250,80.4250
117.0307,80.3963
117.0470,80.3720
117.0713,80.3557
117.1000,80.3500
117.2500,80.3500
117.2787,80.3557
117.3030,80.3720
117.3193,80.3963
117.3250,80.4250
117.3250,81.8250
117.3193,81.8537
117.3030,81.8780
117.2787,81.8943
117.2500,81.9000
117.1000,81.9000
117.0713,81.8943
117.0470,81.8780
117.0307,81.8537
117.0250,81.8250
Z" /> 
<path style="fill:#000000; fill-opacity:1.0000; 
stroke:#000000; stroke-width:0.0000; stroke-opacity:1; 
stroke-linecap:round; stroke-linejoin:round;fill-rule:evenodd;"
d="M 117.5250,80.4250
117.5307,80.3963
117.5470,80.3720
117.5713,80.3557
117.6000,80.3500
117.7500,80.3500
117.7787,80.3557
117.8030,80.3720
117.8193,80.3963
117.8250,80.4250
117.8250,81.8250
117.8193,81.8537
117.8030,81.8780
117.7787,81.8943
117.7500,81.9000
117.6000,81.9000
117.5713,81.8943
117.5470,81.8780
117.5307,81.8537
117.5250,81.8250
Z" /> 
<path style="fill:#000000; fill-opacity:1.0000; 
stroke:#000000; stroke-width:0.0000; stroke-opacity:1; 
stroke-linecap:round; stroke-linejoin:round;fill-rule:evenodd;"
d="M 118.0250,80.4250
118.0307,80.3963
118.0470,80.3720
118.0713,80.3557
118.1000,80.3500
118.2500,80.3500
118.2787,80.3557
118.3030,80.3720
118.3193,80.3963
118.3250,80.4250
118.3250,81.8250
118.3193,81.8537
118.3030,81.8780
118.2787,81.8943
118.2500,81.9000
118.1000,81.9000
118.0713,81.8943
118.0470,81.8780
118.0307,81.8537
118.0250,81.8250
Z" /> 
<path style="fill:#000000; fill-opacity:1.0000; 
stroke:#000000; stroke-width:0.0000; stroke-opacity:1; 
stroke-linecap:round; stroke-linejoin:round;fill-rule:evenodd;"
d="M 118.5250,80.4250
118.5307,80.3963
118.5470,80.3720
118.5713,80.3557
118.6000,80.3500
118.7500,80.3500
118.7787,80.3557
118.8030,80.3720
118.8193,80.3963
118.8250,80.4250
118.8250,81.8250
118.8193,81.8537
118.8030,81.8780
118.7787,81.8943
118.7500,81.9000
118.6000,81.9000
118.5713,81.8943
118.5470,81.8780
118.5307,81.8537
118.5250,81.8250
Z" /> 
<path style="fill:#000000; fill-opacity:1.0000; 
stroke:#000000; stroke-width:0.0000; stroke-opacity:1; 
stroke-linecap:round; stroke-linejoin:round;fill-rule:evenodd;"
d="M 119.0250,80.4250
119.0307,80.3963
119.0470,80.3720
119.0713,80.3557
119.1000,80.3500
119.2500,80.3500
119.2787,80.3557
119.3030,80.3720
119.3193,80.3963
119.3250,80.4250
119.3250,81.8250
119.3193,81.8537
119.3030,81.8780
119.2787,81.8943
119.2500,81.9000
119.1000,81.9000
119.0713,81.8943
119.0470,81.8780
119.0307,81.8537
119.0250,81.8250
Z" /> 
<path style="fill:#000000; fill-opacity:1.0000; 
stroke:#000000; stroke-width:0.0000; stroke-opacity:1; 
stroke-linecap:round; stroke-linejoin:round;fill-rule:evenodd;"
d="M 119.5250,80.4250
119.5307,80.3963
119.5470,80.3720
119.5713,80.3557
119.6000,80.3500
119.7500,80.3500
119.7787,80.3557
119.8030,80.3720
119.8193,80.3963
119.8250,80.4250
119.8250,81.8250
119.8193,81.8537
119.8030,81.8780
119.7787,81.8943
119.7500,81.9000
119.6000,81.9000
119.5713,81.8943
119.5470,81.8780
119.5307,81.8537
119.5250,81.8250
Z" /> 
<path style="fill:#000000; fill-opacity:1.0000; 
stroke:#000000; stroke-width:0.0000; stroke-opacity:1; 
stroke-linecap:round; stroke-linejoin:round;fill-rule:evenodd;"
d="M 120.8250,79.1250
120.8307,79.0963
120.8470,79.0720
120.8713,79.0557
120.9000,79.0500
122.3000,79.0500
122.3287,79.0557
122.3530,79.0720
122.3693,79.0963
122.3750,79.1250
122.3750,79.2750
122.3693,79.3037
122.3530,79.3280
122.3287,79.3443
122.3000,79.3500
120.9000,79.3500
120.8713,79.3443
120.8470,79.3280
120.8307,79.3037
120.8250,79.2750
Z" /> 
<path style="fill:#000000; fill-opacity:1.0000; 
stroke:#000000; stroke-width:0.0000; stroke-opacity:1; 
stroke-linecap:round; stroke-linejoin:round;fill-rule:evenodd;"
d="M 120.8250,78.6250
120.8307,78.5963
120.8470,78.5720
120.8713,78.5557
120.9000,78.5500
122.3000,78.5500
122.3287,78.5557
122.3530,78.5720
122.3693,78.5963
122.3750,78.6250
122.3750,78.7750
122.3693,78.8037
122.3530,78.8280
122.3287,78.8443
122.3000,78.8500
120.9000,78.8500
120.8713,78.8443
120.8470,78.8280
120.8307,78.8037
120.8250,78.7750
Z" /> 
<path style="fill:#000000; fill-opacity:1.0000; 
stroke:#000000; stroke-width:0.0000; stroke-opacity:1; 
stroke-linecap:round; stroke-linejoin:round;fill-rule:evenodd;"
d="M 120.8250,78.1250
120.8307,78.0963
120.8470,78.0720
120.8713,78.0557
120.9000,78.0500
122.3000,78.0500
122.3287,78.0557
122.3530,78.0720
122.3693,78.0963
122.3750,78.1250
122.3750,78.2750
122.3693,78.3037
122.3530,78.3280
122.3287,78.3443
122.3000,78.3500
120.9000,78.3500
120.8713,78.3443
120.8470,78.3280
120.8307,78.3037
120.8250,78.2750
Z" /> 
<path style="fill:#000000; fill-opacity:1.0000; 
stroke:#000000; stroke-width:0.0000; stroke-opacity:1; 
stroke-linecap:round; stroke-linejoin:round;fill-rule:evenodd;"
d="M 120.8250,77.6250
120.8307,77.5963
120.8470,77.5720
120.8713,77.5557
120.9000,77.5500
122.3000,77.5500
122.3287,77.5557
122.3530,77.5720
122.3693,77.5963
122.3750,77.6250
122.3750,77.7750
122.3693,77.8037
122.3530,77.8280
122.3287,77.8443
122.3000,77.8500
120.9000,77.8500
120.8713,77.8443
120.8470,77.8280
120.8307,77.8037
120.8250,77.7750
Z" /> 
<path style="fill:#000000; fill-opacity:1.0000; 
stroke:#000000; stroke-width:0.0000; stroke-opacity:1; 
stroke-linecap:round; stroke-linejoin:round;fill-rule:evenodd;"
d="M 120.8250,77.1250
120.8307,77.0963
120.8470,77.0720
120.8713,77.0557
120.9000,77.0500
122.3000,77.0500
122.3287,77.0557
122.3530,77.0720
122.3693,77.0963
122.3750,77.1250
122.3750,77.2750
122.3693,77.3037
122.3530,77.3280
122.3287,77.3443
122.3000,77.3500
120.9000,77.3500
120.8713,77.3443
120.8470,77.3280
120.8307,77.3037
120.8250,77.2750
Z" /> 
<path style="fill:#000000; fill-opacity:1.0000; 
stroke:#000000; stroke-width:0.0000; stroke-opacity:1; 
stroke-linecap:round; stroke-linejoin:round;fill-rule:evenodd;"
d="M 120.8250,76.6250
120.8307,76.5963
120.8470,76.5720
120.8713,76.5557
120.9000,76.5500
122.3000,76.5500
122.3287,76.5557
122.3530,76.5720
122.3693,76.5963
122.3750,76.6250
122.3750,76.7750
122.3693,76.8037
122.3530,76.8280
122.3287,76.8443
122.3000,76.8500
120.9000,76.8500
120.8713,76.8443
120.8470,76.8280
120.8307,76.8037
120.8250,76.7750
Z" /> 
<path style="fill:#000000; fill-opacity:1.0000; 
stroke:#000000; stroke-width:0.0000; stroke-opacity:1; 
stroke-linecap:round; stroke-linejoin:round;fill-rule:evenodd;"
d="M 120.8250,76.1250
120.8307,76.0963
120.8470,76.0720
120.8713,76.0557
120.9000,76.0500
122.3000,76.0500
122.3287,76.0557
122.3530,76.0720
122.3693,76.0963
122.3750,76.1250
122.3750,76.2750
122.3693,76.3037
122.3530,76.3280
122.3287,76.3443
122.3000,76.3500
120.9000,76.3500
120.8713,76.3443
120.8470,76.3280
120.8307,76.3037
120.8250,76.2750
Z" /> 
<path style="fill:#000000; fill-opacity:1.0000; 
stroke:#000000; stroke-width:0.0000; stroke-opacity:1; 
stroke-linecap:round; stroke-linejoin:round;fill-rule:evenodd;"
d="M 120.8250,75.6250
120.8307,75.5963
120.8470,75.5720
120.8713,75.5557
120.9000,75.5500
122.3000,75.5500
122.3287,75.5557
122.3530,75.5720
122.3693,75.5963
122.3750,75.6250
122.3750,75.7750
122.3693,75.8037
122.3530,75.8280
122.3287,75.8443
122.3000,75.8500
120.9000,75.8500
120.8713,75.8443
120.8470,75.8280
120.8307,75.8037
120.8250,75.7750
Z" /> 
<path style="fill:#000000; fill-opacity:1.0000; 
stroke:#000000; stroke-width:0.0000; stroke-opacity:1; 
stroke-linecap:round; stroke-linejoin:round;fill-rule:evenodd;"
d="M 120.8250,75.1250
120.8307,75.0963
120.8470,75.0720
120.8713,75.0557
120.9000,75.0500
122.3000,75.0500
122.3287,75.0557
122.3530,75.0720
122.3693,75.0963
122.3750,75.1250
122.3750,75.2750
122.3693,75.3037
122.3530,75.3280
122.3287,75.3443
122.3000,75.3500
120.9000,75.3500
120.8713,75.3443
120.8470,75.3280
120.8307,75.3037
120.8250,75.2750
Z" /> 
<path style="fill:#000000; fill-opacity:1.0000; 
stroke:#000000; stroke-width:0.0000; stroke-opacity:1; 
stroke-linecap:round; stroke-linejoin:round;fill-rule:evenodd;"
d="M 120.8250,74.6250
120.8307,74.5963
120.8470,74.5720
120.8713,74.5557
120.9000,74.5500
122.3000,74.5500
122.3287,74.5557
122.3530,74.5720
122.3693,74.5963
122.3750,74.6250
122.3750,74.7750
122.3693,74.8037
122.3530,74.8280
122.3287,74.8443
122.3000,74.8500
120.9000,74.8500
120.8713,74.8443
120.8470,74.8280
120.8307,74.8037
120.8250,74.7750
Z" /> 
<path style="fill:#000000; fill-opacity:1.0000; 
stroke:#000000; stroke-width:0.0000; stroke-opacity:1; 
stroke-linecap:round; stroke-linejoin:round;fill-rule:evenodd;"
d="M 120.8250,74.1250
120.8307,74.0963
120.8470,74.0720
120.8713,74.0557
120.9000,74.0500
122.3000,74.0500
122.3287,74.0557
122.3530,74.0720
122.3693,74.0963
122.3750,74.1250
122.3750,74.2750
122.3693,74.3037
122.3530,74.3280
122.3287,74.3443
122.3000,74.3500
120.9000,74.3500
120.8713,74.3443
120.8470,74.3280
120.8307,74.3037
120.8250,74.2750
Z" /> 
<path style="fill:#000000; fill-opacity:1.0000; 
stroke:#000000; stroke-width:0.0000; stroke-opacity:1; 
stroke-linecap:round; stroke-linejoin:round;fill-rule:evenodd;"
d="M 120.8250,73.6250
120.8307,73.5963
120.8470,73.5720
120.8713,73.5557
120.9000,73.5500
122.3000,73.5500
122.3287,73.5557
122.3530,73.5720
122.3693,73.5963
122.3750,73.6250
122.3750,73.7750
122.3693,73.8037
122.3530,73.8280
122.3287,73.8443
122.3000,73.8500
120.9000,73.8500
120.8713,73.8443
120.8470,73.8280
120.8307,73.8037
120.8250,73.7750
Z" /> 
<path style="fill:#000000; fill-opacity:1.0000; 
stroke:#000000; stroke-width:0.0000; stroke-opacity:1; 
stroke-linecap:round; stroke-linejoin:round;fill-rule:evenodd;"
d="M 120.8250,73.1250
120.8307,73.0963
120.8470,73.0720
120.8713,73.0557
120.9000,73.0500
122.3000,73.0500
122.3287,73.0557
122.3530,73.0720
122.3693,73.0963
122.3750,73.1250
122.3750,73.2750
122.3693,73.3037
122.3530,73.3280
122.3287,73.3443
122.3000,73.3500
120.9000,73.3500
120.8713,73.3443
120.8470,73.3280
120.8307,73.3037
120.8250,73.2750
Z" /> 
<path style="fill:#000000; fill-opacity:1.0000; 
stroke:#000000; stroke-width:0.0000; stroke-opacity:1; 
stroke-linecap:round; stroke-linejoin:round;fill-rule:evenodd;"
d="M 120.8250,72.6250
120.8307,72.5963
120.8470,72.5720
120.8713,72.5557
120.9000,72.5500
122.3000,72.5500
122.3287,72.5557
122.3530,72.5720
122.3693,72.5963
122.3750,72.6250
122.3750,72.7750
122.3693,72.8037
122.3530,72.8280
122.3287,72.8443
122.3000,72.8500
120.9000,72.8500
120.8713,72.8443
120.8470,72.8280
120.8307,72.8037
120.8250,72.7750
Z" /> 
<path style="fill:#000000; fill-opacity:1.0000; 
stroke:#000000; stroke-width:0.0000; stroke-opacity:1; 
stroke-linecap:round; stroke-linejoin:round;fill-rule:evenodd;"
d="M 120.8250,72.1250
120.8307,72.0963
120.8470,72.0720
120.8713,72.0557
120.9000,72.0500
122.3000,72.0500
122.3287,72.0557
122.3530,72.0720
122.3693,72.0963
122.3750,72.1250
122.3750,72.2750
122.3693,72.3037
122.3530,72.3280
122.3287,72.3443
122.3000,72.3500
120.9000,72.3500
120.8713,72.3443
120.8470,72.3280
120.8307,72.3037
120.8250,72.2750
Z" /> 
<path style="fill:#000000; fill-opacity:1.0000; 
stroke:#000000; stroke-width:0.0000; stroke-opacity:1; 
stroke-linecap:round; stroke-linejoin:round;fill-rule:evenodd;"
d="M 120.8250,71.6250
120.8307,71.5963
120.8470,71.5720
120.8713,71.5557
120.9000,71.5500
122.3000,71.5500
122.3287,71.5557
122.3530,71.5720
122.3693,71.5963
122.3750,71.6250
122.3750,71.7750
122.3693,71.8037
122.3530,71.8280
122.3287,71.8443
122.3000,71.8500
120.9000,71.8500
120.8713,71.8443
120.8470,71.8280
120.8307,71.8037
120.8250,71.7750
Z" /> 
<path style="fill:#000000; fill-opacity:1.0000; 
stroke:#000000; stroke-width:0.0000; stroke-opacity:1; 
stroke-linecap:round; stroke-linejoin:round;fill-rule:evenodd;"
d="M 119.5250,69.0750
119.5307,69.0463
119.5470,69.0220
119.5713,69.0057
119.6000,69.0000
119.7500,69.0000
119.7787,69.0057
119.8030,69.0220
119.8193,69.0463
119.8250,69.0750
119.8250,70.4750
119.8193,70.5037
119.8030,70.5280
119.7787,70.5443
119.7500,70.5500
119.6000,70.5500
119.5713,70.5443
119.5470,70.5280
119.5307,70.5037
119.5250,70.4750
Z" /> 
<path style="fill:#000000; fill-opacity:1.0000; 
stroke:#000000; stroke-width:0.0000; stroke-opacity:1; 
stroke-linecap:round; stroke-linejoin:round;fill-rule:evenodd;"
d="M 119.0250,69.0750
119.0307,69.0463
119.0470,69.0220
119.0713,69.0057
119.1000,69.0000
119.2500,69.0000
119.2787,69.0057
119.3030,69.0220
119.3193,69.0463
119.3250,69.0750
119.3250,70.4750
119.3193,70.5037
119.3030,70.5280
119.2787,70.5443
119.2500,70.5500
119.1000,70.5500
119.0713,70.5443
119.0470,70.5280
119.0307,70.5037
119.0250,70.4750
Z" /> 
<path style="fill:#000000; fill-opacity:1.0000; 
stroke:#000000; stroke-width:0.0000; stroke-opacity:1; 
stroke-linecap:round; stroke-linejoin:round;fill-rule:evenodd;"
d="M 118.5250,69.0750
118.5307,69.0463
118.5470,69.0220
118.5713,69.0057
118.6000,69.0000
118.7500,69.0000
118.7787,69.0057
118.8030,69.0220
118.8193,69.0463
118.8250,69.0750
118.8250,70.4750
118.8193,70.5037
118.8030,70.5280
118.7787,70.5443
118.7500,70.5500
118.6000,70.5500
118.5713,70.5443
118.5470,70.5280
118.5307,70.5037
118.5250,70.4750
Z" /> 
<path style="fill:#000000; fill-opacity:1.0000; 
stroke:#000000; stroke-width:0.0000; stroke-opacity:1; 
stroke-linecap:round; stroke-linejoin:round;fill-rule:evenodd;"
d="M 118.0250,69.0750
118.0307,69.0463
118.0470,69.0220
118.0713,69.0057
118.1000,69.0000
118.2500,69.0000
118.2787,69.0057
118.3030,69.0220
118.3193,69.0463
118.3250,69.0750
118.3250,70.4750
118.3193,70.5037
118.3030,70.5280
118.2787,70.5443
118.2500,70.5500
118.1000,70.5500
118.0713,70.5443
118.0470,70.5280
118.0307,70.5037
118.0250,70.4750
Z" /> 
<path style="fill:#000000; fill-opacity:1.0000; 
stroke:#000000; stroke-width:0.0000; stroke-opacity:1; 
stroke-linecap:round; stroke-linejoin:round;fill-rule:evenodd;"
d="M 117.5250,69.0750
117.5307,69.0463
117.5470,69.0220
117.5713,69.0057
117.6000,69.0000
117.7500,69.0000
117.7787,69.0057
117.8030,69.0220
117.8193,69.0463
117.8250,69.0750
117.8250,70.4750
117.8193,70.5037
117.8030,70.5280
117.7787,70.5443
117.7500,70.5500
117.6000,70.5500
117.5713,70.5443
117.5470,70.5280
117.5307,70.5037
117.5250,70.4750
Z" /> 
<path style="fill:#000000; fill-opacity:1.0000; 
stroke:#000000; stroke-width:0.0000; stroke-opacity:1; 
stroke-linecap:round; stroke-linejoin:round;fill-rule:evenodd;"
d="M 117.0250,69.0750
117.0307,69.0463
117.0470,69.0220
117.0713,69.0057
117.1000,69.0000
117.2500,69.0000
117.2787,69.0057
117.3030,69.0220
117.3193,69.0463
117.3250,69.0750
117.3250,70.4750
117.3193,70.5037
117.3030,70.5280
117.2787,70.5443
117.2500,70.5500
117.1000,70.5500
117.0713,70.5443
117.0470,70.5280
117.0307,70.5037
117.0250,70.4750
Z" /> 
<path style="fill:#000000; fill-opacity:1.0000; 
stroke:#000000; stroke-width:0.0000; stroke-opacity:1; 
stroke-linecap:round; stroke-linejoin:round;fill-rule:evenodd;"
d="M 116.5250,69.0750
116.5307,69.0463
116.5470,69.0220
116.5713,69.0057
116.6000,69.0000
116.7500,69.0000
116.7787,69.0057
116.8030,69.0220
116.8193,69.0463
116.8250,69.0750
116.8250,70.4750
116.8193,70.5037
116.8030,70.5280
116.7787,70.5443
116.7500,70.5500
116.6000,70.5500
116.5713,70.5443
116.5470,70.5280
116.5307,70.5037
116.5250,70.4750
Z" /> 
<path style="fill:#000000; fill-opacity:1.0000; 
stroke:#000000; stroke-width:0.0000; stroke-opacity:1; 
stroke-linecap:round; stroke-linejoin:round;fill-rule:evenodd;"
d="M 116.0250,69.0750
116.0307,69.0463
116.0470,69.0220
116.0713,69.0057
116.1000,69.0000
116.2500,69.0000
116.2787,69.0057
116.3030,69.0220
116.3193,69.0463
116.3250,69.0750
116.3250,70.4750
116.3193,70.5037
116.3030,70.5280
116.2787,70.5443
116.2500,70.5500
116.1000,70.5500
116.0713,70.5443
116.0470,70.5280
116.0307,70.5037
116.0250,70.4750
Z" /> 
<path style="fill:#000000; fill-opacity:1.0000; 
stroke:#000000; stroke-width:0.0000; stroke-opacity:1; 
stroke-linecap:round; stroke-linejoin:round;fill-rule:evenodd;"
d="M 115.5250,69.0750
115.5307,69.0463
115.5470,69.0220
115.5713,69.0057
115.6000,69.0000
115.7500,69.0000
115.7787,69.0057
115.8030,69.0220
115.8193,69.0463
115.8250,69.0750
115.8250,70.4750
115.8193,70.5037
115.8030,70.5280
115.7787,70.5443
115.7500,70.5500
115.6000,70.5500
115.5713,70.5443
115.5470,70.5280
115.5307,70.5037
115.5250,70.4750
Z" /> 
<path style="fill:#000000; fill-opacity:1.0000; 
stroke:#000000; stroke-width:0.0000; stroke-opacity:1; 
stroke-linecap:round; stroke-linejoin:round;fill-rule:evenodd;"
d="M 115.0250,69.0750
115.0307,69.0463
115.0470,69.0220
115.0713,69.0057
115.1000,69.0000
115.2500,69.0000
115.2787,69.0057
115.3030,69.0220
115.3193,69.0463
115.3250,69.0750
115.3250,70.4750
115.3193,70.5037
115.3030,70.5280
115.2787,70.5443
115.2500,70.5500
115.1000,70.5500
115.0713,70.5443
115.0470,70.5280
115.0307,70.5037
115.0250,70.4750
Z" /> 
<path style="fill:#000000; fill-opacity:1.0000; 
stroke:#000000; stroke-width:0.0000; stroke-opacity:1; 
stroke-linecap:round; stroke-linejoin:round;fill-rule:evenodd;"
d="M 114.5250,69.0750
114.5307,69.0463
114.5470,69.0220
114.5713,69.0057
114.6000,69.0000
114.7500,69.0000
114.7787,69.0057
114.8030,69.0220
114.8193,69.0463
114.8250,69.0750
114.8250,70.4750
114.8193,70.5037
114.8030,70.5280
114.7787,70.5443
114.7500,70.5500
114.6000,70.5500
114.5713,70.5443
114.5470,70.5280
114.5307,70.5037
114.5250,70.4750
Z" /> 
<path style="fill:#000000; fill-opacity:1.0000; 
stroke:#000000; stroke-width:0.0000; stroke-opacity:1; 
stroke-linecap:round; stroke-linejoin:round;fill-rule:evenodd;"
d="M 114.0250,69.0750
114.0307,69.0463
114.0470,69.0220
114.0713,69.0057
114.1000,69.0000
114.2500,69.0000
114.2787,69.0057
114.3030,69.0220
114.3193,69.0463
114.3250,69.0750
114.3250,70.4750
114.3193,70.5037
114.3030,70.5280
114.2787,70.5443
114.2500,70.5500
114.1000,70.5500
114.0713,70.5443
114.0470,70.5280
114.0307,70.5037
114.0250,70.4750
Z" /> 
<path style="fill:#000000; fill-opacity:1.0000; 
stroke:#000000; stroke-width:0.0000; stroke-opacity:1; 
stroke-linecap:round; stroke-linejoin:round;fill-rule:evenodd;"
d="M 113.5250,69.0750
113.5307,69.0463
113.5470,69.0220
113.5713,69.0057
113.6000,69.0000
113.7500,69.0000
113.7787,69.0057
113.8030,69.0220
113.8193,69.0463
113.8250,69.0750
113.8250,70.4750
113.8193,70.5037
113.8030,70.5280
113.7787,70.5443
113.7500,70.5500
113.6000,70.5500
113.5713,70.5443
113.5470,70.5280
113.5307,70.5037
113.5250,70.4750
Z" /> 
<path style="fill:#000000; fill-opacity:1.0000; 
stroke:#000000; stroke-width:0.0000; stroke-opacity:1; 
stroke-linecap:round; stroke-linejoin:round;fill-rule:evenodd;"
d="M 113.0250,69.0750
113.0307,69.0463
113.0470,69.0220
113.0713,69.0057
113.1000,69.0000
113.2500,69.0000
113.2787,69.0057
113.3030,69.0220
113.3193,69.0463
113.3250,69.0750
113.3250,70.4750
113.3193,70.5037
113.3030,70.5280
113.2787,70.5443
113.2500,70.5500
113.1000,70.5500
113.0713,70.5443
113.0470,70.5280
113.0307,70.5037
113.0250,70.4750
Z" /> 
<path style="fill:#000000; fill-opacity:1.0000; 
stroke:#000000; stroke-width:0.0000; stroke-opacity:1; 
stroke-linecap:round; stroke-linejoin:round;fill-rule:evenodd;"
d="M 112.5250,69.0750
112.5307,69.0463
112.5470,69.0220
112.5713,69.0057
112.6000,69.0000
112.7500,69.0000
112.7787,69.0057
112.8030,69.0220
112.8193,69.0463
112.8250,69.0750
112.8250,70.4750
112.8193,70.5037
112.8030,70.5280
112.7787,70.5443
112.7500,70.5500
112.6000,70.5500
112.5713,70.5443
112.5470,70.5280
112.5307,70.5037
112.5250,70.4750
Z" /> 
<path style="fill:#000000; fill-opacity:1.0000; 
stroke:#000000; stroke-width:0.0000; stroke-opacity:1; 
stroke-linecap:round; stroke-linejoin:round;fill-rule:evenodd;"
d="M 112.0250,69.0750
112.0307,69.0463
112.0470,69.0220
112.0713,69.0057
112.1000,69.0000
112.2500,69.0000
112.2787,69.0057
112.3030,69.0220
112.3193,69.0463
112.3250,69.0750
112.3250,70.4750
112.3193,70.5037
112.3030,70.5280
112.2787,70.5443
112.2500,70.5500
112.1000,70.5500
112.0713,70.5443
112.0470,70.5280
112.0307,70.5037
112.0250,70.4750
Z" /> 
</g>
<g >
</g>
<g style="fill:#000000; fill-opacity:1.0000; 
stroke:#000000; stroke-width:0.0000; stroke-opacity:1; 
stroke-linecap:round; stroke-linejoin:round;">
<path style="fill:#000000; fill-opacity:1.0000; 
stroke:#000000; stroke-width:0.0000; stroke-opacity:1; 
stroke-linecap:round; stroke-linejoin:round;fill-rule:evenodd;"
d="M 138.2375,78.2125
138.3284,78.2306
138.4054,78.2821
138.4569,78.3591
138.4750,78.4500
138.4750,79.0250
138.4569,79.1159
138.4054,79.1929
138.3284,79.2444
138.2375,79.2625
137.7625,79.2625
137.6716,79.2444
137.5946,79.1929
137.5431,79.1159
137.5250,79.0250
137.5250,78.4500
137.5431,78.3591
137.5946,78.2821
137.6716,78.2306
137.7625,78.2125
Z" /> 
<path style="fill:#000000; fill-opacity:1.0000; 
stroke:#000000; stroke-width:0.0000; stroke-opacity:1; 
stroke-linecap:round; stroke-linejoin:round;fill-rule:evenodd;"
d="M 138.2375,79.9625
138.3284,79.9806
138.4054,80.0321
138.4569,80.1091
138.4750,80.2000
138.4750,80.7750
138.4569,80.8659
138.4054,80.9429
138.3284,80.9944
138.2375,81.0125
137.7625,81.0125
137.6716,80.9944
137.5946,80.9429
137.5431,80.8659
137.5250,80.7750
137.5250,80.2000
137.5431,80.1091
137.5946,80.0321
137.6716,79.9806
137.7625,79.9625
Z" /> 
</g>
<g >
</g>
<g style="fill:#000000; fill-opacity:1.0000; 
stroke:#000000; stroke-width:0.0000; stroke-opacity:1; 
stroke-linecap:round; stroke-linejoin:round;">
<path style="fill:#000000; fill-opacity:1.0000; 
stroke:#000000; stroke-width:0.0000; stroke-opacity:1; 
stroke-linecap:round; stroke-linejoin:round;fill-rule:evenodd;"
d="M 123.7016,77.0865
123.7925,77.1046
123.8696,77.1561
123.9211,77.2331
123.9391,77.3240
123.9391,77.9240
123.9211,78.0149
123.8696,78.0919
123.7925,78.1434
123.7016,78.1615
123.2266,78.1615
123.1357,78.1434
123.0587,78.0919
123.0072,78.0149
122.9891,77.9240
122.9891,77.3240
123.0072,77.2331
123.0587,77.1561
123.1357,77.1046
123.2266,77.0865
Z" /> 
<path style="fill:#000000; fill-opacity:1.0000; 
stroke:#000000; stroke-width:0.0000; stroke-opacity:1; 
stroke-linecap:round; stroke-linejoin:round;fill-rule:evenodd;"
d="M 123.7016,78.8115
123.7925,78.8296
123.8696,78.8811
123.9211,78.9581
123.9391,79.0490
123.9391,79.6490
123.9211,79.7399
123.8696,79.8169
123.7925,79.8684
123.7016,79.8865
123.2266,79.8865
123.1357,79.8684
123.0587,79.8169
123.0072,79.7399
122.9891,79.6490
122.9891,79.0490
123.0072,78.9581
123.0587,78.8811
123.1357,78.8296
123.2266,78.8115
Z" /> 
</g>
<g >
</g>
<g style="fill:#000000; fill-opacity:1.0000; 
stroke:#000000; stroke-width:0.0000; stroke-opacity:1; 
stroke-linecap:round; stroke-linejoin:round;">
<path style="fill:#000000; fill-opacity:1.0000; 
stroke:#000000; stroke-width:0.0000; stroke-opacity:1; 
stroke-linecap:round; stroke-linejoin:round;fill-rule:evenodd;"
d="M 106.3625,66.2625
106.2716,66.2444
106.1946,66.1929
106.1431,66.1159
106.1250,66.0250
106.1250,65.4250
106.1431,65.3341
106.1946,65.2571
106.2716,65.2056
106.3625,65.1875
106.8375,65.1875
106.9284,65.2056
107.0054,65.2571
107.0569,65.3341
107.0750,65.4250
107.0750,66.0250
107.0569,66.1159
107.0054,66.1929
106.9284,66.2444
106.8375,66.2625
Z" /> 
<path style="fill:#000000; fill-opacity:1.0000; 
stroke:#000000; stroke-width:0.0000; stroke-opacity:1; 
stroke-linecap:round; stroke-linejoin:round;fill-rule:evenodd;"
d="M 106.3625,64.5375
106.2716,64.5194
106.1946,64.4679
106.1431,64.3909
106.1250,64.3000
106.1250,63.7000
106.1431,63.6091
106.1946,63.5321
106.2716,63.4806
106.3625,63.4625
106.8375,63.4625
106.9284,63.4806
107.0054,63.5321
107.0569,63.6091
107.0750,63.7000
107.0750,64.3000
107.0569,64.3909
107.0054,64.4679
106.9284,64.5194
106.8375,64.5375
Z" /> 
</g>
<g >
</g>
<g style="fill:#000000; fill-opacity:1.0000; 
stroke:#000000; stroke-width:0.0000; stroke-opacity:1; 
stroke-linecap:round; stroke-linejoin:round;">
<path style="fill:#000000; fill-opacity:1.0000; 
stroke:#000000; stroke-width:0.0000; stroke-opacity:1; 
stroke-linecap:round; stroke-linejoin:round;fill-rule:evenodd;"
d="M 117.0971,68.3895
117.0062,68.3714
116.9292,68.3199
116.8777,68.2429
116.8596,68.1520
116.8596,67.5520
116.8777,67.4611
116.9292,67.3840
117.0062,67.3326
117.0971,67.3145
117.5721,67.3145
117.6630,67.3326
117.7401,67.3840
117.7915,67.4611
117.8096,67.5520
117.8096,68.1520
117.7915,68.2429
117.7401,68.3199
117.6630,68.3714
117.5721,68.3895
Z" /> 
<path style="fill:#000000; fill-opacity:1.0000; 
stroke:#000000; stroke-width:0.0000; stroke-opacity:1; 
stroke-linecap:round; stroke-linejoin:round;fill-rule:evenodd;"
d="M 117.0971,66.6645
117.0062,66.6464
116.9292,66.5949
116.8777,66.5179
116.8596,66.4270
116.8596,65.8270
116.8777,65.7361
116.9292,65.6590
117.0062,65.6076
117.0971,65.5895
117.5721,65.5895
117.6630,65.6076
117.7401,65.6590
117.7915,65.7361
117.8096,65.8270
117.8096,66.4270
117.7915,66.5179
117.7401,66.5949
117.6630,66.6464
117.5721,66.6645
Z" /> 
</g>
<g >
</g>
<g style="fill:#000000; fill-opacity:1.0000; 
stroke:#000000; stroke-width:0.0000; stroke-opacity:1; 
stroke-linecap:round; stroke-linejoin:round;">
<path style="fill:#000000; fill-opacity:1.0000; 
stroke:#000000; stroke-width:0.0000; stroke-opacity:1; 
stroke-linecap:round; stroke-linejoin:round;fill-rule:evenodd;"
d="M 102.6212,77.5625
102.6393,77.4716
102.6907,77.3946
102.7678,77.3431
102.8587,77.3250
103.4587,77.3250
103.5496,77.3431
103.6266,77.3946
103.6781,77.4716
103.6962,77.5625
103.6962,78.0375
103.6781,78.1284
103.6266,78.2054
103.5496,78.2569
103.4587,78.2750
102.8587,78.2750
102.7678,78.2569
102.6907,78.2054
102.6393,78.1284
102.6212,78.0375
Z" /> 
<path style="fill:#000000; fill-opacity:1.0000; 
stroke:#000000; stroke-width:0.0000; stroke-opacity:1; 
stroke-linecap:round; stroke-linejoin:round;fill-rule:evenodd;"
d="M 104.3462,77.5625
104.3643,77.4716
104.4157,77.3946
104.4928,77.3431
104.5837,77.3250
105.1837,77.3250
105.2746,77.3431
105.3516,77.3946
105.4031,77.4716
105.4212,77.5625
105.4212,78.0375
105.4031,78.1284
105.3516,78.2054
105.2746,78.2569
105.1837,78.2750
104.5837,78.2750
104.4928,78.2569
104.4157,78.2054
104.3643,78.1284
104.3462,78.0375
Z" /> 
</g>
<g >
</g>
<g style="fill:#000000; fill-opacity:1.0000; 
stroke:#000000; stroke-width:0.0000; stroke-opacity:1; 
stroke-linecap:round; stroke-linejoin:round;">
<path style="fill:#000000; fill-opacity:1.0000; 
stroke:#000000; stroke-width:0.0000; stroke-opacity:1; 
stroke-linecap:round; stroke-linejoin:round;fill-rule:evenodd;"
d="M 103.3212,76.2176
102.9212,76.2176
102.9212,75.5676
103.3212,75.5676
Z" /> 
<path style="fill:#000000; fill-opacity:1.0000; 
stroke:#000000; stroke-width:0.0000; stroke-opacity:1; 
stroke-linecap:round; stroke-linejoin:round;fill-rule:evenodd;"
d="M 103.9712,76.2176
103.5712,76.2176
103.5712,75.5676
103.9712,75.5676
Z" /> 
<path style="fill:#000000; fill-opacity:1.0000; 
stroke:#000000; stroke-width:0.0000; stroke-opacity:1; 
stroke-linecap:round; stroke-linejoin:round;fill-rule:evenodd;"
d="M 104.6212,76.2176
104.2212,76.2176
104.2212,75.5676
104.6212,75.5676
Z" /> 
<path style="fill:#000000; fill-opacity:1.0000; 
stroke:#000000; stroke-width:0.0000; stroke-opacity:1; 
stroke-linecap:round; stroke-linejoin:round;fill-rule:evenodd;"
d="M 104.6212,74.3176
104.2212,74.3176
104.2212,73.6676
104.6212,73.6676
Z" /> 
<path style="fill:#000000; fill-opacity:1.0000; 
stroke:#000000; stroke-width:0.0000; stroke-opacity:1; 
stroke-linecap:round; stroke-linejoin:round;fill-rule:evenodd;"
d="M 103.9712,74.3176
103.5712,74.3176
103.5712,73.6676
103.9712,73.6676
Z" /> 
<path style="fill:#000000; fill-opacity:1.0000; 
stroke:#000000; stroke-width:0.0000; stroke-opacity:1; 
stroke-linecap:round; stroke-linejoin:round;fill-rule:evenodd;"
d="M 103.3212,74.3176
102.9212,74.3176
102.9212,73.6676
103.3212,73.6676
Z" /> 
</g>
<g >
</g>
<g style="fill:#000000; fill-opacity:1.0000; 
stroke:#000000; stroke-width:0.0000; stroke-opacity:1; 
stroke-linecap:round; stroke-linejoin:round;">
<path style="fill:#000000; fill-opacity:1.0000; 
stroke:#000000; stroke-width:0.0000; stroke-opacity:1; 
stroke-linecap:round; stroke-linejoin:round;fill-rule:evenodd;"
d="M 106.8440,67.3468
106.9349,67.3649
107.0119,67.4164
107.0634,67.4934
107.0815,67.5843
107.0815,68.1843
107.0634,68.2752
107.0119,68.3523
106.9349,68.4037
106.8440,68.4218
106.3690,68.4218
106.2781,68.4037
106.2010,68.3523
106.1496,68.2752
106.1315,68.1843
106.1315,67.5843
106.1496,67.4934
106.2010,67.4164
106.2781,67.3649
106.3690,67.3468
Z" /> 
<path style="fill:#000000; fill-opacity:1.0000; 
stroke:#000000; stroke-width:0.0000; stroke-opacity:1; 
stroke-linecap:round; stroke-linejoin:round;fill-rule:evenodd;"
d="M 106.8440,69.0718
106.9349,69.0899
107.0119,69.1414
107.0634,69.2184
107.0815,69.3093
107.0815,69.9093
107.0634,70.0002
107.0119,70.0773
106.9349,70.1287
106.8440,70.1468
106.3690,70.1468
106.2781,70.1287
106.2010,70.0773
106.1496,70.0002
106.1315,69.9093
106.1315,69.3093
106.1496,69.2184
106.2010,69.1414
106.2781,69.0899
106.3690,69.0718
Z" /> 
</g>
<g >
</g>
<g style="fill:#000000; fill-opacity:1.0000; 
stroke:#000000; stroke-width:0.0000; stroke-opacity:1; 
stroke-linecap:round; stroke-linejoin:round;">
<path style="fill:#000000; fill-opacity:1.0000; 
stroke:#000000; stroke-width:0.0000; stroke-opacity:1; 
stroke-linecap:round; stroke-linejoin:round;fill-rule:evenodd;"
d="M 101.7000,73.8089
101.7383,73.8165
101.7707,73.8382
101.7924,73.8706
101.8000,73.9089
101.8000,74.1089
101.7924,74.1472
101.7707,74.1796
101.7383,74.2013
101.7000,74.2089
100.5500,74.2089
100.5117,74.2013
100.4793,74.1796
100.4576,74.1472
100.4500,74.1089
100.4500,73.9089
100.4576,73.8706
100.4793,73.8382
100.5117,73.8165
100.5500,73.8089
Z" /> 
<path style="fill:#000000; fill-opacity:1.0000; 
stroke:#000000; stroke-width:0.0000; stroke-opacity:1; 
stroke-linecap:round; stroke-linejoin:round;fill-rule:evenodd;"
d="M 101.7000,74.4589
101.7383,74.4665
101.7707,74.4882
101.7924,74.5206
101.8000,74.5589
101.8000,74.7589
101.7924,74.7972
101.7707,74.8296
101.7383,74.8513
101.7000,74.8589
100.5500,74.8589
100.5117,74.8513
100.4793,74.8296
100.4576,74.7972
100.4500,74.7589
100.4500,74.5589
100.4576,74.5206
100.4793,74.4882
100.5117,74.4665
100.5500,74.4589
Z" /> 
<path style="fill:#000000; fill-opacity:1.0000; 
stroke:#000000; stroke-width:0.0000; stroke-opacity:1; 
stroke-linecap:round; stroke-linejoin:round;fill-rule:evenodd;"
d="M 101.7000,75.1089
101.7383,75.1165
101.7707,75.1382
101.7924,75.1706
101.8000,75.2089
101.8000,75.4089
101.7924,75.4472
101.7707,75.4796
101.7383,75.5013
101.7000,75.5089
100.5500,75.5089
100.5117,75.5013
100.4793,75.4796
100.4576,75.4472
100.4500,75.4089
100.4500,75.2089
100.4576,75.1706
100.4793,75.1382
100.5117,75.1165
100.5500,75.1089
Z" /> 
<path style="fill:#000000; fill-opacity:1.0000; 
stroke:#000000; stroke-width:0.0000; stroke-opacity:1; 
stroke-linecap:round; stroke-linejoin:round;fill-rule:evenodd;"
d="M 101.7000,75.7589
101.7383,75.7665
101.7707,75.7882
101.7924,75.8206
101.8000,75.8589
101.8000,76.0589
101.7924,76.0972
101.7707,76.1296
101.7383,76.1513
101.7000,76.1589
100.5500,76.1589
100.5117,76.1513
100.4793,76.1296
100.4576,76.0972
100.4500,76.0589
100.4500,75.8589
100.4576,75.8206
100.4793,75.7882
100.5117,75.7665
100.5500,75.7589
Z" /> 
<path style="fill:#000000; fill-opacity:1.0000; 
stroke:#000000; stroke-width:0.0000; stroke-opacity:1; 
stroke-linecap:round; stroke-linejoin:round;fill-rule:evenodd;"
d="M 101.7000,76.4089
101.7383,76.4165
101.7707,76.4382
101.7924,76.4706
101.8000,76.5089
101.8000,76.7089
101.7924,76.7472
101.7707,76.7796
101.7383,76.8013
101.7000,76.8089
100.5500,76.8089
100.5117,76.8013
100.4793,76.7796
100.4576,76.7472
100.4500,76.7089
100.4500,76.5089
100.4576,76.4706
100.4793,76.4382
100.5117,76.4165
100.5500,76.4089
Z" /> 
<path style="fill:#000000; fill-opacity:1.0000; 
stroke:#000000; stroke-width:0.0000; stroke-opacity:1; 
stroke-linecap:round; stroke-linejoin:round;fill-rule:evenodd;"
d="M 101.3500,71.3089
101.4457,71.3279
101.5268,71.3821
101.5810,71.4632
101.6000,71.5589
101.6000,72.6589
101.5810,72.7546
101.5268,72.8357
101.4457,72.8899
101.3500,72.9089
100.4500,72.9089
100.3543,72.8899
100.2732,72.8357
100.2190,72.7546
100.2000,72.6589
100.2000,71.5589
100.2190,71.4632
100.2732,71.3821
100.3543,71.3279
100.4500,71.3089
Z" /> 
<path style="fill:#000000; fill-opacity:1.0000; 
stroke:#000000; stroke-width:0.0000; stroke-opacity:1; 
stroke-linecap:round; stroke-linejoin:round;fill-rule:evenodd;"
d="M 101.3500,77.7089
101.4457,77.7279
101.5268,77.7821
101.5810,77.8632
101.6000,77.9589
101.6000,79.0589
101.5810,79.1546
101.5268,79.2357
101.4457,79.2899
101.3500,79.3089
100.4500,79.3089
100.3543,79.2899
100.2732,79.2357
100.2190,79.1546
100.2000,79.0589
100.2000,77.9589
100.2190,77.8632
100.2732,77.7821
100.3543,77.7279
100.4500,77.7089
Z" /> 
<path style="fill:#000000; fill-opacity:1.0000; 
stroke:#000000; stroke-width:0.0000; stroke-opacity:1; 
stroke-linecap:round; stroke-linejoin:round;fill-rule:evenodd;"
d="M 99.1500,73.1589
99.2457,73.1779
99.3268,73.2321
99.3810,73.3132
99.4000,73.4089
99.4000,74.8089
99.3810,74.9046
99.3268,74.9857
99.2457,75.0399
99.1500,75.0589
97.7500,75.0589
97.6543,75.0399
97.5732,74.9857
97.5190,74.9046
97.5000,74.8089
97.5000,73.4089
97.5190,73.3132
97.5732,73.2321
97.6543,73.1779
97.7500,73.1589
Z" /> 
<path style="fill:#000000; fill-opacity:1.0000; 
stroke:#000000; stroke-width:0.0000; stroke-opacity:1; 
stroke-linecap:round; stroke-linejoin:round;fill-rule:evenodd;"
d="M 99.1500,75.5589
99.2457,75.5779
99.3268,75.6321
99.3810,75.7132
99.4000,75.8089
99.4000,77.2089
99.3810,77.3046
99.3268,77.3857
99.2457,77.4399
99.1500,77.4589
97.7500,77.4589
97.6543,77.4399
97.5732,77.3857
97.5190,77.3046
97.5000,77.2089
97.5000,75.8089
97.5190,75.7132
97.5732,75.6321
97.6543,75.5779
97.7500,75.5589
Z" /> 
</g>
<g style="fill:#000000; fill-opacity:1.0000; 
stroke:#000000; stroke-width:0.9000; stroke-opacity:1; 
stroke-linecap:round; stroke-linejoin:round;">
</g>
<g style="fill:#000000; fill-opacity:0.0; 
stroke:#000000; stroke-width:0.9000; stroke-opacity:1; 
stroke-linecap:round; stroke-linejoin:round;">
<path d="M98.1000 72.0089
L98.8000 72.0089
" />
<path d="M98.1000 78.6089
L98.8000 78.6089
" />
</g>
<g >
</g>
<g style="fill:#000000; fill-opacity:0.0; 
stroke:#000000; stroke-width:0.9000; stroke-opacity:1; 
stroke-linecap:round; stroke-linejoin:round;">
</g>
<g style="fill:#000000; fill-opacity:0.0; 
stroke:#000000; stroke-width:0.0000; stroke-opacity:1; 
stroke-linecap:round; stroke-linejoin:round;">
</g>
<g style="fill:#000000; fill-opacity:1.0000; 
stroke:#000000; stroke-width:0.0000; stroke-opacity:1; 
stroke-linecap:round; stroke-linejoin:round;">
<path style="fill:#000000; fill-opacity:1.0000; 
stroke:#000000; stroke-width:0.0000; stroke-opacity:1; 
stroke-linecap:round; stroke-linejoin:round;fill-rule:evenodd;"
d="M 97.8625,93.2000
97.7716,93.1819
97.6946,93.1304
97.6431,93.0534
97.6250,92.9625
97.6250,92.4625
97.6431,92.3716
97.6946,92.2946
97.7716,92.2431
97.8625,92.2250
98.3375,92.2250
98.4284,92.2431
98.5054,92.2946
98.5569,92.3716
98.5750,92.4625
98.5750,92.9625
98.5569,93.0534
98.5054,93.1304
98.4284,93.1819
98.3375,93.2000
Z" /> 
<path style="fill:#000000; fill-opacity:1.0000; 
stroke:#000000; stroke-width:0.0000; stroke-opacity:1; 
stroke-linecap:round; stroke-linejoin:round;fill-rule:evenodd;"
d="M 97.8625,91.3750
97.7716,91.3569
97.6946,91.3054
97.6431,91.2284
97.6250,91.1375
97.6250,90.6375
97.6431,90.5466
97.6946,90.4696
97.7716,90.4181
97.8625,90.4000
98.3375,90.4000
98.4284,90.4181
98.5054,90.4696
98.5569,90.5466
98.5750,90.6375
98.5750,91.1375
98.5569,91.2284
98.5054,91.3054
98.4284,91.3569
98.3375,91.3750
Z" /> 
</g>
<g >
</g>
<g >
</g>
<g >
</g>
<g >
</g>
<g >
</g>
</g> 
</svg>
