G04 #@! TF.GenerationSoftware,KiCad,Pcbnew,7.0.8*
G04 #@! TF.CreationDate,2024-04-19T19:41:21-04:00*
G04 #@! TF.ProjectId,programmer,70726f67-7261-46d6-9d65-722e6b696361,rev?*
G04 #@! TF.SameCoordinates,Original*
G04 #@! TF.FileFunction,Paste,Top*
G04 #@! TF.FilePolarity,Positive*
%FSLAX46Y46*%
G04 Gerber Fmt 4.6, Leading zero omitted, Abs format (unit mm)*
G04 Created by KiCad (PCBNEW 7.0.8) date 2024-04-19 19:41:21*
%MOMM*%
%LPD*%
G01*
G04 APERTURE LIST*
G04 Aperture macros list*
%AMRoundRect*
0 Rectangle with rounded corners*
0 $1 Rounding radius*
0 $2 $3 $4 $5 $6 $7 $8 $9 X,Y pos of 4 corners*
0 Add a 4 corners polygon primitive as box body*
4,1,4,$2,$3,$4,$5,$6,$7,$8,$9,$2,$3,0*
0 Add four circle primitives for the rounded corners*
1,1,$1+$1,$2,$3*
1,1,$1+$1,$4,$5*
1,1,$1+$1,$6,$7*
1,1,$1+$1,$8,$9*
0 Add four rect primitives between the rounded corners*
20,1,$1+$1,$2,$3,$4,$5,0*
20,1,$1+$1,$4,$5,$6,$7,0*
20,1,$1+$1,$6,$7,$8,$9,0*
20,1,$1+$1,$8,$9,$2,$3,0*%
G04 Aperture macros list end*
%ADD10RoundRect,0.237500X-0.250000X-0.237500X0.250000X-0.237500X0.250000X0.237500X-0.250000X0.237500X0*%
%ADD11RoundRect,0.237500X-0.300000X-0.237500X0.300000X-0.237500X0.300000X0.237500X-0.300000X0.237500X0*%
%ADD12RoundRect,0.237500X-0.237500X0.250000X-0.237500X-0.250000X0.237500X-0.250000X0.237500X0.250000X0*%
%ADD13RoundRect,0.237500X0.287500X0.237500X-0.287500X0.237500X-0.287500X-0.237500X0.287500X-0.237500X0*%
%ADD14R,2.000000X1.500000*%
%ADD15R,2.000000X3.800000*%
%ADD16RoundRect,0.237500X0.237500X-0.287500X0.237500X0.287500X-0.237500X0.287500X-0.237500X-0.287500X0*%
%ADD17RoundRect,0.237500X0.300000X0.237500X-0.300000X0.237500X-0.300000X-0.237500X0.300000X-0.237500X0*%
%ADD18RoundRect,0.150000X-0.825000X-0.150000X0.825000X-0.150000X0.825000X0.150000X-0.825000X0.150000X0*%
%ADD19R,1.200000X2.000000*%
%ADD20RoundRect,0.237500X0.237500X-0.250000X0.237500X0.250000X-0.237500X0.250000X-0.237500X-0.250000X0*%
%ADD21RoundRect,0.237500X0.250000X0.237500X-0.250000X0.237500X-0.250000X-0.237500X0.250000X-0.237500X0*%
%ADD22RoundRect,0.237500X0.237500X-0.300000X0.237500X0.300000X-0.237500X0.300000X-0.237500X-0.300000X0*%
%ADD23R,1.950000X1.650000*%
%ADD24RoundRect,0.075000X-0.700000X-0.075000X0.700000X-0.075000X0.700000X0.075000X-0.700000X0.075000X0*%
%ADD25RoundRect,0.075000X-0.075000X-0.700000X0.075000X-0.700000X0.075000X0.700000X-0.075000X0.700000X0*%
%ADD26RoundRect,0.237500X-0.237500X0.287500X-0.237500X-0.287500X0.237500X-0.287500X0.237500X0.287500X0*%
%ADD27RoundRect,0.237500X-0.237500X0.300000X-0.237500X-0.300000X0.237500X-0.300000X0.237500X0.300000X0*%
%ADD28R,0.400000X0.650000*%
%ADD29RoundRect,0.100000X-0.575000X0.100000X-0.575000X-0.100000X0.575000X-0.100000X0.575000X0.100000X0*%
%ADD30RoundRect,0.250000X-0.450000X0.550000X-0.450000X-0.550000X0.450000X-0.550000X0.450000X0.550000X0*%
%ADD31RoundRect,0.250000X-0.700000X0.700000X-0.700000X-0.700000X0.700000X-0.700000X0.700000X0.700000X0*%
%ADD32O,1.600000X0.900000*%
G04 APERTURE END LIST*
D10*
X106487500Y-73956442D03*
X108312500Y-73956442D03*
D11*
X103096183Y-72492595D03*
X104821183Y-72492595D03*
D12*
X136400000Y-78700000D03*
X136400000Y-80525000D03*
D13*
X99868514Y-82330000D03*
X98118514Y-82330000D03*
D14*
X104618135Y-69099840D03*
X104618135Y-66799840D03*
X104618135Y-64499840D03*
D15*
X98318135Y-66799840D03*
D10*
X106478919Y-79322778D03*
X108303919Y-79322778D03*
D13*
X108270350Y-72400000D03*
X106520350Y-72400000D03*
D11*
X121000000Y-69400000D03*
X122725000Y-69400000D03*
D16*
X138000000Y-77087500D03*
X138000000Y-75337500D03*
D13*
X108279730Y-76190619D03*
X106529730Y-76190619D03*
D11*
X126475000Y-68800000D03*
X128200000Y-68800000D03*
D17*
X113600000Y-83000000D03*
X111875000Y-83000000D03*
D10*
X126462500Y-64000000D03*
X128287500Y-64000000D03*
D18*
X119325000Y-64032500D03*
X119325000Y-65302500D03*
X119325000Y-66572500D03*
X119325000Y-67842500D03*
X124275000Y-67842500D03*
X124275000Y-66572500D03*
X124275000Y-65302500D03*
X124275000Y-64032500D03*
D19*
X128300000Y-85628958D03*
X130800000Y-85628958D03*
X133300000Y-85628958D03*
X128300000Y-91428958D03*
X130800000Y-91428958D03*
X133300000Y-91428958D03*
D20*
X136400000Y-77125000D03*
X136400000Y-75300000D03*
D10*
X136175000Y-84612500D03*
X138000000Y-84612500D03*
D21*
X138000000Y-87812500D03*
X136175000Y-87812500D03*
D20*
X115860061Y-67902961D03*
X115860061Y-66077961D03*
D22*
X123483656Y-74599805D03*
X123483656Y-72874805D03*
D10*
X101468514Y-82330000D03*
X103293514Y-82330000D03*
X126462500Y-65600000D03*
X128287500Y-65600000D03*
D22*
X113587129Y-66922561D03*
X113587129Y-65197561D03*
D11*
X119437500Y-83000000D03*
X121162500Y-83000000D03*
D23*
X111600000Y-64700000D03*
X108850000Y-64700000D03*
X108850000Y-66900000D03*
X111600000Y-66900000D03*
D17*
X108262500Y-77800000D03*
X106537500Y-77800000D03*
D11*
X108387500Y-68800000D03*
X110112500Y-68800000D03*
D10*
X126462500Y-67200000D03*
X128287500Y-67200000D03*
D13*
X137950000Y-86212500D03*
X136200000Y-86212500D03*
D24*
X110250000Y-71700000D03*
X110250000Y-72200000D03*
X110250000Y-72700000D03*
X110250000Y-73200000D03*
X110250000Y-73700000D03*
X110250000Y-74200000D03*
X110250000Y-74700000D03*
X110250000Y-75200000D03*
X110250000Y-75700000D03*
X110250000Y-76200000D03*
X110250000Y-76700000D03*
X110250000Y-77200000D03*
X110250000Y-77700000D03*
X110250000Y-78200000D03*
X110250000Y-78700000D03*
X110250000Y-79200000D03*
D25*
X112175000Y-81125000D03*
X112675000Y-81125000D03*
X113175000Y-81125000D03*
X113675000Y-81125000D03*
X114175000Y-81125000D03*
X114675000Y-81125000D03*
X115175000Y-81125000D03*
X115675000Y-81125000D03*
X116175000Y-81125000D03*
X116675000Y-81125000D03*
X117175000Y-81125000D03*
X117675000Y-81125000D03*
X118175000Y-81125000D03*
X118675000Y-81125000D03*
X119175000Y-81125000D03*
X119675000Y-81125000D03*
D24*
X121600000Y-79200000D03*
X121600000Y-78700000D03*
X121600000Y-78200000D03*
X121600000Y-77700000D03*
X121600000Y-77200000D03*
X121600000Y-76700000D03*
X121600000Y-76200000D03*
X121600000Y-75700000D03*
X121600000Y-75200000D03*
X121600000Y-74700000D03*
X121600000Y-74200000D03*
X121600000Y-73700000D03*
X121600000Y-73200000D03*
X121600000Y-72700000D03*
X121600000Y-72200000D03*
X121600000Y-71700000D03*
D25*
X119675000Y-69775000D03*
X119175000Y-69775000D03*
X118675000Y-69775000D03*
X118175000Y-69775000D03*
X117675000Y-69775000D03*
X117175000Y-69775000D03*
X116675000Y-69775000D03*
X116175000Y-69775000D03*
X115675000Y-69775000D03*
X115175000Y-69775000D03*
X114675000Y-69775000D03*
X114175000Y-69775000D03*
X113675000Y-69775000D03*
X113175000Y-69775000D03*
X112675000Y-69775000D03*
X112175000Y-69775000D03*
D26*
X138000000Y-78737500D03*
X138000000Y-80487500D03*
D27*
X123464137Y-77624011D03*
X123464137Y-79349011D03*
D22*
X106600000Y-65725000D03*
X106600000Y-64000000D03*
X117334625Y-67851973D03*
X117334625Y-66126973D03*
D11*
X103158683Y-77800000D03*
X104883683Y-77800000D03*
D28*
X103121183Y-75892595D03*
X103771183Y-75892595D03*
X104421183Y-75892595D03*
X104421183Y-73992595D03*
X103771183Y-73992595D03*
X103121183Y-73992595D03*
D27*
X106606486Y-67884316D03*
X106606486Y-69609316D03*
D29*
X101125000Y-74008885D03*
X101125000Y-74658885D03*
X101125000Y-75308885D03*
X101125000Y-75958885D03*
X101125000Y-76608885D03*
D30*
X100900000Y-72108885D03*
X100900000Y-78508885D03*
D31*
X98450000Y-74108885D03*
X98450000Y-76508885D03*
D32*
X98450000Y-72008885D03*
X98450000Y-78608885D03*
D20*
X98100000Y-92712500D03*
X98100000Y-90887500D03*
M02*
