<?xml version="1.0" encoding="utf-8"?>
<!-- Generator: Adobe Illustrator 26.5.0, SVG Export Plug-In . SVG Version: 6.00 Build 0)  -->
<svg version="1.1" id="Layer_1" xmlns="http://www.w3.org/2000/svg" xmlns:xlink="http://www.w3.org/1999/xlink" x="0px" y="0px"
	 viewBox="0 0 288 288" style="enable-background:new 0 0 288 288;" xml:space="preserve">
<style type="text/css">
	.st0{fill:#0000FF;stroke:#0000FF;stroke-width:0.1875;stroke-miterlimit:11.3386;}
	.st1{fill:none;stroke:#000000;stroke-width:0.1875;stroke-miterlimit:11.3386;}
	.st2{fill:none;stroke:#0000FF;stroke-width:7.200000e-02;stroke-miterlimit:11.3386;}
</style>
<path class="st0" d="M105.5,122.1l0-0.2l0.1-0.1l0.1-0.1l0.2,0h1.4l0.2,0l0.1,0.1l0.1,0.1l0,0.2v1.3l0,0.2l-0.1,0.1l-0.1,0.1l-0.2,0
	H106l-0.2,0l-0.1-0.1l-0.1-0.1l0-0.2V122.1z"/>
<path class="st0" d="M110.7,122.1l0-0.2l0.1-0.1l0.1-0.1l0.2,0h1.4l0.2,0l0.1,0.1l0.1,0.1l0,0.2v1.3l0,0.2l-0.1,0.1l-0.1,0.1l-0.2,0
	h-1.4l-0.2,0l-0.1-0.1l-0.1-0.1l0-0.2V122.1z"/>
<path class="st0" d="M95.8,118l0-0.2l0.1-0.1l0.1-0.1l0.2,0h1.7l0.2,0l0.1,0.1l0.1,0.1l0,0.2v1.3l0,0.2l-0.1,0.1l-0.1,0.1l-0.2,0
	h-1.7l-0.2,0l-0.1-0.1l-0.1-0.1l0-0.2V118z"/>
<path class="st0" d="M100.7,118l0-0.2l0.1-0.1l0.1-0.1l0.2,0h1.7l0.2,0l0.1,0.1l0.1,0.1l0,0.2v1.3l0,0.2l-0.1,0.1l-0.1,0.1l-0.2,0
	h-1.7l-0.2,0l-0.1-0.1l-0.1-0.1l0-0.2V118z"/>
<path class="st0" d="M192.1,135l0.2,0l0.1,0.1l0.1,0.1l0,0.2v1.4l0,0.2l-0.1,0.1l-0.1,0.1l-0.2,0h-1.3l-0.2,0l-0.1-0.1l-0.1-0.1
	l0-0.2v-1.4l0-0.2l0.1-0.1l0.1-0.1l0.2,0H192.1z"/>
<path class="st0" d="M192.1,140.2l0.2,0l0.1,0.1l0.1,0.1l0,0.2v1.4l0,0.2l-0.1,0.1l-0.1,0.1l-0.2,0h-1.3l-0.2,0l-0.1-0.1l-0.1-0.1
	l0-0.2v-1.4l0-0.2l0.1-0.1l0.1-0.1l0.2,0H192.1z"/>
<path class="st0" d="M89.2,147.1l0,0.2l-0.1,0.1l-0.1,0.1l-0.2,0h-1.6l-0.2,0l-0.1-0.1l-0.1-0.1l0-0.2v-1.3l0-0.2l0.1-0.1l0.1-0.1
	l0.2,0h1.6l0.2,0l0.1,0.1l0.1,0.1l0,0.2V147.1z"/>
<path class="st0" d="M84.2,147.1l0,0.2l-0.1,0.1l-0.1,0.1l-0.2,0h-1.6l-0.2,0l-0.1-0.1l-0.1-0.1l0-0.2v-1.3l0-0.2l0.1-0.1l0.1-0.1
	l0.2,0h1.6l0.2,0l0.1,0.1l0.1,0.1l0,0.2V147.1z"/>
<path class="st0" d="M104,107.1v3.8h-5.2v-3.8H104z"/>
<path class="st0" d="M104,100.6v3.8h-5.2v-3.8H104z"/>
<path class="st0" d="M104,94v3.8h-5.2V94H104z"/>
<path class="st0" d="M86.2,97.3v10.3h-5.2V97.3H86.2z"/>
<path class="st0" d="M105.5,137.3l0-0.2l0.1-0.1l0.1-0.1l0.2,0h1.4l0.2,0l0.1,0.1l0.1,0.1l0,0.2v1.3l0,0.2l-0.1,0.1l-0.1,0.1l-0.2,0
	H106l-0.2,0l-0.1-0.1l-0.1-0.1l0-0.2V137.3z"/>
<path class="st0" d="M110.7,137.3l0-0.2l0.1-0.1l0.1-0.1l0.2,0h1.4l0.2,0l0.1,0.1l0.1,0.1l0,0.2v1.3l0,0.2l-0.1,0.1l-0.1,0.1l-0.2,0
	h-1.4l-0.2,0l-0.1-0.1l-0.1-0.1l0-0.2V137.3z"/>
<path class="st0" d="M113,119l0,0.2l-0.1,0.1l-0.1,0.1l-0.2,0h-1.6l-0.2,0l-0.1-0.1l-0.1-0.1l0-0.2v-1.3l0-0.2l0.1-0.1l0.1-0.1
	l0.2,0h1.6l0.2,0l0.1,0.1l0.1,0.1l0,0.2V119z"/>
<path class="st0" d="M108.1,119l0,0.2l-0.1,0.1l-0.1,0.1l-0.2,0H106l-0.2,0l-0.1-0.1l-0.1-0.1l0-0.2v-1.3l0-0.2l0.1-0.1l0.1-0.1
	l0.2,0h1.6l0.2,0l0.1,0.1l0.1,0.1l0,0.2V119z"/>
<path class="st0" d="M146.5,109.2l0-0.2l0.1-0.1l0.1-0.1l0.2,0h1.7l0.2,0l0.1,0.1l0.1,0.1l0,0.2v1.3l0,0.2l-0.1,0.1l-0.1,0.1l-0.2,0
	H147l-0.2,0l-0.1-0.1l-0.1-0.1l0-0.2V109.2z"/>
<path class="st0" d="M151.4,109.2l0-0.2l0.1-0.1l0.1-0.1l0.2,0h1.7l0.2,0l0.1,0.1l0.1,0.1l0,0.2v1.3l0,0.2l-0.1,0.1l-0.1,0.1l-0.2,0
	h-1.7l-0.2,0l-0.1-0.1l-0.1-0.1l0-0.2V109.2z"/>
<path class="st0" d="M195.4,132.9l-0.2,0l-0.1-0.1l-0.1-0.1l0-0.2v-1.6l0-0.2l0.1-0.1l0.1-0.1l0.2,0h1.3l0.2,0l0.1,0.1l0.1,0.1
	l0,0.2v1.6l0,0.2l-0.1,0.1l-0.1,0.1l-0.2,0H195.4z"/>
<path class="st0" d="M195.4,127.9l-0.2,0l-0.1-0.1l-0.1-0.1l0-0.2v-1.6l0-0.2l0.1-0.1l0.1-0.1l0.2,0h1.3l0.2,0l0.1,0.1l0.1,0.1
	l0,0.2v1.6l0,0.2l-0.1,0.1l-0.1,0.1l-0.2,0H195.4z"/>
<path class="st0" d="M113,129.7l0,0.2l-0.1,0.1l-0.1,0.1l-0.2,0H111l-0.2,0l-0.1-0.1l-0.1-0.1l0-0.2v-1.3l0-0.2l0.1-0.1l0.1-0.1
	l0.2,0h1.6l0.2,0l0.1,0.1l0.1,0.1l0,0.2V129.7z"/>
<path class="st0" d="M108.1,129.7l0,0.2l-0.1,0.1l-0.1,0.1l-0.2,0H106l-0.2,0l-0.1-0.1l-0.1-0.1l0-0.2v-1.3l0-0.2l0.1-0.1l0.1-0.1
	l0.2,0h1.6l0.2,0l0.1,0.1l0.1,0.1l0,0.2V129.7z"/>
<path class="st0" d="M162,107.5l0-0.2l0.1-0.1l0.1-0.1l0.2,0h1.7l0.2,0l0.1,0.1l0.1,0.1l0,0.2v1.3l0,0.2l-0.1,0.1l-0.1,0.1l-0.2,0
	h-1.7l-0.2,0l-0.1-0.1l-0.1-0.1l0-0.2V107.5z"/>
<path class="st0" d="M166.9,107.5l0-0.2l0.1-0.1l0.1-0.1l0.2,0h1.7l0.2,0l0.1,0.1l0.1,0.1l0,0.2v1.3l0,0.2l-0.1,0.1l-0.1,0.1l-0.2,0
	h-1.7l-0.2,0l-0.1-0.1L167,109l0-0.2V107.5z"/>
<path class="st0" d="M128.2,149l0,0.2l-0.1,0.1l-0.1,0.1l-0.2,0H126l-0.2,0l-0.1-0.1l-0.1-0.1l0-0.2v-1.3l0-0.2l0.1-0.1l0.1-0.1
	l0.2,0h1.7l0.2,0l0.1,0.1l0.1,0.1l0,0.2V149z"/>
<path class="st0" d="M123.3,149l0,0.2l-0.1,0.1l-0.1,0.1l-0.2,0h-1.7l-0.2,0l-0.1-0.1l-0.1-0.1l0-0.2v-1.3l0-0.2l0.1-0.1l0.1-0.1
	l0.2,0h1.7l0.2,0l0.1,0.1l0.1,0.1l0,0.2V149z"/>
<path class="st0" d="M162.1,93.9l0-0.2l0.1-0.1l0.1-0.1l0.2,0h1.4l0.2,0l0.1,0.1l0.1,0.1l0,0.2v1.3l0,0.2l-0.1,0.1l-0.1,0.1l-0.2,0
	h-1.4l-0.2,0l-0.1-0.1l-0.1-0.1l0-0.2V93.9z"/>
<path class="st0" d="M167.3,93.9l0-0.2l0.1-0.1l0.1-0.1l0.2,0h1.4l0.2,0l0.1,0.1l0.1,0.1l0,0.2v1.3l0,0.2l-0.1,0.1l-0.1,0.1l-0.2,0
	h-1.4l-0.2,0l-0.1-0.1l-0.1-0.1l0-0.2V93.9z"/>
<path class="st0" d="M140.5,94.2l0-0.1l0-0.1l0.1,0l0.1,0h4.6l0.1,0l0.1,0l0,0.1l0,0.1V95l0,0.1l0,0.1l-0.1,0l-0.1,0h-4.6l-0.1,0
	l-0.1,0l0-0.1l0-0.1V94.2z"/>
<path class="st0" d="M140.5,97.8l0-0.1l0-0.1l0.1,0l0.1,0h4.6l0.1,0l0.1,0l0,0.1l0,0.1v0.8l0,0.1l0,0.1l-0.1,0l-0.1,0h-4.6l-0.1,0
	l-0.1,0l0-0.1l0-0.1V97.8z"/>
<path class="st0" d="M140.5,101.4l0-0.1l0-0.1l0.1,0l0.1,0h4.6l0.1,0l0.1,0l0,0.1l0,0.1v0.8l0,0.1l0,0.1l-0.1,0l-0.1,0h-4.6l-0.1,0
	l-0.1,0l0-0.1l0-0.1V101.4z"/>
<path class="st0" d="M140.5,105l0-0.1l0-0.1l0.1,0l0.1,0h4.6l0.1,0l0.1,0l0,0.1l0,0.1v0.8l0,0.1l0,0.1l-0.1,0l-0.1,0h-4.6l-0.1,0
	l-0.1,0l0-0.1l0-0.1V105z"/>
<path class="st0" d="M154.6,105l0-0.1l0-0.1l0.1,0l0.1,0h4.6l0.1,0l0.1,0l0,0.1l0,0.1v0.8l0,0.1l0,0.1l-0.1,0l-0.1,0h-4.6l-0.1,0
	l-0.1,0l0-0.1l0-0.1V105z"/>
<path class="st0" d="M154.6,101.4l0-0.1l0-0.1l0.1,0l0.1,0h4.6l0.1,0l0.1,0l0,0.1l0,0.1v0.8l0,0.1l0,0.1l-0.1,0l-0.1,0h-4.6l-0.1,0
	l-0.1,0l0-0.1l0-0.1V101.4z"/>
<path class="st0" d="M154.6,97.8l0-0.1l0-0.1l0.1,0l0.1,0h4.6l0.1,0l0.1,0l0,0.1l0,0.1v0.8l0,0.1l0,0.1l-0.1,0l-0.1,0h-4.6l-0.1,0
	l-0.1,0l0-0.1l0-0.1V97.8z"/>
<path class="st0" d="M154.6,94.2l0-0.1l0-0.1l0.1,0l0.1,0h4.6l0.1,0l0.1,0l0,0.1l0,0.1V95l0,0.1l0,0.1l-0.1,0l-0.1,0h-4.6l-0.1,0
	l-0.1,0l0-0.1l0-0.1V94.2z"/>
<path class="st0" d="M167,153.2h3v5.2h-3V153.2z"/>
<path class="st0" d="M174.1,153.2h3v5.2h-3V153.2z"/>
<path class="st0" d="M181.2,153.2h3v5.2h-3V153.2z"/>
<path class="st0" d="M167,169.7h3v5.2h-3V169.7z"/>
<path class="st0" d="M174.1,169.7h3v5.2h-3V169.7z"/>
<path class="st0" d="M181.2,169.7h3v5.2h-3V169.7z"/>
<path class="st0" d="M190.8,132.9l-0.2,0l-0.1-0.1l-0.1-0.1l0-0.2v-1.4l0-0.2l0.1-0.1l0.1-0.1l0.2,0h1.3l0.2,0l0.1,0.1l0.1,0.1
	l0,0.2v1.4l0,0.2l-0.1,0.1l-0.1,0.1l-0.2,0H190.8z"/>
<path class="st0" d="M190.8,127.7l-0.2,0l-0.1-0.1l-0.1-0.1l0-0.2v-1.4l0-0.2l0.1-0.1l0.1-0.1l0.2,0h1.3l0.2,0l0.1,0.1l0.1,0.1
	l0,0.2v1.4l0,0.2l-0.1,0.1l-0.1,0.1l-0.2,0H190.8z"/>
<path class="st0" d="M189.7,152.3l0-0.2l0.1-0.1l0.1-0.1l0.2,0h1.4l0.2,0l0.1,0.1l0.1,0.1l0,0.2v1.3l0,0.2l-0.1,0.1l-0.1,0.1l-0.2,0
	h-1.4l-0.2,0l-0.1-0.1l-0.1-0.1l0-0.2V152.3z"/>
<path class="st0" d="M194.8,152.3l0-0.2l0.1-0.1l0.1-0.1l0.2,0h1.4l0.2,0l0.1,0.1l0.1,0.1l0,0.2v1.3l0,0.2L197,154l-0.1,0.1l-0.2,0
	h-1.4l-0.2,0L195,154l-0.1-0.1l0-0.2V152.3z"/>
<path class="st0" d="M197.2,162.7l0,0.2L197,163l-0.1,0.1l-0.2,0h-1.4l-0.2,0L195,163l-0.1-0.1l0-0.2v-1.3l0-0.2l0.1-0.1l0.1-0.1
	l0.2,0h1.4l0.2,0l0.1,0.1l0.1,0.1l0,0.2V162.7z"/>
<path class="st0" d="M192,162.7l0,0.2l-0.1,0.1l-0.1,0.1l-0.2,0h-1.4l-0.2,0l-0.1-0.1l-0.1-0.1l0-0.2v-1.3l0-0.2l0.1-0.1l0.1-0.1
	l0.2,0h1.4l0.2,0l0.1,0.1l0.1,0.1l0,0.2V162.7z"/>
<path class="st0" d="M132.6,106.8l-0.2,0l-0.1-0.1l-0.1-0.1l0-0.2v-1.4l0-0.2l0.1-0.1l0.1-0.1l0.2,0h1.3l0.2,0l0.1,0.1l0.1,0.1
	l0,0.2v1.4l0,0.2l-0.1,0.1l-0.1,0.1l-0.2,0H132.6z"/>
<path class="st0" d="M132.6,101.6l-0.2,0l-0.1-0.1l-0.1-0.1l0-0.2v-1.4l0-0.2l0.1-0.1l0.1-0.1l0.2,0h1.3l0.2,0l0.1,0.1l0.1,0.1
	l0,0.2v1.4l0,0.2l-0.1,0.1l-0.1,0.1l-0.2,0H132.6z"/>
<path class="st0" d="M154.2,125.9l-0.2,0l-0.1-0.1l-0.1-0.1l0-0.2v-1.7l0-0.2l0.1-0.1l0.1-0.1l0.2,0h1.3l0.2,0l0.1,0.1l0.1,0.1
	l0,0.2v1.7l0,0.2l-0.1,0.1l-0.1,0.1l-0.2,0H154.2z"/>
<path class="st0" d="M154.2,121l-0.2,0l-0.1-0.1l-0.1-0.1l0-0.2v-1.7l0-0.2l0.1-0.1l0.1-0.1l0.2,0h1.3l0.2,0l0.1,0.1l0.1,0.1l0,0.2
	v1.7l0,0.2l-0.1,0.1l-0.1,0.1l-0.2,0H154.2z"/>
<path class="st0" d="M91.3,145.8l0-0.2l0.1-0.1l0.1-0.1l0.2,0h1.4l0.2,0l0.1,0.1l0.1,0.1l0,0.2v1.3l0,0.2l-0.1,0.1l-0.1,0.1l-0.2,0
	h-1.4l-0.2,0l-0.1-0.1l-0.1-0.1l0-0.2V145.8z"/>
<path class="st0" d="M96.5,145.8l0-0.2l0.1-0.1l0.1-0.1l0.2,0h1.4l0.2,0l0.1,0.1l0.1,0.1l0,0.2v1.3l0,0.2l-0.1,0.1l-0.1,0.1l-0.2,0
	h-1.4l-0.2,0l-0.1-0.1l-0.1-0.1l0-0.2V145.8z"/>
<path class="st0" d="M162.1,98.4l0-0.2l0.1-0.1l0.1-0.1l0.2,0h1.4l0.2,0l0.1,0.1l0.1,0.1l0,0.2v1.3l0,0.2l-0.1,0.1l-0.1,0.1l-0.2,0
	h-1.4l-0.2,0l-0.1-0.1l-0.1-0.1l0-0.2V98.4z"/>
<path class="st0" d="M167.3,98.4l0-0.2l0.1-0.1l0.1-0.1l0.2,0h1.4l0.2,0l0.1,0.1l0.1,0.1l0,0.2v1.3l0,0.2l-0.1,0.1l-0.1,0.1l-0.2,0
	h-1.4l-0.2,0l-0.1-0.1l-0.1-0.1l0-0.2V98.4z"/>
<path class="st0" d="M126.2,104.1l-0.2,0l-0.1-0.1l-0.1-0.1l0-0.2V102l0-0.2l0.1-0.1l0.1-0.1l0.2,0h1.3l0.2,0l0.1,0.1l0.1,0.1l0,0.2
	v1.7l0,0.2l-0.1,0.1l-0.1,0.1l-0.2,0H126.2z"/>
<path class="st0" d="M126.2,99.2l-0.2,0l-0.1-0.1l-0.1-0.1l0-0.2v-1.7l0-0.2l0.1-0.1l0.1-0.1l0.2,0h1.3l0.2,0l0.1,0.1l0.1,0.1l0,0.2
	v1.7l0,0.2l-0.1,0.1l-0.1,0.1l-0.2,0H126.2z"/>
<path class="st0" d="M142.1,147.7l0-0.2l0.1-0.1l0.1-0.1l0.2,0h1.7l0.2,0l0.1,0.1l0.1,0.1l0,0.2v1.3l0,0.2l-0.1,0.1l-0.1,0.1l-0.2,0
	h-1.7l-0.2,0l-0.1-0.1l-0.1-0.1l0-0.2V147.7z"/>
<path class="st0" d="M147,147.7l0-0.2l0.1-0.1l0.1-0.1l0.2,0h1.7l0.2,0l0.1,0.1l0.1,0.1l0,0.2v1.3l0,0.2l-0.1,0.1l-0.1,0.1l-0.2,0
	h-1.7l-0.2,0l-0.1-0.1l-0.1-0.1l0-0.2V147.7z"/>
<path class="st0" d="M123.7,94.4v4.3h-5.1v-4.3H123.7z"/>
<path class="st0" d="M115.9,94.4v4.3h-5.1v-4.3H115.9z"/>
<path class="st0" d="M115.9,100.6v4.3h-5.1v-4.3H115.9z"/>
<path class="st0" d="M123.7,100.6v4.3h-5.1v-4.3H123.7z"/>
<path class="st0" d="M113,134.3l0,0.2l-0.1,0.1l-0.1,0.1l-0.2,0h-1.7l-0.2,0l-0.1-0.1l-0.1-0.1l0-0.2V133l0-0.2l0.1-0.1l0.1-0.1
	l0.2,0h1.7l0.2,0l0.1,0.1l0.1,0.1l0,0.2V134.3z"/>
<path class="st0" d="M108.1,134.3l0,0.2l-0.1,0.1l-0.1,0.1l-0.2,0H106l-0.2,0l-0.1-0.1l-0.1-0.1l0-0.2V133l0-0.2l0.1-0.1l0.1-0.1
	l0.2,0h1.7l0.2,0l0.1,0.1l0.1,0.1l0,0.2V134.3z"/>
<path class="st0" d="M110.8,107.5l0-0.2l0.1-0.1l0.1-0.1l0.2,0h1.7l0.2,0l0.1,0.1l0.1,0.1l0,0.2v1.3l0,0.2l-0.1,0.1l-0.1,0.1l-0.2,0
	h-1.7l-0.2,0l-0.1-0.1l-0.1-0.1l0-0.2V107.5z"/>
<path class="st0" d="M115.7,107.5l0-0.2l0.1-0.1l0.1-0.1l0.2,0h1.7l0.2,0l0.1,0.1l0.1,0.1l0,0.2v1.3l0,0.2l-0.1,0.1l-0.1,0.1l-0.2,0
	h-1.7l-0.2,0l-0.1-0.1l-0.1-0.1l0-0.2V107.5z"/>
<path class="st0" d="M162.1,103l0-0.2l0.1-0.1l0.1-0.1l0.2,0h1.4l0.2,0l0.1,0.1l0.1,0.1l0,0.2v1.3l0,0.2l-0.1,0.1l-0.1,0.1l-0.2,0
	h-1.4l-0.2,0l-0.1-0.1l-0.1-0.1l0-0.2V103z"/>
<path class="st0" d="M167.3,103l0-0.2l0.1-0.1l0.1-0.1l0.2,0h1.4l0.2,0l0.1,0.1l0.1,0.1l0,0.2v1.3l0,0.2l-0.1,0.1l-0.1,0.1l-0.2,0
	h-1.4l-0.2,0l-0.1-0.1l-0.1-0.1l0-0.2V103z"/>
<path class="st0" d="M197.1,158.2l0,0.2l-0.1,0.1l-0.1,0.1l-0.2,0h-1.6l-0.2,0l-0.1-0.1l-0.1-0.1l0-0.2v-1.3l0-0.2l0.1-0.1l0.1-0.1
	l0.2,0h1.6l0.2,0l0.1,0.1l0.1,0.1l0,0.2V158.2z"/>
<path class="st0" d="M192.2,158.2l0,0.2l-0.1,0.1l-0.1,0.1l-0.2,0h-1.6l-0.2,0l-0.1-0.1l-0.1-0.1l0-0.2v-1.3l0-0.2l0.1-0.1l0.1-0.1
	l0.2,0h1.6l0.2,0l0.1,0.1l0.1,0.1l0,0.2V158.2z"/>
<path class="st0" d="M115.4,116.2L115.4,116.2l4,0l0,0l0,0.4l0,0l-3.9,0l0,0L115.4,116.2z"/>
<path class="st0" d="M115.4,117.6L115.4,117.6l4,0l0,0l0,0.4l0,0l-3.9,0l0,0L115.4,117.6z"/>
<path class="st0" d="M115.4,119L115.4,119l4,0l0,0l0,0.4l0,0l-3.9,0l0,0L115.4,119z"/>
<path class="st0" d="M115.4,120.4L115.4,120.4l4,0l0,0l0,0.4l0,0l-3.9,0l0,0L115.4,120.4z"/>
<path class="st0" d="M115.4,121.8L115.4,121.8l4,0l0,0l0,0.4l0,0l-3.9,0l0,0L115.4,121.8z"/>
<path class="st0" d="M115.4,123.2L115.4,123.2l4,0l0,0l0,0.4l0,0l-3.9,0l0,0L115.4,123.2z"/>
<path class="st0" d="M115.4,124.7L115.4,124.7l4,0l0,0l0,0.4l0,0l-3.9,0l0,0L115.4,124.7z"/>
<path class="st0" d="M115.4,126.1L115.4,126.1l4,0l0,0l0,0.4l0,0l-3.9,0l0,0L115.4,126.1z"/>
<path class="st0" d="M115.4,127.5L115.4,127.5l4,0l0,0l0,0.4l0,0l-3.9,0l0,0L115.4,127.5z"/>
<path class="st0" d="M115.4,128.9L115.4,128.9l4,0l0,0l0,0.4l0,0l-3.9,0l0,0L115.4,128.9z"/>
<path class="st0" d="M115.4,130.3L115.4,130.3l4,0l0,0l0,0.4l0,0l-3.9,0l0,0L115.4,130.3z"/>
<path class="st0" d="M115.4,131.7L115.4,131.7l4,0l0,0l0,0.4l0,0l-3.9,0l0,0L115.4,131.7z"/>
<path class="st0" d="M115.4,133.2L115.4,133.2l4,0l0,0l0,0.4l0,0l-3.9,0l0,0L115.4,133.2z"/>
<path class="st0" d="M115.4,134.6L115.4,134.6l4,0l0,0l0,0.4l0,0l-3.9,0l0,0L115.4,134.6z"/>
<path class="st0" d="M115.4,136L115.4,136l4,0l0,0l0,0.4l0,0l-3.9,0l0,0L115.4,136z"/>
<path class="st0" d="M115.4,137.4L115.4,137.4l4,0l0,0l0,0.4l0,0l-3.9,0l0,0L115.4,137.4z"/>
<path class="st0" d="M122.6,141.1L122.6,141.1l0.4,0l0,0l0,3.9l0,0l-0.4,0l0,0L122.6,141.1z"/>
<path class="st0" d="M124,141.1L124,141.1l0.4,0l0,0l0,3.9l0,0l-0.4,0l0,0L124,141.1z"/>
<path class="st0" d="M125.4,141.1L125.4,141.1l0.4,0l0,0l0,3.9l0,0l-0.4,0l0,0L125.4,141.1z"/>
<path class="st0" d="M126.9,141.1L126.9,141.1l0.4,0l0,0l0,3.9l0,0l-0.4,0l0,0L126.9,141.1z"/>
<path class="st0" d="M128.3,141.1L128.3,141.1l0.4,0l0,0l0,3.9l0,0l-0.4,0l0,0L128.3,141.1z"/>
<path class="st0" d="M129.7,141.1L129.7,141.1l0.4,0l0,0l0,3.9l0,0l-0.4,0l0,0L129.7,141.1z"/>
<path class="st0" d="M131.1,141.1L131.1,141.1l0.4,0l0,0l0,3.9l0,0l-0.4,0l0,0L131.1,141.1z"/>
<path class="st0" d="M132.5,141.1L132.5,141.1l0.4,0l0,0l0,3.9l0,0l-0.4,0l0,0L132.5,141.1z"/>
<path class="st0" d="M133.9,141.1L133.9,141.1l0.4,0l0,0l0,3.9l0,0l-0.4,0l0,0L133.9,141.1z"/>
<path class="st0" d="M135.4,141.1L135.4,141.1l0.4,0l0,0l0,3.9l0,0l-0.4,0l0,0L135.4,141.1z"/>
<path class="st0" d="M136.8,141.1L136.8,141.1l0.4,0l0,0l0,3.9l0,0l-0.4,0l0,0L136.8,141.1z"/>
<path class="st0" d="M138.2,141.1L138.2,141.1l0.4,0l0,0l0,3.9l0,0l-0.4,0l0,0L138.2,141.1z"/>
<path class="st0" d="M139.6,141.1L139.6,141.1l0.4,0l0,0l0,3.9l0,0l-0.4,0l0,0L139.6,141.1z"/>
<path class="st0" d="M141,141.1L141,141.1l0.4,0l0,0l0,3.9l0,0l-0.4,0l0,0L141,141.1z"/>
<path class="st0" d="M142.4,141.1L142.4,141.1l0.4,0l0,0l0,3.9l0,0l-0.4,0l0,0L142.4,141.1z"/>
<path class="st0" d="M143.9,141.1L143.9,141.1l0.4,0l0,0l0,3.9l0,0l-0.4,0l0,0L143.9,141.1z"/>
<path class="st0" d="M147.5,137.4L147.5,137.4l4,0l0,0l0,0.4l0,0l-3.9,0l0,0L147.5,137.4z"/>
<path class="st0" d="M147.5,136L147.5,136l4,0l0,0l0,0.4l0,0l-3.9,0l0,0L147.5,136z"/>
<path class="st0" d="M147.5,134.6L147.5,134.6l4,0l0,0l0,0.4l0,0l-3.9,0l0,0L147.5,134.6z"/>
<path class="st0" d="M147.5,133.2L147.5,133.2l4,0l0,0l0,0.4l0,0l-3.9,0l0,0L147.5,133.2z"/>
<path class="st0" d="M147.5,131.7L147.5,131.7l4,0l0,0l0,0.4l0,0l-3.9,0l0,0L147.5,131.7z"/>
<path class="st0" d="M147.5,130.3L147.5,130.3l4,0l0,0l0,0.4l0,0l-3.9,0l0,0L147.5,130.3z"/>
<path class="st0" d="M147.5,128.9L147.5,128.9l4,0l0,0l0,0.4l0,0l-3.9,0l0,0L147.5,128.9z"/>
<path class="st0" d="M147.5,127.5L147.5,127.5l4,0l0,0l0,0.4l0,0l-3.9,0l0,0L147.5,127.5z"/>
<path class="st0" d="M147.5,126.1L147.5,126.1l4,0l0,0l0,0.4l0,0l-3.9,0l0,0L147.5,126.1z"/>
<path class="st0" d="M147.5,124.7L147.5,124.7l4,0l0,0l0,0.4l0,0l-3.9,0l0,0L147.5,124.7z"/>
<path class="st0" d="M147.5,123.2L147.5,123.2l4,0l0,0l0,0.4l0,0l-3.9,0l0,0L147.5,123.2z"/>
<path class="st0" d="M147.5,121.8L147.5,121.8l4,0l0,0l0,0.4l0,0l-3.9,0l0,0L147.5,121.8z"/>
<path class="st0" d="M147.5,120.4L147.5,120.4l4,0l0,0l0,0.4l0,0l-3.9,0l0,0L147.5,120.4z"/>
<path class="st0" d="M147.5,119L147.5,119l4,0l0,0l0,0.4l0,0l-3.9,0l0,0L147.5,119z"/>
<path class="st0" d="M147.5,117.6L147.5,117.6l4,0l0,0l0,0.4l0,0l-3.9,0l0,0L147.5,117.6z"/>
<path class="st0" d="M147.5,116.2L147.5,116.2l4,0l0,0l0,0.4l0,0l-3.9,0l0,0L147.5,116.2z"/>
<path class="st0" d="M143.9,108.9L143.9,108.9l0.4,0l0,0l0,3.9l0,0l-0.4,0l0,0L143.9,108.9z"/>
<path class="st0" d="M142.4,108.9L142.4,108.9l0.4,0l0,0l0,3.9l0,0l-0.4,0l0,0L142.4,108.9z"/>
<path class="st0" d="M141,108.9L141,108.9l0.4,0l0,0l0,3.9l0,0l-0.4,0l0,0L141,108.9z"/>
<path class="st0" d="M139.6,108.9L139.6,108.9l0.4,0l0,0l0,3.9l0,0l-0.4,0l0,0L139.6,108.9z"/>
<path class="st0" d="M138.2,108.9L138.2,108.9l0.4,0l0,0l0,3.9l0,0l-0.4,0l0,0L138.2,108.9z"/>
<path class="st0" d="M136.8,108.9L136.8,108.9l0.4,0l0,0l0,3.9l0,0l-0.4,0l0,0L136.8,108.9z"/>
<path class="st0" d="M135.4,108.9L135.4,108.9l0.4,0l0,0l0,3.9l0,0l-0.4,0l0,0L135.4,108.9z"/>
<path class="st0" d="M133.9,108.9L133.9,108.9l0.4,0l0,0l0,3.9l0,0l-0.4,0l0,0L133.9,108.9z"/>
<path class="st0" d="M132.5,108.9L132.5,108.9l0.4,0l0,0l0,3.9l0,0l-0.4,0l0,0L132.5,108.9z"/>
<path class="st0" d="M131.1,108.9L131.1,108.9l0.4,0l0,0l0,3.9l0,0l-0.4,0l0,0L131.1,108.9z"/>
<path class="st0" d="M129.7,108.9L129.7,108.9l0.4,0l0,0l0,3.9l0,0l-0.4,0l0,0L129.7,108.9z"/>
<path class="st0" d="M128.3,108.9L128.3,108.9l0.4,0l0,0l0,3.9l0,0l-0.4,0l0,0L128.3,108.9z"/>
<path class="st0" d="M126.9,108.9L126.9,108.9l0.4,0l0,0l0,3.9l0,0l-0.4,0l0,0L126.9,108.9z"/>
<path class="st0" d="M125.4,108.9L125.4,108.9l0.4,0l0,0l0,3.9l0,0l-0.4,0l0,0L125.4,108.9z"/>
<path class="st0" d="M124,108.9L124,108.9l0.4,0l0,0l0,3.9l0,0l-0.4,0l0,0L124,108.9z"/>
<path class="st0" d="M122.6,108.9L122.6,108.9l0.4,0l0,0l0,3.9l0,0l-0.4,0l0,0L122.6,108.9z"/>
<path class="st0" d="M196.7,135l0.2,0l0.1,0.1l0.1,0.1l0,0.2v1.6l0,0.2l-0.1,0.1l-0.1,0.1l-0.2,0h-1.3l-0.2,0l-0.1-0.1l-0.1-0.1
	l0-0.2v-1.6l0-0.2l0.1-0.1l0.1-0.1l0.2,0H196.7z"/>
<path class="st0" d="M196.7,140l0.2,0l0.1,0.1l0.1,0.1l0,0.2v1.6l0,0.2l-0.1,0.1l-0.1,0.1l-0.2,0h-1.3l-0.2,0l-0.1-0.1l-0.1-0.1
	l0-0.2v-1.6l0-0.2l0.1-0.1l0.1-0.1l0.2,0H196.7z"/>
<path class="st0" d="M155.5,131.8l0.2,0l0.1,0.1l0.1,0.1l0,0.2v1.7l0,0.2l-0.1,0.1l-0.1,0.1l-0.2,0h-1.3l-0.2,0l-0.1-0.1l-0.1-0.1
	l0-0.2v-1.7l0-0.2l0.1-0.1l0.1-0.1l0.2,0H155.5z"/>
<path class="st0" d="M155.5,136.7l0.2,0l0.1,0.1l0.1,0.1l0,0.2v1.7l0,0.2l-0.1,0.1l-0.1,0.1l-0.2,0h-1.3l-0.2,0l-0.1-0.1l-0.1-0.1
	l0-0.2v-1.7l0-0.2l0.1-0.1l0.1-0.1l0.2,0H155.5z"/>
<path class="st0" d="M106.4,100.7l-0.2,0l-0.1-0.1l-0.1-0.1l0-0.2v-1.7l0-0.2l0.1-0.1l0.1-0.1l0.2,0h1.3l0.2,0l0.1,0.1l0.1,0.1
	l0,0.2v1.7l0,0.2l-0.1,0.1l-0.1,0.1l-0.2,0H106.4z"/>
<path class="st0" d="M106.4,95.8l-0.2,0l-0.1-0.1l-0.1-0.1l0-0.2v-1.7l0-0.2l0.1-0.1l0.1-0.1l0.2,0h1.3l0.2,0l0.1,0.1l0.1,0.1l0,0.2
	v1.7l0,0.2l-0.1,0.1l-0.1,0.1l-0.2,0H106.4z"/>
<path class="st0" d="M136.8,106.8l-0.2,0l-0.1-0.1l-0.1-0.1l0-0.2v-1.7l0-0.2l0.1-0.1l0.1-0.1l0.2,0h1.3l0.2,0l0.1,0.1l0.1,0.1
	l0,0.2v1.7l0,0.2l-0.1,0.1l-0.1,0.1l-0.2,0H136.8z"/>
<path class="st0" d="M136.8,101.9l-0.2,0l-0.1-0.1l-0.1-0.1l0-0.2v-1.7l0-0.2l0.1-0.1l0.1-0.1l0.2,0h1.3l0.2,0l0.1,0.1l0.1,0.1
	l0,0.2v1.7l0,0.2l-0.1,0.1l-0.1,0.1l-0.2,0H136.8z"/>
<path class="st0" d="M95.9,133l0-0.2l0.1-0.1l0.1-0.1l0.2,0h1.7l0.2,0l0.1,0.1l0.1,0.1l0,0.2v1.3l0,0.2l-0.1,0.1l-0.1,0.1l-0.2,0
	h-1.7l-0.2,0l-0.1-0.1l-0.1-0.1l0-0.2V133z"/>
<path class="st0" d="M100.8,133l0-0.2l0.1-0.1l0.1-0.1l0.2,0h1.7l0.2,0l0.1,0.1l0.1,0.1l0,0.2v1.3l0,0.2l-0.1,0.1l-0.1,0.1l-0.2,0
	h-1.7l-0.2,0l-0.1-0.1l-0.1-0.1l0-0.2V133z"/>
<path class="st0" d="M97.5,129h-0.7v-1.4h0.7V129z"/>
<path class="st0" d="M99.3,129h-0.7v-1.4h0.7V129z"/>
<path class="st0" d="M101.2,129h-0.7v-1.4h0.7V129z"/>
<path class="st0" d="M101.2,123.6h-0.7v-1.4h0.7V123.6z"/>
<path class="st0" d="M99.3,123.6h-0.7v-1.4h0.7V123.6z"/>
<path class="st0" d="M97.5,123.6h-0.7v-1.4h0.7V123.6z"/>
<path class="st0" d="M107.7,104.2l0.2,0l0.1,0.1l0.1,0.1l0,0.2v1.7l0,0.2l-0.1,0.1l-0.1,0.1l-0.2,0h-1.3l-0.2,0l-0.1-0.1l-0.1-0.1
	l0-0.2v-1.7l0-0.2l0.1-0.1l0.1-0.1l0.2,0H107.7z"/>
<path class="st0" d="M107.7,109.1l0.2,0l0.1,0.1l0.1,0.1l0,0.2v1.7l0,0.2l-0.1,0.1l-0.1,0.1l-0.2,0h-1.3l-0.2,0l-0.1-0.1l-0.1-0.1
	l0-0.2v-1.7l0-0.2l0.1-0.1l0.1-0.1l0.2,0H107.7z"/>
<path class="st0" d="M93.1,122.6L93.1,122.6L93.1,122.6L93.1,122.6l0.1,0.6l0,0.1l0,0l0,0h-3.2l-0.1,0l0,0l0,0v-0.5l0-0.1l0,0l0,0
	H93.1z"/>
<path class="st0" d="M93.1,124.4L93.1,124.4L93.1,124.4L93.1,124.4l0.1,0.6l0,0.1l0,0l0,0h-3.2l-0.1,0l0,0l0,0v-0.5l0-0.1l0,0l0,0
	H93.1z"/>
<path class="st0" d="M93.1,126.2L93.1,126.2L93.1,126.2L93.1,126.2l0.1,0.6l0,0.1l0,0l0,0h-3.2l-0.1,0l0,0l0,0v-0.5l0-0.1l0,0l0,0
	H93.1z"/>
<path class="st0" d="M93.1,128.1L93.1,128.1L93.1,128.1L93.1,128.1l0.1,0.6l0,0.1l0,0l0,0h-3.2l-0.1,0l0,0l0,0v-0.5l0-0.1l0,0l0,0
	H93.1z"/>
<path class="st0" d="M93.1,129.9L93.1,129.9L93.1,129.9L93.1,129.9l0.1,0.6l0,0.1l0,0l0,0h-3.2l-0.1,0l0,0l0,0V130l0-0.1l0,0l0,0
	H93.1z"/>
<path class="st0" d="M92.1,115.5l0.2,0l0.2,0.1l0.1,0.2l0,0.2v3.1l0,0.2l-0.1,0.2l-0.2,0.1l-0.2,0h-2.5l-0.2,0l-0.2-0.1l-0.1-0.2
	l0-0.2V116l0-0.2l0.1-0.2l0.2-0.1l0.2,0H92.1z"/>
<path class="st0" d="M92.1,133.6l0.2,0l0.2,0.1l0.1,0.2l0,0.2v3.1l0,0.2l-0.1,0.2l-0.2,0.1l-0.2,0h-2.5l-0.2,0l-0.2-0.1l-0.1-0.2
	l0-0.2v-3.1l0-0.2l0.1-0.2l0.2-0.1l0.2,0H92.1z"/>
<path class="st0" d="M85.9,120.7l0.2,0l0.2,0.1l0.1,0.2l0,0.2v3.9l0,0.2l-0.1,0.2l-0.2,0.1l-0.2,0h-3.9l-0.2,0l-0.2-0.1l-0.1-0.2
	l0-0.2v-3.9l0-0.2l0.1-0.2l0.2-0.1l0.2,0H85.9z"/>
<path class="st0" d="M85.9,127.5l0.2,0l0.2,0.1l0.1,0.2l0,0.2v3.9l0,0.2l-0.1,0.2l-0.2,0.1l-0.2,0h-3.9l-0.2,0l-0.2-0.1l-0.1-0.2
	l0-0.2V128l0-0.2l0.1-0.2l0.2-0.1l0.2,0H85.9z"/>
<path class="st0" d="M82.3,177.1l-0.2,0l-0.1-0.1l-0.1-0.1l0-0.2v-1.4l0-0.2l0.1-0.1l0.1-0.1l0.2,0h1.3l0.2,0l0.1,0.1L84,175l0,0.2
	v1.4l0,0.2l-0.1,0.1l-0.1,0.1l-0.2,0H82.3z"/>
<path class="st0" d="M82.3,171.9l-0.2,0l-0.1-0.1l-0.1-0.1l0-0.2v-1.4l0-0.2l0.1-0.1l0.1-0.1l0.2,0h1.3l0.2,0l0.1,0.1l0.1,0.1l0,0.2
	v1.4l0,0.2l-0.1,0.1l-0.1,0.1l-0.2,0H82.3z"/>
<path class="st1" d="M205.4,124.3H192l-0.5,0l-0.5-0.1l-0.4-0.2l-0.4-0.3l-0.3-0.3l-0.3-0.4l-0.2-0.4l-0.1-0.5l0-0.5V94.3l0-0.5
	l-0.1-0.5l-0.2-0.4l-0.3-0.4l-0.3-0.3l-0.4-0.3l-0.4-0.2l-0.5-0.1l-0.5,0H82.6l-0.5,0l-0.5,0.1l-0.4,0.2l-0.4,0.3l-0.3,0.3l-0.3,0.4
	L80,93.3l-0.1,0.5l0,0.5v99.5l0,0.5l0.1,0.5l0.2,0.4l0.3,0.4l0.3,0.3l0.4,0.3l0.4,0.2l0.5,0.1l0.5,0h60.7l0.5,0l0.5-0.1l0.4-0.2
	l0.4-0.3l0.3-0.3l0.3-0.4l0.2-0.4l0.1-0.5l0-0.5V179l0-0.5l0.1-0.5l0.2-0.4l0.3-0.4l0.3-0.3l0.4-0.3l0.4-0.2l0.5-0.1l0.5,0h36.9
	l0.5,0l0.5-0.1l0.4-0.2l0.4-0.3l0.3-0.3l0.3-0.4l0.2-0.4l0.1-0.5l0-0.5v-6.2l0-0.5l0.1-0.5l0.2-0.4l0.3-0.4l0.3-0.3l0.4-0.3l0.4-0.2
	l0.5-0.1l0.5,0h13.9l0.5,0l0.5-0.1l0.4-0.2l0.4-0.3l0.3-0.3l0.3-0.4l0.2-0.4l0.1-0.5l0-0.5v-34.3l0-0.5l-0.1-0.5l-0.2-0.4l-0.3-0.4
	l-0.3-0.3l-0.4-0.3l-0.4-0.2l-0.5-0.1L205.4,124.3z"/>
<rect x="7.8" y="19.4" class="st2" width="272.4" height="249.2"/>
</svg>
