<?xml version="1.0" encoding="utf-8"?>
<!-- Generator: Adobe Illustrator 26.5.0, SVG Export Plug-In . SVG Version: 6.00 Build 0)  -->
<svg version="1.1" id="Layer_1" xmlns="http://www.w3.org/2000/svg" xmlns:xlink="http://www.w3.org/1999/xlink" x="0px" y="0px"
	 viewBox="0 0 432 288" style="enable-background:new 0 0 432 288;" xml:space="preserve">
<style type="text/css">
	.st0{fill:none;stroke:#0000FF;stroke-width:7.200000e-02;stroke-miterlimit:11.3386;}
	.st1{fill:none;stroke:#000000;stroke-width:0.1875;stroke-miterlimit:11.3386;}
</style>
<path class="st0" d="M277.5,121.5h-13.3l-0.1,0l0-0.1V94.1l-0.1-0.9l-0.3-1l-0.4-0.9l-0.6-0.8l-0.7-0.7l-0.8-0.6l-0.9-0.4l-1-0.3
	l-0.9-0.1h-104l-0.9,0.1l-1,0.3l-0.9,0.4l-0.8,0.6l-0.7,0.7l-0.6,0.8l-0.4,0.9l-0.3,1l-0.1,0.9v99.7l0.1,0.9l0.3,1l0.4,0.9l0.6,0.8
	l0.7,0.7l0.8,0.6l0.9,0.4l1,0.3l0.9,0.1h60.9l0.9-0.1l1-0.3l0.9-0.4l0.8-0.6l0.7-0.7l0.6-0.8l0.4-0.9l0.3-1l0.1-0.9v-14.7l0-0.1
	l0.1,0h36.9l0.9-0.1l1-0.3l0.9-0.4l0.8-0.6l0.7-0.7l0.6-0.8l0.4-0.9l0.3-1l0.1-0.9v-6.2l0-0.1l0.1,0h13.9l0.9-0.1l1-0.3l0.9-0.4
	l0.8-0.6l0.7-0.7l0.6-0.8l0.4-0.9l0.3-1l0.1-0.9V127l-0.1-0.9l-0.3-1l-0.4-0.9l-0.6-0.8l-0.7-0.7l-0.8-0.6l-0.9-0.4l-1-0.3
	L277.5,121.5z"/>
<path class="st1" d="M277.4,124.3H264l-0.5,0l-0.5-0.1l-0.4-0.2l-0.4-0.3l-0.3-0.3l-0.3-0.4l-0.2-0.4l-0.1-0.5l0-0.5V94.3l0-0.5
	l-0.1-0.5l-0.2-0.4l-0.3-0.4l-0.3-0.3l-0.4-0.3l-0.4-0.2l-0.5-0.1l-0.5,0H154.6l-0.5,0l-0.5,0.1l-0.4,0.2l-0.4,0.3l-0.3,0.3
	l-0.3,0.4l-0.2,0.4l-0.1,0.5l0,0.5v99.5l0,0.5l0.1,0.5l0.2,0.4l0.3,0.4l0.3,0.3l0.4,0.3l0.4,0.2l0.5,0.1l0.5,0h60.7l0.5,0l0.5-0.1
	l0.4-0.2l0.4-0.3l0.3-0.3l0.3-0.4l0.2-0.4l0.1-0.5l0-0.5V179l0-0.5l0.1-0.5l0.2-0.4l0.3-0.4l0.3-0.3l0.4-0.3l0.4-0.2l0.5-0.1l0.5,0
	h36.9l0.5,0l0.5-0.1l0.4-0.2l0.4-0.3l0.3-0.3l0.3-0.4l0.2-0.4l0.1-0.5l0-0.5v-6.2l0-0.5l0.1-0.5l0.2-0.4l0.3-0.4l0.3-0.3l0.4-0.3
	l0.4-0.2l0.5-0.1l0.5,0h13.9l0.5,0l0.5-0.1l0.4-0.2l0.4-0.3l0.3-0.3l0.3-0.4l0.2-0.4l0.1-0.5l0-0.5v-34.3l0-0.5l-0.1-0.5l-0.2-0.4
	l-0.3-0.4l-0.3-0.3l-0.4-0.3l-0.4-0.2l-0.5-0.1L277.4,124.3z"/>
<rect x="79.8" y="19.4" class="st0" width="272.4" height="249.2"/>
</svg>
