<svg xmlns="http://www.w3.org/2000/svg" xmlns:xlink="http://www.w3.org/1999/xlink" width="15.24cm" height="10.16cm" viewBox="0 0 152.4 101.6">
<path fill="none" stroke="#0000FF" stroke-width="0.06614583333333333"
  d="M 97.89366094290854,42.849999999999994 L
  93.19366094290852,42.849999999999994
  93.15249006908532,42.84750993091467
  93.14999999999999,42.80633905709148
  93.14999999999999,33.206339057091476
  93.12337731165233,32.902040336837736
  93.03297471472389,32.56465325196463
  92.88535888391975,32.248090081228305
  92.68501505156162,31.961969436383022
  92.43803056361698,31.71498494843835
  92.15190991877166,31.51464111608024
  91.83534674803538,31.367025285276092
  91.49795966316226,31.276622688347643
  91.19366094290852,31.249999999999993
  54.50633905709148,31.249999999999993
  54.20204033683774,31.276622688347643
  53.86465325196461,31.367025285276092
  53.548090081228324,31.51464111608024
  53.261969436383026,31.71498494843835
  53.014984948438354,31.961969436383043
  52.81464111608027,32.248090081228305
  52.6670252852761,32.56465325196459
  52.576622688347655,32.902040336837736
  52.55,33.206339057091476
  52.55,68.39366094290851
  52.576622688347655,68.69795966316225
  52.6670252852761,69.0353467480354
  52.81464111608027,69.35190991877168
  53.014984948438354,69.63803056361695
  53.26196943638304,69.88501505156164
  53.54809008122831,70.08535888391972
  53.8646532519646,70.2329747147239
  54.20204033683774,70.32337731165234
  54.50633905709148,70.35
  75.99366094290852,70.35
  76.29795966316226,70.32337731165234
  76.6353467480354,70.2329747147239
  76.95190991877169,70.08535888391972
  77.23803056361696,69.88501505156164
  77.48501505156165,69.63803056361695
  77.68535888391973,69.35190991877168
  77.8329747147239,69.0353467480354
  77.92337731165235,68.69795966316225
  77.95,68.39366094290851
  77.95,63.19366094290851
  77.95249006908533,63.15249006908532
  77.99366094290852,63.14999999999999
  90.99366094290853,63.14999999999999
  91.29795966316227,63.123377311652334
  91.63534674803542,63.03297471472389
  91.95190991877168,62.88535888391972
  92.23803056361696,62.685015051561635
  92.48501505156163,62.43803056361698
  92.68535888391976,62.15190991877168
  92.8329747147239,61.83534674803536
  92.92337731165235,61.49795966316225
  92.95,61.19366094290851
  92.95,58.993660942908505
  92.95249006908533,58.952490069085314
  92.99366094290853,58.94999999999999
  97.89366094290854,58.94999999999999
  98.19795966316228,58.92337731165233
  98.53534674803542,58.83297471472389
  98.85190991877168,58.68535888391972
  99.13803056361697,58.48501505156163
  99.38501505156164,58.238030563616974
  99.58535888391977,57.951909918771676
  99.73297471472391,57.63534674803536
  99.82337731165235,57.297959663162246
  99.85000000000001,56.993660942908505
  99.85000000000001,44.80633905709148
  99.82337731165235,44.50204033683774
  99.73297471472391,44.16465325196462
  99.58535888391977,43.84809008122831
  99.38501505156164,43.56196943638301
  99.13803056361697,43.31498494843835
  98.85190991877168,43.114641116080264
  98.53534674803542,42.967025285276094
  98.19795966316228,42.87662268834765
  Z" />
<path fill="none" stroke="#000000" stroke-width="0.06614583333333333"
  d="M 97.85000000000001,43.849999999999994 L
  93.14999999999999,43.849999999999994
  92.97635182233306,43.8348077530122
  92.80797985667432,43.7896926207859
  92.64999999999999,43.71602540378443
  92.50721239031346,43.616044443118966
  92.38395555688102,43.49278760968653
  92.28397459621554,43.349999999999994
  92.21030737921409,43.192020143325664
  92.16519224698779,43.02364817766693
  92.14999999999999,42.849999999999994
  92.14999999999999,33.24999999999999
  92.1348077530122,33.07635182233306
  92.0896926207859,32.907979856674324
  92.01602540378444,32.74999999999999
  91.91604444311896,32.60721239031346
  91.79278760968653,32.483955556881014
  91.64999999999999,32.38397459621555
  91.49202014332566,32.31030737921409
  91.32364817766693,32.26519224698779
  91.14999999999999,32.24999999999999
  54.55,32.24999999999999
  54.37635182233306,32.26519224698779
  54.20797985667433,32.31030737921409
  54.05,32.38397459621555
  53.90721239031346,32.483955556881014
  53.783955556881025,32.60721239031346
  53.68397459621556,32.74999999999999
  53.61030737921409,32.907979856674324
  53.56519224698779,33.07635182233306
  53.55,33.24999999999999
  53.55,68.35
  53.56519224698779,68.52364817766693
  53.61030737921409,68.69202014332566
  53.68397459621556,68.85
  53.783955556881025,68.99278760968653
  53.90721239031346,69.11604444311897
  54.05,69.21602540378443
  54.20797985667433,69.2896926207859
  54.37635182233306,69.3348077530122
  54.55,69.35
  75.95,69.35
  76.12364817766694,69.3348077530122
  76.29202014332567,69.2896926207859
  76.45,69.21602540378443
  76.59278760968654,69.11604444311897
  76.71604444311897,68.99278760968653
  76.81602540378444,68.85
  76.88969262078591,68.69202014332566
  76.93480775301221,68.52364817766693
  76.95,68.35
  76.95,63.14999999999999
  76.9651922469878,62.97635182233306
  77.0103073792141,62.80797985667432
  77.08397459621557,62.64999999999999
  77.18395555688103,62.507212390313455
  77.30721239031347,62.38395555688102
  77.45,62.28397459621556
  77.60797985667433,62.210307379214086
  77.77635182233307,62.165192246987786
  77.95,62.14999999999999
  90.95,62.14999999999999
  91.12364817766694,62.1348077530122
  91.29202014332567,62.0896926207859
  91.45,62.016025403784425
  91.59278760968654,61.91604444311896
  91.71604444311897,61.79278760968653
  91.81602540378445,61.64999999999999
  91.88969262078591,61.49202014332566
  91.93480775301221,61.323648177666925
  91.95,61.14999999999999
  91.95,58.94999999999999
  91.9651922469878,58.776351822333055
  92.0103073792141,58.60797985667432
  92.08397459621555,58.44999999999999
  92.18395555688103,58.30721239031345
  92.30721239031347,58.18395555688102
  92.45,58.083974596215555
  92.60797985667433,58.01030737921408
  92.77635182233307,57.96519224698778
  92.95,57.94999999999999
  97.85000000000001,57.94999999999999
  98.02364817766694,57.934807753012194
  98.19202014332568,57.889692620785894
  98.35000000000001,57.81602540378442
  98.49278760968654,57.71604444311896
  98.61604444311898,57.592787609686525
  98.71602540378446,57.44999999999999
  98.78969262078591,57.29202014332566
  98.83480775301221,57.12364817766692
  98.85000000000001,56.94999999999999
  98.85000000000001,44.849999999999994
  98.83480775301221,44.67635182233306
  98.78969262078591,44.507979856674325
  98.71602540378446,44.349999999999994
  98.61604444311898,44.20721239031346
  98.49278760968654,44.08395555688102
  98.35000000000001,43.98397459621556
  98.19202014332568,43.91030737921409
  98.02364817766694,43.86519224698779
  Z" />
</svg>