<svg xmlns="http://www.w3.org/2000/svg" xmlns:xlink="http://www.w3.org/1999/xlink" width="10.16cm" height="10.16cm" viewBox="0 0 101.6 101.6">
<path fill="none" stroke="#0000FF" stroke-width="0.06614583333333333"
  d="M 37.224999999999994,43.07630240093489 L
  37.23874069610001,43.00737117409061
  37.27368656933379,42.955054148336714
  37.32588726187967,42.92014069812747
  37.394894414354084,42.90639999999999
  37.88010558564589,42.90639999999999
  37.94911273812032,42.92014069812747
  38.00131343066619,42.955054148336714
  38.03625930389998,43.00737117409061
  38.04999999999998,43.07630240093489
  38.04999999999998,43.5365055856459
  38.036254737115286,43.605535662785115
  38.00131343066619,43.65784585166328
  37.949147039152095,43.692736360273344
  37.880145658532555,43.70639999999999
  37.39485434146742,43.70639999999999
  37.3258529608479,43.692736360273344
  37.27368656933379,43.65784585166328
  37.238745262884706,43.605535662785115
  37.224999999999994,43.5365055856459
  Z" />
<path fill="none" stroke="#0000FF" stroke-width="0.06614583333333333"
  d="M 39.05,43.07630240093489 L
  39.06374069610001,43.00737117409061
  39.09868656933381,42.955054148336714
  39.15088726187966,42.92014069812747
  39.21989441435409,42.90639999999999
  39.705105585645896,42.90639999999999
  39.77411273812032,42.92014069812747
  39.826313430666175,42.955054148336714
  39.86125930389997,43.00737117409061
  39.874999999999986,43.07630240093489
  39.874999999999986,43.5365055856459
  39.861254737115274,43.605535662785115
  39.82631343066619,43.65784585166328
  39.7741470391521,43.692736360273344
  39.70514565853256,43.70639999999999
  39.219854341467425,43.70639999999999
  39.150852960847885,43.692736360273344
  39.09868656933379,43.65784585166328
  39.06374526288471,43.605535662785115
  39.05,43.5365055856459
  Z" />
<path fill="none" stroke="#0000FF" stroke-width="0.06614583333333333"
  d="M 33.783699999999996,41.61249441435409 L
  33.797447533126885,41.54345293583286
  33.832283254592056,41.49126712741226
  33.88456433721488,41.45634526288471
  33.953594414354086,41.4426
  34.53880558564589,41.4426
  34.607812738120316,41.45634069812748
  34.660032858034086,41.49126714196589
  34.694959301872515,41.54348726187966
  34.70869999999999,41.61249441435409
  34.70869999999999,42.07270558564589
  34.694959301872515,42.14171273812032
  34.660032858034086,42.19393285803409
  34.607812738120316,42.22885930187252
  34.53880558564589,42.242599999999996
  33.953594414354086,42.242599999999996
  33.88456433721488,42.2288547371153
  33.83228325459207,42.19393287258772
  33.797447533126885,42.14174706416712
  33.783699999999996,42.07270558564589
  Z" />
<path fill="none" stroke="#0000FF" stroke-width="0.06614583333333333"
  d="M 35.50869999999999,41.61249441435409 L
  35.52244753312688,41.54345293583286
  35.55728325459205,41.49126712741227
  35.60956433721488,41.45634526288471
  35.67859441435408,41.4426
  36.2638055856459,41.4426
  36.332812738120325,41.45634069812748
  36.385032858034094,41.49126714196589
  36.41995930187251,41.54348726187966
  36.43369999999999,41.61249441435409
  36.43369999999999,42.07270558564589
  36.41995930187251,42.14171273812032
  36.385032858034094,42.19393285803409
  36.332812738120325,42.22885930187252
  36.2638055856459,42.242599999999996
  35.67859441435408,42.242599999999996
  35.60956433721489,42.2288547371153
  35.55728325459205,42.19393287258772
  35.52244753312688,42.14174706416712
  35.50869999999999,42.07270558564589
  Z" />
<path fill="none" stroke="#0000FF" stroke-width="0.06614583333333333"
  d="M 67.7801055856459,47.6375 L
  67.84911273812033,47.65124069812747
  67.90133285803408,47.686167141965896
  67.93625930187251,47.738387261879666
  67.95,47.80739441435409
  67.95,48.2926055856459
  67.93625930187251,48.361612738120314
  67.90133285803408,48.4138328580341
  67.84911273812033,48.448759301872514
  67.78010558564587,48.46249999999999
  67.3198944143541,48.46249999999999
  67.25088726187964,48.448759301872514
  67.19866714196588,48.4138328580341
  67.16374069812746,48.36161273812033
  67.14999999999999,48.292605585645916
  67.14999999999999,47.80739441435408
  67.16374069812746,47.73838726187965
  67.19866714196588,47.686167141965896
  67.25088726187964,47.65124069812747
  67.31989441435407,47.6375
  Z" />
<path fill="none" stroke="#0000FF" stroke-width="0.06614583333333333"
  d="M 67.78010558564587,49.46249999999999 L
  67.8491127381203,49.47624069812747
  67.90133285803408,49.5111671419659
  67.93625930187251,49.56338726187967
  67.95,49.632394414354096
  67.95,50.117605585645904
  67.93625930187251,50.18661273812032
  67.90133285803408,50.23883285803409
  67.8491127381203,50.273759301872516
  67.78010558564587,50.287499999999994
  67.3198944143541,50.287499999999994
  67.25088726187967,50.273759301872516
  67.19866714196588,50.23883285803409
  67.16374069812746,50.18661273812033
  67.14999999999999,50.11760558564592
  67.14999999999999,49.63239441435408
  67.16374069812746,49.563387261879654
  67.19866714196588,49.5111671419659
  67.25088726187967,49.47624069812747
  67.3198944143541,49.46249999999999
  Z" />
<path fill="none" stroke="#0000FF" stroke-width="0.06614583333333333"
  d="M 31.46849999999999,51.910105585645894 L
  31.454752466873103,51.97914706416712
  31.41991674540793,52.031332872587726
  31.36763566278509,52.0662547371153
  31.298605585645902,52.08
  30.73839441435409,52.08
  30.669387261879663,52.06625930187252
  30.617167141965894,52.03133285803409
  30.582240698127464,51.97911273812032
  30.5685,51.910105585645894
  30.5685,51.44989441435409
  30.582240698127464,51.380887261879664
  30.617167141965894,51.328667141965894
  30.669387261879663,51.293740698127465
  30.73839441435409,51.28
  31.298605585645902,51.28
  31.367635662785105,51.2937452628847
  31.41991674540793,51.32866712741226
  31.454752466873103,51.38085293583286
  31.46849999999999,51.44989441435409
  Z" />
<path fill="none" stroke="#0000FF" stroke-width="0.06614583333333333"
  d="M 29.71849999999999,51.910105585645894 L
  29.704752466873103,51.97914706416712
  29.66991674540793,52.031332872587726
  29.61763566278509,52.0662547371153
  29.548605585645902,52.08
  28.98839441435409,52.08
  28.919387261879663,52.06625930187252
  28.867167141965894,52.03133285803409
  28.832240698127464,51.97911273812032
  28.8185,51.910105585645894
  28.8185,51.44989441435409
  28.832240698127464,51.380887261879664
  28.867167141965894,51.328667141965894
  28.919387261879663,51.293740698127465
  28.98839441435409,51.28
  29.548605585645902,51.28
  29.617635662785105,51.2937452628847
  29.66991674540793,51.32866712741226
  29.704752466873103,51.38085293583286
  29.71849999999999,51.44989441435409
  Z" />
<path fill="none" stroke="#0000FF" stroke-width="0.06614583333333333"
  d="M 36.69309999999999,37.7748 L
  36.69309999999999,39.12479999999999
  34.84309999999999,39.12479999999999
  34.84309999999999,37.7748
  Z" />
<path fill="none" stroke="#0000FF" stroke-width="0.06614583333333333"
  d="M 36.69309999999999,35.4748 L
  36.69309999999999,36.824799999999996
  34.84309999999999,36.824799999999996
  34.84309999999999,35.4748
  Z" />
<path fill="none" stroke="#0000FF" stroke-width="0.06614583333333333"
  d="M 36.69309999999999,33.1748 L
  36.69309999999999,34.524799999999985
  34.84309999999999,34.524799999999985
  34.84309999999999,33.1748
  Z" />
<path fill="none" stroke="#0000FF" stroke-width="0.06614583333333333"
  d="M 30.39309999999999,34.324799999999996 L
  30.39309999999999,37.97479999999999
  28.543099999999995,37.97479999999999
  28.543099999999995,34.324799999999996
  Z" />
<path fill="none" stroke="#0000FF" stroke-width="0.06614583333333333"
  d="M 37.21639999999999,48.442694414354094 L
  37.230145262884704,48.37366433721489
  37.265067127412266,48.32138325459205
  37.317252935832855,48.28654753312688
  37.38629441435408,48.272800000000004
  37.87150558564589,48.272800000000004
  37.940569967678044,48.28655209367196
  37.99281673086803,48.32138326913196
  38.02764790632803,48.37363003232194
  38.04139999999998,48.442694414354094
  38.04139999999998,48.9029055856459
  38.02765246687311,48.97194706416714
  37.992816745407936,49.02413287258773
  37.94053566278511,49.05905473711529
  37.87150558564589,49.07279999999999
  37.38629441435408,49.07279999999999
  37.31728726187967,49.05905930187252
  37.2650671419659,49.02413285803409
  37.23014069812747,48.971912738120324
  37.21639999999999,48.9029055856459
  Z" />
<path fill="none" stroke="#0000FF" stroke-width="0.06614583333333333"
  d="M 39.041399999999996,48.442694414354094 L
  39.05514526288471,48.373664337214876
  39.09006712741227,48.32138325459205
  39.14225293583284,48.28654753312688
  39.211294414354086,48.272800000000004
  39.696505585645895,48.272800000000004
  39.76556996767805,48.28655209367196
  39.81781673086803,48.32138326913196
  39.85264790632803,48.37363003232194
  39.866399999999985,48.442694414354094
  39.866399999999985,48.9029055856459
  39.85265246687311,48.97194706416714
  39.81781674540794,49.02413287258773
  39.76553566278511,49.05905473711529
  39.696505585645895,49.07279999999999
  39.211294414354086,49.07279999999999
  39.14228726187966,49.05905930187252
  39.09006714196589,49.02413285803409
  39.055140698127474,48.971912738120324
  39.041399999999996,48.9029055856459
  Z" />
<path fill="none" stroke="#0000FF" stroke-width="0.06614583333333333"
  d="M 39.870299999999986,41.980145658532564 L
  39.85663636027334,42.04914703915209
  39.82174585166328,42.101313430666195
  39.76942882590939,42.136259303899976
  39.7004975990651,42.14999999999999
  39.14020240093488,42.14999999999999
  39.0712711740906,42.136259303899976
  39.018954148336704,42.101313430666195
  38.98406363972664,42.04914703915209
  38.9704,41.980145658532564
  38.9704,41.51985434146742
  38.98406363972663,41.4508529608479
  39.018954148336704,41.398686569333805
  39.0712711740906,41.36374069610001
  39.14020240093488,41.349999999999994
  39.7004975990651,41.349999999999994
  39.76942882590939,41.36374069610001
  39.82174585166328,41.398686569333805
  39.856636360273356,41.4508529608479
  39.870299999999986,41.51985434146742
  Z" />
<path fill="none" stroke="#0000FF" stroke-width="0.06614583333333333"
  d="M 38.120299999999986,41.980145658532564 L
  38.10663636027334,42.04914703915209
  38.07174585166328,42.101313430666195
  38.01942882590939,42.136259303899976
  37.9504975990651,42.14999999999999
  37.39020240093488,42.14999999999999
  37.3212711740906,42.136259303899976
  37.268954148336704,42.101313430666195
  37.23406363972664,42.04914703915209
  37.2204,41.980145658532564
  37.2204,41.51985434146742
  37.23406363972663,41.4508529608479
  37.268954148336704,41.398686569333805
  37.3212711740906,41.36374069610001
  37.39020240093488,41.349999999999994
  37.9504975990651,41.349999999999994
  38.01942882590939,41.36374069610001
  38.07174585166328,41.398686569333805
  38.106636360273356,41.4508529608479
  38.120299999999986,41.51985434146742
  Z" />
<path fill="none" stroke="#0000FF" stroke-width="0.06614583333333333"
  d="M 51.6875,38.519894414354084 L
  51.701240698127464,38.45088726187967
  51.73616714196589,38.3986671419659
  51.78838726187966,38.36374069812747
  51.85739441435409,38.349999999999994
  52.44260558564589,38.349999999999994
  52.51161273812032,38.36374069812747
  52.56383285803409,38.3986671419659
  52.59875930187252,38.45088726187967
  52.61249999999998,38.519894414354084
  52.61249999999998,38.9801055856459
  52.59875930187252,39.049112738120314
  52.56383285803409,39.1013328580341
  52.51161273812032,39.136259301872514
  52.44260558564589,39.14999999999999
  51.85739441435409,39.14999999999999
  51.78838726187966,39.136259301872514
  51.73616714196589,39.1013328580341
  51.701240698127464,39.049112738120314
  51.6875,38.9801055856459
  Z" />
<path fill="none" stroke="#0000FF" stroke-width="0.06614583333333333"
  d="M 53.412499999999994,38.519894414354084 L
  53.42624069812747,38.45088726187967
  53.46116714196589,38.3986671419659
  53.51338726187967,38.36374069812747
  53.582394414354084,38.349999999999994
  54.1676055856459,38.349999999999994
  54.236612738120314,38.36374069812746
  54.288832858034084,38.3986671419659
  54.32375930187253,38.45088726187967
  54.33749999999999,38.519894414354084
  54.33749999999999,38.9801055856459
  54.323759301872514,39.049112738120314
  54.288832858034084,39.1013328580341
  54.236612738120314,39.136259301872514
  54.1676055856459,39.14999999999999
  53.582394414354084,39.14999999999999
  53.51338726187967,39.136259301872514
  53.46116714196589,39.1013328580341
  53.42624069812747,39.049112738120314
  53.412499999999994,38.9801055856459
  Z" />
<path fill="none" stroke="#0000FF" stroke-width="0.06614583333333333"
  d="M 68.91989441435409,46.88749999999999 L
  68.85088726187966,46.873759301872525
  68.79866714196591,46.838832858034095
  68.76374069812748,46.786612738120326
  68.74999999999999,46.7176055856459
  68.74999999999999,46.15739441435409
  68.76374069812748,46.088387261879674
  68.79866714196591,46.03616714196589
  68.85088726187966,46.00124069812746
  68.91989441435409,45.9875
  69.3801055856459,45.9875
  69.44911273812032,46.00124069812746
  69.50133285803408,46.03616714196589
  69.5362593018725,46.088387261879674
  69.55,46.15739441435409
  69.55,46.7176055856459
  69.5362593018725,46.786612738120326
  69.50133285803408,46.838832858034095
  69.44911273812032,46.873759301872525
  69.3801055856459,46.88749999999999
  Z" />
<path fill="none" stroke="#0000FF" stroke-width="0.06614583333333333"
  d="M 68.91989441435409,45.13749999999999 L
  68.85088726187966,45.123759301872525
  68.79866714196591,45.088832858034095
  68.76374069812748,45.036612738120326
  68.74999999999999,44.9676055856459
  68.74999999999999,44.40739441435409
  68.76374069812748,44.338387261879674
  68.79866714196591,44.28616714196589
  68.85088726187966,44.25124069812746
  68.91989441435409,44.2375
  69.3801055856459,44.2375
  69.44911273812032,44.25124069812746
  69.50133285803408,44.28616714196589
  69.5362593018725,44.338387261879674
  69.55,44.40739441435409
  69.55,44.9676055856459
  69.5362593018725,45.036612738120326
  69.50133285803408,45.088832858034095
  69.44911273812032,45.123759301872525
  69.3801055856459,45.13749999999999
  Z" />
<path fill="none" stroke="#0000FF" stroke-width="0.06614583333333333"
  d="M 39.879699999999985,45.77074565853256 L
  39.86603181882444,45.839769973469075
  39.831145848764976,45.891997318936745
  39.77886996767805,45.92684790632802
  39.709805585645896,45.94059999999999
  39.149594414354084,45.94059999999999
  39.080552935832856,45.9268524668731
  39.02836712741225,45.89201674540793
  38.993445262884705,45.83973566278512
  38.979699999999994,45.7707055856459
  38.979699999999994,45.310494414354096
  38.99344069812747,45.24148726187967
  39.02836714196589,45.1892671419659
  39.08058726187967,45.15434069812747
  39.149594414354084,45.14059999999999
  39.709805585645896,45.14059999999999
  39.7788356627851,45.1543452628847
  39.83114585166328,45.1892865693338
  39.86603636027334,45.241452960847894
  39.879699999999985,45.310454341467434
  Z" />
<path fill="none" stroke="#0000FF" stroke-width="0.06614583333333333"
  d="M 38.129699999999985,45.77074565853256 L
  38.11603181882444,45.839769973469075
  38.081145848764976,45.891997318936745
  38.02886996767805,45.92684790632802
  37.959805585645896,45.94059999999999
  37.399594414354084,45.94059999999999
  37.330552935832856,45.9268524668731
  37.27836712741225,45.89201674540793
  37.243445262884705,45.83973566278512
  37.229699999999994,45.7707055856459
  37.229699999999994,45.310494414354096
  37.24344069812747,45.24148726187967
  37.27836714196589,45.1892671419659
  37.33058726187967,45.15434069812747
  37.399594414354084,45.14059999999999
  37.959805585645896,45.14059999999999
  38.0288356627851,45.1543452628847
  38.08114585166328,45.1892865693338
  38.11603636027334,45.241452960847894
  38.129699999999985,45.310454341467434
  Z" />
<path fill="none" stroke="#0000FF" stroke-width="0.06614583333333333"
  d="M 57.162499999999994,37.91989441435409 L
  57.17624069812747,37.85088726187966
  57.21116714196589,37.79866714196589
  57.26338726187967,37.76374069812748
  57.332394414354084,37.75
  57.9176055856459,37.75
  57.986612738120314,37.76374069812748
  58.038832858034084,37.79866714196589
  58.073759301872514,37.85088726187966
  58.08749999999999,37.91989441435409
  58.08749999999999,38.38010558564589
  58.073759301872514,38.44911273812032
  58.038832858034084,38.50133285803409
  57.986612738120314,38.53625930187253
  57.9176055856459,38.55
  57.332394414354084,38.55
  57.26338726187967,38.53625930187252
  57.21116714196589,38.50133285803409
  57.17624069812747,38.44911273812032
  57.162499999999994,38.38010558564589
  Z" />
<path fill="none" stroke="#0000FF" stroke-width="0.06614583333333333"
  d="M 58.88749999999999,37.91989441435409 L
  58.90124069812747,37.85088726187966
  58.936167141965896,37.79866714196589
  58.988387261879666,37.76374069812748
  59.05739441435409,37.75
  59.64260558564588,37.75
  59.71161273812034,37.76374069812748
  59.76383285803409,37.79866714196589
  59.79875930187252,37.85088726187966
  59.812500000000014,37.91989441435409
  59.812500000000014,38.38010558564589
  59.79875930187252,38.44911273812032
  59.76383285803409,38.50133285803409
  59.71161273812031,38.53625930187252
  59.64260558564588,38.55
  59.05739441435409,38.55
  58.988387261879666,38.53625930187252
  58.936167141965896,38.50133285803409
  58.90124069812747,38.44911273812032
  58.88749999999999,38.38010558564589
  Z" />
<path fill="none" stroke="#0000FF" stroke-width="0.06614583333333333"
  d="M 45.21249999999999,52.580105585645896 L
  45.198759301872514,52.64911273812032
  45.163832858034084,52.70133285803409
  45.111612738120314,52.73625930187252
  45.0426055856459,52.749999999999986
  44.457394414354084,52.749999999999986
  44.38838726187967,52.73625930187252
  44.33616714196589,52.70133285803409
  44.30124069812747,52.64911273812032
  44.287499999999994,52.580105585645896
  44.287499999999994,52.11989441435409
  44.30124069812747,52.050887261879666
  44.33616714196589,51.998667141965896
  44.38838726187967,51.96374069812747
  44.457394414354084,51.95
  45.0426055856459,51.95
  45.111612738120314,51.96374069812747
  45.163832858034084,51.998667141965896
  45.198759301872514,52.050887261879666
  45.21249999999999,52.11989441435409
  Z" />
<path fill="none" stroke="#0000FF" stroke-width="0.06614583333333333"
  d="M 43.48749999999998,52.580105585645896 L
  43.47375930187252,52.64911273812032
  43.43883285803409,52.70133285803409
  43.38661273812032,52.73625930187252
  43.31760558564589,52.749999999999986
  42.73239441435409,52.749999999999986
  42.66338726187966,52.73625930187252
  42.61116714196589,52.70133285803409
  42.576240698127464,52.64911273812032
  42.5625,52.580105585645896
  42.5625,52.11989441435409
  42.576240698127464,52.050887261879666
  42.61116714196589,51.998667141965896
  42.66338726187966,51.96374069812747
  42.73239441435409,51.95
  43.31760558564589,51.95
  43.38661273812032,51.96374069812747
  43.43883285803409,51.998667141965896
  43.47375930187252,52.050887261879666
  43.48749999999998,52.11989441435409
  Z" />
<path fill="none" stroke="#0000FF" stroke-width="0.06614583333333333"
  d="M 57.19999999999999,33.11989441435409 L
  57.21374069812747,33.050887261879666
  57.248667141965896,32.998667141965896
  57.300887261879666,32.96374069812747
  57.36989441435409,32.949999999999996
  57.8551055856459,32.949999999999996
  57.924112738120314,32.96374069812747
  57.976332858034084,32.998667141965896
  58.011259301872514,33.050887261879666
  58.02499999999999,33.11989441435409
  58.02499999999999,33.580105585645896
  58.011259301872514,33.64911273812032
  57.976332858034084,33.70133285803409
  57.924112738120314,33.73625930187252
  57.8551055856459,33.749999999999986
  57.36989441435409,33.749999999999986
  57.300887261879666,33.73625930187252
  57.248667141965896,33.70133285803409
  57.21374069812747,33.64911273812032
  57.19999999999999,33.580105585645896
  Z" />
<path fill="none" stroke="#0000FF" stroke-width="0.06614583333333333"
  d="M 59.02499999999999,33.11989441435409 L
  59.03874069812747,33.050887261879666
  59.0736671419659,32.998667141965896
  59.12588726187967,32.96374069812747
  59.194894414354096,32.949999999999996
  59.680105585645876,32.949999999999996
  59.74911273812033,32.96374069812747
  59.80133285803409,32.998667141965896
  59.836259301872516,33.050887261879666
  59.85000000000001,33.11989441435409
  59.85000000000001,33.580105585645896
  59.836259301872516,33.64911273812032
  59.80133285803409,33.70133285803409
  59.74911273812033,33.73625930187252
  59.680105585645904,33.749999999999986
  59.19489441435407,33.749999999999986
  59.12588726187967,33.73625930187252
  59.0736671419659,33.70133285803409
  59.03874069812747,33.64911273812032
  59.02499999999999,33.580105585645896
  Z" />
<path fill="none" stroke="#0000FF" stroke-width="0.06614583333333333"
  d="M 49.57499999999999,33.23987570594252 L
  49.58205917909493,33.20433211997329
  49.597978151737124,33.18047815173713
  49.62183211997328,33.16455917909492
  49.65737570594251,33.1575
  51.292624294057475,33.1575
  51.32816788002671,33.16455917909492
  51.352021848262865,33.18047815173713
  51.36794082090506,33.20433211997328
  51.374999999999986,33.23987570594251
  51.374999999999986,33.52512429405748
  51.36794082090506,33.56066788002671
  51.352021848262865,33.58452184826287
  51.32816788002671,33.600440820905064
  51.292624294057475,33.60749999999999
  49.65737570594251,33.60749999999999
  49.62183211997328,33.600440820905064
  49.597978151737124,33.58452184826287
  49.58205917909493,33.5606678800267
  49.57499999999999,33.52512429405748
  Z" />
<path fill="none" stroke="#0000FF" stroke-width="0.06614583333333333"
  d="M 49.57499999999999,34.50987570594252 L
  49.58205917909493,34.4743321199733
  49.597978151737124,34.45047815173713
  49.62183211997329,34.43455917909493
  49.65737570594251,34.427499999999995
  51.292624294057475,34.427499999999995
  51.3281678800267,34.43455917909493
  51.352021848262865,34.45047815173713
  51.36794082090506,34.47433211997328
  51.374999999999986,34.50987570594252
  51.374999999999986,34.79512429405747
  51.36794082090506,34.83066788002671
  51.352021848262865,34.85452184826286
  51.3281678800267,34.87044082090506
  51.292624294057475,34.8775
  49.65737570594251,34.8775
  49.62183211997329,34.87044082090506
  49.597978151737124,34.85452184826286
  49.58205917909493,34.830667880026695
  49.57499999999999,34.79512429405747
  Z" />
<path fill="none" stroke="#0000FF" stroke-width="0.06614583333333333"
  d="M 49.57499999999999,35.779875705942516 L
  49.58205917909493,35.74433211997329
  49.597978151737124,35.720478151737126
  49.62183211997329,35.70455917909493
  49.65737570594251,35.69749999999999
  51.292624294057475,35.69749999999999
  51.3281678800267,35.70455917909493
  51.352021848262865,35.720478151737126
  51.36794082090506,35.74433211997328
  51.374999999999986,35.779875705942516
  51.374999999999986,36.06512429405747
  51.36794082090506,36.100667880026705
  51.352021848262865,36.12452184826286
  51.3281678800267,36.140440820905056
  51.292624294057475,36.147499999999994
  49.65737570594251,36.147499999999994
  49.62183211997329,36.140440820905056
  49.597978151737124,36.12452184826286
  49.58205917909493,36.10066788002669
  49.57499999999999,36.06512429405747
  Z" />
<path fill="none" stroke="#0000FF" stroke-width="0.06614583333333333"
  d="M 49.57499999999999,37.04987570594251 L
  49.58205917909493,37.01433211997329
  49.597978151737124,36.99047815173712
  49.62183211997328,36.974559179094925
  49.65737570594251,36.9675
  51.292624294057475,36.9675
  51.32816788002671,36.974559179094925
  51.352021848262865,36.99047815173712
  51.36794082090506,37.014332119973275
  51.374999999999986,37.04987570594251
  51.374999999999986,37.33512429405748
  51.36794082090506,37.3706678800267
  51.35202184826285,37.39452184826287
  51.32816788002671,37.410440820905066
  51.292624294057475,37.41749999999999
  49.65737570594251,37.41749999999999
  49.62183211997328,37.410440820905066
  49.59797815173714,37.39452184826287
  49.58205917909493,37.3706678800267
  49.57499999999999,37.33512429405748
  Z" />
<path fill="none" stroke="#0000FF" stroke-width="0.06614583333333333"
  d="M 54.52499999999999,37.04987570594251 L
  54.53205917909493,37.01433211997329
  54.54797815173713,36.99047815173712
  54.57183211997328,36.974559179094925
  54.607375705942516,36.9675
  56.242624294057464,36.9675
  56.2781678800267,36.974559179094925
  56.30202184826287,36.990478151737136
  56.317940820905065,37.014332119973275
  56.32499999999999,37.04987570594251
  56.32499999999999,37.33512429405748
  56.317940820905065,37.3706678800267
  56.30202184826287,37.39452184826287
  56.2781678800267,37.410440820905066
  56.242624294057464,37.41749999999999
  54.607375705942516,37.41749999999999
  54.57183211997328,37.410440820905066
  54.54797815173714,37.39452184826287
  54.53205917909493,37.3706678800267
  54.52499999999999,37.33512429405748
  Z" />
<path fill="none" stroke="#0000FF" stroke-width="0.06614583333333333"
  d="M 54.52499999999999,35.779875705942516 L
  54.53205917909493,35.74433211997329
  54.54797815173713,35.720478151737126
  54.571832119973294,35.70455917909493
  54.607375705942516,35.69749999999999
  56.242624294057464,35.69749999999999
  56.2781678800267,35.70455917909493
  56.30202184826287,35.72047815173714
  56.317940820905065,35.74433211997328
  56.32499999999999,35.779875705942516
  56.32499999999999,36.06512429405747
  56.317940820905065,36.100667880026705
  56.30202184826287,36.124521848262845
  56.2781678800267,36.140440820905056
  56.242624294057464,36.147499999999994
  54.607375705942516,36.147499999999994
  54.571832119973294,36.140440820905056
  54.54797815173713,36.12452184826286
  54.53205917909493,36.10066788002669
  54.52499999999999,36.06512429405747
  Z" />
<path fill="none" stroke="#0000FF" stroke-width="0.06614583333333333"
  d="M 54.52499999999999,34.50987570594252 L
  54.53205917909493,34.4743321199733
  54.54797815173713,34.45047815173713
  54.571832119973294,34.43455917909493
  54.607375705942516,34.427499999999995
  56.242624294057464,34.427499999999995
  56.2781678800267,34.43455917909493
  56.30202184826287,34.450478151737144
  56.317940820905065,34.47433211997328
  56.32499999999999,34.50987570594252
  56.32499999999999,34.79512429405747
  56.317940820905065,34.83066788002671
  56.30202184826287,34.85452184826285
  56.2781678800267,34.87044082090506
  56.242624294057464,34.8775
  54.607375705942516,34.8775
  54.571832119973294,34.87044082090506
  54.54797815173713,34.85452184826286
  54.53205917909493,34.830667880026695
  54.52499999999999,34.79512429405747
  Z" />
<path fill="none" stroke="#0000FF" stroke-width="0.06614583333333333"
  d="M 54.52499999999999,33.23987570594252 L
  54.53205917909493,33.20433211997329
  54.54797815173713,33.18047815173713
  54.57183211997328,33.16455917909492
  54.607375705942516,33.1575
  56.242624294057464,33.1575
  56.2781678800267,33.16455917909493
  56.30202184826287,33.180478151737134
  56.317940820905065,33.20433211997328
  56.32499999999999,33.23987570594251
  56.32499999999999,33.52512429405748
  56.317940820905065,33.56066788002671
  56.30202184826287,33.58452184826285
  56.2781678800267,33.600440820905064
  56.242624294057464,33.60749999999999
  54.607375705942516,33.60749999999999
  54.57183211997328,33.600440820905064
  54.54797815173713,33.58452184826287
  54.53205917909493,33.5606678800267
  54.52499999999999,33.52512429405748
  Z" />
<path fill="none" stroke="#0000FF" stroke-width="0.06614583333333333"
  d="M 58.925,54.054 L
  59.97500000000001,54.054
  59.97500000000001,55.903999999999996
  58.925,55.903999999999996
  Z" />
<path fill="none" stroke="#0000FF" stroke-width="0.06614583333333333"
  d="M 61.42499999999997,54.054 L
  62.47500000000001,54.054
  62.47500000000001,55.903999999999996
  61.42499999999997,55.903999999999996
  Z" />
<path fill="none" stroke="#0000FF" stroke-width="0.06614583333333333"
  d="M 63.92499999999997,54.054 L
  64.97500000000001,54.054
  64.97500000000001,55.903999999999996
  63.92499999999997,55.903999999999996
  Z" />
<path fill="none" stroke="#0000FF" stroke-width="0.06614583333333333"
  d="M 58.925,59.854 L
  59.97500000000001,59.854
  59.97500000000001,61.70399999999999
  58.925,61.70399999999999
  Z" />
<path fill="none" stroke="#0000FF" stroke-width="0.06614583333333333"
  d="M 61.42499999999997,59.854 L
  62.47500000000001,59.854
  62.47500000000001,61.70399999999999
  61.42499999999997,61.70399999999999
  Z" />
<path fill="none" stroke="#0000FF" stroke-width="0.06614583333333333"
  d="M 63.92499999999997,59.854 L
  64.97500000000001,59.854
  64.97500000000001,61.70399999999999
  63.92499999999997,61.70399999999999
  Z" />
<path fill="none" stroke="#0000FF" stroke-width="0.06614583333333333"
  d="M 67.3198944143541,46.88749999999999 L
  67.25088726187964,46.87375930187251
  67.19866714196588,46.838832858034095
  67.16374069812746,46.78661273812034
  67.14999999999999,46.71760558564591
  67.14999999999999,46.232394414354076
  67.16374069812746,46.16338726187965
  67.19866714196588,46.11116714196589
  67.25088726187964,46.07624069812748
  67.3198944143541,46.0625
  67.78010558564587,46.0625
  67.84911273812033,46.07624069812748
  67.90133285803408,46.11116714196589
  67.93625930187251,46.16338726187966
  67.95,46.23239441435409
  67.95,46.7176055856459
  67.93625930187251,46.786612738120326
  67.90133285803408,46.838832858034095
  67.84911273812033,46.87375930187251
  67.78010558564587,46.88749999999999
  Z" />
<path fill="none" stroke="#0000FF" stroke-width="0.06614583333333333"
  d="M 67.31989441435407,45.062499999999986 L
  67.25088726187964,45.04875930187252
  67.19866714196588,45.01383285803409
  67.16374069812746,44.96161273812034
  67.14999999999999,44.89260558564591
  67.14999999999999,44.40739441435407
  67.16374069812746,44.33838726187966
  67.19866714196588,44.28616714196589
  67.25088726187964,44.251240698127475
  67.3198944143541,44.2375
  67.78010558564587,44.2375
  67.84911273812033,44.251240698127475
  67.90133285803408,44.28616714196589
  67.93625930187251,44.338387261879674
  67.95,44.40739441435409
  67.95,44.892605585645896
  67.93625930187251,44.96161273812032
  67.90133285803408,45.01383285803409
  67.84911273812033,45.04875930187252
  67.7801055856459,45.062499999999986
  Z" />
<path fill="none" stroke="#0000FF" stroke-width="0.06614583333333333"
  d="M 66.91249999999998,53.73239441435409 L
  66.92624069812747,53.66338726187966
  66.9611671419659,53.61116714196589
  67.01338726187966,53.57624069812748
  67.08239441435411,53.5625
  67.5676055856459,53.5625
  67.63661273812032,53.576240698127464
  67.68883285803408,53.61116714196589
  67.7237593018725,53.66338726187966
  67.7375,53.73239441435409
  67.7375,54.19260558564589
  67.7237593018725,54.26161273812032
  67.68883285803408,54.31383285803409
  67.63661273812029,54.34875930187253
  67.5676055856459,54.3625
  67.08239441435411,54.3625
  67.01338726187969,54.34875930187252
  66.9611671419659,54.31383285803409
  66.92624069812747,54.26161273812032
  66.91249999999998,54.19260558564589
  Z" />
<path fill="none" stroke="#0000FF" stroke-width="0.06614583333333333"
  d="M 68.73749999999997,53.73239441435409 L
  68.75124069812746,53.66338726187966
  68.78616714196589,53.61116714196589
  68.83838726187965,53.57624069812748
  68.9073944143541,53.5625
  69.39260558564588,53.5625
  69.46161273812034,53.57624069812748
  69.51383285803409,53.61116714196589
  69.54875930187252,53.66338726187966
  69.56250000000001,53.73239441435409
  69.56250000000001,54.19260558564589
  69.54875930187252,54.26161273812032
  69.51383285803409,54.31383285803409
  69.46161273812031,54.34875930187252
  69.39260558564588,54.3625
  68.9073944143541,54.3625
  68.83838726187967,54.34875930187252
  68.78616714196589,54.31383285803409
  68.75124069812746,54.26161273812032
  68.73749999999997,54.19260558564589
  Z" />
<path fill="none" stroke="#0000FF" stroke-width="0.06614583333333333"
  d="M 69.56250000000001,57.392605585645896 L
  69.54875930187252,57.46161273812032
  69.51383285803409,57.51383285803409
  69.46161273812034,57.54875930187252
  69.39260558564591,57.562499999999986
  68.90739441435407,57.562499999999986
  68.83838726187965,57.54875930187252
  68.78616714196589,57.51383285803409
  68.75124069812746,57.46161273812032
  68.73749999999997,57.392605585645896
  68.73749999999997,56.93239441435409
  68.75124069812746,56.863387261879666
  68.78616714196589,56.811167141965896
  68.83838726187965,56.77624069812747
  68.90739441435407,56.7625
  69.39260558564591,56.7625
  69.46161273812034,56.77624069812747
  69.51383285803409,56.811167141965896
  69.54875930187252,56.863387261879666
  69.56250000000001,56.93239441435409
  Z" />
<path fill="none" stroke="#0000FF" stroke-width="0.06614583333333333"
  d="M 67.7375,57.392605585645896 L
  67.7237593018725,57.46161273812032
  67.68883285803408,57.51383285803409
  67.63661273812032,57.54875930187252
  67.56760558564592,57.562499999999986
  67.08239441435408,57.562499999999986
  67.01338726187966,57.54875930187252
  66.9611671419659,57.51383285803409
  66.92624069812747,57.46161273812032
  66.91249999999998,57.392605585645896
  66.91249999999998,56.93239441435409
  66.92624069812747,56.863387261879666
  66.9611671419659,56.811167141965896
  67.01338726187966,56.77624069812747
  67.08239441435408,56.7625
  67.56760558564592,56.7625
  67.63661273812032,56.77624069812747
  67.68883285803408,56.811167141965896
  67.7237593018725,56.863387261879666
  67.7375,56.93239441435409
  Z" />
<path fill="none" stroke="#0000FF" stroke-width="0.06614583333333333"
  d="M 46.77999441435409,37.665499999999994 L
  46.71096433721489,37.65175473711528
  46.65867358580853,37.61682641419145
  46.623763636753054,37.56456317007152
  46.61009999999999,37.49563771356159
  46.61009999999999,37.01035434146743
  46.623768181175535,36.941330026530935
  46.65867358580853,36.88907358580853
  46.71093002653093,36.85416818117554
  46.77995434146743,36.84049999999999
  47.240237713561584,36.84049999999999
  47.30916317007154,36.85416363675306
  47.361426414191456,36.88907358580853
  47.396354737115274,36.94136433721488
  47.410099999999986,37.010394414354096
  47.410099999999986,37.49559759906511
  47.39635930389997,37.56452882590938
  47.361426414191456,37.61682641419145
  47.30912882590938,37.65175930389998
  47.2401975990651,37.665499999999994
  Z" />
<path fill="none" stroke="#0000FF" stroke-width="0.06614583333333333"
  d="M 46.77999441435409,35.84049999999999 L
  46.710964337214875,35.82675473711528
  46.65867358580853,35.79182641419146
  46.623763636753054,35.73956317007155
  46.61009999999999,35.67063771356159
  46.61009999999999,35.18535434146743
  46.623768181175535,35.11633002653093
  46.65867358580853,35.06407358580853
  46.71093002653092,35.02916818117555
  46.77995434146743,35.0155
  47.240237713561584,35.0155
  47.30916317007154,35.02916363675308
  47.361426414191456,35.06407358580853
  47.396354737115274,35.116364337214875
  47.410099999999986,35.18539441435409
  47.410099999999986,35.670597599065104
  47.39635930389997,35.73952882590939
  47.361426414191456,35.79182641419146
  47.30912882590938,35.826759303899976
  47.2401975990651,35.84049999999999
  Z" />
<path fill="none" stroke="#0000FF" stroke-width="0.06614583333333333"
  d="M 54.40359441435409,44.41229999999999 L
  54.33456433721487,44.39855473711529
  54.282254148336705,44.36361343066619
  54.24736363972664,44.3114470391521
  54.2337,44.24244565853256
  54.2337,43.65715434146743
  54.24736363972664,43.58815296084789
  54.282254148336705,43.5359865693338
  54.334564337214886,43.5010452628847
  54.40359441435409,43.48729999999999
  54.863797599065094,43.48729999999999
  54.93272882590938,43.501040696100006
  54.98504585166327,43.5359865693338
  55.01995930187252,43.58818726187967
  55.03369999999998,43.657194414354095
  55.03369999999998,44.2424055856459
  55.01995930187252,44.311412738120325
  54.98504585166327,44.36361343066619
  54.93272882590938,44.39855930389999
  54.863797599065094,44.41229999999999
  Z" />
<path fill="none" stroke="#0000FF" stroke-width="0.06614583333333333"
  d="M 54.40359441435409,42.68729999999999 L
  54.334564337214886,42.67355473711528
  54.282254148336705,42.63861343066618
  54.24736363972663,42.58644703915209
  54.2337,42.517445658532566
  54.2337,41.932154341467424
  54.24736363972664,41.8631529608479
  54.282254148336705,41.81098656933379
  54.33456433721487,41.77604526288471
  54.40359441435409,41.762299999999996
  54.863797599065094,41.762299999999996
  54.93272882590938,41.77604069610001
  54.98504585166327,41.81098656933379
  55.01995930187252,41.86318726187967
  55.03369999999998,41.932194414354086
  55.03369999999998,42.5174055856459
  55.01995930187252,42.586412738120316
  54.98504585166327,42.63861343066618
  54.93272882590938,42.67355930389998
  54.863797599065094,42.68729999999999
  Z" />
<path fill="none" stroke="#0000FF" stroke-width="0.06614583333333333"
  d="M 32.20599999999999,51.44989441435409 L
  32.21974069812747,51.380887261879664
  32.254667141965896,51.328667141965894
  32.306887261879666,51.293740698127465
  32.37589441435409,51.28
  32.8611055856459,51.28
  32.930135662785105,51.2937452628847
  32.98241674540793,51.32866712741226
  33.0172524668731,51.38085293583286
  33.03099999999999,51.44989441435409
  33.03099999999999,51.910105585645894
  33.0172524668731,51.97914706416712
  32.98241674540793,52.031332872587726
  32.93013566278509,52.0662547371153
  32.8611055856459,52.08
  32.37589441435409,52.08
  32.306887261879666,52.06625930187252
  32.254667141965896,52.03133285803409
  32.21974069812747,51.97911273812032
  32.20599999999999,51.910105585645894
  Z" />
<path fill="none" stroke="#0000FF" stroke-width="0.06614583333333333"
  d="M 34.03099999999999,51.44989441435409 L
  34.04474069812747,51.380887261879664
  34.0796671419659,51.328667141965894
  34.13188726187967,51.293740698127465
  34.20089441435408,51.28
  34.68610558564589,51.28
  34.75513566278511,51.2937452628847
  34.807416745407934,51.32866712741226
  34.842252466873106,51.38085293583286
  34.855999999999995,51.44989441435409
  34.855999999999995,51.910105585645894
  34.842252466873106,51.97914706416712
  34.807416745407934,52.031332872587726
  34.755135662785094,52.06625473711529
  34.68610558564589,52.08
  34.20089441435408,52.08
  34.13188726187967,52.066259301872535
  34.0796671419659,52.03133285803409
  34.04474069812747,51.97911273812032
  34.03099999999999,51.910105585645894
  Z" />
<path fill="none" stroke="#0000FF" stroke-width="0.06614583333333333"
  d="M 57.19999999999999,34.71989441435409 L
  57.21374069812747,34.650887261879674
  57.248667141965896,34.59866714196589
  57.300887261879666,34.563740698127475
  57.36989441435409,34.55
  57.8551055856459,34.55
  57.924112738120314,34.563740698127475
  57.976332858034084,34.59866714196589
  58.011259301872514,34.650887261879674
  58.02499999999999,34.71989441435409
  58.02499999999999,35.180105585645904
  58.01125930187253,35.24911273812032
  57.976332858034084,35.30133285803409
  57.924112738120314,35.33625930187253
  57.8551055856459,35.349999999999994
  57.36989441435409,35.349999999999994
  57.300887261879666,35.336259301872516
  57.248667141965896,35.30133285803409
  57.21374069812745,35.24911273812032
  57.19999999999999,35.180105585645904
  Z" />
<path fill="none" stroke="#0000FF" stroke-width="0.06614583333333333"
  d="M 59.02499999999999,34.71989441435409 L
  59.03874069812747,34.650887261879674
  59.0736671419659,34.59866714196589
  59.12588726187967,34.563740698127475
  59.194894414354096,34.55
  59.680105585645876,34.55
  59.74911273812033,34.563740698127475
  59.80133285803409,34.59866714196589
  59.836259301872516,34.650887261879674
  59.85000000000001,34.71989441435409
  59.85000000000001,35.180105585645904
  59.836259301872516,35.24911273812032
  59.80133285803409,35.30133285803409
  59.7491127381203,35.336259301872516
  59.680105585645876,35.349999999999994
  59.194894414354096,35.349999999999994
  59.12588726187967,35.33625930187253
  59.0736671419659,35.30133285803409
  59.038740698127455,35.24911273812032
  59.02499999999999,35.180105585645904
  Z" />
<path fill="none" stroke="#0000FF" stroke-width="0.06614583333333333"
  d="M 44.50699441435408,36.73509999999999 L
  44.43798726187967,36.72135930187251
  44.3857865693338,36.68644585166328
  44.35084069610001,36.634128825909386
  44.33709999999999,36.5651975990651
  44.33709999999999,35.979994414354096
  44.350845262884704,35.91096433721489
  44.3857865693338,35.85865414833671
  44.43795296084791,35.82376363972662
  44.50695434146742,35.81009999999999
  44.96724565853256,35.81009999999999
  45.03626997346905,35.82376818117554
  45.08849731893673,35.858654151235015
  45.12334790632802,35.91093003232194
  45.13709999999999,35.979994414354096
  45.13709999999999,36.5651975990651
  45.12335246616338,36.63416312792501
  45.08849731893673,36.686445848764976
  45.0362356627851,36.72135473711528
  44.9672055856459,36.73509999999999
  Z" />
<path fill="none" stroke="#0000FF" stroke-width="0.06614583333333333"
  d="M 44.50699441435408,35.010099999999994 L
  44.43798726187967,34.99635930187253
  44.3857865693338,34.96144585166327
  44.35084069610001,34.90912882590938
  44.33709999999999,34.84019759906511
  44.33709999999999,34.25499441435409
  44.35084526288469,34.1859643372149
  44.3857865693338,34.13365414833672
  44.43795296084791,34.09876363972663
  44.50695434146742,34.0851
  44.96724565853256,34.0851
  45.03626997346905,34.098768181175544
  45.08849731893673,34.13365415123502
  45.12334790632802,34.18593003232195
  45.13709999999999,34.25499441435409
  45.13709999999999,34.84019759906511
  45.12335246616338,34.909163127925
  45.08849731893673,34.96144584876497
  45.03623566278509,34.9963547371153
  44.9672055856459,35.010099999999994
  Z" />
<path fill="none" stroke="#0000FF" stroke-width="0.06614583333333333"
  d="M 50.125,52.11989441435409 L
  50.138740698127464,52.050887261879666
  50.17366714196589,51.998667141965896
  50.22588726187966,51.96374069812747
  50.29489441435409,51.95
  50.88010558564589,51.95
  50.94911273812032,51.96374069812747
  51.00133285803409,51.998667141965896
  51.03625930187252,52.050887261879666
  51.04999999999998,52.11989441435409
  51.04999999999998,52.580105585645896
  51.03625930187252,52.64911273812032
  51.00133285803409,52.70133285803409
  50.94911273812032,52.73625930187252
  50.88010558564589,52.749999999999986
  50.29489441435409,52.749999999999986
  50.22588726187966,52.73625930187252
  50.17366714196589,52.70133285803409
  50.138740698127464,52.64911273812032
  50.125,52.580105585645896
  Z" />
<path fill="none" stroke="#0000FF" stroke-width="0.06614583333333333"
  d="M 51.849999999999994,52.11989441435409 L
  51.86374069812747,52.050887261879666
  51.89866714196589,51.998667141965896
  51.95088726187967,51.96374069812747
  52.019894414354084,51.95
  52.6051055856459,51.95
  52.674112738120314,51.96374069812747
  52.726332858034084,51.998667141965896
  52.761259301872514,52.050887261879666
  52.77499999999999,52.11989441435409
  52.77499999999999,52.580105585645896
  52.761259301872514,52.64911273812032
  52.726332858034084,52.70133285803409
  52.674112738120314,52.73625930187252
  52.6051055856459,52.749999999999986
  52.019894414354084,52.749999999999986
  51.95088726187967,52.73625930187252
  51.89866714196589,52.70133285803409
  51.86374069812747,52.64911273812032
  51.849999999999994,52.580105585645896
  Z" />
<path fill="none" stroke="#0000FF" stroke-width="0.06614583333333333"
  d="M 43.64999999999999,33.3 L
  43.64999999999999,34.8
  41.849999999999994,34.8
  41.849999999999994,33.3
  Z" />
<path fill="none" stroke="#0000FF" stroke-width="0.06614583333333333"
  d="M 40.89999999999999,33.3 L
  40.89999999999999,34.8
  39.099999999999994,34.8
  39.099999999999994,33.3
  Z" />
<path fill="none" stroke="#0000FF" stroke-width="0.06614583333333333"
  d="M 40.89999999999999,35.5 L
  40.89999999999999,36.999999999999986
  39.099999999999994,36.999999999999986
  39.099999999999994,35.5
  Z" />
<path fill="none" stroke="#0000FF" stroke-width="0.06614583333333333"
  d="M 43.64999999999999,35.5 L
  43.64999999999999,36.999999999999986
  41.849999999999994,36.999999999999986
  41.849999999999994,35.5
  Z" />
<path fill="none" stroke="#0000FF" stroke-width="0.06614583333333333"
  d="M 39.874999999999986,47.38010558564589 L
  39.86125930187251,47.44911273812032
  39.82633285803409,47.50133285803409
  39.77411273812032,47.53625930187252
  39.705105585645896,47.55
  39.11989441435409,47.55
  39.050887261879666,47.53625930187252
  38.998667141965896,47.50133285803409
  38.96374069812747,47.44911273812032
  38.94999999999999,47.38010558564589
  38.94999999999999,46.91989441435409
  38.96374069812747,46.85088726187966
  38.998667141965896,46.79866714196589
  39.050887261879666,46.76374069812748
  39.11989441435409,46.75
  39.705105585645896,46.75
  39.77411273812032,46.76374069812748
  39.82633285803409,46.79866714196589
  39.86125930187251,46.85088726187966
  39.874999999999986,46.91989441435409
  Z" />
<path fill="none" stroke="#0000FF" stroke-width="0.06614583333333333"
  d="M 38.14999999999999,47.38010558564589 L
  38.136259301872514,47.44911273812032
  38.101332858034084,47.50133285803409
  38.049112738120314,47.53625930187253
  37.9801055856459,47.55
  37.394894414354084,47.55
  37.32588726187967,47.53625930187252
  37.27366714196589,47.50133285803409
  37.23874069812747,47.44911273812032
  37.224999999999994,47.38010558564589
  37.224999999999994,46.91989441435409
  37.23874069812747,46.85088726187966
  37.27366714196589,46.79866714196589
  37.32588726187967,46.76374069812748
  37.394894414354084,46.75
  37.9801055856459,46.75
  38.049112738120314,46.76374069812748
  38.101332858034084,46.79866714196589
  38.136259301872514,46.85088726187966
  38.14999999999999,46.91989441435409
  Z" />
<path fill="none" stroke="#0000FF" stroke-width="0.06614583333333333"
  d="M 39.07499999999999,37.91989441435409 L
  39.08874069812747,37.85088726187966
  39.123667141965896,37.79866714196589
  39.175887261879666,37.76374069812748
  39.24489441435409,37.75
  39.830105585645896,37.75
  39.89911273812032,37.76374069812748
  39.95133285803409,37.79866714196589
  39.98625930187251,37.85088726187966
  39.999999999999986,37.91989441435409
  39.999999999999986,38.38010558564589
  39.98625930187251,38.44911273812032
  39.95133285803409,38.50133285803409
  39.89911273812032,38.53625930187252
  39.830105585645896,38.55
  39.24489441435409,38.55
  39.175887261879666,38.53625930187252
  39.123667141965896,38.50133285803409
  39.08874069812747,38.44911273812032
  39.07499999999999,38.38010558564589
  Z" />
<path fill="none" stroke="#0000FF" stroke-width="0.06614583333333333"
  d="M 40.8,37.91989441435409 L
  40.813740698127475,37.85088726187966
  40.84866714196589,37.79866714196589
  40.90088726187966,37.76374069812748
  40.96989441435409,37.75
  41.55510558564589,37.75
  41.62411273812032,37.76374069812748
  41.67633285803409,37.79866714196589
  41.711259301872516,37.85088726187966
  41.724999999999994,37.91989441435409
  41.724999999999994,38.38010558564589
  41.711259301872516,38.44911273812032
  41.67633285803409,38.50133285803409
  41.62411273812032,38.53625930187252
  41.55510558564589,38.55
  40.96989441435409,38.55
  40.90088726187966,38.53625930187252
  40.84866714196589,38.50133285803409
  40.813740698127475,38.44911273812032
  40.8,38.38010558564589
  Z" />
<path fill="none" stroke="#0000FF" stroke-width="0.06614583333333333"
  d="M 57.19999999999999,36.319894414354096 L
  57.21374069812747,36.25088726187967
  57.248667141965896,36.1986671419659
  57.300887261879666,36.16374069812747
  57.36989441435409,36.14999999999999
  57.8551055856459,36.14999999999999
  57.924112738120314,36.163740698127455
  57.976332858034084,36.1986671419659
  58.011259301872514,36.25088726187967
  58.02499999999999,36.319894414354096
  58.02499999999999,36.7801055856459
  58.011259301872514,36.849112738120326
  57.976332858034084,36.901332858034095
  57.924112738120314,36.93625930187251
  57.8551055856459,36.94999999999999
  57.36989441435409,36.94999999999999
  57.300887261879666,36.93625930187251
  57.248667141965896,36.901332858034095
  57.21374069812747,36.849112738120326
  57.19999999999999,36.7801055856459
  Z" />
<path fill="none" stroke="#0000FF" stroke-width="0.06614583333333333"
  d="M 59.02499999999999,36.319894414354096 L
  59.03874069812747,36.25088726187967
  59.0736671419659,36.1986671419659
  59.12588726187967,36.163740698127455
  59.194894414354096,36.14999999999999
  59.680105585645876,36.14999999999999
  59.7491127381203,36.16374069812747
  59.80133285803409,36.1986671419659
  59.836259301872516,36.25088726187967
  59.85000000000001,36.319894414354096
  59.85000000000001,36.7801055856459
  59.836259301872516,36.849112738120326
  59.80133285803409,36.901332858034095
  59.74911273812033,36.93625930187251
  59.680105585645876,36.94999999999999
  59.194894414354096,36.94999999999999
  59.12588726187967,36.93625930187251
  59.0736671419659,36.901332858034095
  59.03874069812747,36.849112738120326
  59.02499999999999,36.7801055856459
  Z" />
<path fill="none" stroke="#0000FF" stroke-width="0.06614583333333333"
  d="M 69.55,55.7926055856459 L
  69.5362593018725,55.861612738120314
  69.50133285803408,55.9138328580341
  69.44911273812032,55.94875930187253
  69.3801055856459,55.96249999999999
  68.8198944143541,55.96249999999999
  68.75088726187964,55.948759301872514
  68.69866714196588,55.9138328580341
  68.66374069812746,55.86161273812033
  68.64999999999999,55.792605585645916
  68.64999999999999,55.33239441435407
  68.66374069812746,55.26338726187966
  68.69866714196588,55.2111671419659
  68.75088726187967,55.17624069812747
  68.8198944143541,55.162499999999994
  69.3801055856459,55.162499999999994
  69.44911273812029,55.17624069812746
  69.50133285803408,55.2111671419659
  69.5362593018725,55.26338726187967
  69.55,55.332394414354084
  Z" />
<path fill="none" stroke="#0000FF" stroke-width="0.06614583333333333"
  d="M 67.8,55.7926055856459 L
  67.7862593018725,55.861612738120314
  67.75133285803408,55.9138328580341
  67.69911273812032,55.94875930187253
  67.6301055856459,55.96249999999999
  67.0698944143541,55.96249999999999
  67.00088726187964,55.948759301872514
  66.94866714196588,55.9138328580341
  66.91374069812746,55.86161273812033
  66.89999999999999,55.792605585645916
  66.89999999999999,55.33239441435407
  66.91374069812746,55.26338726187966
  66.94866714196588,55.2111671419659
  67.00088726187967,55.17624069812747
  67.0698944143541,55.162499999999994
  67.6301055856459,55.162499999999994
  67.69911273812029,55.17624069812746
  67.75133285803408,55.2111671419659
  67.7862593018725,55.26338726187967
  67.8,55.332394414354084
  Z" />
<path fill="none" stroke="#0000FF" stroke-width="0.06614583333333333"
  d="M 40.700754169761666,40.977598096247306 L
  40.70737570594251,40.974999999999994
  42.09740190375268,40.97575416976167
  42.099999999999994,40.982375705942516
  42.09924583023832,41.12240190375269
  42.09262429405749,41.124999999999986
  40.702598096247286,41.12424583023831
  40.69999999999999,41.11762429405748
  Z" />
<path fill="none" stroke="#0000FF" stroke-width="0.06614583333333333"
  d="M 40.700754169761666,41.477598096247306 L
  40.70737570594251,41.474999999999994
  42.09740190375268,41.47575416976167
  42.099999999999994,41.482375705942516
  42.09924583023832,41.62240190375269
  42.09262429405749,41.624999999999986
  40.702598096247286,41.62424583023831
  40.69999999999999,41.61762429405748
  Z" />
<path fill="none" stroke="#0000FF" stroke-width="0.06614583333333333"
  d="M 40.700754169761666,41.977598096247306 L
  40.70737570594251,41.974999999999994
  42.09740190375268,41.97575416976167
  42.099999999999994,41.982375705942516
  42.09924583023832,42.12240190375269
  42.09262429405749,42.124999999999986
  40.702598096247286,42.12424583023831
  40.69999999999999,42.11762429405748
  Z" />
<path fill="none" stroke="#0000FF" stroke-width="0.06614583333333333"
  d="M 40.700754169761666,42.477598096247306 L
  40.70737570594251,42.474999999999994
  42.09740190375268,42.47575416976167
  42.099999999999994,42.482375705942516
  42.09924583023832,42.62240190375269
  42.09262429405749,42.624999999999986
  40.702598096247286,42.62424583023831
  40.69999999999999,42.61762429405748
  Z" />
<path fill="none" stroke="#0000FF" stroke-width="0.06614583333333333"
  d="M 40.700754169761666,42.977598096247306 L
  40.70737570594251,42.974999999999994
  42.09740190375268,42.97575416976167
  42.099999999999994,42.982375705942516
  42.09924583023832,43.12240190375269
  42.09262429405749,43.124999999999986
  40.702598096247286,43.12424583023831
  40.69999999999999,43.11762429405748
  Z" />
<path fill="none" stroke="#0000FF" stroke-width="0.06614583333333333"
  d="M 40.700754169761666,43.477598096247306 L
  40.70737570594251,43.474999999999994
  42.09740190375268,43.47575416976167
  42.099999999999994,43.482375705942516
  42.09924583023832,43.62240190375269
  42.09262429405749,43.624999999999986
  40.702598096247286,43.62424583023831
  40.69999999999999,43.61762429405748
  Z" />
<path fill="none" stroke="#0000FF" stroke-width="0.06614583333333333"
  d="M 40.700754169761666,43.977598096247306 L
  40.70737570594251,43.974999999999994
  42.09740190375268,43.97575416976167
  42.099999999999994,43.982375705942516
  42.09924583023832,44.12240190375269
  42.09262429405749,44.124999999999986
  40.702598096247286,44.12424583023831
  40.69999999999999,44.11762429405748
  Z" />
<path fill="none" stroke="#0000FF" stroke-width="0.06614583333333333"
  d="M 40.700754169761666,44.477598096247306 L
  40.70737570594251,44.474999999999994
  42.09740190375268,44.47575416976167
  42.099999999999994,44.482375705942516
  42.09924583023832,44.62240190375269
  42.09262429405749,44.624999999999986
  40.702598096247286,44.62424583023831
  40.69999999999999,44.61762429405748
  Z" />
<path fill="none" stroke="#0000FF" stroke-width="0.06614583333333333"
  d="M 40.700754169761666,44.977598096247306 L
  40.70737570594251,44.974999999999994
  42.09740190375268,44.97575416976167
  42.099999999999994,44.982375705942516
  42.09924583023832,45.12240190375269
  42.09262429405749,45.124999999999986
  40.702598096247286,45.12424583023831
  40.69999999999999,45.11762429405748
  Z" />
<path fill="none" stroke="#0000FF" stroke-width="0.06614583333333333"
  d="M 40.700754169761666,45.477598096247306 L
  40.70737570594251,45.474999999999994
  42.09740190375268,45.47575416976167
  42.099999999999994,45.482375705942516
  42.09924583023832,45.62240190375269
  42.09262429405749,45.624999999999986
  40.702598096247286,45.62424583023831
  40.69999999999999,45.61762429405748
  Z" />
<path fill="none" stroke="#0000FF" stroke-width="0.06614583333333333"
  d="M 40.700754169761666,45.977598096247306 L
  40.70737570594251,45.974999999999994
  42.09740190375268,45.97575416976167
  42.099999999999994,45.982375705942516
  42.09924583023832,46.12240190375269
  42.09262429405749,46.124999999999986
  40.702598096247286,46.12424583023831
  40.69999999999999,46.11762429405748
  Z" />
<path fill="none" stroke="#0000FF" stroke-width="0.06614583333333333"
  d="M 40.700754169761666,46.477598096247306 L
  40.70737570594251,46.474999999999994
  42.09740190375268,46.47575416976167
  42.099999999999994,46.482375705942516
  42.09924583023832,46.62240190375269
  42.09262429405749,46.624999999999986
  40.702598096247286,46.62424583023831
  40.69999999999999,46.61762429405748
  Z" />
<path fill="none" stroke="#0000FF" stroke-width="0.06614583333333333"
  d="M 40.700754169761666,46.977598096247306 L
  40.70737570594251,46.974999999999994
  42.09740190375268,46.97575416976167
  42.099999999999994,46.982375705942516
  42.09924583023832,47.12240190375269
  42.09262429405749,47.124999999999986
  40.702598096247286,47.12424583023831
  40.69999999999999,47.11762429405748
  Z" />
<path fill="none" stroke="#0000FF" stroke-width="0.06614583333333333"
  d="M 40.700754169761666,47.477598096247306 L
  40.70737570594251,47.474999999999994
  42.09740190375268,47.47575416976167
  42.099999999999994,47.482375705942516
  42.09924583023832,47.62240190375269
  42.09262429405749,47.624999999999986
  40.702598096247286,47.62424583023831
  40.69999999999999,47.61762429405748
  Z" />
<path fill="none" stroke="#0000FF" stroke-width="0.06614583333333333"
  d="M 40.700754169761666,47.977598096247306 L
  40.70737570594251,47.974999999999994
  42.09740190375268,47.97575416976167
  42.099999999999994,47.982375705942516
  42.09924583023832,48.12240190375269
  42.09262429405749,48.124999999999986
  40.702598096247286,48.12424583023831
  40.69999999999999,48.11762429405748
  Z" />
<path fill="none" stroke="#0000FF" stroke-width="0.06614583333333333"
  d="M 40.700754169761666,48.477598096247306 L
  40.70737570594251,48.474999999999994
  42.09740190375268,48.47575416976167
  42.099999999999994,48.482375705942516
  42.09924583023832,48.62240190375269
  42.09262429405749,48.624999999999986
  40.702598096247286,48.62424583023831
  40.69999999999999,48.61762429405748
  Z" />
<path fill="none" stroke="#0000FF" stroke-width="0.06614583333333333"
  d="M 43.25075416976168,49.77759809624729 L
  43.25737570594251,49.77499999999999
  43.39740190375268,49.77575416976167
  43.39999999999999,49.78237570594251
  43.399245830238314,51.172401903752686
  43.39262429405747,51.175
  43.2525980962473,51.17424583023832
  43.25,51.16762429405749
  Z" />
<path fill="none" stroke="#0000FF" stroke-width="0.06614583333333333"
  d="M 43.75075416976168,49.77759809624729 L
  43.75737570594251,49.77499999999999
  43.89740190375268,49.77575416976167
  43.89999999999999,49.78237570594251
  43.899245830238314,51.172401903752686
  43.89262429405747,51.175
  43.7525980962473,51.17424583023832
  43.75,51.16762429405749
  Z" />
<path fill="none" stroke="#0000FF" stroke-width="0.06614583333333333"
  d="M 44.25075416976168,49.77759809624729 L
  44.25737570594251,49.77499999999999
  44.39740190375268,49.77575416976167
  44.39999999999999,49.78237570594251
  44.399245830238314,51.172401903752686
  44.39262429405747,51.175
  44.2525980962473,51.17424583023832
  44.25,51.16762429405749
  Z" />
<path fill="none" stroke="#0000FF" stroke-width="0.06614583333333333"
  d="M 44.75075416976168,49.77759809624729 L
  44.75737570594251,49.77499999999999
  44.89740190375268,49.77575416976167
  44.89999999999999,49.78237570594251
  44.899245830238314,51.172401903752686
  44.89262429405747,51.175
  44.7525980962473,51.17424583023832
  44.75,51.16762429405749
  Z" />
<path fill="none" stroke="#0000FF" stroke-width="0.06614583333333333"
  d="M 45.25075416976168,49.77759809624729 L
  45.25737570594251,49.77499999999999
  45.39740190375268,49.77575416976167
  45.39999999999999,49.78237570594251
  45.399245830238314,51.172401903752686
  45.39262429405747,51.175
  45.2525980962473,51.17424583023832
  45.25,51.16762429405749
  Z" />
<path fill="none" stroke="#0000FF" stroke-width="0.06614583333333333"
  d="M 45.75075416976168,49.77759809624729 L
  45.75737570594251,49.77499999999999
  45.89740190375268,49.77575416976167
  45.89999999999999,49.78237570594251
  45.899245830238314,51.172401903752686
  45.89262429405747,51.175
  45.7525980962473,51.17424583023832
  45.75,51.16762429405749
  Z" />
<path fill="none" stroke="#0000FF" stroke-width="0.06614583333333333"
  d="M 46.25075416976168,49.77759809624729 L
  46.25737570594251,49.77499999999999
  46.39740190375268,49.77575416976167
  46.39999999999999,49.78237570594251
  46.399245830238314,51.172401903752686
  46.39262429405747,51.175
  46.2525980962473,51.17424583023832
  46.25,51.16762429405749
  Z" />
<path fill="none" stroke="#0000FF" stroke-width="0.06614583333333333"
  d="M 46.75075416976168,49.77759809624729 L
  46.75737570594251,49.77499999999999
  46.89740190375268,49.77575416976167
  46.89999999999999,49.78237570594251
  46.899245830238314,51.172401903752686
  46.89262429405747,51.175
  46.7525980962473,51.17424583023832
  46.75,51.16762429405749
  Z" />
<path fill="none" stroke="#0000FF" stroke-width="0.06614583333333333"
  d="M 47.25075416976168,49.77759809624729 L
  47.25737570594251,49.77499999999999
  47.39740190375268,49.77575416976167
  47.39999999999999,49.78237570594251
  47.399245830238314,51.172401903752686
  47.39262429405747,51.175
  47.2525980962473,51.17424583023832
  47.25,51.16762429405749
  Z" />
<path fill="none" stroke="#0000FF" stroke-width="0.06614583333333333"
  d="M 47.75075416976168,49.77759809624729 L
  47.75737570594251,49.77499999999999
  47.89740190375268,49.77575416976167
  47.89999999999999,49.78237570594251
  47.899245830238314,51.172401903752686
  47.89262429405747,51.175
  47.7525980962473,51.17424583023832
  47.75,51.16762429405749
  Z" />
<path fill="none" stroke="#0000FF" stroke-width="0.06614583333333333"
  d="M 48.25075416976168,49.77759809624729 L
  48.25737570594251,49.77499999999999
  48.39740190375268,49.77575416976167
  48.39999999999999,49.78237570594251
  48.399245830238314,51.172401903752686
  48.39262429405747,51.175
  48.2525980962473,51.17424583023832
  48.25,51.16762429405749
  Z" />
<path fill="none" stroke="#0000FF" stroke-width="0.06614583333333333"
  d="M 48.75075416976168,49.77759809624729 L
  48.75737570594251,49.77499999999999
  48.89740190375268,49.77575416976167
  48.89999999999999,49.78237570594251
  48.899245830238314,51.172401903752686
  48.89262429405747,51.175
  48.7525980962473,51.17424583023832
  48.75,51.16762429405749
  Z" />
<path fill="none" stroke="#0000FF" stroke-width="0.06614583333333333"
  d="M 49.25075416976168,49.77759809624729 L
  49.25737570594251,49.77499999999999
  49.39740190375268,49.77575416976167
  49.39999999999999,49.78237570594251
  49.399245830238314,51.172401903752686
  49.39262429405747,51.175
  49.2525980962473,51.17424583023832
  49.25,51.16762429405749
  Z" />
<path fill="none" stroke="#0000FF" stroke-width="0.06614583333333333"
  d="M 49.75075416976168,49.77759809624729 L
  49.75737570594251,49.77499999999999
  49.89740190375268,49.77575416976167
  49.89999999999999,49.78237570594251
  49.899245830238314,51.172401903752686
  49.89262429405747,51.175
  49.7525980962473,51.17424583023832
  49.75,51.16762429405749
  Z" />
<path fill="none" stroke="#0000FF" stroke-width="0.06614583333333333"
  d="M 50.25075416976168,49.77759809624729 L
  50.25737570594251,49.77499999999999
  50.39740190375268,49.77575416976167
  50.39999999999999,49.78237570594251
  50.399245830238314,51.172401903752686
  50.39262429405747,51.175
  50.2525980962473,51.17424583023832
  50.25,51.16762429405749
  Z" />
<path fill="none" stroke="#0000FF" stroke-width="0.06614583333333333"
  d="M 50.75075416976168,49.77759809624729 L
  50.75737570594251,49.77499999999999
  50.89740190375268,49.77575416976167
  50.89999999999999,49.78237570594251
  50.899245830238314,51.172401903752686
  50.89262429405747,51.175
  50.7525980962473,51.17424583023832
  50.75,51.16762429405749
  Z" />
<path fill="none" stroke="#0000FF" stroke-width="0.06614583333333333"
  d="M 52.050754169761674,48.477598096247306 L
  52.05737570594252,48.474999999999994
  53.44740190375268,48.47575416976167
  53.44999999999999,48.482375705942516
  53.44924583023831,48.62240190375269
  53.44262429405748,48.624999999999986
  52.052598096247294,48.62424583023831
  52.05,48.61762429405749
  Z" />
<path fill="none" stroke="#0000FF" stroke-width="0.06614583333333333"
  d="M 52.050754169761674,47.977598096247306 L
  52.05737570594252,47.974999999999994
  53.44740190375268,47.97575416976167
  53.44999999999999,47.982375705942516
  53.44924583023831,48.12240190375269
  53.44262429405748,48.124999999999986
  52.052598096247294,48.12424583023831
  52.05,48.11762429405749
  Z" />
<path fill="none" stroke="#0000FF" stroke-width="0.06614583333333333"
  d="M 52.050754169761674,47.477598096247306 L
  52.05737570594252,47.474999999999994
  53.44740190375268,47.47575416976167
  53.44999999999999,47.482375705942516
  53.44924583023831,47.62240190375269
  53.44262429405748,47.624999999999986
  52.052598096247294,47.62424583023831
  52.05,47.61762429405749
  Z" />
<path fill="none" stroke="#0000FF" stroke-width="0.06614583333333333"
  d="M 52.050754169761674,46.977598096247306 L
  52.05737570594252,46.974999999999994
  53.44740190375268,46.97575416976167
  53.44999999999999,46.982375705942516
  53.44924583023831,47.12240190375269
  53.44262429405748,47.124999999999986
  52.052598096247294,47.12424583023831
  52.05,47.11762429405749
  Z" />
<path fill="none" stroke="#0000FF" stroke-width="0.06614583333333333"
  d="M 52.050754169761674,46.477598096247306 L
  52.05737570594252,46.474999999999994
  53.44740190375268,46.47575416976167
  53.44999999999999,46.482375705942516
  53.44924583023831,46.62240190375269
  53.44262429405748,46.624999999999986
  52.052598096247294,46.62424583023831
  52.05,46.61762429405749
  Z" />
<path fill="none" stroke="#0000FF" stroke-width="0.06614583333333333"
  d="M 52.050754169761674,45.977598096247306 L
  52.05737570594252,45.974999999999994
  53.44740190375268,45.97575416976167
  53.44999999999999,45.982375705942516
  53.44924583023831,46.12240190375269
  53.44262429405748,46.124999999999986
  52.052598096247294,46.12424583023831
  52.05,46.11762429405749
  Z" />
<path fill="none" stroke="#0000FF" stroke-width="0.06614583333333333"
  d="M 52.050754169761674,45.477598096247306 L
  52.05737570594252,45.474999999999994
  53.44740190375268,45.47575416976167
  53.44999999999999,45.482375705942516
  53.44924583023831,45.62240190375269
  53.44262429405748,45.624999999999986
  52.052598096247294,45.62424583023831
  52.05,45.61762429405749
  Z" />
<path fill="none" stroke="#0000FF" stroke-width="0.06614583333333333"
  d="M 52.050754169761674,44.977598096247306 L
  52.05737570594252,44.974999999999994
  53.44740190375268,44.97575416976167
  53.44999999999999,44.982375705942516
  53.44924583023831,45.12240190375269
  53.44262429405748,45.124999999999986
  52.052598096247294,45.12424583023831
  52.05,45.11762429405749
  Z" />
<path fill="none" stroke="#0000FF" stroke-width="0.06614583333333333"
  d="M 52.050754169761674,44.477598096247306 L
  52.05737570594252,44.474999999999994
  53.44740190375268,44.47575416976167
  53.44999999999999,44.482375705942516
  53.44924583023831,44.62240190375269
  53.44262429405748,44.624999999999986
  52.052598096247294,44.62424583023831
  52.05,44.61762429405749
  Z" />
<path fill="none" stroke="#0000FF" stroke-width="0.06614583333333333"
  d="M 52.050754169761674,43.977598096247306 L
  52.05737570594252,43.974999999999994
  53.44740190375268,43.97575416976167
  53.44999999999999,43.982375705942516
  53.44924583023831,44.12240190375269
  53.44262429405748,44.124999999999986
  52.052598096247294,44.12424583023831
  52.05,44.11762429405749
  Z" />
<path fill="none" stroke="#0000FF" stroke-width="0.06614583333333333"
  d="M 52.050754169761674,43.477598096247306 L
  52.05737570594252,43.474999999999994
  53.44740190375268,43.47575416976167
  53.44999999999999,43.482375705942516
  53.44924583023831,43.62240190375269
  53.44262429405748,43.624999999999986
  52.052598096247294,43.62424583023831
  52.05,43.61762429405749
  Z" />
<path fill="none" stroke="#0000FF" stroke-width="0.06614583333333333"
  d="M 52.050754169761674,42.977598096247306 L
  52.05737570594252,42.974999999999994
  53.44740190375268,42.97575416976167
  53.44999999999999,42.982375705942516
  53.44924583023831,43.12240190375269
  53.44262429405748,43.124999999999986
  52.052598096247294,43.12424583023831
  52.05,43.11762429405749
  Z" />
<path fill="none" stroke="#0000FF" stroke-width="0.06614583333333333"
  d="M 52.050754169761674,42.477598096247306 L
  52.05737570594252,42.474999999999994
  53.44740190375268,42.47575416976167
  53.44999999999999,42.482375705942516
  53.44924583023831,42.62240190375269
  53.44262429405748,42.624999999999986
  52.052598096247294,42.62424583023831
  52.05,42.61762429405749
  Z" />
<path fill="none" stroke="#0000FF" stroke-width="0.06614583333333333"
  d="M 52.050754169761674,41.977598096247306 L
  52.05737570594252,41.974999999999994
  53.44740190375268,41.97575416976167
  53.44999999999999,41.982375705942516
  53.44924583023831,42.12240190375269
  53.44262429405748,42.124999999999986
  52.052598096247294,42.12424583023831
  52.05,42.11762429405749
  Z" />
<path fill="none" stroke="#0000FF" stroke-width="0.06614583333333333"
  d="M 52.050754169761674,41.477598096247306 L
  52.05737570594252,41.474999999999994
  53.44740190375268,41.47575416976167
  53.44999999999999,41.482375705942516
  53.44924583023831,41.62240190375269
  53.44262429405748,41.624999999999986
  52.052598096247294,41.62424583023831
  52.05,41.61762429405749
  Z" />
<path fill="none" stroke="#0000FF" stroke-width="0.06614583333333333"
  d="M 52.050754169761674,40.977598096247306 L
  52.05737570594252,40.974999999999994
  53.44740190375268,40.97575416976167
  53.44999999999999,40.982375705942516
  53.44924583023831,41.12240190375269
  53.44262429405748,41.124999999999986
  52.052598096247294,41.12424583023831
  52.05,41.11762429405749
  Z" />
<path fill="none" stroke="#0000FF" stroke-width="0.06614583333333333"
  d="M 50.75075416976168,38.427598096247294 L
  50.75737570594251,38.425
  50.89740190375268,38.425754169761674
  50.89999999999999,38.43237570594252
  50.899245830238314,39.82240190375268
  50.892624294057484,39.82499999999999
  50.7525980962473,39.82424583023831
  50.75,39.81762429405748
  Z" />
<path fill="none" stroke="#0000FF" stroke-width="0.06614583333333333"
  d="M 50.25075416976168,38.427598096247294 L
  50.25737570594251,38.425
  50.39740190375268,38.425754169761674
  50.39999999999999,38.43237570594252
  50.399245830238314,39.82240190375268
  50.392624294057484,39.82499999999999
  50.2525980962473,39.82424583023831
  50.25,39.81762429405748
  Z" />
<path fill="none" stroke="#0000FF" stroke-width="0.06614583333333333"
  d="M 49.75075416976168,38.427598096247294 L
  49.75737570594251,38.425
  49.89740190375268,38.425754169761674
  49.89999999999999,38.43237570594252
  49.899245830238314,39.82240190375268
  49.892624294057484,39.82499999999999
  49.7525980962473,39.82424583023831
  49.75,39.81762429405748
  Z" />
<path fill="none" stroke="#0000FF" stroke-width="0.06614583333333333"
  d="M 49.25075416976168,38.427598096247294 L
  49.25737570594251,38.425
  49.39740190375268,38.425754169761674
  49.39999999999999,38.43237570594252
  49.399245830238314,39.82240190375268
  49.392624294057484,39.82499999999999
  49.2525980962473,39.82424583023831
  49.25,39.81762429405748
  Z" />
<path fill="none" stroke="#0000FF" stroke-width="0.06614583333333333"
  d="M 48.75075416976168,38.427598096247294 L
  48.75737570594251,38.425
  48.89740190375268,38.425754169761674
  48.89999999999999,38.43237570594252
  48.899245830238314,39.82240190375268
  48.892624294057484,39.82499999999999
  48.7525980962473,39.82424583023831
  48.75,39.81762429405748
  Z" />
<path fill="none" stroke="#0000FF" stroke-width="0.06614583333333333"
  d="M 48.25075416976168,38.427598096247294 L
  48.25737570594251,38.425
  48.39740190375268,38.425754169761674
  48.39999999999999,38.43237570594252
  48.399245830238314,39.82240190375268
  48.392624294057484,39.82499999999999
  48.2525980962473,39.82424583023831
  48.25,39.81762429405748
  Z" />
<path fill="none" stroke="#0000FF" stroke-width="0.06614583333333333"
  d="M 47.75075416976168,38.427598096247294 L
  47.75737570594251,38.425
  47.89740190375268,38.425754169761674
  47.89999999999999,38.43237570594252
  47.899245830238314,39.82240190375268
  47.892624294057484,39.82499999999999
  47.7525980962473,39.82424583023831
  47.75,39.81762429405748
  Z" />
<path fill="none" stroke="#0000FF" stroke-width="0.06614583333333333"
  d="M 47.25075416976168,38.427598096247294 L
  47.25737570594251,38.425
  47.39740190375268,38.425754169761674
  47.39999999999999,38.43237570594252
  47.399245830238314,39.82240190375268
  47.392624294057484,39.82499999999999
  47.2525980962473,39.82424583023831
  47.25,39.81762429405748
  Z" />
<path fill="none" stroke="#0000FF" stroke-width="0.06614583333333333"
  d="M 46.75075416976168,38.427598096247294 L
  46.75737570594251,38.425
  46.89740190375268,38.425754169761674
  46.89999999999999,38.43237570594252
  46.899245830238314,39.82240190375268
  46.892624294057484,39.82499999999999
  46.7525980962473,39.82424583023831
  46.75,39.81762429405748
  Z" />
<path fill="none" stroke="#0000FF" stroke-width="0.06614583333333333"
  d="M 46.25075416976168,38.427598096247294 L
  46.25737570594251,38.425
  46.39740190375268,38.425754169761674
  46.39999999999999,38.43237570594252
  46.399245830238314,39.82240190375268
  46.392624294057484,39.82499999999999
  46.2525980962473,39.82424583023831
  46.25,39.81762429405748
  Z" />
<path fill="none" stroke="#0000FF" stroke-width="0.06614583333333333"
  d="M 45.75075416976168,38.427598096247294 L
  45.75737570594251,38.425
  45.89740190375268,38.425754169761674
  45.89999999999999,38.43237570594252
  45.899245830238314,39.82240190375268
  45.892624294057484,39.82499999999999
  45.7525980962473,39.82424583023831
  45.75,39.81762429405748
  Z" />
<path fill="none" stroke="#0000FF" stroke-width="0.06614583333333333"
  d="M 45.25075416976168,38.427598096247294 L
  45.25737570594251,38.425
  45.39740190375268,38.425754169761674
  45.39999999999999,38.43237570594252
  45.399245830238314,39.82240190375268
  45.392624294057484,39.82499999999999
  45.2525980962473,39.82424583023831
  45.25,39.81762429405748
  Z" />
<path fill="none" stroke="#0000FF" stroke-width="0.06614583333333333"
  d="M 44.75075416976168,38.427598096247294 L
  44.75737570594251,38.425
  44.89740190375268,38.425754169761674
  44.89999999999999,38.43237570594252
  44.899245830238314,39.82240190375268
  44.892624294057484,39.82499999999999
  44.7525980962473,39.82424583023831
  44.75,39.81762429405748
  Z" />
<path fill="none" stroke="#0000FF" stroke-width="0.06614583333333333"
  d="M 44.25075416976168,38.427598096247294 L
  44.25737570594251,38.425
  44.39740190375268,38.425754169761674
  44.39999999999999,38.43237570594252
  44.399245830238314,39.82240190375268
  44.392624294057484,39.82499999999999
  44.2525980962473,39.82424583023831
  44.25,39.81762429405748
  Z" />
<path fill="none" stroke="#0000FF" stroke-width="0.06614583333333333"
  d="M 43.75075416976168,38.427598096247294 L
  43.75737570594251,38.425
  43.89740190375268,38.425754169761674
  43.89999999999999,38.43237570594252
  43.899245830238314,39.82240190375268
  43.892624294057484,39.82499999999999
  43.7525980962473,39.82424583023831
  43.75,39.81762429405748
  Z" />
<path fill="none" stroke="#0000FF" stroke-width="0.06614583333333333"
  d="M 43.25075416976168,38.427598096247294 L
  43.25737570594251,38.425
  43.39740190375268,38.425754169761674
  43.39999999999999,38.43237570594252
  43.399245830238314,39.82240190375268
  43.392624294057484,39.82499999999999
  43.2525980962473,39.82424583023831
  43.25,39.81762429405748
  Z" />
<path fill="none" stroke="#0000FF" stroke-width="0.06614583333333333"
  d="M 69.38010558564592,47.6375 L
  69.44911273812032,47.65124069812747
  69.50133285803408,47.686167141965896
  69.5362593018725,47.738387261879666
  69.55,47.80739441435409
  69.55,48.367605585645904
  69.5362593018725,48.43661273812032
  69.50133285803408,48.48883285803409
  69.44911273812029,48.52375930187253
  69.3801055856459,48.537499999999994
  68.91989441435409,48.537499999999994
  68.85088726187969,48.52375930187253
  68.79866714196591,48.48883285803409
  68.76374069812748,48.43661273812032
  68.74999999999999,48.367605585645904
  68.74999999999999,47.80739441435409
  68.76374069812748,47.738387261879666
  68.79866714196591,47.686167141965896
  68.85088726187966,47.65124069812747
  68.91989441435406,47.6375
  Z" />
<path fill="none" stroke="#0000FF" stroke-width="0.06614583333333333"
  d="M 69.38010558564592,49.3875 L
  69.44911273812032,49.40124069812747
  69.50133285803408,49.436167141965896
  69.5362593018725,49.488387261879666
  69.55,49.55739441435409
  69.55,50.117605585645904
  69.5362593018725,50.18661273812032
  69.50133285803408,50.23883285803409
  69.44911273812029,50.27375930187253
  69.3801055856459,50.287499999999994
  68.91989441435409,50.287499999999994
  68.85088726187969,50.27375930187253
  68.79866714196591,50.23883285803409
  68.76374069812748,50.18661273812032
  68.74999999999999,50.117605585645904
  68.74999999999999,49.55739441435409
  68.76374069812748,49.488387261879666
  68.79866714196591,49.436167141965896
  68.85088726187966,49.40124069812747
  68.91989441435406,49.3875
  Z" />
<path fill="none" stroke="#0000FF" stroke-width="0.06614583333333333"
  d="M 54.844205585645895,46.5115 L
  54.91323566278511,46.52524526288471
  54.96554585166328,46.560186569333794
  55.00043636027334,46.612352960847886
  55.014099999999985,46.681354341467426
  55.014099999999985,47.26664565853257
  55.000436360273355,47.33564703915209
  54.96554585166328,47.387813430666185
  54.9132356627851,47.422754737115284
  54.844205585645895,47.436499999999995
  54.38399441435409,47.436499999999995
  54.314987261879665,47.42275930187252
  54.262767141965895,47.38783285803409
  54.22784069812745,47.33561273812032
  54.21409999999999,47.266605585645905
  54.21409999999999,46.68139441435409
  54.227840698127466,46.61238726187966
  54.262767141965895,46.56016714196589
  54.314987261879665,46.525240698127476
  54.38399441435409,46.5115
  Z" />
<path fill="none" stroke="#0000FF" stroke-width="0.06614583333333333"
  d="M 54.844205585645895,48.23649999999999 L
  54.9132356627851,48.250245262884704
  54.96554585166328,48.2851865693338
  55.00043636027334,48.337352960847895
  55.014099999999985,48.406354341467434
  55.014099999999985,48.99164565853256
  55.00043636027334,49.0606470391521
  54.96554585166328,49.11281343066619
  54.91323566278511,49.14775473711528
  54.844205585645895,49.16149999999999
  54.38399441435409,49.16149999999999
  54.314987261879665,49.14775930187251
  54.262767141965895,49.112832858034096
  54.227840698127466,49.06061273812033
  54.21409999999999,48.9916055856459
  54.21409999999999,48.4063944143541
  54.227840698127466,48.33738726187967
  54.262767141965895,48.2851671419659
  54.314987261879665,48.25024069812747
  54.38399441435409,48.23649999999999
  Z" />
<path fill="none" stroke="#0000FF" stroke-width="0.06614583333333333"
  d="M 37.519894414354084,35.537499999999994 L
  37.45088726187967,35.523759301872516
  37.39866714196589,35.48883285803409
  37.36374069812747,35.43661273812032
  37.349999999999994,35.367605585645904
  37.349999999999994,34.78239441435409
  37.36374069812747,34.713387261879674
  37.39866714196589,34.66116714196589
  37.45088726187967,34.626240698127475
  37.519894414354084,34.6125
  37.9801055856459,34.6125
  38.049112738120314,34.626240698127475
  38.101332858034084,34.66116714196589
  38.136259301872514,34.713387261879674
  38.14999999999999,34.78239441435409
  38.14999999999999,35.367605585645904
  38.13625930187253,35.43661273812032
  38.101332858034084,35.48883285803409
  38.049112738120314,35.52375930187253
  37.9801055856459,35.537499999999994
  Z" />
<path fill="none" stroke="#0000FF" stroke-width="0.06614583333333333"
  d="M 37.519894414354084,33.812499999999986 L
  37.45088726187967,33.79875930187252
  37.39866714196589,33.76383285803409
  37.36374069812747,33.71161273812032
  37.349999999999994,33.642605585645896
  37.349999999999994,33.05739441435409
  37.36374069812747,32.98838726187966
  37.39866714196589,32.936167141965896
  37.45088726187967,32.90124069812747
  37.519894414354084,32.887499999999996
  37.9801055856459,32.887499999999996
  38.049112738120314,32.90124069812747
  38.101332858034084,32.936167141965896
  38.136259301872514,32.988387261879666
  38.14999999999999,33.05739441435409
  38.14999999999999,33.642605585645896
  38.136259301872514,33.71161273812032
  38.101332858034084,33.76383285803409
  38.049112738120314,33.79875930187252
  37.9801055856459,33.812499999999986
  Z" />
<path fill="none" stroke="#0000FF" stroke-width="0.06614583333333333"
  d="M 48.254494414354085,37.66449999999999 L
  48.18548726187967,37.65075930187251
  48.13326714196589,37.615832858034096
  48.09834069812747,37.56361273812033
  48.084599999999995,37.4946055856459
  48.084599999999995,36.9093944143541
  48.098345262884706,36.84036433721488
  48.13326712741227,36.78808325459205
  48.185452935832856,36.75324753312688
  48.254494414354085,36.73949999999999
  48.7147055856459,36.73949999999999
  48.78376996767804,36.75325209367196
  48.836016730868025,36.78808326913196
  48.870847906328024,36.840330032321944
  48.88459999999999,36.9093944143541
  48.88459999999999,37.4946055856459
  48.8708524668731,37.56364706416713
  48.83601674540793,37.61583287258772
  48.783735662785105,37.65075473711528
  48.7147055856459,37.66449999999999
  Z" />
<path fill="none" stroke="#0000FF" stroke-width="0.06614583333333333"
  d="M 48.254494414354085,35.939499999999995 L
  48.18548726187967,35.92575930187252
  48.13326714196589,35.89083285803409
  48.09834069812747,35.83861273812032
  48.084599999999995,35.769605585645905
  48.084599999999995,35.18439441435409
  48.098345262884706,35.115364337214885
  48.13326712741225,35.06308325459207
  48.185452935832856,35.02824753312689
  48.254494414354085,35.0145
  48.7147055856459,35.0145
  48.78376996767804,35.028252093671966
  48.83601673086804,35.063083269131965
  48.870847906328024,35.115330032321936
  48.88459999999999,35.18439441435409
  48.88459999999999,35.769605585645905
  48.8708524668731,35.83864706416712
  48.83601674540793,35.89083287258772
  48.78373566278509,35.9257547371153
  48.7147055856459,35.939499999999995
  Z" />
<path fill="none" stroke="#0000FF" stroke-width="0.06614583333333333"
  d="M 33.846199999999996,46.91989441435409 L
  33.859947533126885,46.85085293583286
  33.894783254592056,46.79866712741226
  33.94706433721488,46.76374526288471
  34.016094414354086,46.75
  34.60130558564589,46.75
  34.670312738120316,46.76374069812748
  34.722532858034086,46.79866714196589
  34.757459301872515,46.85088726187966
  34.77119999999999,46.91989441435409
  34.77119999999999,47.38010558564589
  34.757459301872515,47.44911273812032
  34.722532858034086,47.50133285803409
  34.670312738120316,47.53625930187252
  34.60130558564589,47.55
  34.016094414354086,47.55
  33.94706433721488,47.5362547371153
  33.89478325459207,47.501332872587724
  33.859947533126885,47.44914706416712
  33.846199999999996,47.38010558564589
  Z" />
<path fill="none" stroke="#0000FF" stroke-width="0.06614583333333333"
  d="M 35.57119999999999,46.91989441435409 L
  35.58494753312688,46.85085293583286
  35.61978325459205,46.79866712741227
  35.67206433721488,46.76374526288471
  35.74109441435408,46.75
  36.3263055856459,46.75
  36.395312738120325,46.76374069812748
  36.447532858034094,46.79866714196589
  36.48245930187251,46.85088726187966
  36.49619999999999,46.91989441435409
  36.49619999999999,47.38010558564589
  36.48245930187251,47.44911273812032
  36.447532858034094,47.50133285803409
  36.395312738120325,47.53625930187252
  36.3263055856459,47.55
  35.74109441435408,47.55
  35.67206433721489,47.5362547371153
  35.61978325459205,47.501332872587724
  35.58494753312688,47.44914706416712
  35.57119999999999,47.38010558564589
  Z" />
<path fill="none" stroke="#0000FF" stroke-width="0.06614583333333333"
  d="M 34.39619999999999,45.492599999999996 L
  34.14619999999999,45.492599999999996
  34.14619999999999,44.992599999999996
  34.39619999999999,44.992599999999996
  Z" />
<path fill="none" stroke="#0000FF" stroke-width="0.06614583333333333"
  d="M 35.046199999999985,45.492599999999996 L
  34.7962,45.492599999999996
  34.7962,44.992599999999996
  35.046199999999985,44.992599999999996
  Z" />
<path fill="none" stroke="#0000FF" stroke-width="0.06614583333333333"
  d="M 35.69619999999999,45.492599999999996 L
  35.44619999999999,45.492599999999996
  35.44619999999999,44.992599999999996
  35.69619999999999,44.992599999999996
  Z" />
<path fill="none" stroke="#0000FF" stroke-width="0.06614583333333333"
  d="M 35.69619999999999,43.59259999999999 L
  35.44619999999999,43.59259999999999
  35.44619999999999,43.09259999999999
  35.69619999999999,43.09259999999999
  Z" />
<path fill="none" stroke="#0000FF" stroke-width="0.06614583333333333"
  d="M 35.046199999999985,43.59259999999999 L
  34.7962,43.59259999999999
  34.7962,43.09259999999999
  35.046199999999985,43.09259999999999
  Z" />
<path fill="none" stroke="#0000FF" stroke-width="0.06614583333333333"
  d="M 34.39619999999999,43.59259999999999 L
  34.14619999999999,43.59259999999999
  34.14619999999999,43.09259999999999
  34.39619999999999,43.09259999999999
  Z" />
<path fill="none" stroke="#0000FF" stroke-width="0.06614583333333333"
  d="M 37.98660558564589,36.7718 L
  38.05561273812032,36.78554069812748
  38.10783285803409,36.82046714196589
  38.142759301872516,36.87268726187966
  38.156499999999994,36.94169441435409
  38.156499999999994,37.52690558564589
  38.14275473711528,37.595935662785095
  38.10783287258772,37.648216745407936
  38.05564706416712,37.68305246687311
  37.98660558564589,37.696799999999996
  37.52639441435409,37.696799999999996
  37.457330032321934,37.68304790632803
  37.40508326913195,37.64821673086804
  37.370252093671965,37.595969967678045
  37.3565,37.52690558564589
  37.3565,36.94169441435409
  37.370247533126886,36.872652935832846
  37.40508325459206,36.82046712741226
  37.45736433721487,36.78554526288471
  37.52639441435409,36.7718
  Z" />
<path fill="none" stroke="#0000FF" stroke-width="0.06614583333333333"
  d="M 37.98660558564589,38.49679999999999 L
  38.05561273812032,38.51054069812747
  38.10783285803409,38.5454671419659
  38.14275930187253,38.59768726187967
  38.156499999999994,38.66669441435408
  38.156499999999994,39.2519055856459
  38.1427547371153,39.320935662785104
  38.10783287258772,39.373216745407916
  38.05564706416712,39.4080524668731
  37.98660558564589,39.42179999999999
  37.52639441435409,39.42179999999999
  37.457330032321934,39.40804790632802
  37.40508326913195,39.37321673086802
  37.370252093671965,39.32096996767805
  37.3565,39.2519055856459
  37.3565,38.66669441435408
  37.370247533126886,38.597652935832855
  37.40508325459206,38.545467127412266
  37.457364337214884,38.510545262884705
  37.52639441435409,38.49679999999999
  Z" />
<path fill="none" stroke="#0000FF" stroke-width="0.06614583333333333"
  d="M 32.84263059047778,43.23389999999999 L
  32.86282473267538,43.23970525127257
  32.87174981986105,43.24989021224303
  32.874999999999986,43.266269409522195
  32.874999999999986,43.4515305904778
  32.86919474872742,43.47172473267537
  32.859009787756946,43.48064981986106
  32.842630590477796,43.48389999999999
  31.707369409522187,43.48389999999999
  31.68717526732462,43.478094748727415
  31.67825018013893,43.46790978775695
  31.674999999999997,43.4515305904778
  31.674999999999997,43.266269409522195
  31.68080525127256,43.24607526732461
  31.690990212243037,43.23715018013894
  31.7073694095222,43.23389999999999
  Z" />
<path fill="none" stroke="#0000FF" stroke-width="0.06614583333333333"
  d="M 32.842630590477796,43.8839 L
  32.862824732675364,43.889705251272574
  32.87174981986105,43.89989021224304
  32.874999999999986,43.91626940952219
  32.874999999999986,44.10153059047779
  32.86919474872742,44.121724732675375
  32.859009787756946,44.13064981986105
  32.84263059047778,44.1339
  31.7073694095222,44.1339
  31.687175267324605,44.12809474872742
  31.67825018013893,44.11790978775696
  31.674999999999997,44.10153059047779
  31.674999999999997,43.91626940952219
  31.68080525127256,43.89607526732462
  31.690990212243037,43.88715018013893
  31.707369409522187,43.8839
  Z" />
<path fill="none" stroke="#0000FF" stroke-width="0.06614583333333333"
  d="M 32.842630590477796,44.5339 L
  32.86282473267538,44.53970525127258
  32.87174981986105,44.54989021224303
  32.874999999999986,44.56626940952219
  32.874999999999986,44.7515305904778
  32.86919474872742,44.77172473267537
  32.859009787756946,44.780649819861054
  32.842630590477796,44.78389999999999
  31.707369409522187,44.78389999999999
  31.68717526732462,44.778094748727426
  31.67825018013893,44.76790978775695
  31.674999999999997,44.7515305904778
  31.674999999999997,44.56626940952219
  31.68080525127256,44.546075267324625
  31.690990212243037,44.53715018013894
  31.707369409522187,44.5339
  Z" />
<path fill="none" stroke="#0000FF" stroke-width="0.06614583333333333"
  d="M 32.842630590477796,45.183899999999994 L
  32.862824732675364,45.18970525127256
  32.87174981986105,45.199890212243034
  32.874999999999986,45.2162694095222
  32.874999999999986,45.40153059047779
  32.86919474872742,45.42172473267537
  32.859009787756946,45.43064981986106
  32.842630590477796,45.433899999999994
  31.707369409522187,45.433899999999994
  31.68717526732462,45.42809474872743
  31.67825018013893,45.417909787756955
  31.674999999999997,45.40153059047779
  31.674999999999997,45.2162694095222
  31.68080525127256,45.196075267324616
  31.690990212243037,45.18715018013893
  31.707369409522187,45.183899999999994
  Z" />
<path fill="none" stroke="#0000FF" stroke-width="0.06614583333333333"
  d="M 32.842630590477796,45.8339 L
  32.862824732675364,45.83970525127256
  32.87174981986105,45.84989021224304
  32.874999999999986,45.86626940952219
  32.874999999999986,46.051530590477796
  32.86919474872742,46.071724732675364
  32.859009787756946,46.08064981986105
  32.842630590477796,46.083899999999986
  31.707369409522187,46.083899999999986
  31.687175267324605,46.07809474872741
  31.67825018013893,46.06790978775696
  31.674999999999997,46.051530590477796
  31.674999999999997,45.86626940952219
  31.68080525127256,45.84607526732462
  31.690990212243037,45.837150180138934
  31.707369409522187,45.8339
  Z" />
<path fill="none" stroke="#0000FF" stroke-width="0.06614583333333333"
  d="M 32.49262681390391,40.73389999999999 L
  32.56644466211601,40.74855558114973
  32.62272899523609,40.78617100476389
  32.66034441885026,40.84245533788396
  32.67499999999998,40.91627318609605
  32.67499999999998,42.001526813903936
  32.66034441885026,42.075344662116024
  32.62272899523609,42.1316289952361
  32.56644466211601,42.169244418850255
  32.49262681390391,42.183899999999994
  31.60737318609607,42.183899999999994
  31.533555337883968,42.169244418850255
  31.477271004763892,42.1316289952361
  31.439655581149722,42.075344662116024
  31.424999999999997,42.001526813903936
  31.424999999999997,40.91627318609605
  31.439655581149722,40.84245533788396
  31.477271004763892,40.78617100476389
  31.533555337883968,40.74855558114973
  31.60737318609607,40.73389999999999
  Z" />
<path fill="none" stroke="#0000FF" stroke-width="0.06614583333333333"
  d="M 32.49262681390391,47.1339 L
  32.56644466211601,47.148555581149736
  32.62272899523609,47.18617100476389
  32.66034441885026,47.24245533788397
  32.67499999999998,47.316273186096055
  32.67499999999998,48.40152681390393
  32.66034441885026,48.475344662116015
  32.62272899523609,48.53162899523609
  32.56644466211601,48.56924441885026
  32.492626813903925,48.583899999999986
  31.607373186096055,48.583899999999986
  31.533555337883968,48.56924441885026
  31.477271004763892,48.53162899523609
  31.439655581149722,48.475344662116015
  31.424999999999997,48.40152681390393
  31.424999999999997,47.316273186096055
  31.439655581149722,47.24245533788397
  31.477271004763892,47.18617100476389
  31.533555337883968,47.148555581149736
  31.60737318609607,47.1339
  Z" />
<path fill="none" stroke="#0000FF" stroke-width="0.06614583333333333"
  d="M 30.292626813903937,42.5839 L
  30.366444662116024,42.598555581149725
  30.4227289952361,42.636171004763895
  30.460344418850255,42.69245533788397
  30.474999999999994,42.76627318609607
  30.474999999999994,44.151526813903914
  30.460344418850255,44.225344662116015
  30.4227289952361,44.28162899523609
  30.366444662116024,44.31924441885026
  30.292626813903937,44.333899999999986
  28.907373186096052,44.333899999999986
  28.833555337883965,44.31924441885026
  28.77727100476389,44.28162899523609
  28.739655581149734,44.225344662116015
  28.724999999999994,44.151526813903914
  28.724999999999994,42.76627318609607
  28.739655581149734,42.69245533788397
  28.77727100476389,42.636171004763895
  28.833555337883965,42.598555581149725
  28.907373186096052,42.5839
  Z" />
<path fill="none" stroke="#0000FF" stroke-width="0.06614583333333333"
  d="M 30.292626813903922,44.98389999999999 L
  30.366444662116024,44.99855558114973
  30.4227289952361,45.03617100476389
  30.460344418850255,45.09245533788396
  30.474999999999994,45.16627318609606
  30.474999999999994,46.55152681390392
  30.460344418850255,46.62534466211602
  30.4227289952361,46.681628995236096
  30.366444662116024,46.71924441885025
  30.292626813903922,46.73389999999999
  28.907373186096066,46.73389999999999
  28.833555337883965,46.71924441885025
  28.77727100476389,46.681628995236096
  28.739655581149734,46.62534466211602
  28.724999999999994,46.55152681390392
  28.724999999999994,45.16627318609606
  28.739655581149734,45.09245533788396
  28.77727100476389,45.03617100476389
  28.833555337883965,44.99855558114973
  28.907373186096066,44.98389999999999
  Z" />
<path fill="none" stroke="#0000FF" stroke-width="0.06614583333333333"
  d="M 29.019894414354084,62.474999999999994 L
  28.95088726187967,62.461259301872516
  28.898667141965888,62.42633285803409
  28.863740698127472,62.37411273812032
  28.849999999999994,62.305105585645904
  28.849999999999994,61.819894414354096
  28.863740698127472,61.75088726187967
  28.898667141965888,61.6986671419659
  28.95088726187967,61.66374069812747
  29.019894414354084,61.64999999999999
  29.4801055856459,61.64999999999999
  29.549112738120314,61.663740698127455
  29.601332858034084,61.6986671419659
  29.636259301872514,61.75088726187967
  29.64999999999999,61.819894414354096
  29.64999999999999,62.305105585645904
  29.636259301872528,62.37411273812032
  29.601332858034084,62.42633285803409
  29.549112738120314,62.46125930187253
  29.4801055856459,62.474999999999994
  Z" />
<path fill="none" stroke="#0000FF" stroke-width="0.06614583333333333"
  d="M 29.019894414354084,60.64999999999999 L
  28.95088726187967,60.636259301872514
  28.898667141965888,60.6013328580341
  28.863740698127472,60.549112738120314
  28.849999999999994,60.4801055856459
  28.849999999999994,59.99489441435409
  28.863740698127472,59.925887261879666
  28.898667141965888,59.873667141965896
  28.95088726187967,59.83874069812747
  29.019894414354084,59.825
  29.4801055856459,59.825
  29.549112738120314,59.83874069812747
  29.601332858034084,59.873667141965896
  29.636259301872514,59.925887261879666
  29.64999999999999,59.99489441435409
  29.64999999999999,60.4801055856459
  29.636259301872514,60.549112738120314
  29.601332858034084,60.6013328580341
  29.549112738120314,60.636259301872514
  29.4801055856459,60.64999999999999
  Z" />
<path fill="none" stroke="#000000" stroke-width="0.06614583333333333"
  d="M 72.45,43.849999999999994 L
  67.74999999999999,43.849999999999994
  67.57635182233305,43.8348077530122
  67.40797985667432,43.7896926207859
  67.24999999999999,43.71602540378443
  67.10721239031345,43.616044443118966
  66.98395555688101,43.49278760968653
  66.88397459621554,43.349999999999994
  66.81030737921408,43.192020143325664
  66.76519224698778,43.02364817766693
  66.74999999999999,42.849999999999994
  66.74999999999999,33.24999999999999
  66.73480775301219,33.07635182233306
  66.68969262078589,32.907979856674324
  66.61602540378443,32.74999999999999
  66.51604444311896,32.60721239031346
  66.39278760968652,32.483955556881014
  66.24999999999999,32.38397459621555
  66.09202014332566,32.31030737921409
  65.92364817766692,32.26519224698779
  65.74999999999999,32.24999999999999
  29.14999999999999,32.24999999999999
  28.976351822333058,32.26519224698779
  28.807979856674322,32.31030737921409
  28.64999999999999,32.38397459621555
  28.507212390313455,32.483955556881014
  28.38395555688102,32.60721239031346
  28.283974596215558,32.74999999999999
  28.210307379214086,32.907979856674324
  28.165192246987786,33.07635182233306
  28.14999999999999,33.24999999999999
  28.14999999999999,68.35
  28.165192246987786,68.52364817766693
  28.210307379214086,68.69202014332566
  28.283974596215558,68.85
  28.38395555688102,68.99278760968653
  28.507212390313455,69.11604444311897
  28.64999999999999,69.21602540378443
  28.807979856674322,69.2896926207859
  28.976351822333058,69.3348077530122
  29.14999999999999,69.35
  50.55,69.35
  50.72364817766693,69.3348077530122
  50.89202014332567,69.2896926207859
  51.05,69.21602540378443
  51.19278760968653,69.11604444311897
  51.31604444311897,68.99278760968653
  51.41602540378443,68.85
  51.4896926207859,68.69202014332566
  51.5348077530122,68.52364817766693
  51.55,68.35
  51.55,63.14999999999999
  51.56519224698779,62.97635182233306
  51.61030737921409,62.80797985667432
  51.68397459621556,62.64999999999999
  51.783955556881025,62.507212390313455
  51.90721239031346,62.38395555688102
  52.05,62.28397459621556
  52.20797985667433,62.210307379214086
  52.37635182233306,62.165192246987786
  52.55,62.14999999999999
  65.55,62.14999999999999
  65.72364817766693,62.1348077530122
  65.89202014332567,62.0896926207859
  66.05,62.016025403784425
  66.19278760968653,61.91604444311896
  66.31604444311897,61.79278760968653
  66.41602540378445,61.64999999999999
  66.4896926207859,61.49202014332566
  66.5348077530122,61.323648177666925
  66.55,61.14999999999999
  66.55,58.94999999999999
  66.56519224698779,58.776351822333055
  66.61030737921409,58.60797985667432
  66.68397459621555,58.44999999999999
  66.78395555688103,58.30721239031345
  66.90721239031346,58.18395555688102
  67.05,58.083974596215555
  67.20797985667433,58.01030737921408
  67.37635182233306,57.96519224698778
  67.55,57.94999999999999
  72.45,57.94999999999999
  72.62364817766694,57.934807753012194
  72.79202014332567,57.889692620785894
  72.95,57.81602540378442
  73.09278760968654,57.71604444311896
  73.21604444311897,57.592787609686525
  73.31602540378445,57.44999999999999
  73.38969262078591,57.29202014332566
  73.43480775301221,57.12364817766692
  73.45,56.94999999999999
  73.45,44.849999999999994
  73.43480775301221,44.67635182233306
  73.38969262078591,44.507979856674325
  73.31602540378445,44.349999999999994
  73.21604444311897,44.20721239031346
  73.09278760968654,44.08395555688102
  72.95,43.98397459621556
  72.79202014332567,43.91030737921409
  72.62364817766694,43.86519224698779
  Z" />
</svg>