M48
; DRILL file {KiCad 7.0.8} date Fri Apr 19 19:41:25 2024
; FORMAT={-:-/ absolute / metric / decimal}
; #@! TF.CreationDate,2024-04-19T19:41:25-04:00
; #@! TF.GenerationSoftware,Kicad,Pcbnew,7.0.8
; #@! TF.FileFunction,Plated,1,2,PTH
FMAT,2
METRIC
; #@! TA.AperFunction,Plated,PTH,ViaDrill
T1C0.300
; #@! TA.AperFunction,Plated,PTH,ViaDrill
T2C0.500
; #@! TA.AperFunction,Plated,PTH,ComponentDrill
T3C0.500
; #@! TA.AperFunction,Plated,PTH,ComponentDrill
T4C1.000
; #@! TA.AperFunction,Plated,PTH,ComponentDrill
T5C1.020
%
G90
G05
T1
X102.8Y-64.0
X104.087Y-82.33
X104.8Y-71.4
X105.34Y-80.19
X105.4Y-74.0
X105.4Y-75.799
X106.097Y-69.1
X107.4Y-73.2
X108.4Y-69.8
X110.0Y-65.5
X111.3Y-76.5
X111.57Y-71.95
X111.61Y-73.57
X111.62Y-77.91
X111.63Y-78.9
X111.8Y-84.0
X113.3Y-73.7
X113.6Y-64.049
X114.8Y-75.3
X115.0Y-73.5
X116.17Y-79.88
X116.9Y-75.4
X117.8Y-64.037
X117.808Y-66.443
X117.91Y-71.23
X118.7Y-73.099
X119.0Y-76.5
X119.9Y-73.8
X119.9Y-74.647
X120.304Y-73.044
X120.32Y-78.36
X120.899Y-82.018
X121.0Y-64.031
X122.8Y-64.032
X122.8Y-66.6
X122.8Y-68.2
X123.474Y-80.326
X124.6Y-74.9
X124.8Y-72.099
X124.944Y-74.0
X125.7Y-72.8
X126.5Y-71.2
X127.626Y-80.174
X128.376Y-80.924
X129.2Y-68.8
X132.292Y-69.4
X135.2Y-75.6
X135.2Y-80.5
T2
X105.2Y-76.8
X112.9Y-75.0
X118.1Y-74.5
X119.054Y-71.332
X119.999Y-76.6
X126.55Y-91.85
X132.5Y-89.7
T4
X106.56Y-88.06
X106.56Y-90.6
X109.1Y-88.06
X109.1Y-90.6
X111.64Y-88.06
X111.64Y-90.6
X114.18Y-88.06
X114.18Y-90.6
X116.72Y-88.06
X116.72Y-90.6
X119.26Y-88.06
X119.26Y-90.6
X121.8Y-88.06
X121.8Y-90.6
X124.34Y-88.06
X124.34Y-90.6
X131.065Y-64.995
X131.065Y-67.535
X131.065Y-70.075
X131.065Y-72.615
X131.065Y-75.155
X131.065Y-77.695
X131.065Y-80.235
X131.065Y-82.775
X133.605Y-64.995
X133.605Y-67.535
X133.605Y-70.075
X133.605Y-72.615
X133.605Y-75.155
X133.605Y-77.695
X133.605Y-80.235
X133.605Y-82.775
X140.6Y-76.472
X140.6Y-79.013
X140.6Y-81.552
X140.6Y-84.093
X140.6Y-86.632
T5
X101.06Y-95.46
X101.06Y-98.0
X103.6Y-95.46
X103.6Y-98.0
X106.14Y-95.46
X106.14Y-98.0
X108.68Y-95.46
X108.68Y-98.0
X111.22Y-95.46
X111.22Y-98.0
X113.76Y-95.46
X113.76Y-98.0
X116.3Y-95.46
X116.3Y-98.0
T3
X98.1Y-72.009G85X98.8Y-72.009
G05
X98.1Y-78.609G85X98.8Y-78.609
G05
T0
M30
