%TF.GenerationSoftware,KiCad,Pcbnew,7.0.8*%
%TF.CreationDate,2024-04-19T19:41:27-04:00*%
%TF.ProjectId,programmer,70726f67-7261-46d6-9d65-722e6b696361,rev?*%
%TF.SameCoordinates,Original*%
%TF.FileFunction,Drillmap*%
%TF.FilePolarity,Positive*%
%FSLAX45Y45*%
G04 Gerber Fmt 4.5, Leading zero omitted, Abs format (unit mm)*
G04 Created by KiCad (PCBNEW 7.0.8) date 2024-04-19 19:41:27*
%MOMM*%
%LPD*%
G01*
G04 APERTURE LIST*
%ADD10C,0.100000*%
%ADD11C,0.200000*%
%ADD12C,0.030000*%
%ADD13C,0.050000*%
%ADD14C,0.102000*%
G04 APERTURE END LIST*
D10*
X9800000Y-6290000D02*
X13460000Y-6290000D01*
X9700000Y-9900000D02*
X9700000Y-6390000D01*
X14130000Y-8860000D02*
X13640000Y-8860000D01*
X14130000Y-8860000D02*
G75*
G03*
X14230000Y-8760000I0J100000D01*
G01*
X13560000Y-7350000D02*
G75*
G03*
X13660000Y-7450000I100000J0D01*
G01*
X13560000Y-6390000D02*
X13560000Y-7350000D01*
X13660000Y-7450000D02*
X14130000Y-7450000D01*
X11940000Y-10000000D02*
G75*
G03*
X12040000Y-9900000I0J100000D01*
G01*
X13560000Y-6390000D02*
G75*
G03*
X13460000Y-6290000I-100000J0D01*
G01*
X14230000Y-7550000D02*
X14230000Y-8760000D01*
X13440000Y-9280000D02*
G75*
G03*
X13540000Y-9180000I0J100000D01*
G01*
X13640000Y-8860000D02*
G75*
G03*
X13540000Y-8960000I0J-100000D01*
G01*
X9800000Y-6290000D02*
G75*
G03*
X9700000Y-6390000I0J-100000D01*
G01*
X13540000Y-8960000D02*
X13540000Y-9180000D01*
X13440000Y-9280000D02*
X12140000Y-9280000D01*
X11940000Y-10000000D02*
X9800000Y-10000000D01*
X14230000Y-7550000D02*
G75*
G03*
X14130000Y-7450000I-100000J0D01*
G01*
X12040000Y-9380000D02*
X12040000Y-9900000D01*
X12140000Y-9280000D02*
G75*
G03*
X12040000Y-9380000I0J-100000D01*
G01*
X9700000Y-9900000D02*
G75*
G03*
X9800000Y-10000000I100000J0D01*
G01*
D11*
D12*
X10265000Y-6385000D02*
X10295000Y-6415000D01*
X10295000Y-6385000D02*
X10265000Y-6415000D01*
X10393703Y-8218000D02*
X10423703Y-8248000D01*
X10423703Y-8218000D02*
X10393703Y-8248000D01*
X10465000Y-7125000D02*
X10495000Y-7155000D01*
X10495000Y-7125000D02*
X10465000Y-7155000D01*
X10519000Y-8004000D02*
X10549000Y-8034000D01*
X10549000Y-8004000D02*
X10519000Y-8034000D01*
X10525000Y-7385000D02*
X10555000Y-7415000D01*
X10555000Y-7385000D02*
X10525000Y-7415000D01*
X10525000Y-7564950D02*
X10555000Y-7594950D01*
X10555000Y-7564950D02*
X10525000Y-7594950D01*
X10594717Y-6895000D02*
X10624717Y-6925000D01*
X10624717Y-6895000D02*
X10594717Y-6925000D01*
X10725000Y-7305000D02*
X10755000Y-7335000D01*
X10755000Y-7305000D02*
X10725000Y-7335000D01*
X10825000Y-6965000D02*
X10855000Y-6995000D01*
X10855000Y-6965000D02*
X10825000Y-6995000D01*
X10985000Y-6535000D02*
X11015000Y-6565000D01*
X11015000Y-6535000D02*
X10985000Y-6565000D01*
X11115000Y-7635000D02*
X11145000Y-7665000D01*
X11145000Y-7635000D02*
X11115000Y-7665000D01*
X11142000Y-7180000D02*
X11172000Y-7210000D01*
X11172000Y-7180000D02*
X11142000Y-7210000D01*
X11146000Y-7342000D02*
X11176000Y-7372000D01*
X11176000Y-7342000D02*
X11146000Y-7372000D01*
X11147000Y-7776000D02*
X11177000Y-7806000D01*
X11177000Y-7776000D02*
X11147000Y-7806000D01*
X11148000Y-7875000D02*
X11178000Y-7905000D01*
X11178000Y-7875000D02*
X11148000Y-7905000D01*
X11165000Y-8385000D02*
X11195000Y-8415000D01*
X11195000Y-8385000D02*
X11165000Y-8415000D01*
X11315000Y-7355000D02*
X11345000Y-7385000D01*
X11345000Y-7355000D02*
X11315000Y-7385000D01*
X11345000Y-6389950D02*
X11375000Y-6419950D01*
X11375000Y-6389950D02*
X11345000Y-6419950D01*
X11465000Y-7515000D02*
X11495000Y-7545000D01*
X11495000Y-7515000D02*
X11465000Y-7545000D01*
X11485000Y-7335000D02*
X11515000Y-7365000D01*
X11515000Y-7335000D02*
X11485000Y-7365000D01*
X11602000Y-7973000D02*
X11632000Y-8003000D01*
X11632000Y-7973000D02*
X11602000Y-8003000D01*
X11675000Y-7525000D02*
X11705000Y-7555000D01*
X11705000Y-7525000D02*
X11675000Y-7555000D01*
X11765000Y-6388700D02*
X11795000Y-6418700D01*
X11795000Y-6388700D02*
X11765000Y-6418700D01*
X11765818Y-6629264D02*
X11795818Y-6659264D01*
X11795818Y-6629264D02*
X11765818Y-6659264D01*
X11776000Y-7108000D02*
X11806000Y-7138000D01*
X11806000Y-7108000D02*
X11776000Y-7138000D01*
X11855000Y-7294950D02*
X11885000Y-7324950D01*
X11885000Y-7294950D02*
X11855000Y-7324950D01*
X11885000Y-7635000D02*
X11915000Y-7665000D01*
X11915000Y-7635000D02*
X11885000Y-7665000D01*
X11974967Y-7364967D02*
X12004967Y-7394967D01*
X12004967Y-7364967D02*
X11974967Y-7394967D01*
X11974973Y-7449744D02*
X12004973Y-7479744D01*
X12004973Y-7449744D02*
X11974973Y-7479744D01*
X12015391Y-7289391D02*
X12045391Y-7319391D01*
X12045391Y-7289391D02*
X12015391Y-7319391D01*
X12017000Y-7821000D02*
X12047000Y-7851000D01*
X12047000Y-7821000D02*
X12017000Y-7851000D01*
X12074950Y-8186810D02*
X12104950Y-8216810D01*
X12104950Y-8186810D02*
X12074950Y-8216810D01*
X12085000Y-6388150D02*
X12115000Y-6418150D01*
X12115000Y-6388150D02*
X12085000Y-6418150D01*
X12265000Y-6388200D02*
X12295000Y-6418200D01*
X12295000Y-6388200D02*
X12265000Y-6418200D01*
X12265000Y-6645000D02*
X12295000Y-6675000D01*
X12295000Y-6645000D02*
X12265000Y-6675000D01*
X12265000Y-6805000D02*
X12295000Y-6835000D01*
X12295000Y-6805000D02*
X12265000Y-6835000D01*
X12332391Y-8017609D02*
X12362391Y-8047609D01*
X12362391Y-8017609D02*
X12332391Y-8047609D01*
X12445000Y-7475050D02*
X12475000Y-7505050D01*
X12475000Y-7475050D02*
X12445000Y-7505050D01*
X12465000Y-7194950D02*
X12495000Y-7224950D01*
X12495000Y-7194950D02*
X12465000Y-7224950D01*
X12479366Y-7385000D02*
X12509366Y-7415000D01*
X12509366Y-7385000D02*
X12479366Y-7415000D01*
X12555000Y-7265000D02*
X12585000Y-7295000D01*
X12585000Y-7265000D02*
X12555000Y-7295000D01*
X12635000Y-7105000D02*
X12665000Y-7135000D01*
X12665000Y-7105000D02*
X12635000Y-7135000D01*
X12747609Y-8002391D02*
X12777609Y-8032391D01*
X12777609Y-8002391D02*
X12747609Y-8032391D01*
X12822609Y-8077391D02*
X12852609Y-8107391D01*
X12852609Y-8077391D02*
X12822609Y-8107391D01*
X12905000Y-6865000D02*
X12935000Y-6895000D01*
X12935000Y-6865000D02*
X12905000Y-6895000D01*
X13214219Y-6924950D02*
X13244219Y-6954950D01*
X13244219Y-6924950D02*
X13214219Y-6954950D01*
X13505000Y-7545000D02*
X13535000Y-7575000D01*
X13535000Y-7545000D02*
X13505000Y-7575000D01*
X13505000Y-8035000D02*
X13535000Y-8065000D01*
X13535000Y-8035000D02*
X13505000Y-8065000D01*
D13*
X10545000Y-7680000D02*
G75*
G03*
X10545000Y-7680000I-25000J0D01*
G01*
X11315000Y-7500000D02*
G75*
G03*
X11315000Y-7500000I-25000J0D01*
G01*
X11835000Y-7450000D02*
G75*
G03*
X11835000Y-7450000I-25000J0D01*
G01*
X11930366Y-7133233D02*
G75*
G03*
X11930366Y-7133233I-25000J0D01*
G01*
X12024950Y-7660000D02*
G75*
G03*
X12024950Y-7660000I-25000J0D01*
G01*
X12680000Y-9185000D02*
G75*
G03*
X12680000Y-9185000I-25000J0D01*
G01*
X13275000Y-8970000D02*
G75*
G03*
X13275000Y-8970000I-25000J0D01*
G01*
X9845000Y-7175888D02*
X9845000Y-7225888D01*
X9820000Y-7200888D02*
X9870000Y-7200888D01*
D11*
X9810000Y-7225888D02*
X9880000Y-7225888D01*
X9880000Y-7225888D02*
G75*
G03*
X9880000Y-7175888I0J25000D01*
G01*
X9880000Y-7175888D02*
X9810000Y-7175888D01*
X9810000Y-7175888D02*
G75*
G03*
X9810000Y-7225888I0J-25000D01*
G01*
D13*
X9845000Y-7835888D02*
X9845000Y-7885888D01*
X9820000Y-7860888D02*
X9870000Y-7860888D01*
D11*
X9810000Y-7885888D02*
X9880000Y-7885888D01*
X9880000Y-7885888D02*
G75*
G03*
X9880000Y-7835888I0J25000D01*
G01*
X9880000Y-7835888D02*
X9810000Y-7835888D01*
X9810000Y-7835888D02*
G75*
G03*
X9810000Y-7885888I0J-25000D01*
G01*
D10*
X10691356Y-8841356D02*
X10691356Y-8770644D01*
X10620644Y-8770644D01*
X10620644Y-8841356D01*
X10691356Y-8841356D01*
X10691356Y-9095356D02*
X10691356Y-9024644D01*
X10620644Y-9024644D01*
X10620644Y-9095356D01*
X10691356Y-9095356D01*
X10945356Y-8841356D02*
X10945356Y-8770644D01*
X10874644Y-8770644D01*
X10874644Y-8841356D01*
X10945356Y-8841356D01*
X10945356Y-9095356D02*
X10945356Y-9024644D01*
X10874644Y-9024644D01*
X10874644Y-9095356D01*
X10945356Y-9095356D01*
X11199356Y-8841356D02*
X11199356Y-8770644D01*
X11128644Y-8770644D01*
X11128644Y-8841356D01*
X11199356Y-8841356D01*
X11199356Y-9095356D02*
X11199356Y-9024644D01*
X11128644Y-9024644D01*
X11128644Y-9095356D01*
X11199356Y-9095356D01*
X11453356Y-8841356D02*
X11453356Y-8770644D01*
X11382644Y-8770644D01*
X11382644Y-8841356D01*
X11453356Y-8841356D01*
X11453356Y-9095356D02*
X11453356Y-9024644D01*
X11382644Y-9024644D01*
X11382644Y-9095356D01*
X11453356Y-9095356D01*
X11707356Y-8841356D02*
X11707356Y-8770644D01*
X11636644Y-8770644D01*
X11636644Y-8841356D01*
X11707356Y-8841356D01*
X11707356Y-9095356D02*
X11707356Y-9024644D01*
X11636644Y-9024644D01*
X11636644Y-9095356D01*
X11707356Y-9095356D01*
X11961356Y-8841356D02*
X11961356Y-8770644D01*
X11890644Y-8770644D01*
X11890644Y-8841356D01*
X11961356Y-8841356D01*
X11961356Y-9095356D02*
X11961356Y-9024644D01*
X11890644Y-9024644D01*
X11890644Y-9095356D01*
X11961356Y-9095356D01*
X12215356Y-8841356D02*
X12215356Y-8770644D01*
X12144644Y-8770644D01*
X12144644Y-8841356D01*
X12215356Y-8841356D01*
X12215356Y-9095356D02*
X12215356Y-9024644D01*
X12144644Y-9024644D01*
X12144644Y-9095356D01*
X12215356Y-9095356D01*
X12469356Y-8841356D02*
X12469356Y-8770644D01*
X12398644Y-8770644D01*
X12398644Y-8841356D01*
X12469356Y-8841356D01*
X12469356Y-9095356D02*
X12469356Y-9024644D01*
X12398644Y-9024644D01*
X12398644Y-9095356D01*
X12469356Y-9095356D01*
X13141809Y-6534902D02*
X13141809Y-6464191D01*
X13071098Y-6464191D01*
X13071098Y-6534902D01*
X13141809Y-6534902D01*
X13141809Y-6788902D02*
X13141809Y-6718191D01*
X13071098Y-6718191D01*
X13071098Y-6788902D01*
X13141809Y-6788902D01*
X13141809Y-7042902D02*
X13141809Y-6972191D01*
X13071098Y-6972191D01*
X13071098Y-7042902D01*
X13141809Y-7042902D01*
X13141809Y-7296902D02*
X13141809Y-7226191D01*
X13071098Y-7226191D01*
X13071098Y-7296902D01*
X13141809Y-7296902D01*
X13141809Y-7550902D02*
X13141809Y-7480191D01*
X13071098Y-7480191D01*
X13071098Y-7550902D01*
X13141809Y-7550902D01*
X13141809Y-7804902D02*
X13141809Y-7734191D01*
X13071098Y-7734191D01*
X13071098Y-7804902D01*
X13141809Y-7804902D01*
X13141809Y-8058902D02*
X13141809Y-7988191D01*
X13071098Y-7988191D01*
X13071098Y-8058902D01*
X13141809Y-8058902D01*
X13141809Y-8312902D02*
X13141809Y-8242191D01*
X13071098Y-8242191D01*
X13071098Y-8312902D01*
X13141809Y-8312902D01*
X13395809Y-6534902D02*
X13395809Y-6464191D01*
X13325098Y-6464191D01*
X13325098Y-6534902D01*
X13395809Y-6534902D01*
X13395809Y-6788902D02*
X13395809Y-6718191D01*
X13325098Y-6718191D01*
X13325098Y-6788902D01*
X13395809Y-6788902D01*
X13395809Y-7042902D02*
X13395809Y-6972191D01*
X13325098Y-6972191D01*
X13325098Y-7042902D01*
X13395809Y-7042902D01*
X13395809Y-7296902D02*
X13395809Y-7226191D01*
X13325098Y-7226191D01*
X13325098Y-7296902D01*
X13395809Y-7296902D01*
X13395809Y-7550902D02*
X13395809Y-7480191D01*
X13325098Y-7480191D01*
X13325098Y-7550902D01*
X13395809Y-7550902D01*
X13395809Y-7804902D02*
X13395809Y-7734191D01*
X13325098Y-7734191D01*
X13325098Y-7804902D01*
X13395809Y-7804902D01*
X13395809Y-8058902D02*
X13395809Y-7988191D01*
X13325098Y-7988191D01*
X13325098Y-8058902D01*
X13395809Y-8058902D01*
X13395809Y-8312902D02*
X13395809Y-8242191D01*
X13325098Y-8242191D01*
X13325098Y-8312902D01*
X13395809Y-8312902D01*
X14095356Y-7682606D02*
X14095356Y-7611894D01*
X14024644Y-7611894D01*
X14024644Y-7682606D01*
X14095356Y-7682606D01*
X14095356Y-7936606D02*
X14095356Y-7865894D01*
X14024644Y-7865894D01*
X14024644Y-7936606D01*
X14095356Y-7936606D01*
X14095356Y-8190606D02*
X14095356Y-8119894D01*
X14024644Y-8119894D01*
X14024644Y-8190606D01*
X14095356Y-8190606D01*
X14095356Y-8444606D02*
X14095356Y-8373894D01*
X14024644Y-8373894D01*
X14024644Y-8444606D01*
X14095356Y-8444606D01*
X14095356Y-8698606D02*
X14095356Y-8627894D01*
X14024644Y-8627894D01*
X14024644Y-8698606D01*
X14095356Y-8698606D01*
D14*
X10106000Y-9597000D02*
X10157000Y-9546000D01*
X10106000Y-9495000D01*
X10055000Y-9546000D01*
X10106000Y-9597000D01*
X10106000Y-9851000D02*
X10157000Y-9800000D01*
X10106000Y-9749000D01*
X10055000Y-9800000D01*
X10106000Y-9851000D01*
X10360000Y-9597000D02*
X10411000Y-9546000D01*
X10360000Y-9495000D01*
X10309000Y-9546000D01*
X10360000Y-9597000D01*
X10360000Y-9851000D02*
X10411000Y-9800000D01*
X10360000Y-9749000D01*
X10309000Y-9800000D01*
X10360000Y-9851000D01*
X10614000Y-9597000D02*
X10665000Y-9546000D01*
X10614000Y-9495000D01*
X10563000Y-9546000D01*
X10614000Y-9597000D01*
X10614000Y-9851000D02*
X10665000Y-9800000D01*
X10614000Y-9749000D01*
X10563000Y-9800000D01*
X10614000Y-9851000D01*
X10868000Y-9597000D02*
X10919000Y-9546000D01*
X10868000Y-9495000D01*
X10817000Y-9546000D01*
X10868000Y-9597000D01*
X10868000Y-9851000D02*
X10919000Y-9800000D01*
X10868000Y-9749000D01*
X10817000Y-9800000D01*
X10868000Y-9851000D01*
X11122000Y-9597000D02*
X11173000Y-9546000D01*
X11122000Y-9495000D01*
X11071000Y-9546000D01*
X11122000Y-9597000D01*
X11122000Y-9851000D02*
X11173000Y-9800000D01*
X11122000Y-9749000D01*
X11071000Y-9800000D01*
X11122000Y-9851000D01*
X11376000Y-9597000D02*
X11427000Y-9546000D01*
X11376000Y-9495000D01*
X11325000Y-9546000D01*
X11376000Y-9597000D01*
X11376000Y-9851000D02*
X11427000Y-9800000D01*
X11376000Y-9749000D01*
X11325000Y-9800000D01*
X11376000Y-9851000D01*
X11630000Y-9597000D02*
X11681000Y-9546000D01*
X11630000Y-9495000D01*
X11579000Y-9546000D01*
X11630000Y-9597000D01*
X11630000Y-9851000D02*
X11681000Y-9800000D01*
X11630000Y-9749000D01*
X11579000Y-9800000D01*
X11630000Y-9851000D01*
D11*
X9955777Y-10316484D02*
X9955777Y-10116484D01*
X9955777Y-10116484D02*
X10003396Y-10116484D01*
X10003396Y-10116484D02*
X10031967Y-10126008D01*
X10031967Y-10126008D02*
X10051015Y-10145055D01*
X10051015Y-10145055D02*
X10060539Y-10164103D01*
X10060539Y-10164103D02*
X10070063Y-10202198D01*
X10070063Y-10202198D02*
X10070063Y-10230770D01*
X10070063Y-10230770D02*
X10060539Y-10268865D01*
X10060539Y-10268865D02*
X10051015Y-10287912D01*
X10051015Y-10287912D02*
X10031967Y-10306960D01*
X10031967Y-10306960D02*
X10003396Y-10316484D01*
X10003396Y-10316484D02*
X9955777Y-10316484D01*
X10155777Y-10316484D02*
X10155777Y-10183150D01*
X10155777Y-10221246D02*
X10165301Y-10202198D01*
X10165301Y-10202198D02*
X10174824Y-10192674D01*
X10174824Y-10192674D02*
X10193872Y-10183150D01*
X10193872Y-10183150D02*
X10212920Y-10183150D01*
X10279586Y-10316484D02*
X10279586Y-10183150D01*
X10279586Y-10116484D02*
X10270063Y-10126008D01*
X10270063Y-10126008D02*
X10279586Y-10135531D01*
X10279586Y-10135531D02*
X10289110Y-10126008D01*
X10289110Y-10126008D02*
X10279586Y-10116484D01*
X10279586Y-10116484D02*
X10279586Y-10135531D01*
X10403396Y-10316484D02*
X10384348Y-10306960D01*
X10384348Y-10306960D02*
X10374824Y-10287912D01*
X10374824Y-10287912D02*
X10374824Y-10116484D01*
X10508158Y-10316484D02*
X10489110Y-10306960D01*
X10489110Y-10306960D02*
X10479586Y-10287912D01*
X10479586Y-10287912D02*
X10479586Y-10116484D01*
X10736729Y-10316484D02*
X10736729Y-10116484D01*
X10736729Y-10116484D02*
X10803396Y-10259341D01*
X10803396Y-10259341D02*
X10870063Y-10116484D01*
X10870063Y-10116484D02*
X10870063Y-10316484D01*
X11051015Y-10316484D02*
X11051015Y-10211722D01*
X11051015Y-10211722D02*
X11041491Y-10192674D01*
X11041491Y-10192674D02*
X11022444Y-10183150D01*
X11022444Y-10183150D02*
X10984348Y-10183150D01*
X10984348Y-10183150D02*
X10965301Y-10192674D01*
X11051015Y-10306960D02*
X11031967Y-10316484D01*
X11031967Y-10316484D02*
X10984348Y-10316484D01*
X10984348Y-10316484D02*
X10965301Y-10306960D01*
X10965301Y-10306960D02*
X10955777Y-10287912D01*
X10955777Y-10287912D02*
X10955777Y-10268865D01*
X10955777Y-10268865D02*
X10965301Y-10249817D01*
X10965301Y-10249817D02*
X10984348Y-10240293D01*
X10984348Y-10240293D02*
X11031967Y-10240293D01*
X11031967Y-10240293D02*
X11051015Y-10230770D01*
X11146253Y-10183150D02*
X11146253Y-10383150D01*
X11146253Y-10192674D02*
X11165301Y-10183150D01*
X11165301Y-10183150D02*
X11203396Y-10183150D01*
X11203396Y-10183150D02*
X11222443Y-10192674D01*
X11222443Y-10192674D02*
X11231967Y-10202198D01*
X11231967Y-10202198D02*
X11241491Y-10221246D01*
X11241491Y-10221246D02*
X11241491Y-10278389D01*
X11241491Y-10278389D02*
X11231967Y-10297436D01*
X11231967Y-10297436D02*
X11222443Y-10306960D01*
X11222443Y-10306960D02*
X11203396Y-10316484D01*
X11203396Y-10316484D02*
X11165301Y-10316484D01*
X11165301Y-10316484D02*
X11146253Y-10306960D01*
X11327205Y-10297436D02*
X11336729Y-10306960D01*
X11336729Y-10306960D02*
X11327205Y-10316484D01*
X11327205Y-10316484D02*
X11317682Y-10306960D01*
X11317682Y-10306960D02*
X11327205Y-10297436D01*
X11327205Y-10297436D02*
X11327205Y-10316484D01*
X11327205Y-10192674D02*
X11336729Y-10202198D01*
X11336729Y-10202198D02*
X11327205Y-10211722D01*
X11327205Y-10211722D02*
X11317682Y-10202198D01*
X11317682Y-10202198D02*
X11327205Y-10192674D01*
X11327205Y-10192674D02*
X11327205Y-10211722D01*
D12*
X9665000Y-10630000D02*
X9695000Y-10660000D01*
X9695000Y-10630000D02*
X9665000Y-10660000D01*
D11*
X9993872Y-10536484D02*
X10012920Y-10536484D01*
X10012920Y-10536484D02*
X10031967Y-10546008D01*
X10031967Y-10546008D02*
X10041491Y-10555531D01*
X10041491Y-10555531D02*
X10051015Y-10574579D01*
X10051015Y-10574579D02*
X10060539Y-10612674D01*
X10060539Y-10612674D02*
X10060539Y-10660293D01*
X10060539Y-10660293D02*
X10051015Y-10698389D01*
X10051015Y-10698389D02*
X10041491Y-10717436D01*
X10041491Y-10717436D02*
X10031967Y-10726960D01*
X10031967Y-10726960D02*
X10012920Y-10736484D01*
X10012920Y-10736484D02*
X9993872Y-10736484D01*
X9993872Y-10736484D02*
X9974824Y-10726960D01*
X9974824Y-10726960D02*
X9965301Y-10717436D01*
X9965301Y-10717436D02*
X9955777Y-10698389D01*
X9955777Y-10698389D02*
X9946253Y-10660293D01*
X9946253Y-10660293D02*
X9946253Y-10612674D01*
X9946253Y-10612674D02*
X9955777Y-10574579D01*
X9955777Y-10574579D02*
X9965301Y-10555531D01*
X9965301Y-10555531D02*
X9974824Y-10546008D01*
X9974824Y-10546008D02*
X9993872Y-10536484D01*
X10146253Y-10717436D02*
X10155777Y-10726960D01*
X10155777Y-10726960D02*
X10146253Y-10736484D01*
X10146253Y-10736484D02*
X10136729Y-10726960D01*
X10136729Y-10726960D02*
X10146253Y-10717436D01*
X10146253Y-10717436D02*
X10146253Y-10736484D01*
X10222444Y-10536484D02*
X10346253Y-10536484D01*
X10346253Y-10536484D02*
X10279586Y-10612674D01*
X10279586Y-10612674D02*
X10308158Y-10612674D01*
X10308158Y-10612674D02*
X10327205Y-10622198D01*
X10327205Y-10622198D02*
X10336729Y-10631722D01*
X10336729Y-10631722D02*
X10346253Y-10650770D01*
X10346253Y-10650770D02*
X10346253Y-10698389D01*
X10346253Y-10698389D02*
X10336729Y-10717436D01*
X10336729Y-10717436D02*
X10327205Y-10726960D01*
X10327205Y-10726960D02*
X10308158Y-10736484D01*
X10308158Y-10736484D02*
X10251015Y-10736484D01*
X10251015Y-10736484D02*
X10231967Y-10726960D01*
X10231967Y-10726960D02*
X10222444Y-10717436D01*
X10470063Y-10536484D02*
X10489110Y-10536484D01*
X10489110Y-10536484D02*
X10508158Y-10546008D01*
X10508158Y-10546008D02*
X10517682Y-10555531D01*
X10517682Y-10555531D02*
X10527205Y-10574579D01*
X10527205Y-10574579D02*
X10536729Y-10612674D01*
X10536729Y-10612674D02*
X10536729Y-10660293D01*
X10536729Y-10660293D02*
X10527205Y-10698389D01*
X10527205Y-10698389D02*
X10517682Y-10717436D01*
X10517682Y-10717436D02*
X10508158Y-10726960D01*
X10508158Y-10726960D02*
X10489110Y-10736484D01*
X10489110Y-10736484D02*
X10470063Y-10736484D01*
X10470063Y-10736484D02*
X10451015Y-10726960D01*
X10451015Y-10726960D02*
X10441491Y-10717436D01*
X10441491Y-10717436D02*
X10431967Y-10698389D01*
X10431967Y-10698389D02*
X10422444Y-10660293D01*
X10422444Y-10660293D02*
X10422444Y-10612674D01*
X10422444Y-10612674D02*
X10431967Y-10574579D01*
X10431967Y-10574579D02*
X10441491Y-10555531D01*
X10441491Y-10555531D02*
X10451015Y-10546008D01*
X10451015Y-10546008D02*
X10470063Y-10536484D01*
X10660539Y-10536484D02*
X10679586Y-10536484D01*
X10679586Y-10536484D02*
X10698634Y-10546008D01*
X10698634Y-10546008D02*
X10708158Y-10555531D01*
X10708158Y-10555531D02*
X10717682Y-10574579D01*
X10717682Y-10574579D02*
X10727205Y-10612674D01*
X10727205Y-10612674D02*
X10727205Y-10660293D01*
X10727205Y-10660293D02*
X10717682Y-10698389D01*
X10717682Y-10698389D02*
X10708158Y-10717436D01*
X10708158Y-10717436D02*
X10698634Y-10726960D01*
X10698634Y-10726960D02*
X10679586Y-10736484D01*
X10679586Y-10736484D02*
X10660539Y-10736484D01*
X10660539Y-10736484D02*
X10641491Y-10726960D01*
X10641491Y-10726960D02*
X10631967Y-10717436D01*
X10631967Y-10717436D02*
X10622444Y-10698389D01*
X10622444Y-10698389D02*
X10612920Y-10660293D01*
X10612920Y-10660293D02*
X10612920Y-10612674D01*
X10612920Y-10612674D02*
X10622444Y-10574579D01*
X10622444Y-10574579D02*
X10631967Y-10555531D01*
X10631967Y-10555531D02*
X10641491Y-10546008D01*
X10641491Y-10546008D02*
X10660539Y-10536484D01*
X10812920Y-10736484D02*
X10812920Y-10603150D01*
X10812920Y-10622198D02*
X10822444Y-10612674D01*
X10822444Y-10612674D02*
X10841491Y-10603150D01*
X10841491Y-10603150D02*
X10870063Y-10603150D01*
X10870063Y-10603150D02*
X10889110Y-10612674D01*
X10889110Y-10612674D02*
X10898634Y-10631722D01*
X10898634Y-10631722D02*
X10898634Y-10736484D01*
X10898634Y-10631722D02*
X10908158Y-10612674D01*
X10908158Y-10612674D02*
X10927205Y-10603150D01*
X10927205Y-10603150D02*
X10955777Y-10603150D01*
X10955777Y-10603150D02*
X10974825Y-10612674D01*
X10974825Y-10612674D02*
X10984348Y-10631722D01*
X10984348Y-10631722D02*
X10984348Y-10736484D01*
X11079586Y-10736484D02*
X11079586Y-10603150D01*
X11079586Y-10622198D02*
X11089110Y-10612674D01*
X11089110Y-10612674D02*
X11108158Y-10603150D01*
X11108158Y-10603150D02*
X11136729Y-10603150D01*
X11136729Y-10603150D02*
X11155777Y-10612674D01*
X11155777Y-10612674D02*
X11165301Y-10631722D01*
X11165301Y-10631722D02*
X11165301Y-10736484D01*
X11165301Y-10631722D02*
X11174825Y-10612674D01*
X11174825Y-10612674D02*
X11193872Y-10603150D01*
X11193872Y-10603150D02*
X11222443Y-10603150D01*
X11222443Y-10603150D02*
X11241491Y-10612674D01*
X11241491Y-10612674D02*
X11251015Y-10631722D01*
X11251015Y-10631722D02*
X11251015Y-10736484D01*
X11641491Y-10526960D02*
X11470063Y-10784103D01*
X11898634Y-10536484D02*
X11917682Y-10536484D01*
X11917682Y-10536484D02*
X11936729Y-10546008D01*
X11936729Y-10546008D02*
X11946253Y-10555531D01*
X11946253Y-10555531D02*
X11955777Y-10574579D01*
X11955777Y-10574579D02*
X11965301Y-10612674D01*
X11965301Y-10612674D02*
X11965301Y-10660293D01*
X11965301Y-10660293D02*
X11955777Y-10698389D01*
X11955777Y-10698389D02*
X11946253Y-10717436D01*
X11946253Y-10717436D02*
X11936729Y-10726960D01*
X11936729Y-10726960D02*
X11917682Y-10736484D01*
X11917682Y-10736484D02*
X11898634Y-10736484D01*
X11898634Y-10736484D02*
X11879586Y-10726960D01*
X11879586Y-10726960D02*
X11870063Y-10717436D01*
X11870063Y-10717436D02*
X11860539Y-10698389D01*
X11860539Y-10698389D02*
X11851015Y-10660293D01*
X11851015Y-10660293D02*
X11851015Y-10612674D01*
X11851015Y-10612674D02*
X11860539Y-10574579D01*
X11860539Y-10574579D02*
X11870063Y-10555531D01*
X11870063Y-10555531D02*
X11879586Y-10546008D01*
X11879586Y-10546008D02*
X11898634Y-10536484D01*
X12051015Y-10717436D02*
X12060539Y-10726960D01*
X12060539Y-10726960D02*
X12051015Y-10736484D01*
X12051015Y-10736484D02*
X12041491Y-10726960D01*
X12041491Y-10726960D02*
X12051015Y-10717436D01*
X12051015Y-10717436D02*
X12051015Y-10736484D01*
X12184348Y-10536484D02*
X12203396Y-10536484D01*
X12203396Y-10536484D02*
X12222444Y-10546008D01*
X12222444Y-10546008D02*
X12231967Y-10555531D01*
X12231967Y-10555531D02*
X12241491Y-10574579D01*
X12241491Y-10574579D02*
X12251015Y-10612674D01*
X12251015Y-10612674D02*
X12251015Y-10660293D01*
X12251015Y-10660293D02*
X12241491Y-10698389D01*
X12241491Y-10698389D02*
X12231967Y-10717436D01*
X12231967Y-10717436D02*
X12222444Y-10726960D01*
X12222444Y-10726960D02*
X12203396Y-10736484D01*
X12203396Y-10736484D02*
X12184348Y-10736484D01*
X12184348Y-10736484D02*
X12165301Y-10726960D01*
X12165301Y-10726960D02*
X12155777Y-10717436D01*
X12155777Y-10717436D02*
X12146253Y-10698389D01*
X12146253Y-10698389D02*
X12136729Y-10660293D01*
X12136729Y-10660293D02*
X12136729Y-10612674D01*
X12136729Y-10612674D02*
X12146253Y-10574579D01*
X12146253Y-10574579D02*
X12155777Y-10555531D01*
X12155777Y-10555531D02*
X12165301Y-10546008D01*
X12165301Y-10546008D02*
X12184348Y-10536484D01*
X12441491Y-10736484D02*
X12327206Y-10736484D01*
X12384348Y-10736484D02*
X12384348Y-10536484D01*
X12384348Y-10536484D02*
X12365301Y-10565055D01*
X12365301Y-10565055D02*
X12346253Y-10584103D01*
X12346253Y-10584103D02*
X12327206Y-10593627D01*
X12631967Y-10736484D02*
X12517682Y-10736484D01*
X12574825Y-10736484D02*
X12574825Y-10536484D01*
X12574825Y-10536484D02*
X12555777Y-10565055D01*
X12555777Y-10565055D02*
X12536729Y-10584103D01*
X12536729Y-10584103D02*
X12517682Y-10593627D01*
X12746253Y-10622198D02*
X12727206Y-10612674D01*
X12727206Y-10612674D02*
X12717682Y-10603150D01*
X12717682Y-10603150D02*
X12708158Y-10584103D01*
X12708158Y-10584103D02*
X12708158Y-10574579D01*
X12708158Y-10574579D02*
X12717682Y-10555531D01*
X12717682Y-10555531D02*
X12727206Y-10546008D01*
X12727206Y-10546008D02*
X12746253Y-10536484D01*
X12746253Y-10536484D02*
X12784348Y-10536484D01*
X12784348Y-10536484D02*
X12803396Y-10546008D01*
X12803396Y-10546008D02*
X12812920Y-10555531D01*
X12812920Y-10555531D02*
X12822444Y-10574579D01*
X12822444Y-10574579D02*
X12822444Y-10584103D01*
X12822444Y-10584103D02*
X12812920Y-10603150D01*
X12812920Y-10603150D02*
X12803396Y-10612674D01*
X12803396Y-10612674D02*
X12784348Y-10622198D01*
X12784348Y-10622198D02*
X12746253Y-10622198D01*
X12746253Y-10622198D02*
X12727206Y-10631722D01*
X12727206Y-10631722D02*
X12717682Y-10641246D01*
X12717682Y-10641246D02*
X12708158Y-10660293D01*
X12708158Y-10660293D02*
X12708158Y-10698389D01*
X12708158Y-10698389D02*
X12717682Y-10717436D01*
X12717682Y-10717436D02*
X12727206Y-10726960D01*
X12727206Y-10726960D02*
X12746253Y-10736484D01*
X12746253Y-10736484D02*
X12784348Y-10736484D01*
X12784348Y-10736484D02*
X12803396Y-10726960D01*
X12803396Y-10726960D02*
X12812920Y-10717436D01*
X12812920Y-10717436D02*
X12822444Y-10698389D01*
X12822444Y-10698389D02*
X12822444Y-10660293D01*
X12822444Y-10660293D02*
X12812920Y-10641246D01*
X12812920Y-10641246D02*
X12803396Y-10631722D01*
X12803396Y-10631722D02*
X12784348Y-10622198D01*
X12898634Y-10536484D02*
X12898634Y-10574579D01*
X12974825Y-10536484D02*
X12974825Y-10574579D01*
X13270063Y-10812674D02*
X13260539Y-10803150D01*
X13260539Y-10803150D02*
X13241491Y-10774579D01*
X13241491Y-10774579D02*
X13231968Y-10755531D01*
X13231968Y-10755531D02*
X13222444Y-10726960D01*
X13222444Y-10726960D02*
X13212920Y-10679341D01*
X13212920Y-10679341D02*
X13212920Y-10641246D01*
X13212920Y-10641246D02*
X13222444Y-10593627D01*
X13222444Y-10593627D02*
X13231968Y-10565055D01*
X13231968Y-10565055D02*
X13241491Y-10546008D01*
X13241491Y-10546008D02*
X13260539Y-10517436D01*
X13260539Y-10517436D02*
X13270063Y-10507912D01*
X13431968Y-10603150D02*
X13431968Y-10736484D01*
X13384348Y-10526960D02*
X13336729Y-10669817D01*
X13336729Y-10669817D02*
X13460539Y-10669817D01*
X13565301Y-10622198D02*
X13546253Y-10612674D01*
X13546253Y-10612674D02*
X13536729Y-10603150D01*
X13536729Y-10603150D02*
X13527206Y-10584103D01*
X13527206Y-10584103D02*
X13527206Y-10574579D01*
X13527206Y-10574579D02*
X13536729Y-10555531D01*
X13536729Y-10555531D02*
X13546253Y-10546008D01*
X13546253Y-10546008D02*
X13565301Y-10536484D01*
X13565301Y-10536484D02*
X13603396Y-10536484D01*
X13603396Y-10536484D02*
X13622444Y-10546008D01*
X13622444Y-10546008D02*
X13631968Y-10555531D01*
X13631968Y-10555531D02*
X13641491Y-10574579D01*
X13641491Y-10574579D02*
X13641491Y-10584103D01*
X13641491Y-10584103D02*
X13631968Y-10603150D01*
X13631968Y-10603150D02*
X13622444Y-10612674D01*
X13622444Y-10612674D02*
X13603396Y-10622198D01*
X13603396Y-10622198D02*
X13565301Y-10622198D01*
X13565301Y-10622198D02*
X13546253Y-10631722D01*
X13546253Y-10631722D02*
X13536729Y-10641246D01*
X13536729Y-10641246D02*
X13527206Y-10660293D01*
X13527206Y-10660293D02*
X13527206Y-10698389D01*
X13527206Y-10698389D02*
X13536729Y-10717436D01*
X13536729Y-10717436D02*
X13546253Y-10726960D01*
X13546253Y-10726960D02*
X13565301Y-10736484D01*
X13565301Y-10736484D02*
X13603396Y-10736484D01*
X13603396Y-10736484D02*
X13622444Y-10726960D01*
X13622444Y-10726960D02*
X13631968Y-10717436D01*
X13631968Y-10717436D02*
X13641491Y-10698389D01*
X13641491Y-10698389D02*
X13641491Y-10660293D01*
X13641491Y-10660293D02*
X13631968Y-10641246D01*
X13631968Y-10641246D02*
X13622444Y-10631722D01*
X13622444Y-10631722D02*
X13603396Y-10622198D01*
X13879587Y-10736484D02*
X13879587Y-10536484D01*
X13965301Y-10736484D02*
X13965301Y-10631722D01*
X13965301Y-10631722D02*
X13955777Y-10612674D01*
X13955777Y-10612674D02*
X13936730Y-10603150D01*
X13936730Y-10603150D02*
X13908158Y-10603150D01*
X13908158Y-10603150D02*
X13889110Y-10612674D01*
X13889110Y-10612674D02*
X13879587Y-10622198D01*
X14089110Y-10736484D02*
X14070063Y-10726960D01*
X14070063Y-10726960D02*
X14060539Y-10717436D01*
X14060539Y-10717436D02*
X14051015Y-10698389D01*
X14051015Y-10698389D02*
X14051015Y-10641246D01*
X14051015Y-10641246D02*
X14060539Y-10622198D01*
X14060539Y-10622198D02*
X14070063Y-10612674D01*
X14070063Y-10612674D02*
X14089110Y-10603150D01*
X14089110Y-10603150D02*
X14117682Y-10603150D01*
X14117682Y-10603150D02*
X14136730Y-10612674D01*
X14136730Y-10612674D02*
X14146253Y-10622198D01*
X14146253Y-10622198D02*
X14155777Y-10641246D01*
X14155777Y-10641246D02*
X14155777Y-10698389D01*
X14155777Y-10698389D02*
X14146253Y-10717436D01*
X14146253Y-10717436D02*
X14136730Y-10726960D01*
X14136730Y-10726960D02*
X14117682Y-10736484D01*
X14117682Y-10736484D02*
X14089110Y-10736484D01*
X14270063Y-10736484D02*
X14251015Y-10726960D01*
X14251015Y-10726960D02*
X14241491Y-10707912D01*
X14241491Y-10707912D02*
X14241491Y-10536484D01*
X14422444Y-10726960D02*
X14403396Y-10736484D01*
X14403396Y-10736484D02*
X14365301Y-10736484D01*
X14365301Y-10736484D02*
X14346253Y-10726960D01*
X14346253Y-10726960D02*
X14336730Y-10707912D01*
X14336730Y-10707912D02*
X14336730Y-10631722D01*
X14336730Y-10631722D02*
X14346253Y-10612674D01*
X14346253Y-10612674D02*
X14365301Y-10603150D01*
X14365301Y-10603150D02*
X14403396Y-10603150D01*
X14403396Y-10603150D02*
X14422444Y-10612674D01*
X14422444Y-10612674D02*
X14431968Y-10631722D01*
X14431968Y-10631722D02*
X14431968Y-10650770D01*
X14431968Y-10650770D02*
X14336730Y-10669817D01*
X14508158Y-10726960D02*
X14527206Y-10736484D01*
X14527206Y-10736484D02*
X14565301Y-10736484D01*
X14565301Y-10736484D02*
X14584349Y-10726960D01*
X14584349Y-10726960D02*
X14593872Y-10707912D01*
X14593872Y-10707912D02*
X14593872Y-10698389D01*
X14593872Y-10698389D02*
X14584349Y-10679341D01*
X14584349Y-10679341D02*
X14565301Y-10669817D01*
X14565301Y-10669817D02*
X14536730Y-10669817D01*
X14536730Y-10669817D02*
X14517682Y-10660293D01*
X14517682Y-10660293D02*
X14508158Y-10641246D01*
X14508158Y-10641246D02*
X14508158Y-10631722D01*
X14508158Y-10631722D02*
X14517682Y-10612674D01*
X14517682Y-10612674D02*
X14536730Y-10603150D01*
X14536730Y-10603150D02*
X14565301Y-10603150D01*
X14565301Y-10603150D02*
X14584349Y-10612674D01*
X14660539Y-10812674D02*
X14670063Y-10803150D01*
X14670063Y-10803150D02*
X14689111Y-10774579D01*
X14689111Y-10774579D02*
X14698634Y-10755531D01*
X14698634Y-10755531D02*
X14708158Y-10726960D01*
X14708158Y-10726960D02*
X14717682Y-10679341D01*
X14717682Y-10679341D02*
X14717682Y-10641246D01*
X14717682Y-10641246D02*
X14708158Y-10593627D01*
X14708158Y-10593627D02*
X14698634Y-10565055D01*
X14698634Y-10565055D02*
X14689111Y-10546008D01*
X14689111Y-10546008D02*
X14670063Y-10517436D01*
X14670063Y-10517436D02*
X14660539Y-10507912D01*
D13*
X9695000Y-10909000D02*
G75*
G03*
X9695000Y-10909000I-25000J0D01*
G01*
D11*
X9993872Y-10800484D02*
X10012920Y-10800484D01*
X10012920Y-10800484D02*
X10031967Y-10810008D01*
X10031967Y-10810008D02*
X10041491Y-10819531D01*
X10041491Y-10819531D02*
X10051015Y-10838579D01*
X10051015Y-10838579D02*
X10060539Y-10876674D01*
X10060539Y-10876674D02*
X10060539Y-10924293D01*
X10060539Y-10924293D02*
X10051015Y-10962389D01*
X10051015Y-10962389D02*
X10041491Y-10981436D01*
X10041491Y-10981436D02*
X10031967Y-10990960D01*
X10031967Y-10990960D02*
X10012920Y-11000484D01*
X10012920Y-11000484D02*
X9993872Y-11000484D01*
X9993872Y-11000484D02*
X9974824Y-10990960D01*
X9974824Y-10990960D02*
X9965301Y-10981436D01*
X9965301Y-10981436D02*
X9955777Y-10962389D01*
X9955777Y-10962389D02*
X9946253Y-10924293D01*
X9946253Y-10924293D02*
X9946253Y-10876674D01*
X9946253Y-10876674D02*
X9955777Y-10838579D01*
X9955777Y-10838579D02*
X9965301Y-10819531D01*
X9965301Y-10819531D02*
X9974824Y-10810008D01*
X9974824Y-10810008D02*
X9993872Y-10800484D01*
X10146253Y-10981436D02*
X10155777Y-10990960D01*
X10155777Y-10990960D02*
X10146253Y-11000484D01*
X10146253Y-11000484D02*
X10136729Y-10990960D01*
X10136729Y-10990960D02*
X10146253Y-10981436D01*
X10146253Y-10981436D02*
X10146253Y-11000484D01*
X10336729Y-10800484D02*
X10241491Y-10800484D01*
X10241491Y-10800484D02*
X10231967Y-10895722D01*
X10231967Y-10895722D02*
X10241491Y-10886198D01*
X10241491Y-10886198D02*
X10260539Y-10876674D01*
X10260539Y-10876674D02*
X10308158Y-10876674D01*
X10308158Y-10876674D02*
X10327205Y-10886198D01*
X10327205Y-10886198D02*
X10336729Y-10895722D01*
X10336729Y-10895722D02*
X10346253Y-10914770D01*
X10346253Y-10914770D02*
X10346253Y-10962389D01*
X10346253Y-10962389D02*
X10336729Y-10981436D01*
X10336729Y-10981436D02*
X10327205Y-10990960D01*
X10327205Y-10990960D02*
X10308158Y-11000484D01*
X10308158Y-11000484D02*
X10260539Y-11000484D01*
X10260539Y-11000484D02*
X10241491Y-10990960D01*
X10241491Y-10990960D02*
X10231967Y-10981436D01*
X10470063Y-10800484D02*
X10489110Y-10800484D01*
X10489110Y-10800484D02*
X10508158Y-10810008D01*
X10508158Y-10810008D02*
X10517682Y-10819531D01*
X10517682Y-10819531D02*
X10527205Y-10838579D01*
X10527205Y-10838579D02*
X10536729Y-10876674D01*
X10536729Y-10876674D02*
X10536729Y-10924293D01*
X10536729Y-10924293D02*
X10527205Y-10962389D01*
X10527205Y-10962389D02*
X10517682Y-10981436D01*
X10517682Y-10981436D02*
X10508158Y-10990960D01*
X10508158Y-10990960D02*
X10489110Y-11000484D01*
X10489110Y-11000484D02*
X10470063Y-11000484D01*
X10470063Y-11000484D02*
X10451015Y-10990960D01*
X10451015Y-10990960D02*
X10441491Y-10981436D01*
X10441491Y-10981436D02*
X10431967Y-10962389D01*
X10431967Y-10962389D02*
X10422444Y-10924293D01*
X10422444Y-10924293D02*
X10422444Y-10876674D01*
X10422444Y-10876674D02*
X10431967Y-10838579D01*
X10431967Y-10838579D02*
X10441491Y-10819531D01*
X10441491Y-10819531D02*
X10451015Y-10810008D01*
X10451015Y-10810008D02*
X10470063Y-10800484D01*
X10660539Y-10800484D02*
X10679586Y-10800484D01*
X10679586Y-10800484D02*
X10698634Y-10810008D01*
X10698634Y-10810008D02*
X10708158Y-10819531D01*
X10708158Y-10819531D02*
X10717682Y-10838579D01*
X10717682Y-10838579D02*
X10727205Y-10876674D01*
X10727205Y-10876674D02*
X10727205Y-10924293D01*
X10727205Y-10924293D02*
X10717682Y-10962389D01*
X10717682Y-10962389D02*
X10708158Y-10981436D01*
X10708158Y-10981436D02*
X10698634Y-10990960D01*
X10698634Y-10990960D02*
X10679586Y-11000484D01*
X10679586Y-11000484D02*
X10660539Y-11000484D01*
X10660539Y-11000484D02*
X10641491Y-10990960D01*
X10641491Y-10990960D02*
X10631967Y-10981436D01*
X10631967Y-10981436D02*
X10622444Y-10962389D01*
X10622444Y-10962389D02*
X10612920Y-10924293D01*
X10612920Y-10924293D02*
X10612920Y-10876674D01*
X10612920Y-10876674D02*
X10622444Y-10838579D01*
X10622444Y-10838579D02*
X10631967Y-10819531D01*
X10631967Y-10819531D02*
X10641491Y-10810008D01*
X10641491Y-10810008D02*
X10660539Y-10800484D01*
X10812920Y-11000484D02*
X10812920Y-10867150D01*
X10812920Y-10886198D02*
X10822444Y-10876674D01*
X10822444Y-10876674D02*
X10841491Y-10867150D01*
X10841491Y-10867150D02*
X10870063Y-10867150D01*
X10870063Y-10867150D02*
X10889110Y-10876674D01*
X10889110Y-10876674D02*
X10898634Y-10895722D01*
X10898634Y-10895722D02*
X10898634Y-11000484D01*
X10898634Y-10895722D02*
X10908158Y-10876674D01*
X10908158Y-10876674D02*
X10927205Y-10867150D01*
X10927205Y-10867150D02*
X10955777Y-10867150D01*
X10955777Y-10867150D02*
X10974825Y-10876674D01*
X10974825Y-10876674D02*
X10984348Y-10895722D01*
X10984348Y-10895722D02*
X10984348Y-11000484D01*
X11079586Y-11000484D02*
X11079586Y-10867150D01*
X11079586Y-10886198D02*
X11089110Y-10876674D01*
X11089110Y-10876674D02*
X11108158Y-10867150D01*
X11108158Y-10867150D02*
X11136729Y-10867150D01*
X11136729Y-10867150D02*
X11155777Y-10876674D01*
X11155777Y-10876674D02*
X11165301Y-10895722D01*
X11165301Y-10895722D02*
X11165301Y-11000484D01*
X11165301Y-10895722D02*
X11174825Y-10876674D01*
X11174825Y-10876674D02*
X11193872Y-10867150D01*
X11193872Y-10867150D02*
X11222443Y-10867150D01*
X11222443Y-10867150D02*
X11241491Y-10876674D01*
X11241491Y-10876674D02*
X11251015Y-10895722D01*
X11251015Y-10895722D02*
X11251015Y-11000484D01*
X11641491Y-10790960D02*
X11470063Y-11048103D01*
X11898634Y-10800484D02*
X11917682Y-10800484D01*
X11917682Y-10800484D02*
X11936729Y-10810008D01*
X11936729Y-10810008D02*
X11946253Y-10819531D01*
X11946253Y-10819531D02*
X11955777Y-10838579D01*
X11955777Y-10838579D02*
X11965301Y-10876674D01*
X11965301Y-10876674D02*
X11965301Y-10924293D01*
X11965301Y-10924293D02*
X11955777Y-10962389D01*
X11955777Y-10962389D02*
X11946253Y-10981436D01*
X11946253Y-10981436D02*
X11936729Y-10990960D01*
X11936729Y-10990960D02*
X11917682Y-11000484D01*
X11917682Y-11000484D02*
X11898634Y-11000484D01*
X11898634Y-11000484D02*
X11879586Y-10990960D01*
X11879586Y-10990960D02*
X11870063Y-10981436D01*
X11870063Y-10981436D02*
X11860539Y-10962389D01*
X11860539Y-10962389D02*
X11851015Y-10924293D01*
X11851015Y-10924293D02*
X11851015Y-10876674D01*
X11851015Y-10876674D02*
X11860539Y-10838579D01*
X11860539Y-10838579D02*
X11870063Y-10819531D01*
X11870063Y-10819531D02*
X11879586Y-10810008D01*
X11879586Y-10810008D02*
X11898634Y-10800484D01*
X12051015Y-10981436D02*
X12060539Y-10990960D01*
X12060539Y-10990960D02*
X12051015Y-11000484D01*
X12051015Y-11000484D02*
X12041491Y-10990960D01*
X12041491Y-10990960D02*
X12051015Y-10981436D01*
X12051015Y-10981436D02*
X12051015Y-11000484D01*
X12184348Y-10800484D02*
X12203396Y-10800484D01*
X12203396Y-10800484D02*
X12222444Y-10810008D01*
X12222444Y-10810008D02*
X12231967Y-10819531D01*
X12231967Y-10819531D02*
X12241491Y-10838579D01*
X12241491Y-10838579D02*
X12251015Y-10876674D01*
X12251015Y-10876674D02*
X12251015Y-10924293D01*
X12251015Y-10924293D02*
X12241491Y-10962389D01*
X12241491Y-10962389D02*
X12231967Y-10981436D01*
X12231967Y-10981436D02*
X12222444Y-10990960D01*
X12222444Y-10990960D02*
X12203396Y-11000484D01*
X12203396Y-11000484D02*
X12184348Y-11000484D01*
X12184348Y-11000484D02*
X12165301Y-10990960D01*
X12165301Y-10990960D02*
X12155777Y-10981436D01*
X12155777Y-10981436D02*
X12146253Y-10962389D01*
X12146253Y-10962389D02*
X12136729Y-10924293D01*
X12136729Y-10924293D02*
X12136729Y-10876674D01*
X12136729Y-10876674D02*
X12146253Y-10838579D01*
X12146253Y-10838579D02*
X12155777Y-10819531D01*
X12155777Y-10819531D02*
X12165301Y-10810008D01*
X12165301Y-10810008D02*
X12184348Y-10800484D01*
X12441491Y-11000484D02*
X12327206Y-11000484D01*
X12384348Y-11000484D02*
X12384348Y-10800484D01*
X12384348Y-10800484D02*
X12365301Y-10829055D01*
X12365301Y-10829055D02*
X12346253Y-10848103D01*
X12346253Y-10848103D02*
X12327206Y-10857627D01*
X12536729Y-11000484D02*
X12574825Y-11000484D01*
X12574825Y-11000484D02*
X12593872Y-10990960D01*
X12593872Y-10990960D02*
X12603396Y-10981436D01*
X12603396Y-10981436D02*
X12622444Y-10952865D01*
X12622444Y-10952865D02*
X12631967Y-10914770D01*
X12631967Y-10914770D02*
X12631967Y-10838579D01*
X12631967Y-10838579D02*
X12622444Y-10819531D01*
X12622444Y-10819531D02*
X12612920Y-10810008D01*
X12612920Y-10810008D02*
X12593872Y-10800484D01*
X12593872Y-10800484D02*
X12555777Y-10800484D01*
X12555777Y-10800484D02*
X12536729Y-10810008D01*
X12536729Y-10810008D02*
X12527206Y-10819531D01*
X12527206Y-10819531D02*
X12517682Y-10838579D01*
X12517682Y-10838579D02*
X12517682Y-10886198D01*
X12517682Y-10886198D02*
X12527206Y-10905246D01*
X12527206Y-10905246D02*
X12536729Y-10914770D01*
X12536729Y-10914770D02*
X12555777Y-10924293D01*
X12555777Y-10924293D02*
X12593872Y-10924293D01*
X12593872Y-10924293D02*
X12612920Y-10914770D01*
X12612920Y-10914770D02*
X12622444Y-10905246D01*
X12622444Y-10905246D02*
X12631967Y-10886198D01*
X12698634Y-10800484D02*
X12831967Y-10800484D01*
X12831967Y-10800484D02*
X12746253Y-11000484D01*
X12898634Y-10800484D02*
X12898634Y-10838579D01*
X12974825Y-10800484D02*
X12974825Y-10838579D01*
X13270063Y-11076674D02*
X13260539Y-11067150D01*
X13260539Y-11067150D02*
X13241491Y-11038579D01*
X13241491Y-11038579D02*
X13231968Y-11019531D01*
X13231968Y-11019531D02*
X13222444Y-10990960D01*
X13222444Y-10990960D02*
X13212920Y-10943341D01*
X13212920Y-10943341D02*
X13212920Y-10905246D01*
X13212920Y-10905246D02*
X13222444Y-10857627D01*
X13222444Y-10857627D02*
X13231968Y-10829055D01*
X13231968Y-10829055D02*
X13241491Y-10810008D01*
X13241491Y-10810008D02*
X13260539Y-10781436D01*
X13260539Y-10781436D02*
X13270063Y-10771912D01*
X13327206Y-10800484D02*
X13460539Y-10800484D01*
X13460539Y-10800484D02*
X13374825Y-11000484D01*
X13689110Y-11000484D02*
X13689110Y-10800484D01*
X13774825Y-11000484D02*
X13774825Y-10895722D01*
X13774825Y-10895722D02*
X13765301Y-10876674D01*
X13765301Y-10876674D02*
X13746253Y-10867150D01*
X13746253Y-10867150D02*
X13717682Y-10867150D01*
X13717682Y-10867150D02*
X13698634Y-10876674D01*
X13698634Y-10876674D02*
X13689110Y-10886198D01*
X13898634Y-11000484D02*
X13879587Y-10990960D01*
X13879587Y-10990960D02*
X13870063Y-10981436D01*
X13870063Y-10981436D02*
X13860539Y-10962389D01*
X13860539Y-10962389D02*
X13860539Y-10905246D01*
X13860539Y-10905246D02*
X13870063Y-10886198D01*
X13870063Y-10886198D02*
X13879587Y-10876674D01*
X13879587Y-10876674D02*
X13898634Y-10867150D01*
X13898634Y-10867150D02*
X13927206Y-10867150D01*
X13927206Y-10867150D02*
X13946253Y-10876674D01*
X13946253Y-10876674D02*
X13955777Y-10886198D01*
X13955777Y-10886198D02*
X13965301Y-10905246D01*
X13965301Y-10905246D02*
X13965301Y-10962389D01*
X13965301Y-10962389D02*
X13955777Y-10981436D01*
X13955777Y-10981436D02*
X13946253Y-10990960D01*
X13946253Y-10990960D02*
X13927206Y-11000484D01*
X13927206Y-11000484D02*
X13898634Y-11000484D01*
X14079587Y-11000484D02*
X14060539Y-10990960D01*
X14060539Y-10990960D02*
X14051015Y-10971912D01*
X14051015Y-10971912D02*
X14051015Y-10800484D01*
X14231968Y-10990960D02*
X14212920Y-11000484D01*
X14212920Y-11000484D02*
X14174825Y-11000484D01*
X14174825Y-11000484D02*
X14155777Y-10990960D01*
X14155777Y-10990960D02*
X14146253Y-10971912D01*
X14146253Y-10971912D02*
X14146253Y-10895722D01*
X14146253Y-10895722D02*
X14155777Y-10876674D01*
X14155777Y-10876674D02*
X14174825Y-10867150D01*
X14174825Y-10867150D02*
X14212920Y-10867150D01*
X14212920Y-10867150D02*
X14231968Y-10876674D01*
X14231968Y-10876674D02*
X14241491Y-10895722D01*
X14241491Y-10895722D02*
X14241491Y-10914770D01*
X14241491Y-10914770D02*
X14146253Y-10933817D01*
X14317682Y-10990960D02*
X14336730Y-11000484D01*
X14336730Y-11000484D02*
X14374825Y-11000484D01*
X14374825Y-11000484D02*
X14393872Y-10990960D01*
X14393872Y-10990960D02*
X14403396Y-10971912D01*
X14403396Y-10971912D02*
X14403396Y-10962389D01*
X14403396Y-10962389D02*
X14393872Y-10943341D01*
X14393872Y-10943341D02*
X14374825Y-10933817D01*
X14374825Y-10933817D02*
X14346253Y-10933817D01*
X14346253Y-10933817D02*
X14327206Y-10924293D01*
X14327206Y-10924293D02*
X14317682Y-10905246D01*
X14317682Y-10905246D02*
X14317682Y-10895722D01*
X14317682Y-10895722D02*
X14327206Y-10876674D01*
X14327206Y-10876674D02*
X14346253Y-10867150D01*
X14346253Y-10867150D02*
X14374825Y-10867150D01*
X14374825Y-10867150D02*
X14393872Y-10876674D01*
X14470063Y-11076674D02*
X14479587Y-11067150D01*
X14479587Y-11067150D02*
X14498634Y-11038579D01*
X14498634Y-11038579D02*
X14508158Y-11019531D01*
X14508158Y-11019531D02*
X14517682Y-10990960D01*
X14517682Y-10990960D02*
X14527206Y-10943341D01*
X14527206Y-10943341D02*
X14527206Y-10905246D01*
X14527206Y-10905246D02*
X14517682Y-10857627D01*
X14517682Y-10857627D02*
X14508158Y-10829055D01*
X14508158Y-10829055D02*
X14498634Y-10810008D01*
X14498634Y-10810008D02*
X14479587Y-10781436D01*
X14479587Y-10781436D02*
X14470063Y-10771912D01*
D13*
X9670000Y-11148000D02*
X9670000Y-11198000D01*
X9645000Y-11173000D02*
X9695000Y-11173000D01*
D11*
X9993872Y-11064484D02*
X10012920Y-11064484D01*
X10012920Y-11064484D02*
X10031967Y-11074008D01*
X10031967Y-11074008D02*
X10041491Y-11083531D01*
X10041491Y-11083531D02*
X10051015Y-11102579D01*
X10051015Y-11102579D02*
X10060539Y-11140674D01*
X10060539Y-11140674D02*
X10060539Y-11188293D01*
X10060539Y-11188293D02*
X10051015Y-11226388D01*
X10051015Y-11226388D02*
X10041491Y-11245436D01*
X10041491Y-11245436D02*
X10031967Y-11254960D01*
X10031967Y-11254960D02*
X10012920Y-11264484D01*
X10012920Y-11264484D02*
X9993872Y-11264484D01*
X9993872Y-11264484D02*
X9974824Y-11254960D01*
X9974824Y-11254960D02*
X9965301Y-11245436D01*
X9965301Y-11245436D02*
X9955777Y-11226388D01*
X9955777Y-11226388D02*
X9946253Y-11188293D01*
X9946253Y-11188293D02*
X9946253Y-11140674D01*
X9946253Y-11140674D02*
X9955777Y-11102579D01*
X9955777Y-11102579D02*
X9965301Y-11083531D01*
X9965301Y-11083531D02*
X9974824Y-11074008D01*
X9974824Y-11074008D02*
X9993872Y-11064484D01*
X10146253Y-11245436D02*
X10155777Y-11254960D01*
X10155777Y-11254960D02*
X10146253Y-11264484D01*
X10146253Y-11264484D02*
X10136729Y-11254960D01*
X10136729Y-11254960D02*
X10146253Y-11245436D01*
X10146253Y-11245436D02*
X10146253Y-11264484D01*
X10336729Y-11064484D02*
X10241491Y-11064484D01*
X10241491Y-11064484D02*
X10231967Y-11159722D01*
X10231967Y-11159722D02*
X10241491Y-11150198D01*
X10241491Y-11150198D02*
X10260539Y-11140674D01*
X10260539Y-11140674D02*
X10308158Y-11140674D01*
X10308158Y-11140674D02*
X10327205Y-11150198D01*
X10327205Y-11150198D02*
X10336729Y-11159722D01*
X10336729Y-11159722D02*
X10346253Y-11178770D01*
X10346253Y-11178770D02*
X10346253Y-11226388D01*
X10346253Y-11226388D02*
X10336729Y-11245436D01*
X10336729Y-11245436D02*
X10327205Y-11254960D01*
X10327205Y-11254960D02*
X10308158Y-11264484D01*
X10308158Y-11264484D02*
X10260539Y-11264484D01*
X10260539Y-11264484D02*
X10241491Y-11254960D01*
X10241491Y-11254960D02*
X10231967Y-11245436D01*
X10470063Y-11064484D02*
X10489110Y-11064484D01*
X10489110Y-11064484D02*
X10508158Y-11074008D01*
X10508158Y-11074008D02*
X10517682Y-11083531D01*
X10517682Y-11083531D02*
X10527205Y-11102579D01*
X10527205Y-11102579D02*
X10536729Y-11140674D01*
X10536729Y-11140674D02*
X10536729Y-11188293D01*
X10536729Y-11188293D02*
X10527205Y-11226388D01*
X10527205Y-11226388D02*
X10517682Y-11245436D01*
X10517682Y-11245436D02*
X10508158Y-11254960D01*
X10508158Y-11254960D02*
X10489110Y-11264484D01*
X10489110Y-11264484D02*
X10470063Y-11264484D01*
X10470063Y-11264484D02*
X10451015Y-11254960D01*
X10451015Y-11254960D02*
X10441491Y-11245436D01*
X10441491Y-11245436D02*
X10431967Y-11226388D01*
X10431967Y-11226388D02*
X10422444Y-11188293D01*
X10422444Y-11188293D02*
X10422444Y-11140674D01*
X10422444Y-11140674D02*
X10431967Y-11102579D01*
X10431967Y-11102579D02*
X10441491Y-11083531D01*
X10441491Y-11083531D02*
X10451015Y-11074008D01*
X10451015Y-11074008D02*
X10470063Y-11064484D01*
X10660539Y-11064484D02*
X10679586Y-11064484D01*
X10679586Y-11064484D02*
X10698634Y-11074008D01*
X10698634Y-11074008D02*
X10708158Y-11083531D01*
X10708158Y-11083531D02*
X10717682Y-11102579D01*
X10717682Y-11102579D02*
X10727205Y-11140674D01*
X10727205Y-11140674D02*
X10727205Y-11188293D01*
X10727205Y-11188293D02*
X10717682Y-11226388D01*
X10717682Y-11226388D02*
X10708158Y-11245436D01*
X10708158Y-11245436D02*
X10698634Y-11254960D01*
X10698634Y-11254960D02*
X10679586Y-11264484D01*
X10679586Y-11264484D02*
X10660539Y-11264484D01*
X10660539Y-11264484D02*
X10641491Y-11254960D01*
X10641491Y-11254960D02*
X10631967Y-11245436D01*
X10631967Y-11245436D02*
X10622444Y-11226388D01*
X10622444Y-11226388D02*
X10612920Y-11188293D01*
X10612920Y-11188293D02*
X10612920Y-11140674D01*
X10612920Y-11140674D02*
X10622444Y-11102579D01*
X10622444Y-11102579D02*
X10631967Y-11083531D01*
X10631967Y-11083531D02*
X10641491Y-11074008D01*
X10641491Y-11074008D02*
X10660539Y-11064484D01*
X10812920Y-11264484D02*
X10812920Y-11131150D01*
X10812920Y-11150198D02*
X10822444Y-11140674D01*
X10822444Y-11140674D02*
X10841491Y-11131150D01*
X10841491Y-11131150D02*
X10870063Y-11131150D01*
X10870063Y-11131150D02*
X10889110Y-11140674D01*
X10889110Y-11140674D02*
X10898634Y-11159722D01*
X10898634Y-11159722D02*
X10898634Y-11264484D01*
X10898634Y-11159722D02*
X10908158Y-11140674D01*
X10908158Y-11140674D02*
X10927205Y-11131150D01*
X10927205Y-11131150D02*
X10955777Y-11131150D01*
X10955777Y-11131150D02*
X10974825Y-11140674D01*
X10974825Y-11140674D02*
X10984348Y-11159722D01*
X10984348Y-11159722D02*
X10984348Y-11264484D01*
X11079586Y-11264484D02*
X11079586Y-11131150D01*
X11079586Y-11150198D02*
X11089110Y-11140674D01*
X11089110Y-11140674D02*
X11108158Y-11131150D01*
X11108158Y-11131150D02*
X11136729Y-11131150D01*
X11136729Y-11131150D02*
X11155777Y-11140674D01*
X11155777Y-11140674D02*
X11165301Y-11159722D01*
X11165301Y-11159722D02*
X11165301Y-11264484D01*
X11165301Y-11159722D02*
X11174825Y-11140674D01*
X11174825Y-11140674D02*
X11193872Y-11131150D01*
X11193872Y-11131150D02*
X11222443Y-11131150D01*
X11222443Y-11131150D02*
X11241491Y-11140674D01*
X11241491Y-11140674D02*
X11251015Y-11159722D01*
X11251015Y-11159722D02*
X11251015Y-11264484D01*
X11641491Y-11054960D02*
X11470063Y-11312103D01*
X11898634Y-11064484D02*
X11917682Y-11064484D01*
X11917682Y-11064484D02*
X11936729Y-11074008D01*
X11936729Y-11074008D02*
X11946253Y-11083531D01*
X11946253Y-11083531D02*
X11955777Y-11102579D01*
X11955777Y-11102579D02*
X11965301Y-11140674D01*
X11965301Y-11140674D02*
X11965301Y-11188293D01*
X11965301Y-11188293D02*
X11955777Y-11226388D01*
X11955777Y-11226388D02*
X11946253Y-11245436D01*
X11946253Y-11245436D02*
X11936729Y-11254960D01*
X11936729Y-11254960D02*
X11917682Y-11264484D01*
X11917682Y-11264484D02*
X11898634Y-11264484D01*
X11898634Y-11264484D02*
X11879586Y-11254960D01*
X11879586Y-11254960D02*
X11870063Y-11245436D01*
X11870063Y-11245436D02*
X11860539Y-11226388D01*
X11860539Y-11226388D02*
X11851015Y-11188293D01*
X11851015Y-11188293D02*
X11851015Y-11140674D01*
X11851015Y-11140674D02*
X11860539Y-11102579D01*
X11860539Y-11102579D02*
X11870063Y-11083531D01*
X11870063Y-11083531D02*
X11879586Y-11074008D01*
X11879586Y-11074008D02*
X11898634Y-11064484D01*
X12051015Y-11245436D02*
X12060539Y-11254960D01*
X12060539Y-11254960D02*
X12051015Y-11264484D01*
X12051015Y-11264484D02*
X12041491Y-11254960D01*
X12041491Y-11254960D02*
X12051015Y-11245436D01*
X12051015Y-11245436D02*
X12051015Y-11264484D01*
X12184348Y-11064484D02*
X12203396Y-11064484D01*
X12203396Y-11064484D02*
X12222444Y-11074008D01*
X12222444Y-11074008D02*
X12231967Y-11083531D01*
X12231967Y-11083531D02*
X12241491Y-11102579D01*
X12241491Y-11102579D02*
X12251015Y-11140674D01*
X12251015Y-11140674D02*
X12251015Y-11188293D01*
X12251015Y-11188293D02*
X12241491Y-11226388D01*
X12241491Y-11226388D02*
X12231967Y-11245436D01*
X12231967Y-11245436D02*
X12222444Y-11254960D01*
X12222444Y-11254960D02*
X12203396Y-11264484D01*
X12203396Y-11264484D02*
X12184348Y-11264484D01*
X12184348Y-11264484D02*
X12165301Y-11254960D01*
X12165301Y-11254960D02*
X12155777Y-11245436D01*
X12155777Y-11245436D02*
X12146253Y-11226388D01*
X12146253Y-11226388D02*
X12136729Y-11188293D01*
X12136729Y-11188293D02*
X12136729Y-11140674D01*
X12136729Y-11140674D02*
X12146253Y-11102579D01*
X12146253Y-11102579D02*
X12155777Y-11083531D01*
X12155777Y-11083531D02*
X12165301Y-11074008D01*
X12165301Y-11074008D02*
X12184348Y-11064484D01*
X12441491Y-11264484D02*
X12327206Y-11264484D01*
X12384348Y-11264484D02*
X12384348Y-11064484D01*
X12384348Y-11064484D02*
X12365301Y-11093055D01*
X12365301Y-11093055D02*
X12346253Y-11112103D01*
X12346253Y-11112103D02*
X12327206Y-11121627D01*
X12536729Y-11264484D02*
X12574825Y-11264484D01*
X12574825Y-11264484D02*
X12593872Y-11254960D01*
X12593872Y-11254960D02*
X12603396Y-11245436D01*
X12603396Y-11245436D02*
X12622444Y-11216865D01*
X12622444Y-11216865D02*
X12631967Y-11178770D01*
X12631967Y-11178770D02*
X12631967Y-11102579D01*
X12631967Y-11102579D02*
X12622444Y-11083531D01*
X12622444Y-11083531D02*
X12612920Y-11074008D01*
X12612920Y-11074008D02*
X12593872Y-11064484D01*
X12593872Y-11064484D02*
X12555777Y-11064484D01*
X12555777Y-11064484D02*
X12536729Y-11074008D01*
X12536729Y-11074008D02*
X12527206Y-11083531D01*
X12527206Y-11083531D02*
X12517682Y-11102579D01*
X12517682Y-11102579D02*
X12517682Y-11150198D01*
X12517682Y-11150198D02*
X12527206Y-11169246D01*
X12527206Y-11169246D02*
X12536729Y-11178770D01*
X12536729Y-11178770D02*
X12555777Y-11188293D01*
X12555777Y-11188293D02*
X12593872Y-11188293D01*
X12593872Y-11188293D02*
X12612920Y-11178770D01*
X12612920Y-11178770D02*
X12622444Y-11169246D01*
X12622444Y-11169246D02*
X12631967Y-11150198D01*
X12698634Y-11064484D02*
X12831967Y-11064484D01*
X12831967Y-11064484D02*
X12746253Y-11264484D01*
X12898634Y-11064484D02*
X12898634Y-11102579D01*
X12974825Y-11064484D02*
X12974825Y-11102579D01*
X13270063Y-11340674D02*
X13260539Y-11331150D01*
X13260539Y-11331150D02*
X13241491Y-11302579D01*
X13241491Y-11302579D02*
X13231968Y-11283531D01*
X13231968Y-11283531D02*
X13222444Y-11254960D01*
X13222444Y-11254960D02*
X13212920Y-11207341D01*
X13212920Y-11207341D02*
X13212920Y-11169246D01*
X13212920Y-11169246D02*
X13222444Y-11121627D01*
X13222444Y-11121627D02*
X13231968Y-11093055D01*
X13231968Y-11093055D02*
X13241491Y-11074008D01*
X13241491Y-11074008D02*
X13260539Y-11045436D01*
X13260539Y-11045436D02*
X13270063Y-11035912D01*
X13384348Y-11064484D02*
X13403396Y-11064484D01*
X13403396Y-11064484D02*
X13422444Y-11074008D01*
X13422444Y-11074008D02*
X13431968Y-11083531D01*
X13431968Y-11083531D02*
X13441491Y-11102579D01*
X13441491Y-11102579D02*
X13451015Y-11140674D01*
X13451015Y-11140674D02*
X13451015Y-11188293D01*
X13451015Y-11188293D02*
X13441491Y-11226388D01*
X13441491Y-11226388D02*
X13431968Y-11245436D01*
X13431968Y-11245436D02*
X13422444Y-11254960D01*
X13422444Y-11254960D02*
X13403396Y-11264484D01*
X13403396Y-11264484D02*
X13384348Y-11264484D01*
X13384348Y-11264484D02*
X13365301Y-11254960D01*
X13365301Y-11254960D02*
X13355777Y-11245436D01*
X13355777Y-11245436D02*
X13346253Y-11226388D01*
X13346253Y-11226388D02*
X13336729Y-11188293D01*
X13336729Y-11188293D02*
X13336729Y-11140674D01*
X13336729Y-11140674D02*
X13346253Y-11102579D01*
X13346253Y-11102579D02*
X13355777Y-11083531D01*
X13355777Y-11083531D02*
X13365301Y-11074008D01*
X13365301Y-11074008D02*
X13384348Y-11064484D01*
X13689110Y-11264484D02*
X13689110Y-11064484D01*
X13774825Y-11264484D02*
X13774825Y-11159722D01*
X13774825Y-11159722D02*
X13765301Y-11140674D01*
X13765301Y-11140674D02*
X13746253Y-11131150D01*
X13746253Y-11131150D02*
X13717682Y-11131150D01*
X13717682Y-11131150D02*
X13698634Y-11140674D01*
X13698634Y-11140674D02*
X13689110Y-11150198D01*
X13898634Y-11264484D02*
X13879587Y-11254960D01*
X13879587Y-11254960D02*
X13870063Y-11245436D01*
X13870063Y-11245436D02*
X13860539Y-11226388D01*
X13860539Y-11226388D02*
X13860539Y-11169246D01*
X13860539Y-11169246D02*
X13870063Y-11150198D01*
X13870063Y-11150198D02*
X13879587Y-11140674D01*
X13879587Y-11140674D02*
X13898634Y-11131150D01*
X13898634Y-11131150D02*
X13927206Y-11131150D01*
X13927206Y-11131150D02*
X13946253Y-11140674D01*
X13946253Y-11140674D02*
X13955777Y-11150198D01*
X13955777Y-11150198D02*
X13965301Y-11169246D01*
X13965301Y-11169246D02*
X13965301Y-11226388D01*
X13965301Y-11226388D02*
X13955777Y-11245436D01*
X13955777Y-11245436D02*
X13946253Y-11254960D01*
X13946253Y-11254960D02*
X13927206Y-11264484D01*
X13927206Y-11264484D02*
X13898634Y-11264484D01*
X14079587Y-11264484D02*
X14060539Y-11254960D01*
X14060539Y-11254960D02*
X14051015Y-11235912D01*
X14051015Y-11235912D02*
X14051015Y-11064484D01*
X14231968Y-11254960D02*
X14212920Y-11264484D01*
X14212920Y-11264484D02*
X14174825Y-11264484D01*
X14174825Y-11264484D02*
X14155777Y-11254960D01*
X14155777Y-11254960D02*
X14146253Y-11235912D01*
X14146253Y-11235912D02*
X14146253Y-11159722D01*
X14146253Y-11159722D02*
X14155777Y-11140674D01*
X14155777Y-11140674D02*
X14174825Y-11131150D01*
X14174825Y-11131150D02*
X14212920Y-11131150D01*
X14212920Y-11131150D02*
X14231968Y-11140674D01*
X14231968Y-11140674D02*
X14241491Y-11159722D01*
X14241491Y-11159722D02*
X14241491Y-11178770D01*
X14241491Y-11178770D02*
X14146253Y-11197817D01*
X14317682Y-11254960D02*
X14336730Y-11264484D01*
X14336730Y-11264484D02*
X14374825Y-11264484D01*
X14374825Y-11264484D02*
X14393872Y-11254960D01*
X14393872Y-11254960D02*
X14403396Y-11235912D01*
X14403396Y-11235912D02*
X14403396Y-11226388D01*
X14403396Y-11226388D02*
X14393872Y-11207341D01*
X14393872Y-11207341D02*
X14374825Y-11197817D01*
X14374825Y-11197817D02*
X14346253Y-11197817D01*
X14346253Y-11197817D02*
X14327206Y-11188293D01*
X14327206Y-11188293D02*
X14317682Y-11169246D01*
X14317682Y-11169246D02*
X14317682Y-11159722D01*
X14317682Y-11159722D02*
X14327206Y-11140674D01*
X14327206Y-11140674D02*
X14346253Y-11131150D01*
X14346253Y-11131150D02*
X14374825Y-11131150D01*
X14374825Y-11131150D02*
X14393872Y-11140674D01*
X14641492Y-11188293D02*
X14793873Y-11188293D01*
X14717682Y-11264484D02*
X14717682Y-11112103D01*
X15031968Y-11083531D02*
X15041492Y-11074008D01*
X15041492Y-11074008D02*
X15060539Y-11064484D01*
X15060539Y-11064484D02*
X15108158Y-11064484D01*
X15108158Y-11064484D02*
X15127206Y-11074008D01*
X15127206Y-11074008D02*
X15136730Y-11083531D01*
X15136730Y-11083531D02*
X15146253Y-11102579D01*
X15146253Y-11102579D02*
X15146253Y-11121627D01*
X15146253Y-11121627D02*
X15136730Y-11150198D01*
X15136730Y-11150198D02*
X15022444Y-11264484D01*
X15022444Y-11264484D02*
X15146253Y-11264484D01*
X15374825Y-11254960D02*
X15393873Y-11264484D01*
X15393873Y-11264484D02*
X15431968Y-11264484D01*
X15431968Y-11264484D02*
X15451015Y-11254960D01*
X15451015Y-11254960D02*
X15460539Y-11235912D01*
X15460539Y-11235912D02*
X15460539Y-11226388D01*
X15460539Y-11226388D02*
X15451015Y-11207341D01*
X15451015Y-11207341D02*
X15431968Y-11197817D01*
X15431968Y-11197817D02*
X15403396Y-11197817D01*
X15403396Y-11197817D02*
X15384349Y-11188293D01*
X15384349Y-11188293D02*
X15374825Y-11169246D01*
X15374825Y-11169246D02*
X15374825Y-11159722D01*
X15374825Y-11159722D02*
X15384349Y-11140674D01*
X15384349Y-11140674D02*
X15403396Y-11131150D01*
X15403396Y-11131150D02*
X15431968Y-11131150D01*
X15431968Y-11131150D02*
X15451015Y-11140674D01*
X15574825Y-11264484D02*
X15555777Y-11254960D01*
X15555777Y-11254960D02*
X15546254Y-11235912D01*
X15546254Y-11235912D02*
X15546254Y-11064484D01*
X15679587Y-11264484D02*
X15660539Y-11254960D01*
X15660539Y-11254960D02*
X15651015Y-11245436D01*
X15651015Y-11245436D02*
X15641492Y-11226388D01*
X15641492Y-11226388D02*
X15641492Y-11169246D01*
X15641492Y-11169246D02*
X15651015Y-11150198D01*
X15651015Y-11150198D02*
X15660539Y-11140674D01*
X15660539Y-11140674D02*
X15679587Y-11131150D01*
X15679587Y-11131150D02*
X15708158Y-11131150D01*
X15708158Y-11131150D02*
X15727206Y-11140674D01*
X15727206Y-11140674D02*
X15736730Y-11150198D01*
X15736730Y-11150198D02*
X15746254Y-11169246D01*
X15746254Y-11169246D02*
X15746254Y-11226388D01*
X15746254Y-11226388D02*
X15736730Y-11245436D01*
X15736730Y-11245436D02*
X15727206Y-11254960D01*
X15727206Y-11254960D02*
X15708158Y-11264484D01*
X15708158Y-11264484D02*
X15679587Y-11264484D01*
X15803396Y-11131150D02*
X15879587Y-11131150D01*
X15831968Y-11064484D02*
X15831968Y-11235912D01*
X15831968Y-11235912D02*
X15841492Y-11254960D01*
X15841492Y-11254960D02*
X15860539Y-11264484D01*
X15860539Y-11264484D02*
X15879587Y-11264484D01*
X15936730Y-11254960D02*
X15955777Y-11264484D01*
X15955777Y-11264484D02*
X15993873Y-11264484D01*
X15993873Y-11264484D02*
X16012920Y-11254960D01*
X16012920Y-11254960D02*
X16022444Y-11235912D01*
X16022444Y-11235912D02*
X16022444Y-11226388D01*
X16022444Y-11226388D02*
X16012920Y-11207341D01*
X16012920Y-11207341D02*
X15993873Y-11197817D01*
X15993873Y-11197817D02*
X15965301Y-11197817D01*
X15965301Y-11197817D02*
X15946254Y-11188293D01*
X15946254Y-11188293D02*
X15936730Y-11169246D01*
X15936730Y-11169246D02*
X15936730Y-11159722D01*
X15936730Y-11159722D02*
X15946254Y-11140674D01*
X15946254Y-11140674D02*
X15965301Y-11131150D01*
X15965301Y-11131150D02*
X15993873Y-11131150D01*
X15993873Y-11131150D02*
X16012920Y-11140674D01*
X16089111Y-11340674D02*
X16098635Y-11331150D01*
X16098635Y-11331150D02*
X16117682Y-11302579D01*
X16117682Y-11302579D02*
X16127206Y-11283531D01*
X16127206Y-11283531D02*
X16136730Y-11254960D01*
X16136730Y-11254960D02*
X16146254Y-11207341D01*
X16146254Y-11207341D02*
X16146254Y-11169246D01*
X16146254Y-11169246D02*
X16136730Y-11121627D01*
X16136730Y-11121627D02*
X16127206Y-11093055D01*
X16127206Y-11093055D02*
X16117682Y-11074008D01*
X16117682Y-11074008D02*
X16098635Y-11045436D01*
X16098635Y-11045436D02*
X16089111Y-11035912D01*
D10*
X9680356Y-11472356D02*
X9680356Y-11401644D01*
X9609644Y-11401644D01*
X9609644Y-11472356D01*
X9680356Y-11472356D01*
D11*
X10060539Y-11528484D02*
X9946253Y-11528484D01*
X10003396Y-11528484D02*
X10003396Y-11328484D01*
X10003396Y-11328484D02*
X9984348Y-11357055D01*
X9984348Y-11357055D02*
X9965301Y-11376103D01*
X9965301Y-11376103D02*
X9946253Y-11385627D01*
X10146253Y-11509436D02*
X10155777Y-11518960D01*
X10155777Y-11518960D02*
X10146253Y-11528484D01*
X10146253Y-11528484D02*
X10136729Y-11518960D01*
X10136729Y-11518960D02*
X10146253Y-11509436D01*
X10146253Y-11509436D02*
X10146253Y-11528484D01*
X10279586Y-11328484D02*
X10298634Y-11328484D01*
X10298634Y-11328484D02*
X10317682Y-11338008D01*
X10317682Y-11338008D02*
X10327205Y-11347531D01*
X10327205Y-11347531D02*
X10336729Y-11366579D01*
X10336729Y-11366579D02*
X10346253Y-11404674D01*
X10346253Y-11404674D02*
X10346253Y-11452293D01*
X10346253Y-11452293D02*
X10336729Y-11490388D01*
X10336729Y-11490388D02*
X10327205Y-11509436D01*
X10327205Y-11509436D02*
X10317682Y-11518960D01*
X10317682Y-11518960D02*
X10298634Y-11528484D01*
X10298634Y-11528484D02*
X10279586Y-11528484D01*
X10279586Y-11528484D02*
X10260539Y-11518960D01*
X10260539Y-11518960D02*
X10251015Y-11509436D01*
X10251015Y-11509436D02*
X10241491Y-11490388D01*
X10241491Y-11490388D02*
X10231967Y-11452293D01*
X10231967Y-11452293D02*
X10231967Y-11404674D01*
X10231967Y-11404674D02*
X10241491Y-11366579D01*
X10241491Y-11366579D02*
X10251015Y-11347531D01*
X10251015Y-11347531D02*
X10260539Y-11338008D01*
X10260539Y-11338008D02*
X10279586Y-11328484D01*
X10470063Y-11328484D02*
X10489110Y-11328484D01*
X10489110Y-11328484D02*
X10508158Y-11338008D01*
X10508158Y-11338008D02*
X10517682Y-11347531D01*
X10517682Y-11347531D02*
X10527205Y-11366579D01*
X10527205Y-11366579D02*
X10536729Y-11404674D01*
X10536729Y-11404674D02*
X10536729Y-11452293D01*
X10536729Y-11452293D02*
X10527205Y-11490388D01*
X10527205Y-11490388D02*
X10517682Y-11509436D01*
X10517682Y-11509436D02*
X10508158Y-11518960D01*
X10508158Y-11518960D02*
X10489110Y-11528484D01*
X10489110Y-11528484D02*
X10470063Y-11528484D01*
X10470063Y-11528484D02*
X10451015Y-11518960D01*
X10451015Y-11518960D02*
X10441491Y-11509436D01*
X10441491Y-11509436D02*
X10431967Y-11490388D01*
X10431967Y-11490388D02*
X10422444Y-11452293D01*
X10422444Y-11452293D02*
X10422444Y-11404674D01*
X10422444Y-11404674D02*
X10431967Y-11366579D01*
X10431967Y-11366579D02*
X10441491Y-11347531D01*
X10441491Y-11347531D02*
X10451015Y-11338008D01*
X10451015Y-11338008D02*
X10470063Y-11328484D01*
X10660539Y-11328484D02*
X10679586Y-11328484D01*
X10679586Y-11328484D02*
X10698634Y-11338008D01*
X10698634Y-11338008D02*
X10708158Y-11347531D01*
X10708158Y-11347531D02*
X10717682Y-11366579D01*
X10717682Y-11366579D02*
X10727205Y-11404674D01*
X10727205Y-11404674D02*
X10727205Y-11452293D01*
X10727205Y-11452293D02*
X10717682Y-11490388D01*
X10717682Y-11490388D02*
X10708158Y-11509436D01*
X10708158Y-11509436D02*
X10698634Y-11518960D01*
X10698634Y-11518960D02*
X10679586Y-11528484D01*
X10679586Y-11528484D02*
X10660539Y-11528484D01*
X10660539Y-11528484D02*
X10641491Y-11518960D01*
X10641491Y-11518960D02*
X10631967Y-11509436D01*
X10631967Y-11509436D02*
X10622444Y-11490388D01*
X10622444Y-11490388D02*
X10612920Y-11452293D01*
X10612920Y-11452293D02*
X10612920Y-11404674D01*
X10612920Y-11404674D02*
X10622444Y-11366579D01*
X10622444Y-11366579D02*
X10631967Y-11347531D01*
X10631967Y-11347531D02*
X10641491Y-11338008D01*
X10641491Y-11338008D02*
X10660539Y-11328484D01*
X10812920Y-11528484D02*
X10812920Y-11395150D01*
X10812920Y-11414198D02*
X10822444Y-11404674D01*
X10822444Y-11404674D02*
X10841491Y-11395150D01*
X10841491Y-11395150D02*
X10870063Y-11395150D01*
X10870063Y-11395150D02*
X10889110Y-11404674D01*
X10889110Y-11404674D02*
X10898634Y-11423722D01*
X10898634Y-11423722D02*
X10898634Y-11528484D01*
X10898634Y-11423722D02*
X10908158Y-11404674D01*
X10908158Y-11404674D02*
X10927205Y-11395150D01*
X10927205Y-11395150D02*
X10955777Y-11395150D01*
X10955777Y-11395150D02*
X10974825Y-11404674D01*
X10974825Y-11404674D02*
X10984348Y-11423722D01*
X10984348Y-11423722D02*
X10984348Y-11528484D01*
X11079586Y-11528484D02*
X11079586Y-11395150D01*
X11079586Y-11414198D02*
X11089110Y-11404674D01*
X11089110Y-11404674D02*
X11108158Y-11395150D01*
X11108158Y-11395150D02*
X11136729Y-11395150D01*
X11136729Y-11395150D02*
X11155777Y-11404674D01*
X11155777Y-11404674D02*
X11165301Y-11423722D01*
X11165301Y-11423722D02*
X11165301Y-11528484D01*
X11165301Y-11423722D02*
X11174825Y-11404674D01*
X11174825Y-11404674D02*
X11193872Y-11395150D01*
X11193872Y-11395150D02*
X11222443Y-11395150D01*
X11222443Y-11395150D02*
X11241491Y-11404674D01*
X11241491Y-11404674D02*
X11251015Y-11423722D01*
X11251015Y-11423722D02*
X11251015Y-11528484D01*
X11641491Y-11318960D02*
X11470063Y-11576103D01*
X11898634Y-11328484D02*
X11917682Y-11328484D01*
X11917682Y-11328484D02*
X11936729Y-11338008D01*
X11936729Y-11338008D02*
X11946253Y-11347531D01*
X11946253Y-11347531D02*
X11955777Y-11366579D01*
X11955777Y-11366579D02*
X11965301Y-11404674D01*
X11965301Y-11404674D02*
X11965301Y-11452293D01*
X11965301Y-11452293D02*
X11955777Y-11490388D01*
X11955777Y-11490388D02*
X11946253Y-11509436D01*
X11946253Y-11509436D02*
X11936729Y-11518960D01*
X11936729Y-11518960D02*
X11917682Y-11528484D01*
X11917682Y-11528484D02*
X11898634Y-11528484D01*
X11898634Y-11528484D02*
X11879586Y-11518960D01*
X11879586Y-11518960D02*
X11870063Y-11509436D01*
X11870063Y-11509436D02*
X11860539Y-11490388D01*
X11860539Y-11490388D02*
X11851015Y-11452293D01*
X11851015Y-11452293D02*
X11851015Y-11404674D01*
X11851015Y-11404674D02*
X11860539Y-11366579D01*
X11860539Y-11366579D02*
X11870063Y-11347531D01*
X11870063Y-11347531D02*
X11879586Y-11338008D01*
X11879586Y-11338008D02*
X11898634Y-11328484D01*
X12051015Y-11509436D02*
X12060539Y-11518960D01*
X12060539Y-11518960D02*
X12051015Y-11528484D01*
X12051015Y-11528484D02*
X12041491Y-11518960D01*
X12041491Y-11518960D02*
X12051015Y-11509436D01*
X12051015Y-11509436D02*
X12051015Y-11528484D01*
X12184348Y-11328484D02*
X12203396Y-11328484D01*
X12203396Y-11328484D02*
X12222444Y-11338008D01*
X12222444Y-11338008D02*
X12231967Y-11347531D01*
X12231967Y-11347531D02*
X12241491Y-11366579D01*
X12241491Y-11366579D02*
X12251015Y-11404674D01*
X12251015Y-11404674D02*
X12251015Y-11452293D01*
X12251015Y-11452293D02*
X12241491Y-11490388D01*
X12241491Y-11490388D02*
X12231967Y-11509436D01*
X12231967Y-11509436D02*
X12222444Y-11518960D01*
X12222444Y-11518960D02*
X12203396Y-11528484D01*
X12203396Y-11528484D02*
X12184348Y-11528484D01*
X12184348Y-11528484D02*
X12165301Y-11518960D01*
X12165301Y-11518960D02*
X12155777Y-11509436D01*
X12155777Y-11509436D02*
X12146253Y-11490388D01*
X12146253Y-11490388D02*
X12136729Y-11452293D01*
X12136729Y-11452293D02*
X12136729Y-11404674D01*
X12136729Y-11404674D02*
X12146253Y-11366579D01*
X12146253Y-11366579D02*
X12155777Y-11347531D01*
X12155777Y-11347531D02*
X12165301Y-11338008D01*
X12165301Y-11338008D02*
X12184348Y-11328484D01*
X12317682Y-11328484D02*
X12441491Y-11328484D01*
X12441491Y-11328484D02*
X12374825Y-11404674D01*
X12374825Y-11404674D02*
X12403396Y-11404674D01*
X12403396Y-11404674D02*
X12422444Y-11414198D01*
X12422444Y-11414198D02*
X12431967Y-11423722D01*
X12431967Y-11423722D02*
X12441491Y-11442769D01*
X12441491Y-11442769D02*
X12441491Y-11490388D01*
X12441491Y-11490388D02*
X12431967Y-11509436D01*
X12431967Y-11509436D02*
X12422444Y-11518960D01*
X12422444Y-11518960D02*
X12403396Y-11528484D01*
X12403396Y-11528484D02*
X12346253Y-11528484D01*
X12346253Y-11528484D02*
X12327206Y-11518960D01*
X12327206Y-11518960D02*
X12317682Y-11509436D01*
X12536729Y-11528484D02*
X12574825Y-11528484D01*
X12574825Y-11528484D02*
X12593872Y-11518960D01*
X12593872Y-11518960D02*
X12603396Y-11509436D01*
X12603396Y-11509436D02*
X12622444Y-11480865D01*
X12622444Y-11480865D02*
X12631967Y-11442769D01*
X12631967Y-11442769D02*
X12631967Y-11366579D01*
X12631967Y-11366579D02*
X12622444Y-11347531D01*
X12622444Y-11347531D02*
X12612920Y-11338008D01*
X12612920Y-11338008D02*
X12593872Y-11328484D01*
X12593872Y-11328484D02*
X12555777Y-11328484D01*
X12555777Y-11328484D02*
X12536729Y-11338008D01*
X12536729Y-11338008D02*
X12527206Y-11347531D01*
X12527206Y-11347531D02*
X12517682Y-11366579D01*
X12517682Y-11366579D02*
X12517682Y-11414198D01*
X12517682Y-11414198D02*
X12527206Y-11433246D01*
X12527206Y-11433246D02*
X12536729Y-11442769D01*
X12536729Y-11442769D02*
X12555777Y-11452293D01*
X12555777Y-11452293D02*
X12593872Y-11452293D01*
X12593872Y-11452293D02*
X12612920Y-11442769D01*
X12612920Y-11442769D02*
X12622444Y-11433246D01*
X12622444Y-11433246D02*
X12631967Y-11414198D01*
X12803396Y-11395150D02*
X12803396Y-11528484D01*
X12755777Y-11318960D02*
X12708158Y-11461817D01*
X12708158Y-11461817D02*
X12831967Y-11461817D01*
X12898634Y-11328484D02*
X12898634Y-11366579D01*
X12974825Y-11328484D02*
X12974825Y-11366579D01*
X13270063Y-11604674D02*
X13260539Y-11595150D01*
X13260539Y-11595150D02*
X13241491Y-11566579D01*
X13241491Y-11566579D02*
X13231968Y-11547531D01*
X13231968Y-11547531D02*
X13222444Y-11518960D01*
X13222444Y-11518960D02*
X13212920Y-11471341D01*
X13212920Y-11471341D02*
X13212920Y-11433246D01*
X13212920Y-11433246D02*
X13222444Y-11385627D01*
X13222444Y-11385627D02*
X13231968Y-11357055D01*
X13231968Y-11357055D02*
X13241491Y-11338008D01*
X13241491Y-11338008D02*
X13260539Y-11309436D01*
X13260539Y-11309436D02*
X13270063Y-11299912D01*
X13327206Y-11328484D02*
X13451015Y-11328484D01*
X13451015Y-11328484D02*
X13384348Y-11404674D01*
X13384348Y-11404674D02*
X13412920Y-11404674D01*
X13412920Y-11404674D02*
X13431968Y-11414198D01*
X13431968Y-11414198D02*
X13441491Y-11423722D01*
X13441491Y-11423722D02*
X13451015Y-11442769D01*
X13451015Y-11442769D02*
X13451015Y-11490388D01*
X13451015Y-11490388D02*
X13441491Y-11509436D01*
X13441491Y-11509436D02*
X13431968Y-11518960D01*
X13431968Y-11518960D02*
X13412920Y-11528484D01*
X13412920Y-11528484D02*
X13355777Y-11528484D01*
X13355777Y-11528484D02*
X13336729Y-11518960D01*
X13336729Y-11518960D02*
X13327206Y-11509436D01*
X13517682Y-11328484D02*
X13651015Y-11328484D01*
X13651015Y-11328484D02*
X13565301Y-11528484D01*
X13879587Y-11528484D02*
X13879587Y-11328484D01*
X13965301Y-11528484D02*
X13965301Y-11423722D01*
X13965301Y-11423722D02*
X13955777Y-11404674D01*
X13955777Y-11404674D02*
X13936730Y-11395150D01*
X13936730Y-11395150D02*
X13908158Y-11395150D01*
X13908158Y-11395150D02*
X13889110Y-11404674D01*
X13889110Y-11404674D02*
X13879587Y-11414198D01*
X14089110Y-11528484D02*
X14070063Y-11518960D01*
X14070063Y-11518960D02*
X14060539Y-11509436D01*
X14060539Y-11509436D02*
X14051015Y-11490388D01*
X14051015Y-11490388D02*
X14051015Y-11433246D01*
X14051015Y-11433246D02*
X14060539Y-11414198D01*
X14060539Y-11414198D02*
X14070063Y-11404674D01*
X14070063Y-11404674D02*
X14089110Y-11395150D01*
X14089110Y-11395150D02*
X14117682Y-11395150D01*
X14117682Y-11395150D02*
X14136730Y-11404674D01*
X14136730Y-11404674D02*
X14146253Y-11414198D01*
X14146253Y-11414198D02*
X14155777Y-11433246D01*
X14155777Y-11433246D02*
X14155777Y-11490388D01*
X14155777Y-11490388D02*
X14146253Y-11509436D01*
X14146253Y-11509436D02*
X14136730Y-11518960D01*
X14136730Y-11518960D02*
X14117682Y-11528484D01*
X14117682Y-11528484D02*
X14089110Y-11528484D01*
X14270063Y-11528484D02*
X14251015Y-11518960D01*
X14251015Y-11518960D02*
X14241491Y-11499912D01*
X14241491Y-11499912D02*
X14241491Y-11328484D01*
X14422444Y-11518960D02*
X14403396Y-11528484D01*
X14403396Y-11528484D02*
X14365301Y-11528484D01*
X14365301Y-11528484D02*
X14346253Y-11518960D01*
X14346253Y-11518960D02*
X14336730Y-11499912D01*
X14336730Y-11499912D02*
X14336730Y-11423722D01*
X14336730Y-11423722D02*
X14346253Y-11404674D01*
X14346253Y-11404674D02*
X14365301Y-11395150D01*
X14365301Y-11395150D02*
X14403396Y-11395150D01*
X14403396Y-11395150D02*
X14422444Y-11404674D01*
X14422444Y-11404674D02*
X14431968Y-11423722D01*
X14431968Y-11423722D02*
X14431968Y-11442769D01*
X14431968Y-11442769D02*
X14336730Y-11461817D01*
X14508158Y-11518960D02*
X14527206Y-11528484D01*
X14527206Y-11528484D02*
X14565301Y-11528484D01*
X14565301Y-11528484D02*
X14584349Y-11518960D01*
X14584349Y-11518960D02*
X14593872Y-11499912D01*
X14593872Y-11499912D02*
X14593872Y-11490388D01*
X14593872Y-11490388D02*
X14584349Y-11471341D01*
X14584349Y-11471341D02*
X14565301Y-11461817D01*
X14565301Y-11461817D02*
X14536730Y-11461817D01*
X14536730Y-11461817D02*
X14517682Y-11452293D01*
X14517682Y-11452293D02*
X14508158Y-11433246D01*
X14508158Y-11433246D02*
X14508158Y-11423722D01*
X14508158Y-11423722D02*
X14517682Y-11404674D01*
X14517682Y-11404674D02*
X14536730Y-11395150D01*
X14536730Y-11395150D02*
X14565301Y-11395150D01*
X14565301Y-11395150D02*
X14584349Y-11404674D01*
X14660539Y-11604674D02*
X14670063Y-11595150D01*
X14670063Y-11595150D02*
X14689111Y-11566579D01*
X14689111Y-11566579D02*
X14698634Y-11547531D01*
X14698634Y-11547531D02*
X14708158Y-11518960D01*
X14708158Y-11518960D02*
X14717682Y-11471341D01*
X14717682Y-11471341D02*
X14717682Y-11433246D01*
X14717682Y-11433246D02*
X14708158Y-11385627D01*
X14708158Y-11385627D02*
X14698634Y-11357055D01*
X14698634Y-11357055D02*
X14689111Y-11338008D01*
X14689111Y-11338008D02*
X14670063Y-11309436D01*
X14670063Y-11309436D02*
X14660539Y-11299912D01*
D14*
X9644000Y-11752000D02*
X9695000Y-11701000D01*
X9644000Y-11650000D01*
X9593000Y-11701000D01*
X9644000Y-11752000D01*
D11*
X10060539Y-11792484D02*
X9946253Y-11792484D01*
X10003396Y-11792484D02*
X10003396Y-11592484D01*
X10003396Y-11592484D02*
X9984348Y-11621055D01*
X9984348Y-11621055D02*
X9965301Y-11640103D01*
X9965301Y-11640103D02*
X9946253Y-11649627D01*
X10146253Y-11773436D02*
X10155777Y-11782960D01*
X10155777Y-11782960D02*
X10146253Y-11792484D01*
X10146253Y-11792484D02*
X10136729Y-11782960D01*
X10136729Y-11782960D02*
X10146253Y-11773436D01*
X10146253Y-11773436D02*
X10146253Y-11792484D01*
X10279586Y-11592484D02*
X10298634Y-11592484D01*
X10298634Y-11592484D02*
X10317682Y-11602008D01*
X10317682Y-11602008D02*
X10327205Y-11611531D01*
X10327205Y-11611531D02*
X10336729Y-11630579D01*
X10336729Y-11630579D02*
X10346253Y-11668674D01*
X10346253Y-11668674D02*
X10346253Y-11716293D01*
X10346253Y-11716293D02*
X10336729Y-11754388D01*
X10336729Y-11754388D02*
X10327205Y-11773436D01*
X10327205Y-11773436D02*
X10317682Y-11782960D01*
X10317682Y-11782960D02*
X10298634Y-11792484D01*
X10298634Y-11792484D02*
X10279586Y-11792484D01*
X10279586Y-11792484D02*
X10260539Y-11782960D01*
X10260539Y-11782960D02*
X10251015Y-11773436D01*
X10251015Y-11773436D02*
X10241491Y-11754388D01*
X10241491Y-11754388D02*
X10231967Y-11716293D01*
X10231967Y-11716293D02*
X10231967Y-11668674D01*
X10231967Y-11668674D02*
X10241491Y-11630579D01*
X10241491Y-11630579D02*
X10251015Y-11611531D01*
X10251015Y-11611531D02*
X10260539Y-11602008D01*
X10260539Y-11602008D02*
X10279586Y-11592484D01*
X10422444Y-11611531D02*
X10431967Y-11602008D01*
X10431967Y-11602008D02*
X10451015Y-11592484D01*
X10451015Y-11592484D02*
X10498634Y-11592484D01*
X10498634Y-11592484D02*
X10517682Y-11602008D01*
X10517682Y-11602008D02*
X10527205Y-11611531D01*
X10527205Y-11611531D02*
X10536729Y-11630579D01*
X10536729Y-11630579D02*
X10536729Y-11649627D01*
X10536729Y-11649627D02*
X10527205Y-11678198D01*
X10527205Y-11678198D02*
X10412920Y-11792484D01*
X10412920Y-11792484D02*
X10536729Y-11792484D01*
X10660539Y-11592484D02*
X10679586Y-11592484D01*
X10679586Y-11592484D02*
X10698634Y-11602008D01*
X10698634Y-11602008D02*
X10708158Y-11611531D01*
X10708158Y-11611531D02*
X10717682Y-11630579D01*
X10717682Y-11630579D02*
X10727205Y-11668674D01*
X10727205Y-11668674D02*
X10727205Y-11716293D01*
X10727205Y-11716293D02*
X10717682Y-11754388D01*
X10717682Y-11754388D02*
X10708158Y-11773436D01*
X10708158Y-11773436D02*
X10698634Y-11782960D01*
X10698634Y-11782960D02*
X10679586Y-11792484D01*
X10679586Y-11792484D02*
X10660539Y-11792484D01*
X10660539Y-11792484D02*
X10641491Y-11782960D01*
X10641491Y-11782960D02*
X10631967Y-11773436D01*
X10631967Y-11773436D02*
X10622444Y-11754388D01*
X10622444Y-11754388D02*
X10612920Y-11716293D01*
X10612920Y-11716293D02*
X10612920Y-11668674D01*
X10612920Y-11668674D02*
X10622444Y-11630579D01*
X10622444Y-11630579D02*
X10631967Y-11611531D01*
X10631967Y-11611531D02*
X10641491Y-11602008D01*
X10641491Y-11602008D02*
X10660539Y-11592484D01*
X10812920Y-11792484D02*
X10812920Y-11659150D01*
X10812920Y-11678198D02*
X10822444Y-11668674D01*
X10822444Y-11668674D02*
X10841491Y-11659150D01*
X10841491Y-11659150D02*
X10870063Y-11659150D01*
X10870063Y-11659150D02*
X10889110Y-11668674D01*
X10889110Y-11668674D02*
X10898634Y-11687722D01*
X10898634Y-11687722D02*
X10898634Y-11792484D01*
X10898634Y-11687722D02*
X10908158Y-11668674D01*
X10908158Y-11668674D02*
X10927205Y-11659150D01*
X10927205Y-11659150D02*
X10955777Y-11659150D01*
X10955777Y-11659150D02*
X10974825Y-11668674D01*
X10974825Y-11668674D02*
X10984348Y-11687722D01*
X10984348Y-11687722D02*
X10984348Y-11792484D01*
X11079586Y-11792484D02*
X11079586Y-11659150D01*
X11079586Y-11678198D02*
X11089110Y-11668674D01*
X11089110Y-11668674D02*
X11108158Y-11659150D01*
X11108158Y-11659150D02*
X11136729Y-11659150D01*
X11136729Y-11659150D02*
X11155777Y-11668674D01*
X11155777Y-11668674D02*
X11165301Y-11687722D01*
X11165301Y-11687722D02*
X11165301Y-11792484D01*
X11165301Y-11687722D02*
X11174825Y-11668674D01*
X11174825Y-11668674D02*
X11193872Y-11659150D01*
X11193872Y-11659150D02*
X11222443Y-11659150D01*
X11222443Y-11659150D02*
X11241491Y-11668674D01*
X11241491Y-11668674D02*
X11251015Y-11687722D01*
X11251015Y-11687722D02*
X11251015Y-11792484D01*
X11641491Y-11582960D02*
X11470063Y-11840103D01*
X11898634Y-11592484D02*
X11917682Y-11592484D01*
X11917682Y-11592484D02*
X11936729Y-11602008D01*
X11936729Y-11602008D02*
X11946253Y-11611531D01*
X11946253Y-11611531D02*
X11955777Y-11630579D01*
X11955777Y-11630579D02*
X11965301Y-11668674D01*
X11965301Y-11668674D02*
X11965301Y-11716293D01*
X11965301Y-11716293D02*
X11955777Y-11754388D01*
X11955777Y-11754388D02*
X11946253Y-11773436D01*
X11946253Y-11773436D02*
X11936729Y-11782960D01*
X11936729Y-11782960D02*
X11917682Y-11792484D01*
X11917682Y-11792484D02*
X11898634Y-11792484D01*
X11898634Y-11792484D02*
X11879586Y-11782960D01*
X11879586Y-11782960D02*
X11870063Y-11773436D01*
X11870063Y-11773436D02*
X11860539Y-11754388D01*
X11860539Y-11754388D02*
X11851015Y-11716293D01*
X11851015Y-11716293D02*
X11851015Y-11668674D01*
X11851015Y-11668674D02*
X11860539Y-11630579D01*
X11860539Y-11630579D02*
X11870063Y-11611531D01*
X11870063Y-11611531D02*
X11879586Y-11602008D01*
X11879586Y-11602008D02*
X11898634Y-11592484D01*
X12051015Y-11773436D02*
X12060539Y-11782960D01*
X12060539Y-11782960D02*
X12051015Y-11792484D01*
X12051015Y-11792484D02*
X12041491Y-11782960D01*
X12041491Y-11782960D02*
X12051015Y-11773436D01*
X12051015Y-11773436D02*
X12051015Y-11792484D01*
X12184348Y-11592484D02*
X12203396Y-11592484D01*
X12203396Y-11592484D02*
X12222444Y-11602008D01*
X12222444Y-11602008D02*
X12231967Y-11611531D01*
X12231967Y-11611531D02*
X12241491Y-11630579D01*
X12241491Y-11630579D02*
X12251015Y-11668674D01*
X12251015Y-11668674D02*
X12251015Y-11716293D01*
X12251015Y-11716293D02*
X12241491Y-11754388D01*
X12241491Y-11754388D02*
X12231967Y-11773436D01*
X12231967Y-11773436D02*
X12222444Y-11782960D01*
X12222444Y-11782960D02*
X12203396Y-11792484D01*
X12203396Y-11792484D02*
X12184348Y-11792484D01*
X12184348Y-11792484D02*
X12165301Y-11782960D01*
X12165301Y-11782960D02*
X12155777Y-11773436D01*
X12155777Y-11773436D02*
X12146253Y-11754388D01*
X12146253Y-11754388D02*
X12136729Y-11716293D01*
X12136729Y-11716293D02*
X12136729Y-11668674D01*
X12136729Y-11668674D02*
X12146253Y-11630579D01*
X12146253Y-11630579D02*
X12155777Y-11611531D01*
X12155777Y-11611531D02*
X12165301Y-11602008D01*
X12165301Y-11602008D02*
X12184348Y-11592484D01*
X12422444Y-11659150D02*
X12422444Y-11792484D01*
X12374825Y-11582960D02*
X12327206Y-11725817D01*
X12327206Y-11725817D02*
X12451015Y-11725817D01*
X12565301Y-11592484D02*
X12584348Y-11592484D01*
X12584348Y-11592484D02*
X12603396Y-11602008D01*
X12603396Y-11602008D02*
X12612920Y-11611531D01*
X12612920Y-11611531D02*
X12622444Y-11630579D01*
X12622444Y-11630579D02*
X12631967Y-11668674D01*
X12631967Y-11668674D02*
X12631967Y-11716293D01*
X12631967Y-11716293D02*
X12622444Y-11754388D01*
X12622444Y-11754388D02*
X12612920Y-11773436D01*
X12612920Y-11773436D02*
X12603396Y-11782960D01*
X12603396Y-11782960D02*
X12584348Y-11792484D01*
X12584348Y-11792484D02*
X12565301Y-11792484D01*
X12565301Y-11792484D02*
X12546253Y-11782960D01*
X12546253Y-11782960D02*
X12536729Y-11773436D01*
X12536729Y-11773436D02*
X12527206Y-11754388D01*
X12527206Y-11754388D02*
X12517682Y-11716293D01*
X12517682Y-11716293D02*
X12517682Y-11668674D01*
X12517682Y-11668674D02*
X12527206Y-11630579D01*
X12527206Y-11630579D02*
X12536729Y-11611531D01*
X12536729Y-11611531D02*
X12546253Y-11602008D01*
X12546253Y-11602008D02*
X12565301Y-11592484D01*
X12708158Y-11611531D02*
X12717682Y-11602008D01*
X12717682Y-11602008D02*
X12736729Y-11592484D01*
X12736729Y-11592484D02*
X12784348Y-11592484D01*
X12784348Y-11592484D02*
X12803396Y-11602008D01*
X12803396Y-11602008D02*
X12812920Y-11611531D01*
X12812920Y-11611531D02*
X12822444Y-11630579D01*
X12822444Y-11630579D02*
X12822444Y-11649627D01*
X12822444Y-11649627D02*
X12812920Y-11678198D01*
X12812920Y-11678198D02*
X12698634Y-11792484D01*
X12698634Y-11792484D02*
X12822444Y-11792484D01*
X12898634Y-11592484D02*
X12898634Y-11630579D01*
X12974825Y-11592484D02*
X12974825Y-11630579D01*
X13270063Y-11868674D02*
X13260539Y-11859150D01*
X13260539Y-11859150D02*
X13241491Y-11830579D01*
X13241491Y-11830579D02*
X13231968Y-11811531D01*
X13231968Y-11811531D02*
X13222444Y-11782960D01*
X13222444Y-11782960D02*
X13212920Y-11735341D01*
X13212920Y-11735341D02*
X13212920Y-11697246D01*
X13212920Y-11697246D02*
X13222444Y-11649627D01*
X13222444Y-11649627D02*
X13231968Y-11621055D01*
X13231968Y-11621055D02*
X13241491Y-11602008D01*
X13241491Y-11602008D02*
X13260539Y-11573436D01*
X13260539Y-11573436D02*
X13270063Y-11563912D01*
X13451015Y-11792484D02*
X13336729Y-11792484D01*
X13393872Y-11792484D02*
X13393872Y-11592484D01*
X13393872Y-11592484D02*
X13374825Y-11621055D01*
X13374825Y-11621055D02*
X13355777Y-11640103D01*
X13355777Y-11640103D02*
X13336729Y-11649627D01*
X13622444Y-11659150D02*
X13622444Y-11792484D01*
X13574825Y-11582960D02*
X13527206Y-11725817D01*
X13527206Y-11725817D02*
X13651015Y-11725817D01*
X13879587Y-11792484D02*
X13879587Y-11592484D01*
X13965301Y-11792484D02*
X13965301Y-11687722D01*
X13965301Y-11687722D02*
X13955777Y-11668674D01*
X13955777Y-11668674D02*
X13936730Y-11659150D01*
X13936730Y-11659150D02*
X13908158Y-11659150D01*
X13908158Y-11659150D02*
X13889110Y-11668674D01*
X13889110Y-11668674D02*
X13879587Y-11678198D01*
X14089110Y-11792484D02*
X14070063Y-11782960D01*
X14070063Y-11782960D02*
X14060539Y-11773436D01*
X14060539Y-11773436D02*
X14051015Y-11754388D01*
X14051015Y-11754388D02*
X14051015Y-11697246D01*
X14051015Y-11697246D02*
X14060539Y-11678198D01*
X14060539Y-11678198D02*
X14070063Y-11668674D01*
X14070063Y-11668674D02*
X14089110Y-11659150D01*
X14089110Y-11659150D02*
X14117682Y-11659150D01*
X14117682Y-11659150D02*
X14136730Y-11668674D01*
X14136730Y-11668674D02*
X14146253Y-11678198D01*
X14146253Y-11678198D02*
X14155777Y-11697246D01*
X14155777Y-11697246D02*
X14155777Y-11754388D01*
X14155777Y-11754388D02*
X14146253Y-11773436D01*
X14146253Y-11773436D02*
X14136730Y-11782960D01*
X14136730Y-11782960D02*
X14117682Y-11792484D01*
X14117682Y-11792484D02*
X14089110Y-11792484D01*
X14270063Y-11792484D02*
X14251015Y-11782960D01*
X14251015Y-11782960D02*
X14241491Y-11763912D01*
X14241491Y-11763912D02*
X14241491Y-11592484D01*
X14422444Y-11782960D02*
X14403396Y-11792484D01*
X14403396Y-11792484D02*
X14365301Y-11792484D01*
X14365301Y-11792484D02*
X14346253Y-11782960D01*
X14346253Y-11782960D02*
X14336730Y-11763912D01*
X14336730Y-11763912D02*
X14336730Y-11687722D01*
X14336730Y-11687722D02*
X14346253Y-11668674D01*
X14346253Y-11668674D02*
X14365301Y-11659150D01*
X14365301Y-11659150D02*
X14403396Y-11659150D01*
X14403396Y-11659150D02*
X14422444Y-11668674D01*
X14422444Y-11668674D02*
X14431968Y-11687722D01*
X14431968Y-11687722D02*
X14431968Y-11706769D01*
X14431968Y-11706769D02*
X14336730Y-11725817D01*
X14508158Y-11782960D02*
X14527206Y-11792484D01*
X14527206Y-11792484D02*
X14565301Y-11792484D01*
X14565301Y-11792484D02*
X14584349Y-11782960D01*
X14584349Y-11782960D02*
X14593872Y-11763912D01*
X14593872Y-11763912D02*
X14593872Y-11754388D01*
X14593872Y-11754388D02*
X14584349Y-11735341D01*
X14584349Y-11735341D02*
X14565301Y-11725817D01*
X14565301Y-11725817D02*
X14536730Y-11725817D01*
X14536730Y-11725817D02*
X14517682Y-11716293D01*
X14517682Y-11716293D02*
X14508158Y-11697246D01*
X14508158Y-11697246D02*
X14508158Y-11687722D01*
X14508158Y-11687722D02*
X14517682Y-11668674D01*
X14517682Y-11668674D02*
X14536730Y-11659150D01*
X14536730Y-11659150D02*
X14565301Y-11659150D01*
X14565301Y-11659150D02*
X14584349Y-11668674D01*
X14660539Y-11868674D02*
X14670063Y-11859150D01*
X14670063Y-11859150D02*
X14689111Y-11830579D01*
X14689111Y-11830579D02*
X14698634Y-11811531D01*
X14698634Y-11811531D02*
X14708158Y-11782960D01*
X14708158Y-11782960D02*
X14717682Y-11735341D01*
X14717682Y-11735341D02*
X14717682Y-11697246D01*
X14717682Y-11697246D02*
X14708158Y-11649627D01*
X14708158Y-11649627D02*
X14698634Y-11621055D01*
X14698634Y-11621055D02*
X14689111Y-11602008D01*
X14689111Y-11602008D02*
X14670063Y-11573436D01*
X14670063Y-11573436D02*
X14660539Y-11563912D01*
M02*
