<?xml version="1.0" standalone="no"?>
 <!DOCTYPE svg PUBLIC "-//W3C//DTD SVG 1.1//EN" 
 "http://www.w3.org/Graphics/SVG/1.1/DTD/svg11.dtd"> 
<svg
  xmlns:svg="http://www.w3.org/2000/svg"
  xmlns="http://www.w3.org/2000/svg"
  xmlns:xlink="http://www.w3.org/1999/xlink"
  version="1.1"
  width="297.0022mm" height="210.0072mm" viewBox="0.0000 0.0000 297.0022 210.0072">
<title>SVG Image created as programmer-Edge_Cuts.svg date 2024/04/26 19:15:53 </title>
  <desc>Image generated by PCBNEW </desc>
<g style="fill:#000000; fill-opacity:1.0000;stroke:#000000; stroke-opacity:1.0000;
stroke-linecap:round; stroke-linejoin:round;"
 transform="translate(0 0) scale(1 1)">
</g>
<g style="fill:#000000; fill-opacity:0.0; 
stroke:#000000; stroke-width:0.0000; stroke-opacity:1; 
stroke-linecap:round; stroke-linejoin:round;">
</g>
<g style="fill:#000000; fill-opacity:0.0; 
stroke:#000000; stroke-width:0.1000; stroke-opacity:1; 
stroke-linecap:round; stroke-linejoin:round;">
<path d="M98.0000 62.9000
L134.6000 62.9000
" />
<path d="M97.0000 99.0000
L97.0000 63.9000
" />
<path d="M141.3000 88.6000
L136.4000 88.6000
" />
<path d="M141.3000 88.6000 A1.0000 1.0000 0.0 0 0 142.3000 87.6000" />
<path d="M135.6000 73.5000 A1.0000 1.0000 0.0 0 0 136.6000 74.5000" />
<path d="M135.6000 63.9000
L135.6000 73.5000
" />
<path d="M136.6000 74.5000
L141.3000 74.5000
" />
<path d="M119.4000 100.0000 A1.0000 1.0000 0.0 0 0 120.4000 99.0000" />
<path d="M135.6000 63.9000 A1.0000 1.0000 0.0 0 0 134.6000 62.9000" />
<path d="M142.3000 75.5000
L142.3000 87.6000
" />
<path d="M134.4000 92.8000 A1.0000 1.0000 0.0 0 0 135.4000 91.8000" />
<path d="M136.4000 88.6000 A1.0000 1.0000 0.0 0 0 135.4000 89.6000" />
<path d="M98.0000 62.9000 A1.0000 1.0000 0.0 0 0 97.0000 63.9000" />
<path d="M135.4000 89.6000
L135.4000 91.8000
" />
<path d="M134.4000 92.8000
L121.4000 92.8000
" />
<path d="M119.4000 100.0000
L98.0000 100.0000
" />
<path d="M142.3000 75.5000 A1.0000 1.0000 0.0 0 0 141.3000 74.5000" />
<path d="M120.4000 93.8000
L120.4000 99.0000
" />
<path d="M121.4000 92.8000 A1.0000 1.0000 0.0 0 0 120.4000 93.8000" />
<path d="M97.0000 99.0000 A1.0000 1.0000 0.0 0 0 98.0000 100.0000" />
<g >
</g>
<g >
</g>
<g >
</g>
<g >
</g>
<g >
</g>
<g >
</g>
<g >
</g>
<g >
</g>
<g >
</g>
<g >
</g>
<g >
</g>
<g >
</g>
<g >
</g>
<g >
</g>
<g >
</g>
<g >
</g>
<g >
</g>
<g >
</g>
<g >
</g>
<g >
</g>
<g >
</g>
<g >
</g>
<g >
</g>
<g >
</g>
<g >
</g>
<g >
</g>
<g >
</g>
<g >
</g>
<g >
</g>
<g >
</g>
<g >
</g>
<g >
</g>
<g >
</g>
<g >
</g>
<g >
</g>
<g >
</g>
<g >
</g>
<g >
</g>
<g >
</g>
<g >
</g>
<g >
</g>
<g >
</g>
<g >
</g>
<g >
</g>
<g >
</g>
<g >
</g>
</g> 
</svg>
