<?xml version="1.0" encoding="utf-8"?>
<!-- Generator: Adobe Illustrator 26.5.0, SVG Export Plug-In . SVG Version: 6.00 Build 0)  -->
<svg version="1.1" id="Layer_1" xmlns="http://www.w3.org/2000/svg" xmlns:xlink="http://www.w3.org/1999/xlink" x="0px" y="0px"
	 viewBox="0 0 288 288" style="enable-background:new 0 0 288 288;" xml:space="preserve">
<style type="text/css">
	.st0{fill:#0000FF;stroke:#0000FF;stroke-width:0.2;stroke-miterlimit:11.3;}
	.st1{fill:none;stroke:#000000;stroke-width:0.2;stroke-miterlimit:11.3;}
	.st2{fill:none;stroke:#0000FF;stroke-width:7.200000e-02;stroke-miterlimit:10;}
</style>
<path class="st0" d="M143.8,170.7h0.2l0.1,0.1l0,0c0,0.1,0,0.3,0,0.3v1.9l-0.1,0.1h-0.1l-0.2,0.1h-1.5l-0.1-0.1l0,0
	c0-0.1,0-0.3,0-0.3v-1.9l0.1-0.1h0.1l0.2-0.1H143.8z"/>
<path class="st0" d="M143.8,175.6h0.2l0.1,0.1l0,0c0,0.1,0,0.3,0,0.3v1.9L144,178h-0.1l-0.2,0.1h-1.5l-0.1-0.1l0,0
	c0-0.1,0-0.3,0-0.3v-1.9l0.1-0.1h0.1l0.2-0.1H143.8z"/>
<path class="st0" d="M181.6,155.3h-0.2l-0.1-0.1l0,0c0-0.1,0-0.3,0-0.3V153l0.1-0.1h0.1l0.2-0.1h1.5l0.1,0.1l0,0c0,0.1,0,0.3,0,0.3
	v1.9l-0.1,0.1h-0.1l-0.2,0.1H181.6z"/>
<path class="st0" d="M181.6,150.4h-0.2l-0.1-0.1l0,0c0-0.1,0-0.3,0-0.3v-1.9l0.1-0.1h0.1l0.2-0.1h1.5l0.1,0.1l0,0c0,0.1,0,0.3,0,0.3
	v1.9l-0.1,0.1h-0.1l-0.2,0.1H181.6z"/>
<path class="st0" d="M155.7,170.5v0.2l-0.1,0.1h-0.1l-0.2,0.1h-1.6l-0.1-0.1l0,0c0-0.1,0-0.3,0-0.3V169l0.1-0.1h0.1l0.2-0.1h1.6
	l0.1,0.1l0,0c0,0.1,0,0.3,0,0.3V170.5z"/>
<path class="st0" d="M150.5,170.5v0.2l-0.1,0.1h-0.1l-0.2,0.1h-1.6l-0.1-0.1l0,0c0-0.1,0-0.3,0-0.3V169l0.1-0.1h0.1l0.2-0.1h1.6
	l0.1,0.1l0,0c0,0.1,0,0.3,0,0.3V170.5z"/>
<path class="st0" d="M159.7,157.8h-0.2l-0.1-0.1l0,0c0-0.1,0-0.3,0-0.3v-1.6l0.1-0.1h0.1l0.2-0.1h1.5l0.1,0.1l0,0c0,0.1,0,0.3,0,0.3
	v1.6l-0.1,0.1h-0.1l-0.2,0.1H159.7z"/>
<path class="st0" d="M159.7,152.7h-0.2l-0.1-0.1l0,0c0-0.1,0-0.3,0-0.3v-1.6l0.1-0.1h0.1l0.2-0.1h1.5l0.1,0.1l0,0c0,0.1,0,0.3,0,0.3
	v1.6l-0.1,0.1h-0.1l-0.2,0.1H159.7z"/>
<path class="st0" d="M194.3,171h0.2l0.1,0.1l0,0c0,0.1,0,0.3,0,0.3v1.9l-0.1,0.1h-0.1l-0.2,0.1h-1.5l-0.1-0.1l0,0c0-0.1,0-0.3,0-0.3
	v-1.9l0.1-0.1h0.1l0.2-0.1H194.3z"/>
<path class="st0" d="M194.3,175.8h0.2l0.1,0.1l0,0c0,0.1,0,0.3,0,0.3v1.9l-0.1,0.1h-0.1l-0.2,0.1h-1.5l-0.1-0.1l0,0
	c0-0.1,0-0.3,0-0.3V176l0.1-0.1h0.1l0.2-0.1H194.3z"/>
<path class="st0" d="M138.7,147.4h-0.2l-0.1-0.1l0,0c0-0.1,0-0.3,0-0.3v-1.8l0.1-0.1h0.1l0.2-0.1h1.5l0.1,0.1l0,0c0,0.1,0,0.3,0,0.3
	v1.8l-0.1,0.1h-0.1l-0.2,0.1H138.7z"/>
<path class="st0" d="M138.7,142.5h-0.2l-0.1-0.1l0,0c0-0.1,0-0.3,0-0.3v-1.8l0.1-0.1h0.1l0.2-0.1h1.5l0.1,0.1l0,0c0,0.1,0,0.3,0,0.3
	v1.8l-0.1,0.1h-0.1l-0.2,0.1H138.7z"/>
<path class="st0" d="M156.5,150.3h0.2l0.1,0.1l0,0c0,0.1,0,0.3,0,0.3v1.6l-0.1,0.1h-0.1l-0.2,0.1h-1.5l-0.1-0.1l0,0
	c0-0.1,0-0.3,0-0.3v-1.6l0.1-0.1h0.1l0.2-0.1H156.5z"/>
<path class="st0" d="M156.5,155.5h0.2l0.1,0.1l0,0c0,0.1,0,0.3,0,0.3v1.6l-0.1,0.1h-0.1l-0.2,0.1h-1.5l-0.1-0.1l0,0
	c0-0.1,0-0.3,0-0.3v-1.6l0.1-0.1h0.1l0.2-0.1H156.5z"/>
<path class="st0" d="M186.3,151.3v-0.2l0.1-0.1h0.1l0.2-0.1h1.6l0.1,0.1l0,0c0,0.1,0,0.3,0,0.3v1.5l-0.1,0.1h-0.1L188,153h-1.6
	l-0.1-0.1l0,0c0-0.1,0-0.3,0-0.3V151.3z"/>
<path class="st0" d="M191.4,151.3v-0.2l0.1-0.1h0.1l0.2-0.1h1.6l0.1,0.1l0,0c0,0.1,0,0.3,0,0.3v1.5l-0.1,0.1h-0.1l-0.2,0.1h-1.6
	l-0.1-0.1l0,0c0-0.1,0-0.3,0-0.3V151.3z"/>
<path class="st0" d="M158.1,161.3h5.2v3h-5.2V161.3z"/>
<path class="st0" d="M158.1,174.1h5.2v3h-5.2V174.1z"/>
<path class="st0" d="M173.4,176.9v-15.4h15.4v15.4H173.4z"/>
<path class="st0" d="M177.6,110.8v0.2l-0.1,0.1h-0.1l-0.2,0.1h-1.9l-0.1-0.1l0,0c0-0.1,0-0.3,0-0.3v-1.5l0.1-0.1h0.1l0.2-0.1h1.9
	l0.1,0.1l0,0c0,0.1,0,0.3,0,0.3V110.8z"/>
<path class="st0" d="M172.7,110.8v0.2l-0.1,0.1h-0.1l-0.2,0.1h-1.9l-0.1-0.1l0,0c0-0.1,0-0.3,0-0.3v-1.5l0.1-0.1h0.1l0.2-0.1h1.9
	l0.1,0.1l0,0c0,0.1,0,0.3,0,0.3V110.8z"/>
<path class="st0" d="M148.2,173.5v-0.2l0.1-0.1h0.1l0.2-0.1h1.6l0.1,0.1l0,0c0,0.1,0,0.3,0,0.3v1.5l-0.1,0.1h-0.1l-0.2,0.1h-1.6
	l-0.1-0.1l0,0c0-0.1,0-0.3,0-0.3V173.5z"/>
<path class="st0" d="M153.3,173.5v-0.2l0.1-0.1h0.1l0.2-0.1h1.6l0.1,0.1l0,0c0,0.1,0,0.3,0,0.3v1.5l-0.1,0.1h-0.1l-0.2,0.1h-1.6
	l-0.1-0.1l0,0c0-0.1,0-0.3,0-0.3V173.5z"/>
<path class="st0" d="M192.5,119.4h0.2l0.1,0.1l0,0c0,0.1,0,0.3,0,0.3v1.6l-0.1,0.1h-0.1l-0.2,0.1h-1.5l-0.1-0.1l0,0
	c0-0.1,0-0.3,0-0.3v-1.6l0.1-0.1h0.1l0.2-0.1H192.5z"/>
<path class="st0" d="M192.5,124.5h0.2l0.1,0.1l0,0c0,0.1,0,0.3,0,0.3v1.6l-0.1,0.1h-0.1l-0.2,0.1h-1.5l-0.1-0.1l0,0
	c0-0.1,0-0.3,0-0.3v-1.6l0.1-0.1h0.1l0.2-0.1H192.5z"/>
<path class="st0" d="M186.3,155.6v-0.2l0.1-0.1h0.1l0.2-0.1h1.6l0.1,0.1l0,0c0,0.1,0,0.3,0,0.3v1.5l-0.1,0.1h-0.1l-0.2,0.1h-1.6
	l-0.1-0.1l0,0c0-0.1,0-0.3,0-0.3V155.6z"/>
<path class="st0" d="M191.4,155.6v-0.2l0.1-0.1h0.1l0.2-0.1h1.6l0.1,0.1l0,0c0,0.1,0,0.3,0,0.3v1.5l-0.1,0.1h-0.1l-0.2,0.1h-1.6
	l-0.1-0.1l0,0c0-0.1,0-0.3,0-0.3V155.6z"/>
<path class="st0" d="M172.8,157.4v0.2l-0.1,0.1h-0.1l-0.2,0.1h-1.9l-0.1-0.1l0,0c0-0.1,0-0.3,0-0.3v-1.5l0.1-0.1h0.1l0.2-0.1h1.9
	l0.1,0.1l0,0c0,0.1,0,0.3,0,0.3V157.4z"/>
<path class="st0" d="M167.9,157.4v0.2l-0.1,0.1h-0.1l-0.2,0.1h-1.9l-0.1-0.1l0,0c0-0.1,0-0.3,0-0.3v-1.5l0.1-0.1h0.1l0.2-0.1h1.9
	l0.1,0.1l0,0c0,0.1,0,0.3,0,0.3V157.4z"/>
<path class="st0" d="M161.5,123.2v0.2l-0.1,0.1h-0.1l-0.2,0.1h-1.6l-0.1-0.1l0,0c0-0.1,0-0.3,0-0.3v-1.5l0.1-0.1h0.1l0.2-0.1h1.6
	l0.1,0.1l0,0c0,0.1,0,0.3,0,0.3V123.2z"/>
<path class="st0" d="M156.3,123.2v0.2l-0.1,0.1h-0.1l-0.2,0.1h-1.6l-0.1-0.1l0,0c0-0.1,0-0.3,0-0.3v-1.5l0.1-0.1h0.1l0.2-0.1h1.6
	l0.1,0.1l0,0c0,0.1,0,0.3,0,0.3V123.2z"/>
<path class="st0" d="M164.8,153.3h-0.2l-0.1-0.1l0,0c0-0.1,0-0.3,0-0.3V151l0.1-0.1h0.1l0.2-0.1h1.5l0.1,0.1l0,0c0,0.1,0,0.3,0,0.3
	v1.9l-0.1,0.1h-0.1l-0.2,0.1H164.8z"/>
<path class="st0" d="M164.8,148.4h-0.2l-0.1-0.1l0,0c0-0.1,0-0.3,0-0.3v-1.9l0.1-0.1h0.1l0.2-0.1h1.5l0.1,0.1l0,0c0,0.1,0,0.3,0,0.3
	v1.9l-0.1,0.1h-0.1l-0.2,0.1H164.8z"/>
<path class="st0" d="M168.6,152.5h1.5v0.3h-1.5V152.5z"/>
<path class="st0" d="M171.8,152.2v1.2h-0.3v-1.2H171.8z"/>
<path class="st0" d="M173.2,152.2v1.2h-0.3v-1.2H173.2z"/>
<path class="st0" d="M174.6,152.2v1.2h-0.3v-1.2H174.6z"/>
<path class="st0" d="M176,152.2v1.2h-0.3v-1.2H176z"/>
<path class="st0" d="M177.5,152.5h1.5v0.3h-1.5V152.5z"/>
<path class="st0" d="M177.5,151.1h1.5v0.3h-1.5V151.1z"/>
<path class="st0" d="M177.5,149.7h1.5v0.3h-1.5V149.7z"/>
<path class="st0" d="M177.5,148.2h1.5v0.3h-1.5V148.2z"/>
<path class="st0" d="M177.5,146.8h1.5v0.3h-1.5V146.8z"/>
<path class="st0" d="M177.5,145.4h1.5v0.3h-1.5V145.4z"/>
<path class="st0" d="M177.5,144h1.5v0.3h-1.5V144z"/>
<path class="st0" d="M177.5,142.6h1.5v0.3h-1.5V142.6z"/>
<path class="st0" d="M177.5,141.2h1.5v0.3h-1.5V141.2z"/>
<path class="st0" d="M177.5,139.7h1.5v0.3h-1.5V139.7z"/>
<path class="st0" d="M176,139.1v1.2h-0.3v-1.2H176z"/>
<path class="st0" d="M174.6,139.1v1.2h-0.3v-1.2H174.6z"/>
<path class="st0" d="M173.2,139.1v1.2h-0.3v-1.2H173.2z"/>
<path class="st0" d="M171.8,139.1v1.2h-0.3v-1.2H171.8z"/>
<path class="st0" d="M168.6,139.7h1.5v0.3h-1.5V139.7z"/>
<path class="st0" d="M168.6,141.2h1.5v0.3h-1.5V141.2z"/>
<path class="st0" d="M168.6,142.6h1.5v0.3h-1.5V142.6z"/>
<path class="st0" d="M168.6,144h1.5v0.3h-1.5V144z"/>
<path class="st0" d="M168.6,145.4h1.5v0.3h-1.5V145.4z"/>
<path class="st0" d="M168.6,146.8h1.5v0.3h-1.5V146.8z"/>
<path class="st0" d="M168.6,148.2h1.5v0.3h-1.5V148.2z"/>
<path class="st0" d="M168.6,149.7h1.5v0.3h-1.5V149.7z"/>
<path class="st0" d="M168.6,151.1h1.5v0.3h-1.5V151.1z"/>
<path class="st0" d="M163.6,114.1L163.6,114.1c0-0.1,0-0.2,0-0.2l0,0h0.1h4.7l0,0l0,0v0.2v0.8l0,0c0,0.1,0,0.2,0,0.2l0,0h-0.1h-4.7
	l0,0l0,0v-0.2V114.1z"/>
<path class="st0" d="M163.6,117.7L163.6,117.7c0-0.1,0-0.2,0-0.2l0,0h0.1h4.7l0,0l0,0v0.2v0.8l0,0c0,0.1,0,0.2,0,0.2l0,0h-0.1h-4.7
	l0,0l0,0v-0.2V117.7z"/>
<path class="st0" d="M163.6,121.3L163.6,121.3c0-0.1,0-0.2,0-0.2l0,0h0.1h4.7l0,0l0,0v0.2v0.8l0,0c0,0.1,0,0.2,0,0.2l0,0h-0.1h-4.7
	l0,0l0,0v-0.2V121.3z"/>
<path class="st0" d="M163.6,124.9L163.6,124.9c0-0.1,0-0.2,0-0.2l0,0h0.1h4.7l0,0l0,0v0.2v0.8l0,0c0,0.1,0,0.2,0,0.2l0,0h-0.1h-4.7
	l0,0l0,0v-0.2V124.9z"/>
<path class="st0" d="M163.6,128.5L163.6,128.5c0-0.1,0-0.2,0-0.2l0,0h0.1h4.7l0,0l0,0v0.2v0.8l0,0c0,0.1,0,0.2,0,0.2l0,0h-0.1h-4.7
	l0,0l0,0v-0.2V128.5z"/>
<path class="st0" d="M163.6,132.1L163.6,132.1c0-0.1,0-0.2,0-0.2l0,0h0.1h4.7l0,0l0,0v0.2v0.8l0,0c0,0.1,0,0.2,0,0.2l0,0h-0.1h-4.7
	l0,0l0,0v-0.2V132.1z"/>
<path class="st0" d="M163.6,135.7L163.6,135.7c0-0.1,0-0.2,0-0.2l0,0h0.1h4.7l0,0l0,0v0.2v0.8l0,0c0,0.1,0,0.2,0,0.2l0,0h-0.1h-4.7
	l0,0l0,0v-0.2V135.7z"/>
<path class="st0" d="M177.6,135.7L177.6,135.7c0-0.1,0-0.2,0-0.2l0,0h0.1h4.7l0,0l0,0v0.2v0.8l0,0c0,0.1,0,0.2,0,0.2l0,0h-0.1h-4.7
	l0,0l0,0v-0.2V135.7z"/>
<path class="st0" d="M177.6,132.1L177.6,132.1c0-0.1,0-0.2,0-0.2l0,0h0.1h4.7l0,0l0,0v0.2v0.8l0,0c0,0.1,0,0.2,0,0.2l0,0h-0.1h-4.7
	l0,0l0,0v-0.2V132.1z"/>
<path class="st0" d="M177.6,128.5L177.6,128.5c0-0.1,0-0.2,0-0.2l0,0h0.1h4.7l0,0l0,0v0.2v0.8l0,0c0,0.1,0,0.2,0,0.2l0,0h-0.1h-4.7
	l0,0l0,0v-0.2V128.5z"/>
<path class="st0" d="M177.6,124.9L177.6,124.9c0-0.1,0-0.2,0-0.2l0,0h0.1h4.7l0,0l0,0v0.2v0.8l0,0c0,0.1,0,0.2,0,0.2l0,0h-0.1h-4.7
	l0,0l0,0v-0.2V124.9z"/>
<path class="st0" d="M177.6,121.3L177.6,121.3c0-0.1,0-0.2,0-0.2l0,0h0.1h4.7l0,0l0,0v0.2v0.8l0,0c0,0.1,0,0.2,0,0.2l0,0h-0.1h-4.7
	l0,0l0,0v-0.2V121.3z"/>
<path class="st0" d="M177.6,117.7L177.6,117.7c0-0.1,0-0.2,0-0.2l0,0h0.1h4.7l0,0l0,0v0.2v0.8l0,0c0,0.1,0,0.2,0,0.2l0,0h-0.1h-4.7
	l0,0l0,0v-0.2V117.7z"/>
<path class="st0" d="M177.6,114.1L177.6,114.1c0-0.1,0-0.2,0-0.2l0,0h0.1h4.7l0,0l0,0v0.2v0.8l0,0c0,0.1,0,0.2,0,0.2l0,0h-0.1h-4.7
	l0,0l0,0v-0.2V114.1z"/>
<path class="st0" d="M153.9,128.2V128l0.1-0.1h0.1l0.2-0.1h1.6l0.1,0.1l0,0c0,0.1,0,0.3,0,0.3v1.5l-0.1,0.1h-0.1l-0.2,0.1H154
	l-0.1-0.1l0,0c0-0.1,0-0.3,0-0.3V128.2z"/>
<path class="st0" d="M159.1,128.2V128l0.1-0.1h0.1l0.2-0.1h1.6l0.1,0.1l0,0c0,0.1,0,0.3,0,0.3v1.5l-0.1,0.1H161l-0.2,0.1h-1.6
	l-0.1-0.1l0,0c0-0.1,0-0.3,0-0.3V128.2z"/>
<path class="st0" d="M135.3,134.8h0.2l0.1,0.1l0,0c0,0.1,0,0.3,0,0.3v1.6l-0.1,0.1h-0.1l-0.2,0.1h-1.5l-0.1-0.1l0,0
	c0-0.1,0-0.3,0-0.3V135l0.1-0.1h0.1l0.2-0.1H135.3z"/>
<path class="st0" d="M135.3,140h0.2l0.1,0.1l0,0c0,0.1,0,0.3,0,0.3v1.6l-0.1,0.1h-0.1l-0.2,0.1h-1.5l-0.1-0.1l0,0c0-0.1,0-0.3,0-0.3
	v-1.6l0.1-0.1h0.1l0.2-0.1H135.3z"/>
<path class="st1" d="M207,112.2v-1l-0.3-1l-0.4-0.9l-0.6-0.8l-0.7-0.7l-0.8-0.6l-0.9-0.4l-1-0.3h-1H86.6h-1l-1,0.3l-0.9,0.4
	l-0.8,0.6l-0.7,0.7l-0.6,0.8l-0.4,0.9l-0.3,1v1v63.5v1l0.3,1l0.4,0.9l0.6,0.8l0.7,0.7l0.8,0.6l0.9,0.4l1,0.3h1h114.7h1l1-0.3
	l0.9-0.4l0.8-0.6l0.7-0.7l0.6-0.8l0.4-0.9l0.3-1v-1V112.2z"/>
<path class="st1" d="M207,112.2v-1l-0.3-1l-0.4-0.9l-0.6-0.8l-0.7-0.7l-0.8-0.6l-0.9-0.4l-1-0.3h-1H86.6h-1l-1,0.3l-0.9,0.4
	l-0.8,0.6l-0.7,0.7l-0.6,0.8l-0.4,0.9l-0.3,1v1v63.5v1l0.3,1l0.4,0.9l0.6,0.8l0.7,0.7l0.8,0.6l0.9,0.4l1,0.3h1h114.7h1l1-0.3
	l0.9-0.4l0.8-0.6l0.7-0.7l0.6-0.8l0.4-0.9l0.3-1v-1V112.2z"/>
<rect x="9" y="34.6" class="st2" width="270" height="218.9"/>
</svg>
