<?xml version="1.0" encoding="UTF-8"?>
<svg id="Layer_1" data-name="Layer 1" xmlns="http://www.w3.org/2000/svg" version="1.1" viewBox="0 0 432 288">
  <defs>
    <style>
      .cls-1 {
        stroke: #000;
        stroke-width: .2px;
      }

      .cls-1, .cls-2 {
        fill: none;
        stroke-miterlimit: 11.3;
      }

      .cls-2 {
        stroke: blue;
        stroke-width: 0px;
      }
    </style>
  </defs>
  <path class="cls-2" d="M281.8,112.1v-1.4c-.1,0-.5-1.4-.5-1.4l-.6-1.3-.9-1.2-1-1-1.2-.9-1.3-.6-1.4-.4h-1.4c0-.1-114.9-.1-114.9-.1h-1.4c0,.1-1.4.5-1.4.5l-1.3.6-1.2.9-1,1-.9,1.2-.6,1.3-.4,1.4v1.4c-.1,0-.1,63.8-.1,63.8v1.4c.1,0,.5,1.4.5,1.4l.6,1.3.9,1.2,1,1,1.2.9,1.3.6,1.4.4h1.4c0,.1,114.9.1,114.9.1h1.4c0-.1,1.4-.5,1.4-.5l1.3-.6,1.2-.9,1-1,.9-1.2.6-1.3.4-1.4v-1.4c.1,0,.1-63.8.1-63.8Z"/>
  <path class="cls-1" d="M279,112.2v-1c0,0-.3-1-.3-1l-.4-.9-.6-.8-.7-.7-.8-.6-.9-.4-1-.3h-1c0,0-114.7,0-114.7,0h-1c0,0-1,.3-1,.3l-.9.4-.8.6-.7.7-.6.8-.4.9-.3,1v1c0,0,0,63.5,0,63.5v1c0,0,.3,1,.3,1l.4.9.6.8.7.7.8.6.9.4,1,.3h1c0,0,114.7,0,114.7,0h1c0,0,1-.3,1-.3l.9-.4.8-.6.7-.7.6-.8.4-.9.3-1v-1c0,0,0-63.5,0-63.5Z"/>
  <rect class="cls-2" x="81" y="33.2" width="270" height="220.2"/>
</svg>