<?xml version="1.0" encoding="utf-8"?>
<!-- Generator: Adobe Illustrator 26.5.0, SVG Export Plug-In . SVG Version: 6.00 Build 0)  -->
<svg version="1.1" id="Layer_1" xmlns="http://www.w3.org/2000/svg" xmlns:xlink="http://www.w3.org/1999/xlink" x="0px" y="0px"
	 viewBox="0 0 432 288" style="enable-background:new 0 0 432 288;" xml:space="preserve">
<style type="text/css">
	.st0{fill:none;stroke:#0000FF;stroke-width:7.200000e-02;stroke-miterlimit:10;}
	.st1{fill:none;stroke:#000000;stroke-width:0.2;stroke-miterlimit:11.3;}
</style>
<path class="st0" d="M281.8,112.1v-1.4c-0.1,0-0.5-1.4-0.5-1.4l-0.6-1.3l-0.9-1.2l-1-1l-1.2-0.9l-1.3-0.6l-1.4-0.4h-1.4
	c0-0.1-114.9-0.1-114.9-0.1h-1.4c0,0.1-1.4,0.5-1.4,0.5l-1.3,0.6l-1.2,0.9l-1,1l-0.9,1.2l-0.6,1.3l-0.4,1.4v1.4
	c-0.1,0-0.1,63.8-0.1,63.8v1.4c0.1,0,0.5,1.4,0.5,1.4l0.6,1.3l0.9,1.2l1,1l1.2,0.9l1.3,0.6l1.4,0.4h1.4c0,0.1,114.9,0.1,114.9,0.1
	h1.4c0-0.1,1.4-0.5,1.4-0.5l1.3-0.6l1.2-0.9l1-1l0.9-1.2l0.6-1.3l0.4-1.4v-1.4C281.8,175.9,281.8,112.1,281.8,112.1z"/>
<path class="st1" d="M279,112.2v-1l-0.3-1l-0.4-0.9l-0.6-0.8l-0.7-0.7l-0.8-0.6l-0.9-0.4l-1-0.3h-1H158.6h-1l-1,0.3l-0.9,0.4
	l-0.8,0.6l-0.7,0.7l-0.6,0.8l-0.4,0.9l-0.3,1v1v63.5v1l0.3,1l0.4,0.9l0.6,0.8l0.7,0.7l0.8,0.6l0.9,0.4l1,0.3h1h114.7h1l1-0.3
	l0.9-0.4l0.8-0.6l0.7-0.7l0.6-0.8l0.4-0.9l0.3-1v-1V112.2z"/>
<rect x="81" y="33.2" class="st0" width="270" height="220.2"/>
</svg>
