<svg xmlns="http://www.w3.org/2000/svg" xmlns:xlink="http://www.w3.org/1999/xlink" width="15.24cm" height="10.16cm" viewBox="0 0 152.4 101.6">
<path fill="none" stroke="#0000FF" stroke-width="0.06614583333333333"
  d="M 99.42500000000001,39.54833905709148 L
  99.38318506466456,39.07039215917081
  99.24766733550982,38.564633108638944
  99.0263842877042,38.090090081228325
  98.72605949468064,37.661181826696506
  98.3558181733035,37.29094050531937
  97.92690991877168,36.990615712295806
  97.45236689136107,36.76933266449019
  96.9466078408292,36.63381493533545
  96.46866094290853,36.592
  55.93133905709149,36.592
  55.45339215917082,36.63381493533545
  54.947633108638954,36.76933266449019
  54.473090081228335,36.990615712295806
  54.044181826696516,37.29094050531937
  53.67394050531938,37.661181826696506
  53.373615712295816,38.090090081228325
  53.1523326644902,38.564633108638944
  53.01681493533546,39.07039215917081
  52.97500000000001,39.54833905709148
  52.97500000000001,62.05166094290851
  53.01681493533546,62.529607840829186
  53.1523326644902,63.03536689136105
  53.373615712295816,63.50990991877167
  53.67394050531938,63.93881817330349
  54.044181826696516,64.30905949468062
  54.473090081228335,64.60938428770419
  54.947633108638954,64.8306673355098
  55.45339215917082,64.96618506466454
  55.93133905709149,65.008
  96.46866094290853,65.008
  96.9466078408292,64.96618506466454
  97.45236689136107,64.8306673355098
  97.92690991877168,64.60938428770419
  98.3558181733035,64.30905949468062
  98.72605949468064,63.93881817330349
  99.0263842877042,63.50990991877167
  99.24766733550982,63.03536689136105
  99.38318506466456,62.529607840829186
  99.42500000000001,62.05166094290851
  Z" />
<path fill="none" stroke="#000000" stroke-width="0.06614583333333333"
  d="M 98.42500000000001,39.592 L
  98.39461550602442,39.24470364466613
  98.30438524157182,38.90795971334866
  98.1570508075689,38.592
  97.95708888623797,38.30642478062693
  97.71057521937308,38.05991111376204
  97.42500000000001,37.85994919243112
  97.10904028665135,37.71261475842819
  96.77229635533388,37.62238449397559
  96.42500000000001,37.592
  55.97500000000001,37.592
  55.62770364466614,37.62238449397559
  55.29095971334867,37.71261475842819
  54.97500000000001,37.85994919243112
  54.689424780626936,38.05991111376204
  54.44291111376205,38.30642478062693
  54.24294919243113,38.592
  54.0956147584282,38.90795971334866
  54.0053844939756,39.24470364466613
  53.97500000000001,39.592
  53.97500000000001,62.007999999999996
  54.0053844939756,62.35529635533386
  54.0956147584282,62.692040286651334
  54.24294919243113,63.007999999999996
  54.44291111376205,63.29357521937307
  54.689424780626936,63.54008888623795
  54.97500000000001,63.74005080756888
  55.29095971334867,63.887385241571806
  55.62770364466614,63.97761550602441
  55.97500000000001,64.008
  96.42500000000001,64.008
  96.77229635533388,63.97761550602441
  97.10904028665135,63.887385241571806
  97.42500000000001,63.74005080756888
  97.71057521937308,63.54008888623795
  97.95708888623797,63.29357521937307
  98.1570508075689,63.007999999999996
  98.30438524157182,62.692040286651334
  98.39461550602442,62.35529635533386
  98.42500000000001,62.007999999999996
  Z" />
</svg>