<?xml version="1.0" standalone="no"?>
 <!DOCTYPE svg PUBLIC "-//W3C//DTD SVG 1.1//EN" 
 "http://www.w3.org/Graphics/SVG/1.1/DTD/svg11.dtd"> 
<svg
  xmlns:svg="http://www.w3.org/2000/svg"
  xmlns="http://www.w3.org/2000/svg"
  xmlns:xlink="http://www.w3.org/1999/xlink"
  version="1.1"
  width="297.0022mm" height="210.0072mm" viewBox="0.0000 0.0000 297.0022 210.0072">
<title>SVG Image created as 2 Axis Gimbal-F_Paste.svg date 2024/04/26 19:13:10 </title>
  <desc>Image generated by PCBNEW </desc>
<g style="fill:#000000; fill-opacity:1.0000;stroke:#000000; stroke-opacity:1.0000;
stroke-linecap:round; stroke-linejoin:round;"
 transform="translate(0 0) scale(1 1)">
</g>
<g style="fill:#000000; fill-opacity:0.0; 
stroke:#000000; stroke-width:0.0000; stroke-opacity:1; 
stroke-linecap:round; stroke-linejoin:round;">
<g >
</g>
<g style="fill:#000000; fill-opacity:0.0; 
stroke:#000000; stroke-width:0.0000; stroke-opacity:1; 
stroke-linecap:round; stroke-linejoin:round;">
</g>
<g style="fill:#000000; fill-opacity:1.0000; 
stroke:#000000; stroke-width:0.0000; stroke-opacity:1; 
stroke-linecap:round; stroke-linejoin:round;">
<path style="fill:#000000; fill-opacity:1.0000; 
stroke:#000000; stroke-width:0.0000; stroke-opacity:1; 
stroke-linecap:round; stroke-linejoin:round;fill-rule:evenodd;"
d="M 96.5875,90.6140
96.6784,90.6321
96.7554,90.6836
96.8069,90.7606
96.8250,90.8515
96.8250,91.4515
96.8069,91.5424
96.7554,91.6194
96.6784,91.6709
96.5875,91.6890
96.1125,91.6890
96.0216,91.6709
95.9446,91.6194
95.8931,91.5424
95.8750,91.4515
95.8750,90.8515
95.8931,90.7606
95.9446,90.6836
96.0216,90.6321
96.1125,90.6140
Z" /> 
<path style="fill:#000000; fill-opacity:1.0000; 
stroke:#000000; stroke-width:0.0000; stroke-opacity:1; 
stroke-linecap:round; stroke-linejoin:round;fill-rule:evenodd;"
d="M 96.5875,92.3390
96.6784,92.3571
96.7554,92.4086
96.8069,92.4856
96.8250,92.5765
96.8250,93.1765
96.8069,93.2674
96.7554,93.3444
96.6784,93.3959
96.5875,93.4140
96.1125,93.4140
96.0216,93.3959
95.9446,93.3444
95.8931,93.2674
95.8750,93.1765
95.8750,92.5765
95.8931,92.4856
95.9446,92.4086
96.0216,92.3571
96.1125,92.3390
Z" /> 
</g>
<g >
</g>
<g style="fill:#000000; fill-opacity:1.0000; 
stroke:#000000; stroke-width:0.0000; stroke-opacity:1; 
stroke-linecap:round; stroke-linejoin:round;">
<path style="fill:#000000; fill-opacity:1.0000; 
stroke:#000000; stroke-width:0.0000; stroke-opacity:1; 
stroke-linecap:round; stroke-linejoin:round;fill-rule:evenodd;"
d="M 109.9205,85.3445
109.8296,85.3264
109.7526,85.2749
109.7011,85.1979
109.6830,85.1070
109.6830,84.5070
109.7011,84.4161
109.7526,84.3391
109.8296,84.2876
109.9205,84.2695
110.3955,84.2695
110.4864,84.2876
110.5634,84.3391
110.6149,84.4161
110.6330,84.5070
110.6330,85.1070
110.6149,85.1979
110.5634,85.2749
110.4864,85.3264
110.3955,85.3445
Z" /> 
<path style="fill:#000000; fill-opacity:1.0000; 
stroke:#000000; stroke-width:0.0000; stroke-opacity:1; 
stroke-linecap:round; stroke-linejoin:round;fill-rule:evenodd;"
d="M 109.9205,83.6195
109.8296,83.6014
109.7526,83.5499
109.7011,83.4729
109.6830,83.3820
109.6830,82.7820
109.7011,82.6911
109.7526,82.6141
109.8296,82.5626
109.9205,82.5445
110.3955,82.5445
110.4864,82.5626
110.5634,82.6141
110.6149,82.6911
110.6330,82.7820
110.6330,83.3820
110.6149,83.4729
110.5634,83.5499
110.4864,83.6014
110.3955,83.6195
Z" /> 
</g>
<g >
</g>
<g style="fill:#000000; fill-opacity:1.0000; 
stroke:#000000; stroke-width:0.0000; stroke-opacity:1; 
stroke-linecap:round; stroke-linejoin:round;">
<path style="fill:#000000; fill-opacity:1.0000; 
stroke:#000000; stroke-width:0.0000; stroke-opacity:1; 
stroke-linecap:round; stroke-linejoin:round;fill-rule:evenodd;"
d="M 100.8375,90.6515
100.8194,90.7424
100.7679,90.8194
100.6909,90.8709
100.6000,90.8890
100.1000,90.8890
100.0091,90.8709
99.9321,90.8194
99.8806,90.7424
99.8625,90.6515
99.8625,90.1765
99.8806,90.0856
99.9321,90.0086
100.0091,89.9571
100.1000,89.9390
100.6000,89.9390
100.6909,89.9571
100.7679,90.0086
100.8194,90.0856
100.8375,90.1765
Z" /> 
<path style="fill:#000000; fill-opacity:1.0000; 
stroke:#000000; stroke-width:0.0000; stroke-opacity:1; 
stroke-linecap:round; stroke-linejoin:round;fill-rule:evenodd;"
d="M 99.0125,90.6515
98.9944,90.7424
98.9429,90.8194
98.8659,90.8709
98.7750,90.8890
98.2750,90.8890
98.1841,90.8709
98.1071,90.8194
98.0556,90.7424
98.0375,90.6515
98.0375,90.1765
98.0556,90.0856
98.1071,90.0086
98.1841,89.9571
98.2750,89.9390
98.7750,89.9390
98.8659,89.9571
98.9429,90.0086
98.9944,90.0856
99.0125,90.1765
Z" /> 
</g>
<g >
</g>
<g style="fill:#000000; fill-opacity:1.0000; 
stroke:#000000; stroke-width:0.0000; stroke-opacity:1; 
stroke-linecap:round; stroke-linejoin:round;">
<path style="fill:#000000; fill-opacity:1.0000; 
stroke:#000000; stroke-width:0.0000; stroke-opacity:1; 
stroke-linecap:round; stroke-linejoin:round;fill-rule:evenodd;"
d="M 102.1659,86.2351
102.0750,86.2171
101.9979,86.1656
101.9465,86.0885
101.9284,85.9976
101.9284,85.4976
101.9465,85.4068
101.9979,85.3297
102.0750,85.2782
102.1659,85.2601
102.6409,85.2601
102.7318,85.2782
102.8088,85.3297
102.8603,85.4068
102.8784,85.4976
102.8784,85.9976
102.8603,86.0885
102.8088,86.1656
102.7318,86.2171
102.6409,86.2351
Z" /> 
<path style="fill:#000000; fill-opacity:1.0000; 
stroke:#000000; stroke-width:0.0000; stroke-opacity:1; 
stroke-linecap:round; stroke-linejoin:round;fill-rule:evenodd;"
d="M 102.1659,84.4101
102.0750,84.3921
101.9979,84.3406
101.9465,84.2635
101.9284,84.1726
101.9284,83.6726
101.9465,83.5817
101.9979,83.5047
102.0750,83.4532
102.1659,83.4351
102.6409,83.4351
102.7318,83.4532
102.8088,83.5047
102.8603,83.5817
102.8784,83.6726
102.8784,84.1726
102.8603,84.2635
102.8088,84.3406
102.7318,84.3921
102.6409,84.4101
Z" /> 
</g>
<g >
</g>
<g style="fill:#000000; fill-opacity:1.0000; 
stroke:#000000; stroke-width:0.0000; stroke-opacity:1; 
stroke-linecap:round; stroke-linejoin:round;">
<path style="fill:#000000; fill-opacity:1.0000; 
stroke:#000000; stroke-width:0.0000; stroke-opacity:1; 
stroke-linecap:round; stroke-linejoin:round;fill-rule:evenodd;"
d="M 114.3875,90.7140
114.4784,90.7321
114.5554,90.7836
114.6069,90.8606
114.6250,90.9515
114.6250,91.5515
114.6069,91.6424
114.5554,91.7194
114.4784,91.7709
114.3875,91.7890
113.9125,91.7890
113.8216,91.7709
113.7446,91.7194
113.6931,91.6424
113.6750,91.5515
113.6750,90.9515
113.6931,90.8606
113.7446,90.7836
113.8216,90.7321
113.9125,90.7140
Z" /> 
<path style="fill:#000000; fill-opacity:1.0000; 
stroke:#000000; stroke-width:0.0000; stroke-opacity:1; 
stroke-linecap:round; stroke-linejoin:round;fill-rule:evenodd;"
d="M 114.3875,92.4390
114.4784,92.4571
114.5554,92.5086
114.6069,92.5856
114.6250,92.6765
114.6250,93.2765
114.6069,93.3674
114.5554,93.4444
114.4784,93.4959
114.3875,93.5140
113.9125,93.5140
113.8216,93.4959
113.7446,93.4444
113.6931,93.3674
113.6750,93.2765
113.6750,92.6765
113.6931,92.5856
113.7446,92.5086
113.8216,92.4571
113.9125,92.4390
Z" /> 
</g>
<g >
</g>
<g style="fill:#000000; fill-opacity:1.0000; 
stroke:#000000; stroke-width:0.0000; stroke-opacity:1; 
stroke-linecap:round; stroke-linejoin:round;">
<path style="fill:#000000; fill-opacity:1.0000; 
stroke:#000000; stroke-width:0.0000; stroke-opacity:1; 
stroke-linecap:round; stroke-linejoin:round;fill-rule:evenodd;"
d="M 94.7585,82.5670
94.6676,82.5489
94.5906,82.4974
94.5391,82.4204
94.5210,82.3295
94.5210,81.7545
94.5391,81.6636
94.5906,81.5866
94.6676,81.5351
94.7585,81.5170
95.2335,81.5170
95.3244,81.5351
95.4014,81.5866
95.4529,81.6636
95.4710,81.7545
95.4710,82.3295
95.4529,82.4204
95.4014,82.4974
95.3244,82.5489
95.2335,82.5670
Z" /> 
<path style="fill:#000000; fill-opacity:1.0000; 
stroke:#000000; stroke-width:0.0000; stroke-opacity:1; 
stroke-linecap:round; stroke-linejoin:round;fill-rule:evenodd;"
d="M 94.7585,80.8170
94.6676,80.7989
94.5906,80.7474
94.5391,80.6704
94.5210,80.5795
94.5210,80.0045
94.5391,79.9136
94.5906,79.8366
94.6676,79.7851
94.7585,79.7670
95.2335,79.7670
95.3244,79.7851
95.4014,79.8366
95.4529,79.9136
95.4710,80.0045
95.4710,80.5795
95.4529,80.6704
95.4014,80.7474
95.3244,80.7989
95.2335,80.8170
Z" /> 
</g>
<g >
</g>
<g style="fill:#000000; fill-opacity:1.0000; 
stroke:#000000; stroke-width:0.0000; stroke-opacity:1; 
stroke-linecap:round; stroke-linejoin:round;">
<path style="fill:#000000; fill-opacity:1.0000; 
stroke:#000000; stroke-width:0.0000; stroke-opacity:1; 
stroke-linecap:round; stroke-linejoin:round;fill-rule:evenodd;"
d="M 101.0755,83.4360
101.1664,83.4541
101.2434,83.5056
101.2949,83.5826
101.3130,83.6735
101.3130,84.1735
101.2949,84.2644
101.2434,84.3414
101.1664,84.3929
101.0755,84.4110
100.6005,84.4110
100.5096,84.3929
100.4326,84.3414
100.3811,84.2644
100.3630,84.1735
100.3630,83.6735
100.3811,83.5826
100.4326,83.5056
100.5096,83.4541
100.6005,83.4360
Z" /> 
<path style="fill:#000000; fill-opacity:1.0000; 
stroke:#000000; stroke-width:0.0000; stroke-opacity:1; 
stroke-linecap:round; stroke-linejoin:round;fill-rule:evenodd;"
d="M 101.0755,85.2610
101.1664,85.2791
101.2434,85.3306
101.2949,85.4076
101.3130,85.4985
101.3130,85.9985
101.2949,86.0894
101.2434,86.1664
101.1664,86.2179
101.0755,86.2360
100.6005,86.2360
100.5096,86.2179
100.4326,86.1664
100.3811,86.0894
100.3630,85.9985
100.3630,85.4985
100.3811,85.4076
100.4326,85.3306
100.5096,85.2791
100.6005,85.2610
Z" /> 
</g>
<g >
</g>
<g >
</g>
<g style="fill:#000000; fill-opacity:1.0000; 
stroke:#000000; stroke-width:0.0000; stroke-opacity:1; 
stroke-linecap:round; stroke-linejoin:round;">
<path style="fill:#000000; fill-opacity:1.0000; 
stroke:#000000; stroke-width:0.0000; stroke-opacity:1; 
stroke-linecap:round; stroke-linejoin:round;fill-rule:evenodd;"
d="M 111.4795,83.8365
111.4976,83.7456
111.5491,83.6686
111.6261,83.6171
111.7170,83.5990
112.2170,83.5990
112.3079,83.6171
112.3849,83.6686
112.4364,83.7456
112.4545,83.8365
112.4545,84.3115
112.4364,84.4024
112.3849,84.4794
112.3079,84.5309
112.2170,84.5490
111.7170,84.5490
111.6261,84.5309
111.5491,84.4794
111.4976,84.4024
111.4795,84.3115
Z" /> 
<path style="fill:#000000; fill-opacity:1.0000; 
stroke:#000000; stroke-width:0.0000; stroke-opacity:1; 
stroke-linecap:round; stroke-linejoin:round;fill-rule:evenodd;"
d="M 113.3045,83.8365
113.3226,83.7456
113.3741,83.6686
113.4511,83.6171
113.5420,83.5990
114.0420,83.5990
114.1329,83.6171
114.2099,83.6686
114.2614,83.7456
114.2795,83.8365
114.2795,84.3115
114.2614,84.4024
114.2099,84.4794
114.1329,84.5309
114.0420,84.5490
113.5420,84.5490
113.4511,84.5309
113.3741,84.4794
113.3226,84.4024
113.3045,84.3115
Z" /> 
</g>
<g >
</g>
<g >
</g>
<g style="fill:#000000; fill-opacity:1.0000; 
stroke:#000000; stroke-width:0.0000; stroke-opacity:1; 
stroke-linecap:round; stroke-linejoin:round;">
<path style="fill:#000000; fill-opacity:1.0000; 
stroke:#000000; stroke-width:0.0000; stroke-opacity:1; 
stroke-linecap:round; stroke-linejoin:round;fill-rule:evenodd;"
d="M 101.5500,87.3200
103.5500,87.3200
103.5500,88.5200
101.5500,88.5200
Z" /> 
<path style="fill:#000000; fill-opacity:1.0000; 
stroke:#000000; stroke-width:0.0000; stroke-opacity:1; 
stroke-linecap:round; stroke-linejoin:round;fill-rule:evenodd;"
d="M 101.5500,91.8200
103.5500,91.8200
103.5500,93.0200
101.5500,93.0200
Z" /> 
<path style="fill:#000000; fill-opacity:1.0000; 
stroke:#000000; stroke-width:0.0000; stroke-opacity:1; 
stroke-linecap:round; stroke-linejoin:round;fill-rule:evenodd;"
d="M 106.9500,92.9700
106.9500,87.3700
112.5500,87.3700
112.5500,92.9700
Z" /> 
</g>
<g >
</g>
<g >
</g>
<g >
</g>
<g >
</g>
<g style="fill:#000000; fill-opacity:1.0000; 
stroke:#000000; stroke-width:0.0000; stroke-opacity:1; 
stroke-linecap:round; stroke-linejoin:round;">
<path style="fill:#000000; fill-opacity:1.0000; 
stroke:#000000; stroke-width:0.0000; stroke-opacity:1; 
stroke-linecap:round; stroke-linejoin:round;fill-rule:evenodd;"
d="M 108.5880,69.5795
108.5699,69.6704
108.5184,69.7474
108.4414,69.7989
108.3505,69.8170
107.7505,69.8170
107.6596,69.7989
107.5826,69.7474
107.5311,69.6704
107.5130,69.5795
107.5130,69.1045
107.5311,69.0136
107.5826,68.9366
107.6596,68.8851
107.7505,68.8670
108.3505,68.8670
108.4414,68.8851
108.5184,68.9366
108.5699,69.0136
108.5880,69.1045
Z" /> 
<path style="fill:#000000; fill-opacity:1.0000; 
stroke:#000000; stroke-width:0.0000; stroke-opacity:1; 
stroke-linecap:round; stroke-linejoin:round;fill-rule:evenodd;"
d="M 106.8630,69.5795
106.8449,69.6704
106.7934,69.7474
106.7164,69.7989
106.6255,69.8170
106.0255,69.8170
105.9346,69.7989
105.8576,69.7474
105.8061,69.6704
105.7880,69.5795
105.7880,69.1045
105.8061,69.0136
105.8576,68.9366
105.9346,68.8851
106.0255,68.8670
106.6255,68.8670
106.7164,68.8851
106.7934,68.9366
106.8449,69.0136
106.8630,69.1045
Z" /> 
</g>
<g >
</g>
<g style="fill:#000000; fill-opacity:1.0000; 
stroke:#000000; stroke-width:0.0000; stroke-opacity:1; 
stroke-linecap:round; stroke-linejoin:round;">
<path style="fill:#000000; fill-opacity:1.0000; 
stroke:#000000; stroke-width:0.0000; stroke-opacity:1; 
stroke-linecap:round; stroke-linejoin:round;fill-rule:evenodd;"
d="M 98.0375,91.6765
98.0556,91.5856
98.1071,91.5086
98.1841,91.4571
98.2750,91.4390
98.7750,91.4390
98.8659,91.4571
98.9429,91.5086
98.9944,91.5856
99.0125,91.6765
99.0125,92.1515
98.9944,92.2424
98.9429,92.3194
98.8659,92.3709
98.7750,92.3890
98.2750,92.3890
98.1841,92.3709
98.1071,92.3194
98.0556,92.2424
98.0375,92.1515
Z" /> 
<path style="fill:#000000; fill-opacity:1.0000; 
stroke:#000000; stroke-width:0.0000; stroke-opacity:1; 
stroke-linecap:round; stroke-linejoin:round;fill-rule:evenodd;"
d="M 99.8625,91.6765
99.8806,91.5856
99.9321,91.5086
100.0091,91.4571
100.1000,91.4390
100.6000,91.4390
100.6909,91.4571
100.7679,91.5086
100.8194,91.5856
100.8375,91.6765
100.8375,92.1515
100.8194,92.2424
100.7679,92.3194
100.6909,92.3709
100.6000,92.3890
100.1000,92.3890
100.0091,92.3709
99.9321,92.3194
99.8806,92.2424
99.8625,92.1515
Z" /> 
</g>
<g >
</g>
<g style="fill:#000000; fill-opacity:1.0000; 
stroke:#000000; stroke-width:0.0000; stroke-opacity:1; 
stroke-linecap:round; stroke-linejoin:round;">
<path style="fill:#000000; fill-opacity:1.0000; 
stroke:#000000; stroke-width:0.0000; stroke-opacity:1; 
stroke-linecap:round; stroke-linejoin:round;fill-rule:evenodd;"
d="M 113.7755,72.5140
113.8664,72.5321
113.9434,72.5836
113.9949,72.6606
114.0130,72.7515
114.0130,73.2515
113.9949,73.3424
113.9434,73.4194
113.8664,73.4709
113.7755,73.4890
113.3005,73.4890
113.2096,73.4709
113.1326,73.4194
113.0811,73.3424
113.0630,73.2515
113.0630,72.7515
113.0811,72.6606
113.1326,72.5836
113.2096,72.5321
113.3005,72.5140
Z" /> 
<path style="fill:#000000; fill-opacity:1.0000; 
stroke:#000000; stroke-width:0.0000; stroke-opacity:1; 
stroke-linecap:round; stroke-linejoin:round;fill-rule:evenodd;"
d="M 113.7755,74.3390
113.8664,74.3571
113.9434,74.4086
113.9949,74.4856
114.0130,74.5765
114.0130,75.0765
113.9949,75.1674
113.9434,75.2444
113.8664,75.2959
113.7755,75.3140
113.3005,75.3140
113.2096,75.2959
113.1326,75.2444
113.0811,75.1674
113.0630,75.0765
113.0630,74.5765
113.0811,74.4856
113.1326,74.4086
113.2096,74.3571
113.3005,74.3390
Z" /> 
</g>
<g >
</g>
<g style="fill:#000000; fill-opacity:1.0000; 
stroke:#000000; stroke-width:0.0000; stroke-opacity:1; 
stroke-linecap:round; stroke-linejoin:round;">
<path style="fill:#000000; fill-opacity:1.0000; 
stroke:#000000; stroke-width:0.0000; stroke-opacity:1; 
stroke-linecap:round; stroke-linejoin:round;fill-rule:evenodd;"
d="M 111.4795,85.3605
111.4976,85.2696
111.5491,85.1926
111.6261,85.1411
111.7170,85.1230
112.2170,85.1230
112.3079,85.1411
112.3849,85.1926
112.4364,85.2696
112.4545,85.3605
112.4545,85.8355
112.4364,85.9264
112.3849,86.0034
112.3079,86.0549
112.2170,86.0730
111.7170,86.0730
111.6261,86.0549
111.5491,86.0034
111.4976,85.9264
111.4795,85.8355
Z" /> 
<path style="fill:#000000; fill-opacity:1.0000; 
stroke:#000000; stroke-width:0.0000; stroke-opacity:1; 
stroke-linecap:round; stroke-linejoin:round;fill-rule:evenodd;"
d="M 113.3045,85.3605
113.3226,85.2696
113.3741,85.1926
113.4511,85.1411
113.5420,85.1230
114.0420,85.1230
114.1329,85.1411
114.2099,85.1926
114.2614,85.2696
114.2795,85.3605
114.2795,85.8355
114.2614,85.9264
114.2099,86.0034
114.1329,86.0549
114.0420,86.0730
113.5420,86.0730
113.4511,86.0549
113.3741,86.0034
113.3226,85.9264
113.3045,85.8355
Z" /> 
</g>
<g >
</g>
<g style="fill:#000000; fill-opacity:1.0000; 
stroke:#000000; stroke-width:0.0000; stroke-opacity:1; 
stroke-linecap:round; stroke-linejoin:round;">
<path style="fill:#000000; fill-opacity:1.0000; 
stroke:#000000; stroke-width:0.0000; stroke-opacity:1; 
stroke-linecap:round; stroke-linejoin:round;fill-rule:evenodd;"
d="M 106.8704,86.0053
106.8524,86.0962
106.8009,86.1732
106.7238,86.2247
106.6329,86.2428
106.0329,86.2428
105.9420,86.2247
105.8650,86.1732
105.8135,86.0962
105.7954,86.0053
105.7954,85.5303
105.8135,85.4394
105.8650,85.3623
105.9420,85.3109
106.0329,85.2928
106.6329,85.2928
106.7238,85.3109
106.8009,85.3623
106.8524,85.4394
106.8704,85.5303
Z" /> 
<path style="fill:#000000; fill-opacity:1.0000; 
stroke:#000000; stroke-width:0.0000; stroke-opacity:1; 
stroke-linecap:round; stroke-linejoin:round;fill-rule:evenodd;"
d="M 105.1454,86.0053
105.1273,86.0962
105.0759,86.1732
104.9988,86.2247
104.9079,86.2428
104.3079,86.2428
104.2170,86.2247
104.1400,86.1732
104.0885,86.0962
104.0704,86.0053
104.0704,85.5303
104.0885,85.4394
104.1400,85.3623
104.2170,85.3109
104.3079,85.2928
104.9079,85.2928
104.9988,85.3109
105.0759,85.3623
105.1273,85.4394
105.1454,85.5303
Z" /> 
</g>
<g >
</g>
<g style="fill:#000000; fill-opacity:1.0000; 
stroke:#000000; stroke-width:0.0000; stroke-opacity:1; 
stroke-linecap:round; stroke-linejoin:round;">
<path style="fill:#000000; fill-opacity:1.0000; 
stroke:#000000; stroke-width:0.0000; stroke-opacity:1; 
stroke-linecap:round; stroke-linejoin:round;fill-rule:evenodd;"
d="M 102.8836,73.9480
102.8655,74.0389
102.8140,74.1159
102.7370,74.1674
102.6461,74.1855
102.1461,74.1855
102.0552,74.1674
101.9781,74.1159
101.9266,74.0389
101.9086,73.9480
101.9086,73.4730
101.9266,73.3821
101.9781,73.3050
102.0552,73.2536
102.1461,73.2355
102.6461,73.2355
102.7370,73.2536
102.8140,73.3050
102.8655,73.3821
102.8836,73.4730
Z" /> 
<path style="fill:#000000; fill-opacity:1.0000; 
stroke:#000000; stroke-width:0.0000; stroke-opacity:1; 
stroke-linecap:round; stroke-linejoin:round;fill-rule:evenodd;"
d="M 101.0586,73.9480
101.0405,74.0389
100.9890,74.1159
100.9120,74.1674
100.8211,74.1855
100.3211,74.1855
100.2302,74.1674
100.1531,74.1159
100.1016,74.0389
100.0836,73.9480
100.0836,73.4730
100.1016,73.3821
100.1531,73.3050
100.2302,73.2536
100.3211,73.2355
100.8211,73.2355
100.9120,73.2536
100.9890,73.3050
101.0405,73.3821
101.0586,73.4730
Z" /> 
</g>
<g >
</g>
<g style="fill:#000000; fill-opacity:1.0000; 
stroke:#000000; stroke-width:0.0000; stroke-opacity:1; 
stroke-linecap:round; stroke-linejoin:round;">
<path style="fill:#000000; fill-opacity:1.0000; 
stroke:#000000; stroke-width:0.0000; stroke-opacity:1; 
stroke-linecap:round; stroke-linejoin:round;fill-rule:evenodd;"
d="M 103.9821,84.6235
103.8912,84.6054
103.8142,84.5539
103.7627,84.4769
103.7446,84.3860
103.7446,83.7860
103.7627,83.6951
103.8142,83.6180
103.8912,83.5666
103.9821,83.5485
104.4571,83.5485
104.5480,83.5666
104.6250,83.6180
104.6765,83.6951
104.6946,83.7860
104.6946,84.3860
104.6765,84.4769
104.6250,84.5539
104.5480,84.6054
104.4571,84.6235
Z" /> 
<path style="fill:#000000; fill-opacity:1.0000; 
stroke:#000000; stroke-width:0.0000; stroke-opacity:1; 
stroke-linecap:round; stroke-linejoin:round;fill-rule:evenodd;"
d="M 103.9821,82.8985
103.8912,82.8804
103.8142,82.8289
103.7627,82.7519
103.7446,82.6610
103.7446,82.0610
103.7627,81.9701
103.8142,81.8930
103.8912,81.8416
103.9821,81.8235
104.4571,81.8235
104.5480,81.8416
104.6250,81.8930
104.6765,81.9701
104.6946,82.0610
104.6946,82.6610
104.6765,82.7519
104.6250,82.8289
104.5480,82.8804
104.4571,82.8985
Z" /> 
</g>
<g >
</g>
<g style="fill:#000000; fill-opacity:1.0000; 
stroke:#000000; stroke-width:0.0000; stroke-opacity:1; 
stroke-linecap:round; stroke-linejoin:round;">
<path style="fill:#000000; fill-opacity:1.0000; 
stroke:#000000; stroke-width:0.0000; stroke-opacity:1; 
stroke-linecap:round; stroke-linejoin:round;fill-rule:evenodd;"
d="M 105.2485,84.2030
105.9235,84.2030
105.9235,84.4530
105.2485,84.4530
Z" /> 
<path style="fill:#000000; fill-opacity:1.0000; 
stroke:#000000; stroke-width:0.0000; stroke-opacity:1; 
stroke-linecap:round; stroke-linejoin:round;fill-rule:evenodd;"
d="M 106.5240,84.1035
106.5240,84.6785
106.2740,84.6785
106.2740,84.1035
Z" /> 
<path style="fill:#000000; fill-opacity:1.0000; 
stroke:#000000; stroke-width:0.0000; stroke-opacity:1; 
stroke-linecap:round; stroke-linejoin:round;fill-rule:evenodd;"
d="M 107.0240,84.1035
107.0240,84.6785
106.7740,84.6785
106.7740,84.1035
Z" /> 
<path style="fill:#000000; fill-opacity:1.0000; 
stroke:#000000; stroke-width:0.0000; stroke-opacity:1; 
stroke-linecap:round; stroke-linejoin:round;fill-rule:evenodd;"
d="M 107.5240,84.1035
107.5240,84.6785
107.2740,84.6785
107.2740,84.1035
Z" /> 
<path style="fill:#000000; fill-opacity:1.0000; 
stroke:#000000; stroke-width:0.0000; stroke-opacity:1; 
stroke-linecap:round; stroke-linejoin:round;fill-rule:evenodd;"
d="M 108.0240,84.1035
108.0240,84.6785
107.7740,84.6785
107.7740,84.1035
Z" /> 
<path style="fill:#000000; fill-opacity:1.0000; 
stroke:#000000; stroke-width:0.0000; stroke-opacity:1; 
stroke-linecap:round; stroke-linejoin:round;fill-rule:evenodd;"
d="M 108.3745,84.2030
109.0495,84.2030
109.0495,84.4530
108.3745,84.4530
Z" /> 
<path style="fill:#000000; fill-opacity:1.0000; 
stroke:#000000; stroke-width:0.0000; stroke-opacity:1; 
stroke-linecap:round; stroke-linejoin:round;fill-rule:evenodd;"
d="M 108.3745,83.7030
109.0495,83.7030
109.0495,83.9530
108.3745,83.9530
Z" /> 
<path style="fill:#000000; fill-opacity:1.0000; 
stroke:#000000; stroke-width:0.0000; stroke-opacity:1; 
stroke-linecap:round; stroke-linejoin:round;fill-rule:evenodd;"
d="M 108.3745,83.2030
109.0495,83.2030
109.0495,83.4530
108.3745,83.4530
Z" /> 
<path style="fill:#000000; fill-opacity:1.0000; 
stroke:#000000; stroke-width:0.0000; stroke-opacity:1; 
stroke-linecap:round; stroke-linejoin:round;fill-rule:evenodd;"
d="M 108.3745,82.7030
109.0495,82.7030
109.0495,82.9530
108.3745,82.9530
Z" /> 
<path style="fill:#000000; fill-opacity:1.0000; 
stroke:#000000; stroke-width:0.0000; stroke-opacity:1; 
stroke-linecap:round; stroke-linejoin:round;fill-rule:evenodd;"
d="M 108.3745,82.2030
109.0495,82.2030
109.0495,82.4530
108.3745,82.4530
Z" /> 
<path style="fill:#000000; fill-opacity:1.0000; 
stroke:#000000; stroke-width:0.0000; stroke-opacity:1; 
stroke-linecap:round; stroke-linejoin:round;fill-rule:evenodd;"
d="M 108.3745,81.7030
109.0495,81.7030
109.0495,81.9530
108.3745,81.9530
Z" /> 
<path style="fill:#000000; fill-opacity:1.0000; 
stroke:#000000; stroke-width:0.0000; stroke-opacity:1; 
stroke-linecap:round; stroke-linejoin:round;fill-rule:evenodd;"
d="M 108.3745,81.2030
109.0495,81.2030
109.0495,81.4530
108.3745,81.4530
Z" /> 
<path style="fill:#000000; fill-opacity:1.0000; 
stroke:#000000; stroke-width:0.0000; stroke-opacity:1; 
stroke-linecap:round; stroke-linejoin:round;fill-rule:evenodd;"
d="M 108.3745,80.7030
109.0495,80.7030
109.0495,80.9530
108.3745,80.9530
Z" /> 
<path style="fill:#000000; fill-opacity:1.0000; 
stroke:#000000; stroke-width:0.0000; stroke-opacity:1; 
stroke-linecap:round; stroke-linejoin:round;fill-rule:evenodd;"
d="M 108.3745,80.2030
109.0495,80.2030
109.0495,80.4530
108.3745,80.4530
Z" /> 
<path style="fill:#000000; fill-opacity:1.0000; 
stroke:#000000; stroke-width:0.0000; stroke-opacity:1; 
stroke-linecap:round; stroke-linejoin:round;fill-rule:evenodd;"
d="M 108.3745,79.7030
109.0495,79.7030
109.0495,79.9530
108.3745,79.9530
Z" /> 
<path style="fill:#000000; fill-opacity:1.0000; 
stroke:#000000; stroke-width:0.0000; stroke-opacity:1; 
stroke-linecap:round; stroke-linejoin:round;fill-rule:evenodd;"
d="M 108.0240,79.4775
108.0240,80.0525
107.7740,80.0525
107.7740,79.4775
Z" /> 
<path style="fill:#000000; fill-opacity:1.0000; 
stroke:#000000; stroke-width:0.0000; stroke-opacity:1; 
stroke-linecap:round; stroke-linejoin:round;fill-rule:evenodd;"
d="M 107.5240,79.4775
107.5240,80.0525
107.2740,80.0525
107.2740,79.4775
Z" /> 
<path style="fill:#000000; fill-opacity:1.0000; 
stroke:#000000; stroke-width:0.0000; stroke-opacity:1; 
stroke-linecap:round; stroke-linejoin:round;fill-rule:evenodd;"
d="M 107.0240,79.4775
107.0240,80.0525
106.7740,80.0525
106.7740,79.4775
Z" /> 
<path style="fill:#000000; fill-opacity:1.0000; 
stroke:#000000; stroke-width:0.0000; stroke-opacity:1; 
stroke-linecap:round; stroke-linejoin:round;fill-rule:evenodd;"
d="M 106.5240,79.4775
106.5240,80.0525
106.2740,80.0525
106.2740,79.4775
Z" /> 
<path style="fill:#000000; fill-opacity:1.0000; 
stroke:#000000; stroke-width:0.0000; stroke-opacity:1; 
stroke-linecap:round; stroke-linejoin:round;fill-rule:evenodd;"
d="M 105.2485,79.7030
105.9235,79.7030
105.9235,79.9530
105.2485,79.9530
Z" /> 
<path style="fill:#000000; fill-opacity:1.0000; 
stroke:#000000; stroke-width:0.0000; stroke-opacity:1; 
stroke-linecap:round; stroke-linejoin:round;fill-rule:evenodd;"
d="M 105.2485,80.2030
105.9235,80.2030
105.9235,80.4530
105.2485,80.4530
Z" /> 
<path style="fill:#000000; fill-opacity:1.0000; 
stroke:#000000; stroke-width:0.0000; stroke-opacity:1; 
stroke-linecap:round; stroke-linejoin:round;fill-rule:evenodd;"
d="M 105.2485,80.7030
105.9235,80.7030
105.9235,80.9530
105.2485,80.9530
Z" /> 
<path style="fill:#000000; fill-opacity:1.0000; 
stroke:#000000; stroke-width:0.0000; stroke-opacity:1; 
stroke-linecap:round; stroke-linejoin:round;fill-rule:evenodd;"
d="M 105.2485,81.2030
105.9235,81.2030
105.9235,81.4530
105.2485,81.4530
Z" /> 
<path style="fill:#000000; fill-opacity:1.0000; 
stroke:#000000; stroke-width:0.0000; stroke-opacity:1; 
stroke-linecap:round; stroke-linejoin:round;fill-rule:evenodd;"
d="M 105.2485,81.7030
105.9235,81.7030
105.9235,81.9530
105.2485,81.9530
Z" /> 
<path style="fill:#000000; fill-opacity:1.0000; 
stroke:#000000; stroke-width:0.0000; stroke-opacity:1; 
stroke-linecap:round; stroke-linejoin:round;fill-rule:evenodd;"
d="M 105.2485,82.2030
105.9235,82.2030
105.9235,82.4530
105.2485,82.4530
Z" /> 
<path style="fill:#000000; fill-opacity:1.0000; 
stroke:#000000; stroke-width:0.0000; stroke-opacity:1; 
stroke-linecap:round; stroke-linejoin:round;fill-rule:evenodd;"
d="M 105.2485,82.7030
105.9235,82.7030
105.9235,82.9530
105.2485,82.9530
Z" /> 
<path style="fill:#000000; fill-opacity:1.0000; 
stroke:#000000; stroke-width:0.0000; stroke-opacity:1; 
stroke-linecap:round; stroke-linejoin:round;fill-rule:evenodd;"
d="M 105.2485,83.2030
105.9235,83.2030
105.9235,83.4530
105.2485,83.4530
Z" /> 
<path style="fill:#000000; fill-opacity:1.0000; 
stroke:#000000; stroke-width:0.0000; stroke-opacity:1; 
stroke-linecap:round; stroke-linejoin:round;fill-rule:evenodd;"
d="M 105.2485,83.7030
105.9235,83.7030
105.9235,83.9530
105.2485,83.9530
Z" /> 
</g>
<g >
</g>
<g style="fill:#000000; fill-opacity:1.0000; 
stroke:#000000; stroke-width:0.0000; stroke-opacity:1; 
stroke-linecap:round; stroke-linejoin:round;">
<path style="fill:#000000; fill-opacity:1.0000; 
stroke:#000000; stroke-width:0.0000; stroke-opacity:1; 
stroke-linecap:round; stroke-linejoin:round;fill-rule:evenodd;"
d="M 103.4840,70.7160
103.4954,70.6586
103.5279,70.6099
103.5766,70.5774
103.6340,70.5660
105.2840,70.5660
105.3414,70.5774
105.3901,70.6099
105.4226,70.6586
105.4340,70.7160
105.4340,71.0160
105.4226,71.0734
105.3901,71.1221
105.3414,71.1546
105.2840,71.1660
103.6340,71.1660
103.5766,71.1546
103.5279,71.1221
103.4954,71.0734
103.4840,71.0160
Z" /> 
<path style="fill:#000000; fill-opacity:1.0000; 
stroke:#000000; stroke-width:0.0000; stroke-opacity:1; 
stroke-linecap:round; stroke-linejoin:round;fill-rule:evenodd;"
d="M 103.4840,71.9860
103.4954,71.9286
103.5279,71.8799
103.5766,71.8474
103.6340,71.8360
105.2840,71.8360
105.3414,71.8474
105.3901,71.8799
105.4226,71.9286
105.4340,71.9860
105.4340,72.2860
105.4226,72.3434
105.3901,72.3921
105.3414,72.4246
105.2840,72.4360
103.6340,72.4360
103.5766,72.4246
103.5279,72.3921
103.4954,72.3434
103.4840,72.2860
Z" /> 
<path style="fill:#000000; fill-opacity:1.0000; 
stroke:#000000; stroke-width:0.0000; stroke-opacity:1; 
stroke-linecap:round; stroke-linejoin:round;fill-rule:evenodd;"
d="M 103.4840,73.2560
103.4954,73.1986
103.5279,73.1499
103.5766,73.1174
103.6340,73.1060
105.2840,73.1060
105.3414,73.1174
105.3901,73.1499
105.4226,73.1986
105.4340,73.2560
105.4340,73.5560
105.4226,73.6134
105.3901,73.6621
105.3414,73.6946
105.2840,73.7060
103.6340,73.7060
103.5766,73.6946
103.5279,73.6621
103.4954,73.6134
103.4840,73.5560
Z" /> 
<path style="fill:#000000; fill-opacity:1.0000; 
stroke:#000000; stroke-width:0.0000; stroke-opacity:1; 
stroke-linecap:round; stroke-linejoin:round;fill-rule:evenodd;"
d="M 103.4840,74.5260
103.4954,74.4686
103.5279,74.4199
103.5766,74.3874
103.6340,74.3760
105.2840,74.3760
105.3414,74.3874
105.3901,74.4199
105.4226,74.4686
105.4340,74.5260
105.4340,74.8260
105.4226,74.8834
105.3901,74.9321
105.3414,74.9646
105.2840,74.9760
103.6340,74.9760
103.5766,74.9646
103.5279,74.9321
103.4954,74.8834
103.4840,74.8260
Z" /> 
<path style="fill:#000000; fill-opacity:1.0000; 
stroke:#000000; stroke-width:0.0000; stroke-opacity:1; 
stroke-linecap:round; stroke-linejoin:round;fill-rule:evenodd;"
d="M 103.4840,75.7960
103.4954,75.7386
103.5279,75.6899
103.5766,75.6574
103.6340,75.6460
105.2840,75.6460
105.3414,75.6574
105.3901,75.6899
105.4226,75.7386
105.4340,75.7960
105.4340,76.0960
105.4226,76.1534
105.3901,76.2021
105.3414,76.2346
105.2840,76.2460
103.6340,76.2460
103.5766,76.2346
103.5279,76.2021
103.4954,76.1534
103.4840,76.0960
Z" /> 
<path style="fill:#000000; fill-opacity:1.0000; 
stroke:#000000; stroke-width:0.0000; stroke-opacity:1; 
stroke-linecap:round; stroke-linejoin:round;fill-rule:evenodd;"
d="M 103.4840,77.0660
103.4954,77.0086
103.5279,76.9599
103.5766,76.9274
103.6340,76.9160
105.2840,76.9160
105.3414,76.9274
105.3901,76.9599
105.4226,77.0086
105.4340,77.0660
105.4340,77.3660
105.4226,77.4234
105.3901,77.4721
105.3414,77.5046
105.2840,77.5160
103.6340,77.5160
103.5766,77.5046
103.5279,77.4721
103.4954,77.4234
103.4840,77.3660
Z" /> 
<path style="fill:#000000; fill-opacity:1.0000; 
stroke:#000000; stroke-width:0.0000; stroke-opacity:1; 
stroke-linecap:round; stroke-linejoin:round;fill-rule:evenodd;"
d="M 103.4840,78.3360
103.4954,78.2786
103.5279,78.2299
103.5766,78.1974
103.6340,78.1860
105.2840,78.1860
105.3414,78.1974
105.3901,78.2299
105.4226,78.2786
105.4340,78.3360
105.4340,78.6360
105.4226,78.6934
105.3901,78.7421
105.3414,78.7746
105.2840,78.7860
103.6340,78.7860
103.5766,78.7746
103.5279,78.7421
103.4954,78.6934
103.4840,78.6360
Z" /> 
<path style="fill:#000000; fill-opacity:1.0000; 
stroke:#000000; stroke-width:0.0000; stroke-opacity:1; 
stroke-linecap:round; stroke-linejoin:round;fill-rule:evenodd;"
d="M 108.4340,78.3360
108.4454,78.2786
108.4779,78.2299
108.5266,78.1974
108.5840,78.1860
110.2340,78.1860
110.2914,78.1974
110.3401,78.2299
110.3726,78.2786
110.3840,78.3360
110.3840,78.6360
110.3726,78.6934
110.3401,78.7421
110.2914,78.7746
110.2340,78.7860
108.5840,78.7860
108.5266,78.7746
108.4779,78.7421
108.4454,78.6934
108.4340,78.6360
Z" /> 
<path style="fill:#000000; fill-opacity:1.0000; 
stroke:#000000; stroke-width:0.0000; stroke-opacity:1; 
stroke-linecap:round; stroke-linejoin:round;fill-rule:evenodd;"
d="M 108.4340,77.0660
108.4454,77.0086
108.4779,76.9599
108.5266,76.9274
108.5840,76.9160
110.2340,76.9160
110.2914,76.9274
110.3401,76.9599
110.3726,77.0086
110.3840,77.0660
110.3840,77.3660
110.3726,77.4234
110.3401,77.4721
110.2914,77.5046
110.2340,77.5160
108.5840,77.5160
108.5266,77.5046
108.4779,77.4721
108.4454,77.4234
108.4340,77.3660
Z" /> 
<path style="fill:#000000; fill-opacity:1.0000; 
stroke:#000000; stroke-width:0.0000; stroke-opacity:1; 
stroke-linecap:round; stroke-linejoin:round;fill-rule:evenodd;"
d="M 108.4340,75.7960
108.4454,75.7386
108.4779,75.6899
108.5266,75.6574
108.5840,75.6460
110.2340,75.6460
110.2914,75.6574
110.3401,75.6899
110.3726,75.7386
110.3840,75.7960
110.3840,76.0960
110.3726,76.1534
110.3401,76.2021
110.2914,76.2346
110.2340,76.2460
108.5840,76.2460
108.5266,76.2346
108.4779,76.2021
108.4454,76.1534
108.4340,76.0960
Z" /> 
<path style="fill:#000000; fill-opacity:1.0000; 
stroke:#000000; stroke-width:0.0000; stroke-opacity:1; 
stroke-linecap:round; stroke-linejoin:round;fill-rule:evenodd;"
d="M 108.4340,74.5260
108.4454,74.4686
108.4779,74.4199
108.5266,74.3874
108.5840,74.3760
110.2340,74.3760
110.2914,74.3874
110.3401,74.4199
110.3726,74.4686
110.3840,74.5260
110.3840,74.8260
110.3726,74.8834
110.3401,74.9321
110.2914,74.9646
110.2340,74.9760
108.5840,74.9760
108.5266,74.9646
108.4779,74.9321
108.4454,74.8834
108.4340,74.8260
Z" /> 
<path style="fill:#000000; fill-opacity:1.0000; 
stroke:#000000; stroke-width:0.0000; stroke-opacity:1; 
stroke-linecap:round; stroke-linejoin:round;fill-rule:evenodd;"
d="M 108.4340,73.2560
108.4454,73.1986
108.4779,73.1499
108.5266,73.1174
108.5840,73.1060
110.2340,73.1060
110.2914,73.1174
110.3401,73.1499
110.3726,73.1986
110.3840,73.2560
110.3840,73.5560
110.3726,73.6134
110.3401,73.6621
110.2914,73.6946
110.2340,73.7060
108.5840,73.7060
108.5266,73.6946
108.4779,73.6621
108.4454,73.6134
108.4340,73.5560
Z" /> 
<path style="fill:#000000; fill-opacity:1.0000; 
stroke:#000000; stroke-width:0.0000; stroke-opacity:1; 
stroke-linecap:round; stroke-linejoin:round;fill-rule:evenodd;"
d="M 108.4340,71.9860
108.4454,71.9286
108.4779,71.8799
108.5266,71.8474
108.5840,71.8360
110.2340,71.8360
110.2914,71.8474
110.3401,71.8799
110.3726,71.9286
110.3840,71.9860
110.3840,72.2860
110.3726,72.3434
110.3401,72.3921
110.2914,72.4246
110.2340,72.4360
108.5840,72.4360
108.5266,72.4246
108.4779,72.3921
108.4454,72.3434
108.4340,72.2860
Z" /> 
<path style="fill:#000000; fill-opacity:1.0000; 
stroke:#000000; stroke-width:0.0000; stroke-opacity:1; 
stroke-linecap:round; stroke-linejoin:round;fill-rule:evenodd;"
d="M 108.4340,70.7160
108.4454,70.6586
108.4779,70.6099
108.5266,70.5774
108.5840,70.5660
110.2340,70.5660
110.2914,70.5774
110.3401,70.6099
110.3726,70.6586
110.3840,70.7160
110.3840,71.0160
110.3726,71.0734
110.3401,71.1221
110.2914,71.1546
110.2340,71.1660
108.5840,71.1660
108.5266,71.1546
108.4779,71.1221
108.4454,71.0734
108.4340,71.0160
Z" /> 
</g>
<g >
</g>
<g >
</g>
<g style="fill:#000000; fill-opacity:1.0000; 
stroke:#000000; stroke-width:0.0000; stroke-opacity:1; 
stroke-linecap:round; stroke-linejoin:round;">
<path style="fill:#000000; fill-opacity:1.0000; 
stroke:#000000; stroke-width:0.0000; stroke-opacity:1; 
stroke-linecap:round; stroke-linejoin:round;fill-rule:evenodd;"
d="M 100.0732,75.7046
100.0913,75.6137
100.1427,75.5366
100.2198,75.4852
100.3107,75.4671
100.8107,75.4671
100.9016,75.4852
100.9786,75.5366
101.0301,75.6137
101.0482,75.7046
101.0482,76.1796
101.0301,76.2705
100.9786,76.3475
100.9016,76.3990
100.8107,76.4171
100.3107,76.4171
100.2198,76.3990
100.1427,76.3475
100.0913,76.2705
100.0732,76.1796
Z" /> 
<path style="fill:#000000; fill-opacity:1.0000; 
stroke:#000000; stroke-width:0.0000; stroke-opacity:1; 
stroke-linecap:round; stroke-linejoin:round;fill-rule:evenodd;"
d="M 101.8982,75.7046
101.9163,75.6137
101.9677,75.5366
102.0448,75.4852
102.1357,75.4671
102.6357,75.4671
102.7266,75.4852
102.8036,75.5366
102.8551,75.6137
102.8732,75.7046
102.8732,76.1796
102.8551,76.2705
102.8036,76.3475
102.7266,76.3990
102.6357,76.4171
102.1357,76.4171
102.0448,76.3990
101.9677,76.3475
101.9163,76.2705
101.8982,76.1796
Z" /> 
</g>
<g >
</g>
<g style="fill:#000000; fill-opacity:1.0000; 
stroke:#000000; stroke-width:0.0000; stroke-opacity:1; 
stroke-linecap:round; stroke-linejoin:round;">
<path style="fill:#000000; fill-opacity:1.0000; 
stroke:#000000; stroke-width:0.0000; stroke-opacity:1; 
stroke-linecap:round; stroke-linejoin:round;fill-rule:evenodd;"
d="M 93.5825,77.9515
93.6734,77.9696
93.7504,78.0211
93.8019,78.0981
93.8200,78.1890
93.8200,78.6890
93.8019,78.7799
93.7504,78.8569
93.6734,78.9084
93.5825,78.9265
93.1075,78.9265
93.0166,78.9084
92.9396,78.8569
92.8881,78.7799
92.8700,78.6890
92.8700,78.1890
92.8881,78.0981
92.9396,78.0211
93.0166,77.9696
93.1075,77.9515
Z" /> 
<path style="fill:#000000; fill-opacity:1.0000; 
stroke:#000000; stroke-width:0.0000; stroke-opacity:1; 
stroke-linecap:round; stroke-linejoin:round;fill-rule:evenodd;"
d="M 93.5825,79.7765
93.6734,79.7946
93.7504,79.8461
93.8019,79.9231
93.8200,80.0140
93.8200,80.5140
93.8019,80.6049
93.7504,80.6819
93.6734,80.7334
93.5825,80.7515
93.1075,80.7515
93.0166,80.7334
92.9396,80.6819
92.8881,80.6049
92.8700,80.5140
92.8700,80.0140
92.8881,79.9231
92.9396,79.8461
93.0166,79.7946
93.1075,79.7765
Z" /> 
</g>
<g >
</g>
<g >
</g>
<g >
</g>
<g >
</g>
<g >
</g>
<g >
</g>
</g> 
</svg>
