<?xml version="1.0" encoding="UTF-8"?>
<svg id="Layer_1" data-name="Layer 1" xmlns="http://www.w3.org/2000/svg" version="1.1" viewBox="0 0 288 288">
  <defs>
    <style>
      .cls-1 {
        fill: blue;
      }

      .cls-1, .cls-2 {
        stroke-width: .2px;
      }

      .cls-1, .cls-2, .cls-3 {
        stroke-miterlimit: 11.3;
      }

      .cls-1, .cls-3 {
        stroke: blue;
      }

      .cls-2 {
        stroke: #000;
      }

      .cls-2, .cls-3 {
        fill: none;
      }

      .cls-3 {
        stroke-width: 0px;
      }
    </style>
  </defs>
  <path class="cls-1" d="M143.8,170.7h.2s.1.1.1.1h0c0,.1,0,.3,0,.3v1.9s-.1.1-.1.1h-.1c0,0-.2.1-.2.1h-1.5s-.1-.1-.1-.1h0c0-.1,0-.3,0-.3v-1.9s.1-.1.1-.1h.1c0,0,.2-.1.2-.1h1.3Z"/>
  <path class="cls-1" d="M143.8,175.6h.2s.1.1.1.1h0c0,.1,0,.3,0,.3v1.9s-.1.1-.1.1h-.1c0,0-.2.1-.2.1h-1.5s-.1-.1-.1-.1h0c0-.1,0-.3,0-.3v-1.9s.1-.1.1-.1h.1c0,0,.2-.1.2-.1h1.3Z"/>
  <path class="cls-1" d="M181.6,155.3h-.2s-.1-.1-.1-.1h0c0-.1,0-.3,0-.3v-1.9s.1-.1.1-.1h.1c0,0,.2-.1.2-.1h1.5s.1.1.1.1h0c0,.1,0,.3,0,.3v1.9s-.1.1-.1.1h-.1c0,0-.2.1-.2.1h-1.3Z"/>
  <path class="cls-1" d="M181.6,150.4h-.2s-.1-.1-.1-.1h0c0-.1,0-.3,0-.3v-1.9s.1-.1.1-.1h.1c0,0,.2-.1.2-.1h1.5s.1.1.1.1h0c0,.1,0,.3,0,.3v1.9s-.1.1-.1.1h-.1c0,0-.2.1-.2.1h-1.3Z"/>
  <path class="cls-1" d="M155.7,170.5v.2s-.1.1-.1.1h-.1c0,0-.2.1-.2.1h-1.6s-.1-.1-.1-.1h0c0-.1,0-.3,0-.3v-1.5s.1-.1.1-.1h.1c0,0,.2-.1.2-.1h1.6s.1.1.1.1h0c0,.1,0,.3,0,.3v1.3Z"/>
  <path class="cls-1" d="M150.5,170.5v.2s-.1.1-.1.1h-.1c0,0-.2.1-.2.1h-1.6s-.1-.1-.1-.1h0c0-.1,0-.3,0-.3v-1.5s.1-.1.1-.1h.1c0,0,.2-.1.2-.1h1.6s.1.1.1.1h0c0,.1,0,.3,0,.3v1.3Z"/>
  <path class="cls-1" d="M159.7,157.8h-.2s-.1-.1-.1-.1h0c0-.1,0-.3,0-.3v-1.6s.1-.1.1-.1h.1c0,0,.2-.1.2-.1h1.5s.1.1.1.1h0c0,.1,0,.3,0,.3v1.6s-.1.1-.1.1h-.1c0,0-.2.1-.2.1h-1.3Z"/>
  <path class="cls-1" d="M159.7,152.7h-.2s-.1-.1-.1-.1h0c0-.1,0-.3,0-.3v-1.6s.1-.1.1-.1h.1c0,0,.2-.1.2-.1h1.5s.1.1.1.1h0c0,.1,0,.3,0,.3v1.6s-.1.1-.1.1h-.1c0,0-.2.1-.2.1h-1.3Z"/>
  <path class="cls-1" d="M194.3,171h.2s.1.1.1.1h0c0,.1,0,.3,0,.3v1.9s-.1.1-.1.1h-.1c0,0-.2.1-.2.1h-1.5s-.1-.1-.1-.1h0c0-.1,0-.3,0-.3v-1.9s.1-.1.1-.1h.1c0,0,.2-.1.2-.1h1.3Z"/>
  <path class="cls-1" d="M194.3,175.8h.2s.1.1.1.1h0c0,.1,0,.3,0,.3v1.9s-.1.1-.1.1h-.1c0,0-.2.1-.2.1h-1.5s-.1-.1-.1-.1h0c0-.1,0-.3,0-.3v-1.9s.1-.1.1-.1h.1c0,0,.2-.1.2-.1h1.3Z"/>
  <path class="cls-1" d="M138.7,147.4h-.2s-.1-.1-.1-.1h0c0-.1,0-.3,0-.3v-1.8s.1-.1.1-.1h.1c0,0,.2-.1.2-.1h1.5s.1.1.1.1h0c0,.1,0,.3,0,.3v1.8s-.1.1-.1.1h-.1c0,0-.2.1-.2.1h-1.3Z"/>
  <path class="cls-1" d="M138.7,142.5h-.2s-.1-.1-.1-.1h0c0-.1,0-.3,0-.3v-1.8s.1-.1.1-.1h.1c0,0,.2-.1.2-.1h1.5s.1.1.1.1h0c0,.1,0,.3,0,.3v1.8s-.1.1-.1.1h-.1c0,0-.2.1-.2.1h-1.3Z"/>
  <path class="cls-1" d="M156.5,150.3h.2s.1.1.1.1h0c0,.1,0,.3,0,.3v1.6s-.1.1-.1.1h-.1c0,0-.2.1-.2.1h-1.5s-.1-.1-.1-.1h0c0-.1,0-.3,0-.3v-1.6s.1-.1.1-.1h.1c0,0,.2-.1.2-.1h1.3Z"/>
  <path class="cls-1" d="M156.5,155.5h.2s.1.1.1.1h0c0,.1,0,.3,0,.3v1.6s-.1.1-.1.1h-.1c0,0-.2.1-.2.1h-1.5s-.1-.1-.1-.1h0c0-.1,0-.3,0-.3v-1.6s.1-.1.1-.1h.1c0,0,.2-.1.2-.1h1.3Z"/>
  <path class="cls-1" d="M186.3,151.3v-.2s.1-.1.1-.1h.1c0,0,.2-.1.2-.1h1.6s.1.1.1.1h0c0,.1,0,.3,0,.3v1.5s-.1.1-.1.1h-.1c0,0-.2.1-.2.1h-1.6s-.1-.1-.1-.1h0c0-.1,0-.3,0-.3v-1.3Z"/>
  <path class="cls-1" d="M191.4,151.3v-.2s.1-.1.1-.1h.1c0,0,.2-.1.2-.1h1.6s.1.1.1.1h0c0,.1,0,.3,0,.3v1.5s-.1.1-.1.1h-.1c0,0-.2.1-.2.1h-1.6s-.1-.1-.1-.1h0c0-.1,0-.3,0-.3v-1.3Z"/>
  <path class="cls-1" d="M158.1,161.3h5.2v3h-5.2v-3Z"/>
  <path class="cls-1" d="M158.1,174.1h5.2v3h-5.2v-3Z"/>
  <path class="cls-1" d="M173.4,176.9v-15.4h15.4v15.4h-15.4Z"/>
  <path class="cls-1" d="M177.6,110.8v.2s-.1.1-.1.1h-.1c0,0-.2.1-.2.1h-1.9s-.1-.1-.1-.1h0c0-.1,0-.3,0-.3v-1.5s.1-.1.1-.1h.1c0,0,.2-.1.2-.1h1.9s.1.1.1.1h0c0,.1,0,.3,0,.3v1.3Z"/>
  <path class="cls-1" d="M172.7,110.8v.2s-.1.1-.1.1h-.1c0,0-.2.1-.2.1h-1.9s-.1-.1-.1-.1h0c0-.1,0-.3,0-.3v-1.5s.1-.1.1-.1h.1c0,0,.2-.1.2-.1h1.9s.1.1.1.1h0c0,.1,0,.3,0,.3v1.3Z"/>
  <path class="cls-1" d="M148.2,173.5v-.2s.1-.1.1-.1h.1c0,0,.2-.1.2-.1h1.6s.1.1.1.1h0c0,.1,0,.3,0,.3v1.5s-.1.1-.1.1h-.1c0,0-.2.1-.2.1h-1.6s-.1-.1-.1-.1h0c0-.1,0-.3,0-.3v-1.3Z"/>
  <path class="cls-1" d="M153.3,173.5v-.2s.1-.1.1-.1h.1c0,0,.2-.1.2-.1h1.6s.1.1.1.1h0c0,.1,0,.3,0,.3v1.5s-.1.1-.1.1h-.1c0,0-.2.1-.2.1h-1.6s-.1-.1-.1-.1h0c0-.1,0-.3,0-.3v-1.3Z"/>
  <path class="cls-1" d="M192.5,119.4h.2s.1.1.1.1h0c0,.1,0,.3,0,.3v1.6s-.1.1-.1.1h-.1c0,0-.2.1-.2.1h-1.5s-.1-.1-.1-.1h0c0-.1,0-.3,0-.3v-1.6s.1-.1.1-.1h.1c0,0,.2-.1.2-.1h1.3Z"/>
  <path class="cls-1" d="M192.5,124.5h.2s.1.1.1.1h0c0,.1,0,.3,0,.3v1.6s-.1.1-.1.1h-.1c0,0-.2.1-.2.1h-1.5s-.1-.1-.1-.1h0c0-.1,0-.3,0-.3v-1.6s.1-.1.1-.1h.1c0,0,.2-.1.2-.1h1.3Z"/>
  <path class="cls-1" d="M186.3,155.6v-.2s.1-.1.1-.1h.1c0,0,.2-.1.2-.1h1.6s.1.1.1.1h0c0,.1,0,.3,0,.3v1.5s-.1.1-.1.1h-.1c0,0-.2.1-.2.1h-1.6s-.1-.1-.1-.1h0c0-.1,0-.3,0-.3v-1.3Z"/>
  <path class="cls-1" d="M191.4,155.6v-.2s.1-.1.1-.1h.1c0,0,.2-.1.2-.1h1.6s.1.1.1.1h0c0,.1,0,.3,0,.3v1.5s-.1.1-.1.1h-.1c0,0-.2.1-.2.1h-1.6s-.1-.1-.1-.1h0c0-.1,0-.3,0-.3v-1.3Z"/>
  <path class="cls-1" d="M172.8,157.4v.2s-.1.1-.1.1h-.1c0,0-.2.1-.2.1h-1.9s-.1-.1-.1-.1h0c0-.1,0-.3,0-.3v-1.5s.1-.1.1-.1h.1c0,0,.2-.1.2-.1h1.9s.1.1.1.1h0c0,.1,0,.3,0,.3v1.3Z"/>
  <path class="cls-1" d="M167.9,157.4v.2s-.1.1-.1.1h-.1c0,0-.2.1-.2.1h-1.9s-.1-.1-.1-.1h0c0-.1,0-.3,0-.3v-1.5s.1-.1.1-.1h.1c0,0,.2-.1.2-.1h1.9s.1.1.1.1h0c0,.1,0,.3,0,.3v1.3Z"/>
  <path class="cls-1" d="M161.5,123.2v.2s-.1.1-.1.1h-.1c0,0-.2.1-.2.1h-1.6s-.1-.1-.1-.1h0c0-.1,0-.3,0-.3v-1.5s.1-.1.1-.1h.1c0,0,.2-.1.2-.1h1.6s.1.1.1.1h0c0,.1,0,.3,0,.3v1.3Z"/>
  <path class="cls-1" d="M156.3,123.2v.2s-.1.1-.1.1h-.1c0,0-.2.1-.2.1h-1.6s-.1-.1-.1-.1h0c0-.1,0-.3,0-.3v-1.5s.1-.1.1-.1h.1c0,0,.2-.1.2-.1h1.6s.1.1.1.1h0c0,.1,0,.3,0,.3v1.3Z"/>
  <path class="cls-1" d="M164.8,153.3h-.2s-.1-.1-.1-.1h0c0-.1,0-.3,0-.3v-1.9s.1-.1.1-.1h.1c0,0,.2-.1.2-.1h1.5s.1.1.1.1h0c0,.1,0,.3,0,.3v1.9s-.1.1-.1.1h-.1c0,0-.2.1-.2.1h-1.3Z"/>
  <path class="cls-1" d="M164.8,148.4h-.2s-.1-.1-.1-.1h0c0-.1,0-.3,0-.3v-1.9s.1-.1.1-.1h.1c0,0,.2-.1.2-.1h1.5s.1.1.1.1h0c0,.1,0,.3,0,.3v1.9s-.1.1-.1.1h-.1c0,0-.2.1-.2.1h-1.3Z"/>
  <path class="cls-1" d="M168.6,152.5h1.5v.3h-1.5v-.3Z"/>
  <path class="cls-1" d="M171.8,152.2v1.2h-.3v-1.2h.3Z"/>
  <path class="cls-1" d="M173.2,152.2v1.2h-.3v-1.2h.3Z"/>
  <path class="cls-1" d="M174.6,152.2v1.2h-.3v-1.2h.3Z"/>
  <path class="cls-1" d="M176,152.2v1.2h-.3v-1.2h.3Z"/>
  <path class="cls-1" d="M177.5,152.5h1.5v.3h-1.5v-.3Z"/>
  <path class="cls-1" d="M177.5,151.1h1.5v.3h-1.5v-.3Z"/>
  <path class="cls-1" d="M177.5,149.7h1.5v.3h-1.5v-.3Z"/>
  <path class="cls-1" d="M177.5,148.2h1.5v.3h-1.5v-.3Z"/>
  <path class="cls-1" d="M177.5,146.8h1.5v.3h-1.5v-.3Z"/>
  <path class="cls-1" d="M177.5,145.4h1.5v.3h-1.5v-.3Z"/>
  <path class="cls-1" d="M177.5,144h1.5v.3h-1.5v-.3Z"/>
  <path class="cls-1" d="M177.5,142.6h1.5v.3h-1.5v-.3Z"/>
  <path class="cls-1" d="M177.5,141.2h1.5v.3h-1.5v-.3Z"/>
  <path class="cls-1" d="M177.5,139.7h1.5v.3h-1.5v-.3Z"/>
  <path class="cls-1" d="M176,139.1v1.2h-.3v-1.2h.3Z"/>
  <path class="cls-1" d="M174.6,139.1v1.2h-.3v-1.2h.3Z"/>
  <path class="cls-1" d="M173.2,139.1v1.2h-.3v-1.2h.3Z"/>
  <path class="cls-1" d="M171.8,139.1v1.2h-.3v-1.2h.3Z"/>
  <path class="cls-1" d="M168.6,139.7h1.5v.3h-1.5v-.3Z"/>
  <path class="cls-1" d="M168.6,141.2h1.5v.3h-1.5v-.3Z"/>
  <path class="cls-1" d="M168.6,142.6h1.5v.3h-1.5v-.3Z"/>
  <path class="cls-1" d="M168.6,144h1.5v.3h-1.5v-.3Z"/>
  <path class="cls-1" d="M168.6,145.4h1.5v.3h-1.5v-.3Z"/>
  <path class="cls-1" d="M168.6,146.8h1.5v.3h-1.5v-.3Z"/>
  <path class="cls-1" d="M168.6,148.2h1.5v.3h-1.5v-.3Z"/>
  <path class="cls-1" d="M168.6,149.7h1.5v.3h-1.5v-.3Z"/>
  <path class="cls-1" d="M168.6,151.1h1.5v.3h-1.5v-.3Z"/>
  <path class="cls-1" d="M163.6,114.1h0c0-.1,0-.2,0-.2h0s.1,0,.1,0h4.7s0,0,0,0h0c0,0,0,.2,0,.2v.8h0c0,.1,0,.2,0,.2h0s-.1,0-.1,0h-4.7s0,0,0,0h0c0,0,0-.2,0-.2v-.8Z"/>
  <path class="cls-1" d="M163.6,117.7h0c0-.1,0-.2,0-.2h0s.1,0,.1,0h4.7s0,0,0,0h0c0,0,0,.2,0,.2v.8h0c0,.1,0,.2,0,.2h0s-.1,0-.1,0h-4.7s0,0,0,0h0c0,0,0-.2,0-.2v-.8Z"/>
  <path class="cls-1" d="M163.6,121.3h0c0-.1,0-.2,0-.2h0s.1,0,.1,0h4.7s0,0,0,0h0c0,0,0,.2,0,.2v.8h0c0,.1,0,.2,0,.2h0s-.1,0-.1,0h-4.7s0,0,0,0h0c0,0,0-.2,0-.2v-.8Z"/>
  <path class="cls-1" d="M163.6,124.9h0c0-.1,0-.2,0-.2h0s.1,0,.1,0h4.7s0,0,0,0h0c0,0,0,.2,0,.2v.8h0c0,.1,0,.2,0,.2h0s-.1,0-.1,0h-4.7s0,0,0,0h0c0,0,0-.2,0-.2v-.8Z"/>
  <path class="cls-1" d="M163.6,128.5h0c0-.1,0-.2,0-.2h0s.1,0,.1,0h4.7s0,0,0,0h0c0,0,0,.2,0,.2v.8h0c0,.1,0,.2,0,.2h0s-.1,0-.1,0h-4.7s0,0,0,0h0c0,0,0-.2,0-.2v-.8Z"/>
  <path class="cls-1" d="M163.6,132.1h0c0-.1,0-.2,0-.2h0s.1,0,.1,0h4.7s0,0,0,0h0c0,0,0,.2,0,.2v.8h0c0,.1,0,.2,0,.2h0s-.1,0-.1,0h-4.7s0,0,0,0h0c0,0,0-.2,0-.2v-.8Z"/>
  <path class="cls-1" d="M163.6,135.7h0c0-.1,0-.2,0-.2h0s.1,0,.1,0h4.7s0,0,0,0h0c0,0,0,.2,0,.2v.8h0c0,.1,0,.2,0,.2h0s-.1,0-.1,0h-4.7s0,0,0,0h0c0,0,0-.2,0-.2v-.8Z"/>
  <path class="cls-1" d="M177.6,135.7h0c0-.1,0-.2,0-.2h0s.1,0,.1,0h4.7s0,0,0,0h0c0,0,0,.2,0,.2v.8h0c0,.1,0,.2,0,.2h0s-.1,0-.1,0h-4.7s0,0,0,0h0c0,0,0-.2,0-.2v-.8Z"/>
  <path class="cls-1" d="M177.6,132.1h0c0-.1,0-.2,0-.2h0s.1,0,.1,0h4.7s0,0,0,0h0c0,0,0,.2,0,.2v.8h0c0,.1,0,.2,0,.2h0s-.1,0-.1,0h-4.7s0,0,0,0h0c0,0,0-.2,0-.2v-.8Z"/>
  <path class="cls-1" d="M177.6,128.5h0c0-.1,0-.2,0-.2h0s.1,0,.1,0h4.7s0,0,0,0h0c0,0,0,.2,0,.2v.8h0c0,.1,0,.2,0,.2h0s-.1,0-.1,0h-4.7s0,0,0,0h0c0,0,0-.2,0-.2v-.8Z"/>
  <path class="cls-1" d="M177.6,124.9h0c0-.1,0-.2,0-.2h0s.1,0,.1,0h4.7s0,0,0,0h0c0,0,0,.2,0,.2v.8h0c0,.1,0,.2,0,.2h0s-.1,0-.1,0h-4.7s0,0,0,0h0c0,0,0-.2,0-.2v-.8Z"/>
  <path class="cls-1" d="M177.6,121.3h0c0-.1,0-.2,0-.2h0s.1,0,.1,0h4.7s0,0,0,0h0c0,0,0,.2,0,.2v.8h0c0,.1,0,.2,0,.2h0s-.1,0-.1,0h-4.7s0,0,0,0h0c0,0,0-.2,0-.2v-.8Z"/>
  <path class="cls-1" d="M177.6,117.7h0c0-.1,0-.2,0-.2h0s.1,0,.1,0h4.7s0,0,0,0h0c0,0,0,.2,0,.2v.8h0c0,.1,0,.2,0,.2h0s-.1,0-.1,0h-4.7s0,0,0,0h0c0,0,0-.2,0-.2v-.8Z"/>
  <path class="cls-1" d="M177.6,114.1h0c0-.1,0-.2,0-.2h0s.1,0,.1,0h4.7s0,0,0,0h0c0,0,0,.2,0,.2v.8h0c0,.1,0,.2,0,.2h0s-.1,0-.1,0h-4.7s0,0,0,0h0c0,0,0-.2,0-.2v-.8Z"/>
  <path class="cls-1" d="M153.9,128.2v-.2s.1-.1.1-.1h.1c0,0,.2-.1.2-.1h1.6s.1.1.1.1h0c0,.1,0,.3,0,.3v1.5s-.1.1-.1.1h-.1c0,0-.2.1-.2.1h-1.6s-.1-.1-.1-.1h0c0-.1,0-.3,0-.3v-1.3Z"/>
  <path class="cls-1" d="M159.1,128.2v-.2s.1-.1.1-.1h.1c0,0,.2-.1.2-.1h1.6s.1.1.1.1h0c0,.1,0,.3,0,.3v1.5s-.1.1-.1.1h-.1c0,0-.2.1-.2.1h-1.6s-.1-.1-.1-.1h0c0-.1,0-.3,0-.3v-1.3Z"/>
  <path class="cls-1" d="M135.3,134.8h.2s.1.1.1.1h0c0,.1,0,.3,0,.3v1.6s-.1.1-.1.1h-.1c0,0-.2.1-.2.1h-1.5s-.1-.1-.1-.1h0c0-.1,0-.3,0-.3v-1.6s.1-.1.1-.1h.1c0,0,.2-.1.2-.1h1.3Z"/>
  <path class="cls-1" d="M135.3,140h.2s.1.1.1.1h0c0,.1,0,.3,0,.3v1.6s-.1.1-.1.1h-.1c0,0-.2.1-.2.1h-1.5s-.1-.1-.1-.1h0c0-.1,0-.3,0-.3v-1.6s.1-.1.1-.1h.1c0,0,.2-.1.2-.1h1.3Z"/>
  <path class="cls-2" d="M207,112.2v-1c0,0-.3-1-.3-1l-.4-.9-.6-.8-.7-.7-.8-.6-.9-.4-1-.3h-1c0,0-114.7,0-114.7,0h-1c0,0-1,.3-1,.3l-.9.4-.8.6-.7.7-.6.8-.4.9-.3,1v1c0,0,0,63.5,0,63.5v1c0,0,.3,1,.3,1l.4.9.6.8.7.7.8.6.9.4,1,.3h1c0,0,114.7,0,114.7,0h1c0,0,1-.3,1-.3l.9-.4.8-.6.7-.7.6-.8.4-.9.3-1v-1c0,0,0-63.5,0-63.5Z"/>
  <path class="cls-2" d="M207,112.2v-1c0,0-.3-1-.3-1l-.4-.9-.6-.8-.7-.7-.8-.6-.9-.4-1-.3h-1c0,0-114.7,0-114.7,0h-1c0,0-1,.3-1,.3l-.9.4-.8.6-.7.7-.6.8-.4.9-.3,1v1c0,0,0,63.5,0,63.5v1c0,0,.3,1,.3,1l.4.9.6.8.7.7.8.6.9.4,1,.3h1c0,0,114.7,0,114.7,0h1c0,0,1-.3,1-.3l.9-.4.8-.6.7-.7.6-.8.4-.9.3-1v-1c0,0,0-63.5,0-63.5Z"/>
  <rect class="cls-3" x="9" y="34.6" width="270" height="218.9"/>
</svg>