<?xml version="1.0" standalone="no"?>
 <!DOCTYPE svg PUBLIC "-//W3C//DTD SVG 1.1//EN" 
 "http://www.w3.org/Graphics/SVG/1.1/DTD/svg11.dtd"> 
<svg
  xmlns:svg="http://www.w3.org/2000/svg"
  xmlns="http://www.w3.org/2000/svg"
  xmlns:xlink="http://www.w3.org/1999/xlink"
  version="1.1"
  width="297.0022mm" height="210.0072mm" viewBox="0.0000 0.0000 297.0022 210.0072">
<title>SVG Image created as Aero_PDB-F_Paste.svg date 2024/04/26 20:14:50 </title>
  <desc>Image generated by PCBNEW </desc>
<g style="fill:#000000; fill-opacity:1.0000;stroke:#000000; stroke-opacity:1.0000;
stroke-linecap:round; stroke-linejoin:round;"
 transform="translate(0 0) scale(1 1)">
</g>
<g style="fill:#000000; fill-opacity:0.0; 
stroke:#000000; stroke-width:0.0000; stroke-opacity:1; 
stroke-linecap:round; stroke-linejoin:round;">
<g >
</g>
<g >
</g>
<g >
</g>
<g >
</g>
<g >
</g>
<g style="fill:#000000; fill-opacity:0.0; 
stroke:#000000; stroke-width:0.0000; stroke-opacity:1; 
stroke-linecap:round; stroke-linejoin:round;">
</g>
<g style="fill:#000000; fill-opacity:0.0; 
stroke:#000000; stroke-width:0.0000; stroke-opacity:1; 
stroke-linecap:round; stroke-linejoin:round;">
</g>
<g style="fill:#000000; fill-opacity:1.0000; 
stroke:#000000; stroke-width:0.0000; stroke-opacity:1; 
stroke-linecap:round; stroke-linejoin:round;">
<path style="fill:#000000; fill-opacity:1.0000; 
stroke:#000000; stroke-width:0.0000; stroke-opacity:1; 
stroke-linecap:round; stroke-linejoin:round;fill-rule:evenodd;"
d="M 123.3068,129.5434
123.3068,129.1434
123.9968,129.1434
123.9968,129.5434
Z" /> 
<path style="fill:#000000; fill-opacity:1.0000; 
stroke:#000000; stroke-width:0.0000; stroke-opacity:1; 
stroke-linecap:round; stroke-linejoin:round;fill-rule:evenodd;"
d="M 124.7468,129.5434
124.7468,129.1434
125.4368,129.1434
125.4368,129.5434
Z" /> 
</g>
<g >
</g>
<g >
</g>
<g style="fill:#000000; fill-opacity:1.0000; 
stroke:#000000; stroke-width:0.0000; stroke-opacity:1; 
stroke-linecap:round; stroke-linejoin:round;">
<path style="fill:#000000; fill-opacity:1.0000; 
stroke:#000000; stroke-width:0.0000; stroke-opacity:1; 
stroke-linecap:round; stroke-linejoin:round;fill-rule:evenodd;"
d="M 119.2194,127.0808
119.2347,127.0042
119.2780,126.9393
119.3429,126.8960
119.4194,126.8808
119.8194,126.8808
119.8960,126.8960
119.9609,126.9393
120.0042,127.0042
120.0194,127.0808
120.0194,127.6308
120.0042,127.7073
119.9609,127.7722
119.8960,127.8155
119.8194,127.8308
119.4194,127.8308
119.3429,127.8155
119.2780,127.7722
119.2347,127.7073
119.2194,127.6308
Z" /> 
<path style="fill:#000000; fill-opacity:1.0000; 
stroke:#000000; stroke-width:0.0000; stroke-opacity:1; 
stroke-linecap:round; stroke-linejoin:round;fill-rule:evenodd;"
d="M 120.8694,127.0808
120.8847,127.0042
120.9280,126.9393
120.9929,126.8960
121.0694,126.8808
121.4694,126.8808
121.5460,126.8960
121.6109,126.9393
121.6542,127.0042
121.6694,127.0808
121.6694,127.6308
121.6542,127.7073
121.6109,127.7722
121.5460,127.8155
121.4694,127.8308
121.0694,127.8308
120.9929,127.8155
120.9280,127.7722
120.8847,127.7073
120.8694,127.6308
Z" /> 
</g>
<g >
</g>
<g >
</g>
<g >
</g>
<g >
</g>
<g >
</g>
<g style="fill:#000000; fill-opacity:1.0000; 
stroke:#000000; stroke-width:0.0000; stroke-opacity:1; 
stroke-linecap:round; stroke-linejoin:round;">
<path style="fill:#000000; fill-opacity:1.0000; 
stroke:#000000; stroke-width:0.0000; stroke-opacity:1; 
stroke-linecap:round; stroke-linejoin:round;fill-rule:evenodd;"
d="M 125.0918,134.8298
123.7710,134.8298
123.7710,134.2710
125.0918,134.2710
Z" /> 
<path style="fill:#000000; fill-opacity:1.0000; 
stroke:#000000; stroke-width:0.0000; stroke-opacity:1; 
stroke-linecap:round; stroke-linejoin:round;fill-rule:evenodd;"
d="M 125.0918,132.9248
123.7710,132.9248
123.7710,132.3660
125.0918,132.3660
Z" /> 
<path style="fill:#000000; fill-opacity:1.0000; 
stroke:#000000; stroke-width:0.0000; stroke-opacity:1; 
stroke-linecap:round; stroke-linejoin:round;fill-rule:evenodd;"
d="M 123.0598,133.8773
121.7390,133.8773
121.7390,133.3185
123.0598,133.3185
Z" /> 
</g>
<g >
</g>
<g >
</g>
<g style="fill:#000000; fill-opacity:1.0000; 
stroke:#000000; stroke-width:0.0000; stroke-opacity:1; 
stroke-linecap:round; stroke-linejoin:round;">
<path style="fill:#000000; fill-opacity:1.0000; 
stroke:#000000; stroke-width:0.0000; stroke-opacity:1; 
stroke-linecap:round; stroke-linejoin:round;fill-rule:evenodd;"
d="M 123.0032,130.5924
123.0185,130.5158
123.0618,130.4509
123.1267,130.4076
123.2032,130.3924
123.6032,130.3924
123.6798,130.4076
123.7447,130.4509
123.7880,130.5158
123.8032,130.5924
123.8032,131.1424
123.7880,131.2189
123.7447,131.2838
123.6798,131.3271
123.6032,131.3424
123.2032,131.3424
123.1267,131.3271
123.0618,131.2838
123.0185,131.2189
123.0032,131.1424
Z" /> 
<path style="fill:#000000; fill-opacity:1.0000; 
stroke:#000000; stroke-width:0.0000; stroke-opacity:1; 
stroke-linecap:round; stroke-linejoin:round;fill-rule:evenodd;"
d="M 124.6532,130.5924
124.6685,130.5158
124.7118,130.4509
124.7767,130.4076
124.8532,130.3924
125.2532,130.3924
125.3298,130.4076
125.3947,130.4509
125.4380,130.5158
125.4532,130.5924
125.4532,131.1424
125.4380,131.2189
125.3947,131.2838
125.3298,131.3271
125.2532,131.3424
124.8532,131.3424
124.7767,131.3271
124.7118,131.2838
124.6685,131.2189
124.6532,131.1424
Z" /> 
</g>
<g >
</g>
<g >
</g>
<g style="fill:#000000; fill-opacity:1.0000; 
stroke:#000000; stroke-width:0.0000; stroke-opacity:1; 
stroke-linecap:round; stroke-linejoin:round;">
<path style="fill:#000000; fill-opacity:1.0000; 
stroke:#000000; stroke-width:0.0000; stroke-opacity:1; 
stroke-linecap:round; stroke-linejoin:round;fill-rule:evenodd;"
d="M 121.8279,130.1816
121.8279,131.5024
121.2691,131.5024
121.2691,130.1816
Z" /> 
<path style="fill:#000000; fill-opacity:1.0000; 
stroke:#000000; stroke-width:0.0000; stroke-opacity:1; 
stroke-linecap:round; stroke-linejoin:round;fill-rule:evenodd;"
d="M 119.9229,130.1816
119.9229,131.5024
119.3641,131.5024
119.3641,130.1816
Z" /> 
<path style="fill:#000000; fill-opacity:1.0000; 
stroke:#000000; stroke-width:0.0000; stroke-opacity:1; 
stroke-linecap:round; stroke-linejoin:round;fill-rule:evenodd;"
d="M 120.8754,132.2136
120.8754,133.5344
120.3166,133.5344
120.3166,132.2136
Z" /> 
</g>
<g >
</g>
<g >
</g>
<g >
</g>
<g >
</g>
<g >
</g>
<g >
</g>
<g style="fill:#000000; fill-opacity:1.0000; 
stroke:#000000; stroke-width:0.0000; stroke-opacity:1; 
stroke-linecap:round; stroke-linejoin:round;">
<path style="fill:#000000; fill-opacity:1.0000; 
stroke:#000000; stroke-width:0.0000; stroke-opacity:1; 
stroke-linecap:round; stroke-linejoin:round;fill-rule:evenodd;"
d="M 119.2318,128.7128
119.2471,128.6362
119.2904,128.5713
119.3553,128.5280
119.4318,128.5128
119.8318,128.5128
119.9084,128.5280
119.9733,128.5713
120.0166,128.6362
120.0318,128.7128
120.0318,129.2628
120.0166,129.3393
119.9733,129.4042
119.9084,129.4475
119.8318,129.4628
119.4318,129.4628
119.3553,129.4475
119.2904,129.4042
119.2471,129.3393
119.2318,129.2628
Z" /> 
<path style="fill:#000000; fill-opacity:1.0000; 
stroke:#000000; stroke-width:0.0000; stroke-opacity:1; 
stroke-linecap:round; stroke-linejoin:round;fill-rule:evenodd;"
d="M 120.8818,128.7128
120.8971,128.6362
120.9404,128.5713
121.0053,128.5280
121.0818,128.5128
121.4818,128.5128
121.5584,128.5280
121.6233,128.5713
121.6666,128.6362
121.6818,128.7128
121.6818,129.2628
121.6666,129.3393
121.6233,129.4042
121.5584,129.4475
121.4818,129.4628
121.0818,129.4628
121.0053,129.4475
120.9404,129.4042
120.8971,129.3393
120.8818,129.2628
Z" /> 
</g>
<g >
</g>
<g >
</g>
<g >
</g>
<g >
</g>
<g >
</g>
<g >
</g>
<g >
</g>
<g >
</g>
<g >
</g>
</g> 
</svg>
