G04 #@! TF.GenerationSoftware,KiCad,Pcbnew,7.0.10*
G04 #@! TF.CreationDate,2024-04-26T20:14:14-04:00*
G04 #@! TF.ProjectId,Aero_PDB,4165726f-5f50-4444-922e-6b696361645f,rev?*
G04 #@! TF.SameCoordinates,Original*
G04 #@! TF.FileFunction,Profile,NP*
%FSLAX46Y46*%
G04 Gerber Fmt 4.6, Leading zero omitted, Abs format (unit mm)*
G04 Created by KiCad (PCBNEW 7.0.10) date 2024-04-26 20:14:14*
%MOMM*%
%LPD*%
G01*
G04 APERTURE LIST*
G04 #@! TA.AperFunction,Profile*
%ADD10C,0.100000*%
G04 #@! TD*
G04 APERTURE END LIST*
D10*
X59893200Y-53451000D02*
X59893200Y-141367000D01*
X131537200Y-77419200D02*
G75*
G03*
X132537200Y-76419200I0J1000000D01*
G01*
X122758200Y-94504000D02*
G75*
G03*
X123758200Y-95504000I1000000J0D01*
G01*
X131537200Y-115722400D02*
X126984000Y-115722400D01*
X132537200Y-116722400D02*
G75*
G03*
X131537200Y-115722400I-1000000J0D01*
G01*
X123758200Y-95504000D02*
X124984000Y-95504000D01*
X122758200Y-94504000D02*
X122758200Y-78419200D01*
X123758200Y-77419200D02*
G75*
G03*
X122758200Y-78419200I0J-1000000D01*
G01*
X60893200Y-142367000D02*
X131537200Y-142367000D01*
X131537200Y-52451000D02*
X60893200Y-52451000D01*
X60893200Y-52451000D02*
G75*
G03*
X59893200Y-53451000I0J-1000000D01*
G01*
X125984000Y-114722400D02*
G75*
G03*
X126984000Y-115722400I1000000J0D01*
G01*
X125984000Y-96504000D02*
G75*
G03*
X124984000Y-95504000I-1000000J0D01*
G01*
X132537200Y-53451000D02*
G75*
G03*
X131537200Y-52451000I-1000000J0D01*
G01*
X125984000Y-114722400D02*
X125984000Y-96504000D01*
X123758200Y-77419200D02*
X131537200Y-77419200D01*
X132537200Y-141367000D02*
X132537200Y-116722400D01*
X59893200Y-141367000D02*
G75*
G03*
X60893200Y-142367000I1000000J0D01*
G01*
X132537200Y-76419200D02*
X132537200Y-53451000D01*
X131537200Y-142367000D02*
G75*
G03*
X132537200Y-141367000I0J1000000D01*
G01*
M02*
