<?xml version="1.0" standalone="no"?>
 <!DOCTYPE svg PUBLIC "-//W3C//DTD SVG 1.1//EN" 
 "http://www.w3.org/Graphics/SVG/1.1/DTD/svg11.dtd"> 
<svg
  xmlns:svg="http://www.w3.org/2000/svg"
  xmlns="http://www.w3.org/2000/svg"
  xmlns:xlink="http://www.w3.org/1999/xlink"
  version="1.1"
  width="297.0022mm" height="210.0072mm" viewBox="0.0000 0.0000 297.0022 210.0072">
<title>SVG Image created as Aero_PDB-Edge_Cuts.svg date 2024/04/26 20:14:50 </title>
  <desc>Image generated by PCBNEW </desc>
<g style="fill:#000000; fill-opacity:1.0000;stroke:#000000; stroke-opacity:1.0000;
stroke-linecap:round; stroke-linejoin:round;"
 transform="translate(0 0) scale(1 1)">
</g>
<g style="fill:#000000; fill-opacity:0.0; 
stroke:#000000; stroke-width:0.0000; stroke-opacity:1; 
stroke-linecap:round; stroke-linejoin:round;">
</g>
<g style="fill:#000000; fill-opacity:0.0; 
stroke:#000000; stroke-width:0.1000; stroke-opacity:1; 
stroke-linecap:round; stroke-linejoin:round;">
<path d="M59.8932 53.4510
L59.8932 141.3670
" />
<path d="M131.5372 77.4192 A1.0000 1.0000 0.0 0 0 132.5372 76.4192" />
<path d="M122.7582 94.5040 A1.0000 1.0000 0.0 0 0 123.7582 95.5040" />
<path d="M131.5372 115.7224
L126.9840 115.7224
" />
<path d="M132.5372 116.7224 A1.0000 1.0000 0.0 0 0 131.5372 115.7224" />
<path d="M123.7582 95.5040
L124.9840 95.5040
" />
<path d="M122.7582 94.5040
L122.7582 78.4192
" />
<path d="M123.7582 77.4192 A1.0000 1.0000 0.0 0 0 122.7582 78.4192" />
<path d="M60.8932 142.3670
L131.5372 142.3670
" />
<path d="M131.5372 52.4510
L60.8932 52.4510
" />
<path d="M60.8932 52.4510 A1.0000 1.0000 0.0 0 0 59.8932 53.4510" />
<path d="M125.9840 114.7224 A1.0000 1.0000 0.0 0 0 126.9840 115.7224" />
<path d="M125.9840 96.5040 A1.0000 1.0000 0.0 0 0 124.9840 95.5040" />
<path d="M132.5372 53.4510 A1.0000 1.0000 0.0 0 0 131.5372 52.4510" />
<path d="M125.9840 114.7224
L125.9840 96.5040
" />
<path d="M123.7582 77.4192
L131.5372 77.4192
" />
<path d="M132.5372 141.3670
L132.5372 116.7224
" />
<path d="M59.8932 141.3670 A1.0000 1.0000 0.0 0 0 60.8932 142.3670" />
<path d="M132.5372 76.4192
L132.5372 53.4510
" />
<path d="M131.5372 142.3670 A1.0000 1.0000 0.0 0 0 132.5372 141.3670" />
<g >
</g>
<g >
</g>
<g >
</g>
<g >
</g>
<g >
</g>
<g >
</g>
<g >
</g>
<g >
</g>
<g >
</g>
<g >
</g>
<g >
</g>
<g >
</g>
<g >
</g>
<g >
</g>
<g >
</g>
<g >
</g>
<g >
</g>
<g >
</g>
<g >
</g>
<g >
</g>
<g >
</g>
<g >
</g>
<g >
</g>
<g >
</g>
<g >
</g>
<g >
</g>
<g >
</g>
<g >
</g>
<g >
</g>
<g >
</g>
<g >
</g>
</g> 
</svg>
