G04 #@! TF.GenerationSoftware,KiCad,Pcbnew,7.0.8*
G04 #@! TF.CreationDate,2024-04-19T19:44:49-04:00*
G04 #@! TF.ProjectId,Aero_PDB,4165726f-5f50-4444-922e-6b696361645f,rev?*
G04 #@! TF.SameCoordinates,Original*
G04 #@! TF.FileFunction,Legend,Bot*
G04 #@! TF.FilePolarity,Positive*
%FSLAX46Y46*%
G04 Gerber Fmt 4.6, Leading zero omitted, Abs format (unit mm)*
G04 Created by KiCad (PCBNEW 7.0.8) date 2024-04-19 19:44:49*
%MOMM*%
%LPD*%
G01*
G04 APERTURE LIST*
G04 Aperture macros list*
%AMRoundRect*
0 Rectangle with rounded corners*
0 $1 Rounding radius*
0 $2 $3 $4 $5 $6 $7 $8 $9 X,Y pos of 4 corners*
0 Add a 4 corners polygon primitive as box body*
4,1,4,$2,$3,$4,$5,$6,$7,$8,$9,$2,$3,0*
0 Add four circle primitives for the rounded corners*
1,1,$1+$1,$2,$3*
1,1,$1+$1,$4,$5*
1,1,$1+$1,$6,$7*
1,1,$1+$1,$8,$9*
0 Add four rect primitives between the rounded corners*
20,1,$1+$1,$2,$3,$4,$5,0*
20,1,$1+$1,$4,$5,$6,$7,0*
20,1,$1+$1,$6,$7,$8,$9,0*
20,1,$1+$1,$8,$9,$2,$3,0*%
G04 Aperture macros list end*
%ADD10C,0.150000*%
%ADD11C,0.120000*%
%ADD12R,2.540000X2.540000*%
%ADD13C,2.540000*%
%ADD14R,1.700000X1.700000*%
%ADD15O,1.700000X1.700000*%
%ADD16R,5.000000X3.500000*%
%ADD17O,4.604000X2.404000*%
%ADD18O,4.204000X2.204000*%
%ADD19O,2.204000X4.204000*%
%ADD20RoundRect,0.102000X0.714000X-0.714000X0.714000X0.714000X-0.714000X0.714000X-0.714000X-0.714000X0*%
%ADD21C,1.632000*%
%ADD22C,3.480000*%
%ADD23RoundRect,0.250000X0.750000X-0.600000X0.750000X0.600000X-0.750000X0.600000X-0.750000X-0.600000X0*%
%ADD24O,2.000000X1.700000*%
%ADD25RoundRect,0.102000X0.685000X-0.685000X0.685000X0.685000X-0.685000X0.685000X-0.685000X-0.685000X0*%
%ADD26C,1.574000*%
%ADD27RoundRect,0.250000X0.725000X-0.600000X0.725000X0.600000X-0.725000X0.600000X-0.725000X-0.600000X0*%
%ADD28O,1.950000X1.700000*%
%ADD29C,3.920000*%
%ADD30O,2.804000X1.504000*%
G04 APERTURE END LIST*
D10*
X119636828Y-77743999D02*
X118136828Y-77743999D01*
X118136828Y-77743999D02*
X118136828Y-78315428D01*
X118136828Y-78315428D02*
X118208257Y-78458285D01*
X118208257Y-78458285D02*
X118279685Y-78529714D01*
X118279685Y-78529714D02*
X118422542Y-78601142D01*
X118422542Y-78601142D02*
X118636828Y-78601142D01*
X118636828Y-78601142D02*
X118779685Y-78529714D01*
X118779685Y-78529714D02*
X118851114Y-78458285D01*
X118851114Y-78458285D02*
X118922542Y-78315428D01*
X118922542Y-78315428D02*
X118922542Y-77743999D01*
X119636828Y-79458285D02*
X119565400Y-79315428D01*
X119565400Y-79315428D02*
X119493971Y-79243999D01*
X119493971Y-79243999D02*
X119351114Y-79172571D01*
X119351114Y-79172571D02*
X118922542Y-79172571D01*
X118922542Y-79172571D02*
X118779685Y-79243999D01*
X118779685Y-79243999D02*
X118708257Y-79315428D01*
X118708257Y-79315428D02*
X118636828Y-79458285D01*
X118636828Y-79458285D02*
X118636828Y-79672571D01*
X118636828Y-79672571D02*
X118708257Y-79815428D01*
X118708257Y-79815428D02*
X118779685Y-79886857D01*
X118779685Y-79886857D02*
X118922542Y-79958285D01*
X118922542Y-79958285D02*
X119351114Y-79958285D01*
X119351114Y-79958285D02*
X119493971Y-79886857D01*
X119493971Y-79886857D02*
X119565400Y-79815428D01*
X119565400Y-79815428D02*
X119636828Y-79672571D01*
X119636828Y-79672571D02*
X119636828Y-79458285D01*
X118636828Y-80458285D02*
X119636828Y-80744000D01*
X119636828Y-80744000D02*
X118922542Y-81029714D01*
X118922542Y-81029714D02*
X119636828Y-81315428D01*
X119636828Y-81315428D02*
X118636828Y-81601142D01*
X119565400Y-82744000D02*
X119636828Y-82601143D01*
X119636828Y-82601143D02*
X119636828Y-82315429D01*
X119636828Y-82315429D02*
X119565400Y-82172571D01*
X119565400Y-82172571D02*
X119422542Y-82101143D01*
X119422542Y-82101143D02*
X118851114Y-82101143D01*
X118851114Y-82101143D02*
X118708257Y-82172571D01*
X118708257Y-82172571D02*
X118636828Y-82315429D01*
X118636828Y-82315429D02*
X118636828Y-82601143D01*
X118636828Y-82601143D02*
X118708257Y-82744000D01*
X118708257Y-82744000D02*
X118851114Y-82815429D01*
X118851114Y-82815429D02*
X118993971Y-82815429D01*
X118993971Y-82815429D02*
X119136828Y-82101143D01*
X119636828Y-83458285D02*
X118636828Y-83458285D01*
X118922542Y-83458285D02*
X118779685Y-83529714D01*
X118779685Y-83529714D02*
X118708257Y-83601143D01*
X118708257Y-83601143D02*
X118636828Y-83744000D01*
X118636828Y-83744000D02*
X118636828Y-83886857D01*
X119636828Y-85529713D02*
X118136828Y-85529713D01*
X118136828Y-85529713D02*
X118136828Y-85886856D01*
X118136828Y-85886856D02*
X118208257Y-86101142D01*
X118208257Y-86101142D02*
X118351114Y-86243999D01*
X118351114Y-86243999D02*
X118493971Y-86315428D01*
X118493971Y-86315428D02*
X118779685Y-86386856D01*
X118779685Y-86386856D02*
X118993971Y-86386856D01*
X118993971Y-86386856D02*
X119279685Y-86315428D01*
X119279685Y-86315428D02*
X119422542Y-86243999D01*
X119422542Y-86243999D02*
X119565400Y-86101142D01*
X119565400Y-86101142D02*
X119636828Y-85886856D01*
X119636828Y-85886856D02*
X119636828Y-85529713D01*
X119636828Y-87029713D02*
X118636828Y-87029713D01*
X118136828Y-87029713D02*
X118208257Y-86958285D01*
X118208257Y-86958285D02*
X118279685Y-87029713D01*
X118279685Y-87029713D02*
X118208257Y-87101142D01*
X118208257Y-87101142D02*
X118136828Y-87029713D01*
X118136828Y-87029713D02*
X118279685Y-87029713D01*
X119565400Y-87672571D02*
X119636828Y-87815428D01*
X119636828Y-87815428D02*
X119636828Y-88101142D01*
X119636828Y-88101142D02*
X119565400Y-88243999D01*
X119565400Y-88243999D02*
X119422542Y-88315428D01*
X119422542Y-88315428D02*
X119351114Y-88315428D01*
X119351114Y-88315428D02*
X119208257Y-88243999D01*
X119208257Y-88243999D02*
X119136828Y-88101142D01*
X119136828Y-88101142D02*
X119136828Y-87886857D01*
X119136828Y-87886857D02*
X119065400Y-87743999D01*
X119065400Y-87743999D02*
X118922542Y-87672571D01*
X118922542Y-87672571D02*
X118851114Y-87672571D01*
X118851114Y-87672571D02*
X118708257Y-87743999D01*
X118708257Y-87743999D02*
X118636828Y-87886857D01*
X118636828Y-87886857D02*
X118636828Y-88101142D01*
X118636828Y-88101142D02*
X118708257Y-88243999D01*
X118636828Y-88744000D02*
X118636828Y-89315428D01*
X118136828Y-88958285D02*
X119422542Y-88958285D01*
X119422542Y-88958285D02*
X119565400Y-89029714D01*
X119565400Y-89029714D02*
X119636828Y-89172571D01*
X119636828Y-89172571D02*
X119636828Y-89315428D01*
X119636828Y-89815428D02*
X118636828Y-89815428D01*
X118922542Y-89815428D02*
X118779685Y-89886857D01*
X118779685Y-89886857D02*
X118708257Y-89958286D01*
X118708257Y-89958286D02*
X118636828Y-90101143D01*
X118636828Y-90101143D02*
X118636828Y-90244000D01*
X119636828Y-90743999D02*
X118636828Y-90743999D01*
X118136828Y-90743999D02*
X118208257Y-90672571D01*
X118208257Y-90672571D02*
X118279685Y-90743999D01*
X118279685Y-90743999D02*
X118208257Y-90815428D01*
X118208257Y-90815428D02*
X118136828Y-90743999D01*
X118136828Y-90743999D02*
X118279685Y-90743999D01*
X119636828Y-91458285D02*
X118136828Y-91458285D01*
X118708257Y-91458285D02*
X118636828Y-91601143D01*
X118636828Y-91601143D02*
X118636828Y-91886857D01*
X118636828Y-91886857D02*
X118708257Y-92029714D01*
X118708257Y-92029714D02*
X118779685Y-92101143D01*
X118779685Y-92101143D02*
X118922542Y-92172571D01*
X118922542Y-92172571D02*
X119351114Y-92172571D01*
X119351114Y-92172571D02*
X119493971Y-92101143D01*
X119493971Y-92101143D02*
X119565400Y-92029714D01*
X119565400Y-92029714D02*
X119636828Y-91886857D01*
X119636828Y-91886857D02*
X119636828Y-91601143D01*
X119636828Y-91601143D02*
X119565400Y-91458285D01*
X118636828Y-93458286D02*
X119636828Y-93458286D01*
X118636828Y-92815428D02*
X119422542Y-92815428D01*
X119422542Y-92815428D02*
X119565400Y-92886857D01*
X119565400Y-92886857D02*
X119636828Y-93029714D01*
X119636828Y-93029714D02*
X119636828Y-93244000D01*
X119636828Y-93244000D02*
X119565400Y-93386857D01*
X119565400Y-93386857D02*
X119493971Y-93458286D01*
X118636828Y-93958286D02*
X118636828Y-94529714D01*
X118136828Y-94172571D02*
X119422542Y-94172571D01*
X119422542Y-94172571D02*
X119565400Y-94244000D01*
X119565400Y-94244000D02*
X119636828Y-94386857D01*
X119636828Y-94386857D02*
X119636828Y-94529714D01*
X119636828Y-95029714D02*
X118636828Y-95029714D01*
X118136828Y-95029714D02*
X118208257Y-94958286D01*
X118208257Y-94958286D02*
X118279685Y-95029714D01*
X118279685Y-95029714D02*
X118208257Y-95101143D01*
X118208257Y-95101143D02*
X118136828Y-95029714D01*
X118136828Y-95029714D02*
X118279685Y-95029714D01*
X119636828Y-95958286D02*
X119565400Y-95815429D01*
X119565400Y-95815429D02*
X119493971Y-95744000D01*
X119493971Y-95744000D02*
X119351114Y-95672572D01*
X119351114Y-95672572D02*
X118922542Y-95672572D01*
X118922542Y-95672572D02*
X118779685Y-95744000D01*
X118779685Y-95744000D02*
X118708257Y-95815429D01*
X118708257Y-95815429D02*
X118636828Y-95958286D01*
X118636828Y-95958286D02*
X118636828Y-96172572D01*
X118636828Y-96172572D02*
X118708257Y-96315429D01*
X118708257Y-96315429D02*
X118779685Y-96386858D01*
X118779685Y-96386858D02*
X118922542Y-96458286D01*
X118922542Y-96458286D02*
X119351114Y-96458286D01*
X119351114Y-96458286D02*
X119493971Y-96386858D01*
X119493971Y-96386858D02*
X119565400Y-96315429D01*
X119565400Y-96315429D02*
X119636828Y-96172572D01*
X119636828Y-96172572D02*
X119636828Y-95958286D01*
X118636828Y-97101143D02*
X119636828Y-97101143D01*
X118779685Y-97101143D02*
X118708257Y-97172572D01*
X118708257Y-97172572D02*
X118636828Y-97315429D01*
X118636828Y-97315429D02*
X118636828Y-97529715D01*
X118636828Y-97529715D02*
X118708257Y-97672572D01*
X118708257Y-97672572D02*
X118851114Y-97744001D01*
X118851114Y-97744001D02*
X119636828Y-97744001D01*
X118851114Y-100101143D02*
X118922542Y-100315429D01*
X118922542Y-100315429D02*
X118993971Y-100386858D01*
X118993971Y-100386858D02*
X119136828Y-100458286D01*
X119136828Y-100458286D02*
X119351114Y-100458286D01*
X119351114Y-100458286D02*
X119493971Y-100386858D01*
X119493971Y-100386858D02*
X119565400Y-100315429D01*
X119565400Y-100315429D02*
X119636828Y-100172572D01*
X119636828Y-100172572D02*
X119636828Y-99601143D01*
X119636828Y-99601143D02*
X118136828Y-99601143D01*
X118136828Y-99601143D02*
X118136828Y-100101143D01*
X118136828Y-100101143D02*
X118208257Y-100244001D01*
X118208257Y-100244001D02*
X118279685Y-100315429D01*
X118279685Y-100315429D02*
X118422542Y-100386858D01*
X118422542Y-100386858D02*
X118565400Y-100386858D01*
X118565400Y-100386858D02*
X118708257Y-100315429D01*
X118708257Y-100315429D02*
X118779685Y-100244001D01*
X118779685Y-100244001D02*
X118851114Y-100101143D01*
X118851114Y-100101143D02*
X118851114Y-99601143D01*
X119636828Y-101315429D02*
X119565400Y-101172572D01*
X119565400Y-101172572D02*
X119493971Y-101101143D01*
X119493971Y-101101143D02*
X119351114Y-101029715D01*
X119351114Y-101029715D02*
X118922542Y-101029715D01*
X118922542Y-101029715D02*
X118779685Y-101101143D01*
X118779685Y-101101143D02*
X118708257Y-101172572D01*
X118708257Y-101172572D02*
X118636828Y-101315429D01*
X118636828Y-101315429D02*
X118636828Y-101529715D01*
X118636828Y-101529715D02*
X118708257Y-101672572D01*
X118708257Y-101672572D02*
X118779685Y-101744001D01*
X118779685Y-101744001D02*
X118922542Y-101815429D01*
X118922542Y-101815429D02*
X119351114Y-101815429D01*
X119351114Y-101815429D02*
X119493971Y-101744001D01*
X119493971Y-101744001D02*
X119565400Y-101672572D01*
X119565400Y-101672572D02*
X119636828Y-101529715D01*
X119636828Y-101529715D02*
X119636828Y-101315429D01*
X119636828Y-103101144D02*
X118851114Y-103101144D01*
X118851114Y-103101144D02*
X118708257Y-103029715D01*
X118708257Y-103029715D02*
X118636828Y-102886858D01*
X118636828Y-102886858D02*
X118636828Y-102601144D01*
X118636828Y-102601144D02*
X118708257Y-102458286D01*
X119565400Y-103101144D02*
X119636828Y-102958286D01*
X119636828Y-102958286D02*
X119636828Y-102601144D01*
X119636828Y-102601144D02*
X119565400Y-102458286D01*
X119565400Y-102458286D02*
X119422542Y-102386858D01*
X119422542Y-102386858D02*
X119279685Y-102386858D01*
X119279685Y-102386858D02*
X119136828Y-102458286D01*
X119136828Y-102458286D02*
X119065400Y-102601144D01*
X119065400Y-102601144D02*
X119065400Y-102958286D01*
X119065400Y-102958286D02*
X118993971Y-103101144D01*
X119636828Y-103815429D02*
X118636828Y-103815429D01*
X118922542Y-103815429D02*
X118779685Y-103886858D01*
X118779685Y-103886858D02*
X118708257Y-103958287D01*
X118708257Y-103958287D02*
X118636828Y-104101144D01*
X118636828Y-104101144D02*
X118636828Y-104244001D01*
X119636828Y-105386858D02*
X118136828Y-105386858D01*
X119565400Y-105386858D02*
X119636828Y-105244000D01*
X119636828Y-105244000D02*
X119636828Y-104958286D01*
X119636828Y-104958286D02*
X119565400Y-104815429D01*
X119565400Y-104815429D02*
X119493971Y-104744000D01*
X119493971Y-104744000D02*
X119351114Y-104672572D01*
X119351114Y-104672572D02*
X118922542Y-104672572D01*
X118922542Y-104672572D02*
X118779685Y-104744000D01*
X118779685Y-104744000D02*
X118708257Y-104815429D01*
X118708257Y-104815429D02*
X118636828Y-104958286D01*
X118636828Y-104958286D02*
X118636828Y-105244000D01*
X118636828Y-105244000D02*
X118708257Y-105386858D01*
X118136828Y-107029715D02*
X119636828Y-107529715D01*
X119636828Y-107529715D02*
X118136828Y-108029715D01*
X119636828Y-109315429D02*
X119636828Y-108458286D01*
X119636828Y-108886857D02*
X118136828Y-108886857D01*
X118136828Y-108886857D02*
X118351114Y-108744000D01*
X118351114Y-108744000D02*
X118493971Y-108601143D01*
X118493971Y-108601143D02*
X118565400Y-108458286D01*
X120551828Y-86851144D02*
X120551828Y-86994001D01*
X120551828Y-86994001D02*
X120623257Y-87136858D01*
X120623257Y-87136858D02*
X120694685Y-87208287D01*
X120694685Y-87208287D02*
X120837542Y-87279715D01*
X120837542Y-87279715D02*
X121123257Y-87351144D01*
X121123257Y-87351144D02*
X121480400Y-87351144D01*
X121480400Y-87351144D02*
X121766114Y-87279715D01*
X121766114Y-87279715D02*
X121908971Y-87208287D01*
X121908971Y-87208287D02*
X121980400Y-87136858D01*
X121980400Y-87136858D02*
X122051828Y-86994001D01*
X122051828Y-86994001D02*
X122051828Y-86851144D01*
X122051828Y-86851144D02*
X121980400Y-86708287D01*
X121980400Y-86708287D02*
X121908971Y-86636858D01*
X121908971Y-86636858D02*
X121766114Y-86565429D01*
X121766114Y-86565429D02*
X121480400Y-86494001D01*
X121480400Y-86494001D02*
X121123257Y-86494001D01*
X121123257Y-86494001D02*
X120837542Y-86565429D01*
X120837542Y-86565429D02*
X120694685Y-86636858D01*
X120694685Y-86636858D02*
X120623257Y-86708287D01*
X120623257Y-86708287D02*
X120551828Y-86851144D01*
X121051828Y-88636858D02*
X122051828Y-88636858D01*
X120480400Y-88279715D02*
X121551828Y-87922572D01*
X121551828Y-87922572D02*
X121551828Y-88851143D01*
X120480400Y-90494000D02*
X122408971Y-89208286D01*
X122051828Y-91779715D02*
X122051828Y-90922572D01*
X122051828Y-91351143D02*
X120551828Y-91351143D01*
X120551828Y-91351143D02*
X120766114Y-91208286D01*
X120766114Y-91208286D02*
X120908971Y-91065429D01*
X120908971Y-91065429D02*
X120980400Y-90922572D01*
X122051828Y-92494000D02*
X122051828Y-92779714D01*
X122051828Y-92779714D02*
X121980400Y-92922571D01*
X121980400Y-92922571D02*
X121908971Y-92994000D01*
X121908971Y-92994000D02*
X121694685Y-93136857D01*
X121694685Y-93136857D02*
X121408971Y-93208286D01*
X121408971Y-93208286D02*
X120837542Y-93208286D01*
X120837542Y-93208286D02*
X120694685Y-93136857D01*
X120694685Y-93136857D02*
X120623257Y-93065429D01*
X120623257Y-93065429D02*
X120551828Y-92922571D01*
X120551828Y-92922571D02*
X120551828Y-92636857D01*
X120551828Y-92636857D02*
X120623257Y-92494000D01*
X120623257Y-92494000D02*
X120694685Y-92422571D01*
X120694685Y-92422571D02*
X120837542Y-92351143D01*
X120837542Y-92351143D02*
X121194685Y-92351143D01*
X121194685Y-92351143D02*
X121337542Y-92422571D01*
X121337542Y-92422571D02*
X121408971Y-92494000D01*
X121408971Y-92494000D02*
X121480400Y-92636857D01*
X121480400Y-92636857D02*
X121480400Y-92922571D01*
X121480400Y-92922571D02*
X121408971Y-93065429D01*
X121408971Y-93065429D02*
X121337542Y-93136857D01*
X121337542Y-93136857D02*
X121194685Y-93208286D01*
X120480400Y-94922571D02*
X122408971Y-93636857D01*
X120694685Y-95351143D02*
X120623257Y-95422571D01*
X120623257Y-95422571D02*
X120551828Y-95565429D01*
X120551828Y-95565429D02*
X120551828Y-95922571D01*
X120551828Y-95922571D02*
X120623257Y-96065429D01*
X120623257Y-96065429D02*
X120694685Y-96136857D01*
X120694685Y-96136857D02*
X120837542Y-96208286D01*
X120837542Y-96208286D02*
X120980400Y-96208286D01*
X120980400Y-96208286D02*
X121194685Y-96136857D01*
X121194685Y-96136857D02*
X122051828Y-95279714D01*
X122051828Y-95279714D02*
X122051828Y-96208286D01*
X120551828Y-97136857D02*
X120551828Y-97279714D01*
X120551828Y-97279714D02*
X120623257Y-97422571D01*
X120623257Y-97422571D02*
X120694685Y-97494000D01*
X120694685Y-97494000D02*
X120837542Y-97565428D01*
X120837542Y-97565428D02*
X121123257Y-97636857D01*
X121123257Y-97636857D02*
X121480400Y-97636857D01*
X121480400Y-97636857D02*
X121766114Y-97565428D01*
X121766114Y-97565428D02*
X121908971Y-97494000D01*
X121908971Y-97494000D02*
X121980400Y-97422571D01*
X121980400Y-97422571D02*
X122051828Y-97279714D01*
X122051828Y-97279714D02*
X122051828Y-97136857D01*
X122051828Y-97136857D02*
X121980400Y-96994000D01*
X121980400Y-96994000D02*
X121908971Y-96922571D01*
X121908971Y-96922571D02*
X121766114Y-96851142D01*
X121766114Y-96851142D02*
X121480400Y-96779714D01*
X121480400Y-96779714D02*
X121123257Y-96779714D01*
X121123257Y-96779714D02*
X120837542Y-96851142D01*
X120837542Y-96851142D02*
X120694685Y-96922571D01*
X120694685Y-96922571D02*
X120623257Y-96994000D01*
X120623257Y-96994000D02*
X120551828Y-97136857D01*
X120694685Y-98208285D02*
X120623257Y-98279713D01*
X120623257Y-98279713D02*
X120551828Y-98422571D01*
X120551828Y-98422571D02*
X120551828Y-98779713D01*
X120551828Y-98779713D02*
X120623257Y-98922571D01*
X120623257Y-98922571D02*
X120694685Y-98993999D01*
X120694685Y-98993999D02*
X120837542Y-99065428D01*
X120837542Y-99065428D02*
X120980400Y-99065428D01*
X120980400Y-99065428D02*
X121194685Y-98993999D01*
X121194685Y-98993999D02*
X122051828Y-98136856D01*
X122051828Y-98136856D02*
X122051828Y-99065428D01*
X121051828Y-100351142D02*
X122051828Y-100351142D01*
X120480400Y-99993999D02*
X121551828Y-99636856D01*
X121551828Y-99636856D02*
X121551828Y-100565427D01*
X127171113Y-125643000D02*
X126956828Y-125714428D01*
X126956828Y-125714428D02*
X126599685Y-125714428D01*
X126599685Y-125714428D02*
X126456828Y-125643000D01*
X126456828Y-125643000D02*
X126385399Y-125571571D01*
X126385399Y-125571571D02*
X126313970Y-125428714D01*
X126313970Y-125428714D02*
X126313970Y-125285857D01*
X126313970Y-125285857D02*
X126385399Y-125143000D01*
X126385399Y-125143000D02*
X126456828Y-125071571D01*
X126456828Y-125071571D02*
X126599685Y-125000142D01*
X126599685Y-125000142D02*
X126885399Y-124928714D01*
X126885399Y-124928714D02*
X127028256Y-124857285D01*
X127028256Y-124857285D02*
X127099685Y-124785857D01*
X127099685Y-124785857D02*
X127171113Y-124643000D01*
X127171113Y-124643000D02*
X127171113Y-124500142D01*
X127171113Y-124500142D02*
X127099685Y-124357285D01*
X127099685Y-124357285D02*
X127028256Y-124285857D01*
X127028256Y-124285857D02*
X126885399Y-124214428D01*
X126885399Y-124214428D02*
X126528256Y-124214428D01*
X126528256Y-124214428D02*
X126313970Y-124285857D01*
X125456828Y-125714428D02*
X125599685Y-125643000D01*
X125599685Y-125643000D02*
X125671114Y-125571571D01*
X125671114Y-125571571D02*
X125742542Y-125428714D01*
X125742542Y-125428714D02*
X125742542Y-125000142D01*
X125742542Y-125000142D02*
X125671114Y-124857285D01*
X125671114Y-124857285D02*
X125599685Y-124785857D01*
X125599685Y-124785857D02*
X125456828Y-124714428D01*
X125456828Y-124714428D02*
X125242542Y-124714428D01*
X125242542Y-124714428D02*
X125099685Y-124785857D01*
X125099685Y-124785857D02*
X125028257Y-124857285D01*
X125028257Y-124857285D02*
X124956828Y-125000142D01*
X124956828Y-125000142D02*
X124956828Y-125428714D01*
X124956828Y-125428714D02*
X125028257Y-125571571D01*
X125028257Y-125571571D02*
X125099685Y-125643000D01*
X125099685Y-125643000D02*
X125242542Y-125714428D01*
X125242542Y-125714428D02*
X125456828Y-125714428D01*
X124099685Y-125714428D02*
X124242542Y-125643000D01*
X124242542Y-125643000D02*
X124313971Y-125500142D01*
X124313971Y-125500142D02*
X124313971Y-124214428D01*
X123313971Y-125714428D02*
X123456828Y-125643000D01*
X123456828Y-125643000D02*
X123528257Y-125571571D01*
X123528257Y-125571571D02*
X123599685Y-125428714D01*
X123599685Y-125428714D02*
X123599685Y-125000142D01*
X123599685Y-125000142D02*
X123528257Y-124857285D01*
X123528257Y-124857285D02*
X123456828Y-124785857D01*
X123456828Y-124785857D02*
X123313971Y-124714428D01*
X123313971Y-124714428D02*
X123099685Y-124714428D01*
X123099685Y-124714428D02*
X122956828Y-124785857D01*
X122956828Y-124785857D02*
X122885400Y-124857285D01*
X122885400Y-124857285D02*
X122813971Y-125000142D01*
X122813971Y-125000142D02*
X122813971Y-125428714D01*
X122813971Y-125428714D02*
X122885400Y-125571571D01*
X122885400Y-125571571D02*
X122956828Y-125643000D01*
X122956828Y-125643000D02*
X123099685Y-125714428D01*
X123099685Y-125714428D02*
X123313971Y-125714428D01*
X122171114Y-125714428D02*
X122171114Y-124714428D01*
X122171114Y-124857285D02*
X122099685Y-124785857D01*
X122099685Y-124785857D02*
X121956828Y-124714428D01*
X121956828Y-124714428D02*
X121742542Y-124714428D01*
X121742542Y-124714428D02*
X121599685Y-124785857D01*
X121599685Y-124785857D02*
X121528257Y-124928714D01*
X121528257Y-124928714D02*
X121528257Y-125714428D01*
X121528257Y-124928714D02*
X121456828Y-124785857D01*
X121456828Y-124785857D02*
X121313971Y-124714428D01*
X121313971Y-124714428D02*
X121099685Y-124714428D01*
X121099685Y-124714428D02*
X120956828Y-124785857D01*
X120956828Y-124785857D02*
X120885399Y-124928714D01*
X120885399Y-124928714D02*
X120885399Y-125714428D01*
X120171114Y-125714428D02*
X120171114Y-124714428D01*
X120171114Y-124214428D02*
X120242542Y-124285857D01*
X120242542Y-124285857D02*
X120171114Y-124357285D01*
X120171114Y-124357285D02*
X120099685Y-124285857D01*
X120099685Y-124285857D02*
X120171114Y-124214428D01*
X120171114Y-124214428D02*
X120171114Y-124357285D01*
X119456828Y-125714428D02*
X119456828Y-124714428D01*
X119456828Y-124214428D02*
X119528256Y-124285857D01*
X119528256Y-124285857D02*
X119456828Y-124357285D01*
X119456828Y-124357285D02*
X119385399Y-124285857D01*
X119385399Y-124285857D02*
X119456828Y-124214428D01*
X119456828Y-124214428D02*
X119456828Y-124357285D01*
X118099685Y-125714428D02*
X118099685Y-124928714D01*
X118099685Y-124928714D02*
X118171113Y-124785857D01*
X118171113Y-124785857D02*
X118313970Y-124714428D01*
X118313970Y-124714428D02*
X118599685Y-124714428D01*
X118599685Y-124714428D02*
X118742542Y-124785857D01*
X118099685Y-125643000D02*
X118242542Y-125714428D01*
X118242542Y-125714428D02*
X118599685Y-125714428D01*
X118599685Y-125714428D02*
X118742542Y-125643000D01*
X118742542Y-125643000D02*
X118813970Y-125500142D01*
X118813970Y-125500142D02*
X118813970Y-125357285D01*
X118813970Y-125357285D02*
X118742542Y-125214428D01*
X118742542Y-125214428D02*
X118599685Y-125143000D01*
X118599685Y-125143000D02*
X118242542Y-125143000D01*
X118242542Y-125143000D02*
X118099685Y-125071571D01*
X116242542Y-125714428D02*
X116242542Y-124214428D01*
X115385399Y-125714428D02*
X116028256Y-124857285D01*
X115385399Y-124214428D02*
X116242542Y-125071571D01*
X114099685Y-125714428D02*
X114099685Y-124928714D01*
X114099685Y-124928714D02*
X114171113Y-124785857D01*
X114171113Y-124785857D02*
X114313970Y-124714428D01*
X114313970Y-124714428D02*
X114599685Y-124714428D01*
X114599685Y-124714428D02*
X114742542Y-124785857D01*
X114099685Y-125643000D02*
X114242542Y-125714428D01*
X114242542Y-125714428D02*
X114599685Y-125714428D01*
X114599685Y-125714428D02*
X114742542Y-125643000D01*
X114742542Y-125643000D02*
X114813970Y-125500142D01*
X114813970Y-125500142D02*
X114813970Y-125357285D01*
X114813970Y-125357285D02*
X114742542Y-125214428D01*
X114742542Y-125214428D02*
X114599685Y-125143000D01*
X114599685Y-125143000D02*
X114242542Y-125143000D01*
X114242542Y-125143000D02*
X114099685Y-125071571D01*
X112742542Y-125643000D02*
X112885399Y-125714428D01*
X112885399Y-125714428D02*
X113171113Y-125714428D01*
X113171113Y-125714428D02*
X113313970Y-125643000D01*
X113313970Y-125643000D02*
X113385399Y-125571571D01*
X113385399Y-125571571D02*
X113456827Y-125428714D01*
X113456827Y-125428714D02*
X113456827Y-125000142D01*
X113456827Y-125000142D02*
X113385399Y-124857285D01*
X113385399Y-124857285D02*
X113313970Y-124785857D01*
X113313970Y-124785857D02*
X113171113Y-124714428D01*
X113171113Y-124714428D02*
X112885399Y-124714428D01*
X112885399Y-124714428D02*
X112742542Y-124785857D01*
X112099685Y-125714428D02*
X112099685Y-124214428D01*
X111456828Y-125714428D02*
X111456828Y-124928714D01*
X111456828Y-124928714D02*
X111528256Y-124785857D01*
X111528256Y-124785857D02*
X111671113Y-124714428D01*
X111671113Y-124714428D02*
X111885399Y-124714428D01*
X111885399Y-124714428D02*
X112028256Y-124785857D01*
X112028256Y-124785857D02*
X112099685Y-124857285D01*
X110099685Y-124714428D02*
X110099685Y-125714428D01*
X110742542Y-124714428D02*
X110742542Y-125500142D01*
X110742542Y-125500142D02*
X110671113Y-125643000D01*
X110671113Y-125643000D02*
X110528256Y-125714428D01*
X110528256Y-125714428D02*
X110313970Y-125714428D01*
X110313970Y-125714428D02*
X110171113Y-125643000D01*
X110171113Y-125643000D02*
X110099685Y-125571571D01*
X109385399Y-125714428D02*
X109385399Y-124714428D01*
X109385399Y-125000142D02*
X109313970Y-124857285D01*
X109313970Y-124857285D02*
X109242542Y-124785857D01*
X109242542Y-124785857D02*
X109099684Y-124714428D01*
X109099684Y-124714428D02*
X108956827Y-124714428D01*
X123921113Y-127700857D02*
X123206828Y-127700857D01*
X124063970Y-128129428D02*
X123563970Y-126629428D01*
X123563970Y-126629428D02*
X123063970Y-128129428D01*
X122563971Y-128129428D02*
X122563971Y-127129428D01*
X122563971Y-127415142D02*
X122492542Y-127272285D01*
X122492542Y-127272285D02*
X122421114Y-127200857D01*
X122421114Y-127200857D02*
X122278256Y-127129428D01*
X122278256Y-127129428D02*
X122135399Y-127129428D01*
X121635400Y-128129428D02*
X121635400Y-127129428D01*
X121635400Y-126629428D02*
X121706828Y-126700857D01*
X121706828Y-126700857D02*
X121635400Y-126772285D01*
X121635400Y-126772285D02*
X121563971Y-126700857D01*
X121563971Y-126700857D02*
X121635400Y-126629428D01*
X121635400Y-126629428D02*
X121635400Y-126772285D01*
X119278257Y-127343714D02*
X119063971Y-127415142D01*
X119063971Y-127415142D02*
X118992542Y-127486571D01*
X118992542Y-127486571D02*
X118921114Y-127629428D01*
X118921114Y-127629428D02*
X118921114Y-127843714D01*
X118921114Y-127843714D02*
X118992542Y-127986571D01*
X118992542Y-127986571D02*
X119063971Y-128058000D01*
X119063971Y-128058000D02*
X119206828Y-128129428D01*
X119206828Y-128129428D02*
X119778257Y-128129428D01*
X119778257Y-128129428D02*
X119778257Y-126629428D01*
X119778257Y-126629428D02*
X119278257Y-126629428D01*
X119278257Y-126629428D02*
X119135400Y-126700857D01*
X119135400Y-126700857D02*
X119063971Y-126772285D01*
X119063971Y-126772285D02*
X118992542Y-126915142D01*
X118992542Y-126915142D02*
X118992542Y-127058000D01*
X118992542Y-127058000D02*
X119063971Y-127200857D01*
X119063971Y-127200857D02*
X119135400Y-127272285D01*
X119135400Y-127272285D02*
X119278257Y-127343714D01*
X119278257Y-127343714D02*
X119778257Y-127343714D01*
X118063971Y-128129428D02*
X118206828Y-128058000D01*
X118206828Y-128058000D02*
X118278257Y-127986571D01*
X118278257Y-127986571D02*
X118349685Y-127843714D01*
X118349685Y-127843714D02*
X118349685Y-127415142D01*
X118349685Y-127415142D02*
X118278257Y-127272285D01*
X118278257Y-127272285D02*
X118206828Y-127200857D01*
X118206828Y-127200857D02*
X118063971Y-127129428D01*
X118063971Y-127129428D02*
X117849685Y-127129428D01*
X117849685Y-127129428D02*
X117706828Y-127200857D01*
X117706828Y-127200857D02*
X117635400Y-127272285D01*
X117635400Y-127272285D02*
X117563971Y-127415142D01*
X117563971Y-127415142D02*
X117563971Y-127843714D01*
X117563971Y-127843714D02*
X117635400Y-127986571D01*
X117635400Y-127986571D02*
X117706828Y-128058000D01*
X117706828Y-128058000D02*
X117849685Y-128129428D01*
X117849685Y-128129428D02*
X118063971Y-128129428D01*
X116921114Y-128129428D02*
X116921114Y-126629428D01*
X116921114Y-127200857D02*
X116778257Y-127129428D01*
X116778257Y-127129428D02*
X116492542Y-127129428D01*
X116492542Y-127129428D02*
X116349685Y-127200857D01*
X116349685Y-127200857D02*
X116278257Y-127272285D01*
X116278257Y-127272285D02*
X116206828Y-127415142D01*
X116206828Y-127415142D02*
X116206828Y-127843714D01*
X116206828Y-127843714D02*
X116278257Y-127986571D01*
X116278257Y-127986571D02*
X116349685Y-128058000D01*
X116349685Y-128058000D02*
X116492542Y-128129428D01*
X116492542Y-128129428D02*
X116778257Y-128129428D01*
X116778257Y-128129428D02*
X116921114Y-128058000D01*
X114992542Y-128058000D02*
X115135399Y-128129428D01*
X115135399Y-128129428D02*
X115421114Y-128129428D01*
X115421114Y-128129428D02*
X115563971Y-128058000D01*
X115563971Y-128058000D02*
X115635399Y-127915142D01*
X115635399Y-127915142D02*
X115635399Y-127343714D01*
X115635399Y-127343714D02*
X115563971Y-127200857D01*
X115563971Y-127200857D02*
X115421114Y-127129428D01*
X115421114Y-127129428D02*
X115135399Y-127129428D01*
X115135399Y-127129428D02*
X114992542Y-127200857D01*
X114992542Y-127200857D02*
X114921114Y-127343714D01*
X114921114Y-127343714D02*
X114921114Y-127486571D01*
X114921114Y-127486571D02*
X115635399Y-127629428D01*
X114349685Y-128058000D02*
X114206828Y-128129428D01*
X114206828Y-128129428D02*
X113921114Y-128129428D01*
X113921114Y-128129428D02*
X113778257Y-128058000D01*
X113778257Y-128058000D02*
X113706828Y-127915142D01*
X113706828Y-127915142D02*
X113706828Y-127843714D01*
X113706828Y-127843714D02*
X113778257Y-127700857D01*
X113778257Y-127700857D02*
X113921114Y-127629428D01*
X113921114Y-127629428D02*
X114135400Y-127629428D01*
X114135400Y-127629428D02*
X114278257Y-127558000D01*
X114278257Y-127558000D02*
X114349685Y-127415142D01*
X114349685Y-127415142D02*
X114349685Y-127343714D01*
X114349685Y-127343714D02*
X114278257Y-127200857D01*
X114278257Y-127200857D02*
X114135400Y-127129428D01*
X114135400Y-127129428D02*
X113921114Y-127129428D01*
X113921114Y-127129428D02*
X113778257Y-127200857D01*
X113063971Y-128129428D02*
X113063971Y-126629428D01*
X112421114Y-128129428D02*
X112421114Y-127343714D01*
X112421114Y-127343714D02*
X112492542Y-127200857D01*
X112492542Y-127200857D02*
X112635399Y-127129428D01*
X112635399Y-127129428D02*
X112849685Y-127129428D01*
X112849685Y-127129428D02*
X112992542Y-127200857D01*
X112992542Y-127200857D02*
X113063971Y-127272285D01*
X62345219Y-86144314D02*
X63154742Y-86144314D01*
X63154742Y-86144314D02*
X63249980Y-86191933D01*
X63249980Y-86191933D02*
X63297600Y-86239552D01*
X63297600Y-86239552D02*
X63345219Y-86334790D01*
X63345219Y-86334790D02*
X63345219Y-86525266D01*
X63345219Y-86525266D02*
X63297600Y-86620504D01*
X63297600Y-86620504D02*
X63249980Y-86668123D01*
X63249980Y-86668123D02*
X63154742Y-86715742D01*
X63154742Y-86715742D02*
X62345219Y-86715742D01*
X63345219Y-87715742D02*
X63345219Y-87144314D01*
X63345219Y-87430028D02*
X62345219Y-87430028D01*
X62345219Y-87430028D02*
X62488076Y-87334790D01*
X62488076Y-87334790D02*
X62583314Y-87239552D01*
X62583314Y-87239552D02*
X62630933Y-87144314D01*
X62345219Y-88334790D02*
X62345219Y-88430028D01*
X62345219Y-88430028D02*
X62392838Y-88525266D01*
X62392838Y-88525266D02*
X62440457Y-88572885D01*
X62440457Y-88572885D02*
X62535695Y-88620504D01*
X62535695Y-88620504D02*
X62726171Y-88668123D01*
X62726171Y-88668123D02*
X62964266Y-88668123D01*
X62964266Y-88668123D02*
X63154742Y-88620504D01*
X63154742Y-88620504D02*
X63249980Y-88572885D01*
X63249980Y-88572885D02*
X63297600Y-88525266D01*
X63297600Y-88525266D02*
X63345219Y-88430028D01*
X63345219Y-88430028D02*
X63345219Y-88334790D01*
X63345219Y-88334790D02*
X63297600Y-88239552D01*
X63297600Y-88239552D02*
X63249980Y-88191933D01*
X63249980Y-88191933D02*
X63154742Y-88144314D01*
X63154742Y-88144314D02*
X62964266Y-88096695D01*
X62964266Y-88096695D02*
X62726171Y-88096695D01*
X62726171Y-88096695D02*
X62535695Y-88144314D01*
X62535695Y-88144314D02*
X62440457Y-88191933D01*
X62440457Y-88191933D02*
X62392838Y-88239552D01*
X62392838Y-88239552D02*
X62345219Y-88334790D01*
X62440457Y-89049076D02*
X62392838Y-89096695D01*
X62392838Y-89096695D02*
X62345219Y-89191933D01*
X62345219Y-89191933D02*
X62345219Y-89430028D01*
X62345219Y-89430028D02*
X62392838Y-89525266D01*
X62392838Y-89525266D02*
X62440457Y-89572885D01*
X62440457Y-89572885D02*
X62535695Y-89620504D01*
X62535695Y-89620504D02*
X62630933Y-89620504D01*
X62630933Y-89620504D02*
X62773790Y-89572885D01*
X62773790Y-89572885D02*
X63345219Y-89001457D01*
X63345219Y-89001457D02*
X63345219Y-89620504D01*
X62294419Y-108191514D02*
X63103942Y-108191514D01*
X63103942Y-108191514D02*
X63199180Y-108239133D01*
X63199180Y-108239133D02*
X63246800Y-108286752D01*
X63246800Y-108286752D02*
X63294419Y-108381990D01*
X63294419Y-108381990D02*
X63294419Y-108572466D01*
X63294419Y-108572466D02*
X63246800Y-108667704D01*
X63246800Y-108667704D02*
X63199180Y-108715323D01*
X63199180Y-108715323D02*
X63103942Y-108762942D01*
X63103942Y-108762942D02*
X62294419Y-108762942D01*
X63294419Y-109762942D02*
X63294419Y-109191514D01*
X63294419Y-109477228D02*
X62294419Y-109477228D01*
X62294419Y-109477228D02*
X62437276Y-109381990D01*
X62437276Y-109381990D02*
X62532514Y-109286752D01*
X62532514Y-109286752D02*
X62580133Y-109191514D01*
X62294419Y-110381990D02*
X62294419Y-110477228D01*
X62294419Y-110477228D02*
X62342038Y-110572466D01*
X62342038Y-110572466D02*
X62389657Y-110620085D01*
X62389657Y-110620085D02*
X62484895Y-110667704D01*
X62484895Y-110667704D02*
X62675371Y-110715323D01*
X62675371Y-110715323D02*
X62913466Y-110715323D01*
X62913466Y-110715323D02*
X63103942Y-110667704D01*
X63103942Y-110667704D02*
X63199180Y-110620085D01*
X63199180Y-110620085D02*
X63246800Y-110572466D01*
X63246800Y-110572466D02*
X63294419Y-110477228D01*
X63294419Y-110477228D02*
X63294419Y-110381990D01*
X63294419Y-110381990D02*
X63246800Y-110286752D01*
X63246800Y-110286752D02*
X63199180Y-110239133D01*
X63199180Y-110239133D02*
X63103942Y-110191514D01*
X63103942Y-110191514D02*
X62913466Y-110143895D01*
X62913466Y-110143895D02*
X62675371Y-110143895D01*
X62675371Y-110143895D02*
X62484895Y-110191514D01*
X62484895Y-110191514D02*
X62389657Y-110239133D01*
X62389657Y-110239133D02*
X62342038Y-110286752D01*
X62342038Y-110286752D02*
X62294419Y-110381990D01*
X62294419Y-111620085D02*
X62294419Y-111143895D01*
X62294419Y-111143895D02*
X62770609Y-111096276D01*
X62770609Y-111096276D02*
X62722990Y-111143895D01*
X62722990Y-111143895D02*
X62675371Y-111239133D01*
X62675371Y-111239133D02*
X62675371Y-111477228D01*
X62675371Y-111477228D02*
X62722990Y-111572466D01*
X62722990Y-111572466D02*
X62770609Y-111620085D01*
X62770609Y-111620085D02*
X62865847Y-111667704D01*
X62865847Y-111667704D02*
X63103942Y-111667704D01*
X63103942Y-111667704D02*
X63199180Y-111620085D01*
X63199180Y-111620085D02*
X63246800Y-111572466D01*
X63246800Y-111572466D02*
X63294419Y-111477228D01*
X63294419Y-111477228D02*
X63294419Y-111239133D01*
X63294419Y-111239133D02*
X63246800Y-111143895D01*
X63246800Y-111143895D02*
X63199180Y-111096276D01*
X73368819Y-61607914D02*
X74178342Y-61607914D01*
X74178342Y-61607914D02*
X74273580Y-61655533D01*
X74273580Y-61655533D02*
X74321200Y-61703152D01*
X74321200Y-61703152D02*
X74368819Y-61798390D01*
X74368819Y-61798390D02*
X74368819Y-61988866D01*
X74368819Y-61988866D02*
X74321200Y-62084104D01*
X74321200Y-62084104D02*
X74273580Y-62131723D01*
X74273580Y-62131723D02*
X74178342Y-62179342D01*
X74178342Y-62179342D02*
X73368819Y-62179342D01*
X74368819Y-63179342D02*
X74368819Y-62607914D01*
X74368819Y-62893628D02*
X73368819Y-62893628D01*
X73368819Y-62893628D02*
X73511676Y-62798390D01*
X73511676Y-62798390D02*
X73606914Y-62703152D01*
X73606914Y-62703152D02*
X73654533Y-62607914D01*
X73368819Y-63798390D02*
X73368819Y-63893628D01*
X73368819Y-63893628D02*
X73416438Y-63988866D01*
X73416438Y-63988866D02*
X73464057Y-64036485D01*
X73464057Y-64036485D02*
X73559295Y-64084104D01*
X73559295Y-64084104D02*
X73749771Y-64131723D01*
X73749771Y-64131723D02*
X73987866Y-64131723D01*
X73987866Y-64131723D02*
X74178342Y-64084104D01*
X74178342Y-64084104D02*
X74273580Y-64036485D01*
X74273580Y-64036485D02*
X74321200Y-63988866D01*
X74321200Y-63988866D02*
X74368819Y-63893628D01*
X74368819Y-63893628D02*
X74368819Y-63798390D01*
X74368819Y-63798390D02*
X74321200Y-63703152D01*
X74321200Y-63703152D02*
X74273580Y-63655533D01*
X74273580Y-63655533D02*
X74178342Y-63607914D01*
X74178342Y-63607914D02*
X73987866Y-63560295D01*
X73987866Y-63560295D02*
X73749771Y-63560295D01*
X73749771Y-63560295D02*
X73559295Y-63607914D01*
X73559295Y-63607914D02*
X73464057Y-63655533D01*
X73464057Y-63655533D02*
X73416438Y-63703152D01*
X73416438Y-63703152D02*
X73368819Y-63798390D01*
X73702152Y-64988866D02*
X74368819Y-64988866D01*
X73321200Y-64750771D02*
X74035485Y-64512676D01*
X74035485Y-64512676D02*
X74035485Y-65131723D01*
X108673685Y-141186819D02*
X108673685Y-141996342D01*
X108673685Y-141996342D02*
X108626066Y-142091580D01*
X108626066Y-142091580D02*
X108578447Y-142139200D01*
X108578447Y-142139200D02*
X108483209Y-142186819D01*
X108483209Y-142186819D02*
X108292733Y-142186819D01*
X108292733Y-142186819D02*
X108197495Y-142139200D01*
X108197495Y-142139200D02*
X108149876Y-142091580D01*
X108149876Y-142091580D02*
X108102257Y-141996342D01*
X108102257Y-141996342D02*
X108102257Y-141186819D01*
X107102257Y-142186819D02*
X107673685Y-142186819D01*
X107387971Y-142186819D02*
X107387971Y-141186819D01*
X107387971Y-141186819D02*
X107483209Y-141329676D01*
X107483209Y-141329676D02*
X107578447Y-141424914D01*
X107578447Y-141424914D02*
X107673685Y-141472533D01*
X106483209Y-141186819D02*
X106387971Y-141186819D01*
X106387971Y-141186819D02*
X106292733Y-141234438D01*
X106292733Y-141234438D02*
X106245114Y-141282057D01*
X106245114Y-141282057D02*
X106197495Y-141377295D01*
X106197495Y-141377295D02*
X106149876Y-141567771D01*
X106149876Y-141567771D02*
X106149876Y-141805866D01*
X106149876Y-141805866D02*
X106197495Y-141996342D01*
X106197495Y-141996342D02*
X106245114Y-142091580D01*
X106245114Y-142091580D02*
X106292733Y-142139200D01*
X106292733Y-142139200D02*
X106387971Y-142186819D01*
X106387971Y-142186819D02*
X106483209Y-142186819D01*
X106483209Y-142186819D02*
X106578447Y-142139200D01*
X106578447Y-142139200D02*
X106626066Y-142091580D01*
X106626066Y-142091580D02*
X106673685Y-141996342D01*
X106673685Y-141996342D02*
X106721304Y-141805866D01*
X106721304Y-141805866D02*
X106721304Y-141567771D01*
X106721304Y-141567771D02*
X106673685Y-141377295D01*
X106673685Y-141377295D02*
X106626066Y-141282057D01*
X106626066Y-141282057D02*
X106578447Y-141234438D01*
X106578447Y-141234438D02*
X106483209Y-141186819D01*
X105578447Y-141615390D02*
X105673685Y-141567771D01*
X105673685Y-141567771D02*
X105721304Y-141520152D01*
X105721304Y-141520152D02*
X105768923Y-141424914D01*
X105768923Y-141424914D02*
X105768923Y-141377295D01*
X105768923Y-141377295D02*
X105721304Y-141282057D01*
X105721304Y-141282057D02*
X105673685Y-141234438D01*
X105673685Y-141234438D02*
X105578447Y-141186819D01*
X105578447Y-141186819D02*
X105387971Y-141186819D01*
X105387971Y-141186819D02*
X105292733Y-141234438D01*
X105292733Y-141234438D02*
X105245114Y-141282057D01*
X105245114Y-141282057D02*
X105197495Y-141377295D01*
X105197495Y-141377295D02*
X105197495Y-141424914D01*
X105197495Y-141424914D02*
X105245114Y-141520152D01*
X105245114Y-141520152D02*
X105292733Y-141567771D01*
X105292733Y-141567771D02*
X105387971Y-141615390D01*
X105387971Y-141615390D02*
X105578447Y-141615390D01*
X105578447Y-141615390D02*
X105673685Y-141663009D01*
X105673685Y-141663009D02*
X105721304Y-141710628D01*
X105721304Y-141710628D02*
X105768923Y-141805866D01*
X105768923Y-141805866D02*
X105768923Y-141996342D01*
X105768923Y-141996342D02*
X105721304Y-142091580D01*
X105721304Y-142091580D02*
X105673685Y-142139200D01*
X105673685Y-142139200D02*
X105578447Y-142186819D01*
X105578447Y-142186819D02*
X105387971Y-142186819D01*
X105387971Y-142186819D02*
X105292733Y-142139200D01*
X105292733Y-142139200D02*
X105245114Y-142091580D01*
X105245114Y-142091580D02*
X105197495Y-141996342D01*
X105197495Y-141996342D02*
X105197495Y-141805866D01*
X105197495Y-141805866D02*
X105245114Y-141710628D01*
X105245114Y-141710628D02*
X105292733Y-141663009D01*
X105292733Y-141663009D02*
X105387971Y-141615390D01*
D11*
X64129400Y-75558800D02*
X107879400Y-75558800D01*
X64129400Y-97008800D02*
X64129400Y-75558800D01*
X64134400Y-75813800D02*
X67264400Y-75813800D01*
X64134400Y-78973800D02*
X67264400Y-78973800D01*
X64134400Y-93598800D02*
X67264400Y-93593800D01*
X64134400Y-96753800D02*
X65434400Y-96753800D01*
X67264400Y-78973800D02*
X67264400Y-75813800D01*
X67264400Y-93903800D02*
X67264400Y-93593800D01*
X74433633Y-94169651D02*
X74433633Y-94008113D01*
X74434633Y-86184694D02*
X74434633Y-95536190D01*
X74434633Y-86184694D02*
X74512197Y-86107130D01*
X74434633Y-95536190D02*
X76084633Y-95827129D01*
X74512197Y-86107130D02*
X84517070Y-86107130D01*
X74716036Y-76865583D02*
X74716036Y-78615583D01*
X74716036Y-78615583D02*
X75166036Y-78615583D01*
X75166036Y-76590583D02*
X75166036Y-78890583D01*
X75166036Y-76865583D02*
X74716036Y-76865583D01*
X75266036Y-78990583D02*
X78866036Y-78990583D01*
X75694633Y-81477130D02*
X75694633Y-86107130D01*
X75694633Y-81477130D02*
X76534633Y-81477130D01*
X76084633Y-95827129D02*
X82944633Y-95827129D01*
X76534633Y-81477130D02*
X76534633Y-86107130D01*
X77394633Y-81477130D02*
X77394633Y-86107130D01*
X77394633Y-81477130D02*
X78234633Y-81477130D01*
X78095758Y-78890583D02*
X78095758Y-76590583D01*
X78234633Y-81477130D02*
X78234633Y-86107130D01*
X78866036Y-76490583D02*
X75266036Y-76490583D01*
X78966036Y-78615583D02*
X79416036Y-78615583D01*
X78966036Y-78890583D02*
X78966036Y-76590583D01*
X78967036Y-78379104D02*
X78967036Y-78473656D01*
X79094633Y-81477130D02*
X79094633Y-86107130D01*
X79094633Y-81477130D02*
X79934633Y-81477130D01*
X79416036Y-76865583D02*
X78966036Y-76865583D01*
X79416036Y-78615583D02*
X79416036Y-76865583D01*
X79934633Y-81477130D02*
X79934633Y-86107130D01*
X80794633Y-81477130D02*
X80794633Y-86107130D01*
X80794633Y-81477130D02*
X81634633Y-81477130D01*
X81634633Y-81477130D02*
X81634633Y-86107130D01*
X82494633Y-81477130D02*
X82494633Y-86107130D01*
X82494633Y-81477130D02*
X83334633Y-81477130D01*
X82944633Y-95827129D02*
X84594633Y-95536190D01*
X83334633Y-81477130D02*
X83334633Y-86107130D01*
X84517070Y-86107130D02*
X84594633Y-86184694D01*
X84594633Y-86184694D02*
X84594633Y-95536190D01*
X84594633Y-94747130D02*
X74434633Y-94747130D01*
X86151797Y-87588004D02*
X86151797Y-77888004D01*
X87651797Y-76388004D02*
X97351797Y-76388004D01*
X88984183Y-91591506D02*
X88984183Y-96491505D01*
X89034183Y-96541505D02*
X98934183Y-96541505D01*
X90020785Y-95222900D02*
X90044953Y-95191505D01*
X90032994Y-95166506D02*
X90008547Y-95171738D01*
X90032994Y-95166506D02*
X90040164Y-95197725D01*
X90032994Y-95166506D02*
X90044953Y-95191505D01*
X90044953Y-94691506D02*
X92123414Y-94691506D01*
X92123414Y-95191505D02*
X90044953Y-95191505D01*
X97351797Y-89088004D02*
X87651797Y-89088004D01*
X97543378Y-96542505D02*
X97498506Y-96542505D01*
X97626712Y-96542505D02*
X97592757Y-96542505D01*
X98851797Y-77888004D02*
X98851797Y-87588004D01*
X98934183Y-91541506D02*
X89034183Y-91541506D01*
X98984183Y-96491505D02*
X98984183Y-91591506D01*
X102333081Y-94193505D02*
X102333081Y-95793504D01*
X102333081Y-95473504D02*
X103133081Y-95473504D01*
X103133081Y-94193505D02*
X102333081Y-94193505D01*
X103133081Y-94513505D02*
X102333081Y-94513505D01*
X103133081Y-95793504D02*
X102333081Y-95793504D01*
X103133081Y-95793504D02*
X103133081Y-94193505D01*
X104744400Y-75813800D02*
X104744400Y-78973800D01*
X104744400Y-75813800D02*
X107859400Y-75813800D01*
X104744400Y-78973800D02*
X107859400Y-78973800D01*
X104744400Y-93593800D02*
X104744400Y-96753800D01*
X104744400Y-93593800D02*
X107904400Y-93593800D01*
X104744400Y-96753800D02*
X107859400Y-96753800D01*
X107879400Y-75558800D02*
X107879400Y-97008800D01*
X107879400Y-97008800D02*
X64129400Y-97008800D01*
X75266036Y-76490636D02*
G75*
G03*
X75166036Y-76590583I-36J-99964D01*
G01*
X75166017Y-78890583D02*
G75*
G03*
X75266036Y-78990583I99983J-17D01*
G01*
X78966017Y-76590583D02*
G75*
G03*
X78866036Y-76490583I-100017J-17D01*
G01*
X78866036Y-78990636D02*
G75*
G03*
X78966036Y-78890583I-36J100036D01*
G01*
X87651797Y-76387997D02*
G75*
G03*
X86151797Y-77888004I3J-1500003D01*
G01*
X87499639Y-79902403D02*
G75*
G03*
X87465532Y-79768219I-87039J49303D01*
G01*
X89532018Y-77701733D02*
G75*
G03*
X87465532Y-79768218I-1272818J-793667D01*
G01*
X87465530Y-85707788D02*
G75*
G03*
X87499617Y-85573617I-53030J84888D01*
G01*
X87499615Y-79902388D02*
G75*
G03*
X87499618Y-85573617I5002185J-2835612D01*
G01*
X86151796Y-87588004D02*
G75*
G03*
X87651797Y-89088004I1500004J4D01*
G01*
X89034183Y-91541483D02*
G75*
G03*
X88984183Y-91591506I17J-50017D01*
G01*
X88984195Y-96491505D02*
G75*
G03*
X89034183Y-96541505I50005J5D01*
G01*
X87465532Y-85707789D02*
G75*
G03*
X89532011Y-87774269I793668J-1272811D01*
G01*
X89666168Y-87740210D02*
G75*
G03*
X89532011Y-87774269I-49368J-86790D01*
G01*
X89532011Y-77701738D02*
G75*
G03*
X89666183Y-77735823I84889J53038D01*
G01*
X95337411Y-77735824D02*
G75*
G03*
X89666183Y-77735824I-2835614J-5002180D01*
G01*
X90008548Y-94711273D02*
G75*
G03*
X90020785Y-94660110I1075652J-230227D01*
G01*
X89666185Y-87740182D02*
G75*
G03*
X95337411Y-87740182I2835613J5002177D01*
G01*
X95471588Y-87774266D02*
G75*
G03*
X95337411Y-87740184I-84888J-53034D01*
G01*
X95337399Y-77735845D02*
G75*
G03*
X95471582Y-77701738I49301J87045D01*
G01*
X97538061Y-79768217D02*
G75*
G03*
X95471583Y-77701738I-793661J1272817D01*
G01*
X98851796Y-77888004D02*
G75*
G03*
X97351797Y-76388004I-1499996J4D01*
G01*
X97503973Y-85573615D02*
G75*
G03*
X97503976Y-79902390I-5002173J2835615D01*
G01*
X97538076Y-79768238D02*
G75*
G03*
X97503976Y-79902390I52924J-84862D01*
G01*
X95471591Y-87774264D02*
G75*
G03*
X97538062Y-85707789I1272809J793664D01*
G01*
X97503949Y-85573600D02*
G75*
G03*
X97538062Y-85707788I87051J-49300D01*
G01*
X97351797Y-89087997D02*
G75*
G03*
X98851797Y-87588004I3J1499997D01*
G01*
X98984194Y-91591506D02*
G75*
G03*
X98934183Y-91541506I-49994J6D01*
G01*
X98934183Y-96541483D02*
G75*
G03*
X98984183Y-96491505I17J49983D01*
G01*
X72331066Y-86216382D02*
G75*
G03*
X72331066Y-86216382I-4000000J0D01*
G01*
X72363399Y-94538800D02*
G75*
G03*
X72363399Y-94538800I-1598999J0D01*
G01*
X75732579Y-87019206D02*
G75*
G03*
X75732579Y-87019206I-375000J0D01*
G01*
X97751797Y-82738004D02*
G75*
G03*
X97751797Y-82738004I-5250000J0D01*
G01*
X102843400Y-78028800D02*
G75*
G03*
X102843400Y-78028800I-1599000J0D01*
G01*
X107713707Y-85718594D02*
G75*
G03*
X107713707Y-85718594I-4000000J0D01*
G01*
X64129400Y-97961600D02*
X107879400Y-97961600D01*
X64129400Y-119411600D02*
X64129400Y-97961600D01*
X64134400Y-98216600D02*
X67264400Y-98216600D01*
X64134400Y-101376600D02*
X67264400Y-101376600D01*
X64134400Y-116001600D02*
X67264400Y-115996600D01*
X64134400Y-119156600D02*
X65434400Y-119156600D01*
X67264400Y-101376600D02*
X67264400Y-98216600D01*
X67264400Y-116306600D02*
X67264400Y-115996600D01*
X74433633Y-116572451D02*
X74433633Y-116410913D01*
X74434633Y-108587494D02*
X74434633Y-117938990D01*
X74434633Y-108587494D02*
X74512197Y-108509930D01*
X74434633Y-117938990D02*
X76084633Y-118229929D01*
X74512197Y-108509930D02*
X84517070Y-108509930D01*
X74716036Y-99268383D02*
X74716036Y-101018383D01*
X74716036Y-101018383D02*
X75166036Y-101018383D01*
X75166036Y-98993383D02*
X75166036Y-101293383D01*
X75166036Y-99268383D02*
X74716036Y-99268383D01*
X75266036Y-101393383D02*
X78866036Y-101393383D01*
X75694633Y-103879930D02*
X75694633Y-108509930D01*
X75694633Y-103879930D02*
X76534633Y-103879930D01*
X76084633Y-118229929D02*
X82944633Y-118229929D01*
X76534633Y-103879930D02*
X76534633Y-108509930D01*
X77394633Y-103879930D02*
X77394633Y-108509930D01*
X77394633Y-103879930D02*
X78234633Y-103879930D01*
X78095758Y-101293383D02*
X78095758Y-98993383D01*
X78234633Y-103879930D02*
X78234633Y-108509930D01*
X78866036Y-98893383D02*
X75266036Y-98893383D01*
X78966036Y-101018383D02*
X79416036Y-101018383D01*
X78966036Y-101293383D02*
X78966036Y-98993383D01*
X78967036Y-100781904D02*
X78967036Y-100876456D01*
X79094633Y-103879930D02*
X79094633Y-108509930D01*
X79094633Y-103879930D02*
X79934633Y-103879930D01*
X79416036Y-99268383D02*
X78966036Y-99268383D01*
X79416036Y-101018383D02*
X79416036Y-99268383D01*
X79934633Y-103879930D02*
X79934633Y-108509930D01*
X80794633Y-103879930D02*
X80794633Y-108509930D01*
X80794633Y-103879930D02*
X81634633Y-103879930D01*
X81634633Y-103879930D02*
X81634633Y-108509930D01*
X82494633Y-103879930D02*
X82494633Y-108509930D01*
X82494633Y-103879930D02*
X83334633Y-103879930D01*
X82944633Y-118229929D02*
X84594633Y-117938990D01*
X83334633Y-103879930D02*
X83334633Y-108509930D01*
X84517070Y-108509930D02*
X84594633Y-108587494D01*
X84594633Y-108587494D02*
X84594633Y-117938990D01*
X84594633Y-117149930D02*
X74434633Y-117149930D01*
X86151797Y-109990804D02*
X86151797Y-100290804D01*
X87651797Y-98790804D02*
X97351797Y-98790804D01*
X88984183Y-113994306D02*
X88984183Y-118894305D01*
X89034183Y-118944305D02*
X98934183Y-118944305D01*
X90020785Y-117625700D02*
X90044953Y-117594305D01*
X90032994Y-117569306D02*
X90008547Y-117574538D01*
X90032994Y-117569306D02*
X90040164Y-117600525D01*
X90032994Y-117569306D02*
X90044953Y-117594305D01*
X90044953Y-117094306D02*
X92123414Y-117094306D01*
X92123414Y-117594305D02*
X90044953Y-117594305D01*
X97351797Y-111490804D02*
X87651797Y-111490804D01*
X97543378Y-118945305D02*
X97498506Y-118945305D01*
X97626712Y-118945305D02*
X97592757Y-118945305D01*
X98851797Y-100290804D02*
X98851797Y-109990804D01*
X98934183Y-113944306D02*
X89034183Y-113944306D01*
X98984183Y-118894305D02*
X98984183Y-113994306D01*
X102333081Y-116596305D02*
X102333081Y-118196304D01*
X102333081Y-117876304D02*
X103133081Y-117876304D01*
X103133081Y-116596305D02*
X102333081Y-116596305D01*
X103133081Y-116916305D02*
X102333081Y-116916305D01*
X103133081Y-118196304D02*
X102333081Y-118196304D01*
X103133081Y-118196304D02*
X103133081Y-116596305D01*
X104744400Y-98216600D02*
X104744400Y-101376600D01*
X104744400Y-98216600D02*
X107859400Y-98216600D01*
X104744400Y-101376600D02*
X107859400Y-101376600D01*
X104744400Y-115996600D02*
X104744400Y-119156600D01*
X104744400Y-115996600D02*
X107904400Y-115996600D01*
X104744400Y-119156600D02*
X107859400Y-119156600D01*
X107879400Y-97961600D02*
X107879400Y-119411600D01*
X107879400Y-119411600D02*
X64129400Y-119411600D01*
X75266036Y-98893436D02*
G75*
G03*
X75166036Y-98993383I-36J-99964D01*
G01*
X75166017Y-101293383D02*
G75*
G03*
X75266036Y-101393383I99983J-17D01*
G01*
X78966017Y-98993383D02*
G75*
G03*
X78866036Y-98893383I-100017J-17D01*
G01*
X78866036Y-101393436D02*
G75*
G03*
X78966036Y-101293383I-36J100036D01*
G01*
X87651797Y-98790797D02*
G75*
G03*
X86151797Y-100290804I3J-1500003D01*
G01*
X87499639Y-102305203D02*
G75*
G03*
X87465532Y-102171019I-87039J49303D01*
G01*
X89532018Y-100104533D02*
G75*
G03*
X87465532Y-102171018I-1272818J-793667D01*
G01*
X87465530Y-108110588D02*
G75*
G03*
X87499617Y-107976417I-53030J84888D01*
G01*
X87499615Y-102305188D02*
G75*
G03*
X87499618Y-107976417I5002185J-2835612D01*
G01*
X86151796Y-109990804D02*
G75*
G03*
X87651797Y-111490804I1500004J4D01*
G01*
X89034183Y-113944283D02*
G75*
G03*
X88984183Y-113994306I17J-50017D01*
G01*
X88984195Y-118894305D02*
G75*
G03*
X89034183Y-118944305I50005J5D01*
G01*
X87465532Y-108110589D02*
G75*
G03*
X89532011Y-110177069I793668J-1272811D01*
G01*
X89666168Y-110143010D02*
G75*
G03*
X89532011Y-110177069I-49368J-86790D01*
G01*
X89532011Y-100104538D02*
G75*
G03*
X89666183Y-100138623I84889J53038D01*
G01*
X95337411Y-100138624D02*
G75*
G03*
X89666183Y-100138624I-2835614J-5002180D01*
G01*
X90008548Y-117114073D02*
G75*
G03*
X90020785Y-117062910I1075652J-230227D01*
G01*
X89666185Y-110142982D02*
G75*
G03*
X95337411Y-110142982I2835613J5002177D01*
G01*
X95471588Y-110177066D02*
G75*
G03*
X95337411Y-110142984I-84888J-53034D01*
G01*
X95337399Y-100138645D02*
G75*
G03*
X95471582Y-100104538I49301J87045D01*
G01*
X97538061Y-102171017D02*
G75*
G03*
X95471583Y-100104538I-793661J1272817D01*
G01*
X98851796Y-100290804D02*
G75*
G03*
X97351797Y-98790804I-1499996J4D01*
G01*
X97503973Y-107976415D02*
G75*
G03*
X97503976Y-102305190I-5002173J2835615D01*
G01*
X97538076Y-102171038D02*
G75*
G03*
X97503976Y-102305190I52924J-84862D01*
G01*
X95471591Y-110177064D02*
G75*
G03*
X97538062Y-108110589I1272809J793664D01*
G01*
X97503949Y-107976400D02*
G75*
G03*
X97538062Y-108110588I87051J-49300D01*
G01*
X97351797Y-111490797D02*
G75*
G03*
X98851797Y-109990804I3J1499997D01*
G01*
X98984194Y-113994306D02*
G75*
G03*
X98934183Y-113944306I-49994J6D01*
G01*
X98934183Y-118944283D02*
G75*
G03*
X98984183Y-118894305I17J49983D01*
G01*
X72331066Y-108619182D02*
G75*
G03*
X72331066Y-108619182I-4000000J0D01*
G01*
X72363399Y-116941600D02*
G75*
G03*
X72363399Y-116941600I-1598999J0D01*
G01*
X75732579Y-109422006D02*
G75*
G03*
X75732579Y-109422006I-375000J0D01*
G01*
X97751797Y-105140804D02*
G75*
G03*
X97751797Y-105140804I-5250000J0D01*
G01*
X102843400Y-100431600D02*
G75*
G03*
X102843400Y-100431600I-1599000J0D01*
G01*
X107713707Y-108121394D02*
G75*
G03*
X107713707Y-108121394I-4000000J0D01*
G01*
X75254600Y-53079800D02*
X119004600Y-53079800D01*
X75254600Y-74529800D02*
X75254600Y-53079800D01*
X75259600Y-53334800D02*
X78389600Y-53334800D01*
X75259600Y-56494800D02*
X78389600Y-56494800D01*
X75259600Y-71119800D02*
X78389600Y-71114800D01*
X75259600Y-74274800D02*
X76559600Y-74274800D01*
X78389600Y-56494800D02*
X78389600Y-53334800D01*
X78389600Y-71424800D02*
X78389600Y-71114800D01*
X85558833Y-71690651D02*
X85558833Y-71529113D01*
X85559833Y-63705694D02*
X85559833Y-73057190D01*
X85559833Y-63705694D02*
X85637397Y-63628130D01*
X85559833Y-73057190D02*
X87209833Y-73348129D01*
X85637397Y-63628130D02*
X95642270Y-63628130D01*
X85841236Y-54386583D02*
X85841236Y-56136583D01*
X85841236Y-56136583D02*
X86291236Y-56136583D01*
X86291236Y-54111583D02*
X86291236Y-56411583D01*
X86291236Y-54386583D02*
X85841236Y-54386583D01*
X86391236Y-56511583D02*
X89991236Y-56511583D01*
X86819833Y-58998130D02*
X86819833Y-63628130D01*
X86819833Y-58998130D02*
X87659833Y-58998130D01*
X87209833Y-73348129D02*
X94069833Y-73348129D01*
X87659833Y-58998130D02*
X87659833Y-63628130D01*
X88519833Y-58998130D02*
X88519833Y-63628130D01*
X88519833Y-58998130D02*
X89359833Y-58998130D01*
X89220958Y-56411583D02*
X89220958Y-54111583D01*
X89359833Y-58998130D02*
X89359833Y-63628130D01*
X89991236Y-54011583D02*
X86391236Y-54011583D01*
X90091236Y-56136583D02*
X90541236Y-56136583D01*
X90091236Y-56411583D02*
X90091236Y-54111583D01*
X90092236Y-55900104D02*
X90092236Y-55994656D01*
X90219833Y-58998130D02*
X90219833Y-63628130D01*
X90219833Y-58998130D02*
X91059833Y-58998130D01*
X90541236Y-54386583D02*
X90091236Y-54386583D01*
X90541236Y-56136583D02*
X90541236Y-54386583D01*
X91059833Y-58998130D02*
X91059833Y-63628130D01*
X91919833Y-58998130D02*
X91919833Y-63628130D01*
X91919833Y-58998130D02*
X92759833Y-58998130D01*
X92759833Y-58998130D02*
X92759833Y-63628130D01*
X93619833Y-58998130D02*
X93619833Y-63628130D01*
X93619833Y-58998130D02*
X94459833Y-58998130D01*
X94069833Y-73348129D02*
X95719833Y-73057190D01*
X94459833Y-58998130D02*
X94459833Y-63628130D01*
X95642270Y-63628130D02*
X95719833Y-63705694D01*
X95719833Y-63705694D02*
X95719833Y-73057190D01*
X95719833Y-72268130D02*
X85559833Y-72268130D01*
X97276997Y-65109004D02*
X97276997Y-55409004D01*
X98776997Y-53909004D02*
X108476997Y-53909004D01*
X100109383Y-69112506D02*
X100109383Y-74012505D01*
X100159383Y-74062505D02*
X110059383Y-74062505D01*
X101145985Y-72743900D02*
X101170153Y-72712505D01*
X101158194Y-72687506D02*
X101133747Y-72692738D01*
X101158194Y-72687506D02*
X101165364Y-72718725D01*
X101158194Y-72687506D02*
X101170153Y-72712505D01*
X101170153Y-72212506D02*
X103248614Y-72212506D01*
X103248614Y-72712505D02*
X101170153Y-72712505D01*
X108476997Y-66609004D02*
X98776997Y-66609004D01*
X108668578Y-74063505D02*
X108623706Y-74063505D01*
X108751912Y-74063505D02*
X108717957Y-74063505D01*
X109976997Y-55409004D02*
X109976997Y-65109004D01*
X110059383Y-69062506D02*
X100159383Y-69062506D01*
X110109383Y-74012505D02*
X110109383Y-69112506D01*
X113458281Y-71714505D02*
X113458281Y-73314504D01*
X113458281Y-72994504D02*
X114258281Y-72994504D01*
X114258281Y-71714505D02*
X113458281Y-71714505D01*
X114258281Y-72034505D02*
X113458281Y-72034505D01*
X114258281Y-73314504D02*
X113458281Y-73314504D01*
X114258281Y-73314504D02*
X114258281Y-71714505D01*
X115869600Y-53334800D02*
X115869600Y-56494800D01*
X115869600Y-53334800D02*
X118984600Y-53334800D01*
X115869600Y-56494800D02*
X118984600Y-56494800D01*
X115869600Y-71114800D02*
X115869600Y-74274800D01*
X115869600Y-71114800D02*
X119029600Y-71114800D01*
X115869600Y-74274800D02*
X118984600Y-74274800D01*
X119004600Y-53079800D02*
X119004600Y-74529800D01*
X119004600Y-74529800D02*
X75254600Y-74529800D01*
X86391236Y-54011636D02*
G75*
G03*
X86291236Y-54111583I-36J-99964D01*
G01*
X86291217Y-56411583D02*
G75*
G03*
X86391236Y-56511583I99983J-17D01*
G01*
X90091217Y-54111583D02*
G75*
G03*
X89991236Y-54011583I-100017J-17D01*
G01*
X89991236Y-56511636D02*
G75*
G03*
X90091236Y-56411583I-36J100036D01*
G01*
X98776997Y-53908997D02*
G75*
G03*
X97276997Y-55409004I3J-1500003D01*
G01*
X98624839Y-57423403D02*
G75*
G03*
X98590732Y-57289219I-87039J49303D01*
G01*
X100657218Y-55222733D02*
G75*
G03*
X98590732Y-57289218I-1272818J-793667D01*
G01*
X98590730Y-63228788D02*
G75*
G03*
X98624817Y-63094617I-53030J84888D01*
G01*
X98624815Y-57423388D02*
G75*
G03*
X98624818Y-63094617I5002185J-2835612D01*
G01*
X97276996Y-65109004D02*
G75*
G03*
X98776997Y-66609004I1500004J4D01*
G01*
X100159383Y-69062483D02*
G75*
G03*
X100109383Y-69112506I17J-50017D01*
G01*
X100109395Y-74012505D02*
G75*
G03*
X100159383Y-74062505I50005J5D01*
G01*
X98590732Y-63228789D02*
G75*
G03*
X100657211Y-65295269I793668J-1272811D01*
G01*
X100791368Y-65261210D02*
G75*
G03*
X100657211Y-65295269I-49368J-86790D01*
G01*
X100657211Y-55222738D02*
G75*
G03*
X100791383Y-55256823I84889J53038D01*
G01*
X106462611Y-55256824D02*
G75*
G03*
X100791383Y-55256824I-2835614J-5002180D01*
G01*
X101133748Y-72232273D02*
G75*
G03*
X101145985Y-72181110I1075652J-230227D01*
G01*
X100791385Y-65261182D02*
G75*
G03*
X106462611Y-65261182I2835613J5002177D01*
G01*
X106596788Y-65295266D02*
G75*
G03*
X106462611Y-65261184I-84888J-53034D01*
G01*
X106462599Y-55256845D02*
G75*
G03*
X106596782Y-55222738I49301J87045D01*
G01*
X108663261Y-57289217D02*
G75*
G03*
X106596783Y-55222738I-793661J1272817D01*
G01*
X109976996Y-55409004D02*
G75*
G03*
X108476997Y-53909004I-1499996J4D01*
G01*
X108629173Y-63094615D02*
G75*
G03*
X108629176Y-57423390I-5002173J2835615D01*
G01*
X108663276Y-57289238D02*
G75*
G03*
X108629176Y-57423390I52924J-84862D01*
G01*
X106596791Y-65295264D02*
G75*
G03*
X108663262Y-63228789I1272809J793664D01*
G01*
X108629149Y-63094600D02*
G75*
G03*
X108663262Y-63228788I87051J-49300D01*
G01*
X108476997Y-66608997D02*
G75*
G03*
X109976997Y-65109004I3J1499997D01*
G01*
X110109394Y-69112506D02*
G75*
G03*
X110059383Y-69062506I-49994J6D01*
G01*
X110059383Y-74062483D02*
G75*
G03*
X110109383Y-74012505I17J49983D01*
G01*
X83456266Y-63737382D02*
G75*
G03*
X83456266Y-63737382I-4000000J0D01*
G01*
X83488599Y-72059800D02*
G75*
G03*
X83488599Y-72059800I-1598999J0D01*
G01*
X86857779Y-64540206D02*
G75*
G03*
X86857779Y-64540206I-375000J0D01*
G01*
X108876997Y-60259004D02*
G75*
G03*
X108876997Y-60259004I-5250000J0D01*
G01*
X113968600Y-55549800D02*
G75*
G03*
X113968600Y-55549800I-1599000J0D01*
G01*
X118838907Y-63239594D02*
G75*
G03*
X118838907Y-63239594I-4000000J0D01*
G01*
G36*
X120162576Y-121979979D02*
G01*
X120162585Y-121980026D01*
X120163012Y-121982879D01*
X120164003Y-121989778D01*
X120165535Y-122000565D01*
X120167587Y-122015084D01*
X120170136Y-122033176D01*
X120173160Y-122054686D01*
X120176639Y-122079455D01*
X120180549Y-122107327D01*
X120184868Y-122138145D01*
X120189575Y-122171751D01*
X120194648Y-122207988D01*
X120200064Y-122246699D01*
X120205802Y-122287728D01*
X120211839Y-122330916D01*
X120218154Y-122376107D01*
X120224725Y-122423144D01*
X120231529Y-122471869D01*
X120238544Y-122522125D01*
X120245750Y-122573756D01*
X120253123Y-122626603D01*
X120260641Y-122680511D01*
X120261244Y-122684838D01*
X120268750Y-122738654D01*
X120276109Y-122791392D01*
X120283297Y-122842895D01*
X120290293Y-122893006D01*
X120297076Y-122941568D01*
X120303622Y-122988425D01*
X120309911Y-123033419D01*
X120315921Y-123076395D01*
X120321628Y-123117194D01*
X120327012Y-123155661D01*
X120332051Y-123191638D01*
X120336721Y-123224968D01*
X120341003Y-123255496D01*
X120344873Y-123283063D01*
X120348309Y-123307513D01*
X120351290Y-123328690D01*
X120353794Y-123346436D01*
X120355798Y-123360595D01*
X120357281Y-123371009D01*
X120358221Y-123377523D01*
X120358595Y-123379979D01*
X120359676Y-123384766D01*
X120292615Y-123384766D01*
X120279558Y-123384754D01*
X120262918Y-123384679D01*
X120249895Y-123384522D01*
X120240105Y-123384267D01*
X120233160Y-123383898D01*
X120228677Y-123383398D01*
X120226270Y-123382752D01*
X120225553Y-123381942D01*
X120225544Y-123381843D01*
X120225154Y-123378834D01*
X120224200Y-123371794D01*
X120222703Y-123360877D01*
X120220685Y-123346239D01*
X120218168Y-123328036D01*
X120215174Y-123306423D01*
X120211724Y-123281557D01*
X120207839Y-123253591D01*
X120203542Y-123222683D01*
X120198854Y-123188987D01*
X120193797Y-123152660D01*
X120188392Y-123113857D01*
X120182661Y-123072733D01*
X120176626Y-123029443D01*
X120170308Y-122984145D01*
X120163730Y-122936992D01*
X120156912Y-122888142D01*
X120149876Y-122837749D01*
X120142645Y-122785968D01*
X120135239Y-122732956D01*
X120127680Y-122678868D01*
X120126360Y-122669419D01*
X120118827Y-122615514D01*
X120111450Y-122562714D01*
X120104252Y-122511177D01*
X120097253Y-122461056D01*
X120090475Y-122412507D01*
X120083941Y-122365686D01*
X120077671Y-122320748D01*
X120071688Y-122277849D01*
X120066012Y-122237143D01*
X120060666Y-122198787D01*
X120055671Y-122162935D01*
X120051050Y-122129744D01*
X120046823Y-122099368D01*
X120043012Y-122071964D01*
X120039638Y-122047685D01*
X120036725Y-122026689D01*
X120034293Y-122009130D01*
X120032363Y-121995163D01*
X120030958Y-121984944D01*
X120030099Y-121978629D01*
X120029808Y-121976373D01*
X120030965Y-121975799D01*
X120035876Y-121975190D01*
X120044712Y-121974721D01*
X120057557Y-121974390D01*
X120074491Y-121974193D01*
X120095596Y-121974128D01*
X120161385Y-121974128D01*
X120162576Y-121979979D01*
G37*
G36*
X121158321Y-121979979D02*
G01*
X121158330Y-121980026D01*
X121158757Y-121982879D01*
X121159747Y-121989778D01*
X121161280Y-122000565D01*
X121163331Y-122015084D01*
X121165880Y-122033176D01*
X121168905Y-122054686D01*
X121172383Y-122079455D01*
X121176293Y-122107327D01*
X121180613Y-122138145D01*
X121185320Y-122171751D01*
X121190392Y-122207988D01*
X121195809Y-122246699D01*
X121201546Y-122287728D01*
X121207584Y-122330916D01*
X121213899Y-122376107D01*
X121220469Y-122423144D01*
X121227273Y-122471869D01*
X121234289Y-122522125D01*
X121241494Y-122573756D01*
X121248867Y-122626603D01*
X121256386Y-122680511D01*
X121256989Y-122684838D01*
X121264495Y-122738654D01*
X121271853Y-122791392D01*
X121279042Y-122842895D01*
X121286038Y-122893006D01*
X121292820Y-122941568D01*
X121299367Y-122988425D01*
X121305656Y-123033419D01*
X121311665Y-123076395D01*
X121317373Y-123117194D01*
X121322757Y-123155661D01*
X121327795Y-123191638D01*
X121332466Y-123224968D01*
X121336747Y-123255496D01*
X121340617Y-123283063D01*
X121344054Y-123307513D01*
X121347035Y-123328690D01*
X121349538Y-123346436D01*
X121351543Y-123360595D01*
X121353026Y-123371009D01*
X121353965Y-123377523D01*
X121354340Y-123379979D01*
X121355421Y-123384766D01*
X120960063Y-123384766D01*
X120564705Y-123384766D01*
X120557693Y-123331043D01*
X120556130Y-123319139D01*
X120554254Y-123305029D01*
X120552570Y-123292563D01*
X120551167Y-123282384D01*
X120550131Y-123275138D01*
X120549553Y-123271468D01*
X120548425Y-123265617D01*
X120877583Y-123265617D01*
X121206742Y-123265617D01*
X121205547Y-123259766D01*
X121205414Y-123258938D01*
X121204728Y-123254258D01*
X121203495Y-123245678D01*
X121201745Y-123233396D01*
X121199505Y-123217609D01*
X121196803Y-123198517D01*
X121193667Y-123176316D01*
X121190123Y-123151204D01*
X121186201Y-123123380D01*
X121181928Y-123093042D01*
X121177331Y-123060386D01*
X121172439Y-123025612D01*
X121167278Y-122988917D01*
X121161878Y-122950499D01*
X121156265Y-122910555D01*
X121150467Y-122869285D01*
X121144513Y-122826885D01*
X121138429Y-122783553D01*
X121132244Y-122739488D01*
X121125985Y-122694888D01*
X121119681Y-122649949D01*
X121113358Y-122604871D01*
X121107045Y-122559850D01*
X121100770Y-122515086D01*
X121094559Y-122470775D01*
X121088442Y-122427117D01*
X121082445Y-122384307D01*
X121076596Y-122342546D01*
X121070924Y-122302029D01*
X121065456Y-122262956D01*
X121060219Y-122225524D01*
X121055242Y-122189932D01*
X121050552Y-122156376D01*
X121046177Y-122125055D01*
X121042144Y-122096167D01*
X121038482Y-122069910D01*
X121035218Y-122046481D01*
X121032381Y-122026078D01*
X121029997Y-122008901D01*
X121028094Y-121995145D01*
X121026701Y-121985009D01*
X121025844Y-121978692D01*
X121025553Y-121976391D01*
X121026898Y-121975763D01*
X121031923Y-121975165D01*
X121040773Y-121974706D01*
X121053554Y-121974382D01*
X121070374Y-121974191D01*
X121091341Y-121974128D01*
X121157129Y-121974128D01*
X121158321Y-121979979D01*
G37*
G36*
X117796481Y-114762815D02*
G01*
X117823258Y-114763049D01*
X117847335Y-114763562D01*
X117869727Y-114764405D01*
X117891449Y-114765631D01*
X117913514Y-114767291D01*
X117936938Y-114769438D01*
X117962734Y-114772124D01*
X117969924Y-114772922D01*
X118052042Y-114784292D01*
X118132835Y-114799680D01*
X118212398Y-114819115D01*
X118290824Y-114842625D01*
X118368209Y-114870238D01*
X118444648Y-114901982D01*
X118520234Y-114937885D01*
X118532225Y-114943977D01*
X118559993Y-114958400D01*
X118585232Y-114972048D01*
X118608954Y-114985503D01*
X118632174Y-114999348D01*
X118655903Y-115014168D01*
X118681156Y-115030545D01*
X118682965Y-115031737D01*
X118730520Y-115064125D01*
X118775056Y-115096636D01*
X118817506Y-115130032D01*
X118858802Y-115165073D01*
X118899875Y-115202518D01*
X118941657Y-115243130D01*
X118943208Y-115244681D01*
X118983690Y-115286421D01*
X119021034Y-115327486D01*
X119056001Y-115368808D01*
X119089351Y-115411318D01*
X119121845Y-115455948D01*
X119154243Y-115503631D01*
X119160990Y-115513937D01*
X119176677Y-115538462D01*
X119191038Y-115561867D01*
X119204658Y-115585165D01*
X119218120Y-115609370D01*
X119232006Y-115635495D01*
X119246902Y-115664553D01*
X119250182Y-115671080D01*
X119285724Y-115746736D01*
X119317108Y-115823253D01*
X119344364Y-115900725D01*
X119367519Y-115979246D01*
X119386602Y-116058912D01*
X119401641Y-116139816D01*
X119412663Y-116222053D01*
X119414155Y-116236063D01*
X119416549Y-116260477D01*
X119418432Y-116283055D01*
X119419856Y-116304812D01*
X119420872Y-116326762D01*
X119421534Y-116349920D01*
X119421893Y-116375299D01*
X119422001Y-116403915D01*
X119421598Y-116447341D01*
X119420212Y-116491091D01*
X119417753Y-116532967D01*
X119414133Y-116574152D01*
X119409264Y-116615829D01*
X119403058Y-116659181D01*
X119399005Y-116684014D01*
X119383348Y-116763083D01*
X119363615Y-116841782D01*
X119339943Y-116919724D01*
X119312467Y-116996520D01*
X119281323Y-117071781D01*
X119246647Y-117145121D01*
X119208573Y-117216149D01*
X119204452Y-117223290D01*
X119198956Y-117232506D01*
X119194358Y-117239852D01*
X119191047Y-117244711D01*
X119189415Y-117246468D01*
X119188863Y-117246415D01*
X119184691Y-117245611D01*
X119177285Y-117243956D01*
X119167258Y-117241605D01*
X119155224Y-117238711D01*
X119141800Y-117235429D01*
X119127598Y-117231911D01*
X119113233Y-117228311D01*
X119099319Y-117224784D01*
X119086472Y-117221482D01*
X119075304Y-117218560D01*
X119066431Y-117216170D01*
X119060467Y-117214468D01*
X119058027Y-117213605D01*
X119058020Y-117213581D01*
X119059070Y-117211441D01*
X119061965Y-117206271D01*
X119066380Y-117198636D01*
X119071986Y-117189101D01*
X119078458Y-117178233D01*
X119099420Y-117142171D01*
X119136436Y-117072375D01*
X119169447Y-117001367D01*
X119198569Y-116928869D01*
X119223918Y-116854605D01*
X119245610Y-116778296D01*
X119256658Y-116732266D01*
X119271847Y-116654547D01*
X119282917Y-116576092D01*
X119289864Y-116497130D01*
X119292681Y-116417895D01*
X119291363Y-116338618D01*
X119285904Y-116259530D01*
X119276298Y-116180864D01*
X119262539Y-116102851D01*
X119245137Y-116027467D01*
X119223181Y-115950815D01*
X119197255Y-115875596D01*
X119167415Y-115801936D01*
X119133722Y-115729957D01*
X119096233Y-115659786D01*
X119055006Y-115591547D01*
X119010101Y-115525364D01*
X118961576Y-115461362D01*
X118946886Y-115443289D01*
X118894187Y-115382735D01*
X118838649Y-115325277D01*
X118780398Y-115270997D01*
X118719565Y-115219978D01*
X118656275Y-115172303D01*
X118590659Y-115128055D01*
X118522842Y-115087317D01*
X118452955Y-115050172D01*
X118381124Y-115016702D01*
X118307478Y-114986991D01*
X118232145Y-114961122D01*
X118155253Y-114939177D01*
X118113107Y-114928998D01*
X118035333Y-114913572D01*
X117956892Y-114902285D01*
X117877990Y-114895137D01*
X117798835Y-114892129D01*
X117719633Y-114893260D01*
X117640591Y-114898530D01*
X117561915Y-114907940D01*
X117483813Y-114921489D01*
X117406491Y-114939177D01*
X117362464Y-114951174D01*
X117287902Y-114974753D01*
X117215241Y-115001994D01*
X117144148Y-115033035D01*
X117074292Y-115068015D01*
X117005343Y-115107073D01*
X116969175Y-115128763D01*
X116939385Y-115106358D01*
X116927502Y-115097381D01*
X116911947Y-115085503D01*
X116897917Y-115074642D01*
X116885730Y-115065049D01*
X116875701Y-115056977D01*
X116868146Y-115050678D01*
X116863381Y-115046403D01*
X116861723Y-115044405D01*
X116861776Y-115044241D01*
X116864090Y-115042081D01*
X116869477Y-115038095D01*
X116877447Y-115032600D01*
X116887512Y-115025914D01*
X116899182Y-115018354D01*
X116911970Y-115010236D01*
X116925386Y-115001879D01*
X116938941Y-114993600D01*
X116952148Y-114985715D01*
X116966098Y-114977717D01*
X116985398Y-114967131D01*
X117007036Y-114955663D01*
X117030161Y-114943739D01*
X117053922Y-114931788D01*
X117077469Y-114920236D01*
X117099951Y-114909511D01*
X117120518Y-114900039D01*
X117138319Y-114892248D01*
X117195514Y-114869318D01*
X117274541Y-114841537D01*
X117354410Y-114817925D01*
X117435116Y-114798485D01*
X117516651Y-114783217D01*
X117599010Y-114772124D01*
X117613019Y-114770632D01*
X117637433Y-114768238D01*
X117660012Y-114766355D01*
X117681769Y-114764931D01*
X117703719Y-114763915D01*
X117726877Y-114763253D01*
X117752256Y-114762894D01*
X117780872Y-114762786D01*
X117796481Y-114762815D01*
G37*
G36*
X116360278Y-115587975D02*
G01*
X116363612Y-115588734D01*
X116370346Y-115590240D01*
X116379279Y-115592224D01*
X116389382Y-115594456D01*
X116392847Y-115595223D01*
X116406293Y-115598229D01*
X116420474Y-115601445D01*
X116434780Y-115604728D01*
X116448600Y-115607934D01*
X116461323Y-115610921D01*
X116472339Y-115613545D01*
X116481037Y-115615663D01*
X116486804Y-115617131D01*
X116489032Y-115617808D01*
X116489050Y-115617865D01*
X116488064Y-115620218D01*
X116485315Y-115625418D01*
X116481191Y-115632752D01*
X116476082Y-115641508D01*
X116465771Y-115659227D01*
X116435019Y-115716137D01*
X116406161Y-115775738D01*
X116379650Y-115836999D01*
X116355941Y-115898892D01*
X116335487Y-115960385D01*
X116325676Y-115993774D01*
X116306093Y-116071107D01*
X116290638Y-116149158D01*
X116279317Y-116227752D01*
X116272132Y-116306711D01*
X116269089Y-116385861D01*
X116270190Y-116465025D01*
X116275442Y-116544026D01*
X116284847Y-116622689D01*
X116298409Y-116700838D01*
X116316134Y-116778296D01*
X116316170Y-116778437D01*
X116338220Y-116855716D01*
X116364189Y-116931356D01*
X116394039Y-117005279D01*
X116427732Y-117077409D01*
X116465230Y-117147670D01*
X116506494Y-117215984D01*
X116551486Y-117282276D01*
X116600168Y-117346468D01*
X116614891Y-117364582D01*
X116667586Y-117425125D01*
X116723122Y-117482576D01*
X116781372Y-117536850D01*
X116842206Y-117587864D01*
X116905496Y-117635537D01*
X116971113Y-117679783D01*
X117038929Y-117720520D01*
X117108815Y-117757664D01*
X117180643Y-117791133D01*
X117254284Y-117820843D01*
X117329610Y-117846711D01*
X117406491Y-117868653D01*
X117448636Y-117878832D01*
X117526411Y-117894259D01*
X117604852Y-117905545D01*
X117683753Y-117912693D01*
X117762908Y-117915701D01*
X117842110Y-117914570D01*
X117921153Y-117909300D01*
X117999828Y-117899890D01*
X118077931Y-117886341D01*
X118155253Y-117868653D01*
X118197076Y-117857289D01*
X118271420Y-117833904D01*
X118343914Y-117806870D01*
X118414906Y-117776040D01*
X118484746Y-117741270D01*
X118553782Y-117702415D01*
X118563101Y-117696969D01*
X118573336Y-117691272D01*
X118581581Y-117687015D01*
X118587299Y-117684473D01*
X118589952Y-117683920D01*
X118590702Y-117684391D01*
X118594679Y-117687174D01*
X118601183Y-117691903D01*
X118609717Y-117698204D01*
X118619788Y-117705704D01*
X118630900Y-117714028D01*
X118642558Y-117722803D01*
X118654268Y-117731655D01*
X118665534Y-117740210D01*
X118675860Y-117748095D01*
X118684753Y-117754934D01*
X118691718Y-117760355D01*
X118696258Y-117763983D01*
X118697880Y-117765444D01*
X118697714Y-117765727D01*
X118694976Y-117767987D01*
X118689271Y-117772020D01*
X118681115Y-117777496D01*
X118671023Y-117784085D01*
X118659512Y-117791453D01*
X118647098Y-117799272D01*
X118634296Y-117807208D01*
X118621623Y-117814932D01*
X118609595Y-117822111D01*
X118595613Y-117830128D01*
X118576318Y-117840712D01*
X118554687Y-117852178D01*
X118531569Y-117864098D01*
X118507814Y-117876046D01*
X118484272Y-117887596D01*
X118461793Y-117898319D01*
X118441227Y-117907791D01*
X118423425Y-117915583D01*
X118398946Y-117925683D01*
X118321227Y-117954781D01*
X118242206Y-117979954D01*
X118162130Y-118001146D01*
X118081244Y-118018303D01*
X117999795Y-118031372D01*
X117918028Y-118040297D01*
X117836191Y-118045025D01*
X117762635Y-118045797D01*
X117678754Y-118042778D01*
X117595658Y-118035596D01*
X117513414Y-118024264D01*
X117432086Y-118008797D01*
X117351741Y-117989209D01*
X117272445Y-117965516D01*
X117194264Y-117937731D01*
X117117264Y-117905869D01*
X117041510Y-117869945D01*
X117015879Y-117856840D01*
X116990637Y-117843515D01*
X116967404Y-117830715D01*
X116945177Y-117817855D01*
X116922951Y-117804355D01*
X116899723Y-117789632D01*
X116874489Y-117773105D01*
X116855316Y-117760239D01*
X116812752Y-117730438D01*
X116772721Y-117700492D01*
X116734330Y-117669672D01*
X116696688Y-117637248D01*
X116658904Y-117602488D01*
X116620086Y-117564664D01*
X116619912Y-117564490D01*
X116579149Y-117522561D01*
X116541554Y-117481304D01*
X116506358Y-117439779D01*
X116472795Y-117397046D01*
X116440098Y-117352166D01*
X116407501Y-117304200D01*
X116400754Y-117293893D01*
X116385067Y-117269369D01*
X116370706Y-117245964D01*
X116357086Y-117222665D01*
X116343624Y-117198460D01*
X116329737Y-117172335D01*
X116314842Y-117143277D01*
X116301198Y-117115687D01*
X116268721Y-117044457D01*
X116240039Y-116972761D01*
X116215057Y-116900254D01*
X116193679Y-116826591D01*
X116175812Y-116751429D01*
X116161362Y-116674421D01*
X116150233Y-116595223D01*
X116142331Y-116513490D01*
X116141969Y-116507980D01*
X116141368Y-116495382D01*
X116140834Y-116479803D01*
X116140386Y-116462054D01*
X116140041Y-116442948D01*
X116139821Y-116423298D01*
X116139743Y-116403915D01*
X116139772Y-116388306D01*
X116140006Y-116361529D01*
X116140519Y-116337452D01*
X116141362Y-116315060D01*
X116142588Y-116293338D01*
X116144248Y-116271273D01*
X116146395Y-116247849D01*
X116149081Y-116222053D01*
X116157414Y-116157642D01*
X116171724Y-116076403D01*
X116190147Y-115995915D01*
X116212612Y-115916405D01*
X116239047Y-115838100D01*
X116269380Y-115761227D01*
X116303540Y-115686013D01*
X116341455Y-115612684D01*
X116344955Y-115606363D01*
X116349816Y-115597895D01*
X116353369Y-115592361D01*
X116356022Y-115589223D01*
X116358188Y-115587941D01*
X116360278Y-115587975D01*
G37*
G36*
X114305917Y-122782668D02*
G01*
X114305979Y-122803809D01*
X114305667Y-122825575D01*
X114305002Y-122846992D01*
X114304006Y-122867085D01*
X114302700Y-122884880D01*
X114301104Y-122899403D01*
X114295026Y-122936313D01*
X114283377Y-122986559D01*
X114268217Y-123034476D01*
X114249624Y-123079986D01*
X114227676Y-123123012D01*
X114202452Y-123163475D01*
X114174031Y-123201298D01*
X114142489Y-123236402D01*
X114107907Y-123268711D01*
X114070362Y-123298146D01*
X114029932Y-123324629D01*
X113986696Y-123348083D01*
X113940732Y-123368429D01*
X113892118Y-123385591D01*
X113840933Y-123399489D01*
X113787255Y-123410047D01*
X113781195Y-123411008D01*
X113771542Y-123412450D01*
X113761800Y-123413762D01*
X113751139Y-123415043D01*
X113738729Y-123416390D01*
X113723739Y-123417900D01*
X113705340Y-123419672D01*
X113704999Y-123419703D01*
X113697103Y-123420129D01*
X113685687Y-123420367D01*
X113671442Y-123420433D01*
X113655058Y-123420341D01*
X113637225Y-123420107D01*
X113618634Y-123419746D01*
X113599974Y-123419274D01*
X113581936Y-123418706D01*
X113565210Y-123418058D01*
X113550487Y-123417343D01*
X113538456Y-123416579D01*
X113529808Y-123415780D01*
X113486514Y-123409600D01*
X113425873Y-123397603D01*
X113367024Y-123381964D01*
X113310102Y-123362748D01*
X113255243Y-123340017D01*
X113202584Y-123313836D01*
X113152261Y-123284268D01*
X113104409Y-123251377D01*
X113059166Y-123215227D01*
X113016667Y-123175881D01*
X112993434Y-123151772D01*
X112955127Y-123107257D01*
X112920147Y-123060172D01*
X112888553Y-123010645D01*
X112860409Y-122958805D01*
X112835775Y-122904782D01*
X112814714Y-122848702D01*
X112797288Y-122790696D01*
X112783557Y-122730892D01*
X112773584Y-122669418D01*
X112770823Y-122645681D01*
X112767360Y-122599617D01*
X113093638Y-122599617D01*
X113094131Y-122623973D01*
X113098006Y-122671757D01*
X113105634Y-122718442D01*
X113116900Y-122763799D01*
X113131688Y-122807602D01*
X113149881Y-122849623D01*
X113171365Y-122889635D01*
X113196023Y-122927410D01*
X113223740Y-122962723D01*
X113254399Y-122995344D01*
X113287884Y-123025048D01*
X113324081Y-123051606D01*
X113346296Y-123065522D01*
X113386104Y-123086549D01*
X113427568Y-123103657D01*
X113470689Y-123116845D01*
X113515465Y-123126113D01*
X113561895Y-123131461D01*
X113572937Y-123132213D01*
X113587241Y-123132978D01*
X113599732Y-123133276D01*
X113611872Y-123133105D01*
X113625123Y-123132462D01*
X113640945Y-123131346D01*
X113650082Y-123130555D01*
X113691258Y-123124669D01*
X113730172Y-123115235D01*
X113766713Y-123102361D01*
X113800767Y-123086154D01*
X113832221Y-123066724D01*
X113860965Y-123044180D01*
X113886883Y-123018628D01*
X113909865Y-122990178D01*
X113929797Y-122958938D01*
X113946566Y-122925017D01*
X113960060Y-122888522D01*
X113970167Y-122849563D01*
X113976773Y-122808248D01*
X113977610Y-122798191D01*
X113978223Y-122782731D01*
X113978391Y-122764955D01*
X113978139Y-122745922D01*
X113977494Y-122726691D01*
X113976484Y-122708318D01*
X113975135Y-122691863D01*
X113973474Y-122678383D01*
X113972139Y-122670126D01*
X113962098Y-122621785D01*
X113948645Y-122575495D01*
X113931891Y-122531401D01*
X113911949Y-122489648D01*
X113888929Y-122450381D01*
X113862943Y-122413747D01*
X113834103Y-122379891D01*
X113802520Y-122348958D01*
X113768305Y-122321094D01*
X113731570Y-122296445D01*
X113692427Y-122275156D01*
X113650986Y-122257372D01*
X113623329Y-122247982D01*
X113584266Y-122237821D01*
X113544320Y-122230786D01*
X113503976Y-122226863D01*
X113463722Y-122226039D01*
X113424041Y-122228299D01*
X113385420Y-122233629D01*
X113348345Y-122242016D01*
X113313302Y-122253446D01*
X113280775Y-122267905D01*
X113257605Y-122280792D01*
X113227309Y-122301278D01*
X113200167Y-122324382D01*
X113175880Y-122350366D01*
X113154148Y-122379492D01*
X113153729Y-122380122D01*
X113135143Y-122411582D01*
X113120057Y-122444828D01*
X113108417Y-122480058D01*
X113100170Y-122517469D01*
X113095262Y-122557256D01*
X113093638Y-122599617D01*
X112767360Y-122599617D01*
X112767069Y-122595749D01*
X112766121Y-122546603D01*
X112767964Y-122498857D01*
X112772582Y-122453130D01*
X112779962Y-122410037D01*
X112788217Y-122375575D01*
X112802845Y-122328574D01*
X112820885Y-122283472D01*
X112842196Y-122240545D01*
X112866636Y-122200072D01*
X112894063Y-122162330D01*
X112924336Y-122127597D01*
X112938437Y-122113362D01*
X112974433Y-122081286D01*
X113013249Y-122052370D01*
X113054844Y-122026631D01*
X113099177Y-122004088D01*
X113146207Y-121984758D01*
X113195894Y-121968658D01*
X113248197Y-121955805D01*
X113303075Y-121946218D01*
X113360488Y-121939914D01*
X113364675Y-121939612D01*
X113380798Y-121938846D01*
X113399874Y-121938408D01*
X113421003Y-121938282D01*
X113443283Y-121938452D01*
X113465814Y-121938903D01*
X113487697Y-121939616D01*
X113508030Y-121940577D01*
X113525913Y-121941769D01*
X113540446Y-121943175D01*
X113558769Y-121945540D01*
X113620346Y-121955980D01*
X113680064Y-121970011D01*
X113737779Y-121987581D01*
X113793349Y-122008638D01*
X113846631Y-122033128D01*
X113897485Y-122061001D01*
X113945765Y-122092203D01*
X113989297Y-122124939D01*
X114033222Y-122163022D01*
X114074493Y-122204217D01*
X114112902Y-122248268D01*
X114148239Y-122294916D01*
X114180297Y-122343905D01*
X114208868Y-122394978D01*
X114233742Y-122447875D01*
X114254952Y-122502671D01*
X114272899Y-122560434D01*
X114287162Y-122620096D01*
X114297696Y-122681462D01*
X114304454Y-122744341D01*
X114304588Y-122746158D01*
X114305460Y-122763126D01*
X114305503Y-122764955D01*
X114305917Y-122782668D01*
G37*
G36*
X123018005Y-122841016D02*
G01*
X123013591Y-122893357D01*
X123005675Y-122944186D01*
X122994292Y-122993306D01*
X122979474Y-123040524D01*
X122961253Y-123085643D01*
X122939663Y-123128470D01*
X122914738Y-123168809D01*
X122887531Y-123205488D01*
X122856086Y-123241109D01*
X122821774Y-123273610D01*
X122784542Y-123303039D01*
X122744332Y-123329445D01*
X122701091Y-123352874D01*
X122696695Y-123355012D01*
X122658708Y-123371927D01*
X122620324Y-123386138D01*
X122580850Y-123397829D01*
X122539592Y-123407182D01*
X122495859Y-123414381D01*
X122448957Y-123419610D01*
X122447568Y-123419696D01*
X122441485Y-123419862D01*
X122432010Y-123419972D01*
X122419752Y-123420022D01*
X122405318Y-123420013D01*
X122389318Y-123419941D01*
X122372361Y-123419806D01*
X122348057Y-123419423D01*
X122320338Y-123418491D01*
X122295213Y-123416956D01*
X122271766Y-123414711D01*
X122249078Y-123411646D01*
X122226233Y-123407651D01*
X122202314Y-123402616D01*
X122176402Y-123396433D01*
X122163747Y-123393163D01*
X122108432Y-123376226D01*
X122054480Y-123355398D01*
X122002140Y-123330839D01*
X121951662Y-123302711D01*
X121903296Y-123271173D01*
X121857292Y-123236384D01*
X121813900Y-123198506D01*
X121773370Y-123157699D01*
X121735952Y-123114122D01*
X121706927Y-123075638D01*
X121673557Y-123025245D01*
X121643952Y-122972959D01*
X121618099Y-122918740D01*
X121595982Y-122862548D01*
X121577584Y-122804343D01*
X121562892Y-122744084D01*
X121551888Y-122681733D01*
X121544559Y-122617248D01*
X121544363Y-122614797D01*
X121543375Y-122596885D01*
X121543224Y-122590714D01*
X121677043Y-122590714D01*
X121679870Y-122640873D01*
X121686128Y-122692138D01*
X121695866Y-122744341D01*
X121708731Y-122794742D01*
X121725802Y-122846128D01*
X121746406Y-122895893D01*
X121770383Y-122943789D01*
X121797572Y-122989566D01*
X121827812Y-123032975D01*
X121860940Y-123073766D01*
X121896798Y-123111690D01*
X121935222Y-123146497D01*
X121976052Y-123177940D01*
X121977818Y-123179184D01*
X122022734Y-123208241D01*
X122069095Y-123233315D01*
X122116956Y-123254426D01*
X122166371Y-123271592D01*
X122217395Y-123284832D01*
X122270083Y-123294166D01*
X122324489Y-123299612D01*
X122372041Y-123301129D01*
X122422305Y-123299263D01*
X122470699Y-123293737D01*
X122517143Y-123284574D01*
X122561560Y-123271798D01*
X122603869Y-123255430D01*
X122643994Y-123235495D01*
X122681854Y-123212014D01*
X122717371Y-123185012D01*
X122744318Y-123160330D01*
X122772355Y-123129364D01*
X122797391Y-123095645D01*
X122819379Y-123059358D01*
X122838274Y-123020688D01*
X122854032Y-122979817D01*
X122866607Y-122936932D01*
X122875955Y-122892214D01*
X122882029Y-122845850D01*
X122884785Y-122798023D01*
X122884178Y-122748916D01*
X122880163Y-122698716D01*
X122872694Y-122647605D01*
X122861726Y-122595767D01*
X122856220Y-122574581D01*
X122840025Y-122523176D01*
X122820289Y-122473344D01*
X122797181Y-122425326D01*
X122770872Y-122379366D01*
X122741533Y-122335704D01*
X122709333Y-122294583D01*
X122674444Y-122256245D01*
X122637035Y-122220932D01*
X122597277Y-122188886D01*
X122555340Y-122160350D01*
X122528973Y-122144745D01*
X122481154Y-122120235D01*
X122431915Y-122099736D01*
X122381244Y-122083243D01*
X122329128Y-122070753D01*
X122275553Y-122062259D01*
X122272800Y-122061946D01*
X122256849Y-122060586D01*
X122238008Y-122059571D01*
X122217296Y-122058910D01*
X122195731Y-122058609D01*
X122174330Y-122058676D01*
X122154113Y-122059118D01*
X122136096Y-122059942D01*
X122121297Y-122061156D01*
X122111056Y-122062362D01*
X122062697Y-122070365D01*
X122016615Y-122081923D01*
X121972838Y-122097027D01*
X121931394Y-122115666D01*
X121892312Y-122137828D01*
X121855618Y-122163503D01*
X121827206Y-122187601D01*
X121798296Y-122217295D01*
X121772347Y-122249803D01*
X121749409Y-122284955D01*
X121729526Y-122322581D01*
X121712747Y-122362509D01*
X121699118Y-122404570D01*
X121688686Y-122448591D01*
X121681498Y-122494403D01*
X121677602Y-122541834D01*
X121677043Y-122590714D01*
X121543224Y-122590714D01*
X121542872Y-122576339D01*
X121542829Y-122554140D01*
X121543222Y-122531273D01*
X121544026Y-122508719D01*
X121545217Y-122487461D01*
X121546769Y-122468482D01*
X121548660Y-122452764D01*
X121549198Y-122449210D01*
X121559099Y-122397426D01*
X121572480Y-122347864D01*
X121589281Y-122300617D01*
X121609440Y-122255777D01*
X121632895Y-122213438D01*
X121659583Y-122173691D01*
X121689445Y-122136629D01*
X121722417Y-122102344D01*
X121758439Y-122070929D01*
X121797448Y-122042477D01*
X121839382Y-122017079D01*
X121845676Y-122013670D01*
X121888578Y-121992953D01*
X121933651Y-121975483D01*
X121981111Y-121961191D01*
X122031176Y-121950011D01*
X122084063Y-121941877D01*
X122092057Y-121941083D01*
X122106701Y-121940154D01*
X122124272Y-121939483D01*
X122143991Y-121939066D01*
X122165077Y-121938898D01*
X122186751Y-121938976D01*
X122208231Y-121939295D01*
X122228738Y-121939851D01*
X122247492Y-121940640D01*
X122263711Y-121941658D01*
X122276617Y-121942901D01*
X122309227Y-121947545D01*
X122367786Y-121959145D01*
X122424913Y-121974749D01*
X122480568Y-121994343D01*
X122534714Y-122017912D01*
X122587310Y-122045442D01*
X122638319Y-122076918D01*
X122670671Y-122099621D01*
X122716549Y-122136095D01*
X122759663Y-122175661D01*
X122799896Y-122218138D01*
X122837131Y-122263346D01*
X122871253Y-122311105D01*
X122902143Y-122361236D01*
X122929685Y-122413557D01*
X122953764Y-122467889D01*
X122974261Y-122524051D01*
X122991060Y-122581865D01*
X123004045Y-122641149D01*
X123009911Y-122676863D01*
X123016198Y-122732573D01*
X123018885Y-122787356D01*
X123018710Y-122798023D01*
X123018005Y-122841016D01*
G37*
G36*
X117983456Y-113317159D02*
G01*
X118096762Y-113325235D01*
X118209518Y-113337439D01*
X118321617Y-113353757D01*
X118432953Y-113374176D01*
X118543421Y-113398682D01*
X118652914Y-113427261D01*
X118761327Y-113459900D01*
X118868554Y-113496585D01*
X118974489Y-113537303D01*
X119007463Y-113550946D01*
X119087085Y-113585914D01*
X119167278Y-113623902D01*
X119247023Y-113664399D01*
X119325299Y-113706894D01*
X119401085Y-113750876D01*
X119426039Y-113766023D01*
X119521888Y-113827317D01*
X119615304Y-113892063D01*
X119706193Y-113960167D01*
X119794459Y-114031533D01*
X119880008Y-114106067D01*
X119962745Y-114183673D01*
X120042575Y-114264258D01*
X120119403Y-114347725D01*
X120193134Y-114433980D01*
X120263672Y-114522927D01*
X120330924Y-114614473D01*
X120394794Y-114708522D01*
X120455188Y-114804979D01*
X120496385Y-114875670D01*
X120550776Y-114976158D01*
X120601276Y-115078289D01*
X120647854Y-115181979D01*
X120690481Y-115287143D01*
X120729125Y-115393696D01*
X120763758Y-115501553D01*
X120794348Y-115610631D01*
X120820866Y-115720845D01*
X120843281Y-115832110D01*
X120861563Y-115944341D01*
X120866114Y-115977219D01*
X120879136Y-116091054D01*
X120887960Y-116205025D01*
X120892596Y-116319013D01*
X120893057Y-116432899D01*
X120889355Y-116546565D01*
X120881502Y-116659891D01*
X120869510Y-116772759D01*
X120853390Y-116885051D01*
X120833156Y-116996647D01*
X120808818Y-117107429D01*
X120780388Y-117217278D01*
X120747880Y-117326075D01*
X120711304Y-117433702D01*
X120694237Y-117479657D01*
X120674177Y-117530867D01*
X120652871Y-117582672D01*
X120630728Y-117634118D01*
X120608161Y-117684251D01*
X120585581Y-117732116D01*
X120563400Y-117776758D01*
X120562794Y-117777941D01*
X120556487Y-117789813D01*
X120551518Y-117798318D01*
X120548000Y-117803274D01*
X120546046Y-117804501D01*
X120544659Y-117803630D01*
X120539607Y-117800375D01*
X120532087Y-117795475D01*
X120522646Y-117789292D01*
X120511833Y-117782187D01*
X120500195Y-117774523D01*
X120488279Y-117766660D01*
X120476635Y-117758961D01*
X120465810Y-117751788D01*
X120456351Y-117745501D01*
X120448807Y-117740463D01*
X120443725Y-117737036D01*
X120441654Y-117735581D01*
X120441609Y-117735516D01*
X120442144Y-117732817D01*
X120444461Y-117726697D01*
X120448413Y-117717491D01*
X120453852Y-117705533D01*
X120460629Y-117691157D01*
X120468598Y-117674697D01*
X120502430Y-117603051D01*
X120545727Y-117502825D01*
X120585247Y-117400769D01*
X120620940Y-117297047D01*
X120652758Y-117191826D01*
X120680653Y-117085269D01*
X120704574Y-116977542D01*
X120724474Y-116868808D01*
X120740303Y-116759234D01*
X120749738Y-116674053D01*
X120758382Y-116562264D01*
X120762818Y-116450395D01*
X120763055Y-116338573D01*
X120759103Y-116226926D01*
X120750972Y-116115579D01*
X120738673Y-116004662D01*
X120722214Y-115894301D01*
X120701606Y-115784623D01*
X120676858Y-115675757D01*
X120647980Y-115567828D01*
X120636793Y-115529972D01*
X120602801Y-115425099D01*
X120564817Y-115321573D01*
X120522913Y-115219531D01*
X120477166Y-115119111D01*
X120427649Y-115020450D01*
X120374436Y-114923686D01*
X120317604Y-114828957D01*
X120257225Y-114736401D01*
X120193375Y-114646155D01*
X120126128Y-114558357D01*
X120055558Y-114473144D01*
X119992306Y-114401949D01*
X119915304Y-114320969D01*
X119835558Y-114243010D01*
X119753277Y-114168269D01*
X119668666Y-114096940D01*
X119581936Y-114029217D01*
X119509727Y-113976685D01*
X119417316Y-113914135D01*
X119322929Y-113855329D01*
X119226648Y-113800298D01*
X119128555Y-113749072D01*
X119028731Y-113701684D01*
X118927259Y-113658165D01*
X118824221Y-113618544D01*
X118719699Y-113582854D01*
X118613774Y-113551126D01*
X118506528Y-113523391D01*
X118398044Y-113499680D01*
X118288403Y-113480024D01*
X118177687Y-113464454D01*
X118065978Y-113453002D01*
X118056005Y-113452176D01*
X118028488Y-113450012D01*
X118003064Y-113448217D01*
X117978939Y-113446761D01*
X117955319Y-113445613D01*
X117931411Y-113444743D01*
X117906423Y-113444121D01*
X117879561Y-113443715D01*
X117850032Y-113443497D01*
X117817042Y-113443434D01*
X117773230Y-113443630D01*
X117729869Y-113444285D01*
X117689024Y-113445445D01*
X117649808Y-113447156D01*
X117611335Y-113449466D01*
X117572719Y-113452419D01*
X117533073Y-113456063D01*
X117491510Y-113460444D01*
X117392954Y-113473026D01*
X117282233Y-113491107D01*
X117172887Y-113513213D01*
X117064898Y-113539349D01*
X116958249Y-113569520D01*
X116852923Y-113603731D01*
X116748901Y-113641987D01*
X116646166Y-113684293D01*
X116544702Y-113730654D01*
X116537806Y-113733972D01*
X116524323Y-113740506D01*
X116511773Y-113746648D01*
X116500884Y-113752037D01*
X116492381Y-113756316D01*
X116486994Y-113759125D01*
X116485071Y-113760159D01*
X116478795Y-113763151D01*
X116475030Y-113764014D01*
X116472964Y-113762971D01*
X116471633Y-113760962D01*
X116468400Y-113755650D01*
X116463756Y-113747790D01*
X116458023Y-113737950D01*
X116451523Y-113726696D01*
X116444581Y-113714593D01*
X116437517Y-113702207D01*
X116430654Y-113690105D01*
X116424316Y-113678852D01*
X116418825Y-113669014D01*
X116414504Y-113661158D01*
X116411674Y-113655850D01*
X116410659Y-113653655D01*
X116410715Y-113653437D01*
X116412237Y-113651984D01*
X116416013Y-113649584D01*
X116422273Y-113646120D01*
X116431249Y-113641474D01*
X116443171Y-113635529D01*
X116458270Y-113628168D01*
X116476777Y-113619272D01*
X116498924Y-113608724D01*
X116553863Y-113583309D01*
X116658020Y-113538673D01*
X116763690Y-113497937D01*
X116870709Y-113461151D01*
X116978910Y-113428362D01*
X117088128Y-113399620D01*
X117198198Y-113374972D01*
X117308955Y-113354468D01*
X117420234Y-113338155D01*
X117526842Y-113326401D01*
X117641292Y-113317831D01*
X117755615Y-113313443D01*
X117869705Y-113313223D01*
X117983456Y-113317159D01*
G37*
G36*
X116197872Y-121974129D02*
G01*
X116242260Y-121974136D01*
X116285427Y-121974151D01*
X116327183Y-121974173D01*
X116367340Y-121974202D01*
X116405706Y-121974237D01*
X116442093Y-121974278D01*
X116476311Y-121974325D01*
X116508171Y-121974377D01*
X116537482Y-121974434D01*
X116564054Y-121974495D01*
X116587700Y-121974561D01*
X116608227Y-121974631D01*
X116625448Y-121974704D01*
X116639172Y-121974781D01*
X116649210Y-121974860D01*
X116655372Y-121974942D01*
X116657468Y-121975026D01*
X116657477Y-121975105D01*
X116657871Y-121977991D01*
X116658828Y-121984908D01*
X116660327Y-121995702D01*
X116662347Y-122010217D01*
X116664866Y-122028299D01*
X116667861Y-122049793D01*
X116671312Y-122074544D01*
X116675198Y-122102396D01*
X116679495Y-122133194D01*
X116684183Y-122166784D01*
X116689240Y-122203011D01*
X116694644Y-122241720D01*
X116700374Y-122282754D01*
X116706407Y-122325961D01*
X116712724Y-122371184D01*
X116719301Y-122418268D01*
X116726117Y-122467059D01*
X116733151Y-122517401D01*
X116740380Y-122569140D01*
X116747784Y-122622120D01*
X116755340Y-122676186D01*
X116756614Y-122685305D01*
X116764150Y-122739240D01*
X116771530Y-122792081D01*
X116778732Y-122843671D01*
X116785734Y-122893854D01*
X116792514Y-122942475D01*
X116799052Y-122989377D01*
X116805324Y-123034405D01*
X116811311Y-123077401D01*
X116816989Y-123118212D01*
X116822338Y-123156679D01*
X116827335Y-123192648D01*
X116831959Y-123225963D01*
X116836188Y-123256467D01*
X116840001Y-123284005D01*
X116843376Y-123308421D01*
X116846291Y-123329557D01*
X116848725Y-123347260D01*
X116850656Y-123361372D01*
X116852062Y-123371738D01*
X116852921Y-123378202D01*
X116853212Y-123380607D01*
X116853211Y-123380692D01*
X116853136Y-123381140D01*
X116852825Y-123381553D01*
X116852117Y-123381934D01*
X116850852Y-123382284D01*
X116848868Y-123382603D01*
X116846006Y-123382894D01*
X116842104Y-123383158D01*
X116837001Y-123383395D01*
X116830537Y-123383608D01*
X116822551Y-123383798D01*
X116812882Y-123383966D01*
X116801369Y-123384113D01*
X116787852Y-123384241D01*
X116772170Y-123384351D01*
X116754161Y-123384444D01*
X116733666Y-123384523D01*
X116710524Y-123384587D01*
X116684573Y-123384639D01*
X116655653Y-123384680D01*
X116623603Y-123384711D01*
X116588262Y-123384733D01*
X116549470Y-123384749D01*
X116507066Y-123384758D01*
X116460889Y-123384764D01*
X116410778Y-123384766D01*
X116356573Y-123384766D01*
X115859933Y-123384766D01*
X115858745Y-123378915D01*
X115858708Y-123378716D01*
X115858133Y-123375032D01*
X115857042Y-123367565D01*
X115855487Y-123356694D01*
X115853522Y-123342796D01*
X115851199Y-123326250D01*
X115848572Y-123307435D01*
X115845694Y-123286727D01*
X115842617Y-123264506D01*
X115839396Y-123241149D01*
X115838918Y-123237683D01*
X115835714Y-123214469D01*
X115832663Y-123192445D01*
X115829817Y-123171990D01*
X115827229Y-123153482D01*
X115824954Y-123137299D01*
X115823043Y-123123820D01*
X115821551Y-123113422D01*
X115820530Y-123106484D01*
X115820033Y-123103383D01*
X115818832Y-123097532D01*
X116160768Y-123097532D01*
X116502705Y-123097532D01*
X116501609Y-123090617D01*
X116501536Y-123090137D01*
X116500909Y-123085794D01*
X116499765Y-123077713D01*
X116498156Y-123066270D01*
X116496134Y-123051841D01*
X116493752Y-123034802D01*
X116491062Y-123015528D01*
X116488118Y-122994397D01*
X116484971Y-122971784D01*
X116481675Y-122948064D01*
X116462836Y-122812426D01*
X116156960Y-122812426D01*
X116115171Y-122812420D01*
X116075442Y-122812399D01*
X116039628Y-122812363D01*
X116007554Y-122812310D01*
X115979046Y-122812237D01*
X115953930Y-122812145D01*
X115932031Y-122812030D01*
X115913176Y-122811892D01*
X115897189Y-122811730D01*
X115883898Y-122811541D01*
X115873127Y-122811323D01*
X115864702Y-122811077D01*
X115858449Y-122810799D01*
X115854194Y-122810490D01*
X115851763Y-122810146D01*
X115850981Y-122809766D01*
X115850904Y-122809057D01*
X115850331Y-122804637D01*
X115849240Y-122796526D01*
X115847680Y-122785080D01*
X115845700Y-122770651D01*
X115843348Y-122753594D01*
X115840672Y-122734261D01*
X115837723Y-122713007D01*
X115834547Y-122690185D01*
X115831195Y-122666149D01*
X115811513Y-122525192D01*
X116117416Y-122525192D01*
X116423319Y-122525192D01*
X116422262Y-122519341D01*
X116421928Y-122517208D01*
X116421036Y-122511214D01*
X116419666Y-122501892D01*
X116417884Y-122489686D01*
X116415752Y-122475039D01*
X116413336Y-122458394D01*
X116410699Y-122440196D01*
X116407906Y-122420887D01*
X116405019Y-122400911D01*
X116402104Y-122380712D01*
X116399223Y-122360732D01*
X116396442Y-122341416D01*
X116393824Y-122323207D01*
X116391434Y-122306548D01*
X116389334Y-122291883D01*
X116387589Y-122279656D01*
X116386264Y-122270309D01*
X116385422Y-122264286D01*
X116385127Y-122262032D01*
X116384905Y-122262007D01*
X116381487Y-122261931D01*
X116374120Y-122261859D01*
X116363034Y-122261789D01*
X116348461Y-122261723D01*
X116330632Y-122261661D01*
X116309778Y-122261603D01*
X116286129Y-122261551D01*
X116259918Y-122261503D01*
X116231374Y-122261462D01*
X116200729Y-122261427D01*
X116168215Y-122261400D01*
X116134062Y-122261379D01*
X116098501Y-122261366D01*
X116061763Y-122261362D01*
X115738400Y-122261362D01*
X115737327Y-122256575D01*
X115737280Y-122256334D01*
X115736706Y-122252667D01*
X115735620Y-122245226D01*
X115734074Y-122234385D01*
X115732121Y-122220517D01*
X115729813Y-122203995D01*
X115727201Y-122185190D01*
X115724338Y-122164475D01*
X115721276Y-122142224D01*
X115718067Y-122118809D01*
X115717472Y-122114458D01*
X115714281Y-122091185D01*
X115711245Y-122069116D01*
X115708415Y-122048628D01*
X115705845Y-122030097D01*
X115703586Y-122013899D01*
X115701692Y-122000413D01*
X115700214Y-121990013D01*
X115699205Y-121983076D01*
X115698718Y-121979979D01*
X115697555Y-121974128D01*
X116177511Y-121974128D01*
X116197872Y-121974129D01*
G37*
G36*
X119645550Y-121979955D02*
G01*
X119645559Y-121980002D01*
X119645986Y-121982857D01*
X119646977Y-121989757D01*
X119648509Y-122000546D01*
X119650561Y-122015066D01*
X119653111Y-122033160D01*
X119656136Y-122054671D01*
X119659615Y-122079442D01*
X119663525Y-122107315D01*
X119667845Y-122138134D01*
X119672552Y-122171741D01*
X119677625Y-122207980D01*
X119683041Y-122246693D01*
X119688779Y-122287722D01*
X119694817Y-122330912D01*
X119701132Y-122376104D01*
X119707703Y-122423141D01*
X119714507Y-122471867D01*
X119721523Y-122522124D01*
X119728728Y-122573755D01*
X119736101Y-122626603D01*
X119743620Y-122680511D01*
X119744223Y-122684838D01*
X119751729Y-122738654D01*
X119759087Y-122791392D01*
X119766276Y-122842895D01*
X119773272Y-122893006D01*
X119780054Y-122941568D01*
X119786601Y-122988425D01*
X119792890Y-123033419D01*
X119798899Y-123076395D01*
X119804607Y-123117194D01*
X119809991Y-123155661D01*
X119815029Y-123191638D01*
X119819700Y-123224968D01*
X119823981Y-123255496D01*
X119827851Y-123283063D01*
X119831288Y-123307513D01*
X119834269Y-123328690D01*
X119836772Y-123346436D01*
X119838777Y-123360595D01*
X119840260Y-123371009D01*
X119841199Y-123377523D01*
X119841574Y-123379979D01*
X119842655Y-123384766D01*
X119775593Y-123384766D01*
X119759302Y-123384747D01*
X119743453Y-123384664D01*
X119731131Y-123384500D01*
X119721937Y-123384237D01*
X119715478Y-123383859D01*
X119711354Y-123383347D01*
X119709171Y-123382685D01*
X119708531Y-123381856D01*
X119708477Y-123381371D01*
X119707939Y-123377324D01*
X119706850Y-123369352D01*
X119705240Y-123357659D01*
X119703135Y-123342448D01*
X119700565Y-123323920D01*
X119697558Y-123302280D01*
X119694141Y-123277728D01*
X119690345Y-123250468D01*
X119686196Y-123220703D01*
X119681723Y-123188634D01*
X119676955Y-123154465D01*
X119671920Y-123118399D01*
X119666647Y-123080637D01*
X119661163Y-123041383D01*
X119655497Y-123000838D01*
X119649677Y-122959207D01*
X119643732Y-122916690D01*
X119637690Y-122873492D01*
X119631579Y-122829814D01*
X119625429Y-122785859D01*
X119619266Y-122741829D01*
X119613120Y-122697928D01*
X119607019Y-122654358D01*
X119600991Y-122611321D01*
X119595065Y-122569020D01*
X119589268Y-122527658D01*
X119583630Y-122487437D01*
X119578178Y-122448560D01*
X119572942Y-122411230D01*
X119567949Y-122375649D01*
X119563227Y-122342019D01*
X119558806Y-122310544D01*
X119554712Y-122281425D01*
X119550976Y-122254866D01*
X119547625Y-122231069D01*
X119544687Y-122210237D01*
X119542192Y-122192572D01*
X119540166Y-122178278D01*
X119538639Y-122167555D01*
X119537639Y-122160608D01*
X119537194Y-122157639D01*
X119537094Y-122157090D01*
X119535788Y-122152576D01*
X119534345Y-122150724D01*
X119534300Y-122150769D01*
X119532839Y-122153174D01*
X119529404Y-122159143D01*
X119524071Y-122168540D01*
X119516916Y-122181227D01*
X119508017Y-122197068D01*
X119497449Y-122215926D01*
X119485288Y-122237663D01*
X119471610Y-122262144D01*
X119456493Y-122289231D01*
X119440012Y-122318787D01*
X119422243Y-122350675D01*
X119403262Y-122384760D01*
X119383147Y-122420903D01*
X119361973Y-122458968D01*
X119339816Y-122498819D01*
X119316753Y-122540317D01*
X119292860Y-122583327D01*
X119268213Y-122627712D01*
X119242889Y-122673334D01*
X119216963Y-122720058D01*
X119190512Y-122767745D01*
X118848333Y-123384766D01*
X118763007Y-123384764D01*
X118677680Y-123384761D01*
X118580077Y-122686359D01*
X118579091Y-122679304D01*
X118571553Y-122625368D01*
X118564164Y-122572506D01*
X118556948Y-122520875D01*
X118549925Y-122470633D01*
X118543117Y-122421936D01*
X118536547Y-122374940D01*
X118530237Y-122329804D01*
X118524208Y-122286685D01*
X118518482Y-122245738D01*
X118513081Y-122207122D01*
X118508028Y-122170993D01*
X118503345Y-122137508D01*
X118499052Y-122106824D01*
X118495173Y-122079099D01*
X118491728Y-122054489D01*
X118488741Y-122033151D01*
X118486233Y-122015243D01*
X118484226Y-122000921D01*
X118482742Y-121990342D01*
X118481803Y-121983664D01*
X118481431Y-121981043D01*
X118480389Y-121974128D01*
X118546588Y-121974128D01*
X118554548Y-121974132D01*
X118570224Y-121974163D01*
X118584208Y-121974223D01*
X118595986Y-121974306D01*
X118605046Y-121974410D01*
X118610876Y-121974529D01*
X118612963Y-121974660D01*
X118613193Y-121976244D01*
X118613991Y-121981865D01*
X118615338Y-121991392D01*
X118617210Y-122004661D01*
X118619585Y-122021505D01*
X118622438Y-122041761D01*
X118625748Y-122065262D01*
X118629490Y-122091844D01*
X118633641Y-122121341D01*
X118638178Y-122153588D01*
X118643078Y-122188421D01*
X118648317Y-122225672D01*
X118653873Y-122265179D01*
X118659722Y-122306774D01*
X118665841Y-122350294D01*
X118672206Y-122395573D01*
X118678795Y-122442445D01*
X118685584Y-122490746D01*
X118692550Y-122540311D01*
X118699669Y-122590973D01*
X118705807Y-122634614D01*
X118712813Y-122684345D01*
X118719659Y-122732837D01*
X118726319Y-122779924D01*
X118732771Y-122825441D01*
X118738990Y-122869221D01*
X118744952Y-122911101D01*
X118750635Y-122950915D01*
X118756013Y-122988498D01*
X118761064Y-123023684D01*
X118765763Y-123056308D01*
X118770088Y-123086205D01*
X118774013Y-123113209D01*
X118777515Y-123137156D01*
X118780571Y-123157880D01*
X118783157Y-123175216D01*
X118785249Y-123188999D01*
X118786823Y-123199063D01*
X118787855Y-123205243D01*
X118788322Y-123207374D01*
X118788368Y-123207343D01*
X118789843Y-123205025D01*
X118793290Y-123199141D01*
X118798634Y-123189827D01*
X118805799Y-123177220D01*
X118814707Y-123161456D01*
X118825283Y-123142673D01*
X118837449Y-123121007D01*
X118851131Y-123096595D01*
X118866251Y-123069574D01*
X118882732Y-123040080D01*
X118900500Y-123008251D01*
X118919477Y-122974223D01*
X118939586Y-122938133D01*
X118960752Y-122900118D01*
X118982899Y-122860314D01*
X119005949Y-122818858D01*
X119029827Y-122775888D01*
X119054456Y-122731539D01*
X119079759Y-122685950D01*
X119105661Y-122639255D01*
X119132085Y-122591593D01*
X119473724Y-121975192D01*
X119559038Y-121974636D01*
X119644353Y-121974080D01*
X119645550Y-121979955D01*
G37*
G36*
X118187680Y-122858837D02*
G01*
X118214377Y-122905547D01*
X118240269Y-122950853D01*
X118265283Y-122994627D01*
X118289348Y-123036742D01*
X118312389Y-123077070D01*
X118334335Y-123115485D01*
X118355114Y-123151859D01*
X118374651Y-123186065D01*
X118392875Y-123217976D01*
X118409713Y-123247464D01*
X118425093Y-123274404D01*
X118438941Y-123298666D01*
X118451186Y-123320125D01*
X118461754Y-123338653D01*
X118470573Y-123354122D01*
X118477570Y-123366407D01*
X118482673Y-123375378D01*
X118485808Y-123380911D01*
X118486904Y-123382876D01*
X118484996Y-123383193D01*
X118479071Y-123383480D01*
X118469366Y-123383728D01*
X118456122Y-123383937D01*
X118439578Y-123384104D01*
X118419974Y-123384227D01*
X118397549Y-123384305D01*
X118372542Y-123384336D01*
X118345194Y-123384317D01*
X118315744Y-123384247D01*
X118143871Y-123383702D01*
X118064777Y-123235830D01*
X117985683Y-123087958D01*
X117712001Y-123087418D01*
X117705926Y-123087406D01*
X117672367Y-123087349D01*
X117640049Y-123087308D01*
X117609224Y-123087282D01*
X117580143Y-123087271D01*
X117553056Y-123087274D01*
X117528216Y-123087291D01*
X117505872Y-123087323D01*
X117486277Y-123087368D01*
X117469682Y-123087426D01*
X117456337Y-123087497D01*
X117446494Y-123087581D01*
X117440404Y-123087676D01*
X117438319Y-123087784D01*
X117437953Y-123089276D01*
X117436574Y-123094571D01*
X117434254Y-123103378D01*
X117431079Y-123115369D01*
X117427136Y-123130218D01*
X117422513Y-123147594D01*
X117417296Y-123167172D01*
X117411573Y-123188622D01*
X117405431Y-123211617D01*
X117398957Y-123235830D01*
X117393598Y-123255872D01*
X117387391Y-123279104D01*
X117381588Y-123300849D01*
X117376277Y-123320778D01*
X117371543Y-123338564D01*
X117367474Y-123353879D01*
X117364158Y-123366394D01*
X117361681Y-123375783D01*
X117360131Y-123381717D01*
X117359595Y-123383868D01*
X117358952Y-123383945D01*
X117354657Y-123384079D01*
X117346593Y-123384206D01*
X117335075Y-123384325D01*
X117320415Y-123384432D01*
X117302929Y-123384528D01*
X117282929Y-123384609D01*
X117260728Y-123384676D01*
X117236642Y-123384725D01*
X117210982Y-123384756D01*
X117184063Y-123384766D01*
X117168489Y-123384761D01*
X117136004Y-123384714D01*
X117106959Y-123384619D01*
X117081457Y-123384477D01*
X117059599Y-123384288D01*
X117041486Y-123384055D01*
X117027221Y-123383778D01*
X117016906Y-123383459D01*
X117010642Y-123383098D01*
X117008531Y-123382698D01*
X117008531Y-123382697D01*
X117009129Y-123380556D01*
X117010878Y-123374514D01*
X117013724Y-123364751D01*
X117017615Y-123351448D01*
X117022498Y-123334785D01*
X117028319Y-123314943D01*
X117035025Y-123292100D01*
X117042564Y-123266437D01*
X117050882Y-123238135D01*
X117059927Y-123207374D01*
X117069645Y-123174333D01*
X117079982Y-123139194D01*
X117090887Y-123102135D01*
X117102305Y-123063337D01*
X117114185Y-123022981D01*
X117126471Y-122981247D01*
X117139113Y-122938313D01*
X117152056Y-122894362D01*
X117165248Y-122849573D01*
X117174011Y-122819824D01*
X117509297Y-122819824D01*
X117509627Y-122820437D01*
X117510700Y-122820967D01*
X117512785Y-122821421D01*
X117516154Y-122821805D01*
X117521075Y-122822124D01*
X117527820Y-122822384D01*
X117536658Y-122822592D01*
X117547860Y-122822752D01*
X117561695Y-122822872D01*
X117578435Y-122822957D01*
X117598350Y-122823013D01*
X117621709Y-122823045D01*
X117648783Y-122823060D01*
X117679842Y-122823064D01*
X117691659Y-122823060D01*
X117717725Y-122823021D01*
X117742375Y-122822943D01*
X117765292Y-122822830D01*
X117786163Y-122822685D01*
X117804671Y-122822511D01*
X117820501Y-122822311D01*
X117833337Y-122822089D01*
X117842864Y-122821847D01*
X117848767Y-122821589D01*
X117850730Y-122821319D01*
X117850658Y-122821159D01*
X117849120Y-122818141D01*
X117845779Y-122811749D01*
X117840786Y-122802268D01*
X117834292Y-122789985D01*
X117826451Y-122775183D01*
X117817414Y-122758148D01*
X117807334Y-122739165D01*
X117796361Y-122718521D01*
X117784649Y-122696499D01*
X117772350Y-122673385D01*
X117759614Y-122649465D01*
X117746595Y-122625024D01*
X117733445Y-122600347D01*
X117720315Y-122575719D01*
X117707358Y-122551425D01*
X117694725Y-122527751D01*
X117682569Y-122504982D01*
X117671042Y-122483404D01*
X117660295Y-122463301D01*
X117650481Y-122444959D01*
X117641752Y-122428663D01*
X117634260Y-122414698D01*
X117628156Y-122403350D01*
X117623594Y-122394903D01*
X117620724Y-122389644D01*
X117619699Y-122387857D01*
X117619289Y-122389283D01*
X117617893Y-122394556D01*
X117615576Y-122403458D01*
X117612409Y-122415716D01*
X117608461Y-122431059D01*
X117603802Y-122449214D01*
X117598502Y-122469909D01*
X117592631Y-122492872D01*
X117586257Y-122517832D01*
X117579452Y-122544515D01*
X117572284Y-122572651D01*
X117564824Y-122601967D01*
X117558793Y-122625675D01*
X117551536Y-122654187D01*
X117544620Y-122681351D01*
X117538115Y-122706888D01*
X117532092Y-122730522D01*
X117526621Y-122751975D01*
X117521773Y-122770969D01*
X117517619Y-122787226D01*
X117514231Y-122800469D01*
X117511678Y-122810421D01*
X117510032Y-122816804D01*
X117509363Y-122819341D01*
X117509297Y-122819824D01*
X117174011Y-122819824D01*
X117178635Y-122804126D01*
X117192164Y-122758200D01*
X117205783Y-122711978D01*
X117219437Y-122665637D01*
X117233075Y-122619360D01*
X117246643Y-122573325D01*
X117260087Y-122527713D01*
X117273356Y-122482705D01*
X117286395Y-122438479D01*
X117299152Y-122395217D01*
X117311573Y-122353098D01*
X117323606Y-122312303D01*
X117335197Y-122273012D01*
X117346294Y-122235405D01*
X117356842Y-122199662D01*
X117366790Y-122165963D01*
X117376084Y-122134489D01*
X117384671Y-122105419D01*
X117392498Y-122078934D01*
X117399512Y-122055214D01*
X117405659Y-122034439D01*
X117410887Y-122016789D01*
X117415143Y-122002444D01*
X117418373Y-121991585D01*
X117420525Y-121984391D01*
X117421545Y-121981043D01*
X117423755Y-121974128D01*
X117552845Y-121974155D01*
X117681936Y-121974182D01*
X118084063Y-122677571D01*
X118103487Y-122711546D01*
X118132162Y-122761709D01*
X118160251Y-122810848D01*
X118166236Y-122821319D01*
X118187680Y-122858837D01*
G37*
G36*
X115511435Y-122672448D02*
G01*
X115512430Y-122679571D01*
X115519966Y-122733509D01*
X115527353Y-122786373D01*
X115534568Y-122838006D01*
X115541590Y-122888250D01*
X115548397Y-122936949D01*
X115554967Y-122983946D01*
X115561278Y-123029083D01*
X115567307Y-123072204D01*
X115573034Y-123113152D01*
X115578435Y-123151769D01*
X115583490Y-123187899D01*
X115588175Y-123221384D01*
X115592470Y-123252068D01*
X115596352Y-123279794D01*
X115599798Y-123304404D01*
X115602788Y-123325742D01*
X115605300Y-123343651D01*
X115607310Y-123357973D01*
X115608798Y-123368552D01*
X115609741Y-123375230D01*
X115610117Y-123377851D01*
X115611216Y-123384766D01*
X115455086Y-123384762D01*
X115298957Y-123384757D01*
X115260961Y-123107634D01*
X115259569Y-123097485D01*
X115254957Y-123063876D01*
X115250502Y-123031462D01*
X115246240Y-123000493D01*
X115242205Y-122971221D01*
X115238433Y-122943899D01*
X115234959Y-122918778D01*
X115231817Y-122896111D01*
X115229043Y-122876148D01*
X115226670Y-122859142D01*
X115224735Y-122845345D01*
X115223272Y-122835008D01*
X115222315Y-122828384D01*
X115221901Y-122825724D01*
X115220836Y-122820936D01*
X115145003Y-122820956D01*
X115069170Y-122820976D01*
X114960725Y-123102871D01*
X114852280Y-123384766D01*
X114665558Y-123384766D01*
X114478835Y-123384766D01*
X114481439Y-123378915D01*
X114481560Y-123378646D01*
X114483145Y-123375187D01*
X114486388Y-123368131D01*
X114491190Y-123357695D01*
X114497451Y-123344095D01*
X114505072Y-123327547D01*
X114513953Y-123308268D01*
X114523994Y-123286474D01*
X114535096Y-123262381D01*
X114547160Y-123236206D01*
X114560084Y-123208164D01*
X114573770Y-123178473D01*
X114588119Y-123147348D01*
X114603029Y-123115005D01*
X114618403Y-123081662D01*
X114752763Y-122790260D01*
X114721440Y-122782401D01*
X114687264Y-122772531D01*
X114647417Y-122757342D01*
X114610252Y-122738850D01*
X114575757Y-122717046D01*
X114543920Y-122691920D01*
X114514728Y-122663462D01*
X114488171Y-122631663D01*
X114464235Y-122596513D01*
X114442910Y-122558003D01*
X114441770Y-122555702D01*
X114430892Y-122532236D01*
X114421760Y-122509230D01*
X114413800Y-122485112D01*
X114406435Y-122458309D01*
X114403415Y-122446125D01*
X114399305Y-122428144D01*
X114396138Y-122411771D01*
X114393801Y-122396030D01*
X114392182Y-122379946D01*
X114391712Y-122371870D01*
X114717042Y-122371870D01*
X114717219Y-122380503D01*
X114719755Y-122405690D01*
X114725129Y-122429727D01*
X114733123Y-122451957D01*
X114743515Y-122471723D01*
X114756084Y-122488367D01*
X114771174Y-122503147D01*
X114790186Y-122517419D01*
X114811602Y-122529123D01*
X114836191Y-122538743D01*
X114839100Y-122539691D01*
X114853311Y-122543869D01*
X114867632Y-122547224D01*
X114882890Y-122549881D01*
X114899914Y-122551968D01*
X114919533Y-122553609D01*
X114942574Y-122554931D01*
X114944257Y-122555010D01*
X114956365Y-122555465D01*
X114970939Y-122555864D01*
X114987531Y-122556206D01*
X115005693Y-122556489D01*
X115024977Y-122556713D01*
X115044935Y-122556879D01*
X115065118Y-122556985D01*
X115085079Y-122557032D01*
X115104370Y-122557017D01*
X115122543Y-122556942D01*
X115139149Y-122556806D01*
X115153740Y-122556607D01*
X115165869Y-122556347D01*
X115175087Y-122556023D01*
X115180947Y-122555637D01*
X115183000Y-122555186D01*
X115182744Y-122553031D01*
X115181953Y-122546967D01*
X115180669Y-122537340D01*
X115178939Y-122524484D01*
X115176808Y-122508734D01*
X115174321Y-122490424D01*
X115171524Y-122469889D01*
X115168461Y-122447463D01*
X115165179Y-122423481D01*
X115161723Y-122398278D01*
X115158457Y-122374455D01*
X115155162Y-122350345D01*
X115152084Y-122327753D01*
X115149269Y-122307015D01*
X115146763Y-122288469D01*
X115144610Y-122272453D01*
X115142857Y-122259303D01*
X115141548Y-122249357D01*
X115140729Y-122242952D01*
X115140446Y-122240425D01*
X115139943Y-122240086D01*
X115135958Y-122239480D01*
X115128357Y-122238985D01*
X115117566Y-122238598D01*
X115104014Y-122238314D01*
X115088129Y-122238130D01*
X115070337Y-122238041D01*
X115051067Y-122238044D01*
X115030746Y-122238135D01*
X115009802Y-122238309D01*
X114988661Y-122238563D01*
X114967753Y-122238893D01*
X114947504Y-122239295D01*
X114928342Y-122239764D01*
X114910694Y-122240298D01*
X114894989Y-122240891D01*
X114881653Y-122241540D01*
X114871115Y-122242242D01*
X114863801Y-122242991D01*
X114863110Y-122243087D01*
X114833782Y-122248266D01*
X114808187Y-122255096D01*
X114786097Y-122263683D01*
X114767284Y-122274131D01*
X114751522Y-122286547D01*
X114738582Y-122301035D01*
X114732924Y-122309150D01*
X114725465Y-122322797D01*
X114720558Y-122337052D01*
X114717864Y-122353036D01*
X114717042Y-122371870D01*
X114391712Y-122371870D01*
X114391170Y-122362542D01*
X114390651Y-122342843D01*
X114390514Y-122319873D01*
X114390536Y-122307834D01*
X114390637Y-122292856D01*
X114390862Y-122280942D01*
X114391255Y-122271376D01*
X114391862Y-122263445D01*
X114392727Y-122256432D01*
X114393897Y-122249624D01*
X114395415Y-122242305D01*
X114398364Y-122230213D01*
X114405170Y-122207762D01*
X114413437Y-122185511D01*
X114422451Y-122165488D01*
X114434959Y-122143563D01*
X114450631Y-122121170D01*
X114468341Y-122099868D01*
X114487222Y-122080698D01*
X114506404Y-122064704D01*
X114519181Y-122055712D01*
X114551379Y-122036466D01*
X114586641Y-122019879D01*
X114625058Y-122005918D01*
X114666721Y-121994546D01*
X114711723Y-121985728D01*
X114712695Y-121985571D01*
X114720969Y-121984228D01*
X114728559Y-121983010D01*
X114735701Y-121981911D01*
X114742629Y-121980925D01*
X114749578Y-121980044D01*
X114756785Y-121979262D01*
X114764484Y-121978572D01*
X114772910Y-121977967D01*
X114782299Y-121977442D01*
X114792885Y-121976988D01*
X114804904Y-121976600D01*
X114818592Y-121976271D01*
X114834183Y-121975994D01*
X114851912Y-121975763D01*
X114872015Y-121975570D01*
X114894727Y-121975410D01*
X114920283Y-121975275D01*
X114948918Y-121975158D01*
X114980868Y-121975054D01*
X115016368Y-121974956D01*
X115055652Y-121974856D01*
X115098957Y-121974749D01*
X115413851Y-121973960D01*
X115495053Y-122555186D01*
X115511435Y-122672448D01*
G37*
G36*
X117939975Y-111967416D02*
G01*
X118077078Y-111974279D01*
X118213549Y-111985304D01*
X118349330Y-112000484D01*
X118484364Y-112019809D01*
X118618595Y-112043270D01*
X118751964Y-112070857D01*
X118884413Y-112102562D01*
X119015887Y-112138376D01*
X119146327Y-112178290D01*
X119275676Y-112222294D01*
X119403877Y-112270380D01*
X119530872Y-112322538D01*
X119654657Y-112377899D01*
X119777117Y-112437274D01*
X119897504Y-112500303D01*
X120015742Y-112566913D01*
X120131754Y-112637033D01*
X120245465Y-112710592D01*
X120356797Y-112787517D01*
X120465676Y-112867736D01*
X120572025Y-112951178D01*
X120675767Y-113037771D01*
X120776826Y-113127442D01*
X120875127Y-113220121D01*
X120970593Y-113315735D01*
X121063147Y-113414213D01*
X121152715Y-113515482D01*
X121239218Y-113619471D01*
X121322583Y-113726108D01*
X121402731Y-113835321D01*
X121479587Y-113947038D01*
X121553075Y-114061188D01*
X121623119Y-114177698D01*
X121689642Y-114296497D01*
X121752568Y-114417513D01*
X121764570Y-114441682D01*
X121822753Y-114564502D01*
X121877115Y-114689024D01*
X121927616Y-114815108D01*
X121974219Y-114942619D01*
X122016883Y-115071417D01*
X122055570Y-115201367D01*
X122090240Y-115332330D01*
X122120854Y-115464168D01*
X122147374Y-115596745D01*
X122169760Y-115729923D01*
X122187973Y-115863565D01*
X122201974Y-115997532D01*
X122202995Y-116009216D01*
X122212881Y-116148287D01*
X122218569Y-116286954D01*
X122220065Y-116425158D01*
X122217380Y-116562843D01*
X122210523Y-116699953D01*
X122199501Y-116836430D01*
X122184325Y-116972218D01*
X122165003Y-117107260D01*
X122141544Y-117241499D01*
X122113958Y-117374878D01*
X122082252Y-117507340D01*
X122046436Y-117638830D01*
X122006519Y-117769288D01*
X121962510Y-117898660D01*
X121914418Y-118026888D01*
X121862252Y-118153915D01*
X121818128Y-118253437D01*
X121767590Y-118359881D01*
X121713986Y-118465281D01*
X121656962Y-118570331D01*
X121596164Y-118675724D01*
X121590401Y-118685386D01*
X121583478Y-118696865D01*
X121577486Y-118706655D01*
X121572732Y-118714259D01*
X121569522Y-118719185D01*
X121568162Y-118720936D01*
X121567164Y-118720139D01*
X121563553Y-118716741D01*
X121557759Y-118711095D01*
X121550235Y-118703659D01*
X121541437Y-118694890D01*
X121531820Y-118685246D01*
X121521838Y-118675184D01*
X121511946Y-118665162D01*
X121502600Y-118655638D01*
X121494253Y-118647069D01*
X121487360Y-118639912D01*
X121482377Y-118634626D01*
X121474390Y-118625975D01*
X121497670Y-118586495D01*
X121506644Y-118571202D01*
X121572122Y-118454875D01*
X121633907Y-118336499D01*
X121691958Y-118216201D01*
X121746234Y-118094111D01*
X121796694Y-117970356D01*
X121843296Y-117845065D01*
X121885998Y-117718367D01*
X121924760Y-117590390D01*
X121959541Y-117461261D01*
X121990298Y-117331111D01*
X122016990Y-117200066D01*
X122039577Y-117068255D01*
X122058016Y-116935808D01*
X122072266Y-116802851D01*
X122081911Y-116676583D01*
X122088139Y-116542284D01*
X122090289Y-116407567D01*
X122088360Y-116272838D01*
X122082353Y-116138506D01*
X122072266Y-116004979D01*
X122071504Y-115996707D01*
X122056948Y-115863267D01*
X122038237Y-115730606D01*
X122015410Y-115598819D01*
X121988509Y-115467997D01*
X121957575Y-115338233D01*
X121922650Y-115209619D01*
X121883776Y-115082250D01*
X121840993Y-114956216D01*
X121794342Y-114831612D01*
X121743866Y-114708530D01*
X121689605Y-114587062D01*
X121631601Y-114467301D01*
X121569894Y-114349341D01*
X121504528Y-114233273D01*
X121435541Y-114119191D01*
X121362977Y-114007188D01*
X121286877Y-113897355D01*
X121207280Y-113789786D01*
X121124230Y-113684574D01*
X121037768Y-113581811D01*
X120947933Y-113481591D01*
X120867876Y-113397289D01*
X120771353Y-113301293D01*
X120672233Y-113208635D01*
X120570574Y-113119354D01*
X120466436Y-113033486D01*
X120359876Y-112951067D01*
X120250953Y-112872135D01*
X120139726Y-112796727D01*
X120026254Y-112724880D01*
X119910596Y-112656630D01*
X119792810Y-112592016D01*
X119672956Y-112531073D01*
X119551090Y-112473838D01*
X119427274Y-112420350D01*
X119301564Y-112370644D01*
X119174021Y-112324758D01*
X119044702Y-112282729D01*
X118994974Y-112267761D01*
X118868567Y-112232744D01*
X118740576Y-112201560D01*
X118611298Y-112174266D01*
X118481030Y-112150916D01*
X118350069Y-112131565D01*
X118218712Y-112116268D01*
X118087255Y-112105080D01*
X118059680Y-112103253D01*
X117923559Y-112096752D01*
X117787784Y-112094445D01*
X117652433Y-112096316D01*
X117517584Y-112102350D01*
X117383315Y-112112531D01*
X117249704Y-112126843D01*
X117116831Y-112145271D01*
X116984772Y-112167799D01*
X116853607Y-112194412D01*
X116723414Y-112225094D01*
X116594270Y-112259829D01*
X116466255Y-112298602D01*
X116339446Y-112341397D01*
X116213922Y-112388198D01*
X116089760Y-112438990D01*
X115967040Y-112493758D01*
X115845840Y-112552485D01*
X115843911Y-112553457D01*
X115830172Y-112560349D01*
X115817731Y-112566540D01*
X115807089Y-112571785D01*
X115798743Y-112575838D01*
X115793194Y-112578455D01*
X115790940Y-112579392D01*
X115790656Y-112579164D01*
X115788537Y-112576195D01*
X115784682Y-112570142D01*
X115779366Y-112561457D01*
X115772861Y-112550593D01*
X115765444Y-112538000D01*
X115757387Y-112524131D01*
X115750464Y-112512113D01*
X115742844Y-112498786D01*
X115737035Y-112488427D01*
X115732840Y-112480632D01*
X115730064Y-112474996D01*
X115728511Y-112471115D01*
X115727985Y-112468584D01*
X115728291Y-112466999D01*
X115729234Y-112465956D01*
X115731758Y-112464483D01*
X115737698Y-112461314D01*
X115746562Y-112456713D01*
X115757894Y-112450911D01*
X115771239Y-112444143D01*
X115786142Y-112436641D01*
X115802148Y-112428638D01*
X115816923Y-112421309D01*
X115939968Y-112362905D01*
X116064658Y-112308357D01*
X116190866Y-112257702D01*
X116318469Y-112210975D01*
X116447341Y-112168211D01*
X116577358Y-112129446D01*
X116708393Y-112094715D01*
X116840324Y-112064054D01*
X116973023Y-112037497D01*
X117106367Y-112015081D01*
X117240231Y-111996842D01*
X117374489Y-111982813D01*
X117386389Y-111981774D01*
X117525447Y-111971895D01*
X117664102Y-111966215D01*
X117802297Y-111964725D01*
X117939975Y-111967416D01*
G37*
G36*
X115106817Y-115073377D02*
G01*
X115112090Y-115076843D01*
X115125161Y-115085442D01*
X115136880Y-115093159D01*
X115146805Y-115099703D01*
X115154495Y-115104785D01*
X115159510Y-115108112D01*
X115161409Y-115109395D01*
X115161042Y-115111262D01*
X115159234Y-115115959D01*
X115156370Y-115122396D01*
X115152422Y-115130864D01*
X115107337Y-115232214D01*
X115066409Y-115333346D01*
X115029569Y-115434495D01*
X114996751Y-115535897D01*
X114967886Y-115637790D01*
X114942908Y-115740408D01*
X114921749Y-115843988D01*
X114904342Y-115948766D01*
X114890620Y-116054979D01*
X114887618Y-116082702D01*
X114884217Y-116116680D01*
X114881370Y-116148821D01*
X114879024Y-116179994D01*
X114877129Y-116211069D01*
X114875632Y-116242916D01*
X114874482Y-116276405D01*
X114873628Y-116312406D01*
X114873018Y-116351788D01*
X114872911Y-116361352D01*
X114872697Y-116412809D01*
X114873174Y-116461203D01*
X114874381Y-116507501D01*
X114876361Y-116552676D01*
X114879154Y-116597695D01*
X114882800Y-116643530D01*
X114887342Y-116691149D01*
X114893752Y-116748308D01*
X114909384Y-116859182D01*
X114929100Y-116968940D01*
X114952863Y-117077501D01*
X114980638Y-117184781D01*
X115012386Y-117290698D01*
X115048073Y-117395170D01*
X115087662Y-117498114D01*
X115131117Y-117599447D01*
X115178401Y-117699087D01*
X115229477Y-117796950D01*
X115284311Y-117892956D01*
X115342864Y-117987020D01*
X115405102Y-118079060D01*
X115470987Y-118168994D01*
X115540483Y-118256739D01*
X115613554Y-118342213D01*
X115620138Y-118349605D01*
X115696214Y-118431597D01*
X115775003Y-118510393D01*
X115856403Y-118585939D01*
X115940314Y-118658183D01*
X116026636Y-118727070D01*
X116115268Y-118792547D01*
X116206109Y-118854561D01*
X116299059Y-118913058D01*
X116394018Y-118967984D01*
X116490884Y-119019287D01*
X116589558Y-119066913D01*
X116689938Y-119110807D01*
X116791924Y-119150917D01*
X116895416Y-119187190D01*
X117000312Y-119219571D01*
X117106513Y-119248008D01*
X117213917Y-119272446D01*
X117322425Y-119292833D01*
X117431936Y-119309115D01*
X117483614Y-119315402D01*
X117544942Y-119321741D01*
X117605121Y-119326641D01*
X117665200Y-119330162D01*
X117726230Y-119332363D01*
X117789260Y-119333304D01*
X117855340Y-119333043D01*
X117881166Y-119332669D01*
X117918588Y-119331887D01*
X117953200Y-119330817D01*
X117985882Y-119329408D01*
X118017512Y-119327605D01*
X118048968Y-119325359D01*
X118081130Y-119322615D01*
X118114876Y-119319322D01*
X118151085Y-119315427D01*
X118156091Y-119314863D01*
X118266665Y-119300190D01*
X118376412Y-119281350D01*
X118485248Y-119258366D01*
X118593087Y-119231261D01*
X118699845Y-119200058D01*
X118805438Y-119164781D01*
X118909780Y-119125451D01*
X119012787Y-119082092D01*
X119013134Y-119081938D01*
X119030878Y-119073929D01*
X119051017Y-119064611D01*
X119072767Y-119054363D01*
X119095343Y-119043567D01*
X119117959Y-119032602D01*
X119139830Y-119021850D01*
X119160171Y-119011692D01*
X119178197Y-119002506D01*
X119193122Y-118994676D01*
X119214948Y-118982981D01*
X119232714Y-119008874D01*
X119233292Y-119009717D01*
X119241601Y-119021901D01*
X119251046Y-119035850D01*
X119260508Y-119049906D01*
X119268869Y-119062416D01*
X119287258Y-119090065D01*
X119282516Y-119093642D01*
X119281993Y-119094009D01*
X119277520Y-119096663D01*
X119269805Y-119100878D01*
X119259326Y-119106411D01*
X119246560Y-119113025D01*
X119231984Y-119120479D01*
X119216076Y-119128533D01*
X119199313Y-119136947D01*
X119182172Y-119145482D01*
X119165131Y-119153897D01*
X119148667Y-119161953D01*
X119133258Y-119169411D01*
X119119380Y-119176029D01*
X119107512Y-119181569D01*
X119049236Y-119207668D01*
X118944314Y-119251216D01*
X118838672Y-119290645D01*
X118732188Y-119325986D01*
X118624745Y-119357267D01*
X118516222Y-119384518D01*
X118406498Y-119407766D01*
X118295455Y-119427043D01*
X118182973Y-119442375D01*
X118068932Y-119453793D01*
X117953212Y-119461325D01*
X117945118Y-119461636D01*
X117931082Y-119461974D01*
X117913854Y-119462229D01*
X117893968Y-119462403D01*
X117871954Y-119462499D01*
X117848344Y-119462521D01*
X117823671Y-119462472D01*
X117798466Y-119462356D01*
X117773262Y-119462175D01*
X117748589Y-119461934D01*
X117724980Y-119461635D01*
X117702967Y-119461281D01*
X117683082Y-119460877D01*
X117665856Y-119460424D01*
X117651821Y-119459928D01*
X117641510Y-119459390D01*
X117599431Y-119456348D01*
X117507732Y-119448181D01*
X117419053Y-119438058D01*
X117332815Y-119425876D01*
X117248445Y-119411531D01*
X117165365Y-119394922D01*
X117082999Y-119375946D01*
X117000771Y-119354499D01*
X116918106Y-119330480D01*
X116916319Y-119329935D01*
X116808215Y-119294671D01*
X116701664Y-119255463D01*
X116596753Y-119212359D01*
X116493566Y-119165407D01*
X116392190Y-119114658D01*
X116292709Y-119060160D01*
X116195211Y-119001962D01*
X116099780Y-118940113D01*
X116006503Y-118874662D01*
X115915464Y-118805658D01*
X115826750Y-118733150D01*
X115740446Y-118657187D01*
X115738352Y-118655272D01*
X115708074Y-118626976D01*
X115676019Y-118595979D01*
X115642861Y-118562977D01*
X115609272Y-118528664D01*
X115575925Y-118493736D01*
X115543492Y-118458889D01*
X115512646Y-118424816D01*
X115484060Y-118392213D01*
X115472319Y-118378492D01*
X115400553Y-118290868D01*
X115332214Y-118200818D01*
X115267352Y-118108462D01*
X115206016Y-118013920D01*
X115148257Y-117917309D01*
X115094125Y-117818750D01*
X115043668Y-117718362D01*
X114996937Y-117616264D01*
X114953982Y-117512574D01*
X114914852Y-117407413D01*
X114879597Y-117300899D01*
X114848268Y-117193152D01*
X114820913Y-117084290D01*
X114797582Y-116974434D01*
X114778326Y-116863701D01*
X114763194Y-116752212D01*
X114752236Y-116640085D01*
X114751757Y-116633991D01*
X114750037Y-116611493D01*
X114748592Y-116591331D01*
X114747391Y-116572773D01*
X114746404Y-116555087D01*
X114745599Y-116537540D01*
X114744947Y-116519399D01*
X114744416Y-116499933D01*
X114743975Y-116478408D01*
X114743594Y-116454094D01*
X114743241Y-116426256D01*
X114743221Y-116424492D01*
X114742903Y-116374851D01*
X114743146Y-116328490D01*
X114743991Y-116284495D01*
X114745476Y-116241954D01*
X114747641Y-116199953D01*
X114750524Y-116157580D01*
X114754165Y-116113922D01*
X114758603Y-116068066D01*
X114761716Y-116039103D01*
X114776383Y-115927372D01*
X114795186Y-115816180D01*
X114818071Y-115705722D01*
X114844983Y-115596194D01*
X114875867Y-115487792D01*
X114910668Y-115380711D01*
X114949333Y-115275148D01*
X114991805Y-115171298D01*
X115038031Y-115069357D01*
X115052976Y-115037991D01*
X115106817Y-115073377D01*
G37*
G36*
X114019498Y-114105192D02*
G01*
X114020674Y-114106361D01*
X114031497Y-114117252D01*
X114043631Y-114129655D01*
X114055676Y-114142130D01*
X114066234Y-114153239D01*
X114089592Y-114178095D01*
X114065276Y-114219305D01*
X114020311Y-114297424D01*
X113956982Y-114414529D01*
X113897273Y-114533726D01*
X113841248Y-114654850D01*
X113788967Y-114777732D01*
X113740491Y-114902204D01*
X113695882Y-115028100D01*
X113655200Y-115155251D01*
X113618509Y-115283491D01*
X113585867Y-115412651D01*
X113557338Y-115542565D01*
X113532983Y-115673064D01*
X113520497Y-115750258D01*
X113507276Y-115843302D01*
X113496257Y-115935534D01*
X113487354Y-116027891D01*
X113480477Y-116121311D01*
X113475538Y-116216730D01*
X113472448Y-116315085D01*
X113471456Y-116390552D01*
X113472976Y-116525356D01*
X113478701Y-116659748D01*
X113488604Y-116793637D01*
X113502661Y-116926932D01*
X113520843Y-117059541D01*
X113543126Y-117191375D01*
X113569481Y-117322342D01*
X113599884Y-117452352D01*
X113634306Y-117581313D01*
X113672723Y-117709135D01*
X113715107Y-117835727D01*
X113761432Y-117960998D01*
X113811671Y-118084857D01*
X113865799Y-118207214D01*
X113923788Y-118327977D01*
X113985613Y-118447055D01*
X114051246Y-118564359D01*
X114120662Y-118679796D01*
X114193834Y-118793277D01*
X114206021Y-118811441D01*
X114282553Y-118921110D01*
X114362523Y-119028385D01*
X114445822Y-119133166D01*
X114532344Y-119235354D01*
X114621981Y-119334849D01*
X114714624Y-119431551D01*
X114810168Y-119525359D01*
X114908502Y-119616175D01*
X115009522Y-119703898D01*
X115113117Y-119788429D01*
X115219182Y-119869666D01*
X115327608Y-119947512D01*
X115438288Y-120021865D01*
X115551114Y-120092625D01*
X115665978Y-120159694D01*
X115751895Y-120206778D01*
X115872282Y-120268618D01*
X115994260Y-120326545D01*
X116117749Y-120380535D01*
X116242670Y-120430563D01*
X116368941Y-120476605D01*
X116496483Y-120518636D01*
X116625215Y-120556630D01*
X116755057Y-120590564D01*
X116885929Y-120620413D01*
X117017750Y-120646152D01*
X117150440Y-120667756D01*
X117283919Y-120685200D01*
X117418106Y-120698461D01*
X117459598Y-120701704D01*
X117594146Y-120709491D01*
X117728774Y-120713131D01*
X117863331Y-120712639D01*
X117997667Y-120708027D01*
X118131632Y-120699311D01*
X118265073Y-120686503D01*
X118397842Y-120669617D01*
X118529787Y-120648667D01*
X118660757Y-120623667D01*
X118790601Y-120594631D01*
X118919170Y-120561572D01*
X118957005Y-120551007D01*
X119084210Y-120512697D01*
X119210459Y-120470371D01*
X119335504Y-120424134D01*
X119459093Y-120374090D01*
X119580978Y-120320345D01*
X119700907Y-120263001D01*
X119818631Y-120202164D01*
X119933899Y-120137939D01*
X119973425Y-120115087D01*
X120009062Y-120168543D01*
X120012477Y-120173671D01*
X120021119Y-120186695D01*
X120028837Y-120198395D01*
X120035343Y-120208328D01*
X120040349Y-120216054D01*
X120043564Y-120221128D01*
X120044700Y-120223109D01*
X120044209Y-120223584D01*
X120040678Y-120225946D01*
X120034118Y-120229993D01*
X120024982Y-120235465D01*
X120013717Y-120242100D01*
X120000773Y-120249638D01*
X119986601Y-120257815D01*
X119971650Y-120266373D01*
X119956369Y-120275049D01*
X119941208Y-120283582D01*
X119926617Y-120291711D01*
X119909384Y-120301198D01*
X119816800Y-120350356D01*
X119721344Y-120398113D01*
X119624115Y-120443947D01*
X119526215Y-120487336D01*
X119428744Y-120527758D01*
X119347974Y-120559145D01*
X119219959Y-120605168D01*
X119090549Y-120647205D01*
X118959864Y-120685231D01*
X118828027Y-120719221D01*
X118695156Y-120749152D01*
X118561373Y-120774998D01*
X118426799Y-120796735D01*
X118291554Y-120814338D01*
X118155759Y-120827784D01*
X118019533Y-120837046D01*
X117883000Y-120842102D01*
X117872688Y-120842324D01*
X117855340Y-120842699D01*
X117839107Y-120843051D01*
X117824619Y-120843367D01*
X117812502Y-120843632D01*
X117803384Y-120843833D01*
X117797893Y-120843956D01*
X117796214Y-120843987D01*
X117786859Y-120844018D01*
X117773930Y-120843907D01*
X117757972Y-120843667D01*
X117739530Y-120843315D01*
X117719149Y-120842864D01*
X117697375Y-120842330D01*
X117674753Y-120841729D01*
X117651828Y-120841073D01*
X117629146Y-120840380D01*
X117607250Y-120839663D01*
X117586687Y-120838937D01*
X117568001Y-120838218D01*
X117551739Y-120837520D01*
X117538444Y-120836858D01*
X117423445Y-120829107D01*
X117286243Y-120816047D01*
X117150172Y-120798894D01*
X117015186Y-120777642D01*
X116881237Y-120752280D01*
X116748276Y-120722801D01*
X116616255Y-120689196D01*
X116485127Y-120651457D01*
X116481195Y-120650257D01*
X116351224Y-120608316D01*
X116222707Y-120562395D01*
X116095739Y-120512545D01*
X115970413Y-120458816D01*
X115846824Y-120401260D01*
X115725066Y-120339928D01*
X115605233Y-120274870D01*
X115487419Y-120206139D01*
X115371719Y-120133784D01*
X115258226Y-120057858D01*
X115147035Y-119978411D01*
X115038240Y-119895494D01*
X114931936Y-119809158D01*
X114899587Y-119781785D01*
X114796655Y-119691094D01*
X114696838Y-119597583D01*
X114600180Y-119501334D01*
X114506727Y-119402428D01*
X114416524Y-119300947D01*
X114329615Y-119196972D01*
X114246046Y-119090586D01*
X114165862Y-118981870D01*
X114089108Y-118870906D01*
X114015828Y-118757775D01*
X113946069Y-118642560D01*
X113879874Y-118525341D01*
X113817289Y-118406201D01*
X113758358Y-118285221D01*
X113703128Y-118162483D01*
X113651642Y-118038069D01*
X113603947Y-117912060D01*
X113560086Y-117784539D01*
X113520105Y-117655586D01*
X113484049Y-117525283D01*
X113451963Y-117393713D01*
X113423891Y-117260957D01*
X113399880Y-117127096D01*
X113379974Y-116992213D01*
X113373988Y-116945052D01*
X113365600Y-116871207D01*
X113358580Y-116798248D01*
X113352851Y-116725170D01*
X113348340Y-116650969D01*
X113344969Y-116574638D01*
X113342665Y-116495174D01*
X113342184Y-116470227D01*
X113342046Y-116333247D01*
X113346129Y-116196596D01*
X113354410Y-116060365D01*
X113366866Y-115924646D01*
X113383475Y-115789530D01*
X113404215Y-115655111D01*
X113429062Y-115521478D01*
X113457994Y-115388724D01*
X113490989Y-115256940D01*
X113528023Y-115126218D01*
X113569073Y-114996649D01*
X113614118Y-114868326D01*
X113663135Y-114741340D01*
X113716100Y-114615782D01*
X113772991Y-114491744D01*
X113833786Y-114369319D01*
X113898462Y-114248596D01*
X113900885Y-114244250D01*
X113909301Y-114229290D01*
X113918716Y-114212733D01*
X113928786Y-114195169D01*
X113939168Y-114177185D01*
X113949519Y-114159372D01*
X113959496Y-114142318D01*
X113968755Y-114126614D01*
X113976953Y-114112849D01*
X113983747Y-114101611D01*
X113988794Y-114093490D01*
X113996120Y-114082001D01*
X114019498Y-114105192D01*
G37*
G36*
X118781053Y-115394339D02*
G01*
X118835045Y-115450300D01*
X118885644Y-115508826D01*
X118932860Y-115569929D01*
X118976700Y-115633619D01*
X119017175Y-115699909D01*
X119054294Y-115768809D01*
X119078781Y-115819444D01*
X119104088Y-115877580D01*
X119126274Y-115935722D01*
X119145719Y-115994874D01*
X119162803Y-116056043D01*
X119170438Y-116087321D01*
X119173608Y-116102894D01*
X119185597Y-116161787D01*
X119196772Y-116237043D01*
X119203976Y-116312829D01*
X119207221Y-116388887D01*
X119206521Y-116464957D01*
X119201889Y-116540779D01*
X119193338Y-116616095D01*
X119180880Y-116690645D01*
X119164529Y-116764170D01*
X119144298Y-116836410D01*
X119120199Y-116907107D01*
X119115533Y-116919449D01*
X119097363Y-116964613D01*
X119077610Y-117009605D01*
X119056673Y-117053611D01*
X119034949Y-117095819D01*
X119012836Y-117135417D01*
X118990732Y-117171591D01*
X118989428Y-117173650D01*
X118986160Y-117178880D01*
X118983454Y-117182543D01*
X118980663Y-117184643D01*
X118977141Y-117185180D01*
X118972241Y-117184158D01*
X118965317Y-117181578D01*
X118955723Y-117177443D01*
X118942813Y-117171755D01*
X118913643Y-117158118D01*
X118875805Y-117137307D01*
X118840901Y-117114094D01*
X118808499Y-117088122D01*
X118778166Y-117059034D01*
X118749467Y-117026474D01*
X118721968Y-116990085D01*
X118721624Y-116989596D01*
X118704668Y-116964674D01*
X118686296Y-116936198D01*
X118666718Y-116904534D01*
X118646143Y-116870050D01*
X118624783Y-116833115D01*
X118602845Y-116794096D01*
X118580541Y-116753360D01*
X118558079Y-116711277D01*
X118535670Y-116668213D01*
X118513523Y-116624537D01*
X118509649Y-116616790D01*
X118503131Y-116603689D01*
X118498299Y-116593803D01*
X118495000Y-116586739D01*
X118493083Y-116582106D01*
X118492393Y-116579512D01*
X118492777Y-116578564D01*
X118494084Y-116578870D01*
X118496159Y-116580038D01*
X118498602Y-116581525D01*
X118507579Y-116586969D01*
X118519437Y-116594136D01*
X118533932Y-116602881D01*
X118550825Y-116613060D01*
X118569872Y-116624527D01*
X118590832Y-116637138D01*
X118613464Y-116650746D01*
X118637525Y-116665209D01*
X118662774Y-116680379D01*
X118688970Y-116696113D01*
X118715869Y-116712264D01*
X118743232Y-116728689D01*
X118770815Y-116745242D01*
X118798377Y-116761779D01*
X118825677Y-116778153D01*
X118852472Y-116794221D01*
X118878521Y-116809836D01*
X118903583Y-116824854D01*
X118927414Y-116839131D01*
X118949775Y-116852520D01*
X118970422Y-116864878D01*
X118989114Y-116876058D01*
X119005610Y-116885916D01*
X119019667Y-116894307D01*
X119031045Y-116901085D01*
X119039500Y-116906107D01*
X119044792Y-116909226D01*
X119046678Y-116910298D01*
X119046771Y-116910292D01*
X119047496Y-116909836D01*
X119048449Y-116908343D01*
X119049793Y-116905387D01*
X119051689Y-116900538D01*
X119054298Y-116893370D01*
X119057781Y-116883453D01*
X119062301Y-116870360D01*
X119068017Y-116853663D01*
X119083912Y-116804577D01*
X119097760Y-116755998D01*
X119109504Y-116707727D01*
X119119320Y-116658888D01*
X119127384Y-116608604D01*
X119133872Y-116555997D01*
X119138961Y-116500192D01*
X119139822Y-116489022D01*
X119132371Y-116489022D01*
X119131610Y-116489047D01*
X119126934Y-116489294D01*
X119118420Y-116489789D01*
X119106354Y-116490514D01*
X119091021Y-116491451D01*
X119072707Y-116492581D01*
X119051696Y-116493887D01*
X119028274Y-116495350D01*
X119002727Y-116496952D01*
X118975340Y-116498675D01*
X118946398Y-116500501D01*
X118916187Y-116502411D01*
X118884992Y-116504387D01*
X118853098Y-116506412D01*
X118820792Y-116508467D01*
X118788357Y-116510534D01*
X118756081Y-116512594D01*
X118724247Y-116514630D01*
X118693142Y-116516623D01*
X118663051Y-116518555D01*
X118634259Y-116520408D01*
X118607052Y-116522164D01*
X118581715Y-116523804D01*
X118558533Y-116525311D01*
X118537792Y-116526666D01*
X118519777Y-116527851D01*
X118504774Y-116528848D01*
X118493068Y-116529639D01*
X118484944Y-116530205D01*
X118480688Y-116530529D01*
X118466675Y-116531764D01*
X118431123Y-116457127D01*
X118424715Y-116443668D01*
X118412397Y-116417740D01*
X118401730Y-116395176D01*
X118392577Y-116375661D01*
X118384803Y-116358876D01*
X118378272Y-116344506D01*
X118372847Y-116332232D01*
X118368392Y-116321738D01*
X118364771Y-116312706D01*
X118361848Y-116304819D01*
X118359487Y-116297761D01*
X118357552Y-116291213D01*
X118355907Y-116284860D01*
X118354416Y-116278383D01*
X118354412Y-116278368D01*
X118342801Y-116234587D01*
X118327402Y-116191105D01*
X118309903Y-116151659D01*
X118360669Y-116151659D01*
X118361723Y-116152523D01*
X118367876Y-116152155D01*
X118379571Y-116151434D01*
X118394591Y-116150490D01*
X118412677Y-116149340D01*
X118433567Y-116148002D01*
X118456999Y-116146492D01*
X118482713Y-116144828D01*
X118510448Y-116143028D01*
X118539942Y-116141107D01*
X118570934Y-116139085D01*
X118603163Y-116136977D01*
X118636369Y-116134801D01*
X118670290Y-116132575D01*
X118704664Y-116130315D01*
X118739231Y-116128038D01*
X118773730Y-116125763D01*
X118807899Y-116123506D01*
X118841477Y-116121284D01*
X118874204Y-116119115D01*
X118905818Y-116117016D01*
X118936057Y-116115004D01*
X118964662Y-116113096D01*
X118991370Y-116111310D01*
X119015921Y-116109663D01*
X119038054Y-116108171D01*
X119057507Y-116106853D01*
X119074019Y-116105725D01*
X119087329Y-116104805D01*
X119097177Y-116104109D01*
X119103300Y-116103656D01*
X119105438Y-116103462D01*
X119105507Y-116102894D01*
X119104867Y-116098932D01*
X119103248Y-116091743D01*
X119100807Y-116081920D01*
X119097701Y-116070058D01*
X119094087Y-116056750D01*
X119090123Y-116042590D01*
X119085965Y-116028171D01*
X119081771Y-116014087D01*
X119078381Y-116003126D01*
X119062906Y-115957371D01*
X119045036Y-115910376D01*
X119025331Y-115863490D01*
X119004350Y-115818060D01*
X118982653Y-115775437D01*
X118979946Y-115770423D01*
X118972712Y-115757293D01*
X118965120Y-115743840D01*
X118957473Y-115730571D01*
X118950074Y-115717991D01*
X118943225Y-115706606D01*
X118937229Y-115696921D01*
X118932388Y-115689441D01*
X118929005Y-115684671D01*
X118927382Y-115683118D01*
X118926683Y-115683637D01*
X118922942Y-115686635D01*
X118915980Y-115692304D01*
X118905793Y-115700646D01*
X118892378Y-115711662D01*
X118875732Y-115725357D01*
X118855853Y-115741733D01*
X118832736Y-115760792D01*
X118806378Y-115782537D01*
X118776776Y-115806971D01*
X118743927Y-115834096D01*
X118707828Y-115863916D01*
X118668475Y-115896432D01*
X118625865Y-115931647D01*
X118579995Y-115969565D01*
X118530862Y-116010187D01*
X118478463Y-116053517D01*
X118422793Y-116099557D01*
X118363851Y-116148310D01*
X118363215Y-116148847D01*
X118360669Y-116151659D01*
X118309903Y-116151659D01*
X118308545Y-116148599D01*
X118286562Y-116107745D01*
X118261785Y-116069220D01*
X118234546Y-116033702D01*
X118230904Y-116029428D01*
X118213781Y-116010640D01*
X118194357Y-115991066D01*
X118173761Y-115971771D01*
X118153117Y-115953818D01*
X118133554Y-115938274D01*
X118125892Y-115932490D01*
X118117114Y-115925765D01*
X118110002Y-115920201D01*
X118105139Y-115916256D01*
X118103110Y-115914388D01*
X118102504Y-115913700D01*
X118099049Y-115912426D01*
X118098663Y-115912376D01*
X118094969Y-115910917D01*
X118089004Y-115907845D01*
X118081859Y-115903713D01*
X118076529Y-115900606D01*
X118066292Y-115895002D01*
X118054203Y-115888672D01*
X118041376Y-115882179D01*
X118028924Y-115876081D01*
X118017959Y-115870941D01*
X118009595Y-115867318D01*
X118008214Y-115866663D01*
X118003771Y-115864119D01*
X117996859Y-115859813D01*
X117987378Y-115853678D01*
X117986036Y-115852791D01*
X118115595Y-115852791D01*
X118116665Y-115851939D01*
X118120793Y-115848563D01*
X118127829Y-115842778D01*
X118137566Y-115834754D01*
X118149800Y-115824661D01*
X118164325Y-115812669D01*
X118180935Y-115798950D01*
X118199424Y-115783672D01*
X118219587Y-115767006D01*
X118241218Y-115749123D01*
X118264111Y-115730192D01*
X118288061Y-115710384D01*
X118312861Y-115689869D01*
X118338308Y-115668817D01*
X118364193Y-115647398D01*
X118390313Y-115625783D01*
X118416461Y-115604142D01*
X118442432Y-115582645D01*
X118468019Y-115561462D01*
X118493018Y-115540764D01*
X118517223Y-115520720D01*
X118540427Y-115501501D01*
X118562426Y-115483278D01*
X118583013Y-115466219D01*
X118601983Y-115450497D01*
X118619131Y-115436280D01*
X118634250Y-115423739D01*
X118647134Y-115413044D01*
X118657579Y-115404365D01*
X118665379Y-115397874D01*
X118670327Y-115393739D01*
X118672219Y-115392131D01*
X118673401Y-115390651D01*
X118673658Y-115388955D01*
X118672625Y-115386715D01*
X118669962Y-115383581D01*
X118665328Y-115379203D01*
X118658381Y-115373232D01*
X118648783Y-115365316D01*
X118636191Y-115355106D01*
X118618629Y-115341103D01*
X118578195Y-115310390D01*
X118538006Y-115282131D01*
X118496774Y-115255442D01*
X118453212Y-115229439D01*
X118445448Y-115225047D01*
X118431934Y-115217657D01*
X118417132Y-115209813D01*
X118401501Y-115201736D01*
X118385499Y-115193649D01*
X118369586Y-115185773D01*
X118354223Y-115178329D01*
X118339867Y-115171540D01*
X118326979Y-115165627D01*
X118316017Y-115160812D01*
X118307442Y-115157316D01*
X118301712Y-115155361D01*
X118299287Y-115155168D01*
X118298704Y-115157192D01*
X118297095Y-115163124D01*
X118294518Y-115172748D01*
X118291030Y-115185849D01*
X118286686Y-115202214D01*
X118281544Y-115221628D01*
X118275661Y-115243876D01*
X118269093Y-115268745D01*
X118261896Y-115296018D01*
X118254128Y-115325483D01*
X118245845Y-115356925D01*
X118237103Y-115390129D01*
X118227960Y-115424881D01*
X118218471Y-115460967D01*
X118208694Y-115498171D01*
X118199370Y-115533660D01*
X118189832Y-115569956D01*
X118180626Y-115604982D01*
X118171809Y-115638520D01*
X118163439Y-115670350D01*
X118155575Y-115700254D01*
X118148272Y-115728013D01*
X118141590Y-115753407D01*
X118135585Y-115776218D01*
X118130315Y-115796227D01*
X118125838Y-115813214D01*
X118122212Y-115826962D01*
X118119494Y-115837251D01*
X118117741Y-115843862D01*
X118117011Y-115846576D01*
X118116952Y-115846783D01*
X118115837Y-115851058D01*
X118115595Y-115852791D01*
X117986036Y-115852791D01*
X117975226Y-115845645D01*
X117960301Y-115835644D01*
X117942503Y-115823609D01*
X117921729Y-115809470D01*
X117897879Y-115793159D01*
X117870851Y-115774608D01*
X117840543Y-115753748D01*
X117806854Y-115730511D01*
X117804762Y-115729064D01*
X117792216Y-115720282D01*
X117781010Y-115712260D01*
X117771581Y-115705325D01*
X117764365Y-115699802D01*
X117759798Y-115696017D01*
X117758317Y-115694294D01*
X117758420Y-115693965D01*
X117759454Y-115690246D01*
X117761462Y-115682797D01*
X117764373Y-115671888D01*
X117768116Y-115657790D01*
X117772619Y-115640774D01*
X117777813Y-115621109D01*
X117783626Y-115599067D01*
X117789987Y-115574917D01*
X117796826Y-115548931D01*
X117804071Y-115521379D01*
X117811651Y-115492532D01*
X117819496Y-115462660D01*
X117827535Y-115432033D01*
X117835696Y-115400922D01*
X117843910Y-115369598D01*
X117852104Y-115338332D01*
X117860208Y-115307393D01*
X117868151Y-115277052D01*
X117875862Y-115247580D01*
X117883271Y-115219247D01*
X117890305Y-115192325D01*
X117896895Y-115167082D01*
X117902970Y-115143791D01*
X117908458Y-115122721D01*
X117913288Y-115104143D01*
X117917391Y-115088328D01*
X117920694Y-115075545D01*
X117923126Y-115066067D01*
X117924618Y-115060162D01*
X117925098Y-115058102D01*
X117924884Y-115058028D01*
X117921659Y-115057524D01*
X117915203Y-115056732D01*
X117906308Y-115055745D01*
X117895765Y-115054656D01*
X117890947Y-115054227D01*
X117876459Y-115053316D01*
X117858682Y-115052602D01*
X117838297Y-115052082D01*
X117815986Y-115051753D01*
X117792432Y-115051612D01*
X117768316Y-115051657D01*
X117744320Y-115051885D01*
X117721127Y-115052293D01*
X117699419Y-115052878D01*
X117679877Y-115053638D01*
X117663183Y-115054569D01*
X117650021Y-115055669D01*
X117637695Y-115057007D01*
X117606151Y-115060798D01*
X117576580Y-115064962D01*
X117547310Y-115069747D01*
X117516668Y-115075399D01*
X117476933Y-115083087D01*
X117481126Y-115094033D01*
X117481676Y-115095462D01*
X117483788Y-115100926D01*
X117487293Y-115109981D01*
X117492098Y-115122388D01*
X117498110Y-115137910D01*
X117505237Y-115156306D01*
X117513387Y-115177340D01*
X117522467Y-115200773D01*
X117532385Y-115226365D01*
X117543048Y-115253879D01*
X117554365Y-115283077D01*
X117566243Y-115313719D01*
X117578588Y-115345567D01*
X117591310Y-115378383D01*
X117599414Y-115399294D01*
X117611778Y-115431225D01*
X117623649Y-115461912D01*
X117634938Y-115491129D01*
X117645560Y-115518650D01*
X117655426Y-115544246D01*
X117664449Y-115567692D01*
X117672543Y-115588759D01*
X117679619Y-115607222D01*
X117685591Y-115622853D01*
X117690371Y-115635425D01*
X117693872Y-115644711D01*
X117696007Y-115650484D01*
X117696689Y-115652518D01*
X117695333Y-115651864D01*
X117690723Y-115648919D01*
X117683062Y-115643766D01*
X117672567Y-115636560D01*
X117659454Y-115627456D01*
X117643941Y-115616608D01*
X117626244Y-115604173D01*
X117606580Y-115590304D01*
X117585165Y-115575156D01*
X117562216Y-115558885D01*
X117537951Y-115541646D01*
X117512585Y-115523593D01*
X117486335Y-115504882D01*
X117459419Y-115485666D01*
X117432052Y-115466102D01*
X117404452Y-115446345D01*
X117376835Y-115426548D01*
X117349418Y-115406868D01*
X117322418Y-115387458D01*
X117296051Y-115368475D01*
X117270534Y-115350073D01*
X117246084Y-115332406D01*
X117222918Y-115315630D01*
X117201252Y-115299900D01*
X117181302Y-115285371D01*
X117163287Y-115272198D01*
X117147422Y-115260535D01*
X117133924Y-115250537D01*
X117123010Y-115242360D01*
X117119983Y-115240083D01*
X117110460Y-115232991D01*
X117099116Y-115224619D01*
X117087121Y-115215828D01*
X117075643Y-115207478D01*
X117068391Y-115202137D01*
X117059954Y-115195662D01*
X117053372Y-115190298D01*
X117049188Y-115186491D01*
X117047942Y-115184687D01*
X117049584Y-115183104D01*
X117054886Y-115179483D01*
X117063264Y-115174461D01*
X117074262Y-115168272D01*
X117087420Y-115161151D01*
X117102283Y-115153332D01*
X117118393Y-115145048D01*
X117135293Y-115136536D01*
X117152526Y-115128028D01*
X117169633Y-115119760D01*
X117186159Y-115111966D01*
X117201646Y-115104879D01*
X117215636Y-115098735D01*
X117251197Y-115084051D01*
X117313926Y-115060722D01*
X117376945Y-115040649D01*
X117440894Y-115023668D01*
X117506411Y-115009618D01*
X117574134Y-114998336D01*
X117644702Y-114989660D01*
X117645519Y-114989578D01*
X117659294Y-114988492D01*
X117676529Y-114987584D01*
X117696581Y-114986855D01*
X117718807Y-114986305D01*
X117742565Y-114985934D01*
X117767211Y-114985744D01*
X117792105Y-114985734D01*
X117816602Y-114985905D01*
X117840061Y-114986257D01*
X117861839Y-114986790D01*
X117881292Y-114987506D01*
X117897780Y-114988404D01*
X117910659Y-114989485D01*
X117915346Y-114989970D01*
X117925874Y-114990896D01*
X117934569Y-114991433D01*
X117940634Y-114991541D01*
X117943273Y-114991177D01*
X117944330Y-114990810D01*
X117948678Y-114991054D01*
X117954731Y-114992457D01*
X117957615Y-114993205D01*
X117965134Y-114994814D01*
X117975310Y-114996745D01*
X117987178Y-114998821D01*
X117999777Y-115000861D01*
X118045673Y-115008762D01*
X118120933Y-115025130D01*
X118195099Y-115045520D01*
X118267979Y-115069848D01*
X118339382Y-115098030D01*
X118409117Y-115129983D01*
X118476995Y-115165622D01*
X118542823Y-115204865D01*
X118606412Y-115247627D01*
X118667570Y-115293825D01*
X118723659Y-115340932D01*
X118775267Y-115388955D01*
X118781053Y-115394339D01*
G37*
G36*
X117257510Y-116642472D02*
G01*
X117279726Y-116686915D01*
X117305713Y-116729404D01*
X117335440Y-116769873D01*
X117336784Y-116771533D01*
X117346217Y-116782518D01*
X117357779Y-116795134D01*
X117370660Y-116808566D01*
X117384050Y-116821998D01*
X117397139Y-116834614D01*
X117409115Y-116845600D01*
X117419170Y-116854139D01*
X117430746Y-116863167D01*
X117452982Y-116879443D01*
X117475346Y-116894533D01*
X117496846Y-116907781D01*
X117516487Y-116918529D01*
X117517389Y-116919008D01*
X117522848Y-116922268D01*
X117528483Y-116925857D01*
X117531206Y-116927591D01*
X117542003Y-116934669D01*
X117554779Y-116943196D01*
X117569076Y-116952868D01*
X117584433Y-116963377D01*
X117600391Y-116974417D01*
X117614018Y-116983902D01*
X117629369Y-116994595D01*
X117645808Y-117006052D01*
X117662980Y-117018028D01*
X117680536Y-117030276D01*
X117698122Y-117042550D01*
X117715386Y-117054605D01*
X117731976Y-117066194D01*
X117747540Y-117077072D01*
X117761727Y-117086992D01*
X117774183Y-117095708D01*
X117784557Y-117102975D01*
X117792496Y-117108546D01*
X117797649Y-117112176D01*
X117799663Y-117113618D01*
X117799520Y-117114380D01*
X117798447Y-117118815D01*
X117796381Y-117127014D01*
X117793378Y-117138757D01*
X117789497Y-117153825D01*
X117784793Y-117171998D01*
X117779326Y-117193055D01*
X117773150Y-117216778D01*
X117766325Y-117242946D01*
X117758907Y-117271340D01*
X117750953Y-117301740D01*
X117742521Y-117333927D01*
X117733667Y-117367680D01*
X117724449Y-117402781D01*
X117714925Y-117439008D01*
X117709300Y-117460406D01*
X117699947Y-117496050D01*
X117690939Y-117530462D01*
X117682333Y-117563418D01*
X117674186Y-117594698D01*
X117666556Y-117624081D01*
X117659498Y-117651344D01*
X117653071Y-117676266D01*
X117647331Y-117698625D01*
X117642336Y-117718200D01*
X117638143Y-117734769D01*
X117634808Y-117748110D01*
X117632389Y-117758002D01*
X117630944Y-117764223D01*
X117630528Y-117766552D01*
X117630853Y-117766990D01*
X117634661Y-117768537D01*
X117642357Y-117769964D01*
X117653652Y-117771252D01*
X117668259Y-117772387D01*
X117685889Y-117773351D01*
X117706253Y-117774128D01*
X117729064Y-117774701D01*
X117754033Y-117775054D01*
X117780872Y-117775170D01*
X117814897Y-117774953D01*
X117845867Y-117774263D01*
X117874472Y-117773025D01*
X117901652Y-117771159D01*
X117928347Y-117768589D01*
X117955496Y-117765237D01*
X117984039Y-117761026D01*
X118014914Y-117755878D01*
X118020606Y-117754865D01*
X118033612Y-117752422D01*
X118047333Y-117749704D01*
X118061071Y-117746862D01*
X118074126Y-117744049D01*
X118085798Y-117741418D01*
X118095387Y-117739120D01*
X118102195Y-117737309D01*
X118105521Y-117736136D01*
X118105560Y-117736050D01*
X118104897Y-117733238D01*
X118102697Y-117726548D01*
X118098986Y-117716048D01*
X118093789Y-117701807D01*
X118087132Y-117683893D01*
X118079040Y-117662374D01*
X118069540Y-117637318D01*
X118058657Y-117608793D01*
X118046417Y-117576866D01*
X118032845Y-117541607D01*
X118017967Y-117503083D01*
X118001809Y-117461362D01*
X117993926Y-117441032D01*
X117981503Y-117408986D01*
X117969549Y-117378140D01*
X117958152Y-117348724D01*
X117947402Y-117320970D01*
X117937389Y-117295107D01*
X117928200Y-117271366D01*
X117919927Y-117249978D01*
X117912657Y-117231174D01*
X117906480Y-117215184D01*
X117901486Y-117202239D01*
X117897763Y-117192569D01*
X117895400Y-117186405D01*
X117894488Y-117183977D01*
X117894302Y-117183462D01*
X117894001Y-117182666D01*
X117893891Y-117182077D01*
X117894176Y-117181838D01*
X117895060Y-117182090D01*
X117896750Y-117182974D01*
X117899448Y-117184632D01*
X117903360Y-117187204D01*
X117908692Y-117190832D01*
X117915646Y-117195658D01*
X117924428Y-117201824D01*
X117935243Y-117209469D01*
X117948295Y-117218736D01*
X117963789Y-117229766D01*
X117981929Y-117242701D01*
X118002921Y-117257681D01*
X118026968Y-117274848D01*
X118054276Y-117294344D01*
X118079930Y-117312674D01*
X118111241Y-117335084D01*
X118142724Y-117357658D01*
X118174187Y-117380257D01*
X118205440Y-117402741D01*
X118236291Y-117424972D01*
X118266549Y-117446810D01*
X118296023Y-117468117D01*
X118324522Y-117488754D01*
X118351854Y-117508582D01*
X118377829Y-117527461D01*
X118402255Y-117545253D01*
X118424941Y-117561819D01*
X118445697Y-117577020D01*
X118464330Y-117590717D01*
X118480650Y-117602771D01*
X118494465Y-117613043D01*
X118505585Y-117621394D01*
X118513818Y-117627685D01*
X118518973Y-117631778D01*
X118520859Y-117633532D01*
X118520758Y-117633977D01*
X118518069Y-117636457D01*
X118512156Y-117640502D01*
X118503456Y-117645872D01*
X118492409Y-117652325D01*
X118479452Y-117659620D01*
X118465025Y-117667516D01*
X118449567Y-117675772D01*
X118433516Y-117684146D01*
X118417310Y-117692398D01*
X118401389Y-117700285D01*
X118386191Y-117707568D01*
X118323962Y-117734979D01*
X118251717Y-117762464D01*
X118178009Y-117786009D01*
X118103030Y-117805566D01*
X118026969Y-117821087D01*
X117950016Y-117832521D01*
X117872361Y-117839822D01*
X117865309Y-117840233D01*
X117849111Y-117840887D01*
X117830011Y-117841372D01*
X117808894Y-117841688D01*
X117786644Y-117841834D01*
X117764147Y-117841809D01*
X117742288Y-117841612D01*
X117721951Y-117841243D01*
X117704021Y-117840700D01*
X117689382Y-117839984D01*
X117678464Y-117839252D01*
X117600654Y-117831647D01*
X117523896Y-117819963D01*
X117448317Y-117804270D01*
X117374046Y-117784636D01*
X117301210Y-117761132D01*
X117229938Y-117733827D01*
X117160359Y-117702791D01*
X117092599Y-117668092D01*
X117026788Y-117629800D01*
X116963054Y-117587984D01*
X116901524Y-117542715D01*
X116842328Y-117494061D01*
X116785592Y-117442092D01*
X116760722Y-117416731D01*
X116858268Y-117416731D01*
X116859745Y-117419221D01*
X116863538Y-117423047D01*
X116870078Y-117428957D01*
X116909920Y-117463042D01*
X116953997Y-117497794D01*
X116999932Y-117531285D01*
X117046524Y-117562640D01*
X117092574Y-117590987D01*
X117102729Y-117596798D01*
X117118981Y-117605747D01*
X117137271Y-117615511D01*
X117156644Y-117625600D01*
X117176146Y-117635525D01*
X117194823Y-117644795D01*
X117211721Y-117652921D01*
X117225886Y-117659413D01*
X117237404Y-117664468D01*
X117245922Y-117668116D01*
X117251453Y-117670346D01*
X117254443Y-117671339D01*
X117255340Y-117671273D01*
X117255546Y-117670448D01*
X117256724Y-117665906D01*
X117258896Y-117657583D01*
X117262010Y-117645682D01*
X117266011Y-117630409D01*
X117270845Y-117611970D01*
X117276459Y-117590570D01*
X117282799Y-117566414D01*
X117289810Y-117539707D01*
X117297439Y-117510655D01*
X117305633Y-117479463D01*
X117314336Y-117446336D01*
X117323495Y-117411480D01*
X117333057Y-117375100D01*
X117342967Y-117337402D01*
X117353171Y-117298590D01*
X117359543Y-117274351D01*
X117369562Y-117236207D01*
X117379247Y-117199304D01*
X117388543Y-117163847D01*
X117397398Y-117130040D01*
X117405757Y-117098090D01*
X117413568Y-117068202D01*
X117420776Y-117040580D01*
X117427328Y-117015431D01*
X117433170Y-116992959D01*
X117438250Y-116973370D01*
X117442513Y-116956870D01*
X117445907Y-116943663D01*
X117448377Y-116933955D01*
X117449869Y-116927951D01*
X117450332Y-116925857D01*
X117449743Y-116926280D01*
X117446253Y-116929057D01*
X117439801Y-116934286D01*
X117430588Y-116941802D01*
X117418814Y-116951439D01*
X117404677Y-116963033D01*
X117388379Y-116976418D01*
X117370118Y-116991430D01*
X117350096Y-117007903D01*
X117328511Y-117025673D01*
X117305564Y-117044575D01*
X117281455Y-117064442D01*
X117256383Y-117085112D01*
X117230549Y-117106417D01*
X117204152Y-117128194D01*
X117177392Y-117150277D01*
X117150470Y-117172501D01*
X117123584Y-117194702D01*
X117096935Y-117216714D01*
X117070724Y-117238372D01*
X117045148Y-117259511D01*
X117020410Y-117279967D01*
X116996708Y-117299573D01*
X116974243Y-117318166D01*
X116953213Y-117335580D01*
X116933820Y-117351649D01*
X116916264Y-117366210D01*
X116900743Y-117379097D01*
X116887458Y-117390145D01*
X116876609Y-117399188D01*
X116868396Y-117406063D01*
X116863018Y-117410603D01*
X116860676Y-117412644D01*
X116860540Y-117412777D01*
X116858677Y-117414832D01*
X116858268Y-117416731D01*
X116760722Y-117416731D01*
X116731446Y-117386877D01*
X116680017Y-117328485D01*
X116631434Y-117266987D01*
X116618242Y-117249050D01*
X116574513Y-117185011D01*
X116534500Y-117118917D01*
X116498243Y-117050854D01*
X116465783Y-116980905D01*
X116437158Y-116909153D01*
X116412408Y-116835682D01*
X116391573Y-116760577D01*
X116387478Y-116743741D01*
X116376268Y-116692803D01*
X116373750Y-116678992D01*
X116441696Y-116678992D01*
X116442152Y-116682939D01*
X116443470Y-116690168D01*
X116445519Y-116700083D01*
X116448169Y-116712087D01*
X116451290Y-116725587D01*
X116454753Y-116739986D01*
X116458427Y-116754690D01*
X116471390Y-116801349D01*
X116490302Y-116859365D01*
X116512248Y-116917670D01*
X116536842Y-116975309D01*
X116563695Y-117031326D01*
X116592419Y-117084766D01*
X116595604Y-117090334D01*
X116601041Y-117099724D01*
X116605599Y-117107450D01*
X116608874Y-117112831D01*
X116610461Y-117115187D01*
X116611070Y-117114865D01*
X116614621Y-117112247D01*
X116621191Y-117107122D01*
X116630615Y-117099626D01*
X116642727Y-117089894D01*
X116657363Y-117078059D01*
X116674358Y-117064256D01*
X116693548Y-117048620D01*
X116714766Y-117031286D01*
X116737849Y-117012388D01*
X116762631Y-116992061D01*
X116788948Y-116970439D01*
X116816634Y-116947657D01*
X116845526Y-116923850D01*
X116875457Y-116899152D01*
X116906263Y-116873698D01*
X116933356Y-116851296D01*
X116967454Y-116823098D01*
X116998510Y-116797408D01*
X117026661Y-116774109D01*
X117052044Y-116753083D01*
X117074797Y-116734214D01*
X117095058Y-116717385D01*
X117112962Y-116702478D01*
X117128649Y-116689376D01*
X117142254Y-116677963D01*
X117153916Y-116668122D01*
X117163771Y-116659736D01*
X117171957Y-116652687D01*
X117178612Y-116646858D01*
X117183872Y-116642134D01*
X117187875Y-116638396D01*
X117190758Y-116635527D01*
X117192658Y-116633411D01*
X117193713Y-116631931D01*
X117194060Y-116630970D01*
X117193836Y-116630410D01*
X117193179Y-116630135D01*
X117192225Y-116630028D01*
X117191803Y-116630023D01*
X117187678Y-116630175D01*
X117179691Y-116630584D01*
X117168104Y-116631233D01*
X117153179Y-116632105D01*
X117135176Y-116633183D01*
X117114358Y-116634450D01*
X117090987Y-116635889D01*
X117065323Y-116637483D01*
X117037628Y-116639216D01*
X117008165Y-116641070D01*
X116977193Y-116643029D01*
X116944976Y-116645076D01*
X116911774Y-116647194D01*
X116877850Y-116649366D01*
X116843464Y-116651575D01*
X116808879Y-116653804D01*
X116774355Y-116656037D01*
X116740155Y-116658256D01*
X116706540Y-116660445D01*
X116673771Y-116662587D01*
X116642111Y-116664664D01*
X116611820Y-116666661D01*
X116583160Y-116668559D01*
X116556394Y-116670343D01*
X116531781Y-116671995D01*
X116509585Y-116673499D01*
X116490066Y-116674838D01*
X116473487Y-116675994D01*
X116460108Y-116676951D01*
X116450191Y-116677691D01*
X116443998Y-116678199D01*
X116441791Y-116678457D01*
X116441696Y-116678992D01*
X116373750Y-116678992D01*
X116367114Y-116642592D01*
X116359745Y-116591510D01*
X116353891Y-116537958D01*
X116352818Y-116524309D01*
X116351719Y-116504056D01*
X116350889Y-116480979D01*
X116350327Y-116455866D01*
X116350034Y-116429502D01*
X116350009Y-116402672D01*
X116350253Y-116376161D01*
X116350765Y-116350755D01*
X116351545Y-116327239D01*
X116352594Y-116306400D01*
X116353910Y-116289022D01*
X116357914Y-116251215D01*
X116369069Y-116173251D01*
X116383973Y-116097209D01*
X116402675Y-116022940D01*
X116425223Y-115950299D01*
X116451665Y-115879138D01*
X116482048Y-115809310D01*
X116516421Y-115740667D01*
X116554831Y-115673064D01*
X116559031Y-115666105D01*
X116564597Y-115656925D01*
X116569118Y-115649519D01*
X116572212Y-115644511D01*
X116573497Y-115642526D01*
X116575358Y-115642472D01*
X116580708Y-115643782D01*
X116588905Y-115646389D01*
X116599374Y-115650068D01*
X116611539Y-115654596D01*
X116624824Y-115659749D01*
X116638653Y-115665302D01*
X116652451Y-115671032D01*
X116665641Y-115676713D01*
X116677648Y-115682124D01*
X116687896Y-115687038D01*
X116700021Y-115693233D01*
X116727899Y-115708686D01*
X116752976Y-115724604D01*
X116776266Y-115741713D01*
X116798784Y-115760734D01*
X116821544Y-115782393D01*
X116831249Y-115792368D01*
X116846552Y-115809282D01*
X116861790Y-115827679D01*
X116877254Y-115847962D01*
X116893237Y-115870537D01*
X116910031Y-115895806D01*
X116927928Y-115924173D01*
X116947222Y-115956043D01*
X116948595Y-115958358D01*
X116956633Y-115972132D01*
X116965540Y-115987726D01*
X116975119Y-116004771D01*
X116985176Y-116022898D01*
X116995512Y-116041737D01*
X117005934Y-116060919D01*
X117016243Y-116080075D01*
X117026246Y-116098836D01*
X117035745Y-116116834D01*
X117044545Y-116133698D01*
X117052449Y-116149059D01*
X117059262Y-116162550D01*
X117064787Y-116173799D01*
X117068829Y-116182439D01*
X117071191Y-116188101D01*
X117071678Y-116190414D01*
X117071639Y-116190415D01*
X117069313Y-116189229D01*
X117063568Y-116185979D01*
X117054607Y-116180784D01*
X117042630Y-116173765D01*
X117027840Y-116165042D01*
X117010438Y-116154735D01*
X116990627Y-116142964D01*
X116968608Y-116129849D01*
X116944584Y-116115510D01*
X116918755Y-116100067D01*
X116891325Y-116083641D01*
X116862494Y-116066351D01*
X116832464Y-116048317D01*
X116801438Y-116029660D01*
X116798040Y-116027615D01*
X116767094Y-116009003D01*
X116737160Y-115991013D01*
X116708439Y-115973767D01*
X116681134Y-115957385D01*
X116655449Y-115941989D01*
X116631585Y-115927700D01*
X116609744Y-115914638D01*
X116590131Y-115902926D01*
X116572946Y-115892683D01*
X116558394Y-115884031D01*
X116546675Y-115877092D01*
X116537994Y-115871986D01*
X116532552Y-115868834D01*
X116530552Y-115867757D01*
X116529539Y-115868801D01*
X116527049Y-115873334D01*
X116523475Y-115880995D01*
X116519026Y-115891281D01*
X116513915Y-115903687D01*
X116508350Y-115917711D01*
X116502544Y-115932848D01*
X116496708Y-115948596D01*
X116483256Y-115987451D01*
X116462615Y-116056312D01*
X116445520Y-116126427D01*
X116432155Y-116197000D01*
X116422705Y-116267233D01*
X116419928Y-116293318D01*
X116432847Y-116292142D01*
X116433036Y-116292125D01*
X116437075Y-116291828D01*
X116445088Y-116291280D01*
X116456830Y-116290498D01*
X116472054Y-116289496D01*
X116490515Y-116288292D01*
X116511966Y-116286900D01*
X116536162Y-116285338D01*
X116562856Y-116283619D01*
X116591803Y-116281761D01*
X116622757Y-116279780D01*
X116655472Y-116277690D01*
X116689702Y-116275509D01*
X116725201Y-116273251D01*
X116761723Y-116270933D01*
X116765915Y-116270668D01*
X116802312Y-116268357D01*
X116837645Y-116266110D01*
X116871670Y-116263942D01*
X116904143Y-116261869D01*
X116934817Y-116259906D01*
X116963448Y-116258069D01*
X116989792Y-116256375D01*
X117013603Y-116254838D01*
X117034637Y-116253476D01*
X117052648Y-116252302D01*
X117067392Y-116251334D01*
X117078623Y-116250586D01*
X117086098Y-116250075D01*
X117089571Y-116249817D01*
X117101461Y-116248733D01*
X117115983Y-116280048D01*
X117124560Y-116298577D01*
X117139351Y-116330722D01*
X117152872Y-116360390D01*
X117165518Y-116388456D01*
X117177684Y-116415793D01*
X117189766Y-116443277D01*
X117196553Y-116458932D01*
X117202660Y-116473410D01*
X117207437Y-116485340D01*
X117211135Y-116495411D01*
X117214006Y-116504311D01*
X117216302Y-116512730D01*
X117218274Y-116521357D01*
X117224522Y-116548002D01*
X117239098Y-116596145D01*
X117252939Y-116630970D01*
X117257510Y-116642472D01*
G37*
G36*
X118316731Y-116411499D02*
G01*
X118348602Y-116479348D01*
X118379993Y-116544778D01*
X118410824Y-116607643D01*
X118441017Y-116667795D01*
X118470493Y-116725088D01*
X118499174Y-116779373D01*
X118526980Y-116830505D01*
X118553833Y-116878335D01*
X118579655Y-116922717D01*
X118604366Y-116963504D01*
X118627888Y-117000548D01*
X118650142Y-117033702D01*
X118651274Y-117035334D01*
X118664619Y-117054207D01*
X118676639Y-117070381D01*
X118688085Y-117084766D01*
X118699706Y-117098272D01*
X118712253Y-117111809D01*
X118726476Y-117126288D01*
X118728880Y-117128667D01*
X118758815Y-117156083D01*
X118790813Y-117181332D01*
X118825167Y-117204573D01*
X118862171Y-117225964D01*
X118902119Y-117245664D01*
X118945307Y-117263830D01*
X118992027Y-117280621D01*
X119042574Y-117296194D01*
X119049179Y-117298072D01*
X119062792Y-117301873D01*
X119076279Y-117305529D01*
X119090070Y-117309142D01*
X119104592Y-117312815D01*
X119120277Y-117316649D01*
X119137551Y-117320748D01*
X119156845Y-117325214D01*
X119178586Y-117330149D01*
X119203204Y-117335655D01*
X119231128Y-117341836D01*
X119262787Y-117348793D01*
X119287546Y-117354234D01*
X119324486Y-117362423D01*
X119358041Y-117369974D01*
X119388697Y-117377017D01*
X119416939Y-117383681D01*
X119443254Y-117390095D01*
X119468125Y-117396387D01*
X119492040Y-117402686D01*
X119515483Y-117409122D01*
X119538940Y-117415824D01*
X119562896Y-117422919D01*
X119587837Y-117430537D01*
X119614249Y-117438808D01*
X119642616Y-117447859D01*
X119673425Y-117457820D01*
X119681080Y-117460312D01*
X119727366Y-117475626D01*
X119770144Y-117490251D01*
X119809972Y-117504408D01*
X119847402Y-117518318D01*
X119882991Y-117532204D01*
X119917292Y-117546285D01*
X119950862Y-117560783D01*
X119984255Y-117575920D01*
X120018025Y-117591916D01*
X120052729Y-117608992D01*
X120090526Y-117628309D01*
X120146257Y-117658119D01*
X120204064Y-117690488D01*
X120263457Y-117725098D01*
X120323944Y-117761631D01*
X120385035Y-117799770D01*
X120446238Y-117839196D01*
X120507063Y-117879592D01*
X120567018Y-117920640D01*
X120625612Y-117962022D01*
X120682354Y-118003420D01*
X120736754Y-118044518D01*
X120788319Y-118084996D01*
X120789867Y-118086238D01*
X120813694Y-118105488D01*
X120837011Y-118124619D01*
X120859997Y-118143803D01*
X120882830Y-118163209D01*
X120905690Y-118183009D01*
X120928755Y-118203372D01*
X120952205Y-118224471D01*
X120976218Y-118246475D01*
X121000973Y-118269554D01*
X121026649Y-118293881D01*
X121053425Y-118319626D01*
X121081479Y-118346958D01*
X121110992Y-118376049D01*
X121142141Y-118407070D01*
X121175105Y-118440192D01*
X121210064Y-118475584D01*
X121247196Y-118513418D01*
X121286681Y-118553864D01*
X121328696Y-118597094D01*
X121373421Y-118643277D01*
X121375491Y-118645417D01*
X121400346Y-118671048D01*
X121426590Y-118697998D01*
X121453968Y-118726009D01*
X121482224Y-118754824D01*
X121511102Y-118784186D01*
X121540346Y-118813838D01*
X121569700Y-118843522D01*
X121598908Y-118872982D01*
X121627713Y-118901959D01*
X121655861Y-118930197D01*
X121683094Y-118957439D01*
X121709156Y-118983427D01*
X121733793Y-119007904D01*
X121756746Y-119030612D01*
X121777762Y-119051295D01*
X121796583Y-119069696D01*
X121812953Y-119085556D01*
X121826617Y-119098618D01*
X121830775Y-119102555D01*
X121861040Y-119131105D01*
X121890603Y-119158798D01*
X121919770Y-119185908D01*
X121948848Y-119212709D01*
X121978143Y-119239476D01*
X122007962Y-119266483D01*
X122038611Y-119294004D01*
X122070396Y-119322314D01*
X122103625Y-119351686D01*
X122138604Y-119382395D01*
X122175640Y-119414715D01*
X122215038Y-119448920D01*
X122257105Y-119485285D01*
X122302148Y-119524084D01*
X122312037Y-119532592D01*
X122332341Y-119550080D01*
X122352428Y-119567405D01*
X122371922Y-119584242D01*
X122390447Y-119600264D01*
X122407624Y-119615145D01*
X122423079Y-119628559D01*
X122436434Y-119640180D01*
X122447313Y-119649682D01*
X122455340Y-119656739D01*
X122468939Y-119668950D01*
X122484422Y-119683243D01*
X122500035Y-119698021D01*
X122515367Y-119712870D01*
X122530003Y-119727373D01*
X122543530Y-119741118D01*
X122555536Y-119753688D01*
X122565608Y-119764669D01*
X122573331Y-119773646D01*
X122578293Y-119780203D01*
X122587230Y-119793725D01*
X122583519Y-119800082D01*
X122579673Y-119805365D01*
X122572602Y-119813076D01*
X122563485Y-119821806D01*
X122553122Y-119830831D01*
X122542313Y-119839426D01*
X122531857Y-119846868D01*
X122523434Y-119852239D01*
X122497026Y-119867028D01*
X122467117Y-119881144D01*
X122434251Y-119894394D01*
X122398970Y-119906585D01*
X122361817Y-119917525D01*
X122323334Y-119927020D01*
X122284063Y-119934878D01*
X122262743Y-119937959D01*
X122237867Y-119939682D01*
X122212510Y-119939296D01*
X122185896Y-119936755D01*
X122157252Y-119932010D01*
X122125802Y-119925012D01*
X122118310Y-119923129D01*
X122095614Y-119916942D01*
X122071733Y-119909721D01*
X122046582Y-119901421D01*
X122020075Y-119891997D01*
X121992126Y-119881404D01*
X121962651Y-119869597D01*
X121931562Y-119856532D01*
X121898774Y-119842162D01*
X121864202Y-119826445D01*
X121827760Y-119809333D01*
X121789361Y-119790783D01*
X121748921Y-119770750D01*
X121706354Y-119749188D01*
X121661573Y-119726053D01*
X121614493Y-119701300D01*
X121565029Y-119674883D01*
X121513094Y-119646758D01*
X121458603Y-119616879D01*
X121401470Y-119585203D01*
X121341610Y-119551684D01*
X121278936Y-119516276D01*
X121213363Y-119478936D01*
X121144806Y-119439617D01*
X121073178Y-119398276D01*
X120998393Y-119354867D01*
X120920367Y-119309345D01*
X120839013Y-119261665D01*
X120754245Y-119211783D01*
X120665978Y-119159653D01*
X120589870Y-119114151D01*
X120494622Y-119055895D01*
X120398909Y-118995943D01*
X120303052Y-118934519D01*
X120207368Y-118871850D01*
X120112177Y-118808160D01*
X120017797Y-118743674D01*
X119924546Y-118678618D01*
X119832745Y-118613217D01*
X119742710Y-118547695D01*
X119654762Y-118482279D01*
X119569219Y-118417193D01*
X119486399Y-118352662D01*
X119406621Y-118288911D01*
X119330204Y-118226166D01*
X119257468Y-118164652D01*
X119239390Y-118149019D01*
X119209680Y-118122941D01*
X119178772Y-118095383D01*
X119147115Y-118066765D01*
X119115156Y-118037504D01*
X119083343Y-118008021D01*
X119052125Y-117978733D01*
X119021949Y-117950059D01*
X118993264Y-117922417D01*
X118966518Y-117896228D01*
X118942158Y-117871908D01*
X118920633Y-117849878D01*
X118908020Y-117836869D01*
X118895543Y-117824247D01*
X118883211Y-117812074D01*
X118870802Y-117800167D01*
X118858088Y-117788342D01*
X118844846Y-117776418D01*
X118830849Y-117764210D01*
X118815872Y-117751535D01*
X118799691Y-117738211D01*
X118782080Y-117724054D01*
X118762813Y-117708882D01*
X118741666Y-117692510D01*
X118718413Y-117674756D01*
X118692829Y-117655436D01*
X118664689Y-117634369D01*
X118633767Y-117611369D01*
X118599839Y-117586255D01*
X118562678Y-117558843D01*
X118556702Y-117554442D01*
X118521762Y-117528766D01*
X118485577Y-117502265D01*
X118448303Y-117475049D01*
X118410096Y-117447230D01*
X118371112Y-117418918D01*
X118331509Y-117390224D01*
X118291441Y-117361260D01*
X118251065Y-117332135D01*
X118210538Y-117302962D01*
X118170015Y-117273850D01*
X118129653Y-117244911D01*
X118089609Y-117216256D01*
X118050037Y-117187996D01*
X118011096Y-117160241D01*
X117972940Y-117133103D01*
X117935727Y-117106692D01*
X117899612Y-117081119D01*
X117864751Y-117056495D01*
X117831302Y-117032932D01*
X117799419Y-117010540D01*
X117769260Y-116989429D01*
X117740981Y-116969711D01*
X117714737Y-116951498D01*
X117690686Y-116934898D01*
X117668983Y-116920025D01*
X117649784Y-116906988D01*
X117633246Y-116895898D01*
X117619526Y-116886866D01*
X117608779Y-116880004D01*
X117601161Y-116875422D01*
X117596829Y-116873231D01*
X117595636Y-116872781D01*
X117588967Y-116870003D01*
X117579808Y-116865929D01*
X117569209Y-116861035D01*
X117558218Y-116855793D01*
X117541946Y-116847506D01*
X117503556Y-116824658D01*
X117467423Y-116798398D01*
X117433767Y-116768988D01*
X117402806Y-116736693D01*
X117374760Y-116701775D01*
X117349848Y-116664499D01*
X117328291Y-116625127D01*
X117310306Y-116583922D01*
X117296114Y-116541149D01*
X117294353Y-116534667D01*
X117289418Y-116514071D01*
X117285137Y-116492631D01*
X117281810Y-116471949D01*
X117279736Y-116453626D01*
X117279730Y-116453556D01*
X117279276Y-116449021D01*
X117278580Y-116444491D01*
X117277502Y-116439614D01*
X117275903Y-116434037D01*
X117273645Y-116427409D01*
X117270587Y-116419378D01*
X117266591Y-116409590D01*
X117262565Y-116400153D01*
X117407406Y-116400153D01*
X117409083Y-116439321D01*
X117414942Y-116478521D01*
X117422563Y-116508930D01*
X117435534Y-116545341D01*
X117452256Y-116580337D01*
X117472478Y-116613521D01*
X117495955Y-116644495D01*
X117522437Y-116672861D01*
X117551678Y-116698220D01*
X117564587Y-116707833D01*
X117598265Y-116729291D01*
X117633680Y-116746867D01*
X117670799Y-116760547D01*
X117709589Y-116770320D01*
X117750021Y-116776173D01*
X117759618Y-116777012D01*
X117773500Y-116777842D01*
X117786240Y-116777956D01*
X117799616Y-116777349D01*
X117815407Y-116776016D01*
X117846954Y-116771571D01*
X117884871Y-116762445D01*
X117921590Y-116749452D01*
X117956768Y-116732781D01*
X117990061Y-116712621D01*
X118021123Y-116689163D01*
X118049609Y-116662596D01*
X118075177Y-116633109D01*
X118080234Y-116626452D01*
X118102277Y-116593312D01*
X118120530Y-116558473D01*
X118134928Y-116522211D01*
X118145406Y-116484806D01*
X118151898Y-116446536D01*
X118154338Y-116407677D01*
X118152661Y-116368509D01*
X118146801Y-116329309D01*
X118139181Y-116298900D01*
X118126209Y-116262490D01*
X118109488Y-116227494D01*
X118089265Y-116194310D01*
X118065789Y-116163336D01*
X118039307Y-116134970D01*
X118010066Y-116109610D01*
X118003409Y-116104553D01*
X117970269Y-116082510D01*
X117935429Y-116064257D01*
X117899168Y-116049859D01*
X117861763Y-116039381D01*
X117823492Y-116032889D01*
X117784634Y-116030449D01*
X117745466Y-116032126D01*
X117706266Y-116037986D01*
X117675857Y-116045606D01*
X117639446Y-116058578D01*
X117604450Y-116075299D01*
X117571266Y-116095522D01*
X117540292Y-116118998D01*
X117511926Y-116145480D01*
X117486567Y-116174721D01*
X117481509Y-116181378D01*
X117459467Y-116214518D01*
X117441214Y-116249358D01*
X117426816Y-116285619D01*
X117416338Y-116323024D01*
X117409846Y-116361295D01*
X117407406Y-116400153D01*
X117262565Y-116400153D01*
X117261517Y-116397696D01*
X117255225Y-116383341D01*
X117247577Y-116366175D01*
X117238434Y-116345846D01*
X117227655Y-116322000D01*
X117222260Y-116310115D01*
X117193473Y-116247807D01*
X117164811Y-116187621D01*
X117136422Y-116129841D01*
X117108449Y-116074747D01*
X117081039Y-116022624D01*
X117054336Y-115973752D01*
X117028486Y-115928415D01*
X117003634Y-115886894D01*
X116993709Y-115870921D01*
X116971230Y-115836115D01*
X116949657Y-115804817D01*
X116928665Y-115776659D01*
X116907932Y-115751276D01*
X116887132Y-115728301D01*
X116865942Y-115707367D01*
X116844037Y-115688109D01*
X116821093Y-115670160D01*
X116796786Y-115653153D01*
X116764833Y-115633185D01*
X116730767Y-115614535D01*
X116694755Y-115597460D01*
X116656036Y-115581598D01*
X116613851Y-115566591D01*
X116606845Y-115564276D01*
X116591111Y-115559204D01*
X116575457Y-115554363D01*
X116559498Y-115549655D01*
X116542846Y-115544984D01*
X116525116Y-115540252D01*
X116505920Y-115535361D01*
X116484872Y-115530215D01*
X116461585Y-115524716D01*
X116435673Y-115518767D01*
X116406749Y-115512270D01*
X116374426Y-115505128D01*
X116338319Y-115497244D01*
X116308276Y-115490687D01*
X116271801Y-115482625D01*
X116238552Y-115475128D01*
X116207986Y-115468051D01*
X116179564Y-115461252D01*
X116152742Y-115454584D01*
X116126981Y-115447905D01*
X116101740Y-115441070D01*
X116076475Y-115433935D01*
X116050647Y-115426356D01*
X116023714Y-115418188D01*
X115995135Y-115409288D01*
X115964368Y-115399511D01*
X115930872Y-115388712D01*
X115923085Y-115386183D01*
X115876445Y-115370767D01*
X115833267Y-115355982D01*
X115792949Y-115341587D01*
X115754893Y-115327338D01*
X115718498Y-115312996D01*
X115683165Y-115298317D01*
X115648293Y-115283061D01*
X115613282Y-115266986D01*
X115577534Y-115249849D01*
X115540446Y-115231410D01*
X115510759Y-115216206D01*
X115467798Y-115193446D01*
X115424298Y-115169484D01*
X115379719Y-115144009D01*
X115333519Y-115116710D01*
X115285157Y-115087277D01*
X115234094Y-115055399D01*
X115208562Y-115039186D01*
X115136982Y-114992704D01*
X115067660Y-114946147D01*
X115000960Y-114899773D01*
X114937245Y-114853839D01*
X114876882Y-114808600D01*
X114820234Y-114764314D01*
X114807803Y-114754333D01*
X114782710Y-114733928D01*
X114757957Y-114713429D01*
X114733354Y-114692657D01*
X114708714Y-114671432D01*
X114683847Y-114649575D01*
X114658564Y-114626906D01*
X114632678Y-114603246D01*
X114605999Y-114578416D01*
X114578338Y-114552237D01*
X114549508Y-114524528D01*
X114519318Y-114495112D01*
X114487581Y-114463808D01*
X114454107Y-114430437D01*
X114418709Y-114394819D01*
X114381196Y-114356776D01*
X114341382Y-114316128D01*
X114299076Y-114272696D01*
X114254090Y-114226300D01*
X114233054Y-114204572D01*
X114182924Y-114152886D01*
X114135371Y-114104011D01*
X114090165Y-114057730D01*
X114047079Y-114013825D01*
X114005882Y-113972080D01*
X113966347Y-113932278D01*
X113928243Y-113894200D01*
X113891342Y-113857631D01*
X113855415Y-113822353D01*
X113820233Y-113788148D01*
X113785567Y-113754800D01*
X113751188Y-113722092D01*
X113716867Y-113689807D01*
X113682376Y-113657727D01*
X113647484Y-113625635D01*
X113611963Y-113593314D01*
X113575585Y-113560547D01*
X113538119Y-113527117D01*
X113499338Y-113492807D01*
X113459012Y-113457400D01*
X113416912Y-113420678D01*
X113372810Y-113382425D01*
X113326475Y-113342422D01*
X113277680Y-113300454D01*
X113251317Y-113277784D01*
X113223347Y-113253641D01*
X113198229Y-113231849D01*
X113175738Y-113212209D01*
X113155648Y-113194520D01*
X113137735Y-113178583D01*
X113121772Y-113164199D01*
X113107534Y-113151167D01*
X113094795Y-113139288D01*
X113083330Y-113128362D01*
X113076704Y-113121881D01*
X113064362Y-113109335D01*
X113052670Y-113096875D01*
X113042123Y-113085061D01*
X113033216Y-113074455D01*
X113026442Y-113065618D01*
X113022297Y-113059111D01*
X113021832Y-113058201D01*
X113020182Y-113053981D01*
X113020640Y-113050440D01*
X113023370Y-113045493D01*
X113028500Y-113038407D01*
X113039347Y-113027052D01*
X113053542Y-113015129D01*
X113070622Y-113002940D01*
X113090124Y-112990787D01*
X113111585Y-112978971D01*
X113134542Y-112967792D01*
X113158531Y-112957553D01*
X113159518Y-112957162D01*
X113185956Y-112947414D01*
X113214394Y-112938166D01*
X113243871Y-112929664D01*
X113273425Y-112922152D01*
X113302093Y-112915876D01*
X113328913Y-112911081D01*
X113352925Y-112908012D01*
X113365141Y-112907188D01*
X113389751Y-112907330D01*
X113416650Y-112909698D01*
X113445918Y-112914322D01*
X113477640Y-112921231D01*
X113511898Y-112930456D01*
X113548772Y-112942026D01*
X113588347Y-112955970D01*
X113630705Y-112972319D01*
X113675927Y-112991102D01*
X113724096Y-113012348D01*
X113775295Y-113036088D01*
X113829606Y-113062352D01*
X113887111Y-113091168D01*
X113947893Y-113122567D01*
X113981212Y-113140116D01*
X114020911Y-113161277D01*
X114062368Y-113183637D01*
X114105707Y-113207265D01*
X114151051Y-113232232D01*
X114198523Y-113258609D01*
X114248247Y-113286464D01*
X114300346Y-113315870D01*
X114354945Y-113346895D01*
X114412166Y-113379610D01*
X114472133Y-113414085D01*
X114534969Y-113450391D01*
X114600799Y-113488597D01*
X114669745Y-113528775D01*
X114741932Y-113570993D01*
X114817482Y-113615323D01*
X114896519Y-113661834D01*
X114984130Y-113713991D01*
X115123863Y-113799384D01*
X115262377Y-113886738D01*
X115399293Y-113975792D01*
X115534231Y-114066289D01*
X115666812Y-114157967D01*
X115796656Y-114250567D01*
X115923385Y-114343829D01*
X116046619Y-114437493D01*
X116165978Y-114531299D01*
X116203284Y-114561316D01*
X116257935Y-114606039D01*
X116310641Y-114650146D01*
X116361965Y-114694138D01*
X116412468Y-114738520D01*
X116462713Y-114783792D01*
X116513263Y-114830458D01*
X116564679Y-114879020D01*
X116617524Y-114929981D01*
X116672361Y-114983843D01*
X116684728Y-114996054D01*
X116701791Y-115012782D01*
X116718421Y-115028956D01*
X116734251Y-115044225D01*
X116748913Y-115058239D01*
X116762038Y-115070645D01*
X116773260Y-115081093D01*
X116782210Y-115089233D01*
X116788521Y-115094712D01*
X116795913Y-115100784D01*
X116814563Y-115115772D01*
X116836460Y-115132985D01*
X116861425Y-115152295D01*
X116889281Y-115173573D01*
X116919850Y-115196689D01*
X116952954Y-115221515D01*
X116988415Y-115247922D01*
X117026057Y-115275782D01*
X117065701Y-115304964D01*
X117107169Y-115335341D01*
X117150285Y-115366782D01*
X117194869Y-115399161D01*
X117240745Y-115432347D01*
X117287735Y-115466212D01*
X117335662Y-115500626D01*
X117384346Y-115535462D01*
X117433612Y-115570589D01*
X117483280Y-115605879D01*
X117533174Y-115641204D01*
X117583116Y-115676434D01*
X117632928Y-115711440D01*
X117682433Y-115746094D01*
X117731452Y-115780267D01*
X117779808Y-115813829D01*
X117791700Y-115822062D01*
X117818236Y-115840416D01*
X117841610Y-115856548D01*
X117862052Y-115870613D01*
X117879795Y-115882763D01*
X117895070Y-115893151D01*
X117908108Y-115901928D01*
X117919140Y-115909249D01*
X117928398Y-115915266D01*
X117936113Y-115920131D01*
X117942517Y-115923997D01*
X117947841Y-115927017D01*
X117952317Y-115929344D01*
X117956175Y-115931131D01*
X117959647Y-115932529D01*
X117968155Y-115935842D01*
X117995612Y-115948101D01*
X118023885Y-115962859D01*
X118051723Y-115979386D01*
X118077874Y-115996955D01*
X118101085Y-116014836D01*
X118119807Y-116031195D01*
X118152913Y-116064286D01*
X118182506Y-116099726D01*
X118208519Y-116137408D01*
X118230889Y-116177221D01*
X118249551Y-116219057D01*
X118264439Y-116262807D01*
X118275488Y-116308360D01*
X118276218Y-116312002D01*
X118277625Y-116318413D01*
X118279222Y-116324548D01*
X118281213Y-116330921D01*
X118283801Y-116338047D01*
X118287188Y-116346444D01*
X118291579Y-116356626D01*
X118297177Y-116369109D01*
X118304183Y-116384409D01*
X118312803Y-116403041D01*
X118314956Y-116407677D01*
X118316731Y-116411499D01*
G37*
X60675000Y-120364400D02*
X104425000Y-120364400D01*
X60675000Y-141814400D02*
X60675000Y-120364400D01*
X60680000Y-120619400D02*
X63810000Y-120619400D01*
X60680000Y-123779400D02*
X63810000Y-123779400D01*
X60680000Y-138404400D02*
X63810000Y-138399400D01*
X60680000Y-141559400D02*
X61980000Y-141559400D01*
X63810000Y-123779400D02*
X63810000Y-120619400D01*
X63810000Y-138709400D02*
X63810000Y-138399400D01*
X70979233Y-138975251D02*
X70979233Y-138813713D01*
X70980233Y-130990294D02*
X70980233Y-140341790D01*
X70980233Y-130990294D02*
X71057797Y-130912730D01*
X70980233Y-140341790D02*
X72630233Y-140632729D01*
X71057797Y-130912730D02*
X81062670Y-130912730D01*
X71261636Y-121671183D02*
X71261636Y-123421183D01*
X71261636Y-123421183D02*
X71711636Y-123421183D01*
X71711636Y-121396183D02*
X71711636Y-123696183D01*
X71711636Y-121671183D02*
X71261636Y-121671183D01*
X71811636Y-123796183D02*
X75411636Y-123796183D01*
X72240233Y-126282730D02*
X72240233Y-130912730D01*
X72240233Y-126282730D02*
X73080233Y-126282730D01*
X72630233Y-140632729D02*
X79490233Y-140632729D01*
X73080233Y-126282730D02*
X73080233Y-130912730D01*
X73940233Y-126282730D02*
X73940233Y-130912730D01*
X73940233Y-126282730D02*
X74780233Y-126282730D01*
X74641358Y-123696183D02*
X74641358Y-121396183D01*
X74780233Y-126282730D02*
X74780233Y-130912730D01*
X75411636Y-121296183D02*
X71811636Y-121296183D01*
X75511636Y-123421183D02*
X75961636Y-123421183D01*
X75511636Y-123696183D02*
X75511636Y-121396183D01*
X75512636Y-123184704D02*
X75512636Y-123279256D01*
X75640233Y-126282730D02*
X75640233Y-130912730D01*
X75640233Y-126282730D02*
X76480233Y-126282730D01*
X75961636Y-121671183D02*
X75511636Y-121671183D01*
X75961636Y-123421183D02*
X75961636Y-121671183D01*
X76480233Y-126282730D02*
X76480233Y-130912730D01*
X77340233Y-126282730D02*
X77340233Y-130912730D01*
X77340233Y-126282730D02*
X78180233Y-126282730D01*
X78180233Y-126282730D02*
X78180233Y-130912730D01*
X79040233Y-126282730D02*
X79040233Y-130912730D01*
X79040233Y-126282730D02*
X79880233Y-126282730D01*
X79490233Y-140632729D02*
X81140233Y-140341790D01*
X79880233Y-126282730D02*
X79880233Y-130912730D01*
X81062670Y-130912730D02*
X81140233Y-130990294D01*
X81140233Y-130990294D02*
X81140233Y-140341790D01*
X81140233Y-139552730D02*
X70980233Y-139552730D01*
X82697397Y-132393604D02*
X82697397Y-122693604D01*
X84197397Y-121193604D02*
X93897397Y-121193604D01*
X85529783Y-136397106D02*
X85529783Y-141297105D01*
X85579783Y-141347105D02*
X95479783Y-141347105D01*
X86566385Y-140028500D02*
X86590553Y-139997105D01*
X86578594Y-139972106D02*
X86554147Y-139977338D01*
X86578594Y-139972106D02*
X86585764Y-140003325D01*
X86578594Y-139972106D02*
X86590553Y-139997105D01*
X86590553Y-139497106D02*
X88669014Y-139497106D01*
X88669014Y-139997105D02*
X86590553Y-139997105D01*
X93897397Y-133893604D02*
X84197397Y-133893604D01*
X94088978Y-141348105D02*
X94044106Y-141348105D01*
X94172312Y-141348105D02*
X94138357Y-141348105D01*
X95397397Y-122693604D02*
X95397397Y-132393604D01*
X95479783Y-136347106D02*
X85579783Y-136347106D01*
X95529783Y-141297105D02*
X95529783Y-136397106D01*
X98878681Y-138999105D02*
X98878681Y-140599104D01*
X98878681Y-140279104D02*
X99678681Y-140279104D01*
X99678681Y-138999105D02*
X98878681Y-138999105D01*
X99678681Y-139319105D02*
X98878681Y-139319105D01*
X99678681Y-140599104D02*
X98878681Y-140599104D01*
X99678681Y-140599104D02*
X99678681Y-138999105D01*
X101290000Y-120619400D02*
X101290000Y-123779400D01*
X101290000Y-120619400D02*
X104405000Y-120619400D01*
X101290000Y-123779400D02*
X104405000Y-123779400D01*
X101290000Y-138399400D02*
X101290000Y-141559400D01*
X101290000Y-138399400D02*
X104450000Y-138399400D01*
X101290000Y-141559400D02*
X104405000Y-141559400D01*
X104425000Y-120364400D02*
X104425000Y-141814400D01*
X104425000Y-141814400D02*
X60675000Y-141814400D01*
X71811636Y-121296236D02*
G75*
G03*
X71711636Y-121396183I-36J-99964D01*
G01*
X71711617Y-123696183D02*
G75*
G03*
X71811636Y-123796183I99983J-17D01*
G01*
X75511617Y-121396183D02*
G75*
G03*
X75411636Y-121296183I-100017J-17D01*
G01*
X75411636Y-123796236D02*
G75*
G03*
X75511636Y-123696183I-36J100036D01*
G01*
X84197397Y-121193597D02*
G75*
G03*
X82697397Y-122693604I3J-1500003D01*
G01*
X84045239Y-124708003D02*
G75*
G03*
X84011132Y-124573819I-87039J49303D01*
G01*
X86077618Y-122507333D02*
G75*
G03*
X84011132Y-124573818I-1272818J-793667D01*
G01*
X84011130Y-130513388D02*
G75*
G03*
X84045217Y-130379217I-53030J84888D01*
G01*
X84045215Y-124707988D02*
G75*
G03*
X84045218Y-130379217I5002185J-2835612D01*
G01*
X82697396Y-132393604D02*
G75*
G03*
X84197397Y-133893604I1500004J4D01*
G01*
X85579783Y-136347083D02*
G75*
G03*
X85529783Y-136397106I17J-50017D01*
G01*
X85529795Y-141297105D02*
G75*
G03*
X85579783Y-141347105I50005J5D01*
G01*
X84011132Y-130513389D02*
G75*
G03*
X86077611Y-132579869I793668J-1272811D01*
G01*
X86211768Y-132545810D02*
G75*
G03*
X86077611Y-132579869I-49368J-86790D01*
G01*
X86077611Y-122507338D02*
G75*
G03*
X86211783Y-122541423I84889J53038D01*
G01*
X91883011Y-122541424D02*
G75*
G03*
X86211783Y-122541424I-2835614J-5002180D01*
G01*
X86554148Y-139516873D02*
G75*
G03*
X86566385Y-139465710I1075652J-230227D01*
G01*
X86211785Y-132545782D02*
G75*
G03*
X91883011Y-132545782I2835613J5002177D01*
G01*
X92017188Y-132579866D02*
G75*
G03*
X91883011Y-132545784I-84888J-53034D01*
G01*
X91882999Y-122541445D02*
G75*
G03*
X92017182Y-122507338I49301J87045D01*
G01*
X94083661Y-124573817D02*
G75*
G03*
X92017183Y-122507338I-793661J1272817D01*
G01*
X95397396Y-122693604D02*
G75*
G03*
X93897397Y-121193604I-1499996J4D01*
G01*
X94049573Y-130379215D02*
G75*
G03*
X94049576Y-124707990I-5002173J2835615D01*
G01*
X94083676Y-124573838D02*
G75*
G03*
X94049576Y-124707990I52924J-84862D01*
G01*
X92017191Y-132579864D02*
G75*
G03*
X94083662Y-130513389I1272809J793664D01*
G01*
X94049549Y-130379200D02*
G75*
G03*
X94083662Y-130513388I87051J-49300D01*
G01*
X93897397Y-133893597D02*
G75*
G03*
X95397397Y-132393604I3J1499997D01*
G01*
X95529794Y-136397106D02*
G75*
G03*
X95479783Y-136347106I-49994J6D01*
G01*
X95479783Y-141347083D02*
G75*
G03*
X95529783Y-141297105I17J49983D01*
G01*
X68876666Y-131021982D02*
G75*
G03*
X68876666Y-131021982I-4000000J0D01*
G01*
X68908999Y-139344400D02*
G75*
G03*
X68908999Y-139344400I-1598999J0D01*
G01*
X72278179Y-131824806D02*
G75*
G03*
X72278179Y-131824806I-375000J0D01*
G01*
X94297397Y-127543604D02*
G75*
G03*
X94297397Y-127543604I-5250000J0D01*
G01*
X99389000Y-122834400D02*
G75*
G03*
X99389000Y-122834400I-1599000J0D01*
G01*
X104259307Y-130524194D02*
G75*
G03*
X104259307Y-130524194I-4000000J0D01*
G01*
%LPC*%
D12*
X62230000Y-99796600D03*
D13*
X62230000Y-117576600D03*
X102870000Y-117576600D03*
X102870000Y-99796600D03*
D14*
X124333000Y-97002600D03*
D15*
X124333000Y-99542600D03*
X124333000Y-102082600D03*
X124333000Y-104622600D03*
X124333000Y-107162600D03*
X124333000Y-109702600D03*
X124333000Y-112242600D03*
X124333000Y-114782600D03*
D16*
X68961000Y-134086600D03*
X68961000Y-127636600D03*
X99961000Y-127636600D03*
X99961000Y-134136600D03*
D12*
X72009000Y-54914800D03*
D13*
X72009000Y-72694800D03*
X112649000Y-72694800D03*
X112649000Y-54914800D03*
D17*
X109789200Y-128274500D03*
D18*
X109789200Y-134574500D03*
D19*
X114589200Y-131174500D03*
D20*
X127230700Y-135309700D03*
D21*
X127230700Y-132809700D03*
X127230700Y-130809700D03*
X127230700Y-128309700D03*
D22*
X129940700Y-138379700D03*
X129940700Y-125239700D03*
D14*
X116662200Y-90424000D03*
D15*
X116662200Y-87884000D03*
X116662200Y-85344000D03*
X116662200Y-82804000D03*
D23*
X111709200Y-114300000D03*
D24*
X111709200Y-111800000D03*
D14*
X124333000Y-117322600D03*
D15*
X126873000Y-117322600D03*
X129413000Y-117322600D03*
D14*
X105867200Y-121666000D03*
D15*
X108407200Y-121666000D03*
X110947200Y-121666000D03*
D14*
X116662200Y-105410000D03*
D15*
X116662200Y-102870000D03*
X116662200Y-100330000D03*
X116662200Y-97790000D03*
D25*
X130632200Y-72009000D03*
D26*
X128092200Y-72009000D03*
X125552200Y-72009000D03*
X130632200Y-69469000D03*
X128092200Y-69469000D03*
X125552200Y-69469000D03*
X130632200Y-66929000D03*
X128092200Y-66929000D03*
X125552200Y-66929000D03*
X130632200Y-64389000D03*
X128092200Y-64389000D03*
X125552200Y-64389000D03*
X130632200Y-61849000D03*
X128092200Y-61849000D03*
X125552200Y-61849000D03*
X130632200Y-59309000D03*
X128092200Y-59309000D03*
X125552200Y-59309000D03*
X130632200Y-56769000D03*
X128092200Y-56769000D03*
X125552200Y-56769000D03*
X130632200Y-54229000D03*
X128092200Y-54229000D03*
X125552200Y-54229000D03*
D12*
X62230000Y-77393800D03*
D13*
X62230000Y-95173800D03*
X102870000Y-95173800D03*
X102870000Y-77393800D03*
D27*
X110921800Y-105359200D03*
D28*
X110921800Y-102859200D03*
X110921800Y-100359200D03*
X110921800Y-97859200D03*
D27*
X110820200Y-90119200D03*
D28*
X110820200Y-87619200D03*
X110820200Y-85119200D03*
X110820200Y-82619200D03*
D14*
X124337072Y-119888000D03*
D15*
X126877072Y-119888000D03*
X129417072Y-119888000D03*
D29*
X67843400Y-57062000D03*
X67843400Y-64262000D03*
D30*
X61843400Y-67412000D03*
X61843400Y-53912000D03*
D12*
X65684400Y-95173800D03*
D13*
X65684400Y-77393800D03*
X106324400Y-77393800D03*
X106324400Y-95173800D03*
D12*
X65684400Y-117576600D03*
D13*
X65684400Y-99796600D03*
X106324400Y-99796600D03*
X106324400Y-117576600D03*
D12*
X76809600Y-72694800D03*
D13*
X76809600Y-54914800D03*
X117449600Y-54914800D03*
X117449600Y-72694800D03*
D12*
X62230000Y-139979400D03*
D13*
X62230000Y-122199400D03*
X102870000Y-122199400D03*
X102870000Y-139979400D03*
%LPD*%
M02*
