<?xml version="1.0" encoding="utf-8"?>
<!-- Generator: Adobe Illustrator 26.5.0, SVG Export Plug-In . SVG Version: 6.00 Build 0)  -->
<svg version="1.1" id="Layer_1" xmlns="http://www.w3.org/2000/svg" xmlns:xlink="http://www.w3.org/1999/xlink" x="0px" y="0px"
	 viewBox="0 0 468.8 500.2" style="enable-background:new 0 0 468.8 500.2;" xml:space="preserve">
<style type="text/css">
	.st0{fill:#0000FF;stroke:#0000FF;stroke-width:0.1875;stroke-miterlimit:11.3386;}
	.st1{fill:none;stroke:#000000;stroke-width:0.1875;stroke-miterlimit:11.3386;}
	.st2{fill:none;stroke:#0000FF;stroke-width:7.200000e-02;stroke-miterlimit:11.3386;}
</style>
<path class="st0" d="M314.3,330.5v-0.7h1.5v0.7H314.3z"/>
<path class="st0" d="M318.4,330.5v-0.7h1.5v0.7H318.4z"/>
<path class="st0" d="M302.7,323.7l0-0.2l0.1-0.1l0.1-0.1l0.2,0h1.1l0.2,0l0.1,0.1l0.1,0.1l0,0.2v1.5l0,0.2l-0.1,0.1l-0.1,0.1l-0.2,0
	h-1.1l-0.2,0l-0.1-0.1l-0.1-0.1l0-0.2V323.7z"/>
<path class="st0" d="M307.4,323.7l0-0.2l0.1-0.1l0.1-0.1l0.2,0h1.1l0.2,0l0.1,0.1l0.1,0.1l0,0.2v1.5l0,0.2l-0.1,0.1l-0.1,0.1l-0.2,0
	h-1.1l-0.2,0l-0.1-0.1l-0.1-0.1l0-0.2V323.7z"/>
<path class="st0" d="M318.9,345.5h-3.3v-1.2h3.3V345.5z"/>
<path class="st0" d="M318.9,340.1h-3.3v-1.2h3.3V340.1z"/>
<path class="st0" d="M313.2,342.8h-3.3v-1.2h3.3V342.8z"/>
<path class="st0" d="M313.4,333.7l0-0.2l0.1-0.1l0.1-0.1l0.2,0h1.1l0.2,0l0.1,0.1l0.1,0.1l0,0.2v1.5l0,0.2l-0.1,0.1l-0.1,0.1l-0.2,0
	h-1.1l-0.2,0l-0.1-0.1l-0.1-0.1l0-0.2V333.7z"/>
<path class="st0" d="M318.1,333.7l0-0.2l0.1-0.1l0.1-0.1l0.2,0h1.1l0.2,0l0.1,0.1l0.1,0.1l0,0.2v1.5l0,0.2l-0.1,0.1l-0.1,0.1l-0.2,0
	h-1.1l-0.2,0l-0.1-0.1l-0.1-0.1l0-0.2V333.7z"/>
<path class="st0" d="M309.7,332.7v3.3h-1.2v-3.3H309.7z"/>
<path class="st0" d="M304.3,332.7v3.3h-1.2v-3.3H304.3z"/>
<path class="st0" d="M307,338.5v3.3h-1.2v-3.3H307z"/>
<path class="st0" d="M302.8,328.4l0-0.2l0.1-0.1l0.1-0.1l0.2,0h1.1l0.2,0l0.1,0.1l0.1,0.1l0,0.2v1.5l0,0.2l-0.1,0.1l-0.1,0.1l-0.2,0
	h-1.1l-0.2,0l-0.1-0.1l-0.1-0.1l0-0.2V328.4z"/>
<path class="st0" d="M307.4,328.4l0-0.2l0.1-0.1l0.1-0.1l0.2,0h1.1l0.2,0l0.1,0.1l0.1,0.1l0,0.2v1.5l0,0.2l-0.1,0.1l-0.1,0.1l-0.2,0
	h-1.1l-0.2,0l-0.1-0.1l-0.1-0.1l0-0.2V328.4z"/>
<path class="st1" d="M337.4,367H137.2l-0.5,0l-0.5-0.1l-0.4-0.2l-0.4-0.3L135,366l-0.3-0.4l-0.2-0.4l-0.1-0.5l0-0.5V115l0-0.5
	l0.1-0.5l0.2-0.4l0.3-0.4l0.3-0.3l0.4-0.3l0.4-0.2l0.5-0.1l0.5,0h200.3l0.5,0l0.5,0.1l0.4,0.2l0.4,0.3l0.3,0.3l0.3,0.4l0.2,0.4
	l0.1,0.5l0,0.5v65.1l0,0.5l-0.1,0.5l-0.2,0.4l-0.3,0.4l-0.3,0.3l-0.4,0.3l-0.4,0.2l-0.5,0.1l-0.5,0h-22.1l-0.5,0l-0.5,0.1l-0.4,0.2
	l-0.4,0.3l-0.3,0.3l-0.3,0.4l-0.2,0.4l-0.1,0.5l0,0.5v45.6l0,0.5l0.1,0.5l0.2,0.4l0.3,0.4l0.3,0.3l0.4,0.3l0.4,0.2l0.5,0.1l0.5,0
	h3.5l0.5,0l0.5,0.1l0.4,0.2l0.4,0.3l0.3,0.3l0.3,0.4l0.2,0.4l0.1,0.5l0,0.5v51.6l0,0.5l0.1,0.5l0.2,0.4l0.3,0.4l0.3,0.3l0.4,0.3
	l0.4,0.2l0.5,0.1l0.5,0h12.9l0.5,0l0.5,0.1l0.4,0.2l0.4,0.3l0.3,0.3l0.3,0.4l0.2,0.4l0.1,0.5l0,0.5v69.9l0,0.5l-0.1,0.5l-0.2,0.4
	l-0.3,0.4l-0.3,0.3l-0.4,0.3l-0.4,0.2l-0.5,0.1L337.4,367z"/>
<rect x="62.3" y="40.2" class="st2" width="349.9" height="398.9"/>
</svg>
