%TF.GenerationSoftware,KiCad,Pcbnew,7.0.8*%
%TF.CreationDate,2024-04-19T19:44:56-04:00*%
%TF.ProjectId,Aero_PDB,4165726f-5f50-4444-922e-6b696361645f,rev?*%
%TF.SameCoordinates,Original*%
%TF.FileFunction,Drillmap*%
%TF.FilePolarity,Positive*%
%FSLAX45Y45*%
G04 Gerber Fmt 4.5, Leading zero omitted, Abs format (unit mm)*
G04 Created by KiCad (PCBNEW 7.0.8) date 2024-04-19 19:44:56*
%MOMM*%
%LPD*%
G01*
G04 APERTURE LIST*
%ADD10C,0.100000*%
%ADD11C,0.200000*%
%ADD12C,0.045000*%
%ADD13C,0.060000*%
%ADD14C,0.092000*%
%ADD15C,0.095000*%
%ADD16C,0.102000*%
%ADD17C,0.125000*%
%ADD18C,0.226000*%
%ADD19C,0.270000*%
G04 APERTURE END LIST*
D10*
X5989320Y-5345100D02*
X5989320Y-14136700D01*
X13153720Y-7741920D02*
G75*
G03*
X13253720Y-7641920I0J100000D01*
G01*
X12275820Y-9450400D02*
G75*
G03*
X12375820Y-9550400I100000J0D01*
G01*
X13153720Y-11572240D02*
X12698400Y-11572240D01*
X13253720Y-11672240D02*
G75*
G03*
X13153720Y-11572240I-100000J0D01*
G01*
X12375820Y-9550400D02*
X12498400Y-9550400D01*
X12275820Y-9450400D02*
X12275820Y-7841920D01*
X12375820Y-7741920D02*
G75*
G03*
X12275820Y-7841920I0J-100000D01*
G01*
X6089320Y-14236700D02*
X13153720Y-14236700D01*
X13153720Y-5245100D02*
X6089320Y-5245100D01*
X6089320Y-5245100D02*
G75*
G03*
X5989320Y-5345100I0J-100000D01*
G01*
X12598400Y-11472240D02*
G75*
G03*
X12698400Y-11572240I100000J0D01*
G01*
X12598400Y-9650400D02*
G75*
G03*
X12498400Y-9550400I-100000J0D01*
G01*
X13253720Y-5345100D02*
G75*
G03*
X13153720Y-5245100I-100000J0D01*
G01*
X12598400Y-11472240D02*
X12598400Y-9650400D01*
X12375820Y-7741920D02*
X13153720Y-7741920D01*
X13253720Y-14136700D02*
X13253720Y-11672240D01*
X5989320Y-14136700D02*
G75*
G03*
X6089320Y-14236700I100000J0D01*
G01*
X13253720Y-7641920D02*
X13253720Y-5345100D01*
X13153720Y-14236700D02*
G75*
G03*
X13253720Y-14136700I0J100000D01*
G01*
D11*
D12*
X11656420Y-7534000D02*
X11701420Y-7579000D01*
X11701420Y-7534000D02*
X11656420Y-7579000D01*
X12025052Y-5931337D02*
X12070052Y-5976337D01*
X12070052Y-5931337D02*
X12025052Y-5976337D01*
X12025140Y-6289400D02*
X12070140Y-6334400D01*
X12070140Y-6289400D02*
X12025140Y-6334400D01*
X12236012Y-5932165D02*
X12281012Y-5977165D01*
X12281012Y-5932165D02*
X12236012Y-5977165D01*
X12337060Y-6290258D02*
X12382060Y-6335258D01*
X12382060Y-6290258D02*
X12337060Y-6335258D01*
X12415564Y-12990576D02*
X12460564Y-13035576D01*
X12460564Y-12990576D02*
X12415564Y-13035576D01*
X12489224Y-12835636D02*
X12534224Y-12880636D01*
X12534224Y-12835636D02*
X12489224Y-12880636D01*
X12538980Y-7379060D02*
X12583980Y-7424060D01*
X12583980Y-7379060D02*
X12538980Y-7424060D01*
X12570250Y-12759690D02*
X12615250Y-12804690D01*
X12615250Y-12759690D02*
X12570250Y-12804690D01*
D13*
X6214340Y-5391200D02*
G75*
G03*
X6214340Y-5391200I-30000J0D01*
G01*
D11*
X6239340Y-5361200D02*
X6129340Y-5361200D01*
X6129340Y-5361200D02*
G75*
G03*
X6129340Y-5421200I0J-30000D01*
G01*
X6129340Y-5421200D02*
X6239340Y-5421200D01*
X6239340Y-5421200D02*
G75*
G03*
X6239340Y-5361200I0J30000D01*
G01*
D13*
X6214340Y-6741200D02*
G75*
G03*
X6214340Y-6741200I-30000J0D01*
G01*
D11*
X6239340Y-6711200D02*
X6129340Y-6711200D01*
X6129340Y-6711200D02*
G75*
G03*
X6129340Y-6771200I0J-30000D01*
G01*
X6129340Y-6771200D02*
X6239340Y-6771200D01*
X6239340Y-6771200D02*
G75*
G03*
X6239340Y-6711200I0J30000D01*
G01*
D14*
X12723070Y-12784970D02*
X12723070Y-12876970D01*
X12677070Y-12830970D02*
X12769070Y-12830970D01*
X12723070Y-13034970D02*
X12723070Y-13126970D01*
X12677070Y-13080970D02*
X12769070Y-13080970D01*
X12723070Y-13234970D02*
X12723070Y-13326970D01*
X12677070Y-13280970D02*
X12769070Y-13280970D01*
X12723070Y-13484970D02*
X12723070Y-13576970D01*
X12677070Y-13530970D02*
X12769070Y-13530970D01*
D15*
X11115608Y-8295508D02*
X11115608Y-8228332D01*
X11048432Y-8228332D01*
X11048432Y-8295508D01*
X11115608Y-8295508D01*
X11115608Y-8545508D02*
X11115608Y-8478332D01*
X11048432Y-8478332D01*
X11048432Y-8545508D01*
X11115608Y-8545508D01*
X11115608Y-8795508D02*
X11115608Y-8728332D01*
X11048432Y-8728332D01*
X11048432Y-8795508D01*
X11115608Y-8795508D01*
X11115608Y-9045508D02*
X11115608Y-8978332D01*
X11048432Y-8978332D01*
X11048432Y-9045508D01*
X11115608Y-9045508D01*
X11125768Y-9819508D02*
X11125768Y-9752332D01*
X11058592Y-9752332D01*
X11058592Y-9819508D01*
X11125768Y-9819508D01*
X11125768Y-10069508D02*
X11125768Y-10002332D01*
X11058592Y-10002332D01*
X11058592Y-10069508D01*
X11125768Y-10069508D01*
X11125768Y-10319508D02*
X11125768Y-10252332D01*
X11058592Y-10252332D01*
X11058592Y-10319508D01*
X11125768Y-10319508D01*
X11125768Y-10569508D02*
X11125768Y-10502332D01*
X11058592Y-10502332D01*
X11058592Y-10569508D01*
X11125768Y-10569508D01*
D10*
X6223000Y-7789380D02*
X6273000Y-7739380D01*
X6223000Y-7689380D01*
X6173000Y-7739380D01*
X6223000Y-7789380D01*
X6223000Y-9567380D02*
X6273000Y-9517380D01*
X6223000Y-9467380D01*
X6173000Y-9517380D01*
X6223000Y-9567380D01*
X6223000Y-10029660D02*
X6273000Y-9979660D01*
X6223000Y-9929660D01*
X6173000Y-9979660D01*
X6223000Y-10029660D01*
X6223000Y-11807660D02*
X6273000Y-11757660D01*
X6223000Y-11707660D01*
X6173000Y-11757660D01*
X6223000Y-11807660D01*
X6223000Y-12269940D02*
X6273000Y-12219940D01*
X6223000Y-12169940D01*
X6173000Y-12219940D01*
X6223000Y-12269940D01*
X6223000Y-14047940D02*
X6273000Y-13997940D01*
X6223000Y-13947940D01*
X6173000Y-13997940D01*
X6223000Y-14047940D01*
X6568440Y-7789380D02*
X6618440Y-7739380D01*
X6568440Y-7689380D01*
X6518440Y-7739380D01*
X6568440Y-7789380D01*
X6568440Y-9567380D02*
X6618440Y-9517380D01*
X6568440Y-9467380D01*
X6518440Y-9517380D01*
X6568440Y-9567380D01*
X6568440Y-10029660D02*
X6618440Y-9979660D01*
X6568440Y-9929660D01*
X6518440Y-9979660D01*
X6568440Y-10029660D01*
X6568440Y-11807660D02*
X6618440Y-11757660D01*
X6568440Y-11707660D01*
X6518440Y-11757660D01*
X6568440Y-11807660D01*
X7200900Y-5541480D02*
X7250900Y-5491480D01*
X7200900Y-5441480D01*
X7150900Y-5491480D01*
X7200900Y-5541480D01*
X7200900Y-7319480D02*
X7250900Y-7269480D01*
X7200900Y-7219480D01*
X7150900Y-7269480D01*
X7200900Y-7319480D01*
X7680960Y-5541480D02*
X7730960Y-5491480D01*
X7680960Y-5441480D01*
X7630960Y-5491480D01*
X7680960Y-5541480D01*
X7680960Y-7319480D02*
X7730960Y-7269480D01*
X7680960Y-7219480D01*
X7630960Y-7269480D01*
X7680960Y-7319480D01*
X10287000Y-7789380D02*
X10337000Y-7739380D01*
X10287000Y-7689380D01*
X10237000Y-7739380D01*
X10287000Y-7789380D01*
X10287000Y-9567380D02*
X10337000Y-9517380D01*
X10287000Y-9467380D01*
X10237000Y-9517380D01*
X10287000Y-9567380D01*
X10287000Y-10029660D02*
X10337000Y-9979660D01*
X10287000Y-9929660D01*
X10237000Y-9979660D01*
X10287000Y-10029660D01*
X10287000Y-11807660D02*
X10337000Y-11757660D01*
X10287000Y-11707660D01*
X10237000Y-11757660D01*
X10287000Y-11807660D01*
X10287000Y-12269940D02*
X10337000Y-12219940D01*
X10287000Y-12169940D01*
X10237000Y-12219940D01*
X10287000Y-12269940D01*
X10287000Y-14047940D02*
X10337000Y-13997940D01*
X10287000Y-13947940D01*
X10237000Y-13997940D01*
X10287000Y-14047940D01*
X10586720Y-12216600D02*
X10636720Y-12166600D01*
X10586720Y-12116600D01*
X10536720Y-12166600D01*
X10586720Y-12216600D01*
X10632440Y-7789380D02*
X10682440Y-7739380D01*
X10632440Y-7689380D01*
X10582440Y-7739380D01*
X10632440Y-7789380D01*
X10632440Y-9567380D02*
X10682440Y-9517380D01*
X10632440Y-9467380D01*
X10582440Y-9517380D01*
X10632440Y-9567380D01*
X10632440Y-10029660D02*
X10682440Y-9979660D01*
X10632440Y-9929660D01*
X10582440Y-9979660D01*
X10632440Y-10029660D01*
X10632440Y-11807660D02*
X10682440Y-11757660D01*
X10632440Y-11707660D01*
X10582440Y-11757660D01*
X10632440Y-11807660D01*
X10840720Y-12216600D02*
X10890720Y-12166600D01*
X10840720Y-12116600D01*
X10790720Y-12166600D01*
X10840720Y-12216600D01*
X10978920Y-12877450D02*
X11028920Y-12827450D01*
X10978920Y-12777450D01*
X10928920Y-12827450D01*
X10978920Y-12877450D01*
D11*
X10848920Y-12877450D02*
X11108920Y-12877450D01*
X11108920Y-12877450D02*
G75*
G03*
X11108920Y-12777450I0J50000D01*
G01*
X11108920Y-12777450D02*
X10848920Y-12777450D01*
X10848920Y-12777450D02*
G75*
G03*
X10848920Y-12877450I0J-50000D01*
G01*
D10*
X10978920Y-13507450D02*
X11028920Y-13457450D01*
X10978920Y-13407450D01*
X10928920Y-13457450D01*
X10978920Y-13507450D01*
D11*
X10868920Y-13507450D02*
X11088920Y-13507450D01*
X11088920Y-13507450D02*
G75*
G03*
X11088920Y-13407450I0J50000D01*
G01*
X11088920Y-13407450D02*
X10868920Y-13407450D01*
X10868920Y-13407450D02*
G75*
G03*
X10868920Y-13507450I0J-50000D01*
G01*
D10*
X11094720Y-12216600D02*
X11144720Y-12166600D01*
X11094720Y-12116600D01*
X11044720Y-12166600D01*
X11094720Y-12216600D01*
X11170920Y-11230000D02*
X11220920Y-11180000D01*
X11170920Y-11130000D01*
X11120920Y-11180000D01*
X11170920Y-11230000D01*
X11170920Y-11480000D02*
X11220920Y-11430000D01*
X11170920Y-11380000D01*
X11120920Y-11430000D01*
X11170920Y-11480000D01*
X11264900Y-5541480D02*
X11314900Y-5491480D01*
X11264900Y-5441480D01*
X11214900Y-5491480D01*
X11264900Y-5541480D01*
X11264900Y-7319480D02*
X11314900Y-7269480D01*
X11264900Y-7219480D01*
X11214900Y-7269480D01*
X11264900Y-7319480D01*
X11458920Y-13167450D02*
X11508920Y-13117450D01*
X11458920Y-13067450D01*
X11408920Y-13117450D01*
X11458920Y-13167450D01*
D11*
X11408920Y-13007450D02*
X11408920Y-13227450D01*
X11408920Y-13227450D02*
G75*
G03*
X11508920Y-13227450I50000J0D01*
G01*
X11508920Y-13227450D02*
X11508920Y-13007450D01*
X11508920Y-13007450D02*
G75*
G03*
X11408920Y-13007450I-50000J0D01*
G01*
D10*
X11666220Y-8330400D02*
X11716220Y-8280400D01*
X11666220Y-8230400D01*
X11616220Y-8280400D01*
X11666220Y-8330400D01*
X11666220Y-8584400D02*
X11716220Y-8534400D01*
X11666220Y-8484400D01*
X11616220Y-8534400D01*
X11666220Y-8584400D01*
X11666220Y-8838400D02*
X11716220Y-8788400D01*
X11666220Y-8738400D01*
X11616220Y-8788400D01*
X11666220Y-8838400D01*
X11666220Y-9092400D02*
X11716220Y-9042400D01*
X11666220Y-8992400D01*
X11616220Y-9042400D01*
X11666220Y-9092400D01*
X11666220Y-9829000D02*
X11716220Y-9779000D01*
X11666220Y-9729000D01*
X11616220Y-9779000D01*
X11666220Y-9829000D01*
X11666220Y-10083000D02*
X11716220Y-10033000D01*
X11666220Y-9983000D01*
X11616220Y-10033000D01*
X11666220Y-10083000D01*
X11666220Y-10337000D02*
X11716220Y-10287000D01*
X11666220Y-10237000D01*
X11616220Y-10287000D01*
X11666220Y-10337000D01*
X11666220Y-10591000D02*
X11716220Y-10541000D01*
X11666220Y-10491000D01*
X11616220Y-10541000D01*
X11666220Y-10591000D01*
X11744960Y-5541480D02*
X11794960Y-5491480D01*
X11744960Y-5441480D01*
X11694960Y-5491480D01*
X11744960Y-5541480D01*
X11744960Y-7319480D02*
X11794960Y-7269480D01*
X11744960Y-7219480D01*
X11694960Y-7269480D01*
X11744960Y-7319480D01*
X12433300Y-9750260D02*
X12483300Y-9700260D01*
X12433300Y-9650260D01*
X12383300Y-9700260D01*
X12433300Y-9750260D01*
X12433300Y-10004260D02*
X12483300Y-9954260D01*
X12433300Y-9904260D01*
X12383300Y-9954260D01*
X12433300Y-10004260D01*
X12433300Y-10258260D02*
X12483300Y-10208260D01*
X12433300Y-10158260D01*
X12383300Y-10208260D01*
X12433300Y-10258260D01*
X12433300Y-10512260D02*
X12483300Y-10462260D01*
X12433300Y-10412260D01*
X12383300Y-10462260D01*
X12433300Y-10512260D01*
X12433300Y-10766260D02*
X12483300Y-10716260D01*
X12433300Y-10666260D01*
X12383300Y-10716260D01*
X12433300Y-10766260D01*
X12433300Y-11020260D02*
X12483300Y-10970260D01*
X12433300Y-10920260D01*
X12383300Y-10970260D01*
X12433300Y-11020260D01*
X12433300Y-11274260D02*
X12483300Y-11224260D01*
X12433300Y-11174260D01*
X12383300Y-11224260D01*
X12433300Y-11274260D01*
X12433300Y-11528260D02*
X12483300Y-11478260D01*
X12433300Y-11428260D01*
X12383300Y-11478260D01*
X12433300Y-11528260D01*
X12433300Y-11782260D02*
X12483300Y-11732260D01*
X12433300Y-11682260D01*
X12383300Y-11732260D01*
X12433300Y-11782260D01*
X12433707Y-12038800D02*
X12483707Y-11988800D01*
X12433707Y-11938800D01*
X12383707Y-11988800D01*
X12433707Y-12038800D01*
X12687300Y-11782260D02*
X12737300Y-11732260D01*
X12687300Y-11682260D01*
X12637300Y-11732260D01*
X12687300Y-11782260D01*
X12687707Y-12038800D02*
X12737707Y-11988800D01*
X12687707Y-11938800D01*
X12637707Y-11988800D01*
X12687707Y-12038800D01*
X12941300Y-11782260D02*
X12991300Y-11732260D01*
X12941300Y-11682260D01*
X12891300Y-11732260D01*
X12941300Y-11782260D01*
X12941707Y-12038800D02*
X12991707Y-11988800D01*
X12941707Y-11938800D01*
X12891707Y-11988800D01*
X12941707Y-12038800D01*
D16*
X12504220Y-5371900D02*
X12606220Y-5473900D01*
X12606220Y-5371900D02*
X12504220Y-5473900D01*
X12606220Y-5422900D02*
G75*
G03*
X12606220Y-5422900I-51000J0D01*
G01*
X12504220Y-5625900D02*
X12606220Y-5727900D01*
X12606220Y-5625900D02*
X12504220Y-5727900D01*
X12606220Y-5676900D02*
G75*
G03*
X12606220Y-5676900I-51000J0D01*
G01*
X12504220Y-5879900D02*
X12606220Y-5981900D01*
X12606220Y-5879900D02*
X12504220Y-5981900D01*
X12606220Y-5930900D02*
G75*
G03*
X12606220Y-5930900I-51000J0D01*
G01*
X12504220Y-6133900D02*
X12606220Y-6235900D01*
X12606220Y-6133900D02*
X12504220Y-6235900D01*
X12606220Y-6184900D02*
G75*
G03*
X12606220Y-6184900I-51000J0D01*
G01*
X12504220Y-6387900D02*
X12606220Y-6489900D01*
X12606220Y-6387900D02*
X12504220Y-6489900D01*
X12606220Y-6438900D02*
G75*
G03*
X12606220Y-6438900I-51000J0D01*
G01*
X12504220Y-6641900D02*
X12606220Y-6743900D01*
X12606220Y-6641900D02*
X12504220Y-6743900D01*
X12606220Y-6692900D02*
G75*
G03*
X12606220Y-6692900I-51000J0D01*
G01*
X12504220Y-6895900D02*
X12606220Y-6997900D01*
X12606220Y-6895900D02*
X12504220Y-6997900D01*
X12606220Y-6946900D02*
G75*
G03*
X12606220Y-6946900I-51000J0D01*
G01*
X12504220Y-7149900D02*
X12606220Y-7251900D01*
X12606220Y-7149900D02*
X12504220Y-7251900D01*
X12606220Y-7200900D02*
G75*
G03*
X12606220Y-7200900I-51000J0D01*
G01*
X12758220Y-5371900D02*
X12860220Y-5473900D01*
X12860220Y-5371900D02*
X12758220Y-5473900D01*
X12860220Y-5422900D02*
G75*
G03*
X12860220Y-5422900I-51000J0D01*
G01*
X12758220Y-5625900D02*
X12860220Y-5727900D01*
X12860220Y-5625900D02*
X12758220Y-5727900D01*
X12860220Y-5676900D02*
G75*
G03*
X12860220Y-5676900I-51000J0D01*
G01*
X12758220Y-5879900D02*
X12860220Y-5981900D01*
X12860220Y-5879900D02*
X12758220Y-5981900D01*
X12860220Y-5930900D02*
G75*
G03*
X12860220Y-5930900I-51000J0D01*
G01*
X12758220Y-6133900D02*
X12860220Y-6235900D01*
X12860220Y-6133900D02*
X12758220Y-6235900D01*
X12860220Y-6184900D02*
G75*
G03*
X12860220Y-6184900I-51000J0D01*
G01*
X12758220Y-6387900D02*
X12860220Y-6489900D01*
X12860220Y-6387900D02*
X12758220Y-6489900D01*
X12860220Y-6438900D02*
G75*
G03*
X12860220Y-6438900I-51000J0D01*
G01*
X12758220Y-6641900D02*
X12860220Y-6743900D01*
X12860220Y-6641900D02*
X12758220Y-6743900D01*
X12860220Y-6692900D02*
G75*
G03*
X12860220Y-6692900I-51000J0D01*
G01*
X12758220Y-6895900D02*
X12860220Y-6997900D01*
X12860220Y-6895900D02*
X12758220Y-6997900D01*
X12860220Y-6946900D02*
G75*
G03*
X12860220Y-6946900I-51000J0D01*
G01*
X12758220Y-7149900D02*
X12860220Y-7251900D01*
X12860220Y-7149900D02*
X12758220Y-7251900D01*
X12860220Y-7200900D02*
G75*
G03*
X12860220Y-7200900I-51000J0D01*
G01*
X13012220Y-5371900D02*
X13114220Y-5473900D01*
X13114220Y-5371900D02*
X13012220Y-5473900D01*
X13114220Y-5422900D02*
G75*
G03*
X13114220Y-5422900I-51000J0D01*
G01*
X13012220Y-5625900D02*
X13114220Y-5727900D01*
X13114220Y-5625900D02*
X13012220Y-5727900D01*
X13114220Y-5676900D02*
G75*
G03*
X13114220Y-5676900I-51000J0D01*
G01*
X13012220Y-5879900D02*
X13114220Y-5981900D01*
X13114220Y-5879900D02*
X13012220Y-5981900D01*
X13114220Y-5930900D02*
G75*
G03*
X13114220Y-5930900I-51000J0D01*
G01*
X13012220Y-6133900D02*
X13114220Y-6235900D01*
X13114220Y-6133900D02*
X13012220Y-6235900D01*
X13114220Y-6184900D02*
G75*
G03*
X13114220Y-6184900I-51000J0D01*
G01*
X13012220Y-6387900D02*
X13114220Y-6489900D01*
X13114220Y-6387900D02*
X13012220Y-6489900D01*
X13114220Y-6438900D02*
G75*
G03*
X13114220Y-6438900I-51000J0D01*
G01*
X13012220Y-6641900D02*
X13114220Y-6743900D01*
X13114220Y-6641900D02*
X13012220Y-6743900D01*
X13114220Y-6692900D02*
G75*
G03*
X13114220Y-6692900I-51000J0D01*
G01*
X13012220Y-6895900D02*
X13114220Y-6997900D01*
X13114220Y-6895900D02*
X13012220Y-6997900D01*
X13114220Y-6946900D02*
G75*
G03*
X13114220Y-6946900I-51000J0D01*
G01*
X13012220Y-7149900D02*
X13114220Y-7251900D01*
X13114220Y-7149900D02*
X13012220Y-7251900D01*
X13114220Y-7200900D02*
G75*
G03*
X13114220Y-7200900I-51000J0D01*
G01*
D17*
X6833600Y-12701160D02*
X6958600Y-12826160D01*
X6958600Y-12701160D02*
X6833600Y-12826160D01*
X6896100Y-12701160D02*
X6896100Y-12826160D01*
X6833600Y-12763660D02*
X6958600Y-12763660D01*
X6833600Y-13346160D02*
X6958600Y-13471160D01*
X6958600Y-13346160D02*
X6833600Y-13471160D01*
X6896100Y-13346160D02*
X6896100Y-13471160D01*
X6833600Y-13408660D02*
X6958600Y-13408660D01*
X9933600Y-12701160D02*
X10058600Y-12826160D01*
X10058600Y-12701160D02*
X9933600Y-12826160D01*
X9996100Y-12701160D02*
X9996100Y-12826160D01*
X9933600Y-12763660D02*
X10058600Y-12763660D01*
X9933600Y-13351160D02*
X10058600Y-13476160D01*
X10058600Y-13351160D02*
X9933600Y-13476160D01*
X9996100Y-13351160D02*
X9996100Y-13476160D01*
X9933600Y-13413660D02*
X10058600Y-13413660D01*
D18*
X12881070Y-12410970D02*
X13107070Y-12636970D01*
X13107070Y-12410970D02*
X12881070Y-12636970D01*
X13073974Y-12603874D02*
X13073974Y-12444066D01*
X12914166Y-12444066D01*
X12914166Y-12603874D01*
X13073974Y-12603874D01*
X12881070Y-13724970D02*
X13107070Y-13950970D01*
X13107070Y-13724970D02*
X12881070Y-13950970D01*
X13073974Y-13917874D02*
X13073974Y-13758066D01*
X12914166Y-13758066D01*
X12914166Y-13917874D01*
X13073974Y-13917874D01*
D19*
X6649340Y-5571200D02*
X6919340Y-5841200D01*
X6919340Y-5571200D02*
X6649340Y-5841200D01*
X6784340Y-5841200D02*
X6919340Y-5706200D01*
X6784340Y-5571200D01*
X6649340Y-5706200D01*
X6784340Y-5841200D01*
X6649340Y-6291200D02*
X6919340Y-6561200D01*
X6919340Y-6291200D02*
X6649340Y-6561200D01*
X6784340Y-6561200D02*
X6919340Y-6426200D01*
X6784340Y-6291200D01*
X6649340Y-6426200D01*
X6784340Y-6561200D01*
D11*
X6245097Y-14553184D02*
X6245097Y-14353184D01*
X6245097Y-14353184D02*
X6292716Y-14353184D01*
X6292716Y-14353184D02*
X6321287Y-14362708D01*
X6321287Y-14362708D02*
X6340335Y-14381755D01*
X6340335Y-14381755D02*
X6349859Y-14400803D01*
X6349859Y-14400803D02*
X6359382Y-14438898D01*
X6359382Y-14438898D02*
X6359382Y-14467469D01*
X6359382Y-14467469D02*
X6349859Y-14505565D01*
X6349859Y-14505565D02*
X6340335Y-14524612D01*
X6340335Y-14524612D02*
X6321287Y-14543660D01*
X6321287Y-14543660D02*
X6292716Y-14553184D01*
X6292716Y-14553184D02*
X6245097Y-14553184D01*
X6445097Y-14553184D02*
X6445097Y-14419850D01*
X6445097Y-14457946D02*
X6454621Y-14438898D01*
X6454621Y-14438898D02*
X6464144Y-14429374D01*
X6464144Y-14429374D02*
X6483192Y-14419850D01*
X6483192Y-14419850D02*
X6502240Y-14419850D01*
X6568906Y-14553184D02*
X6568906Y-14419850D01*
X6568906Y-14353184D02*
X6559382Y-14362708D01*
X6559382Y-14362708D02*
X6568906Y-14372231D01*
X6568906Y-14372231D02*
X6578430Y-14362708D01*
X6578430Y-14362708D02*
X6568906Y-14353184D01*
X6568906Y-14353184D02*
X6568906Y-14372231D01*
X6692716Y-14553184D02*
X6673668Y-14543660D01*
X6673668Y-14543660D02*
X6664144Y-14524612D01*
X6664144Y-14524612D02*
X6664144Y-14353184D01*
X6797478Y-14553184D02*
X6778430Y-14543660D01*
X6778430Y-14543660D02*
X6768906Y-14524612D01*
X6768906Y-14524612D02*
X6768906Y-14353184D01*
X7026049Y-14553184D02*
X7026049Y-14353184D01*
X7026049Y-14353184D02*
X7092716Y-14496041D01*
X7092716Y-14496041D02*
X7159382Y-14353184D01*
X7159382Y-14353184D02*
X7159382Y-14553184D01*
X7340335Y-14553184D02*
X7340335Y-14448422D01*
X7340335Y-14448422D02*
X7330811Y-14429374D01*
X7330811Y-14429374D02*
X7311763Y-14419850D01*
X7311763Y-14419850D02*
X7273668Y-14419850D01*
X7273668Y-14419850D02*
X7254621Y-14429374D01*
X7340335Y-14543660D02*
X7321287Y-14553184D01*
X7321287Y-14553184D02*
X7273668Y-14553184D01*
X7273668Y-14553184D02*
X7254621Y-14543660D01*
X7254621Y-14543660D02*
X7245097Y-14524612D01*
X7245097Y-14524612D02*
X7245097Y-14505565D01*
X7245097Y-14505565D02*
X7254621Y-14486517D01*
X7254621Y-14486517D02*
X7273668Y-14476993D01*
X7273668Y-14476993D02*
X7321287Y-14476993D01*
X7321287Y-14476993D02*
X7340335Y-14467469D01*
X7435573Y-14419850D02*
X7435573Y-14619850D01*
X7435573Y-14429374D02*
X7454621Y-14419850D01*
X7454621Y-14419850D02*
X7492716Y-14419850D01*
X7492716Y-14419850D02*
X7511763Y-14429374D01*
X7511763Y-14429374D02*
X7521287Y-14438898D01*
X7521287Y-14438898D02*
X7530811Y-14457946D01*
X7530811Y-14457946D02*
X7530811Y-14515088D01*
X7530811Y-14515088D02*
X7521287Y-14534136D01*
X7521287Y-14534136D02*
X7511763Y-14543660D01*
X7511763Y-14543660D02*
X7492716Y-14553184D01*
X7492716Y-14553184D02*
X7454621Y-14553184D01*
X7454621Y-14553184D02*
X7435573Y-14543660D01*
X7616525Y-14534136D02*
X7626049Y-14543660D01*
X7626049Y-14543660D02*
X7616525Y-14553184D01*
X7616525Y-14553184D02*
X7607002Y-14543660D01*
X7607002Y-14543660D02*
X7616525Y-14534136D01*
X7616525Y-14534136D02*
X7616525Y-14553184D01*
X7616525Y-14429374D02*
X7626049Y-14438898D01*
X7626049Y-14438898D02*
X7616525Y-14448422D01*
X7616525Y-14448422D02*
X7607002Y-14438898D01*
X7607002Y-14438898D02*
X7616525Y-14429374D01*
X7616525Y-14429374D02*
X7616525Y-14448422D01*
D12*
X5939320Y-14859200D02*
X5984320Y-14904200D01*
X5984320Y-14859200D02*
X5939320Y-14904200D01*
D11*
X6283192Y-14773184D02*
X6302240Y-14773184D01*
X6302240Y-14773184D02*
X6321287Y-14782708D01*
X6321287Y-14782708D02*
X6330811Y-14792231D01*
X6330811Y-14792231D02*
X6340335Y-14811279D01*
X6340335Y-14811279D02*
X6349859Y-14849374D01*
X6349859Y-14849374D02*
X6349859Y-14896993D01*
X6349859Y-14896993D02*
X6340335Y-14935088D01*
X6340335Y-14935088D02*
X6330811Y-14954136D01*
X6330811Y-14954136D02*
X6321287Y-14963660D01*
X6321287Y-14963660D02*
X6302240Y-14973184D01*
X6302240Y-14973184D02*
X6283192Y-14973184D01*
X6283192Y-14973184D02*
X6264144Y-14963660D01*
X6264144Y-14963660D02*
X6254621Y-14954136D01*
X6254621Y-14954136D02*
X6245097Y-14935088D01*
X6245097Y-14935088D02*
X6235573Y-14896993D01*
X6235573Y-14896993D02*
X6235573Y-14849374D01*
X6235573Y-14849374D02*
X6245097Y-14811279D01*
X6245097Y-14811279D02*
X6254621Y-14792231D01*
X6254621Y-14792231D02*
X6264144Y-14782708D01*
X6264144Y-14782708D02*
X6283192Y-14773184D01*
X6435573Y-14954136D02*
X6445097Y-14963660D01*
X6445097Y-14963660D02*
X6435573Y-14973184D01*
X6435573Y-14973184D02*
X6426049Y-14963660D01*
X6426049Y-14963660D02*
X6435573Y-14954136D01*
X6435573Y-14954136D02*
X6435573Y-14973184D01*
X6616525Y-14839850D02*
X6616525Y-14973184D01*
X6568906Y-14763660D02*
X6521287Y-14906517D01*
X6521287Y-14906517D02*
X6645097Y-14906517D01*
X6816525Y-14773184D02*
X6721287Y-14773184D01*
X6721287Y-14773184D02*
X6711763Y-14868422D01*
X6711763Y-14868422D02*
X6721287Y-14858898D01*
X6721287Y-14858898D02*
X6740335Y-14849374D01*
X6740335Y-14849374D02*
X6787954Y-14849374D01*
X6787954Y-14849374D02*
X6807002Y-14858898D01*
X6807002Y-14858898D02*
X6816525Y-14868422D01*
X6816525Y-14868422D02*
X6826049Y-14887469D01*
X6826049Y-14887469D02*
X6826049Y-14935088D01*
X6826049Y-14935088D02*
X6816525Y-14954136D01*
X6816525Y-14954136D02*
X6807002Y-14963660D01*
X6807002Y-14963660D02*
X6787954Y-14973184D01*
X6787954Y-14973184D02*
X6740335Y-14973184D01*
X6740335Y-14973184D02*
X6721287Y-14963660D01*
X6721287Y-14963660D02*
X6711763Y-14954136D01*
X6949859Y-14773184D02*
X6968906Y-14773184D01*
X6968906Y-14773184D02*
X6987954Y-14782708D01*
X6987954Y-14782708D02*
X6997478Y-14792231D01*
X6997478Y-14792231D02*
X7007002Y-14811279D01*
X7007002Y-14811279D02*
X7016525Y-14849374D01*
X7016525Y-14849374D02*
X7016525Y-14896993D01*
X7016525Y-14896993D02*
X7007002Y-14935088D01*
X7007002Y-14935088D02*
X6997478Y-14954136D01*
X6997478Y-14954136D02*
X6987954Y-14963660D01*
X6987954Y-14963660D02*
X6968906Y-14973184D01*
X6968906Y-14973184D02*
X6949859Y-14973184D01*
X6949859Y-14973184D02*
X6930811Y-14963660D01*
X6930811Y-14963660D02*
X6921287Y-14954136D01*
X6921287Y-14954136D02*
X6911763Y-14935088D01*
X6911763Y-14935088D02*
X6902240Y-14896993D01*
X6902240Y-14896993D02*
X6902240Y-14849374D01*
X6902240Y-14849374D02*
X6911763Y-14811279D01*
X6911763Y-14811279D02*
X6921287Y-14792231D01*
X6921287Y-14792231D02*
X6930811Y-14782708D01*
X6930811Y-14782708D02*
X6949859Y-14773184D01*
X7102240Y-14973184D02*
X7102240Y-14839850D01*
X7102240Y-14858898D02*
X7111763Y-14849374D01*
X7111763Y-14849374D02*
X7130811Y-14839850D01*
X7130811Y-14839850D02*
X7159383Y-14839850D01*
X7159383Y-14839850D02*
X7178430Y-14849374D01*
X7178430Y-14849374D02*
X7187954Y-14868422D01*
X7187954Y-14868422D02*
X7187954Y-14973184D01*
X7187954Y-14868422D02*
X7197478Y-14849374D01*
X7197478Y-14849374D02*
X7216525Y-14839850D01*
X7216525Y-14839850D02*
X7245097Y-14839850D01*
X7245097Y-14839850D02*
X7264144Y-14849374D01*
X7264144Y-14849374D02*
X7273668Y-14868422D01*
X7273668Y-14868422D02*
X7273668Y-14973184D01*
X7368906Y-14973184D02*
X7368906Y-14839850D01*
X7368906Y-14858898D02*
X7378430Y-14849374D01*
X7378430Y-14849374D02*
X7397478Y-14839850D01*
X7397478Y-14839850D02*
X7426049Y-14839850D01*
X7426049Y-14839850D02*
X7445097Y-14849374D01*
X7445097Y-14849374D02*
X7454621Y-14868422D01*
X7454621Y-14868422D02*
X7454621Y-14973184D01*
X7454621Y-14868422D02*
X7464144Y-14849374D01*
X7464144Y-14849374D02*
X7483192Y-14839850D01*
X7483192Y-14839850D02*
X7511763Y-14839850D01*
X7511763Y-14839850D02*
X7530811Y-14849374D01*
X7530811Y-14849374D02*
X7540335Y-14868422D01*
X7540335Y-14868422D02*
X7540335Y-14973184D01*
X7930811Y-14763660D02*
X7759383Y-15020803D01*
X8187954Y-14773184D02*
X8207002Y-14773184D01*
X8207002Y-14773184D02*
X8226049Y-14782708D01*
X8226049Y-14782708D02*
X8235573Y-14792231D01*
X8235573Y-14792231D02*
X8245097Y-14811279D01*
X8245097Y-14811279D02*
X8254621Y-14849374D01*
X8254621Y-14849374D02*
X8254621Y-14896993D01*
X8254621Y-14896993D02*
X8245097Y-14935088D01*
X8245097Y-14935088D02*
X8235573Y-14954136D01*
X8235573Y-14954136D02*
X8226049Y-14963660D01*
X8226049Y-14963660D02*
X8207002Y-14973184D01*
X8207002Y-14973184D02*
X8187954Y-14973184D01*
X8187954Y-14973184D02*
X8168906Y-14963660D01*
X8168906Y-14963660D02*
X8159383Y-14954136D01*
X8159383Y-14954136D02*
X8149859Y-14935088D01*
X8149859Y-14935088D02*
X8140335Y-14896993D01*
X8140335Y-14896993D02*
X8140335Y-14849374D01*
X8140335Y-14849374D02*
X8149859Y-14811279D01*
X8149859Y-14811279D02*
X8159383Y-14792231D01*
X8159383Y-14792231D02*
X8168906Y-14782708D01*
X8168906Y-14782708D02*
X8187954Y-14773184D01*
X8340335Y-14954136D02*
X8349859Y-14963660D01*
X8349859Y-14963660D02*
X8340335Y-14973184D01*
X8340335Y-14973184D02*
X8330811Y-14963660D01*
X8330811Y-14963660D02*
X8340335Y-14954136D01*
X8340335Y-14954136D02*
X8340335Y-14973184D01*
X8473668Y-14773184D02*
X8492716Y-14773184D01*
X8492716Y-14773184D02*
X8511764Y-14782708D01*
X8511764Y-14782708D02*
X8521288Y-14792231D01*
X8521288Y-14792231D02*
X8530811Y-14811279D01*
X8530811Y-14811279D02*
X8540335Y-14849374D01*
X8540335Y-14849374D02*
X8540335Y-14896993D01*
X8540335Y-14896993D02*
X8530811Y-14935088D01*
X8530811Y-14935088D02*
X8521288Y-14954136D01*
X8521288Y-14954136D02*
X8511764Y-14963660D01*
X8511764Y-14963660D02*
X8492716Y-14973184D01*
X8492716Y-14973184D02*
X8473668Y-14973184D01*
X8473668Y-14973184D02*
X8454621Y-14963660D01*
X8454621Y-14963660D02*
X8445097Y-14954136D01*
X8445097Y-14954136D02*
X8435573Y-14935088D01*
X8435573Y-14935088D02*
X8426049Y-14896993D01*
X8426049Y-14896993D02*
X8426049Y-14849374D01*
X8426049Y-14849374D02*
X8435573Y-14811279D01*
X8435573Y-14811279D02*
X8445097Y-14792231D01*
X8445097Y-14792231D02*
X8454621Y-14782708D01*
X8454621Y-14782708D02*
X8473668Y-14773184D01*
X8730811Y-14973184D02*
X8616526Y-14973184D01*
X8673668Y-14973184D02*
X8673668Y-14773184D01*
X8673668Y-14773184D02*
X8654621Y-14801755D01*
X8654621Y-14801755D02*
X8635573Y-14820803D01*
X8635573Y-14820803D02*
X8616526Y-14830327D01*
X8797478Y-14773184D02*
X8930811Y-14773184D01*
X8930811Y-14773184D02*
X8845097Y-14973184D01*
X8987954Y-14773184D02*
X9121288Y-14773184D01*
X9121288Y-14773184D02*
X9035573Y-14973184D01*
X9187954Y-14773184D02*
X9187954Y-14811279D01*
X9264145Y-14773184D02*
X9264145Y-14811279D01*
X9559383Y-15049374D02*
X9549859Y-15039850D01*
X9549859Y-15039850D02*
X9530811Y-15011279D01*
X9530811Y-15011279D02*
X9521288Y-14992231D01*
X9521288Y-14992231D02*
X9511764Y-14963660D01*
X9511764Y-14963660D02*
X9502240Y-14916041D01*
X9502240Y-14916041D02*
X9502240Y-14877946D01*
X9502240Y-14877946D02*
X9511764Y-14830327D01*
X9511764Y-14830327D02*
X9521288Y-14801755D01*
X9521288Y-14801755D02*
X9530811Y-14782708D01*
X9530811Y-14782708D02*
X9549859Y-14754136D01*
X9549859Y-14754136D02*
X9559383Y-14744612D01*
X9645097Y-14973184D02*
X9683192Y-14973184D01*
X9683192Y-14973184D02*
X9702240Y-14963660D01*
X9702240Y-14963660D02*
X9711764Y-14954136D01*
X9711764Y-14954136D02*
X9730811Y-14925565D01*
X9730811Y-14925565D02*
X9740335Y-14887469D01*
X9740335Y-14887469D02*
X9740335Y-14811279D01*
X9740335Y-14811279D02*
X9730811Y-14792231D01*
X9730811Y-14792231D02*
X9721288Y-14782708D01*
X9721288Y-14782708D02*
X9702240Y-14773184D01*
X9702240Y-14773184D02*
X9664145Y-14773184D01*
X9664145Y-14773184D02*
X9645097Y-14782708D01*
X9645097Y-14782708D02*
X9635573Y-14792231D01*
X9635573Y-14792231D02*
X9626050Y-14811279D01*
X9626050Y-14811279D02*
X9626050Y-14858898D01*
X9626050Y-14858898D02*
X9635573Y-14877946D01*
X9635573Y-14877946D02*
X9645097Y-14887469D01*
X9645097Y-14887469D02*
X9664145Y-14896993D01*
X9664145Y-14896993D02*
X9702240Y-14896993D01*
X9702240Y-14896993D02*
X9721288Y-14887469D01*
X9721288Y-14887469D02*
X9730811Y-14877946D01*
X9730811Y-14877946D02*
X9740335Y-14858898D01*
X9978431Y-14973184D02*
X9978431Y-14773184D01*
X10064145Y-14973184D02*
X10064145Y-14868422D01*
X10064145Y-14868422D02*
X10054621Y-14849374D01*
X10054621Y-14849374D02*
X10035573Y-14839850D01*
X10035573Y-14839850D02*
X10007002Y-14839850D01*
X10007002Y-14839850D02*
X9987954Y-14849374D01*
X9987954Y-14849374D02*
X9978431Y-14858898D01*
X10187954Y-14973184D02*
X10168907Y-14963660D01*
X10168907Y-14963660D02*
X10159383Y-14954136D01*
X10159383Y-14954136D02*
X10149859Y-14935088D01*
X10149859Y-14935088D02*
X10149859Y-14877946D01*
X10149859Y-14877946D02*
X10159383Y-14858898D01*
X10159383Y-14858898D02*
X10168907Y-14849374D01*
X10168907Y-14849374D02*
X10187954Y-14839850D01*
X10187954Y-14839850D02*
X10216526Y-14839850D01*
X10216526Y-14839850D02*
X10235573Y-14849374D01*
X10235573Y-14849374D02*
X10245097Y-14858898D01*
X10245097Y-14858898D02*
X10254621Y-14877946D01*
X10254621Y-14877946D02*
X10254621Y-14935088D01*
X10254621Y-14935088D02*
X10245097Y-14954136D01*
X10245097Y-14954136D02*
X10235573Y-14963660D01*
X10235573Y-14963660D02*
X10216526Y-14973184D01*
X10216526Y-14973184D02*
X10187954Y-14973184D01*
X10368907Y-14973184D02*
X10349859Y-14963660D01*
X10349859Y-14963660D02*
X10340335Y-14944612D01*
X10340335Y-14944612D02*
X10340335Y-14773184D01*
X10521288Y-14963660D02*
X10502240Y-14973184D01*
X10502240Y-14973184D02*
X10464145Y-14973184D01*
X10464145Y-14973184D02*
X10445097Y-14963660D01*
X10445097Y-14963660D02*
X10435573Y-14944612D01*
X10435573Y-14944612D02*
X10435573Y-14868422D01*
X10435573Y-14868422D02*
X10445097Y-14849374D01*
X10445097Y-14849374D02*
X10464145Y-14839850D01*
X10464145Y-14839850D02*
X10502240Y-14839850D01*
X10502240Y-14839850D02*
X10521288Y-14849374D01*
X10521288Y-14849374D02*
X10530812Y-14868422D01*
X10530812Y-14868422D02*
X10530812Y-14887469D01*
X10530812Y-14887469D02*
X10435573Y-14906517D01*
X10607002Y-14963660D02*
X10626050Y-14973184D01*
X10626050Y-14973184D02*
X10664145Y-14973184D01*
X10664145Y-14973184D02*
X10683193Y-14963660D01*
X10683193Y-14963660D02*
X10692716Y-14944612D01*
X10692716Y-14944612D02*
X10692716Y-14935088D01*
X10692716Y-14935088D02*
X10683193Y-14916041D01*
X10683193Y-14916041D02*
X10664145Y-14906517D01*
X10664145Y-14906517D02*
X10635573Y-14906517D01*
X10635573Y-14906517D02*
X10616526Y-14896993D01*
X10616526Y-14896993D02*
X10607002Y-14877946D01*
X10607002Y-14877946D02*
X10607002Y-14868422D01*
X10607002Y-14868422D02*
X10616526Y-14849374D01*
X10616526Y-14849374D02*
X10635573Y-14839850D01*
X10635573Y-14839850D02*
X10664145Y-14839850D01*
X10664145Y-14839850D02*
X10683193Y-14849374D01*
X10759383Y-15049374D02*
X10768907Y-15039850D01*
X10768907Y-15039850D02*
X10787954Y-15011279D01*
X10787954Y-15011279D02*
X10797478Y-14992231D01*
X10797478Y-14992231D02*
X10807002Y-14963660D01*
X10807002Y-14963660D02*
X10816526Y-14916041D01*
X10816526Y-14916041D02*
X10816526Y-14877946D01*
X10816526Y-14877946D02*
X10807002Y-14830327D01*
X10807002Y-14830327D02*
X10797478Y-14801755D01*
X10797478Y-14801755D02*
X10787954Y-14782708D01*
X10787954Y-14782708D02*
X10768907Y-14754136D01*
X10768907Y-14754136D02*
X10759383Y-14744612D01*
D13*
X5984320Y-15145700D02*
G75*
G03*
X5984320Y-15145700I-30000J0D01*
G01*
D11*
X6283192Y-15037184D02*
X6302240Y-15037184D01*
X6302240Y-15037184D02*
X6321287Y-15046708D01*
X6321287Y-15046708D02*
X6330811Y-15056231D01*
X6330811Y-15056231D02*
X6340335Y-15075279D01*
X6340335Y-15075279D02*
X6349859Y-15113374D01*
X6349859Y-15113374D02*
X6349859Y-15160993D01*
X6349859Y-15160993D02*
X6340335Y-15199088D01*
X6340335Y-15199088D02*
X6330811Y-15218136D01*
X6330811Y-15218136D02*
X6321287Y-15227660D01*
X6321287Y-15227660D02*
X6302240Y-15237184D01*
X6302240Y-15237184D02*
X6283192Y-15237184D01*
X6283192Y-15237184D02*
X6264144Y-15227660D01*
X6264144Y-15227660D02*
X6254621Y-15218136D01*
X6254621Y-15218136D02*
X6245097Y-15199088D01*
X6245097Y-15199088D02*
X6235573Y-15160993D01*
X6235573Y-15160993D02*
X6235573Y-15113374D01*
X6235573Y-15113374D02*
X6245097Y-15075279D01*
X6245097Y-15075279D02*
X6254621Y-15056231D01*
X6254621Y-15056231D02*
X6264144Y-15046708D01*
X6264144Y-15046708D02*
X6283192Y-15037184D01*
X6435573Y-15218136D02*
X6445097Y-15227660D01*
X6445097Y-15227660D02*
X6435573Y-15237184D01*
X6435573Y-15237184D02*
X6426049Y-15227660D01*
X6426049Y-15227660D02*
X6435573Y-15218136D01*
X6435573Y-15218136D02*
X6435573Y-15237184D01*
X6616525Y-15037184D02*
X6578430Y-15037184D01*
X6578430Y-15037184D02*
X6559382Y-15046708D01*
X6559382Y-15046708D02*
X6549859Y-15056231D01*
X6549859Y-15056231D02*
X6530811Y-15084803D01*
X6530811Y-15084803D02*
X6521287Y-15122898D01*
X6521287Y-15122898D02*
X6521287Y-15199088D01*
X6521287Y-15199088D02*
X6530811Y-15218136D01*
X6530811Y-15218136D02*
X6540335Y-15227660D01*
X6540335Y-15227660D02*
X6559382Y-15237184D01*
X6559382Y-15237184D02*
X6597478Y-15237184D01*
X6597478Y-15237184D02*
X6616525Y-15227660D01*
X6616525Y-15227660D02*
X6626049Y-15218136D01*
X6626049Y-15218136D02*
X6635573Y-15199088D01*
X6635573Y-15199088D02*
X6635573Y-15151469D01*
X6635573Y-15151469D02*
X6626049Y-15132422D01*
X6626049Y-15132422D02*
X6616525Y-15122898D01*
X6616525Y-15122898D02*
X6597478Y-15113374D01*
X6597478Y-15113374D02*
X6559382Y-15113374D01*
X6559382Y-15113374D02*
X6540335Y-15122898D01*
X6540335Y-15122898D02*
X6530811Y-15132422D01*
X6530811Y-15132422D02*
X6521287Y-15151469D01*
X6759382Y-15037184D02*
X6778430Y-15037184D01*
X6778430Y-15037184D02*
X6797478Y-15046708D01*
X6797478Y-15046708D02*
X6807002Y-15056231D01*
X6807002Y-15056231D02*
X6816525Y-15075279D01*
X6816525Y-15075279D02*
X6826049Y-15113374D01*
X6826049Y-15113374D02*
X6826049Y-15160993D01*
X6826049Y-15160993D02*
X6816525Y-15199088D01*
X6816525Y-15199088D02*
X6807002Y-15218136D01*
X6807002Y-15218136D02*
X6797478Y-15227660D01*
X6797478Y-15227660D02*
X6778430Y-15237184D01*
X6778430Y-15237184D02*
X6759382Y-15237184D01*
X6759382Y-15237184D02*
X6740335Y-15227660D01*
X6740335Y-15227660D02*
X6730811Y-15218136D01*
X6730811Y-15218136D02*
X6721287Y-15199088D01*
X6721287Y-15199088D02*
X6711763Y-15160993D01*
X6711763Y-15160993D02*
X6711763Y-15113374D01*
X6711763Y-15113374D02*
X6721287Y-15075279D01*
X6721287Y-15075279D02*
X6730811Y-15056231D01*
X6730811Y-15056231D02*
X6740335Y-15046708D01*
X6740335Y-15046708D02*
X6759382Y-15037184D01*
X6949859Y-15037184D02*
X6968906Y-15037184D01*
X6968906Y-15037184D02*
X6987954Y-15046708D01*
X6987954Y-15046708D02*
X6997478Y-15056231D01*
X6997478Y-15056231D02*
X7007002Y-15075279D01*
X7007002Y-15075279D02*
X7016525Y-15113374D01*
X7016525Y-15113374D02*
X7016525Y-15160993D01*
X7016525Y-15160993D02*
X7007002Y-15199088D01*
X7007002Y-15199088D02*
X6997478Y-15218136D01*
X6997478Y-15218136D02*
X6987954Y-15227660D01*
X6987954Y-15227660D02*
X6968906Y-15237184D01*
X6968906Y-15237184D02*
X6949859Y-15237184D01*
X6949859Y-15237184D02*
X6930811Y-15227660D01*
X6930811Y-15227660D02*
X6921287Y-15218136D01*
X6921287Y-15218136D02*
X6911763Y-15199088D01*
X6911763Y-15199088D02*
X6902240Y-15160993D01*
X6902240Y-15160993D02*
X6902240Y-15113374D01*
X6902240Y-15113374D02*
X6911763Y-15075279D01*
X6911763Y-15075279D02*
X6921287Y-15056231D01*
X6921287Y-15056231D02*
X6930811Y-15046708D01*
X6930811Y-15046708D02*
X6949859Y-15037184D01*
X7102240Y-15237184D02*
X7102240Y-15103850D01*
X7102240Y-15122898D02*
X7111763Y-15113374D01*
X7111763Y-15113374D02*
X7130811Y-15103850D01*
X7130811Y-15103850D02*
X7159383Y-15103850D01*
X7159383Y-15103850D02*
X7178430Y-15113374D01*
X7178430Y-15113374D02*
X7187954Y-15132422D01*
X7187954Y-15132422D02*
X7187954Y-15237184D01*
X7187954Y-15132422D02*
X7197478Y-15113374D01*
X7197478Y-15113374D02*
X7216525Y-15103850D01*
X7216525Y-15103850D02*
X7245097Y-15103850D01*
X7245097Y-15103850D02*
X7264144Y-15113374D01*
X7264144Y-15113374D02*
X7273668Y-15132422D01*
X7273668Y-15132422D02*
X7273668Y-15237184D01*
X7368906Y-15237184D02*
X7368906Y-15103850D01*
X7368906Y-15122898D02*
X7378430Y-15113374D01*
X7378430Y-15113374D02*
X7397478Y-15103850D01*
X7397478Y-15103850D02*
X7426049Y-15103850D01*
X7426049Y-15103850D02*
X7445097Y-15113374D01*
X7445097Y-15113374D02*
X7454621Y-15132422D01*
X7454621Y-15132422D02*
X7454621Y-15237184D01*
X7454621Y-15132422D02*
X7464144Y-15113374D01*
X7464144Y-15113374D02*
X7483192Y-15103850D01*
X7483192Y-15103850D02*
X7511763Y-15103850D01*
X7511763Y-15103850D02*
X7530811Y-15113374D01*
X7530811Y-15113374D02*
X7540335Y-15132422D01*
X7540335Y-15132422D02*
X7540335Y-15237184D01*
X7930811Y-15027660D02*
X7759383Y-15284803D01*
X8187954Y-15037184D02*
X8207002Y-15037184D01*
X8207002Y-15037184D02*
X8226049Y-15046708D01*
X8226049Y-15046708D02*
X8235573Y-15056231D01*
X8235573Y-15056231D02*
X8245097Y-15075279D01*
X8245097Y-15075279D02*
X8254621Y-15113374D01*
X8254621Y-15113374D02*
X8254621Y-15160993D01*
X8254621Y-15160993D02*
X8245097Y-15199088D01*
X8245097Y-15199088D02*
X8235573Y-15218136D01*
X8235573Y-15218136D02*
X8226049Y-15227660D01*
X8226049Y-15227660D02*
X8207002Y-15237184D01*
X8207002Y-15237184D02*
X8187954Y-15237184D01*
X8187954Y-15237184D02*
X8168906Y-15227660D01*
X8168906Y-15227660D02*
X8159383Y-15218136D01*
X8159383Y-15218136D02*
X8149859Y-15199088D01*
X8149859Y-15199088D02*
X8140335Y-15160993D01*
X8140335Y-15160993D02*
X8140335Y-15113374D01*
X8140335Y-15113374D02*
X8149859Y-15075279D01*
X8149859Y-15075279D02*
X8159383Y-15056231D01*
X8159383Y-15056231D02*
X8168906Y-15046708D01*
X8168906Y-15046708D02*
X8187954Y-15037184D01*
X8340335Y-15218136D02*
X8349859Y-15227660D01*
X8349859Y-15227660D02*
X8340335Y-15237184D01*
X8340335Y-15237184D02*
X8330811Y-15227660D01*
X8330811Y-15227660D02*
X8340335Y-15218136D01*
X8340335Y-15218136D02*
X8340335Y-15237184D01*
X8473668Y-15037184D02*
X8492716Y-15037184D01*
X8492716Y-15037184D02*
X8511764Y-15046708D01*
X8511764Y-15046708D02*
X8521288Y-15056231D01*
X8521288Y-15056231D02*
X8530811Y-15075279D01*
X8530811Y-15075279D02*
X8540335Y-15113374D01*
X8540335Y-15113374D02*
X8540335Y-15160993D01*
X8540335Y-15160993D02*
X8530811Y-15199088D01*
X8530811Y-15199088D02*
X8521288Y-15218136D01*
X8521288Y-15218136D02*
X8511764Y-15227660D01*
X8511764Y-15227660D02*
X8492716Y-15237184D01*
X8492716Y-15237184D02*
X8473668Y-15237184D01*
X8473668Y-15237184D02*
X8454621Y-15227660D01*
X8454621Y-15227660D02*
X8445097Y-15218136D01*
X8445097Y-15218136D02*
X8435573Y-15199088D01*
X8435573Y-15199088D02*
X8426049Y-15160993D01*
X8426049Y-15160993D02*
X8426049Y-15113374D01*
X8426049Y-15113374D02*
X8435573Y-15075279D01*
X8435573Y-15075279D02*
X8445097Y-15056231D01*
X8445097Y-15056231D02*
X8454621Y-15046708D01*
X8454621Y-15046708D02*
X8473668Y-15037184D01*
X8616526Y-15056231D02*
X8626049Y-15046708D01*
X8626049Y-15046708D02*
X8645097Y-15037184D01*
X8645097Y-15037184D02*
X8692716Y-15037184D01*
X8692716Y-15037184D02*
X8711764Y-15046708D01*
X8711764Y-15046708D02*
X8721288Y-15056231D01*
X8721288Y-15056231D02*
X8730811Y-15075279D01*
X8730811Y-15075279D02*
X8730811Y-15094327D01*
X8730811Y-15094327D02*
X8721288Y-15122898D01*
X8721288Y-15122898D02*
X8607002Y-15237184D01*
X8607002Y-15237184D02*
X8730811Y-15237184D01*
X8797478Y-15037184D02*
X8921288Y-15037184D01*
X8921288Y-15037184D02*
X8854621Y-15113374D01*
X8854621Y-15113374D02*
X8883192Y-15113374D01*
X8883192Y-15113374D02*
X8902240Y-15122898D01*
X8902240Y-15122898D02*
X8911764Y-15132422D01*
X8911764Y-15132422D02*
X8921288Y-15151469D01*
X8921288Y-15151469D02*
X8921288Y-15199088D01*
X8921288Y-15199088D02*
X8911764Y-15218136D01*
X8911764Y-15218136D02*
X8902240Y-15227660D01*
X8902240Y-15227660D02*
X8883192Y-15237184D01*
X8883192Y-15237184D02*
X8826049Y-15237184D01*
X8826049Y-15237184D02*
X8807002Y-15227660D01*
X8807002Y-15227660D02*
X8797478Y-15218136D01*
X9092716Y-15037184D02*
X9054621Y-15037184D01*
X9054621Y-15037184D02*
X9035573Y-15046708D01*
X9035573Y-15046708D02*
X9026049Y-15056231D01*
X9026049Y-15056231D02*
X9007002Y-15084803D01*
X9007002Y-15084803D02*
X8997478Y-15122898D01*
X8997478Y-15122898D02*
X8997478Y-15199088D01*
X8997478Y-15199088D02*
X9007002Y-15218136D01*
X9007002Y-15218136D02*
X9016526Y-15227660D01*
X9016526Y-15227660D02*
X9035573Y-15237184D01*
X9035573Y-15237184D02*
X9073669Y-15237184D01*
X9073669Y-15237184D02*
X9092716Y-15227660D01*
X9092716Y-15227660D02*
X9102240Y-15218136D01*
X9102240Y-15218136D02*
X9111764Y-15199088D01*
X9111764Y-15199088D02*
X9111764Y-15151469D01*
X9111764Y-15151469D02*
X9102240Y-15132422D01*
X9102240Y-15132422D02*
X9092716Y-15122898D01*
X9092716Y-15122898D02*
X9073669Y-15113374D01*
X9073669Y-15113374D02*
X9035573Y-15113374D01*
X9035573Y-15113374D02*
X9016526Y-15122898D01*
X9016526Y-15122898D02*
X9007002Y-15132422D01*
X9007002Y-15132422D02*
X8997478Y-15151469D01*
X9187954Y-15037184D02*
X9187954Y-15075279D01*
X9264145Y-15037184D02*
X9264145Y-15075279D01*
X9559383Y-15313374D02*
X9549859Y-15303850D01*
X9549859Y-15303850D02*
X9530811Y-15275279D01*
X9530811Y-15275279D02*
X9521288Y-15256231D01*
X9521288Y-15256231D02*
X9511764Y-15227660D01*
X9511764Y-15227660D02*
X9502240Y-15180041D01*
X9502240Y-15180041D02*
X9502240Y-15141946D01*
X9502240Y-15141946D02*
X9511764Y-15094327D01*
X9511764Y-15094327D02*
X9521288Y-15065755D01*
X9521288Y-15065755D02*
X9530811Y-15046708D01*
X9530811Y-15046708D02*
X9549859Y-15018136D01*
X9549859Y-15018136D02*
X9559383Y-15008612D01*
X9673669Y-15037184D02*
X9692716Y-15037184D01*
X9692716Y-15037184D02*
X9711764Y-15046708D01*
X9711764Y-15046708D02*
X9721288Y-15056231D01*
X9721288Y-15056231D02*
X9730811Y-15075279D01*
X9730811Y-15075279D02*
X9740335Y-15113374D01*
X9740335Y-15113374D02*
X9740335Y-15160993D01*
X9740335Y-15160993D02*
X9730811Y-15199088D01*
X9730811Y-15199088D02*
X9721288Y-15218136D01*
X9721288Y-15218136D02*
X9711764Y-15227660D01*
X9711764Y-15227660D02*
X9692716Y-15237184D01*
X9692716Y-15237184D02*
X9673669Y-15237184D01*
X9673669Y-15237184D02*
X9654621Y-15227660D01*
X9654621Y-15227660D02*
X9645097Y-15218136D01*
X9645097Y-15218136D02*
X9635573Y-15199088D01*
X9635573Y-15199088D02*
X9626050Y-15160993D01*
X9626050Y-15160993D02*
X9626050Y-15113374D01*
X9626050Y-15113374D02*
X9635573Y-15075279D01*
X9635573Y-15075279D02*
X9645097Y-15056231D01*
X9645097Y-15056231D02*
X9654621Y-15046708D01*
X9654621Y-15046708D02*
X9673669Y-15037184D01*
X9978431Y-15237184D02*
X9978431Y-15037184D01*
X10064145Y-15237184D02*
X10064145Y-15132422D01*
X10064145Y-15132422D02*
X10054621Y-15113374D01*
X10054621Y-15113374D02*
X10035573Y-15103850D01*
X10035573Y-15103850D02*
X10007002Y-15103850D01*
X10007002Y-15103850D02*
X9987954Y-15113374D01*
X9987954Y-15113374D02*
X9978431Y-15122898D01*
X10187954Y-15237184D02*
X10168907Y-15227660D01*
X10168907Y-15227660D02*
X10159383Y-15218136D01*
X10159383Y-15218136D02*
X10149859Y-15199088D01*
X10149859Y-15199088D02*
X10149859Y-15141946D01*
X10149859Y-15141946D02*
X10159383Y-15122898D01*
X10159383Y-15122898D02*
X10168907Y-15113374D01*
X10168907Y-15113374D02*
X10187954Y-15103850D01*
X10187954Y-15103850D02*
X10216526Y-15103850D01*
X10216526Y-15103850D02*
X10235573Y-15113374D01*
X10235573Y-15113374D02*
X10245097Y-15122898D01*
X10245097Y-15122898D02*
X10254621Y-15141946D01*
X10254621Y-15141946D02*
X10254621Y-15199088D01*
X10254621Y-15199088D02*
X10245097Y-15218136D01*
X10245097Y-15218136D02*
X10235573Y-15227660D01*
X10235573Y-15227660D02*
X10216526Y-15237184D01*
X10216526Y-15237184D02*
X10187954Y-15237184D01*
X10368907Y-15237184D02*
X10349859Y-15227660D01*
X10349859Y-15227660D02*
X10340335Y-15208612D01*
X10340335Y-15208612D02*
X10340335Y-15037184D01*
X10521288Y-15227660D02*
X10502240Y-15237184D01*
X10502240Y-15237184D02*
X10464145Y-15237184D01*
X10464145Y-15237184D02*
X10445097Y-15227660D01*
X10445097Y-15227660D02*
X10435573Y-15208612D01*
X10435573Y-15208612D02*
X10435573Y-15132422D01*
X10435573Y-15132422D02*
X10445097Y-15113374D01*
X10445097Y-15113374D02*
X10464145Y-15103850D01*
X10464145Y-15103850D02*
X10502240Y-15103850D01*
X10502240Y-15103850D02*
X10521288Y-15113374D01*
X10521288Y-15113374D02*
X10530812Y-15132422D01*
X10530812Y-15132422D02*
X10530812Y-15151469D01*
X10530812Y-15151469D02*
X10435573Y-15170517D01*
X10607002Y-15227660D02*
X10626050Y-15237184D01*
X10626050Y-15237184D02*
X10664145Y-15237184D01*
X10664145Y-15237184D02*
X10683193Y-15227660D01*
X10683193Y-15227660D02*
X10692716Y-15208612D01*
X10692716Y-15208612D02*
X10692716Y-15199088D01*
X10692716Y-15199088D02*
X10683193Y-15180041D01*
X10683193Y-15180041D02*
X10664145Y-15170517D01*
X10664145Y-15170517D02*
X10635573Y-15170517D01*
X10635573Y-15170517D02*
X10616526Y-15160993D01*
X10616526Y-15160993D02*
X10607002Y-15141946D01*
X10607002Y-15141946D02*
X10607002Y-15132422D01*
X10607002Y-15132422D02*
X10616526Y-15113374D01*
X10616526Y-15113374D02*
X10635573Y-15103850D01*
X10635573Y-15103850D02*
X10664145Y-15103850D01*
X10664145Y-15103850D02*
X10683193Y-15113374D01*
X10930812Y-15160993D02*
X11083193Y-15160993D01*
X11007002Y-15237184D02*
X11007002Y-15084803D01*
X11321288Y-15056231D02*
X11330812Y-15046708D01*
X11330812Y-15046708D02*
X11349859Y-15037184D01*
X11349859Y-15037184D02*
X11397478Y-15037184D01*
X11397478Y-15037184D02*
X11416526Y-15046708D01*
X11416526Y-15046708D02*
X11426050Y-15056231D01*
X11426050Y-15056231D02*
X11435573Y-15075279D01*
X11435573Y-15075279D02*
X11435573Y-15094327D01*
X11435573Y-15094327D02*
X11426050Y-15122898D01*
X11426050Y-15122898D02*
X11311764Y-15237184D01*
X11311764Y-15237184D02*
X11435573Y-15237184D01*
X11664145Y-15227660D02*
X11683193Y-15237184D01*
X11683193Y-15237184D02*
X11721288Y-15237184D01*
X11721288Y-15237184D02*
X11740335Y-15227660D01*
X11740335Y-15227660D02*
X11749859Y-15208612D01*
X11749859Y-15208612D02*
X11749859Y-15199088D01*
X11749859Y-15199088D02*
X11740335Y-15180041D01*
X11740335Y-15180041D02*
X11721288Y-15170517D01*
X11721288Y-15170517D02*
X11692716Y-15170517D01*
X11692716Y-15170517D02*
X11673669Y-15160993D01*
X11673669Y-15160993D02*
X11664145Y-15141946D01*
X11664145Y-15141946D02*
X11664145Y-15132422D01*
X11664145Y-15132422D02*
X11673669Y-15113374D01*
X11673669Y-15113374D02*
X11692716Y-15103850D01*
X11692716Y-15103850D02*
X11721288Y-15103850D01*
X11721288Y-15103850D02*
X11740335Y-15113374D01*
X11864145Y-15237184D02*
X11845097Y-15227660D01*
X11845097Y-15227660D02*
X11835574Y-15208612D01*
X11835574Y-15208612D02*
X11835574Y-15037184D01*
X11968907Y-15237184D02*
X11949859Y-15227660D01*
X11949859Y-15227660D02*
X11940335Y-15218136D01*
X11940335Y-15218136D02*
X11930812Y-15199088D01*
X11930812Y-15199088D02*
X11930812Y-15141946D01*
X11930812Y-15141946D02*
X11940335Y-15122898D01*
X11940335Y-15122898D02*
X11949859Y-15113374D01*
X11949859Y-15113374D02*
X11968907Y-15103850D01*
X11968907Y-15103850D02*
X11997478Y-15103850D01*
X11997478Y-15103850D02*
X12016526Y-15113374D01*
X12016526Y-15113374D02*
X12026050Y-15122898D01*
X12026050Y-15122898D02*
X12035574Y-15141946D01*
X12035574Y-15141946D02*
X12035574Y-15199088D01*
X12035574Y-15199088D02*
X12026050Y-15218136D01*
X12026050Y-15218136D02*
X12016526Y-15227660D01*
X12016526Y-15227660D02*
X11997478Y-15237184D01*
X11997478Y-15237184D02*
X11968907Y-15237184D01*
X12092716Y-15103850D02*
X12168907Y-15103850D01*
X12121288Y-15037184D02*
X12121288Y-15208612D01*
X12121288Y-15208612D02*
X12130812Y-15227660D01*
X12130812Y-15227660D02*
X12149859Y-15237184D01*
X12149859Y-15237184D02*
X12168907Y-15237184D01*
X12226050Y-15227660D02*
X12245097Y-15237184D01*
X12245097Y-15237184D02*
X12283193Y-15237184D01*
X12283193Y-15237184D02*
X12302240Y-15227660D01*
X12302240Y-15227660D02*
X12311764Y-15208612D01*
X12311764Y-15208612D02*
X12311764Y-15199088D01*
X12311764Y-15199088D02*
X12302240Y-15180041D01*
X12302240Y-15180041D02*
X12283193Y-15170517D01*
X12283193Y-15170517D02*
X12254621Y-15170517D01*
X12254621Y-15170517D02*
X12235574Y-15160993D01*
X12235574Y-15160993D02*
X12226050Y-15141946D01*
X12226050Y-15141946D02*
X12226050Y-15132422D01*
X12226050Y-15132422D02*
X12235574Y-15113374D01*
X12235574Y-15113374D02*
X12254621Y-15103850D01*
X12254621Y-15103850D02*
X12283193Y-15103850D01*
X12283193Y-15103850D02*
X12302240Y-15113374D01*
X12378431Y-15313374D02*
X12387955Y-15303850D01*
X12387955Y-15303850D02*
X12407002Y-15275279D01*
X12407002Y-15275279D02*
X12416526Y-15256231D01*
X12416526Y-15256231D02*
X12426050Y-15227660D01*
X12426050Y-15227660D02*
X12435574Y-15180041D01*
X12435574Y-15180041D02*
X12435574Y-15141946D01*
X12435574Y-15141946D02*
X12426050Y-15094327D01*
X12426050Y-15094327D02*
X12416526Y-15065755D01*
X12416526Y-15065755D02*
X12407002Y-15046708D01*
X12407002Y-15046708D02*
X12387955Y-15018136D01*
X12387955Y-15018136D02*
X12378431Y-15008612D01*
D14*
X5938320Y-15363700D02*
X5938320Y-15455700D01*
X5892320Y-15409700D02*
X5984320Y-15409700D01*
D11*
X6283192Y-15301184D02*
X6302240Y-15301184D01*
X6302240Y-15301184D02*
X6321287Y-15310708D01*
X6321287Y-15310708D02*
X6330811Y-15320231D01*
X6330811Y-15320231D02*
X6340335Y-15339279D01*
X6340335Y-15339279D02*
X6349859Y-15377374D01*
X6349859Y-15377374D02*
X6349859Y-15424993D01*
X6349859Y-15424993D02*
X6340335Y-15463088D01*
X6340335Y-15463088D02*
X6330811Y-15482136D01*
X6330811Y-15482136D02*
X6321287Y-15491660D01*
X6321287Y-15491660D02*
X6302240Y-15501184D01*
X6302240Y-15501184D02*
X6283192Y-15501184D01*
X6283192Y-15501184D02*
X6264144Y-15491660D01*
X6264144Y-15491660D02*
X6254621Y-15482136D01*
X6254621Y-15482136D02*
X6245097Y-15463088D01*
X6245097Y-15463088D02*
X6235573Y-15424993D01*
X6235573Y-15424993D02*
X6235573Y-15377374D01*
X6235573Y-15377374D02*
X6245097Y-15339279D01*
X6245097Y-15339279D02*
X6254621Y-15320231D01*
X6254621Y-15320231D02*
X6264144Y-15310708D01*
X6264144Y-15310708D02*
X6283192Y-15301184D01*
X6435573Y-15482136D02*
X6445097Y-15491660D01*
X6445097Y-15491660D02*
X6435573Y-15501184D01*
X6435573Y-15501184D02*
X6426049Y-15491660D01*
X6426049Y-15491660D02*
X6435573Y-15482136D01*
X6435573Y-15482136D02*
X6435573Y-15501184D01*
X6540335Y-15501184D02*
X6578430Y-15501184D01*
X6578430Y-15501184D02*
X6597478Y-15491660D01*
X6597478Y-15491660D02*
X6607002Y-15482136D01*
X6607002Y-15482136D02*
X6626049Y-15453565D01*
X6626049Y-15453565D02*
X6635573Y-15415469D01*
X6635573Y-15415469D02*
X6635573Y-15339279D01*
X6635573Y-15339279D02*
X6626049Y-15320231D01*
X6626049Y-15320231D02*
X6616525Y-15310708D01*
X6616525Y-15310708D02*
X6597478Y-15301184D01*
X6597478Y-15301184D02*
X6559382Y-15301184D01*
X6559382Y-15301184D02*
X6540335Y-15310708D01*
X6540335Y-15310708D02*
X6530811Y-15320231D01*
X6530811Y-15320231D02*
X6521287Y-15339279D01*
X6521287Y-15339279D02*
X6521287Y-15386898D01*
X6521287Y-15386898D02*
X6530811Y-15405946D01*
X6530811Y-15405946D02*
X6540335Y-15415469D01*
X6540335Y-15415469D02*
X6559382Y-15424993D01*
X6559382Y-15424993D02*
X6597478Y-15424993D01*
X6597478Y-15424993D02*
X6616525Y-15415469D01*
X6616525Y-15415469D02*
X6626049Y-15405946D01*
X6626049Y-15405946D02*
X6635573Y-15386898D01*
X6711763Y-15320231D02*
X6721287Y-15310708D01*
X6721287Y-15310708D02*
X6740335Y-15301184D01*
X6740335Y-15301184D02*
X6787954Y-15301184D01*
X6787954Y-15301184D02*
X6807002Y-15310708D01*
X6807002Y-15310708D02*
X6816525Y-15320231D01*
X6816525Y-15320231D02*
X6826049Y-15339279D01*
X6826049Y-15339279D02*
X6826049Y-15358327D01*
X6826049Y-15358327D02*
X6816525Y-15386898D01*
X6816525Y-15386898D02*
X6702240Y-15501184D01*
X6702240Y-15501184D02*
X6826049Y-15501184D01*
X6949859Y-15301184D02*
X6968906Y-15301184D01*
X6968906Y-15301184D02*
X6987954Y-15310708D01*
X6987954Y-15310708D02*
X6997478Y-15320231D01*
X6997478Y-15320231D02*
X7007002Y-15339279D01*
X7007002Y-15339279D02*
X7016525Y-15377374D01*
X7016525Y-15377374D02*
X7016525Y-15424993D01*
X7016525Y-15424993D02*
X7007002Y-15463088D01*
X7007002Y-15463088D02*
X6997478Y-15482136D01*
X6997478Y-15482136D02*
X6987954Y-15491660D01*
X6987954Y-15491660D02*
X6968906Y-15501184D01*
X6968906Y-15501184D02*
X6949859Y-15501184D01*
X6949859Y-15501184D02*
X6930811Y-15491660D01*
X6930811Y-15491660D02*
X6921287Y-15482136D01*
X6921287Y-15482136D02*
X6911763Y-15463088D01*
X6911763Y-15463088D02*
X6902240Y-15424993D01*
X6902240Y-15424993D02*
X6902240Y-15377374D01*
X6902240Y-15377374D02*
X6911763Y-15339279D01*
X6911763Y-15339279D02*
X6921287Y-15320231D01*
X6921287Y-15320231D02*
X6930811Y-15310708D01*
X6930811Y-15310708D02*
X6949859Y-15301184D01*
X7102240Y-15501184D02*
X7102240Y-15367850D01*
X7102240Y-15386898D02*
X7111763Y-15377374D01*
X7111763Y-15377374D02*
X7130811Y-15367850D01*
X7130811Y-15367850D02*
X7159383Y-15367850D01*
X7159383Y-15367850D02*
X7178430Y-15377374D01*
X7178430Y-15377374D02*
X7187954Y-15396422D01*
X7187954Y-15396422D02*
X7187954Y-15501184D01*
X7187954Y-15396422D02*
X7197478Y-15377374D01*
X7197478Y-15377374D02*
X7216525Y-15367850D01*
X7216525Y-15367850D02*
X7245097Y-15367850D01*
X7245097Y-15367850D02*
X7264144Y-15377374D01*
X7264144Y-15377374D02*
X7273668Y-15396422D01*
X7273668Y-15396422D02*
X7273668Y-15501184D01*
X7368906Y-15501184D02*
X7368906Y-15367850D01*
X7368906Y-15386898D02*
X7378430Y-15377374D01*
X7378430Y-15377374D02*
X7397478Y-15367850D01*
X7397478Y-15367850D02*
X7426049Y-15367850D01*
X7426049Y-15367850D02*
X7445097Y-15377374D01*
X7445097Y-15377374D02*
X7454621Y-15396422D01*
X7454621Y-15396422D02*
X7454621Y-15501184D01*
X7454621Y-15396422D02*
X7464144Y-15377374D01*
X7464144Y-15377374D02*
X7483192Y-15367850D01*
X7483192Y-15367850D02*
X7511763Y-15367850D01*
X7511763Y-15367850D02*
X7530811Y-15377374D01*
X7530811Y-15377374D02*
X7540335Y-15396422D01*
X7540335Y-15396422D02*
X7540335Y-15501184D01*
X7930811Y-15291660D02*
X7759383Y-15548803D01*
X8187954Y-15301184D02*
X8207002Y-15301184D01*
X8207002Y-15301184D02*
X8226049Y-15310708D01*
X8226049Y-15310708D02*
X8235573Y-15320231D01*
X8235573Y-15320231D02*
X8245097Y-15339279D01*
X8245097Y-15339279D02*
X8254621Y-15377374D01*
X8254621Y-15377374D02*
X8254621Y-15424993D01*
X8254621Y-15424993D02*
X8245097Y-15463088D01*
X8245097Y-15463088D02*
X8235573Y-15482136D01*
X8235573Y-15482136D02*
X8226049Y-15491660D01*
X8226049Y-15491660D02*
X8207002Y-15501184D01*
X8207002Y-15501184D02*
X8187954Y-15501184D01*
X8187954Y-15501184D02*
X8168906Y-15491660D01*
X8168906Y-15491660D02*
X8159383Y-15482136D01*
X8159383Y-15482136D02*
X8149859Y-15463088D01*
X8149859Y-15463088D02*
X8140335Y-15424993D01*
X8140335Y-15424993D02*
X8140335Y-15377374D01*
X8140335Y-15377374D02*
X8149859Y-15339279D01*
X8149859Y-15339279D02*
X8159383Y-15320231D01*
X8159383Y-15320231D02*
X8168906Y-15310708D01*
X8168906Y-15310708D02*
X8187954Y-15301184D01*
X8340335Y-15482136D02*
X8349859Y-15491660D01*
X8349859Y-15491660D02*
X8340335Y-15501184D01*
X8340335Y-15501184D02*
X8330811Y-15491660D01*
X8330811Y-15491660D02*
X8340335Y-15482136D01*
X8340335Y-15482136D02*
X8340335Y-15501184D01*
X8473668Y-15301184D02*
X8492716Y-15301184D01*
X8492716Y-15301184D02*
X8511764Y-15310708D01*
X8511764Y-15310708D02*
X8521288Y-15320231D01*
X8521288Y-15320231D02*
X8530811Y-15339279D01*
X8530811Y-15339279D02*
X8540335Y-15377374D01*
X8540335Y-15377374D02*
X8540335Y-15424993D01*
X8540335Y-15424993D02*
X8530811Y-15463088D01*
X8530811Y-15463088D02*
X8521288Y-15482136D01*
X8521288Y-15482136D02*
X8511764Y-15491660D01*
X8511764Y-15491660D02*
X8492716Y-15501184D01*
X8492716Y-15501184D02*
X8473668Y-15501184D01*
X8473668Y-15501184D02*
X8454621Y-15491660D01*
X8454621Y-15491660D02*
X8445097Y-15482136D01*
X8445097Y-15482136D02*
X8435573Y-15463088D01*
X8435573Y-15463088D02*
X8426049Y-15424993D01*
X8426049Y-15424993D02*
X8426049Y-15377374D01*
X8426049Y-15377374D02*
X8435573Y-15339279D01*
X8435573Y-15339279D02*
X8445097Y-15320231D01*
X8445097Y-15320231D02*
X8454621Y-15310708D01*
X8454621Y-15310708D02*
X8473668Y-15301184D01*
X8607002Y-15301184D02*
X8730811Y-15301184D01*
X8730811Y-15301184D02*
X8664145Y-15377374D01*
X8664145Y-15377374D02*
X8692716Y-15377374D01*
X8692716Y-15377374D02*
X8711764Y-15386898D01*
X8711764Y-15386898D02*
X8721288Y-15396422D01*
X8721288Y-15396422D02*
X8730811Y-15415469D01*
X8730811Y-15415469D02*
X8730811Y-15463088D01*
X8730811Y-15463088D02*
X8721288Y-15482136D01*
X8721288Y-15482136D02*
X8711764Y-15491660D01*
X8711764Y-15491660D02*
X8692716Y-15501184D01*
X8692716Y-15501184D02*
X8635573Y-15501184D01*
X8635573Y-15501184D02*
X8616526Y-15491660D01*
X8616526Y-15491660D02*
X8607002Y-15482136D01*
X8902240Y-15301184D02*
X8864145Y-15301184D01*
X8864145Y-15301184D02*
X8845097Y-15310708D01*
X8845097Y-15310708D02*
X8835573Y-15320231D01*
X8835573Y-15320231D02*
X8816526Y-15348803D01*
X8816526Y-15348803D02*
X8807002Y-15386898D01*
X8807002Y-15386898D02*
X8807002Y-15463088D01*
X8807002Y-15463088D02*
X8816526Y-15482136D01*
X8816526Y-15482136D02*
X8826049Y-15491660D01*
X8826049Y-15491660D02*
X8845097Y-15501184D01*
X8845097Y-15501184D02*
X8883192Y-15501184D01*
X8883192Y-15501184D02*
X8902240Y-15491660D01*
X8902240Y-15491660D02*
X8911764Y-15482136D01*
X8911764Y-15482136D02*
X8921288Y-15463088D01*
X8921288Y-15463088D02*
X8921288Y-15415469D01*
X8921288Y-15415469D02*
X8911764Y-15396422D01*
X8911764Y-15396422D02*
X8902240Y-15386898D01*
X8902240Y-15386898D02*
X8883192Y-15377374D01*
X8883192Y-15377374D02*
X8845097Y-15377374D01*
X8845097Y-15377374D02*
X8826049Y-15386898D01*
X8826049Y-15386898D02*
X8816526Y-15396422D01*
X8816526Y-15396422D02*
X8807002Y-15415469D01*
X8997478Y-15320231D02*
X9007002Y-15310708D01*
X9007002Y-15310708D02*
X9026049Y-15301184D01*
X9026049Y-15301184D02*
X9073669Y-15301184D01*
X9073669Y-15301184D02*
X9092716Y-15310708D01*
X9092716Y-15310708D02*
X9102240Y-15320231D01*
X9102240Y-15320231D02*
X9111764Y-15339279D01*
X9111764Y-15339279D02*
X9111764Y-15358327D01*
X9111764Y-15358327D02*
X9102240Y-15386898D01*
X9102240Y-15386898D02*
X8987954Y-15501184D01*
X8987954Y-15501184D02*
X9111764Y-15501184D01*
X9187954Y-15301184D02*
X9187954Y-15339279D01*
X9264145Y-15301184D02*
X9264145Y-15339279D01*
X9559383Y-15577374D02*
X9549859Y-15567850D01*
X9549859Y-15567850D02*
X9530811Y-15539279D01*
X9530811Y-15539279D02*
X9521288Y-15520231D01*
X9521288Y-15520231D02*
X9511764Y-15491660D01*
X9511764Y-15491660D02*
X9502240Y-15444041D01*
X9502240Y-15444041D02*
X9502240Y-15405946D01*
X9502240Y-15405946D02*
X9511764Y-15358327D01*
X9511764Y-15358327D02*
X9521288Y-15329755D01*
X9521288Y-15329755D02*
X9530811Y-15310708D01*
X9530811Y-15310708D02*
X9549859Y-15282136D01*
X9549859Y-15282136D02*
X9559383Y-15272612D01*
X9721288Y-15367850D02*
X9721288Y-15501184D01*
X9673669Y-15291660D02*
X9626050Y-15434517D01*
X9626050Y-15434517D02*
X9749859Y-15434517D01*
X9978431Y-15501184D02*
X9978431Y-15301184D01*
X10064145Y-15501184D02*
X10064145Y-15396422D01*
X10064145Y-15396422D02*
X10054621Y-15377374D01*
X10054621Y-15377374D02*
X10035573Y-15367850D01*
X10035573Y-15367850D02*
X10007002Y-15367850D01*
X10007002Y-15367850D02*
X9987954Y-15377374D01*
X9987954Y-15377374D02*
X9978431Y-15386898D01*
X10187954Y-15501184D02*
X10168907Y-15491660D01*
X10168907Y-15491660D02*
X10159383Y-15482136D01*
X10159383Y-15482136D02*
X10149859Y-15463088D01*
X10149859Y-15463088D02*
X10149859Y-15405946D01*
X10149859Y-15405946D02*
X10159383Y-15386898D01*
X10159383Y-15386898D02*
X10168907Y-15377374D01*
X10168907Y-15377374D02*
X10187954Y-15367850D01*
X10187954Y-15367850D02*
X10216526Y-15367850D01*
X10216526Y-15367850D02*
X10235573Y-15377374D01*
X10235573Y-15377374D02*
X10245097Y-15386898D01*
X10245097Y-15386898D02*
X10254621Y-15405946D01*
X10254621Y-15405946D02*
X10254621Y-15463088D01*
X10254621Y-15463088D02*
X10245097Y-15482136D01*
X10245097Y-15482136D02*
X10235573Y-15491660D01*
X10235573Y-15491660D02*
X10216526Y-15501184D01*
X10216526Y-15501184D02*
X10187954Y-15501184D01*
X10368907Y-15501184D02*
X10349859Y-15491660D01*
X10349859Y-15491660D02*
X10340335Y-15472612D01*
X10340335Y-15472612D02*
X10340335Y-15301184D01*
X10521288Y-15491660D02*
X10502240Y-15501184D01*
X10502240Y-15501184D02*
X10464145Y-15501184D01*
X10464145Y-15501184D02*
X10445097Y-15491660D01*
X10445097Y-15491660D02*
X10435573Y-15472612D01*
X10435573Y-15472612D02*
X10435573Y-15396422D01*
X10435573Y-15396422D02*
X10445097Y-15377374D01*
X10445097Y-15377374D02*
X10464145Y-15367850D01*
X10464145Y-15367850D02*
X10502240Y-15367850D01*
X10502240Y-15367850D02*
X10521288Y-15377374D01*
X10521288Y-15377374D02*
X10530812Y-15396422D01*
X10530812Y-15396422D02*
X10530812Y-15415469D01*
X10530812Y-15415469D02*
X10435573Y-15434517D01*
X10607002Y-15491660D02*
X10626050Y-15501184D01*
X10626050Y-15501184D02*
X10664145Y-15501184D01*
X10664145Y-15501184D02*
X10683193Y-15491660D01*
X10683193Y-15491660D02*
X10692716Y-15472612D01*
X10692716Y-15472612D02*
X10692716Y-15463088D01*
X10692716Y-15463088D02*
X10683193Y-15444041D01*
X10683193Y-15444041D02*
X10664145Y-15434517D01*
X10664145Y-15434517D02*
X10635573Y-15434517D01*
X10635573Y-15434517D02*
X10616526Y-15424993D01*
X10616526Y-15424993D02*
X10607002Y-15405946D01*
X10607002Y-15405946D02*
X10607002Y-15396422D01*
X10607002Y-15396422D02*
X10616526Y-15377374D01*
X10616526Y-15377374D02*
X10635573Y-15367850D01*
X10635573Y-15367850D02*
X10664145Y-15367850D01*
X10664145Y-15367850D02*
X10683193Y-15377374D01*
X10759383Y-15577374D02*
X10768907Y-15567850D01*
X10768907Y-15567850D02*
X10787954Y-15539279D01*
X10787954Y-15539279D02*
X10797478Y-15520231D01*
X10797478Y-15520231D02*
X10807002Y-15491660D01*
X10807002Y-15491660D02*
X10816526Y-15444041D01*
X10816526Y-15444041D02*
X10816526Y-15405946D01*
X10816526Y-15405946D02*
X10807002Y-15358327D01*
X10807002Y-15358327D02*
X10797478Y-15329755D01*
X10797478Y-15329755D02*
X10787954Y-15310708D01*
X10787954Y-15310708D02*
X10768907Y-15282136D01*
X10768907Y-15282136D02*
X10759383Y-15272612D01*
D15*
X5970408Y-15707288D02*
X5970408Y-15640112D01*
X5903232Y-15640112D01*
X5903232Y-15707288D01*
X5970408Y-15707288D01*
D11*
X6283192Y-15565184D02*
X6302240Y-15565184D01*
X6302240Y-15565184D02*
X6321287Y-15574708D01*
X6321287Y-15574708D02*
X6330811Y-15584231D01*
X6330811Y-15584231D02*
X6340335Y-15603279D01*
X6340335Y-15603279D02*
X6349859Y-15641374D01*
X6349859Y-15641374D02*
X6349859Y-15688993D01*
X6349859Y-15688993D02*
X6340335Y-15727088D01*
X6340335Y-15727088D02*
X6330811Y-15746136D01*
X6330811Y-15746136D02*
X6321287Y-15755660D01*
X6321287Y-15755660D02*
X6302240Y-15765184D01*
X6302240Y-15765184D02*
X6283192Y-15765184D01*
X6283192Y-15765184D02*
X6264144Y-15755660D01*
X6264144Y-15755660D02*
X6254621Y-15746136D01*
X6254621Y-15746136D02*
X6245097Y-15727088D01*
X6245097Y-15727088D02*
X6235573Y-15688993D01*
X6235573Y-15688993D02*
X6235573Y-15641374D01*
X6235573Y-15641374D02*
X6245097Y-15603279D01*
X6245097Y-15603279D02*
X6254621Y-15584231D01*
X6254621Y-15584231D02*
X6264144Y-15574708D01*
X6264144Y-15574708D02*
X6283192Y-15565184D01*
X6435573Y-15746136D02*
X6445097Y-15755660D01*
X6445097Y-15755660D02*
X6435573Y-15765184D01*
X6435573Y-15765184D02*
X6426049Y-15755660D01*
X6426049Y-15755660D02*
X6435573Y-15746136D01*
X6435573Y-15746136D02*
X6435573Y-15765184D01*
X6540335Y-15765184D02*
X6578430Y-15765184D01*
X6578430Y-15765184D02*
X6597478Y-15755660D01*
X6597478Y-15755660D02*
X6607002Y-15746136D01*
X6607002Y-15746136D02*
X6626049Y-15717565D01*
X6626049Y-15717565D02*
X6635573Y-15679469D01*
X6635573Y-15679469D02*
X6635573Y-15603279D01*
X6635573Y-15603279D02*
X6626049Y-15584231D01*
X6626049Y-15584231D02*
X6616525Y-15574708D01*
X6616525Y-15574708D02*
X6597478Y-15565184D01*
X6597478Y-15565184D02*
X6559382Y-15565184D01*
X6559382Y-15565184D02*
X6540335Y-15574708D01*
X6540335Y-15574708D02*
X6530811Y-15584231D01*
X6530811Y-15584231D02*
X6521287Y-15603279D01*
X6521287Y-15603279D02*
X6521287Y-15650898D01*
X6521287Y-15650898D02*
X6530811Y-15669946D01*
X6530811Y-15669946D02*
X6540335Y-15679469D01*
X6540335Y-15679469D02*
X6559382Y-15688993D01*
X6559382Y-15688993D02*
X6597478Y-15688993D01*
X6597478Y-15688993D02*
X6616525Y-15679469D01*
X6616525Y-15679469D02*
X6626049Y-15669946D01*
X6626049Y-15669946D02*
X6635573Y-15650898D01*
X6816525Y-15565184D02*
X6721287Y-15565184D01*
X6721287Y-15565184D02*
X6711763Y-15660422D01*
X6711763Y-15660422D02*
X6721287Y-15650898D01*
X6721287Y-15650898D02*
X6740335Y-15641374D01*
X6740335Y-15641374D02*
X6787954Y-15641374D01*
X6787954Y-15641374D02*
X6807002Y-15650898D01*
X6807002Y-15650898D02*
X6816525Y-15660422D01*
X6816525Y-15660422D02*
X6826049Y-15679469D01*
X6826049Y-15679469D02*
X6826049Y-15727088D01*
X6826049Y-15727088D02*
X6816525Y-15746136D01*
X6816525Y-15746136D02*
X6807002Y-15755660D01*
X6807002Y-15755660D02*
X6787954Y-15765184D01*
X6787954Y-15765184D02*
X6740335Y-15765184D01*
X6740335Y-15765184D02*
X6721287Y-15755660D01*
X6721287Y-15755660D02*
X6711763Y-15746136D01*
X6949859Y-15565184D02*
X6968906Y-15565184D01*
X6968906Y-15565184D02*
X6987954Y-15574708D01*
X6987954Y-15574708D02*
X6997478Y-15584231D01*
X6997478Y-15584231D02*
X7007002Y-15603279D01*
X7007002Y-15603279D02*
X7016525Y-15641374D01*
X7016525Y-15641374D02*
X7016525Y-15688993D01*
X7016525Y-15688993D02*
X7007002Y-15727088D01*
X7007002Y-15727088D02*
X6997478Y-15746136D01*
X6997478Y-15746136D02*
X6987954Y-15755660D01*
X6987954Y-15755660D02*
X6968906Y-15765184D01*
X6968906Y-15765184D02*
X6949859Y-15765184D01*
X6949859Y-15765184D02*
X6930811Y-15755660D01*
X6930811Y-15755660D02*
X6921287Y-15746136D01*
X6921287Y-15746136D02*
X6911763Y-15727088D01*
X6911763Y-15727088D02*
X6902240Y-15688993D01*
X6902240Y-15688993D02*
X6902240Y-15641374D01*
X6902240Y-15641374D02*
X6911763Y-15603279D01*
X6911763Y-15603279D02*
X6921287Y-15584231D01*
X6921287Y-15584231D02*
X6930811Y-15574708D01*
X6930811Y-15574708D02*
X6949859Y-15565184D01*
X7102240Y-15765184D02*
X7102240Y-15631850D01*
X7102240Y-15650898D02*
X7111763Y-15641374D01*
X7111763Y-15641374D02*
X7130811Y-15631850D01*
X7130811Y-15631850D02*
X7159383Y-15631850D01*
X7159383Y-15631850D02*
X7178430Y-15641374D01*
X7178430Y-15641374D02*
X7187954Y-15660422D01*
X7187954Y-15660422D02*
X7187954Y-15765184D01*
X7187954Y-15660422D02*
X7197478Y-15641374D01*
X7197478Y-15641374D02*
X7216525Y-15631850D01*
X7216525Y-15631850D02*
X7245097Y-15631850D01*
X7245097Y-15631850D02*
X7264144Y-15641374D01*
X7264144Y-15641374D02*
X7273668Y-15660422D01*
X7273668Y-15660422D02*
X7273668Y-15765184D01*
X7368906Y-15765184D02*
X7368906Y-15631850D01*
X7368906Y-15650898D02*
X7378430Y-15641374D01*
X7378430Y-15641374D02*
X7397478Y-15631850D01*
X7397478Y-15631850D02*
X7426049Y-15631850D01*
X7426049Y-15631850D02*
X7445097Y-15641374D01*
X7445097Y-15641374D02*
X7454621Y-15660422D01*
X7454621Y-15660422D02*
X7454621Y-15765184D01*
X7454621Y-15660422D02*
X7464144Y-15641374D01*
X7464144Y-15641374D02*
X7483192Y-15631850D01*
X7483192Y-15631850D02*
X7511763Y-15631850D01*
X7511763Y-15631850D02*
X7530811Y-15641374D01*
X7530811Y-15641374D02*
X7540335Y-15660422D01*
X7540335Y-15660422D02*
X7540335Y-15765184D01*
X7930811Y-15555660D02*
X7759383Y-15812803D01*
X8187954Y-15565184D02*
X8207002Y-15565184D01*
X8207002Y-15565184D02*
X8226049Y-15574708D01*
X8226049Y-15574708D02*
X8235573Y-15584231D01*
X8235573Y-15584231D02*
X8245097Y-15603279D01*
X8245097Y-15603279D02*
X8254621Y-15641374D01*
X8254621Y-15641374D02*
X8254621Y-15688993D01*
X8254621Y-15688993D02*
X8245097Y-15727088D01*
X8245097Y-15727088D02*
X8235573Y-15746136D01*
X8235573Y-15746136D02*
X8226049Y-15755660D01*
X8226049Y-15755660D02*
X8207002Y-15765184D01*
X8207002Y-15765184D02*
X8187954Y-15765184D01*
X8187954Y-15765184D02*
X8168906Y-15755660D01*
X8168906Y-15755660D02*
X8159383Y-15746136D01*
X8159383Y-15746136D02*
X8149859Y-15727088D01*
X8149859Y-15727088D02*
X8140335Y-15688993D01*
X8140335Y-15688993D02*
X8140335Y-15641374D01*
X8140335Y-15641374D02*
X8149859Y-15603279D01*
X8149859Y-15603279D02*
X8159383Y-15584231D01*
X8159383Y-15584231D02*
X8168906Y-15574708D01*
X8168906Y-15574708D02*
X8187954Y-15565184D01*
X8340335Y-15746136D02*
X8349859Y-15755660D01*
X8349859Y-15755660D02*
X8340335Y-15765184D01*
X8340335Y-15765184D02*
X8330811Y-15755660D01*
X8330811Y-15755660D02*
X8340335Y-15746136D01*
X8340335Y-15746136D02*
X8340335Y-15765184D01*
X8473668Y-15565184D02*
X8492716Y-15565184D01*
X8492716Y-15565184D02*
X8511764Y-15574708D01*
X8511764Y-15574708D02*
X8521288Y-15584231D01*
X8521288Y-15584231D02*
X8530811Y-15603279D01*
X8530811Y-15603279D02*
X8540335Y-15641374D01*
X8540335Y-15641374D02*
X8540335Y-15688993D01*
X8540335Y-15688993D02*
X8530811Y-15727088D01*
X8530811Y-15727088D02*
X8521288Y-15746136D01*
X8521288Y-15746136D02*
X8511764Y-15755660D01*
X8511764Y-15755660D02*
X8492716Y-15765184D01*
X8492716Y-15765184D02*
X8473668Y-15765184D01*
X8473668Y-15765184D02*
X8454621Y-15755660D01*
X8454621Y-15755660D02*
X8445097Y-15746136D01*
X8445097Y-15746136D02*
X8435573Y-15727088D01*
X8435573Y-15727088D02*
X8426049Y-15688993D01*
X8426049Y-15688993D02*
X8426049Y-15641374D01*
X8426049Y-15641374D02*
X8435573Y-15603279D01*
X8435573Y-15603279D02*
X8445097Y-15584231D01*
X8445097Y-15584231D02*
X8454621Y-15574708D01*
X8454621Y-15574708D02*
X8473668Y-15565184D01*
X8607002Y-15565184D02*
X8730811Y-15565184D01*
X8730811Y-15565184D02*
X8664145Y-15641374D01*
X8664145Y-15641374D02*
X8692716Y-15641374D01*
X8692716Y-15641374D02*
X8711764Y-15650898D01*
X8711764Y-15650898D02*
X8721288Y-15660422D01*
X8721288Y-15660422D02*
X8730811Y-15679469D01*
X8730811Y-15679469D02*
X8730811Y-15727088D01*
X8730811Y-15727088D02*
X8721288Y-15746136D01*
X8721288Y-15746136D02*
X8711764Y-15755660D01*
X8711764Y-15755660D02*
X8692716Y-15765184D01*
X8692716Y-15765184D02*
X8635573Y-15765184D01*
X8635573Y-15765184D02*
X8616526Y-15755660D01*
X8616526Y-15755660D02*
X8607002Y-15746136D01*
X8797478Y-15565184D02*
X8930811Y-15565184D01*
X8930811Y-15565184D02*
X8845097Y-15765184D01*
X9092716Y-15631850D02*
X9092716Y-15765184D01*
X9045097Y-15555660D02*
X8997478Y-15698517D01*
X8997478Y-15698517D02*
X9121288Y-15698517D01*
X9187954Y-15565184D02*
X9187954Y-15603279D01*
X9264145Y-15565184D02*
X9264145Y-15603279D01*
X9559383Y-15841374D02*
X9549859Y-15831850D01*
X9549859Y-15831850D02*
X9530811Y-15803279D01*
X9530811Y-15803279D02*
X9521288Y-15784231D01*
X9521288Y-15784231D02*
X9511764Y-15755660D01*
X9511764Y-15755660D02*
X9502240Y-15708041D01*
X9502240Y-15708041D02*
X9502240Y-15669946D01*
X9502240Y-15669946D02*
X9511764Y-15622327D01*
X9511764Y-15622327D02*
X9521288Y-15593755D01*
X9521288Y-15593755D02*
X9530811Y-15574708D01*
X9530811Y-15574708D02*
X9549859Y-15546136D01*
X9549859Y-15546136D02*
X9559383Y-15536612D01*
X9664145Y-15650898D02*
X9645097Y-15641374D01*
X9645097Y-15641374D02*
X9635573Y-15631850D01*
X9635573Y-15631850D02*
X9626050Y-15612803D01*
X9626050Y-15612803D02*
X9626050Y-15603279D01*
X9626050Y-15603279D02*
X9635573Y-15584231D01*
X9635573Y-15584231D02*
X9645097Y-15574708D01*
X9645097Y-15574708D02*
X9664145Y-15565184D01*
X9664145Y-15565184D02*
X9702240Y-15565184D01*
X9702240Y-15565184D02*
X9721288Y-15574708D01*
X9721288Y-15574708D02*
X9730811Y-15584231D01*
X9730811Y-15584231D02*
X9740335Y-15603279D01*
X9740335Y-15603279D02*
X9740335Y-15612803D01*
X9740335Y-15612803D02*
X9730811Y-15631850D01*
X9730811Y-15631850D02*
X9721288Y-15641374D01*
X9721288Y-15641374D02*
X9702240Y-15650898D01*
X9702240Y-15650898D02*
X9664145Y-15650898D01*
X9664145Y-15650898D02*
X9645097Y-15660422D01*
X9645097Y-15660422D02*
X9635573Y-15669946D01*
X9635573Y-15669946D02*
X9626050Y-15688993D01*
X9626050Y-15688993D02*
X9626050Y-15727088D01*
X9626050Y-15727088D02*
X9635573Y-15746136D01*
X9635573Y-15746136D02*
X9645097Y-15755660D01*
X9645097Y-15755660D02*
X9664145Y-15765184D01*
X9664145Y-15765184D02*
X9702240Y-15765184D01*
X9702240Y-15765184D02*
X9721288Y-15755660D01*
X9721288Y-15755660D02*
X9730811Y-15746136D01*
X9730811Y-15746136D02*
X9740335Y-15727088D01*
X9740335Y-15727088D02*
X9740335Y-15688993D01*
X9740335Y-15688993D02*
X9730811Y-15669946D01*
X9730811Y-15669946D02*
X9721288Y-15660422D01*
X9721288Y-15660422D02*
X9702240Y-15650898D01*
X9978431Y-15765184D02*
X9978431Y-15565184D01*
X10064145Y-15765184D02*
X10064145Y-15660422D01*
X10064145Y-15660422D02*
X10054621Y-15641374D01*
X10054621Y-15641374D02*
X10035573Y-15631850D01*
X10035573Y-15631850D02*
X10007002Y-15631850D01*
X10007002Y-15631850D02*
X9987954Y-15641374D01*
X9987954Y-15641374D02*
X9978431Y-15650898D01*
X10187954Y-15765184D02*
X10168907Y-15755660D01*
X10168907Y-15755660D02*
X10159383Y-15746136D01*
X10159383Y-15746136D02*
X10149859Y-15727088D01*
X10149859Y-15727088D02*
X10149859Y-15669946D01*
X10149859Y-15669946D02*
X10159383Y-15650898D01*
X10159383Y-15650898D02*
X10168907Y-15641374D01*
X10168907Y-15641374D02*
X10187954Y-15631850D01*
X10187954Y-15631850D02*
X10216526Y-15631850D01*
X10216526Y-15631850D02*
X10235573Y-15641374D01*
X10235573Y-15641374D02*
X10245097Y-15650898D01*
X10245097Y-15650898D02*
X10254621Y-15669946D01*
X10254621Y-15669946D02*
X10254621Y-15727088D01*
X10254621Y-15727088D02*
X10245097Y-15746136D01*
X10245097Y-15746136D02*
X10235573Y-15755660D01*
X10235573Y-15755660D02*
X10216526Y-15765184D01*
X10216526Y-15765184D02*
X10187954Y-15765184D01*
X10368907Y-15765184D02*
X10349859Y-15755660D01*
X10349859Y-15755660D02*
X10340335Y-15736612D01*
X10340335Y-15736612D02*
X10340335Y-15565184D01*
X10521288Y-15755660D02*
X10502240Y-15765184D01*
X10502240Y-15765184D02*
X10464145Y-15765184D01*
X10464145Y-15765184D02*
X10445097Y-15755660D01*
X10445097Y-15755660D02*
X10435573Y-15736612D01*
X10435573Y-15736612D02*
X10435573Y-15660422D01*
X10435573Y-15660422D02*
X10445097Y-15641374D01*
X10445097Y-15641374D02*
X10464145Y-15631850D01*
X10464145Y-15631850D02*
X10502240Y-15631850D01*
X10502240Y-15631850D02*
X10521288Y-15641374D01*
X10521288Y-15641374D02*
X10530812Y-15660422D01*
X10530812Y-15660422D02*
X10530812Y-15679469D01*
X10530812Y-15679469D02*
X10435573Y-15698517D01*
X10607002Y-15755660D02*
X10626050Y-15765184D01*
X10626050Y-15765184D02*
X10664145Y-15765184D01*
X10664145Y-15765184D02*
X10683193Y-15755660D01*
X10683193Y-15755660D02*
X10692716Y-15736612D01*
X10692716Y-15736612D02*
X10692716Y-15727088D01*
X10692716Y-15727088D02*
X10683193Y-15708041D01*
X10683193Y-15708041D02*
X10664145Y-15698517D01*
X10664145Y-15698517D02*
X10635573Y-15698517D01*
X10635573Y-15698517D02*
X10616526Y-15688993D01*
X10616526Y-15688993D02*
X10607002Y-15669946D01*
X10607002Y-15669946D02*
X10607002Y-15660422D01*
X10607002Y-15660422D02*
X10616526Y-15641374D01*
X10616526Y-15641374D02*
X10635573Y-15631850D01*
X10635573Y-15631850D02*
X10664145Y-15631850D01*
X10664145Y-15631850D02*
X10683193Y-15641374D01*
X10759383Y-15841374D02*
X10768907Y-15831850D01*
X10768907Y-15831850D02*
X10787954Y-15803279D01*
X10787954Y-15803279D02*
X10797478Y-15784231D01*
X10797478Y-15784231D02*
X10807002Y-15755660D01*
X10807002Y-15755660D02*
X10816526Y-15708041D01*
X10816526Y-15708041D02*
X10816526Y-15669946D01*
X10816526Y-15669946D02*
X10807002Y-15622327D01*
X10807002Y-15622327D02*
X10797478Y-15593755D01*
X10797478Y-15593755D02*
X10787954Y-15574708D01*
X10787954Y-15574708D02*
X10768907Y-15546136D01*
X10768907Y-15546136D02*
X10759383Y-15536612D01*
D10*
X5934320Y-15987700D02*
X5984320Y-15937700D01*
X5934320Y-15887700D01*
X5884320Y-15937700D01*
X5934320Y-15987700D01*
D11*
X6349859Y-16029184D02*
X6235573Y-16029184D01*
X6292716Y-16029184D02*
X6292716Y-15829184D01*
X6292716Y-15829184D02*
X6273668Y-15857755D01*
X6273668Y-15857755D02*
X6254621Y-15876803D01*
X6254621Y-15876803D02*
X6235573Y-15886327D01*
X6435573Y-16010136D02*
X6445097Y-16019660D01*
X6445097Y-16019660D02*
X6435573Y-16029184D01*
X6435573Y-16029184D02*
X6426049Y-16019660D01*
X6426049Y-16019660D02*
X6435573Y-16010136D01*
X6435573Y-16010136D02*
X6435573Y-16029184D01*
X6568906Y-15829184D02*
X6587954Y-15829184D01*
X6587954Y-15829184D02*
X6607002Y-15838708D01*
X6607002Y-15838708D02*
X6616525Y-15848231D01*
X6616525Y-15848231D02*
X6626049Y-15867279D01*
X6626049Y-15867279D02*
X6635573Y-15905374D01*
X6635573Y-15905374D02*
X6635573Y-15952993D01*
X6635573Y-15952993D02*
X6626049Y-15991088D01*
X6626049Y-15991088D02*
X6616525Y-16010136D01*
X6616525Y-16010136D02*
X6607002Y-16019660D01*
X6607002Y-16019660D02*
X6587954Y-16029184D01*
X6587954Y-16029184D02*
X6568906Y-16029184D01*
X6568906Y-16029184D02*
X6549859Y-16019660D01*
X6549859Y-16019660D02*
X6540335Y-16010136D01*
X6540335Y-16010136D02*
X6530811Y-15991088D01*
X6530811Y-15991088D02*
X6521287Y-15952993D01*
X6521287Y-15952993D02*
X6521287Y-15905374D01*
X6521287Y-15905374D02*
X6530811Y-15867279D01*
X6530811Y-15867279D02*
X6540335Y-15848231D01*
X6540335Y-15848231D02*
X6549859Y-15838708D01*
X6549859Y-15838708D02*
X6568906Y-15829184D01*
X6759382Y-15829184D02*
X6778430Y-15829184D01*
X6778430Y-15829184D02*
X6797478Y-15838708D01*
X6797478Y-15838708D02*
X6807002Y-15848231D01*
X6807002Y-15848231D02*
X6816525Y-15867279D01*
X6816525Y-15867279D02*
X6826049Y-15905374D01*
X6826049Y-15905374D02*
X6826049Y-15952993D01*
X6826049Y-15952993D02*
X6816525Y-15991088D01*
X6816525Y-15991088D02*
X6807002Y-16010136D01*
X6807002Y-16010136D02*
X6797478Y-16019660D01*
X6797478Y-16019660D02*
X6778430Y-16029184D01*
X6778430Y-16029184D02*
X6759382Y-16029184D01*
X6759382Y-16029184D02*
X6740335Y-16019660D01*
X6740335Y-16019660D02*
X6730811Y-16010136D01*
X6730811Y-16010136D02*
X6721287Y-15991088D01*
X6721287Y-15991088D02*
X6711763Y-15952993D01*
X6711763Y-15952993D02*
X6711763Y-15905374D01*
X6711763Y-15905374D02*
X6721287Y-15867279D01*
X6721287Y-15867279D02*
X6730811Y-15848231D01*
X6730811Y-15848231D02*
X6740335Y-15838708D01*
X6740335Y-15838708D02*
X6759382Y-15829184D01*
X6949859Y-15829184D02*
X6968906Y-15829184D01*
X6968906Y-15829184D02*
X6987954Y-15838708D01*
X6987954Y-15838708D02*
X6997478Y-15848231D01*
X6997478Y-15848231D02*
X7007002Y-15867279D01*
X7007002Y-15867279D02*
X7016525Y-15905374D01*
X7016525Y-15905374D02*
X7016525Y-15952993D01*
X7016525Y-15952993D02*
X7007002Y-15991088D01*
X7007002Y-15991088D02*
X6997478Y-16010136D01*
X6997478Y-16010136D02*
X6987954Y-16019660D01*
X6987954Y-16019660D02*
X6968906Y-16029184D01*
X6968906Y-16029184D02*
X6949859Y-16029184D01*
X6949859Y-16029184D02*
X6930811Y-16019660D01*
X6930811Y-16019660D02*
X6921287Y-16010136D01*
X6921287Y-16010136D02*
X6911763Y-15991088D01*
X6911763Y-15991088D02*
X6902240Y-15952993D01*
X6902240Y-15952993D02*
X6902240Y-15905374D01*
X6902240Y-15905374D02*
X6911763Y-15867279D01*
X6911763Y-15867279D02*
X6921287Y-15848231D01*
X6921287Y-15848231D02*
X6930811Y-15838708D01*
X6930811Y-15838708D02*
X6949859Y-15829184D01*
X7102240Y-16029184D02*
X7102240Y-15895850D01*
X7102240Y-15914898D02*
X7111763Y-15905374D01*
X7111763Y-15905374D02*
X7130811Y-15895850D01*
X7130811Y-15895850D02*
X7159383Y-15895850D01*
X7159383Y-15895850D02*
X7178430Y-15905374D01*
X7178430Y-15905374D02*
X7187954Y-15924422D01*
X7187954Y-15924422D02*
X7187954Y-16029184D01*
X7187954Y-15924422D02*
X7197478Y-15905374D01*
X7197478Y-15905374D02*
X7216525Y-15895850D01*
X7216525Y-15895850D02*
X7245097Y-15895850D01*
X7245097Y-15895850D02*
X7264144Y-15905374D01*
X7264144Y-15905374D02*
X7273668Y-15924422D01*
X7273668Y-15924422D02*
X7273668Y-16029184D01*
X7368906Y-16029184D02*
X7368906Y-15895850D01*
X7368906Y-15914898D02*
X7378430Y-15905374D01*
X7378430Y-15905374D02*
X7397478Y-15895850D01*
X7397478Y-15895850D02*
X7426049Y-15895850D01*
X7426049Y-15895850D02*
X7445097Y-15905374D01*
X7445097Y-15905374D02*
X7454621Y-15924422D01*
X7454621Y-15924422D02*
X7454621Y-16029184D01*
X7454621Y-15924422D02*
X7464144Y-15905374D01*
X7464144Y-15905374D02*
X7483192Y-15895850D01*
X7483192Y-15895850D02*
X7511763Y-15895850D01*
X7511763Y-15895850D02*
X7530811Y-15905374D01*
X7530811Y-15905374D02*
X7540335Y-15924422D01*
X7540335Y-15924422D02*
X7540335Y-16029184D01*
X7930811Y-15819660D02*
X7759383Y-16076803D01*
X8187954Y-15829184D02*
X8207002Y-15829184D01*
X8207002Y-15829184D02*
X8226049Y-15838708D01*
X8226049Y-15838708D02*
X8235573Y-15848231D01*
X8235573Y-15848231D02*
X8245097Y-15867279D01*
X8245097Y-15867279D02*
X8254621Y-15905374D01*
X8254621Y-15905374D02*
X8254621Y-15952993D01*
X8254621Y-15952993D02*
X8245097Y-15991088D01*
X8245097Y-15991088D02*
X8235573Y-16010136D01*
X8235573Y-16010136D02*
X8226049Y-16019660D01*
X8226049Y-16019660D02*
X8207002Y-16029184D01*
X8207002Y-16029184D02*
X8187954Y-16029184D01*
X8187954Y-16029184D02*
X8168906Y-16019660D01*
X8168906Y-16019660D02*
X8159383Y-16010136D01*
X8159383Y-16010136D02*
X8149859Y-15991088D01*
X8149859Y-15991088D02*
X8140335Y-15952993D01*
X8140335Y-15952993D02*
X8140335Y-15905374D01*
X8140335Y-15905374D02*
X8149859Y-15867279D01*
X8149859Y-15867279D02*
X8159383Y-15848231D01*
X8159383Y-15848231D02*
X8168906Y-15838708D01*
X8168906Y-15838708D02*
X8187954Y-15829184D01*
X8340335Y-16010136D02*
X8349859Y-16019660D01*
X8349859Y-16019660D02*
X8340335Y-16029184D01*
X8340335Y-16029184D02*
X8330811Y-16019660D01*
X8330811Y-16019660D02*
X8340335Y-16010136D01*
X8340335Y-16010136D02*
X8340335Y-16029184D01*
X8473668Y-15829184D02*
X8492716Y-15829184D01*
X8492716Y-15829184D02*
X8511764Y-15838708D01*
X8511764Y-15838708D02*
X8521288Y-15848231D01*
X8521288Y-15848231D02*
X8530811Y-15867279D01*
X8530811Y-15867279D02*
X8540335Y-15905374D01*
X8540335Y-15905374D02*
X8540335Y-15952993D01*
X8540335Y-15952993D02*
X8530811Y-15991088D01*
X8530811Y-15991088D02*
X8521288Y-16010136D01*
X8521288Y-16010136D02*
X8511764Y-16019660D01*
X8511764Y-16019660D02*
X8492716Y-16029184D01*
X8492716Y-16029184D02*
X8473668Y-16029184D01*
X8473668Y-16029184D02*
X8454621Y-16019660D01*
X8454621Y-16019660D02*
X8445097Y-16010136D01*
X8445097Y-16010136D02*
X8435573Y-15991088D01*
X8435573Y-15991088D02*
X8426049Y-15952993D01*
X8426049Y-15952993D02*
X8426049Y-15905374D01*
X8426049Y-15905374D02*
X8435573Y-15867279D01*
X8435573Y-15867279D02*
X8445097Y-15848231D01*
X8445097Y-15848231D02*
X8454621Y-15838708D01*
X8454621Y-15838708D02*
X8473668Y-15829184D01*
X8607002Y-15829184D02*
X8730811Y-15829184D01*
X8730811Y-15829184D02*
X8664145Y-15905374D01*
X8664145Y-15905374D02*
X8692716Y-15905374D01*
X8692716Y-15905374D02*
X8711764Y-15914898D01*
X8711764Y-15914898D02*
X8721288Y-15924422D01*
X8721288Y-15924422D02*
X8730811Y-15943469D01*
X8730811Y-15943469D02*
X8730811Y-15991088D01*
X8730811Y-15991088D02*
X8721288Y-16010136D01*
X8721288Y-16010136D02*
X8711764Y-16019660D01*
X8711764Y-16019660D02*
X8692716Y-16029184D01*
X8692716Y-16029184D02*
X8635573Y-16029184D01*
X8635573Y-16029184D02*
X8616526Y-16019660D01*
X8616526Y-16019660D02*
X8607002Y-16010136D01*
X8826049Y-16029184D02*
X8864145Y-16029184D01*
X8864145Y-16029184D02*
X8883192Y-16019660D01*
X8883192Y-16019660D02*
X8892716Y-16010136D01*
X8892716Y-16010136D02*
X8911764Y-15981565D01*
X8911764Y-15981565D02*
X8921288Y-15943469D01*
X8921288Y-15943469D02*
X8921288Y-15867279D01*
X8921288Y-15867279D02*
X8911764Y-15848231D01*
X8911764Y-15848231D02*
X8902240Y-15838708D01*
X8902240Y-15838708D02*
X8883192Y-15829184D01*
X8883192Y-15829184D02*
X8845097Y-15829184D01*
X8845097Y-15829184D02*
X8826049Y-15838708D01*
X8826049Y-15838708D02*
X8816526Y-15848231D01*
X8816526Y-15848231D02*
X8807002Y-15867279D01*
X8807002Y-15867279D02*
X8807002Y-15914898D01*
X8807002Y-15914898D02*
X8816526Y-15933946D01*
X8816526Y-15933946D02*
X8826049Y-15943469D01*
X8826049Y-15943469D02*
X8845097Y-15952993D01*
X8845097Y-15952993D02*
X8883192Y-15952993D01*
X8883192Y-15952993D02*
X8902240Y-15943469D01*
X8902240Y-15943469D02*
X8911764Y-15933946D01*
X8911764Y-15933946D02*
X8921288Y-15914898D01*
X9092716Y-15895850D02*
X9092716Y-16029184D01*
X9045097Y-15819660D02*
X8997478Y-15962517D01*
X8997478Y-15962517D02*
X9121288Y-15962517D01*
X9187954Y-15829184D02*
X9187954Y-15867279D01*
X9264145Y-15829184D02*
X9264145Y-15867279D01*
X9559383Y-16105374D02*
X9549859Y-16095850D01*
X9549859Y-16095850D02*
X9530811Y-16067279D01*
X9530811Y-16067279D02*
X9521288Y-16048231D01*
X9521288Y-16048231D02*
X9511764Y-16019660D01*
X9511764Y-16019660D02*
X9502240Y-15972041D01*
X9502240Y-15972041D02*
X9502240Y-15933946D01*
X9502240Y-15933946D02*
X9511764Y-15886327D01*
X9511764Y-15886327D02*
X9521288Y-15857755D01*
X9521288Y-15857755D02*
X9530811Y-15838708D01*
X9530811Y-15838708D02*
X9549859Y-15810136D01*
X9549859Y-15810136D02*
X9559383Y-15800612D01*
X9730811Y-15829184D02*
X9635573Y-15829184D01*
X9635573Y-15829184D02*
X9626050Y-15924422D01*
X9626050Y-15924422D02*
X9635573Y-15914898D01*
X9635573Y-15914898D02*
X9654621Y-15905374D01*
X9654621Y-15905374D02*
X9702240Y-15905374D01*
X9702240Y-15905374D02*
X9721288Y-15914898D01*
X9721288Y-15914898D02*
X9730811Y-15924422D01*
X9730811Y-15924422D02*
X9740335Y-15943469D01*
X9740335Y-15943469D02*
X9740335Y-15991088D01*
X9740335Y-15991088D02*
X9730811Y-16010136D01*
X9730811Y-16010136D02*
X9721288Y-16019660D01*
X9721288Y-16019660D02*
X9702240Y-16029184D01*
X9702240Y-16029184D02*
X9654621Y-16029184D01*
X9654621Y-16029184D02*
X9635573Y-16019660D01*
X9635573Y-16019660D02*
X9626050Y-16010136D01*
X9921288Y-15829184D02*
X9826050Y-15829184D01*
X9826050Y-15829184D02*
X9816526Y-15924422D01*
X9816526Y-15924422D02*
X9826050Y-15914898D01*
X9826050Y-15914898D02*
X9845097Y-15905374D01*
X9845097Y-15905374D02*
X9892716Y-15905374D01*
X9892716Y-15905374D02*
X9911764Y-15914898D01*
X9911764Y-15914898D02*
X9921288Y-15924422D01*
X9921288Y-15924422D02*
X9930811Y-15943469D01*
X9930811Y-15943469D02*
X9930811Y-15991088D01*
X9930811Y-15991088D02*
X9921288Y-16010136D01*
X9921288Y-16010136D02*
X9911764Y-16019660D01*
X9911764Y-16019660D02*
X9892716Y-16029184D01*
X9892716Y-16029184D02*
X9845097Y-16029184D01*
X9845097Y-16029184D02*
X9826050Y-16019660D01*
X9826050Y-16019660D02*
X9816526Y-16010136D01*
X10168907Y-16029184D02*
X10168907Y-15829184D01*
X10254621Y-16029184D02*
X10254621Y-15924422D01*
X10254621Y-15924422D02*
X10245097Y-15905374D01*
X10245097Y-15905374D02*
X10226050Y-15895850D01*
X10226050Y-15895850D02*
X10197478Y-15895850D01*
X10197478Y-15895850D02*
X10178431Y-15905374D01*
X10178431Y-15905374D02*
X10168907Y-15914898D01*
X10378431Y-16029184D02*
X10359383Y-16019660D01*
X10359383Y-16019660D02*
X10349859Y-16010136D01*
X10349859Y-16010136D02*
X10340335Y-15991088D01*
X10340335Y-15991088D02*
X10340335Y-15933946D01*
X10340335Y-15933946D02*
X10349859Y-15914898D01*
X10349859Y-15914898D02*
X10359383Y-15905374D01*
X10359383Y-15905374D02*
X10378431Y-15895850D01*
X10378431Y-15895850D02*
X10407002Y-15895850D01*
X10407002Y-15895850D02*
X10426050Y-15905374D01*
X10426050Y-15905374D02*
X10435573Y-15914898D01*
X10435573Y-15914898D02*
X10445097Y-15933946D01*
X10445097Y-15933946D02*
X10445097Y-15991088D01*
X10445097Y-15991088D02*
X10435573Y-16010136D01*
X10435573Y-16010136D02*
X10426050Y-16019660D01*
X10426050Y-16019660D02*
X10407002Y-16029184D01*
X10407002Y-16029184D02*
X10378431Y-16029184D01*
X10559383Y-16029184D02*
X10540335Y-16019660D01*
X10540335Y-16019660D02*
X10530812Y-16000612D01*
X10530812Y-16000612D02*
X10530812Y-15829184D01*
X10711764Y-16019660D02*
X10692716Y-16029184D01*
X10692716Y-16029184D02*
X10654621Y-16029184D01*
X10654621Y-16029184D02*
X10635573Y-16019660D01*
X10635573Y-16019660D02*
X10626050Y-16000612D01*
X10626050Y-16000612D02*
X10626050Y-15924422D01*
X10626050Y-15924422D02*
X10635573Y-15905374D01*
X10635573Y-15905374D02*
X10654621Y-15895850D01*
X10654621Y-15895850D02*
X10692716Y-15895850D01*
X10692716Y-15895850D02*
X10711764Y-15905374D01*
X10711764Y-15905374D02*
X10721288Y-15924422D01*
X10721288Y-15924422D02*
X10721288Y-15943469D01*
X10721288Y-15943469D02*
X10626050Y-15962517D01*
X10797478Y-16019660D02*
X10816526Y-16029184D01*
X10816526Y-16029184D02*
X10854621Y-16029184D01*
X10854621Y-16029184D02*
X10873669Y-16019660D01*
X10873669Y-16019660D02*
X10883193Y-16000612D01*
X10883193Y-16000612D02*
X10883193Y-15991088D01*
X10883193Y-15991088D02*
X10873669Y-15972041D01*
X10873669Y-15972041D02*
X10854621Y-15962517D01*
X10854621Y-15962517D02*
X10826050Y-15962517D01*
X10826050Y-15962517D02*
X10807002Y-15952993D01*
X10807002Y-15952993D02*
X10797478Y-15933946D01*
X10797478Y-15933946D02*
X10797478Y-15924422D01*
X10797478Y-15924422D02*
X10807002Y-15905374D01*
X10807002Y-15905374D02*
X10826050Y-15895850D01*
X10826050Y-15895850D02*
X10854621Y-15895850D01*
X10854621Y-15895850D02*
X10873669Y-15905374D01*
X11121288Y-15952993D02*
X11273669Y-15952993D01*
X11197478Y-16029184D02*
X11197478Y-15876803D01*
X11502240Y-15829184D02*
X11626050Y-15829184D01*
X11626050Y-15829184D02*
X11559383Y-15905374D01*
X11559383Y-15905374D02*
X11587954Y-15905374D01*
X11587954Y-15905374D02*
X11607002Y-15914898D01*
X11607002Y-15914898D02*
X11616526Y-15924422D01*
X11616526Y-15924422D02*
X11626050Y-15943469D01*
X11626050Y-15943469D02*
X11626050Y-15991088D01*
X11626050Y-15991088D02*
X11616526Y-16010136D01*
X11616526Y-16010136D02*
X11607002Y-16019660D01*
X11607002Y-16019660D02*
X11587954Y-16029184D01*
X11587954Y-16029184D02*
X11530812Y-16029184D01*
X11530812Y-16029184D02*
X11511764Y-16019660D01*
X11511764Y-16019660D02*
X11502240Y-16010136D01*
X11854621Y-16019660D02*
X11873669Y-16029184D01*
X11873669Y-16029184D02*
X11911764Y-16029184D01*
X11911764Y-16029184D02*
X11930812Y-16019660D01*
X11930812Y-16019660D02*
X11940335Y-16000612D01*
X11940335Y-16000612D02*
X11940335Y-15991088D01*
X11940335Y-15991088D02*
X11930812Y-15972041D01*
X11930812Y-15972041D02*
X11911764Y-15962517D01*
X11911764Y-15962517D02*
X11883193Y-15962517D01*
X11883193Y-15962517D02*
X11864145Y-15952993D01*
X11864145Y-15952993D02*
X11854621Y-15933946D01*
X11854621Y-15933946D02*
X11854621Y-15924422D01*
X11854621Y-15924422D02*
X11864145Y-15905374D01*
X11864145Y-15905374D02*
X11883193Y-15895850D01*
X11883193Y-15895850D02*
X11911764Y-15895850D01*
X11911764Y-15895850D02*
X11930812Y-15905374D01*
X12054621Y-16029184D02*
X12035574Y-16019660D01*
X12035574Y-16019660D02*
X12026050Y-16000612D01*
X12026050Y-16000612D02*
X12026050Y-15829184D01*
X12159383Y-16029184D02*
X12140335Y-16019660D01*
X12140335Y-16019660D02*
X12130812Y-16010136D01*
X12130812Y-16010136D02*
X12121288Y-15991088D01*
X12121288Y-15991088D02*
X12121288Y-15933946D01*
X12121288Y-15933946D02*
X12130812Y-15914898D01*
X12130812Y-15914898D02*
X12140335Y-15905374D01*
X12140335Y-15905374D02*
X12159383Y-15895850D01*
X12159383Y-15895850D02*
X12187955Y-15895850D01*
X12187955Y-15895850D02*
X12207002Y-15905374D01*
X12207002Y-15905374D02*
X12216526Y-15914898D01*
X12216526Y-15914898D02*
X12226050Y-15933946D01*
X12226050Y-15933946D02*
X12226050Y-15991088D01*
X12226050Y-15991088D02*
X12216526Y-16010136D01*
X12216526Y-16010136D02*
X12207002Y-16019660D01*
X12207002Y-16019660D02*
X12187955Y-16029184D01*
X12187955Y-16029184D02*
X12159383Y-16029184D01*
X12283193Y-15895850D02*
X12359383Y-15895850D01*
X12311764Y-15829184D02*
X12311764Y-16000612D01*
X12311764Y-16000612D02*
X12321288Y-16019660D01*
X12321288Y-16019660D02*
X12340335Y-16029184D01*
X12340335Y-16029184D02*
X12359383Y-16029184D01*
X12416526Y-16019660D02*
X12435574Y-16029184D01*
X12435574Y-16029184D02*
X12473669Y-16029184D01*
X12473669Y-16029184D02*
X12492716Y-16019660D01*
X12492716Y-16019660D02*
X12502240Y-16000612D01*
X12502240Y-16000612D02*
X12502240Y-15991088D01*
X12502240Y-15991088D02*
X12492716Y-15972041D01*
X12492716Y-15972041D02*
X12473669Y-15962517D01*
X12473669Y-15962517D02*
X12445097Y-15962517D01*
X12445097Y-15962517D02*
X12426050Y-15952993D01*
X12426050Y-15952993D02*
X12416526Y-15933946D01*
X12416526Y-15933946D02*
X12416526Y-15924422D01*
X12416526Y-15924422D02*
X12426050Y-15905374D01*
X12426050Y-15905374D02*
X12445097Y-15895850D01*
X12445097Y-15895850D02*
X12473669Y-15895850D01*
X12473669Y-15895850D02*
X12492716Y-15905374D01*
X12568907Y-16105374D02*
X12578431Y-16095850D01*
X12578431Y-16095850D02*
X12597478Y-16067279D01*
X12597478Y-16067279D02*
X12607002Y-16048231D01*
X12607002Y-16048231D02*
X12616526Y-16019660D01*
X12616526Y-16019660D02*
X12626050Y-15972041D01*
X12626050Y-15972041D02*
X12626050Y-15933946D01*
X12626050Y-15933946D02*
X12616526Y-15886327D01*
X12616526Y-15886327D02*
X12607002Y-15857755D01*
X12607002Y-15857755D02*
X12597478Y-15838708D01*
X12597478Y-15838708D02*
X12578431Y-15810136D01*
X12578431Y-15810136D02*
X12568907Y-15800612D01*
D16*
X5882320Y-16150700D02*
X5984320Y-16252700D01*
X5984320Y-16150700D02*
X5882320Y-16252700D01*
X5984320Y-16201700D02*
G75*
G03*
X5984320Y-16201700I-51000J0D01*
G01*
D11*
X6349859Y-16293184D02*
X6235573Y-16293184D01*
X6292716Y-16293184D02*
X6292716Y-16093184D01*
X6292716Y-16093184D02*
X6273668Y-16121755D01*
X6273668Y-16121755D02*
X6254621Y-16140803D01*
X6254621Y-16140803D02*
X6235573Y-16150327D01*
X6435573Y-16274136D02*
X6445097Y-16283660D01*
X6445097Y-16283660D02*
X6435573Y-16293184D01*
X6435573Y-16293184D02*
X6426049Y-16283660D01*
X6426049Y-16283660D02*
X6435573Y-16274136D01*
X6435573Y-16274136D02*
X6435573Y-16293184D01*
X6568906Y-16093184D02*
X6587954Y-16093184D01*
X6587954Y-16093184D02*
X6607002Y-16102708D01*
X6607002Y-16102708D02*
X6616525Y-16112231D01*
X6616525Y-16112231D02*
X6626049Y-16131279D01*
X6626049Y-16131279D02*
X6635573Y-16169374D01*
X6635573Y-16169374D02*
X6635573Y-16216993D01*
X6635573Y-16216993D02*
X6626049Y-16255088D01*
X6626049Y-16255088D02*
X6616525Y-16274136D01*
X6616525Y-16274136D02*
X6607002Y-16283660D01*
X6607002Y-16283660D02*
X6587954Y-16293184D01*
X6587954Y-16293184D02*
X6568906Y-16293184D01*
X6568906Y-16293184D02*
X6549859Y-16283660D01*
X6549859Y-16283660D02*
X6540335Y-16274136D01*
X6540335Y-16274136D02*
X6530811Y-16255088D01*
X6530811Y-16255088D02*
X6521287Y-16216993D01*
X6521287Y-16216993D02*
X6521287Y-16169374D01*
X6521287Y-16169374D02*
X6530811Y-16131279D01*
X6530811Y-16131279D02*
X6540335Y-16112231D01*
X6540335Y-16112231D02*
X6549859Y-16102708D01*
X6549859Y-16102708D02*
X6568906Y-16093184D01*
X6711763Y-16112231D02*
X6721287Y-16102708D01*
X6721287Y-16102708D02*
X6740335Y-16093184D01*
X6740335Y-16093184D02*
X6787954Y-16093184D01*
X6787954Y-16093184D02*
X6807002Y-16102708D01*
X6807002Y-16102708D02*
X6816525Y-16112231D01*
X6816525Y-16112231D02*
X6826049Y-16131279D01*
X6826049Y-16131279D02*
X6826049Y-16150327D01*
X6826049Y-16150327D02*
X6816525Y-16178898D01*
X6816525Y-16178898D02*
X6702240Y-16293184D01*
X6702240Y-16293184D02*
X6826049Y-16293184D01*
X6949859Y-16093184D02*
X6968906Y-16093184D01*
X6968906Y-16093184D02*
X6987954Y-16102708D01*
X6987954Y-16102708D02*
X6997478Y-16112231D01*
X6997478Y-16112231D02*
X7007002Y-16131279D01*
X7007002Y-16131279D02*
X7016525Y-16169374D01*
X7016525Y-16169374D02*
X7016525Y-16216993D01*
X7016525Y-16216993D02*
X7007002Y-16255088D01*
X7007002Y-16255088D02*
X6997478Y-16274136D01*
X6997478Y-16274136D02*
X6987954Y-16283660D01*
X6987954Y-16283660D02*
X6968906Y-16293184D01*
X6968906Y-16293184D02*
X6949859Y-16293184D01*
X6949859Y-16293184D02*
X6930811Y-16283660D01*
X6930811Y-16283660D02*
X6921287Y-16274136D01*
X6921287Y-16274136D02*
X6911763Y-16255088D01*
X6911763Y-16255088D02*
X6902240Y-16216993D01*
X6902240Y-16216993D02*
X6902240Y-16169374D01*
X6902240Y-16169374D02*
X6911763Y-16131279D01*
X6911763Y-16131279D02*
X6921287Y-16112231D01*
X6921287Y-16112231D02*
X6930811Y-16102708D01*
X6930811Y-16102708D02*
X6949859Y-16093184D01*
X7102240Y-16293184D02*
X7102240Y-16159850D01*
X7102240Y-16178898D02*
X7111763Y-16169374D01*
X7111763Y-16169374D02*
X7130811Y-16159850D01*
X7130811Y-16159850D02*
X7159383Y-16159850D01*
X7159383Y-16159850D02*
X7178430Y-16169374D01*
X7178430Y-16169374D02*
X7187954Y-16188422D01*
X7187954Y-16188422D02*
X7187954Y-16293184D01*
X7187954Y-16188422D02*
X7197478Y-16169374D01*
X7197478Y-16169374D02*
X7216525Y-16159850D01*
X7216525Y-16159850D02*
X7245097Y-16159850D01*
X7245097Y-16159850D02*
X7264144Y-16169374D01*
X7264144Y-16169374D02*
X7273668Y-16188422D01*
X7273668Y-16188422D02*
X7273668Y-16293184D01*
X7368906Y-16293184D02*
X7368906Y-16159850D01*
X7368906Y-16178898D02*
X7378430Y-16169374D01*
X7378430Y-16169374D02*
X7397478Y-16159850D01*
X7397478Y-16159850D02*
X7426049Y-16159850D01*
X7426049Y-16159850D02*
X7445097Y-16169374D01*
X7445097Y-16169374D02*
X7454621Y-16188422D01*
X7454621Y-16188422D02*
X7454621Y-16293184D01*
X7454621Y-16188422D02*
X7464144Y-16169374D01*
X7464144Y-16169374D02*
X7483192Y-16159850D01*
X7483192Y-16159850D02*
X7511763Y-16159850D01*
X7511763Y-16159850D02*
X7530811Y-16169374D01*
X7530811Y-16169374D02*
X7540335Y-16188422D01*
X7540335Y-16188422D02*
X7540335Y-16293184D01*
X7930811Y-16083660D02*
X7759383Y-16340803D01*
X8187954Y-16093184D02*
X8207002Y-16093184D01*
X8207002Y-16093184D02*
X8226049Y-16102708D01*
X8226049Y-16102708D02*
X8235573Y-16112231D01*
X8235573Y-16112231D02*
X8245097Y-16131279D01*
X8245097Y-16131279D02*
X8254621Y-16169374D01*
X8254621Y-16169374D02*
X8254621Y-16216993D01*
X8254621Y-16216993D02*
X8245097Y-16255088D01*
X8245097Y-16255088D02*
X8235573Y-16274136D01*
X8235573Y-16274136D02*
X8226049Y-16283660D01*
X8226049Y-16283660D02*
X8207002Y-16293184D01*
X8207002Y-16293184D02*
X8187954Y-16293184D01*
X8187954Y-16293184D02*
X8168906Y-16283660D01*
X8168906Y-16283660D02*
X8159383Y-16274136D01*
X8159383Y-16274136D02*
X8149859Y-16255088D01*
X8149859Y-16255088D02*
X8140335Y-16216993D01*
X8140335Y-16216993D02*
X8140335Y-16169374D01*
X8140335Y-16169374D02*
X8149859Y-16131279D01*
X8149859Y-16131279D02*
X8159383Y-16112231D01*
X8159383Y-16112231D02*
X8168906Y-16102708D01*
X8168906Y-16102708D02*
X8187954Y-16093184D01*
X8340335Y-16274136D02*
X8349859Y-16283660D01*
X8349859Y-16283660D02*
X8340335Y-16293184D01*
X8340335Y-16293184D02*
X8330811Y-16283660D01*
X8330811Y-16283660D02*
X8340335Y-16274136D01*
X8340335Y-16274136D02*
X8340335Y-16293184D01*
X8473668Y-16093184D02*
X8492716Y-16093184D01*
X8492716Y-16093184D02*
X8511764Y-16102708D01*
X8511764Y-16102708D02*
X8521288Y-16112231D01*
X8521288Y-16112231D02*
X8530811Y-16131279D01*
X8530811Y-16131279D02*
X8540335Y-16169374D01*
X8540335Y-16169374D02*
X8540335Y-16216993D01*
X8540335Y-16216993D02*
X8530811Y-16255088D01*
X8530811Y-16255088D02*
X8521288Y-16274136D01*
X8521288Y-16274136D02*
X8511764Y-16283660D01*
X8511764Y-16283660D02*
X8492716Y-16293184D01*
X8492716Y-16293184D02*
X8473668Y-16293184D01*
X8473668Y-16293184D02*
X8454621Y-16283660D01*
X8454621Y-16283660D02*
X8445097Y-16274136D01*
X8445097Y-16274136D02*
X8435573Y-16255088D01*
X8435573Y-16255088D02*
X8426049Y-16216993D01*
X8426049Y-16216993D02*
X8426049Y-16169374D01*
X8426049Y-16169374D02*
X8435573Y-16131279D01*
X8435573Y-16131279D02*
X8445097Y-16112231D01*
X8445097Y-16112231D02*
X8454621Y-16102708D01*
X8454621Y-16102708D02*
X8473668Y-16093184D01*
X8711764Y-16159850D02*
X8711764Y-16293184D01*
X8664145Y-16083660D02*
X8616526Y-16226517D01*
X8616526Y-16226517D02*
X8740335Y-16226517D01*
X8854621Y-16093184D02*
X8873669Y-16093184D01*
X8873669Y-16093184D02*
X8892716Y-16102708D01*
X8892716Y-16102708D02*
X8902240Y-16112231D01*
X8902240Y-16112231D02*
X8911764Y-16131279D01*
X8911764Y-16131279D02*
X8921288Y-16169374D01*
X8921288Y-16169374D02*
X8921288Y-16216993D01*
X8921288Y-16216993D02*
X8911764Y-16255088D01*
X8911764Y-16255088D02*
X8902240Y-16274136D01*
X8902240Y-16274136D02*
X8892716Y-16283660D01*
X8892716Y-16283660D02*
X8873669Y-16293184D01*
X8873669Y-16293184D02*
X8854621Y-16293184D01*
X8854621Y-16293184D02*
X8835573Y-16283660D01*
X8835573Y-16283660D02*
X8826049Y-16274136D01*
X8826049Y-16274136D02*
X8816526Y-16255088D01*
X8816526Y-16255088D02*
X8807002Y-16216993D01*
X8807002Y-16216993D02*
X8807002Y-16169374D01*
X8807002Y-16169374D02*
X8816526Y-16131279D01*
X8816526Y-16131279D02*
X8826049Y-16112231D01*
X8826049Y-16112231D02*
X8835573Y-16102708D01*
X8835573Y-16102708D02*
X8854621Y-16093184D01*
X8997478Y-16112231D02*
X9007002Y-16102708D01*
X9007002Y-16102708D02*
X9026049Y-16093184D01*
X9026049Y-16093184D02*
X9073669Y-16093184D01*
X9073669Y-16093184D02*
X9092716Y-16102708D01*
X9092716Y-16102708D02*
X9102240Y-16112231D01*
X9102240Y-16112231D02*
X9111764Y-16131279D01*
X9111764Y-16131279D02*
X9111764Y-16150327D01*
X9111764Y-16150327D02*
X9102240Y-16178898D01*
X9102240Y-16178898D02*
X8987954Y-16293184D01*
X8987954Y-16293184D02*
X9111764Y-16293184D01*
X9187954Y-16093184D02*
X9187954Y-16131279D01*
X9264145Y-16093184D02*
X9264145Y-16131279D01*
X9559383Y-16369374D02*
X9549859Y-16359850D01*
X9549859Y-16359850D02*
X9530811Y-16331279D01*
X9530811Y-16331279D02*
X9521288Y-16312231D01*
X9521288Y-16312231D02*
X9511764Y-16283660D01*
X9511764Y-16283660D02*
X9502240Y-16236041D01*
X9502240Y-16236041D02*
X9502240Y-16197946D01*
X9502240Y-16197946D02*
X9511764Y-16150327D01*
X9511764Y-16150327D02*
X9521288Y-16121755D01*
X9521288Y-16121755D02*
X9530811Y-16102708D01*
X9530811Y-16102708D02*
X9549859Y-16074136D01*
X9549859Y-16074136D02*
X9559383Y-16064612D01*
X9626050Y-16112231D02*
X9635573Y-16102708D01*
X9635573Y-16102708D02*
X9654621Y-16093184D01*
X9654621Y-16093184D02*
X9702240Y-16093184D01*
X9702240Y-16093184D02*
X9721288Y-16102708D01*
X9721288Y-16102708D02*
X9730811Y-16112231D01*
X9730811Y-16112231D02*
X9740335Y-16131279D01*
X9740335Y-16131279D02*
X9740335Y-16150327D01*
X9740335Y-16150327D02*
X9730811Y-16178898D01*
X9730811Y-16178898D02*
X9616526Y-16293184D01*
X9616526Y-16293184D02*
X9740335Y-16293184D01*
X9911764Y-16159850D02*
X9911764Y-16293184D01*
X9864145Y-16083660D02*
X9816526Y-16226517D01*
X9816526Y-16226517D02*
X9940335Y-16226517D01*
X10168907Y-16293184D02*
X10168907Y-16093184D01*
X10254621Y-16293184D02*
X10254621Y-16188422D01*
X10254621Y-16188422D02*
X10245097Y-16169374D01*
X10245097Y-16169374D02*
X10226050Y-16159850D01*
X10226050Y-16159850D02*
X10197478Y-16159850D01*
X10197478Y-16159850D02*
X10178431Y-16169374D01*
X10178431Y-16169374D02*
X10168907Y-16178898D01*
X10378431Y-16293184D02*
X10359383Y-16283660D01*
X10359383Y-16283660D02*
X10349859Y-16274136D01*
X10349859Y-16274136D02*
X10340335Y-16255088D01*
X10340335Y-16255088D02*
X10340335Y-16197946D01*
X10340335Y-16197946D02*
X10349859Y-16178898D01*
X10349859Y-16178898D02*
X10359383Y-16169374D01*
X10359383Y-16169374D02*
X10378431Y-16159850D01*
X10378431Y-16159850D02*
X10407002Y-16159850D01*
X10407002Y-16159850D02*
X10426050Y-16169374D01*
X10426050Y-16169374D02*
X10435573Y-16178898D01*
X10435573Y-16178898D02*
X10445097Y-16197946D01*
X10445097Y-16197946D02*
X10445097Y-16255088D01*
X10445097Y-16255088D02*
X10435573Y-16274136D01*
X10435573Y-16274136D02*
X10426050Y-16283660D01*
X10426050Y-16283660D02*
X10407002Y-16293184D01*
X10407002Y-16293184D02*
X10378431Y-16293184D01*
X10559383Y-16293184D02*
X10540335Y-16283660D01*
X10540335Y-16283660D02*
X10530812Y-16264612D01*
X10530812Y-16264612D02*
X10530812Y-16093184D01*
X10711764Y-16283660D02*
X10692716Y-16293184D01*
X10692716Y-16293184D02*
X10654621Y-16293184D01*
X10654621Y-16293184D02*
X10635573Y-16283660D01*
X10635573Y-16283660D02*
X10626050Y-16264612D01*
X10626050Y-16264612D02*
X10626050Y-16188422D01*
X10626050Y-16188422D02*
X10635573Y-16169374D01*
X10635573Y-16169374D02*
X10654621Y-16159850D01*
X10654621Y-16159850D02*
X10692716Y-16159850D01*
X10692716Y-16159850D02*
X10711764Y-16169374D01*
X10711764Y-16169374D02*
X10721288Y-16188422D01*
X10721288Y-16188422D02*
X10721288Y-16207469D01*
X10721288Y-16207469D02*
X10626050Y-16226517D01*
X10797478Y-16283660D02*
X10816526Y-16293184D01*
X10816526Y-16293184D02*
X10854621Y-16293184D01*
X10854621Y-16293184D02*
X10873669Y-16283660D01*
X10873669Y-16283660D02*
X10883193Y-16264612D01*
X10883193Y-16264612D02*
X10883193Y-16255088D01*
X10883193Y-16255088D02*
X10873669Y-16236041D01*
X10873669Y-16236041D02*
X10854621Y-16226517D01*
X10854621Y-16226517D02*
X10826050Y-16226517D01*
X10826050Y-16226517D02*
X10807002Y-16216993D01*
X10807002Y-16216993D02*
X10797478Y-16197946D01*
X10797478Y-16197946D02*
X10797478Y-16188422D01*
X10797478Y-16188422D02*
X10807002Y-16169374D01*
X10807002Y-16169374D02*
X10826050Y-16159850D01*
X10826050Y-16159850D02*
X10854621Y-16159850D01*
X10854621Y-16159850D02*
X10873669Y-16169374D01*
X10949859Y-16369374D02*
X10959383Y-16359850D01*
X10959383Y-16359850D02*
X10978431Y-16331279D01*
X10978431Y-16331279D02*
X10987954Y-16312231D01*
X10987954Y-16312231D02*
X10997478Y-16283660D01*
X10997478Y-16283660D02*
X11007002Y-16236041D01*
X11007002Y-16236041D02*
X11007002Y-16197946D01*
X11007002Y-16197946D02*
X10997478Y-16150327D01*
X10997478Y-16150327D02*
X10987954Y-16121755D01*
X10987954Y-16121755D02*
X10978431Y-16102708D01*
X10978431Y-16102708D02*
X10959383Y-16074136D01*
X10959383Y-16074136D02*
X10949859Y-16064612D01*
D17*
X5859320Y-16403200D02*
X5984320Y-16528200D01*
X5984320Y-16403200D02*
X5859320Y-16528200D01*
X5921820Y-16403200D02*
X5921820Y-16528200D01*
X5859320Y-16465700D02*
X5984320Y-16465700D01*
D11*
X6349859Y-16557184D02*
X6235573Y-16557184D01*
X6292716Y-16557184D02*
X6292716Y-16357184D01*
X6292716Y-16357184D02*
X6273668Y-16385755D01*
X6273668Y-16385755D02*
X6254621Y-16404803D01*
X6254621Y-16404803D02*
X6235573Y-16414327D01*
X6435573Y-16538136D02*
X6445097Y-16547660D01*
X6445097Y-16547660D02*
X6435573Y-16557184D01*
X6435573Y-16557184D02*
X6426049Y-16547660D01*
X6426049Y-16547660D02*
X6435573Y-16538136D01*
X6435573Y-16538136D02*
X6435573Y-16557184D01*
X6521287Y-16376231D02*
X6530811Y-16366708D01*
X6530811Y-16366708D02*
X6549859Y-16357184D01*
X6549859Y-16357184D02*
X6597478Y-16357184D01*
X6597478Y-16357184D02*
X6616525Y-16366708D01*
X6616525Y-16366708D02*
X6626049Y-16376231D01*
X6626049Y-16376231D02*
X6635573Y-16395279D01*
X6635573Y-16395279D02*
X6635573Y-16414327D01*
X6635573Y-16414327D02*
X6626049Y-16442898D01*
X6626049Y-16442898D02*
X6511763Y-16557184D01*
X6511763Y-16557184D02*
X6635573Y-16557184D01*
X6816525Y-16357184D02*
X6721287Y-16357184D01*
X6721287Y-16357184D02*
X6711763Y-16452422D01*
X6711763Y-16452422D02*
X6721287Y-16442898D01*
X6721287Y-16442898D02*
X6740335Y-16433374D01*
X6740335Y-16433374D02*
X6787954Y-16433374D01*
X6787954Y-16433374D02*
X6807002Y-16442898D01*
X6807002Y-16442898D02*
X6816525Y-16452422D01*
X6816525Y-16452422D02*
X6826049Y-16471469D01*
X6826049Y-16471469D02*
X6826049Y-16519088D01*
X6826049Y-16519088D02*
X6816525Y-16538136D01*
X6816525Y-16538136D02*
X6807002Y-16547660D01*
X6807002Y-16547660D02*
X6787954Y-16557184D01*
X6787954Y-16557184D02*
X6740335Y-16557184D01*
X6740335Y-16557184D02*
X6721287Y-16547660D01*
X6721287Y-16547660D02*
X6711763Y-16538136D01*
X6949859Y-16357184D02*
X6968906Y-16357184D01*
X6968906Y-16357184D02*
X6987954Y-16366708D01*
X6987954Y-16366708D02*
X6997478Y-16376231D01*
X6997478Y-16376231D02*
X7007002Y-16395279D01*
X7007002Y-16395279D02*
X7016525Y-16433374D01*
X7016525Y-16433374D02*
X7016525Y-16480993D01*
X7016525Y-16480993D02*
X7007002Y-16519088D01*
X7007002Y-16519088D02*
X6997478Y-16538136D01*
X6997478Y-16538136D02*
X6987954Y-16547660D01*
X6987954Y-16547660D02*
X6968906Y-16557184D01*
X6968906Y-16557184D02*
X6949859Y-16557184D01*
X6949859Y-16557184D02*
X6930811Y-16547660D01*
X6930811Y-16547660D02*
X6921287Y-16538136D01*
X6921287Y-16538136D02*
X6911763Y-16519088D01*
X6911763Y-16519088D02*
X6902240Y-16480993D01*
X6902240Y-16480993D02*
X6902240Y-16433374D01*
X6902240Y-16433374D02*
X6911763Y-16395279D01*
X6911763Y-16395279D02*
X6921287Y-16376231D01*
X6921287Y-16376231D02*
X6930811Y-16366708D01*
X6930811Y-16366708D02*
X6949859Y-16357184D01*
X7102240Y-16557184D02*
X7102240Y-16423850D01*
X7102240Y-16442898D02*
X7111763Y-16433374D01*
X7111763Y-16433374D02*
X7130811Y-16423850D01*
X7130811Y-16423850D02*
X7159383Y-16423850D01*
X7159383Y-16423850D02*
X7178430Y-16433374D01*
X7178430Y-16433374D02*
X7187954Y-16452422D01*
X7187954Y-16452422D02*
X7187954Y-16557184D01*
X7187954Y-16452422D02*
X7197478Y-16433374D01*
X7197478Y-16433374D02*
X7216525Y-16423850D01*
X7216525Y-16423850D02*
X7245097Y-16423850D01*
X7245097Y-16423850D02*
X7264144Y-16433374D01*
X7264144Y-16433374D02*
X7273668Y-16452422D01*
X7273668Y-16452422D02*
X7273668Y-16557184D01*
X7368906Y-16557184D02*
X7368906Y-16423850D01*
X7368906Y-16442898D02*
X7378430Y-16433374D01*
X7378430Y-16433374D02*
X7397478Y-16423850D01*
X7397478Y-16423850D02*
X7426049Y-16423850D01*
X7426049Y-16423850D02*
X7445097Y-16433374D01*
X7445097Y-16433374D02*
X7454621Y-16452422D01*
X7454621Y-16452422D02*
X7454621Y-16557184D01*
X7454621Y-16452422D02*
X7464144Y-16433374D01*
X7464144Y-16433374D02*
X7483192Y-16423850D01*
X7483192Y-16423850D02*
X7511763Y-16423850D01*
X7511763Y-16423850D02*
X7530811Y-16433374D01*
X7530811Y-16433374D02*
X7540335Y-16452422D01*
X7540335Y-16452422D02*
X7540335Y-16557184D01*
X7930811Y-16347660D02*
X7759383Y-16604803D01*
X8187954Y-16357184D02*
X8207002Y-16357184D01*
X8207002Y-16357184D02*
X8226049Y-16366708D01*
X8226049Y-16366708D02*
X8235573Y-16376231D01*
X8235573Y-16376231D02*
X8245097Y-16395279D01*
X8245097Y-16395279D02*
X8254621Y-16433374D01*
X8254621Y-16433374D02*
X8254621Y-16480993D01*
X8254621Y-16480993D02*
X8245097Y-16519088D01*
X8245097Y-16519088D02*
X8235573Y-16538136D01*
X8235573Y-16538136D02*
X8226049Y-16547660D01*
X8226049Y-16547660D02*
X8207002Y-16557184D01*
X8207002Y-16557184D02*
X8187954Y-16557184D01*
X8187954Y-16557184D02*
X8168906Y-16547660D01*
X8168906Y-16547660D02*
X8159383Y-16538136D01*
X8159383Y-16538136D02*
X8149859Y-16519088D01*
X8149859Y-16519088D02*
X8140335Y-16480993D01*
X8140335Y-16480993D02*
X8140335Y-16433374D01*
X8140335Y-16433374D02*
X8149859Y-16395279D01*
X8149859Y-16395279D02*
X8159383Y-16376231D01*
X8159383Y-16376231D02*
X8168906Y-16366708D01*
X8168906Y-16366708D02*
X8187954Y-16357184D01*
X8340335Y-16538136D02*
X8349859Y-16547660D01*
X8349859Y-16547660D02*
X8340335Y-16557184D01*
X8340335Y-16557184D02*
X8330811Y-16547660D01*
X8330811Y-16547660D02*
X8340335Y-16538136D01*
X8340335Y-16538136D02*
X8340335Y-16557184D01*
X8473668Y-16357184D02*
X8492716Y-16357184D01*
X8492716Y-16357184D02*
X8511764Y-16366708D01*
X8511764Y-16366708D02*
X8521288Y-16376231D01*
X8521288Y-16376231D02*
X8530811Y-16395279D01*
X8530811Y-16395279D02*
X8540335Y-16433374D01*
X8540335Y-16433374D02*
X8540335Y-16480993D01*
X8540335Y-16480993D02*
X8530811Y-16519088D01*
X8530811Y-16519088D02*
X8521288Y-16538136D01*
X8521288Y-16538136D02*
X8511764Y-16547660D01*
X8511764Y-16547660D02*
X8492716Y-16557184D01*
X8492716Y-16557184D02*
X8473668Y-16557184D01*
X8473668Y-16557184D02*
X8454621Y-16547660D01*
X8454621Y-16547660D02*
X8445097Y-16538136D01*
X8445097Y-16538136D02*
X8435573Y-16519088D01*
X8435573Y-16519088D02*
X8426049Y-16480993D01*
X8426049Y-16480993D02*
X8426049Y-16433374D01*
X8426049Y-16433374D02*
X8435573Y-16395279D01*
X8435573Y-16395279D02*
X8445097Y-16376231D01*
X8445097Y-16376231D02*
X8454621Y-16366708D01*
X8454621Y-16366708D02*
X8473668Y-16357184D01*
X8711764Y-16423850D02*
X8711764Y-16557184D01*
X8664145Y-16347660D02*
X8616526Y-16490517D01*
X8616526Y-16490517D02*
X8740335Y-16490517D01*
X8826049Y-16557184D02*
X8864145Y-16557184D01*
X8864145Y-16557184D02*
X8883192Y-16547660D01*
X8883192Y-16547660D02*
X8892716Y-16538136D01*
X8892716Y-16538136D02*
X8911764Y-16509565D01*
X8911764Y-16509565D02*
X8921288Y-16471469D01*
X8921288Y-16471469D02*
X8921288Y-16395279D01*
X8921288Y-16395279D02*
X8911764Y-16376231D01*
X8911764Y-16376231D02*
X8902240Y-16366708D01*
X8902240Y-16366708D02*
X8883192Y-16357184D01*
X8883192Y-16357184D02*
X8845097Y-16357184D01*
X8845097Y-16357184D02*
X8826049Y-16366708D01*
X8826049Y-16366708D02*
X8816526Y-16376231D01*
X8816526Y-16376231D02*
X8807002Y-16395279D01*
X8807002Y-16395279D02*
X8807002Y-16442898D01*
X8807002Y-16442898D02*
X8816526Y-16461946D01*
X8816526Y-16461946D02*
X8826049Y-16471469D01*
X8826049Y-16471469D02*
X8845097Y-16480993D01*
X8845097Y-16480993D02*
X8883192Y-16480993D01*
X8883192Y-16480993D02*
X8902240Y-16471469D01*
X8902240Y-16471469D02*
X8911764Y-16461946D01*
X8911764Y-16461946D02*
X8921288Y-16442898D01*
X8997478Y-16376231D02*
X9007002Y-16366708D01*
X9007002Y-16366708D02*
X9026049Y-16357184D01*
X9026049Y-16357184D02*
X9073669Y-16357184D01*
X9073669Y-16357184D02*
X9092716Y-16366708D01*
X9092716Y-16366708D02*
X9102240Y-16376231D01*
X9102240Y-16376231D02*
X9111764Y-16395279D01*
X9111764Y-16395279D02*
X9111764Y-16414327D01*
X9111764Y-16414327D02*
X9102240Y-16442898D01*
X9102240Y-16442898D02*
X8987954Y-16557184D01*
X8987954Y-16557184D02*
X9111764Y-16557184D01*
X9187954Y-16357184D02*
X9187954Y-16395279D01*
X9264145Y-16357184D02*
X9264145Y-16395279D01*
X9559383Y-16633374D02*
X9549859Y-16623850D01*
X9549859Y-16623850D02*
X9530811Y-16595279D01*
X9530811Y-16595279D02*
X9521288Y-16576231D01*
X9521288Y-16576231D02*
X9511764Y-16547660D01*
X9511764Y-16547660D02*
X9502240Y-16500041D01*
X9502240Y-16500041D02*
X9502240Y-16461946D01*
X9502240Y-16461946D02*
X9511764Y-16414327D01*
X9511764Y-16414327D02*
X9521288Y-16385755D01*
X9521288Y-16385755D02*
X9530811Y-16366708D01*
X9530811Y-16366708D02*
X9549859Y-16338136D01*
X9549859Y-16338136D02*
X9559383Y-16328612D01*
X9721288Y-16423850D02*
X9721288Y-16557184D01*
X9673669Y-16347660D02*
X9626050Y-16490517D01*
X9626050Y-16490517D02*
X9749859Y-16490517D01*
X9978431Y-16557184D02*
X9978431Y-16357184D01*
X10064145Y-16557184D02*
X10064145Y-16452422D01*
X10064145Y-16452422D02*
X10054621Y-16433374D01*
X10054621Y-16433374D02*
X10035573Y-16423850D01*
X10035573Y-16423850D02*
X10007002Y-16423850D01*
X10007002Y-16423850D02*
X9987954Y-16433374D01*
X9987954Y-16433374D02*
X9978431Y-16442898D01*
X10187954Y-16557184D02*
X10168907Y-16547660D01*
X10168907Y-16547660D02*
X10159383Y-16538136D01*
X10159383Y-16538136D02*
X10149859Y-16519088D01*
X10149859Y-16519088D02*
X10149859Y-16461946D01*
X10149859Y-16461946D02*
X10159383Y-16442898D01*
X10159383Y-16442898D02*
X10168907Y-16433374D01*
X10168907Y-16433374D02*
X10187954Y-16423850D01*
X10187954Y-16423850D02*
X10216526Y-16423850D01*
X10216526Y-16423850D02*
X10235573Y-16433374D01*
X10235573Y-16433374D02*
X10245097Y-16442898D01*
X10245097Y-16442898D02*
X10254621Y-16461946D01*
X10254621Y-16461946D02*
X10254621Y-16519088D01*
X10254621Y-16519088D02*
X10245097Y-16538136D01*
X10245097Y-16538136D02*
X10235573Y-16547660D01*
X10235573Y-16547660D02*
X10216526Y-16557184D01*
X10216526Y-16557184D02*
X10187954Y-16557184D01*
X10368907Y-16557184D02*
X10349859Y-16547660D01*
X10349859Y-16547660D02*
X10340335Y-16528612D01*
X10340335Y-16528612D02*
X10340335Y-16357184D01*
X10521288Y-16547660D02*
X10502240Y-16557184D01*
X10502240Y-16557184D02*
X10464145Y-16557184D01*
X10464145Y-16557184D02*
X10445097Y-16547660D01*
X10445097Y-16547660D02*
X10435573Y-16528612D01*
X10435573Y-16528612D02*
X10435573Y-16452422D01*
X10435573Y-16452422D02*
X10445097Y-16433374D01*
X10445097Y-16433374D02*
X10464145Y-16423850D01*
X10464145Y-16423850D02*
X10502240Y-16423850D01*
X10502240Y-16423850D02*
X10521288Y-16433374D01*
X10521288Y-16433374D02*
X10530812Y-16452422D01*
X10530812Y-16452422D02*
X10530812Y-16471469D01*
X10530812Y-16471469D02*
X10435573Y-16490517D01*
X10607002Y-16547660D02*
X10626050Y-16557184D01*
X10626050Y-16557184D02*
X10664145Y-16557184D01*
X10664145Y-16557184D02*
X10683193Y-16547660D01*
X10683193Y-16547660D02*
X10692716Y-16528612D01*
X10692716Y-16528612D02*
X10692716Y-16519088D01*
X10692716Y-16519088D02*
X10683193Y-16500041D01*
X10683193Y-16500041D02*
X10664145Y-16490517D01*
X10664145Y-16490517D02*
X10635573Y-16490517D01*
X10635573Y-16490517D02*
X10616526Y-16480993D01*
X10616526Y-16480993D02*
X10607002Y-16461946D01*
X10607002Y-16461946D02*
X10607002Y-16452422D01*
X10607002Y-16452422D02*
X10616526Y-16433374D01*
X10616526Y-16433374D02*
X10635573Y-16423850D01*
X10635573Y-16423850D02*
X10664145Y-16423850D01*
X10664145Y-16423850D02*
X10683193Y-16433374D01*
X10759383Y-16633374D02*
X10768907Y-16623850D01*
X10768907Y-16623850D02*
X10787954Y-16595279D01*
X10787954Y-16595279D02*
X10797478Y-16576231D01*
X10797478Y-16576231D02*
X10807002Y-16547660D01*
X10807002Y-16547660D02*
X10816526Y-16500041D01*
X10816526Y-16500041D02*
X10816526Y-16461946D01*
X10816526Y-16461946D02*
X10807002Y-16414327D01*
X10807002Y-16414327D02*
X10797478Y-16385755D01*
X10797478Y-16385755D02*
X10787954Y-16366708D01*
X10787954Y-16366708D02*
X10768907Y-16338136D01*
X10768907Y-16338136D02*
X10759383Y-16328612D01*
X5784320Y-16629700D02*
X5984320Y-16829700D01*
X5984320Y-16629700D02*
X5784320Y-16829700D01*
X5955031Y-16800411D02*
X5955031Y-16658989D01*
X5813609Y-16658989D01*
X5813609Y-16800411D01*
X5955031Y-16800411D01*
X6235573Y-16640231D02*
X6245097Y-16630708D01*
X6245097Y-16630708D02*
X6264144Y-16621184D01*
X6264144Y-16621184D02*
X6311763Y-16621184D01*
X6311763Y-16621184D02*
X6330811Y-16630708D01*
X6330811Y-16630708D02*
X6340335Y-16640231D01*
X6340335Y-16640231D02*
X6349859Y-16659279D01*
X6349859Y-16659279D02*
X6349859Y-16678327D01*
X6349859Y-16678327D02*
X6340335Y-16706898D01*
X6340335Y-16706898D02*
X6226049Y-16821184D01*
X6226049Y-16821184D02*
X6349859Y-16821184D01*
X6435573Y-16802136D02*
X6445097Y-16811660D01*
X6445097Y-16811660D02*
X6435573Y-16821184D01*
X6435573Y-16821184D02*
X6426049Y-16811660D01*
X6426049Y-16811660D02*
X6435573Y-16802136D01*
X6435573Y-16802136D02*
X6435573Y-16821184D01*
X6521287Y-16640231D02*
X6530811Y-16630708D01*
X6530811Y-16630708D02*
X6549859Y-16621184D01*
X6549859Y-16621184D02*
X6597478Y-16621184D01*
X6597478Y-16621184D02*
X6616525Y-16630708D01*
X6616525Y-16630708D02*
X6626049Y-16640231D01*
X6626049Y-16640231D02*
X6635573Y-16659279D01*
X6635573Y-16659279D02*
X6635573Y-16678327D01*
X6635573Y-16678327D02*
X6626049Y-16706898D01*
X6626049Y-16706898D02*
X6511763Y-16821184D01*
X6511763Y-16821184D02*
X6635573Y-16821184D01*
X6807002Y-16621184D02*
X6768906Y-16621184D01*
X6768906Y-16621184D02*
X6749859Y-16630708D01*
X6749859Y-16630708D02*
X6740335Y-16640231D01*
X6740335Y-16640231D02*
X6721287Y-16668803D01*
X6721287Y-16668803D02*
X6711763Y-16706898D01*
X6711763Y-16706898D02*
X6711763Y-16783089D01*
X6711763Y-16783089D02*
X6721287Y-16802136D01*
X6721287Y-16802136D02*
X6730811Y-16811660D01*
X6730811Y-16811660D02*
X6749859Y-16821184D01*
X6749859Y-16821184D02*
X6787954Y-16821184D01*
X6787954Y-16821184D02*
X6807002Y-16811660D01*
X6807002Y-16811660D02*
X6816525Y-16802136D01*
X6816525Y-16802136D02*
X6826049Y-16783089D01*
X6826049Y-16783089D02*
X6826049Y-16735469D01*
X6826049Y-16735469D02*
X6816525Y-16716422D01*
X6816525Y-16716422D02*
X6807002Y-16706898D01*
X6807002Y-16706898D02*
X6787954Y-16697374D01*
X6787954Y-16697374D02*
X6749859Y-16697374D01*
X6749859Y-16697374D02*
X6730811Y-16706898D01*
X6730811Y-16706898D02*
X6721287Y-16716422D01*
X6721287Y-16716422D02*
X6711763Y-16735469D01*
X6949859Y-16621184D02*
X6968906Y-16621184D01*
X6968906Y-16621184D02*
X6987954Y-16630708D01*
X6987954Y-16630708D02*
X6997478Y-16640231D01*
X6997478Y-16640231D02*
X7007002Y-16659279D01*
X7007002Y-16659279D02*
X7016525Y-16697374D01*
X7016525Y-16697374D02*
X7016525Y-16744993D01*
X7016525Y-16744993D02*
X7007002Y-16783089D01*
X7007002Y-16783089D02*
X6997478Y-16802136D01*
X6997478Y-16802136D02*
X6987954Y-16811660D01*
X6987954Y-16811660D02*
X6968906Y-16821184D01*
X6968906Y-16821184D02*
X6949859Y-16821184D01*
X6949859Y-16821184D02*
X6930811Y-16811660D01*
X6930811Y-16811660D02*
X6921287Y-16802136D01*
X6921287Y-16802136D02*
X6911763Y-16783089D01*
X6911763Y-16783089D02*
X6902240Y-16744993D01*
X6902240Y-16744993D02*
X6902240Y-16697374D01*
X6902240Y-16697374D02*
X6911763Y-16659279D01*
X6911763Y-16659279D02*
X6921287Y-16640231D01*
X6921287Y-16640231D02*
X6930811Y-16630708D01*
X6930811Y-16630708D02*
X6949859Y-16621184D01*
X7102240Y-16821184D02*
X7102240Y-16687850D01*
X7102240Y-16706898D02*
X7111763Y-16697374D01*
X7111763Y-16697374D02*
X7130811Y-16687850D01*
X7130811Y-16687850D02*
X7159383Y-16687850D01*
X7159383Y-16687850D02*
X7178430Y-16697374D01*
X7178430Y-16697374D02*
X7187954Y-16716422D01*
X7187954Y-16716422D02*
X7187954Y-16821184D01*
X7187954Y-16716422D02*
X7197478Y-16697374D01*
X7197478Y-16697374D02*
X7216525Y-16687850D01*
X7216525Y-16687850D02*
X7245097Y-16687850D01*
X7245097Y-16687850D02*
X7264144Y-16697374D01*
X7264144Y-16697374D02*
X7273668Y-16716422D01*
X7273668Y-16716422D02*
X7273668Y-16821184D01*
X7368906Y-16821184D02*
X7368906Y-16687850D01*
X7368906Y-16706898D02*
X7378430Y-16697374D01*
X7378430Y-16697374D02*
X7397478Y-16687850D01*
X7397478Y-16687850D02*
X7426049Y-16687850D01*
X7426049Y-16687850D02*
X7445097Y-16697374D01*
X7445097Y-16697374D02*
X7454621Y-16716422D01*
X7454621Y-16716422D02*
X7454621Y-16821184D01*
X7454621Y-16716422D02*
X7464144Y-16697374D01*
X7464144Y-16697374D02*
X7483192Y-16687850D01*
X7483192Y-16687850D02*
X7511763Y-16687850D01*
X7511763Y-16687850D02*
X7530811Y-16697374D01*
X7530811Y-16697374D02*
X7540335Y-16716422D01*
X7540335Y-16716422D02*
X7540335Y-16821184D01*
X7930811Y-16611660D02*
X7759383Y-16868803D01*
X8187954Y-16621184D02*
X8207002Y-16621184D01*
X8207002Y-16621184D02*
X8226049Y-16630708D01*
X8226049Y-16630708D02*
X8235573Y-16640231D01*
X8235573Y-16640231D02*
X8245097Y-16659279D01*
X8245097Y-16659279D02*
X8254621Y-16697374D01*
X8254621Y-16697374D02*
X8254621Y-16744993D01*
X8254621Y-16744993D02*
X8245097Y-16783089D01*
X8245097Y-16783089D02*
X8235573Y-16802136D01*
X8235573Y-16802136D02*
X8226049Y-16811660D01*
X8226049Y-16811660D02*
X8207002Y-16821184D01*
X8207002Y-16821184D02*
X8187954Y-16821184D01*
X8187954Y-16821184D02*
X8168906Y-16811660D01*
X8168906Y-16811660D02*
X8159383Y-16802136D01*
X8159383Y-16802136D02*
X8149859Y-16783089D01*
X8149859Y-16783089D02*
X8140335Y-16744993D01*
X8140335Y-16744993D02*
X8140335Y-16697374D01*
X8140335Y-16697374D02*
X8149859Y-16659279D01*
X8149859Y-16659279D02*
X8159383Y-16640231D01*
X8159383Y-16640231D02*
X8168906Y-16630708D01*
X8168906Y-16630708D02*
X8187954Y-16621184D01*
X8340335Y-16802136D02*
X8349859Y-16811660D01*
X8349859Y-16811660D02*
X8340335Y-16821184D01*
X8340335Y-16821184D02*
X8330811Y-16811660D01*
X8330811Y-16811660D02*
X8340335Y-16802136D01*
X8340335Y-16802136D02*
X8340335Y-16821184D01*
X8473668Y-16621184D02*
X8492716Y-16621184D01*
X8492716Y-16621184D02*
X8511764Y-16630708D01*
X8511764Y-16630708D02*
X8521288Y-16640231D01*
X8521288Y-16640231D02*
X8530811Y-16659279D01*
X8530811Y-16659279D02*
X8540335Y-16697374D01*
X8540335Y-16697374D02*
X8540335Y-16744993D01*
X8540335Y-16744993D02*
X8530811Y-16783089D01*
X8530811Y-16783089D02*
X8521288Y-16802136D01*
X8521288Y-16802136D02*
X8511764Y-16811660D01*
X8511764Y-16811660D02*
X8492716Y-16821184D01*
X8492716Y-16821184D02*
X8473668Y-16821184D01*
X8473668Y-16821184D02*
X8454621Y-16811660D01*
X8454621Y-16811660D02*
X8445097Y-16802136D01*
X8445097Y-16802136D02*
X8435573Y-16783089D01*
X8435573Y-16783089D02*
X8426049Y-16744993D01*
X8426049Y-16744993D02*
X8426049Y-16697374D01*
X8426049Y-16697374D02*
X8435573Y-16659279D01*
X8435573Y-16659279D02*
X8445097Y-16640231D01*
X8445097Y-16640231D02*
X8454621Y-16630708D01*
X8454621Y-16630708D02*
X8473668Y-16621184D01*
X8654621Y-16706898D02*
X8635573Y-16697374D01*
X8635573Y-16697374D02*
X8626049Y-16687850D01*
X8626049Y-16687850D02*
X8616526Y-16668803D01*
X8616526Y-16668803D02*
X8616526Y-16659279D01*
X8616526Y-16659279D02*
X8626049Y-16640231D01*
X8626049Y-16640231D02*
X8635573Y-16630708D01*
X8635573Y-16630708D02*
X8654621Y-16621184D01*
X8654621Y-16621184D02*
X8692716Y-16621184D01*
X8692716Y-16621184D02*
X8711764Y-16630708D01*
X8711764Y-16630708D02*
X8721288Y-16640231D01*
X8721288Y-16640231D02*
X8730811Y-16659279D01*
X8730811Y-16659279D02*
X8730811Y-16668803D01*
X8730811Y-16668803D02*
X8721288Y-16687850D01*
X8721288Y-16687850D02*
X8711764Y-16697374D01*
X8711764Y-16697374D02*
X8692716Y-16706898D01*
X8692716Y-16706898D02*
X8654621Y-16706898D01*
X8654621Y-16706898D02*
X8635573Y-16716422D01*
X8635573Y-16716422D02*
X8626049Y-16725946D01*
X8626049Y-16725946D02*
X8616526Y-16744993D01*
X8616526Y-16744993D02*
X8616526Y-16783089D01*
X8616526Y-16783089D02*
X8626049Y-16802136D01*
X8626049Y-16802136D02*
X8635573Y-16811660D01*
X8635573Y-16811660D02*
X8654621Y-16821184D01*
X8654621Y-16821184D02*
X8692716Y-16821184D01*
X8692716Y-16821184D02*
X8711764Y-16811660D01*
X8711764Y-16811660D02*
X8721288Y-16802136D01*
X8721288Y-16802136D02*
X8730811Y-16783089D01*
X8730811Y-16783089D02*
X8730811Y-16744993D01*
X8730811Y-16744993D02*
X8721288Y-16725946D01*
X8721288Y-16725946D02*
X8711764Y-16716422D01*
X8711764Y-16716422D02*
X8692716Y-16706898D01*
X8826049Y-16821184D02*
X8864145Y-16821184D01*
X8864145Y-16821184D02*
X8883192Y-16811660D01*
X8883192Y-16811660D02*
X8892716Y-16802136D01*
X8892716Y-16802136D02*
X8911764Y-16773565D01*
X8911764Y-16773565D02*
X8921288Y-16735469D01*
X8921288Y-16735469D02*
X8921288Y-16659279D01*
X8921288Y-16659279D02*
X8911764Y-16640231D01*
X8911764Y-16640231D02*
X8902240Y-16630708D01*
X8902240Y-16630708D02*
X8883192Y-16621184D01*
X8883192Y-16621184D02*
X8845097Y-16621184D01*
X8845097Y-16621184D02*
X8826049Y-16630708D01*
X8826049Y-16630708D02*
X8816526Y-16640231D01*
X8816526Y-16640231D02*
X8807002Y-16659279D01*
X8807002Y-16659279D02*
X8807002Y-16706898D01*
X8807002Y-16706898D02*
X8816526Y-16725946D01*
X8816526Y-16725946D02*
X8826049Y-16735469D01*
X8826049Y-16735469D02*
X8845097Y-16744993D01*
X8845097Y-16744993D02*
X8883192Y-16744993D01*
X8883192Y-16744993D02*
X8902240Y-16735469D01*
X8902240Y-16735469D02*
X8911764Y-16725946D01*
X8911764Y-16725946D02*
X8921288Y-16706898D01*
X9045097Y-16621184D02*
X9064145Y-16621184D01*
X9064145Y-16621184D02*
X9083192Y-16630708D01*
X9083192Y-16630708D02*
X9092716Y-16640231D01*
X9092716Y-16640231D02*
X9102240Y-16659279D01*
X9102240Y-16659279D02*
X9111764Y-16697374D01*
X9111764Y-16697374D02*
X9111764Y-16744993D01*
X9111764Y-16744993D02*
X9102240Y-16783089D01*
X9102240Y-16783089D02*
X9092716Y-16802136D01*
X9092716Y-16802136D02*
X9083192Y-16811660D01*
X9083192Y-16811660D02*
X9064145Y-16821184D01*
X9064145Y-16821184D02*
X9045097Y-16821184D01*
X9045097Y-16821184D02*
X9026049Y-16811660D01*
X9026049Y-16811660D02*
X9016526Y-16802136D01*
X9016526Y-16802136D02*
X9007002Y-16783089D01*
X9007002Y-16783089D02*
X8997478Y-16744993D01*
X8997478Y-16744993D02*
X8997478Y-16697374D01*
X8997478Y-16697374D02*
X9007002Y-16659279D01*
X9007002Y-16659279D02*
X9016526Y-16640231D01*
X9016526Y-16640231D02*
X9026049Y-16630708D01*
X9026049Y-16630708D02*
X9045097Y-16621184D01*
X9187954Y-16621184D02*
X9187954Y-16659279D01*
X9264145Y-16621184D02*
X9264145Y-16659279D01*
X9559383Y-16897374D02*
X9549859Y-16887850D01*
X9549859Y-16887850D02*
X9530811Y-16859279D01*
X9530811Y-16859279D02*
X9521288Y-16840231D01*
X9521288Y-16840231D02*
X9511764Y-16811660D01*
X9511764Y-16811660D02*
X9502240Y-16764041D01*
X9502240Y-16764041D02*
X9502240Y-16725946D01*
X9502240Y-16725946D02*
X9511764Y-16678327D01*
X9511764Y-16678327D02*
X9521288Y-16649755D01*
X9521288Y-16649755D02*
X9530811Y-16630708D01*
X9530811Y-16630708D02*
X9549859Y-16602136D01*
X9549859Y-16602136D02*
X9559383Y-16592612D01*
X9626050Y-16640231D02*
X9635573Y-16630708D01*
X9635573Y-16630708D02*
X9654621Y-16621184D01*
X9654621Y-16621184D02*
X9702240Y-16621184D01*
X9702240Y-16621184D02*
X9721288Y-16630708D01*
X9721288Y-16630708D02*
X9730811Y-16640231D01*
X9730811Y-16640231D02*
X9740335Y-16659279D01*
X9740335Y-16659279D02*
X9740335Y-16678327D01*
X9740335Y-16678327D02*
X9730811Y-16706898D01*
X9730811Y-16706898D02*
X9616526Y-16821184D01*
X9616526Y-16821184D02*
X9740335Y-16821184D01*
X9978431Y-16821184D02*
X9978431Y-16621184D01*
X10064145Y-16821184D02*
X10064145Y-16716422D01*
X10064145Y-16716422D02*
X10054621Y-16697374D01*
X10054621Y-16697374D02*
X10035573Y-16687850D01*
X10035573Y-16687850D02*
X10007002Y-16687850D01*
X10007002Y-16687850D02*
X9987954Y-16697374D01*
X9987954Y-16697374D02*
X9978431Y-16706898D01*
X10187954Y-16821184D02*
X10168907Y-16811660D01*
X10168907Y-16811660D02*
X10159383Y-16802136D01*
X10159383Y-16802136D02*
X10149859Y-16783089D01*
X10149859Y-16783089D02*
X10149859Y-16725946D01*
X10149859Y-16725946D02*
X10159383Y-16706898D01*
X10159383Y-16706898D02*
X10168907Y-16697374D01*
X10168907Y-16697374D02*
X10187954Y-16687850D01*
X10187954Y-16687850D02*
X10216526Y-16687850D01*
X10216526Y-16687850D02*
X10235573Y-16697374D01*
X10235573Y-16697374D02*
X10245097Y-16706898D01*
X10245097Y-16706898D02*
X10254621Y-16725946D01*
X10254621Y-16725946D02*
X10254621Y-16783089D01*
X10254621Y-16783089D02*
X10245097Y-16802136D01*
X10245097Y-16802136D02*
X10235573Y-16811660D01*
X10235573Y-16811660D02*
X10216526Y-16821184D01*
X10216526Y-16821184D02*
X10187954Y-16821184D01*
X10368907Y-16821184D02*
X10349859Y-16811660D01*
X10349859Y-16811660D02*
X10340335Y-16792612D01*
X10340335Y-16792612D02*
X10340335Y-16621184D01*
X10521288Y-16811660D02*
X10502240Y-16821184D01*
X10502240Y-16821184D02*
X10464145Y-16821184D01*
X10464145Y-16821184D02*
X10445097Y-16811660D01*
X10445097Y-16811660D02*
X10435573Y-16792612D01*
X10435573Y-16792612D02*
X10435573Y-16716422D01*
X10435573Y-16716422D02*
X10445097Y-16697374D01*
X10445097Y-16697374D02*
X10464145Y-16687850D01*
X10464145Y-16687850D02*
X10502240Y-16687850D01*
X10502240Y-16687850D02*
X10521288Y-16697374D01*
X10521288Y-16697374D02*
X10530812Y-16716422D01*
X10530812Y-16716422D02*
X10530812Y-16735469D01*
X10530812Y-16735469D02*
X10435573Y-16754517D01*
X10607002Y-16811660D02*
X10626050Y-16821184D01*
X10626050Y-16821184D02*
X10664145Y-16821184D01*
X10664145Y-16821184D02*
X10683193Y-16811660D01*
X10683193Y-16811660D02*
X10692716Y-16792612D01*
X10692716Y-16792612D02*
X10692716Y-16783089D01*
X10692716Y-16783089D02*
X10683193Y-16764041D01*
X10683193Y-16764041D02*
X10664145Y-16754517D01*
X10664145Y-16754517D02*
X10635573Y-16754517D01*
X10635573Y-16754517D02*
X10616526Y-16744993D01*
X10616526Y-16744993D02*
X10607002Y-16725946D01*
X10607002Y-16725946D02*
X10607002Y-16716422D01*
X10607002Y-16716422D02*
X10616526Y-16697374D01*
X10616526Y-16697374D02*
X10635573Y-16687850D01*
X10635573Y-16687850D02*
X10664145Y-16687850D01*
X10664145Y-16687850D02*
X10683193Y-16697374D01*
X10759383Y-16897374D02*
X10768907Y-16887850D01*
X10768907Y-16887850D02*
X10787954Y-16859279D01*
X10787954Y-16859279D02*
X10797478Y-16840231D01*
X10797478Y-16840231D02*
X10807002Y-16811660D01*
X10807002Y-16811660D02*
X10816526Y-16764041D01*
X10816526Y-16764041D02*
X10816526Y-16725946D01*
X10816526Y-16725946D02*
X10807002Y-16678327D01*
X10807002Y-16678327D02*
X10797478Y-16649755D01*
X10797478Y-16649755D02*
X10787954Y-16630708D01*
X10787954Y-16630708D02*
X10768907Y-16602136D01*
X10768907Y-16602136D02*
X10759383Y-16592612D01*
X5784320Y-16949700D02*
X5984320Y-17149700D01*
X5984320Y-16949700D02*
X5784320Y-17149700D01*
X5884320Y-17149700D02*
X5984320Y-17049700D01*
X5884320Y-16949700D01*
X5784320Y-17049700D01*
X5884320Y-17149700D01*
X6235573Y-16960231D02*
X6245097Y-16950708D01*
X6245097Y-16950708D02*
X6264144Y-16941184D01*
X6264144Y-16941184D02*
X6311763Y-16941184D01*
X6311763Y-16941184D02*
X6330811Y-16950708D01*
X6330811Y-16950708D02*
X6340335Y-16960231D01*
X6340335Y-16960231D02*
X6349859Y-16979279D01*
X6349859Y-16979279D02*
X6349859Y-16998327D01*
X6349859Y-16998327D02*
X6340335Y-17026898D01*
X6340335Y-17026898D02*
X6226049Y-17141184D01*
X6226049Y-17141184D02*
X6349859Y-17141184D01*
X6435573Y-17122136D02*
X6445097Y-17131660D01*
X6445097Y-17131660D02*
X6435573Y-17141184D01*
X6435573Y-17141184D02*
X6426049Y-17131660D01*
X6426049Y-17131660D02*
X6435573Y-17122136D01*
X6435573Y-17122136D02*
X6435573Y-17141184D01*
X6511763Y-16941184D02*
X6645097Y-16941184D01*
X6645097Y-16941184D02*
X6559382Y-17141184D01*
X6759382Y-16941184D02*
X6778430Y-16941184D01*
X6778430Y-16941184D02*
X6797478Y-16950708D01*
X6797478Y-16950708D02*
X6807002Y-16960231D01*
X6807002Y-16960231D02*
X6816525Y-16979279D01*
X6816525Y-16979279D02*
X6826049Y-17017374D01*
X6826049Y-17017374D02*
X6826049Y-17064993D01*
X6826049Y-17064993D02*
X6816525Y-17103089D01*
X6816525Y-17103089D02*
X6807002Y-17122136D01*
X6807002Y-17122136D02*
X6797478Y-17131660D01*
X6797478Y-17131660D02*
X6778430Y-17141184D01*
X6778430Y-17141184D02*
X6759382Y-17141184D01*
X6759382Y-17141184D02*
X6740335Y-17131660D01*
X6740335Y-17131660D02*
X6730811Y-17122136D01*
X6730811Y-17122136D02*
X6721287Y-17103089D01*
X6721287Y-17103089D02*
X6711763Y-17064993D01*
X6711763Y-17064993D02*
X6711763Y-17017374D01*
X6711763Y-17017374D02*
X6721287Y-16979279D01*
X6721287Y-16979279D02*
X6730811Y-16960231D01*
X6730811Y-16960231D02*
X6740335Y-16950708D01*
X6740335Y-16950708D02*
X6759382Y-16941184D01*
X6949859Y-16941184D02*
X6968906Y-16941184D01*
X6968906Y-16941184D02*
X6987954Y-16950708D01*
X6987954Y-16950708D02*
X6997478Y-16960231D01*
X6997478Y-16960231D02*
X7007002Y-16979279D01*
X7007002Y-16979279D02*
X7016525Y-17017374D01*
X7016525Y-17017374D02*
X7016525Y-17064993D01*
X7016525Y-17064993D02*
X7007002Y-17103089D01*
X7007002Y-17103089D02*
X6997478Y-17122136D01*
X6997478Y-17122136D02*
X6987954Y-17131660D01*
X6987954Y-17131660D02*
X6968906Y-17141184D01*
X6968906Y-17141184D02*
X6949859Y-17141184D01*
X6949859Y-17141184D02*
X6930811Y-17131660D01*
X6930811Y-17131660D02*
X6921287Y-17122136D01*
X6921287Y-17122136D02*
X6911763Y-17103089D01*
X6911763Y-17103089D02*
X6902240Y-17064993D01*
X6902240Y-17064993D02*
X6902240Y-17017374D01*
X6902240Y-17017374D02*
X6911763Y-16979279D01*
X6911763Y-16979279D02*
X6921287Y-16960231D01*
X6921287Y-16960231D02*
X6930811Y-16950708D01*
X6930811Y-16950708D02*
X6949859Y-16941184D01*
X7102240Y-17141184D02*
X7102240Y-17007850D01*
X7102240Y-17026898D02*
X7111763Y-17017374D01*
X7111763Y-17017374D02*
X7130811Y-17007850D01*
X7130811Y-17007850D02*
X7159383Y-17007850D01*
X7159383Y-17007850D02*
X7178430Y-17017374D01*
X7178430Y-17017374D02*
X7187954Y-17036422D01*
X7187954Y-17036422D02*
X7187954Y-17141184D01*
X7187954Y-17036422D02*
X7197478Y-17017374D01*
X7197478Y-17017374D02*
X7216525Y-17007850D01*
X7216525Y-17007850D02*
X7245097Y-17007850D01*
X7245097Y-17007850D02*
X7264144Y-17017374D01*
X7264144Y-17017374D02*
X7273668Y-17036422D01*
X7273668Y-17036422D02*
X7273668Y-17141184D01*
X7368906Y-17141184D02*
X7368906Y-17007850D01*
X7368906Y-17026898D02*
X7378430Y-17017374D01*
X7378430Y-17017374D02*
X7397478Y-17007850D01*
X7397478Y-17007850D02*
X7426049Y-17007850D01*
X7426049Y-17007850D02*
X7445097Y-17017374D01*
X7445097Y-17017374D02*
X7454621Y-17036422D01*
X7454621Y-17036422D02*
X7454621Y-17141184D01*
X7454621Y-17036422D02*
X7464144Y-17017374D01*
X7464144Y-17017374D02*
X7483192Y-17007850D01*
X7483192Y-17007850D02*
X7511763Y-17007850D01*
X7511763Y-17007850D02*
X7530811Y-17017374D01*
X7530811Y-17017374D02*
X7540335Y-17036422D01*
X7540335Y-17036422D02*
X7540335Y-17141184D01*
X7930811Y-16931660D02*
X7759383Y-17188803D01*
X8187954Y-16941184D02*
X8207002Y-16941184D01*
X8207002Y-16941184D02*
X8226049Y-16950708D01*
X8226049Y-16950708D02*
X8235573Y-16960231D01*
X8235573Y-16960231D02*
X8245097Y-16979279D01*
X8245097Y-16979279D02*
X8254621Y-17017374D01*
X8254621Y-17017374D02*
X8254621Y-17064993D01*
X8254621Y-17064993D02*
X8245097Y-17103089D01*
X8245097Y-17103089D02*
X8235573Y-17122136D01*
X8235573Y-17122136D02*
X8226049Y-17131660D01*
X8226049Y-17131660D02*
X8207002Y-17141184D01*
X8207002Y-17141184D02*
X8187954Y-17141184D01*
X8187954Y-17141184D02*
X8168906Y-17131660D01*
X8168906Y-17131660D02*
X8159383Y-17122136D01*
X8159383Y-17122136D02*
X8149859Y-17103089D01*
X8149859Y-17103089D02*
X8140335Y-17064993D01*
X8140335Y-17064993D02*
X8140335Y-17017374D01*
X8140335Y-17017374D02*
X8149859Y-16979279D01*
X8149859Y-16979279D02*
X8159383Y-16960231D01*
X8159383Y-16960231D02*
X8168906Y-16950708D01*
X8168906Y-16950708D02*
X8187954Y-16941184D01*
X8340335Y-17122136D02*
X8349859Y-17131660D01*
X8349859Y-17131660D02*
X8340335Y-17141184D01*
X8340335Y-17141184D02*
X8330811Y-17131660D01*
X8330811Y-17131660D02*
X8340335Y-17122136D01*
X8340335Y-17122136D02*
X8340335Y-17141184D01*
X8540335Y-17141184D02*
X8426049Y-17141184D01*
X8483192Y-17141184D02*
X8483192Y-16941184D01*
X8483192Y-16941184D02*
X8464145Y-16969755D01*
X8464145Y-16969755D02*
X8445097Y-16988803D01*
X8445097Y-16988803D02*
X8426049Y-16998327D01*
X8664145Y-16941184D02*
X8683192Y-16941184D01*
X8683192Y-16941184D02*
X8702240Y-16950708D01*
X8702240Y-16950708D02*
X8711764Y-16960231D01*
X8711764Y-16960231D02*
X8721288Y-16979279D01*
X8721288Y-16979279D02*
X8730811Y-17017374D01*
X8730811Y-17017374D02*
X8730811Y-17064993D01*
X8730811Y-17064993D02*
X8721288Y-17103089D01*
X8721288Y-17103089D02*
X8711764Y-17122136D01*
X8711764Y-17122136D02*
X8702240Y-17131660D01*
X8702240Y-17131660D02*
X8683192Y-17141184D01*
X8683192Y-17141184D02*
X8664145Y-17141184D01*
X8664145Y-17141184D02*
X8645097Y-17131660D01*
X8645097Y-17131660D02*
X8635573Y-17122136D01*
X8635573Y-17122136D02*
X8626049Y-17103089D01*
X8626049Y-17103089D02*
X8616526Y-17064993D01*
X8616526Y-17064993D02*
X8616526Y-17017374D01*
X8616526Y-17017374D02*
X8626049Y-16979279D01*
X8626049Y-16979279D02*
X8635573Y-16960231D01*
X8635573Y-16960231D02*
X8645097Y-16950708D01*
X8645097Y-16950708D02*
X8664145Y-16941184D01*
X8902240Y-16941184D02*
X8864145Y-16941184D01*
X8864145Y-16941184D02*
X8845097Y-16950708D01*
X8845097Y-16950708D02*
X8835573Y-16960231D01*
X8835573Y-16960231D02*
X8816526Y-16988803D01*
X8816526Y-16988803D02*
X8807002Y-17026898D01*
X8807002Y-17026898D02*
X8807002Y-17103089D01*
X8807002Y-17103089D02*
X8816526Y-17122136D01*
X8816526Y-17122136D02*
X8826049Y-17131660D01*
X8826049Y-17131660D02*
X8845097Y-17141184D01*
X8845097Y-17141184D02*
X8883192Y-17141184D01*
X8883192Y-17141184D02*
X8902240Y-17131660D01*
X8902240Y-17131660D02*
X8911764Y-17122136D01*
X8911764Y-17122136D02*
X8921288Y-17103089D01*
X8921288Y-17103089D02*
X8921288Y-17055470D01*
X8921288Y-17055470D02*
X8911764Y-17036422D01*
X8911764Y-17036422D02*
X8902240Y-17026898D01*
X8902240Y-17026898D02*
X8883192Y-17017374D01*
X8883192Y-17017374D02*
X8845097Y-17017374D01*
X8845097Y-17017374D02*
X8826049Y-17026898D01*
X8826049Y-17026898D02*
X8816526Y-17036422D01*
X8816526Y-17036422D02*
X8807002Y-17055470D01*
X8987954Y-16941184D02*
X9111764Y-16941184D01*
X9111764Y-16941184D02*
X9045097Y-17017374D01*
X9045097Y-17017374D02*
X9073669Y-17017374D01*
X9073669Y-17017374D02*
X9092716Y-17026898D01*
X9092716Y-17026898D02*
X9102240Y-17036422D01*
X9102240Y-17036422D02*
X9111764Y-17055470D01*
X9111764Y-17055470D02*
X9111764Y-17103089D01*
X9111764Y-17103089D02*
X9102240Y-17122136D01*
X9102240Y-17122136D02*
X9092716Y-17131660D01*
X9092716Y-17131660D02*
X9073669Y-17141184D01*
X9073669Y-17141184D02*
X9016526Y-17141184D01*
X9016526Y-17141184D02*
X8997478Y-17131660D01*
X8997478Y-17131660D02*
X8987954Y-17122136D01*
X9187954Y-16941184D02*
X9187954Y-16979279D01*
X9264145Y-16941184D02*
X9264145Y-16979279D01*
X9559383Y-17217374D02*
X9549859Y-17207850D01*
X9549859Y-17207850D02*
X9530811Y-17179279D01*
X9530811Y-17179279D02*
X9521288Y-17160231D01*
X9521288Y-17160231D02*
X9511764Y-17131660D01*
X9511764Y-17131660D02*
X9502240Y-17084041D01*
X9502240Y-17084041D02*
X9502240Y-17045946D01*
X9502240Y-17045946D02*
X9511764Y-16998327D01*
X9511764Y-16998327D02*
X9521288Y-16969755D01*
X9521288Y-16969755D02*
X9530811Y-16950708D01*
X9530811Y-16950708D02*
X9549859Y-16922136D01*
X9549859Y-16922136D02*
X9559383Y-16912612D01*
X9626050Y-16960231D02*
X9635573Y-16950708D01*
X9635573Y-16950708D02*
X9654621Y-16941184D01*
X9654621Y-16941184D02*
X9702240Y-16941184D01*
X9702240Y-16941184D02*
X9721288Y-16950708D01*
X9721288Y-16950708D02*
X9730811Y-16960231D01*
X9730811Y-16960231D02*
X9740335Y-16979279D01*
X9740335Y-16979279D02*
X9740335Y-16998327D01*
X9740335Y-16998327D02*
X9730811Y-17026898D01*
X9730811Y-17026898D02*
X9616526Y-17141184D01*
X9616526Y-17141184D02*
X9740335Y-17141184D01*
X9978431Y-17141184D02*
X9978431Y-16941184D01*
X10064145Y-17141184D02*
X10064145Y-17036422D01*
X10064145Y-17036422D02*
X10054621Y-17017374D01*
X10054621Y-17017374D02*
X10035573Y-17007850D01*
X10035573Y-17007850D02*
X10007002Y-17007850D01*
X10007002Y-17007850D02*
X9987954Y-17017374D01*
X9987954Y-17017374D02*
X9978431Y-17026898D01*
X10187954Y-17141184D02*
X10168907Y-17131660D01*
X10168907Y-17131660D02*
X10159383Y-17122136D01*
X10159383Y-17122136D02*
X10149859Y-17103089D01*
X10149859Y-17103089D02*
X10149859Y-17045946D01*
X10149859Y-17045946D02*
X10159383Y-17026898D01*
X10159383Y-17026898D02*
X10168907Y-17017374D01*
X10168907Y-17017374D02*
X10187954Y-17007850D01*
X10187954Y-17007850D02*
X10216526Y-17007850D01*
X10216526Y-17007850D02*
X10235573Y-17017374D01*
X10235573Y-17017374D02*
X10245097Y-17026898D01*
X10245097Y-17026898D02*
X10254621Y-17045946D01*
X10254621Y-17045946D02*
X10254621Y-17103089D01*
X10254621Y-17103089D02*
X10245097Y-17122136D01*
X10245097Y-17122136D02*
X10235573Y-17131660D01*
X10235573Y-17131660D02*
X10216526Y-17141184D01*
X10216526Y-17141184D02*
X10187954Y-17141184D01*
X10368907Y-17141184D02*
X10349859Y-17131660D01*
X10349859Y-17131660D02*
X10340335Y-17112612D01*
X10340335Y-17112612D02*
X10340335Y-16941184D01*
X10521288Y-17131660D02*
X10502240Y-17141184D01*
X10502240Y-17141184D02*
X10464145Y-17141184D01*
X10464145Y-17141184D02*
X10445097Y-17131660D01*
X10445097Y-17131660D02*
X10435573Y-17112612D01*
X10435573Y-17112612D02*
X10435573Y-17036422D01*
X10435573Y-17036422D02*
X10445097Y-17017374D01*
X10445097Y-17017374D02*
X10464145Y-17007850D01*
X10464145Y-17007850D02*
X10502240Y-17007850D01*
X10502240Y-17007850D02*
X10521288Y-17017374D01*
X10521288Y-17017374D02*
X10530812Y-17036422D01*
X10530812Y-17036422D02*
X10530812Y-17055470D01*
X10530812Y-17055470D02*
X10435573Y-17074517D01*
X10607002Y-17131660D02*
X10626050Y-17141184D01*
X10626050Y-17141184D02*
X10664145Y-17141184D01*
X10664145Y-17141184D02*
X10683193Y-17131660D01*
X10683193Y-17131660D02*
X10692716Y-17112612D01*
X10692716Y-17112612D02*
X10692716Y-17103089D01*
X10692716Y-17103089D02*
X10683193Y-17084041D01*
X10683193Y-17084041D02*
X10664145Y-17074517D01*
X10664145Y-17074517D02*
X10635573Y-17074517D01*
X10635573Y-17074517D02*
X10616526Y-17064993D01*
X10616526Y-17064993D02*
X10607002Y-17045946D01*
X10607002Y-17045946D02*
X10607002Y-17036422D01*
X10607002Y-17036422D02*
X10616526Y-17017374D01*
X10616526Y-17017374D02*
X10635573Y-17007850D01*
X10635573Y-17007850D02*
X10664145Y-17007850D01*
X10664145Y-17007850D02*
X10683193Y-17017374D01*
X10759383Y-17217374D02*
X10768907Y-17207850D01*
X10768907Y-17207850D02*
X10787954Y-17179279D01*
X10787954Y-17179279D02*
X10797478Y-17160231D01*
X10797478Y-17160231D02*
X10807002Y-17131660D01*
X10807002Y-17131660D02*
X10816526Y-17084041D01*
X10816526Y-17084041D02*
X10816526Y-17045946D01*
X10816526Y-17045946D02*
X10807002Y-16998327D01*
X10807002Y-16998327D02*
X10797478Y-16969755D01*
X10797478Y-16969755D02*
X10787954Y-16950708D01*
X10787954Y-16950708D02*
X10768907Y-16922136D01*
X10768907Y-16922136D02*
X10759383Y-16912612D01*
M02*
