<?xml version="1.0" encoding="utf-8"?>
<!-- Generator: Adobe Illustrator 26.5.0, SVG Export Plug-In . SVG Version: 6.00 Build 0)  -->
<svg version="1.1" id="Layer_1" xmlns="http://www.w3.org/2000/svg" xmlns:xlink="http://www.w3.org/1999/xlink" x="0px" y="0px"
	 viewBox="0 0 432 468.8" style="enable-background:new 0 0 432 468.8;" xml:space="preserve">
<style type="text/css">
	.st0{fill:none;stroke:#0000FF;stroke-width:7.200000e-02;stroke-miterlimit:11.3386;}
	.st1{fill:none;stroke:#000000;stroke-width:0.1875;stroke-miterlimit:11.3386;}
</style>
<path class="st0" d="M316.2,360.4H115.8l-0.9-0.1l-1-0.3l-0.9-0.4l-0.8-0.6l-0.7-0.7l-0.6-0.8l-0.4-0.9l-0.3-1l-0.1-0.9V105.4
	l0.1-0.9l0.3-1l0.4-0.9l0.6-0.8l0.7-0.7l0.8-0.6l0.9-0.4l1-0.3l0.9-0.1h200.5l0.9,0.1l1,0.3l0.9,0.4l0.8,0.6l0.7,0.7l0.6,0.8
	l0.4,0.9l0.3,1l0.1,0.9v65.4l-0.1,0.9l-0.3,1l-0.4,0.9l-0.6,0.8l-0.7,0.7l-0.8,0.6l-0.9,0.4l-1,0.3l-0.9,0.1h-22.1l-0.1,0l0,0.1
	v45.3l0,0.1l0.1,0h3.5l0.9,0.1l1,0.3l0.9,0.4l0.8,0.6l0.7,0.7l0.6,0.8l0.4,0.9l0.3,1l0.1,0.9v51.6l0,0.1l0.1,0h12.9l0.9,0.1l1,0.3
	l0.9,0.4l0.8,0.6l0.7,0.7l0.6,0.8l0.4,0.9l0.3,1l0.1,0.9v70.1l-0.1,0.9l-0.3,1l-0.4,0.9l-0.6,0.8l-0.7,0.7l-0.8,0.6l-0.9,0.4l-1,0.3
	L316.2,360.4z"/>
<path class="st1" d="M316.1,357.6H115.9l-0.5,0l-0.5-0.1l-0.4-0.2l-0.4-0.3l-0.3-0.3l-0.3-0.4l-0.2-0.4l-0.1-0.5l0-0.5V105.5l0-0.5
	l0.1-0.5l0.2-0.4l0.3-0.4l0.3-0.3l0.4-0.3l0.4-0.2l0.5-0.1l0.5,0h200.3l0.5,0l0.5,0.1l0.4,0.2l0.4,0.3l0.3,0.3l0.3,0.4l0.2,0.4
	l0.1,0.5l0,0.5v65.1l0,0.5l-0.1,0.5l-0.2,0.4l-0.3,0.4l-0.3,0.3l-0.4,0.3l-0.4,0.2l-0.5,0.1l-0.5,0h-22.1l-0.5,0l-0.5,0.1l-0.4,0.2
	l-0.4,0.3l-0.3,0.3l-0.3,0.4l-0.2,0.4l-0.1,0.5l0,0.5v45.6l0,0.5l0.1,0.5l0.2,0.4l0.3,0.4l0.3,0.3l0.4,0.3l0.4,0.2l0.5,0.1l0.5,0
	h3.5l0.5,0l0.5,0.1l0.4,0.2l0.4,0.3l0.3,0.3l0.3,0.4l0.2,0.4l0.1,0.5l0,0.5v51.6l0,0.5l0.1,0.5l0.2,0.4l0.3,0.4l0.3,0.3l0.4,0.3
	l0.4,0.2l0.5,0.1l0.5,0h12.9l0.5,0l0.5,0.1l0.4,0.2l0.4,0.3l0.3,0.3l0.3,0.4l0.2,0.4l0.1,0.5l0,0.5v69.9l0,0.5l-0.1,0.5l-0.2,0.4
	l-0.3,0.4l-0.3,0.3l-0.4,0.3l-0.4,0.2l-0.5,0.1L316.1,357.6z"/>
<rect x="41" y="30.7" class="st0" width="349.9" height="398.9"/>
</svg>
