G04 #@! TF.GenerationSoftware,KiCad,Pcbnew,7.0.8*
G04 #@! TF.CreationDate,2024-04-19T19:44:49-04:00*
G04 #@! TF.ProjectId,Aero_PDB,4165726f-5f50-4444-922e-6b696361645f,rev?*
G04 #@! TF.SameCoordinates,Original*
G04 #@! TF.FileFunction,Copper,L2,Bot*
G04 #@! TF.FilePolarity,Positive*
%FSLAX46Y46*%
G04 Gerber Fmt 4.6, Leading zero omitted, Abs format (unit mm)*
G04 Created by KiCad (PCBNEW 7.0.8) date 2024-04-19 19:44:49*
%MOMM*%
%LPD*%
G01*
G04 APERTURE LIST*
G04 Aperture macros list*
%AMRoundRect*
0 Rectangle with rounded corners*
0 $1 Rounding radius*
0 $2 $3 $4 $5 $6 $7 $8 $9 X,Y pos of 4 corners*
0 Add a 4 corners polygon primitive as box body*
4,1,4,$2,$3,$4,$5,$6,$7,$8,$9,$2,$3,0*
0 Add four circle primitives for the rounded corners*
1,1,$1+$1,$2,$3*
1,1,$1+$1,$4,$5*
1,1,$1+$1,$6,$7*
1,1,$1+$1,$8,$9*
0 Add four rect primitives between the rounded corners*
20,1,$1+$1,$2,$3,$4,$5,0*
20,1,$1+$1,$4,$5,$6,$7,0*
20,1,$1+$1,$6,$7,$8,$9,0*
20,1,$1+$1,$8,$9,$2,$3,0*%
G04 Aperture macros list end*
G04 #@! TA.AperFunction,ComponentPad*
%ADD10R,2.540000X2.540000*%
G04 #@! TD*
G04 #@! TA.AperFunction,ComponentPad*
%ADD11C,2.540000*%
G04 #@! TD*
G04 #@! TA.AperFunction,ComponentPad*
%ADD12R,1.700000X1.700000*%
G04 #@! TD*
G04 #@! TA.AperFunction,ComponentPad*
%ADD13O,1.700000X1.700000*%
G04 #@! TD*
G04 #@! TA.AperFunction,ComponentPad*
%ADD14R,5.000000X3.500000*%
G04 #@! TD*
G04 #@! TA.AperFunction,ComponentPad*
%ADD15O,4.400000X2.200000*%
G04 #@! TD*
G04 #@! TA.AperFunction,ComponentPad*
%ADD16O,4.000000X2.000000*%
G04 #@! TD*
G04 #@! TA.AperFunction,ComponentPad*
%ADD17O,2.000000X4.000000*%
G04 #@! TD*
G04 #@! TA.AperFunction,ComponentPad*
%ADD18R,1.428000X1.428000*%
G04 #@! TD*
G04 #@! TA.AperFunction,ComponentPad*
%ADD19C,1.428000*%
G04 #@! TD*
G04 #@! TA.AperFunction,ComponentPad*
%ADD20C,3.276000*%
G04 #@! TD*
G04 #@! TA.AperFunction,ComponentPad*
%ADD21RoundRect,0.250000X0.750000X-0.600000X0.750000X0.600000X-0.750000X0.600000X-0.750000X-0.600000X0*%
G04 #@! TD*
G04 #@! TA.AperFunction,ComponentPad*
%ADD22O,2.000000X1.700000*%
G04 #@! TD*
G04 #@! TA.AperFunction,ComponentPad*
%ADD23R,1.370000X1.370000*%
G04 #@! TD*
G04 #@! TA.AperFunction,ComponentPad*
%ADD24C,1.370000*%
G04 #@! TD*
G04 #@! TA.AperFunction,ComponentPad*
%ADD25RoundRect,0.250000X0.725000X-0.600000X0.725000X0.600000X-0.725000X0.600000X-0.725000X-0.600000X0*%
G04 #@! TD*
G04 #@! TA.AperFunction,ComponentPad*
%ADD26O,1.950000X1.700000*%
G04 #@! TD*
G04 #@! TA.AperFunction,ComponentPad*
%ADD27C,3.716000*%
G04 #@! TD*
G04 #@! TA.AperFunction,ComponentPad*
%ADD28O,2.600000X1.300000*%
G04 #@! TD*
G04 #@! TA.AperFunction,ViaPad*
%ADD29C,0.900000*%
G04 #@! TD*
G04 #@! TA.AperFunction,Conductor*
%ADD30C,0.450000*%
G04 #@! TD*
G04 APERTURE END LIST*
D10*
X62230000Y-99796600D03*
D11*
X62230000Y-117576600D03*
X102870000Y-117576600D03*
X102870000Y-99796600D03*
D12*
X124333000Y-97002600D03*
D13*
X124333000Y-99542600D03*
X124333000Y-102082600D03*
X124333000Y-104622600D03*
X124333000Y-107162600D03*
X124333000Y-109702600D03*
X124333000Y-112242600D03*
X124333000Y-114782600D03*
D14*
X68961000Y-134086600D03*
X68961000Y-127636600D03*
X99961000Y-127636600D03*
X99961000Y-134136600D03*
D10*
X72009000Y-54914800D03*
D11*
X72009000Y-72694800D03*
X112649000Y-72694800D03*
X112649000Y-54914800D03*
D15*
X109789200Y-128274500D03*
D16*
X109789200Y-134574500D03*
D17*
X114589200Y-131174500D03*
D18*
X127230700Y-135309700D03*
D19*
X127230700Y-132809700D03*
X127230700Y-130809700D03*
X127230700Y-128309700D03*
D20*
X129940700Y-138379700D03*
X129940700Y-125239700D03*
D12*
X116662200Y-90424000D03*
D13*
X116662200Y-87884000D03*
X116662200Y-85344000D03*
X116662200Y-82804000D03*
D21*
X111709200Y-114300000D03*
D22*
X111709200Y-111800000D03*
D12*
X124333000Y-117322600D03*
D13*
X126873000Y-117322600D03*
X129413000Y-117322600D03*
D12*
X105867200Y-121666000D03*
D13*
X108407200Y-121666000D03*
X110947200Y-121666000D03*
D12*
X116662200Y-105410000D03*
D13*
X116662200Y-102870000D03*
X116662200Y-100330000D03*
X116662200Y-97790000D03*
D23*
X130632200Y-72009000D03*
D24*
X128092200Y-72009000D03*
X125552200Y-72009000D03*
X130632200Y-69469000D03*
X128092200Y-69469000D03*
X125552200Y-69469000D03*
X130632200Y-66929000D03*
X128092200Y-66929000D03*
X125552200Y-66929000D03*
X130632200Y-64389000D03*
X128092200Y-64389000D03*
X125552200Y-64389000D03*
X130632200Y-61849000D03*
X128092200Y-61849000D03*
X125552200Y-61849000D03*
X130632200Y-59309000D03*
X128092200Y-59309000D03*
X125552200Y-59309000D03*
X130632200Y-56769000D03*
X128092200Y-56769000D03*
X125552200Y-56769000D03*
X130632200Y-54229000D03*
X128092200Y-54229000D03*
X125552200Y-54229000D03*
D10*
X62230000Y-77393800D03*
D11*
X62230000Y-95173800D03*
X102870000Y-95173800D03*
X102870000Y-77393800D03*
D25*
X110921800Y-105359200D03*
D26*
X110921800Y-102859200D03*
X110921800Y-100359200D03*
X110921800Y-97859200D03*
D25*
X110820200Y-90119200D03*
D26*
X110820200Y-87619200D03*
X110820200Y-85119200D03*
X110820200Y-82619200D03*
D12*
X124337072Y-119888000D03*
D13*
X126877072Y-119888000D03*
X129417072Y-119888000D03*
D27*
X67843400Y-57062000D03*
X67843400Y-64262000D03*
D28*
X61843400Y-67412000D03*
X61843400Y-53912000D03*
D10*
X65684400Y-95173800D03*
D11*
X65684400Y-77393800D03*
X106324400Y-77393800D03*
X106324400Y-95173800D03*
D10*
X65684400Y-117576600D03*
D11*
X65684400Y-99796600D03*
X106324400Y-99796600D03*
X106324400Y-117576600D03*
D10*
X76809600Y-72694800D03*
D11*
X76809600Y-54914800D03*
X117449600Y-54914800D03*
X117449600Y-72694800D03*
D10*
X62230000Y-139979400D03*
D11*
X62230000Y-122199400D03*
X102870000Y-122199400D03*
X102870000Y-139979400D03*
D29*
X125614800Y-74015600D03*
X116789200Y-75565000D03*
X123595600Y-63127583D03*
X120476400Y-63119000D03*
X122585123Y-59546650D03*
X120475523Y-59538374D03*
X125927500Y-127821900D03*
X124380640Y-130130760D03*
X125117240Y-128581360D03*
D30*
X116789200Y-75565000D02*
X119380000Y-75565000D01*
X120929400Y-74015600D02*
X125614800Y-74015600D01*
X119380000Y-75565000D02*
X120929400Y-74015600D01*
X123587017Y-63119000D02*
X120476400Y-63119000D01*
X123595600Y-63127583D02*
X123587017Y-63119000D01*
X120475523Y-59538374D02*
X120483799Y-59546650D01*
X120483799Y-59546650D02*
X122585123Y-59546650D01*
G04 #@! TA.AperFunction,Conductor*
G36*
X130163518Y-69683040D02*
G01*
X130242805Y-69806413D01*
X130353638Y-69902451D01*
X130487039Y-69963373D01*
X130490833Y-69963918D01*
X129989767Y-70464984D01*
X129989768Y-70464985D01*
X130101733Y-70534311D01*
X130101739Y-70534314D01*
X130230957Y-70584373D01*
X130286358Y-70626946D01*
X130309949Y-70692713D01*
X130294238Y-70760793D01*
X130244214Y-70809572D01*
X130186163Y-70824000D01*
X129899355Y-70824000D01*
X129839827Y-70830401D01*
X129839820Y-70830403D01*
X129705113Y-70880645D01*
X129705106Y-70880649D01*
X129590012Y-70966809D01*
X129590009Y-70966812D01*
X129503849Y-71081906D01*
X129503845Y-71081913D01*
X129453603Y-71216620D01*
X129453601Y-71216627D01*
X129447200Y-71276155D01*
X129447200Y-71550430D01*
X129427515Y-71617469D01*
X129374711Y-71663224D01*
X129305553Y-71673168D01*
X129241997Y-71644143D01*
X129204223Y-71585365D01*
X129203934Y-71584366D01*
X129202382Y-71578913D01*
X129202381Y-71578911D01*
X129156702Y-71487175D01*
X129104451Y-71382241D01*
X129024338Y-71276155D01*
X128972046Y-71206909D01*
X128809685Y-71058898D01*
X128809684Y-71058897D01*
X128622887Y-70943237D01*
X128622885Y-70943236D01*
X128418020Y-70863872D01*
X128418019Y-70863871D01*
X128418017Y-70863871D01*
X128402058Y-70860887D01*
X128339780Y-70829221D01*
X128304507Y-70768909D01*
X128307441Y-70699101D01*
X128347649Y-70641960D01*
X128402058Y-70617112D01*
X128418017Y-70614129D01*
X128622887Y-70534763D01*
X128809684Y-70419103D01*
X128972048Y-70271088D01*
X129104451Y-70095759D01*
X129202382Y-69899087D01*
X129243194Y-69755645D01*
X129280471Y-69696555D01*
X129343780Y-69666997D01*
X129413020Y-69676358D01*
X129466207Y-69721668D01*
X129481725Y-69755647D01*
X129522485Y-69898902D01*
X129522490Y-69898915D01*
X129620372Y-70095489D01*
X129620377Y-70095497D01*
X129634046Y-70113597D01*
X129634047Y-70113598D01*
X130141066Y-69606579D01*
X130163518Y-69683040D01*
G37*
G04 #@! TD.AperFunction*
G04 #@! TA.AperFunction,Conductor*
G36*
X130163518Y-67143040D02*
G01*
X130242805Y-67266413D01*
X130353638Y-67362451D01*
X130487039Y-67423373D01*
X130490833Y-67423918D01*
X129989767Y-67924984D01*
X129989768Y-67924985D01*
X130101733Y-67994311D01*
X130101739Y-67994314D01*
X130306522Y-68073646D01*
X130325054Y-68077111D01*
X130387335Y-68108779D01*
X130422608Y-68169092D01*
X130419674Y-68238900D01*
X130379465Y-68296040D01*
X130325054Y-68320889D01*
X130306522Y-68324353D01*
X130306521Y-68324353D01*
X130101740Y-68403685D01*
X129989767Y-68473014D01*
X130490834Y-68974081D01*
X130487039Y-68974627D01*
X130353638Y-69035549D01*
X130242805Y-69131587D01*
X130163518Y-69254960D01*
X130141066Y-69331420D01*
X129634047Y-68824401D01*
X129634046Y-68824401D01*
X129620376Y-68842503D01*
X129522490Y-69039084D01*
X129522485Y-69039097D01*
X129481725Y-69182352D01*
X129444445Y-69241445D01*
X129381135Y-69271002D01*
X129311896Y-69261640D01*
X129258710Y-69216330D01*
X129243194Y-69182356D01*
X129202382Y-69038913D01*
X129202380Y-69038909D01*
X129153820Y-68941388D01*
X129104451Y-68842241D01*
X128972048Y-68666912D01*
X128972046Y-68666909D01*
X128809685Y-68518898D01*
X128809684Y-68518897D01*
X128622887Y-68403237D01*
X128622885Y-68403236D01*
X128418020Y-68323872D01*
X128418019Y-68323871D01*
X128418017Y-68323871D01*
X128402058Y-68320887D01*
X128339780Y-68289221D01*
X128304507Y-68228909D01*
X128307441Y-68159101D01*
X128347649Y-68101960D01*
X128402058Y-68077112D01*
X128418017Y-68074129D01*
X128622887Y-67994763D01*
X128809684Y-67879103D01*
X128972048Y-67731088D01*
X129104451Y-67555759D01*
X129202382Y-67359087D01*
X129243194Y-67215645D01*
X129280471Y-67156555D01*
X129343780Y-67126997D01*
X129413020Y-67136358D01*
X129466207Y-67181668D01*
X129481725Y-67215647D01*
X129522485Y-67358902D01*
X129522490Y-67358915D01*
X129620372Y-67555489D01*
X129620377Y-67555497D01*
X129634046Y-67573597D01*
X129634047Y-67573598D01*
X130141066Y-67066579D01*
X130163518Y-67143040D01*
G37*
G04 #@! TD.AperFunction*
G04 #@! TA.AperFunction,Conductor*
G36*
X130163518Y-64603040D02*
G01*
X130242805Y-64726413D01*
X130353638Y-64822451D01*
X130487039Y-64883373D01*
X130490833Y-64883918D01*
X129989767Y-65384984D01*
X129989768Y-65384985D01*
X130101733Y-65454311D01*
X130101739Y-65454314D01*
X130306522Y-65533646D01*
X130325054Y-65537111D01*
X130387335Y-65568779D01*
X130422608Y-65629092D01*
X130419674Y-65698900D01*
X130379465Y-65756040D01*
X130325054Y-65780889D01*
X130306522Y-65784353D01*
X130306521Y-65784353D01*
X130101740Y-65863685D01*
X129989767Y-65933014D01*
X130490834Y-66434081D01*
X130487039Y-66434627D01*
X130353638Y-66495549D01*
X130242805Y-66591587D01*
X130163518Y-66714960D01*
X130141066Y-66791420D01*
X129634047Y-66284401D01*
X129634046Y-66284401D01*
X129620376Y-66302503D01*
X129522490Y-66499084D01*
X129522485Y-66499097D01*
X129481725Y-66642352D01*
X129444445Y-66701445D01*
X129381135Y-66731002D01*
X129311896Y-66721640D01*
X129258710Y-66676330D01*
X129243194Y-66642356D01*
X129202382Y-66498913D01*
X129202380Y-66498909D01*
X129153820Y-66401388D01*
X129104451Y-66302241D01*
X128972048Y-66126912D01*
X128972046Y-66126909D01*
X128809685Y-65978898D01*
X128809684Y-65978897D01*
X128622887Y-65863237D01*
X128622885Y-65863236D01*
X128418020Y-65783872D01*
X128418019Y-65783871D01*
X128418017Y-65783871D01*
X128402058Y-65780887D01*
X128339780Y-65749221D01*
X128304507Y-65688909D01*
X128307441Y-65619101D01*
X128347649Y-65561960D01*
X128402058Y-65537112D01*
X128418017Y-65534129D01*
X128622887Y-65454763D01*
X128809684Y-65339103D01*
X128972048Y-65191088D01*
X129104451Y-65015759D01*
X129202382Y-64819087D01*
X129243194Y-64675645D01*
X129280471Y-64616555D01*
X129343780Y-64586997D01*
X129413020Y-64596358D01*
X129466207Y-64641668D01*
X129481725Y-64675647D01*
X129522485Y-64818902D01*
X129522490Y-64818915D01*
X129620372Y-65015489D01*
X129620377Y-65015497D01*
X129634046Y-65033597D01*
X129634047Y-65033598D01*
X130141066Y-64526579D01*
X130163518Y-64603040D01*
G37*
G04 #@! TD.AperFunction*
G04 #@! TA.AperFunction,Conductor*
G36*
X130163518Y-62063040D02*
G01*
X130242805Y-62186413D01*
X130353638Y-62282451D01*
X130487039Y-62343373D01*
X130490833Y-62343918D01*
X129989767Y-62844984D01*
X129989768Y-62844985D01*
X130101733Y-62914311D01*
X130101739Y-62914314D01*
X130306522Y-62993646D01*
X130325054Y-62997111D01*
X130387335Y-63028779D01*
X130422608Y-63089092D01*
X130419674Y-63158900D01*
X130379465Y-63216040D01*
X130325054Y-63240889D01*
X130306522Y-63244353D01*
X130306521Y-63244353D01*
X130101740Y-63323685D01*
X129989767Y-63393014D01*
X130490834Y-63894081D01*
X130487039Y-63894627D01*
X130353638Y-63955549D01*
X130242805Y-64051587D01*
X130163518Y-64174960D01*
X130141066Y-64251420D01*
X129634047Y-63744401D01*
X129634046Y-63744401D01*
X129620376Y-63762503D01*
X129522490Y-63959084D01*
X129522485Y-63959097D01*
X129481725Y-64102352D01*
X129444445Y-64161445D01*
X129381135Y-64191002D01*
X129311896Y-64181640D01*
X129258710Y-64136330D01*
X129243194Y-64102356D01*
X129202382Y-63958913D01*
X129202380Y-63958909D01*
X129127341Y-63808211D01*
X129104451Y-63762241D01*
X129019405Y-63649623D01*
X128972046Y-63586909D01*
X128809685Y-63438898D01*
X128809684Y-63438897D01*
X128622887Y-63323237D01*
X128622885Y-63323236D01*
X128418020Y-63243872D01*
X128418019Y-63243871D01*
X128418017Y-63243871D01*
X128402058Y-63240887D01*
X128339780Y-63209221D01*
X128304507Y-63148909D01*
X128307441Y-63079101D01*
X128347649Y-63021960D01*
X128402058Y-62997112D01*
X128418017Y-62994129D01*
X128622887Y-62914763D01*
X128809684Y-62799103D01*
X128972048Y-62651088D01*
X129104451Y-62475759D01*
X129202382Y-62279087D01*
X129243194Y-62135645D01*
X129280471Y-62076555D01*
X129343780Y-62046997D01*
X129413020Y-62056358D01*
X129466207Y-62101668D01*
X129481725Y-62135647D01*
X129522485Y-62278902D01*
X129522490Y-62278915D01*
X129620372Y-62475489D01*
X129620377Y-62475497D01*
X129634046Y-62493597D01*
X129634047Y-62493598D01*
X130141066Y-61986579D01*
X130163518Y-62063040D01*
G37*
G04 #@! TD.AperFunction*
G04 #@! TA.AperFunction,Conductor*
G36*
X130163518Y-59523040D02*
G01*
X130242805Y-59646413D01*
X130353638Y-59742451D01*
X130487039Y-59803373D01*
X130490833Y-59803918D01*
X129989767Y-60304984D01*
X129989768Y-60304985D01*
X130101733Y-60374311D01*
X130101739Y-60374314D01*
X130306522Y-60453646D01*
X130325054Y-60457111D01*
X130387335Y-60488779D01*
X130422608Y-60549092D01*
X130419674Y-60618900D01*
X130379465Y-60676040D01*
X130325054Y-60700889D01*
X130306522Y-60704353D01*
X130306521Y-60704353D01*
X130101740Y-60783685D01*
X129989767Y-60853014D01*
X130490834Y-61354081D01*
X130487039Y-61354627D01*
X130353638Y-61415549D01*
X130242805Y-61511587D01*
X130163518Y-61634960D01*
X130141066Y-61711420D01*
X129634047Y-61204401D01*
X129634046Y-61204401D01*
X129620376Y-61222503D01*
X129522490Y-61419084D01*
X129522485Y-61419097D01*
X129481725Y-61562352D01*
X129444445Y-61621445D01*
X129381135Y-61651002D01*
X129311896Y-61641640D01*
X129258710Y-61596330D01*
X129243194Y-61562356D01*
X129202382Y-61418913D01*
X129202380Y-61418909D01*
X129153820Y-61321388D01*
X129104451Y-61222241D01*
X128972048Y-61046912D01*
X128972046Y-61046909D01*
X128809685Y-60898898D01*
X128809684Y-60898897D01*
X128622887Y-60783237D01*
X128622885Y-60783236D01*
X128418020Y-60703872D01*
X128418019Y-60703871D01*
X128418017Y-60703871D01*
X128402058Y-60700887D01*
X128339780Y-60669221D01*
X128304507Y-60608909D01*
X128307441Y-60539101D01*
X128347649Y-60481960D01*
X128402058Y-60457112D01*
X128418017Y-60454129D01*
X128622887Y-60374763D01*
X128809684Y-60259103D01*
X128972048Y-60111088D01*
X129104451Y-59935759D01*
X129202382Y-59739087D01*
X129243194Y-59595645D01*
X129280471Y-59536555D01*
X129343780Y-59506997D01*
X129413020Y-59516358D01*
X129466207Y-59561668D01*
X129481725Y-59595647D01*
X129522485Y-59738902D01*
X129522490Y-59738915D01*
X129620372Y-59935489D01*
X129620377Y-59935497D01*
X129634046Y-59953597D01*
X129634047Y-59953598D01*
X130141066Y-59446579D01*
X130163518Y-59523040D01*
G37*
G04 #@! TD.AperFunction*
G04 #@! TA.AperFunction,Conductor*
G36*
X130163518Y-56983040D02*
G01*
X130242805Y-57106413D01*
X130353638Y-57202451D01*
X130487039Y-57263373D01*
X130490833Y-57263918D01*
X129989767Y-57764984D01*
X129989768Y-57764985D01*
X130101733Y-57834311D01*
X130101739Y-57834314D01*
X130306522Y-57913646D01*
X130325054Y-57917111D01*
X130387335Y-57948779D01*
X130422608Y-58009092D01*
X130419674Y-58078900D01*
X130379465Y-58136040D01*
X130325054Y-58160889D01*
X130306522Y-58164353D01*
X130306521Y-58164353D01*
X130101740Y-58243685D01*
X129989767Y-58313014D01*
X130490834Y-58814081D01*
X130487039Y-58814627D01*
X130353638Y-58875549D01*
X130242805Y-58971587D01*
X130163518Y-59094960D01*
X130141066Y-59171420D01*
X129634047Y-58664401D01*
X129634046Y-58664401D01*
X129620376Y-58682503D01*
X129522490Y-58879084D01*
X129522485Y-58879097D01*
X129481725Y-59022352D01*
X129444445Y-59081445D01*
X129381135Y-59111002D01*
X129311896Y-59101640D01*
X129258710Y-59056330D01*
X129243194Y-59022356D01*
X129202382Y-58878913D01*
X129202380Y-58878909D01*
X129135321Y-58744236D01*
X129104451Y-58682241D01*
X128972048Y-58506912D01*
X128972046Y-58506909D01*
X128809685Y-58358898D01*
X128809684Y-58358897D01*
X128622887Y-58243237D01*
X128622885Y-58243236D01*
X128418020Y-58163872D01*
X128418019Y-58163871D01*
X128418017Y-58163871D01*
X128402058Y-58160887D01*
X128339780Y-58129221D01*
X128304507Y-58068909D01*
X128307441Y-57999101D01*
X128347649Y-57941960D01*
X128402058Y-57917112D01*
X128418017Y-57914129D01*
X128622887Y-57834763D01*
X128809684Y-57719103D01*
X128972048Y-57571088D01*
X129104451Y-57395759D01*
X129202382Y-57199087D01*
X129243194Y-57055645D01*
X129280471Y-56996555D01*
X129343780Y-56966997D01*
X129413020Y-56976358D01*
X129466207Y-57021668D01*
X129481725Y-57055647D01*
X129522485Y-57198902D01*
X129522490Y-57198915D01*
X129620372Y-57395489D01*
X129620377Y-57395497D01*
X129634046Y-57413597D01*
X129634047Y-57413598D01*
X130141066Y-56906579D01*
X130163518Y-56983040D01*
G37*
G04 #@! TD.AperFunction*
G04 #@! TA.AperFunction,Conductor*
G36*
X130163518Y-54443040D02*
G01*
X130242805Y-54566413D01*
X130353638Y-54662451D01*
X130487039Y-54723373D01*
X130490833Y-54723918D01*
X129989767Y-55224984D01*
X129989768Y-55224985D01*
X130101733Y-55294311D01*
X130101739Y-55294314D01*
X130306522Y-55373646D01*
X130325054Y-55377111D01*
X130387335Y-55408779D01*
X130422608Y-55469092D01*
X130419674Y-55538900D01*
X130379465Y-55596040D01*
X130325054Y-55620889D01*
X130306522Y-55624353D01*
X130306521Y-55624353D01*
X130101740Y-55703685D01*
X129989767Y-55773014D01*
X130490834Y-56274081D01*
X130487039Y-56274627D01*
X130353638Y-56335549D01*
X130242805Y-56431587D01*
X130163518Y-56554960D01*
X130141066Y-56631420D01*
X129634047Y-56124401D01*
X129634046Y-56124401D01*
X129620376Y-56142503D01*
X129522490Y-56339084D01*
X129522485Y-56339097D01*
X129481725Y-56482352D01*
X129444445Y-56541445D01*
X129381135Y-56571002D01*
X129311896Y-56561640D01*
X129258710Y-56516330D01*
X129243194Y-56482356D01*
X129202382Y-56338913D01*
X129202380Y-56338909D01*
X129153820Y-56241388D01*
X129104451Y-56142241D01*
X128972048Y-55966912D01*
X128972046Y-55966909D01*
X128809685Y-55818898D01*
X128809684Y-55818897D01*
X128622887Y-55703237D01*
X128622885Y-55703236D01*
X128418020Y-55623872D01*
X128418019Y-55623871D01*
X128418017Y-55623871D01*
X128402058Y-55620887D01*
X128339780Y-55589221D01*
X128304507Y-55528909D01*
X128307441Y-55459101D01*
X128347649Y-55401960D01*
X128402058Y-55377112D01*
X128418017Y-55374129D01*
X128622887Y-55294763D01*
X128809684Y-55179103D01*
X128972048Y-55031088D01*
X129104451Y-54855759D01*
X129202382Y-54659087D01*
X129243194Y-54515645D01*
X129280471Y-54456555D01*
X129343780Y-54426997D01*
X129413020Y-54436358D01*
X129466207Y-54481668D01*
X129481725Y-54515647D01*
X129522485Y-54658902D01*
X129522490Y-54658915D01*
X129620372Y-54855489D01*
X129620377Y-54855497D01*
X129634046Y-54873597D01*
X129634047Y-54873598D01*
X130141066Y-54366579D01*
X130163518Y-54443040D01*
G37*
G04 #@! TD.AperFunction*
G04 #@! TA.AperFunction,Conductor*
G36*
X131540231Y-52751799D02*
G01*
X131588147Y-52756517D01*
X131661517Y-52763744D01*
X131685345Y-52768483D01*
X131793205Y-52801202D01*
X131815653Y-52810501D01*
X131915049Y-52863629D01*
X131935259Y-52877133D01*
X132022379Y-52948630D01*
X132039569Y-52965820D01*
X132111066Y-53052940D01*
X132124570Y-53073150D01*
X132177695Y-53172538D01*
X132186998Y-53194997D01*
X132219714Y-53302848D01*
X132224456Y-53326688D01*
X132236401Y-53447967D01*
X132236700Y-53454048D01*
X132236700Y-76416151D01*
X132236401Y-76422232D01*
X132224456Y-76543511D01*
X132219714Y-76567351D01*
X132186998Y-76675202D01*
X132177695Y-76697661D01*
X132124570Y-76797049D01*
X132111066Y-76817259D01*
X132039569Y-76904379D01*
X132022379Y-76921569D01*
X131935259Y-76993066D01*
X131915049Y-77006570D01*
X131815661Y-77059695D01*
X131793202Y-77068998D01*
X131685351Y-77101714D01*
X131661511Y-77106456D01*
X131540232Y-77118401D01*
X131534151Y-77118700D01*
X123805795Y-77118700D01*
X123758200Y-77118700D01*
X123655848Y-77118700D01*
X123631529Y-77122551D01*
X123453665Y-77150722D01*
X123258976Y-77213981D01*
X123076586Y-77306915D01*
X122910986Y-77427228D01*
X122766228Y-77571986D01*
X122645915Y-77737586D01*
X122552981Y-77919976D01*
X122489722Y-78114665D01*
X122457700Y-78316848D01*
X122457700Y-94606351D01*
X122489722Y-94808534D01*
X122552981Y-95003223D01*
X122594962Y-95085613D01*
X122639895Y-95173800D01*
X122645915Y-95185613D01*
X122766228Y-95351213D01*
X122910986Y-95495971D01*
X123076584Y-95616284D01*
X123076590Y-95616287D01*
X123077583Y-95616792D01*
X123077894Y-95617087D01*
X123080742Y-95618832D01*
X123080375Y-95619430D01*
X123128381Y-95664764D01*
X123145180Y-95732584D01*
X123122645Y-95798720D01*
X123120560Y-95801591D01*
X123039204Y-95910268D01*
X123039202Y-95910271D01*
X122988908Y-96045117D01*
X122982501Y-96104716D01*
X122982500Y-96104735D01*
X122982500Y-97900470D01*
X122982501Y-97900476D01*
X122988908Y-97960083D01*
X123039202Y-98094928D01*
X123039206Y-98094935D01*
X123125452Y-98210144D01*
X123125455Y-98210147D01*
X123240664Y-98296393D01*
X123240671Y-98296397D01*
X123372081Y-98345410D01*
X123428015Y-98387281D01*
X123452432Y-98452745D01*
X123437580Y-98521018D01*
X123416430Y-98549273D01*
X123294503Y-98671200D01*
X123158965Y-98864769D01*
X123158964Y-98864771D01*
X123059098Y-99078935D01*
X123059094Y-99078944D01*
X122997938Y-99307186D01*
X122997936Y-99307196D01*
X122977341Y-99542599D01*
X122977341Y-99542600D01*
X122997936Y-99778003D01*
X122997938Y-99778013D01*
X123059094Y-100006255D01*
X123059096Y-100006259D01*
X123059097Y-100006263D01*
X123126194Y-100150153D01*
X123158965Y-100220430D01*
X123158967Y-100220434D01*
X123228637Y-100319932D01*
X123294501Y-100413996D01*
X123294506Y-100414002D01*
X123461597Y-100581093D01*
X123461603Y-100581098D01*
X123647158Y-100711025D01*
X123690783Y-100765602D01*
X123697977Y-100835100D01*
X123666454Y-100897455D01*
X123647158Y-100914175D01*
X123461597Y-101044105D01*
X123294505Y-101211197D01*
X123158965Y-101404769D01*
X123158964Y-101404771D01*
X123059098Y-101618935D01*
X123059094Y-101618944D01*
X122997938Y-101847186D01*
X122997936Y-101847196D01*
X122977341Y-102082599D01*
X122977341Y-102082600D01*
X122997936Y-102318003D01*
X122997938Y-102318013D01*
X123059094Y-102546255D01*
X123059096Y-102546259D01*
X123059097Y-102546263D01*
X123158965Y-102760430D01*
X123158967Y-102760434D01*
X123235686Y-102869999D01*
X123294501Y-102953996D01*
X123294506Y-102954002D01*
X123461597Y-103121093D01*
X123461603Y-103121098D01*
X123647158Y-103251025D01*
X123690783Y-103305602D01*
X123697977Y-103375100D01*
X123666454Y-103437455D01*
X123647158Y-103454175D01*
X123461597Y-103584105D01*
X123294505Y-103751197D01*
X123158965Y-103944769D01*
X123158964Y-103944771D01*
X123059098Y-104158935D01*
X123059094Y-104158944D01*
X122997938Y-104387186D01*
X122997936Y-104387196D01*
X122977341Y-104622599D01*
X122977341Y-104622600D01*
X122997936Y-104858003D01*
X122997938Y-104858013D01*
X123059094Y-105086255D01*
X123059096Y-105086259D01*
X123059097Y-105086263D01*
X123158965Y-105300430D01*
X123158967Y-105300434D01*
X123236736Y-105411499D01*
X123294501Y-105493996D01*
X123294506Y-105494002D01*
X123461597Y-105661093D01*
X123461603Y-105661098D01*
X123647158Y-105791025D01*
X123690783Y-105845602D01*
X123697977Y-105915100D01*
X123666454Y-105977455D01*
X123647158Y-105994175D01*
X123461597Y-106124105D01*
X123294505Y-106291197D01*
X123158965Y-106484769D01*
X123158964Y-106484771D01*
X123059098Y-106698935D01*
X123059094Y-106698944D01*
X122997938Y-106927186D01*
X122997936Y-106927196D01*
X122977341Y-107162599D01*
X122977341Y-107162600D01*
X122997936Y-107398003D01*
X122997938Y-107398013D01*
X123059094Y-107626255D01*
X123059096Y-107626259D01*
X123059097Y-107626263D01*
X123158965Y-107840430D01*
X123158967Y-107840434D01*
X123236736Y-107951499D01*
X123294501Y-108033996D01*
X123294506Y-108034002D01*
X123461597Y-108201093D01*
X123461603Y-108201098D01*
X123647158Y-108331025D01*
X123690783Y-108385602D01*
X123697977Y-108455100D01*
X123666454Y-108517455D01*
X123647158Y-108534175D01*
X123461597Y-108664105D01*
X123294505Y-108831197D01*
X123158965Y-109024769D01*
X123158964Y-109024771D01*
X123059098Y-109238935D01*
X123059094Y-109238944D01*
X122997938Y-109467186D01*
X122997936Y-109467196D01*
X122977341Y-109702599D01*
X122977341Y-109702600D01*
X122997936Y-109938003D01*
X122997938Y-109938013D01*
X123059094Y-110166255D01*
X123059096Y-110166259D01*
X123059097Y-110166263D01*
X123158965Y-110380430D01*
X123158967Y-110380434D01*
X123218484Y-110465432D01*
X123294501Y-110573996D01*
X123294506Y-110574002D01*
X123461597Y-110741093D01*
X123461603Y-110741098D01*
X123647158Y-110871025D01*
X123690783Y-110925602D01*
X123697977Y-110995100D01*
X123666454Y-111057455D01*
X123647158Y-111074175D01*
X123461597Y-111204105D01*
X123294505Y-111371197D01*
X123158965Y-111564769D01*
X123158964Y-111564771D01*
X123059098Y-111778935D01*
X123059094Y-111778944D01*
X122997938Y-112007186D01*
X122997936Y-112007196D01*
X122977341Y-112242599D01*
X122977341Y-112242600D01*
X122997936Y-112478003D01*
X122997938Y-112478013D01*
X123059094Y-112706255D01*
X123059096Y-112706259D01*
X123059097Y-112706263D01*
X123115192Y-112826558D01*
X123158965Y-112920430D01*
X123158967Y-112920434D01*
X123225314Y-113015186D01*
X123294501Y-113113996D01*
X123294506Y-113114002D01*
X123461597Y-113281093D01*
X123461603Y-113281098D01*
X123647158Y-113411025D01*
X123690783Y-113465602D01*
X123697977Y-113535100D01*
X123666454Y-113597455D01*
X123647158Y-113614175D01*
X123461597Y-113744105D01*
X123294505Y-113911197D01*
X123158965Y-114104769D01*
X123158964Y-114104771D01*
X123059098Y-114318935D01*
X123059094Y-114318944D01*
X122997938Y-114547186D01*
X122997936Y-114547196D01*
X122977341Y-114782599D01*
X122977341Y-114782600D01*
X122997936Y-115018003D01*
X122997938Y-115018013D01*
X123059094Y-115246255D01*
X123059096Y-115246259D01*
X123059097Y-115246263D01*
X123140998Y-115421900D01*
X123158965Y-115460430D01*
X123158967Y-115460434D01*
X123235416Y-115569613D01*
X123294501Y-115653996D01*
X123294506Y-115654002D01*
X123416430Y-115775926D01*
X123449915Y-115837249D01*
X123444931Y-115906941D01*
X123403059Y-115962874D01*
X123372083Y-115979789D01*
X123240669Y-116028803D01*
X123240664Y-116028806D01*
X123125455Y-116115052D01*
X123125452Y-116115055D01*
X123039206Y-116230264D01*
X123039202Y-116230271D01*
X122988908Y-116365117D01*
X122982501Y-116424716D01*
X122982500Y-116424735D01*
X122982500Y-118220470D01*
X122982501Y-118220476D01*
X122988908Y-118280083D01*
X123039202Y-118414928D01*
X123039206Y-118414935D01*
X123128120Y-118533708D01*
X123152538Y-118599172D01*
X123137687Y-118667445D01*
X123128121Y-118682330D01*
X123043276Y-118795668D01*
X123043274Y-118795671D01*
X122992980Y-118930517D01*
X122986573Y-118990116D01*
X122986572Y-118990135D01*
X122986572Y-120785870D01*
X122986573Y-120785876D01*
X122992980Y-120845483D01*
X123043274Y-120980328D01*
X123043278Y-120980335D01*
X123129524Y-121095544D01*
X123129527Y-121095547D01*
X123244736Y-121181793D01*
X123244743Y-121181797D01*
X123379589Y-121232091D01*
X123379588Y-121232091D01*
X123386516Y-121232835D01*
X123439199Y-121238500D01*
X125234944Y-121238499D01*
X125294555Y-121232091D01*
X125429403Y-121181796D01*
X125544618Y-121095546D01*
X125630868Y-120980331D01*
X125679882Y-120848916D01*
X125721753Y-120792984D01*
X125787217Y-120768566D01*
X125855490Y-120783417D01*
X125883745Y-120804569D01*
X126005671Y-120926495D01*
X126082932Y-120980594D01*
X126199237Y-121062032D01*
X126199239Y-121062033D01*
X126199242Y-121062035D01*
X126413409Y-121161903D01*
X126641664Y-121223063D01*
X126818106Y-121238500D01*
X126877071Y-121243659D01*
X126877072Y-121243659D01*
X126877073Y-121243659D01*
X126936038Y-121238500D01*
X127112480Y-121223063D01*
X127340735Y-121161903D01*
X127554902Y-121062035D01*
X127748473Y-120926495D01*
X127915567Y-120759401D01*
X128045802Y-120573405D01*
X128100379Y-120529781D01*
X128169877Y-120522587D01*
X128232232Y-120554110D01*
X128248951Y-120573405D01*
X128378962Y-120759078D01*
X128545989Y-120926105D01*
X128739493Y-121061600D01*
X128953579Y-121161429D01*
X128953588Y-121161433D01*
X129167072Y-121218634D01*
X129167072Y-120323501D01*
X129274757Y-120372680D01*
X129381309Y-120388000D01*
X129452835Y-120388000D01*
X129559387Y-120372680D01*
X129667072Y-120323501D01*
X129667072Y-121218633D01*
X129880555Y-121161433D01*
X129880564Y-121161429D01*
X130094650Y-121061600D01*
X130288154Y-120926105D01*
X130455177Y-120759082D01*
X130590672Y-120565578D01*
X130690501Y-120351492D01*
X130690504Y-120351486D01*
X130747708Y-120138000D01*
X129850758Y-120138000D01*
X129876565Y-120097844D01*
X129917072Y-119959889D01*
X129917072Y-119816111D01*
X129876565Y-119678156D01*
X129850758Y-119638000D01*
X130747708Y-119638000D01*
X130747707Y-119637999D01*
X130690504Y-119424513D01*
X130690501Y-119424507D01*
X130590672Y-119210422D01*
X130590671Y-119210420D01*
X130455185Y-119016926D01*
X130455180Y-119016920D01*
X130288154Y-118849894D01*
X130094649Y-118714399D01*
X130089965Y-118711695D01*
X130091210Y-118709537D01*
X130046657Y-118670173D01*
X130027620Y-118602947D01*
X130047950Y-118536101D01*
X130086453Y-118499747D01*
X130086144Y-118499305D01*
X130089153Y-118497197D01*
X130089633Y-118496745D01*
X130090583Y-118496196D01*
X130284082Y-118360705D01*
X130451105Y-118193682D01*
X130586600Y-118000178D01*
X130686429Y-117786092D01*
X130686432Y-117786086D01*
X130743636Y-117572600D01*
X129846686Y-117572600D01*
X129872493Y-117532444D01*
X129913000Y-117394489D01*
X129913000Y-117250711D01*
X129872493Y-117112756D01*
X129846686Y-117072600D01*
X130743636Y-117072600D01*
X130743635Y-117072599D01*
X130686432Y-116859113D01*
X130686429Y-116859107D01*
X130586600Y-116645022D01*
X130586599Y-116645020D01*
X130451113Y-116451526D01*
X130451108Y-116451520D01*
X130284082Y-116284494D01*
X130232642Y-116248475D01*
X130189017Y-116193897D01*
X130181825Y-116124399D01*
X130213347Y-116062044D01*
X130273577Y-116026631D01*
X130303766Y-116022900D01*
X131489605Y-116022900D01*
X131534151Y-116022900D01*
X131540231Y-116023199D01*
X131588147Y-116027917D01*
X131661517Y-116035144D01*
X131685345Y-116039883D01*
X131793205Y-116072602D01*
X131815653Y-116081901D01*
X131915049Y-116135029D01*
X131935259Y-116148533D01*
X132022379Y-116220030D01*
X132039569Y-116237220D01*
X132111066Y-116324340D01*
X132124570Y-116344550D01*
X132137626Y-116368975D01*
X132167430Y-116424735D01*
X132177695Y-116443938D01*
X132186998Y-116466397D01*
X132219714Y-116574248D01*
X132224456Y-116598088D01*
X132236401Y-116719367D01*
X132236700Y-116725448D01*
X132236700Y-124594963D01*
X132217015Y-124662002D01*
X132164211Y-124707757D01*
X132095053Y-124717701D01*
X132031497Y-124688676D01*
X131995860Y-124636488D01*
X131906740Y-124385729D01*
X131906740Y-124385728D01*
X131772145Y-124125973D01*
X131772144Y-124125971D01*
X131772140Y-124125965D01*
X131603437Y-123886967D01*
X131403751Y-123673155D01*
X131176819Y-123488532D01*
X131176820Y-123488532D01*
X131176813Y-123488527D01*
X131176805Y-123488522D01*
X130926846Y-123336519D01*
X130926841Y-123336517D01*
X130658517Y-123219968D01*
X130376812Y-123141037D01*
X130376808Y-123141036D01*
X130376807Y-123141036D01*
X130231892Y-123121118D01*
X130086978Y-123101200D01*
X130086977Y-123101200D01*
X129794423Y-123101200D01*
X129794422Y-123101200D01*
X129504593Y-123141036D01*
X129504587Y-123141037D01*
X129222882Y-123219968D01*
X128954558Y-123336517D01*
X128954553Y-123336519D01*
X128704594Y-123488522D01*
X128704580Y-123488532D01*
X128477648Y-123673155D01*
X128277962Y-123886967D01*
X128109259Y-124125965D01*
X128109255Y-124125971D01*
X127974659Y-124385729D01*
X127876691Y-124661386D01*
X127876686Y-124661405D01*
X127817168Y-124947824D01*
X127817167Y-124947826D01*
X127797203Y-125239700D01*
X127817167Y-125531573D01*
X127817168Y-125531575D01*
X127876686Y-125817994D01*
X127876691Y-125818013D01*
X127974659Y-126093670D01*
X128109255Y-126353428D01*
X128109259Y-126353434D01*
X128277962Y-126592432D01*
X128277965Y-126592435D01*
X128477649Y-126806245D01*
X128704587Y-126990873D01*
X128704594Y-126990877D01*
X128954553Y-127142880D01*
X128954558Y-127142882D01*
X129222882Y-127259431D01*
X129222887Y-127259433D01*
X129504593Y-127338364D01*
X129759399Y-127373386D01*
X129794422Y-127378200D01*
X129794423Y-127378200D01*
X130086978Y-127378200D01*
X130118224Y-127373905D01*
X130376807Y-127338364D01*
X130658513Y-127259433D01*
X130926848Y-127142879D01*
X131176813Y-126990873D01*
X131403751Y-126806245D01*
X131603435Y-126592435D01*
X131772145Y-126353427D01*
X131906740Y-126093672D01*
X131995860Y-125842911D01*
X132036857Y-125786334D01*
X132101935Y-125760904D01*
X132170430Y-125774694D01*
X132220597Y-125823327D01*
X132236700Y-125884436D01*
X132236700Y-137734963D01*
X132217015Y-137802002D01*
X132164211Y-137847757D01*
X132095053Y-137857701D01*
X132031497Y-137828676D01*
X131995860Y-137776488D01*
X131906740Y-137525729D01*
X131906740Y-137525728D01*
X131772145Y-137265973D01*
X131772144Y-137265971D01*
X131772140Y-137265965D01*
X131603437Y-137026967D01*
X131403751Y-136813155D01*
X131176819Y-136628532D01*
X131176820Y-136628532D01*
X131176813Y-136628527D01*
X131176805Y-136628522D01*
X130926846Y-136476519D01*
X130926841Y-136476517D01*
X130658517Y-136359968D01*
X130376812Y-136281037D01*
X130376808Y-136281036D01*
X130376807Y-136281036D01*
X130231892Y-136261118D01*
X130086978Y-136241200D01*
X130086977Y-136241200D01*
X129794423Y-136241200D01*
X129794422Y-136241200D01*
X129504593Y-136281036D01*
X129504587Y-136281037D01*
X129222882Y-136359968D01*
X128954558Y-136476517D01*
X128954553Y-136476519D01*
X128704594Y-136628522D01*
X128704580Y-136628532D01*
X128477648Y-136813155D01*
X128277962Y-137026967D01*
X128109259Y-137265965D01*
X128109255Y-137265971D01*
X127974659Y-137525729D01*
X127876691Y-137801386D01*
X127876686Y-137801405D01*
X127817168Y-138087824D01*
X127817167Y-138087826D01*
X127797203Y-138379700D01*
X127817167Y-138671573D01*
X127817168Y-138671575D01*
X127876686Y-138957994D01*
X127876691Y-138958013D01*
X127974659Y-139233670D01*
X128109255Y-139493428D01*
X128109259Y-139493434D01*
X128277962Y-139732432D01*
X128277965Y-139732435D01*
X128477649Y-139946245D01*
X128704587Y-140130873D01*
X128704594Y-140130877D01*
X128954553Y-140282880D01*
X128954558Y-140282882D01*
X129069834Y-140332953D01*
X129222887Y-140399433D01*
X129504593Y-140478364D01*
X129759399Y-140513386D01*
X129794422Y-140518200D01*
X129794423Y-140518200D01*
X130086978Y-140518200D01*
X130118224Y-140513905D01*
X130376807Y-140478364D01*
X130658513Y-140399433D01*
X130926848Y-140282879D01*
X131176813Y-140130873D01*
X131403751Y-139946245D01*
X131603435Y-139732435D01*
X131772145Y-139493427D01*
X131906740Y-139233672D01*
X131995860Y-138982911D01*
X132036857Y-138926334D01*
X132101935Y-138900904D01*
X132170430Y-138914694D01*
X132220597Y-138963327D01*
X132236700Y-139024436D01*
X132236700Y-141363951D01*
X132236401Y-141370032D01*
X132224456Y-141491311D01*
X132219714Y-141515151D01*
X132186998Y-141623002D01*
X132177695Y-141645461D01*
X132124570Y-141744849D01*
X132111066Y-141765059D01*
X132039569Y-141852179D01*
X132022379Y-141869369D01*
X131935259Y-141940866D01*
X131915049Y-141954370D01*
X131815661Y-142007495D01*
X131793202Y-142016798D01*
X131685351Y-142049514D01*
X131661511Y-142054256D01*
X131540232Y-142066201D01*
X131534151Y-142066500D01*
X96564890Y-142066500D01*
X96497851Y-142046815D01*
X96452096Y-141994011D01*
X96440890Y-141942600D01*
X96439303Y-139979404D01*
X101095037Y-139979404D01*
X101114860Y-140243935D01*
X101114861Y-140243940D01*
X101173890Y-140502566D01*
X101173896Y-140502585D01*
X101270814Y-140749528D01*
X101270813Y-140749528D01*
X101403457Y-140979271D01*
X101453642Y-141042203D01*
X101453643Y-141042203D01*
X102386923Y-140108923D01*
X102410507Y-140189244D01*
X102488239Y-140310198D01*
X102596900Y-140404352D01*
X102727685Y-140464080D01*
X102737466Y-140465486D01*
X101806438Y-141396512D01*
X101982525Y-141516566D01*
X101982526Y-141516567D01*
X102221530Y-141631664D01*
X102221528Y-141631664D01*
X102475025Y-141709858D01*
X102475031Y-141709859D01*
X102737351Y-141749399D01*
X102737358Y-141749400D01*
X103002642Y-141749400D01*
X103002648Y-141749399D01*
X103264968Y-141709859D01*
X103264974Y-141709858D01*
X103518470Y-141631664D01*
X103757479Y-141516564D01*
X103933560Y-141396512D01*
X103002533Y-140465486D01*
X103012315Y-140464080D01*
X103143100Y-140404352D01*
X103251761Y-140310198D01*
X103329493Y-140189244D01*
X103353076Y-140108924D01*
X104286355Y-141042203D01*
X104286356Y-141042202D01*
X104336545Y-140979269D01*
X104469185Y-140749528D01*
X104566103Y-140502585D01*
X104566109Y-140502566D01*
X104625138Y-140243940D01*
X104625139Y-140243935D01*
X104644963Y-139979404D01*
X104644963Y-139979395D01*
X104625139Y-139714864D01*
X104625138Y-139714859D01*
X104566109Y-139456233D01*
X104566103Y-139456214D01*
X104469185Y-139209271D01*
X104469186Y-139209271D01*
X104336543Y-138979529D01*
X104336536Y-138979518D01*
X104286356Y-138916596D01*
X104286355Y-138916595D01*
X103353076Y-139849875D01*
X103329493Y-139769556D01*
X103251761Y-139648602D01*
X103143100Y-139554448D01*
X103012315Y-139494720D01*
X103002534Y-139493313D01*
X103933560Y-138562286D01*
X103757484Y-138442239D01*
X103757474Y-138442232D01*
X103518469Y-138327135D01*
X103518471Y-138327135D01*
X103264974Y-138248941D01*
X103264968Y-138248940D01*
X103002648Y-138209400D01*
X102737351Y-138209400D01*
X102475031Y-138248940D01*
X102475025Y-138248941D01*
X102221529Y-138327135D01*
X101982526Y-138442232D01*
X101982518Y-138442237D01*
X101806438Y-138562286D01*
X102737466Y-139493313D01*
X102727685Y-139494720D01*
X102596900Y-139554448D01*
X102488239Y-139648602D01*
X102410507Y-139769556D01*
X102386923Y-139849876D01*
X101453643Y-138916596D01*
X101403456Y-138979528D01*
X101270814Y-139209271D01*
X101173896Y-139456214D01*
X101173890Y-139456233D01*
X101114861Y-139714859D01*
X101114860Y-139714864D01*
X101095037Y-139979395D01*
X101095037Y-139979404D01*
X96439303Y-139979404D01*
X96436033Y-135934470D01*
X96960500Y-135934470D01*
X96960501Y-135934476D01*
X96966908Y-135994083D01*
X97017202Y-136128928D01*
X97017206Y-136128935D01*
X97103452Y-136244144D01*
X97103455Y-136244147D01*
X97218664Y-136330393D01*
X97218671Y-136330397D01*
X97353517Y-136380691D01*
X97353516Y-136380691D01*
X97358660Y-136381244D01*
X97413127Y-136387100D01*
X102508872Y-136387099D01*
X102568483Y-136380691D01*
X102703331Y-136330396D01*
X102818546Y-136244146D01*
X102904796Y-136128931D01*
X102955091Y-135994083D01*
X102961500Y-135934473D01*
X102961500Y-134698834D01*
X107288700Y-134698834D01*
X107329629Y-134944116D01*
X107410369Y-135179302D01*
X107410372Y-135179311D01*
X107528724Y-135398006D01*
X107528726Y-135398009D01*
X107681462Y-135594244D01*
X107840944Y-135741057D01*
X107864417Y-135762666D01*
X108072593Y-135898673D01*
X108300318Y-135998563D01*
X108541375Y-136059607D01*
X108541379Y-136059608D01*
X108541381Y-136059608D01*
X108541386Y-136059609D01*
X108674576Y-136070645D01*
X108727133Y-136075000D01*
X108727135Y-136075000D01*
X110851265Y-136075000D01*
X110851267Y-136075000D01*
X110912484Y-136069927D01*
X111037013Y-136059609D01*
X111037016Y-136059608D01*
X111037021Y-136059608D01*
X111278081Y-135998563D01*
X111505807Y-135898673D01*
X111713985Y-135762664D01*
X111896938Y-135594244D01*
X112049674Y-135398009D01*
X112168028Y-135179310D01*
X112248771Y-134944114D01*
X112289700Y-134698835D01*
X112289700Y-134450165D01*
X112248771Y-134204886D01*
X112168028Y-133969690D01*
X112049674Y-133750991D01*
X111896938Y-133554756D01*
X111713985Y-133386336D01*
X111713982Y-133386333D01*
X111505806Y-133250326D01*
X111278081Y-133150436D01*
X111037024Y-133089392D01*
X111037013Y-133089390D01*
X110871748Y-133075697D01*
X110851267Y-133074000D01*
X108727133Y-133074000D01*
X108707721Y-133075608D01*
X108541386Y-133089390D01*
X108541375Y-133089392D01*
X108300318Y-133150436D01*
X108072593Y-133250326D01*
X107864417Y-133386333D01*
X107681461Y-133554757D01*
X107528724Y-133750993D01*
X107410372Y-133969688D01*
X107410369Y-133969697D01*
X107329629Y-134204883D01*
X107288700Y-134450165D01*
X107288700Y-134698834D01*
X102961500Y-134698834D01*
X102961499Y-132338728D01*
X102955091Y-132279117D01*
X102939220Y-132236565D01*
X113088700Y-132236565D01*
X113104090Y-132422313D01*
X113104092Y-132422324D01*
X113165136Y-132663381D01*
X113265026Y-132891106D01*
X113401033Y-133099282D01*
X113401036Y-133099285D01*
X113569456Y-133282238D01*
X113765691Y-133434974D01*
X113984390Y-133553328D01*
X114219586Y-133634071D01*
X114464865Y-133675000D01*
X114713535Y-133675000D01*
X114958814Y-133634071D01*
X115194010Y-133553328D01*
X115412709Y-133434974D01*
X115608944Y-133282238D01*
X115777364Y-133099285D01*
X115913373Y-132891107D01*
X115949081Y-132809702D01*
X126011561Y-132809702D01*
X126030081Y-133021395D01*
X126030083Y-133021405D01*
X126085081Y-133226662D01*
X126085083Y-133226666D01*
X126085084Y-133226670D01*
X126110996Y-133282238D01*
X126174895Y-133419270D01*
X126174897Y-133419274D01*
X126296781Y-133593342D01*
X126296786Y-133593348D01*
X126447051Y-133743613D01*
X126447057Y-133743618D01*
X126625564Y-133868610D01*
X126624378Y-133870302D01*
X126666402Y-133914354D01*
X126679641Y-133982958D01*
X126653689Y-134047828D01*
X126596784Y-134088370D01*
X126556201Y-134095200D01*
X126468830Y-134095200D01*
X126468823Y-134095201D01*
X126409216Y-134101608D01*
X126274371Y-134151902D01*
X126274364Y-134151906D01*
X126159155Y-134238152D01*
X126159152Y-134238155D01*
X126072906Y-134353364D01*
X126072902Y-134353371D01*
X126022608Y-134488217D01*
X126016201Y-134547816D01*
X126016201Y-134547823D01*
X126016200Y-134547835D01*
X126016200Y-136071570D01*
X126016201Y-136071576D01*
X126022608Y-136131183D01*
X126072902Y-136266028D01*
X126072906Y-136266035D01*
X126159152Y-136381244D01*
X126159155Y-136381247D01*
X126274364Y-136467493D01*
X126274371Y-136467497D01*
X126409217Y-136517791D01*
X126409216Y-136517791D01*
X126416144Y-136518535D01*
X126468827Y-136524200D01*
X127992572Y-136524199D01*
X128052183Y-136517791D01*
X128187031Y-136467496D01*
X128302246Y-136381246D01*
X128388496Y-136266031D01*
X128438791Y-136131183D01*
X128445200Y-136071573D01*
X128445199Y-134547828D01*
X128438791Y-134488217D01*
X128388496Y-134353369D01*
X128388495Y-134353368D01*
X128388493Y-134353364D01*
X128302247Y-134238155D01*
X128302244Y-134238152D01*
X128187035Y-134151906D01*
X128187028Y-134151902D01*
X128052182Y-134101608D01*
X128052183Y-134101608D01*
X127992583Y-134095201D01*
X127992581Y-134095200D01*
X127992573Y-134095200D01*
X127992565Y-134095200D01*
X127905200Y-134095200D01*
X127838161Y-134075515D01*
X127792406Y-134022711D01*
X127782462Y-133953553D01*
X127811487Y-133889997D01*
X127836407Y-133869426D01*
X127835836Y-133868610D01*
X127899900Y-133823751D01*
X128014347Y-133743615D01*
X128164615Y-133593347D01*
X128286505Y-133419270D01*
X128376316Y-133226670D01*
X128431318Y-133021401D01*
X128449839Y-132809700D01*
X128431318Y-132597999D01*
X128376316Y-132392730D01*
X128286505Y-132200131D01*
X128164615Y-132026053D01*
X128164613Y-132026050D01*
X128035943Y-131897380D01*
X128002458Y-131836057D01*
X128007442Y-131766365D01*
X128035939Y-131722022D01*
X128164615Y-131593347D01*
X128286505Y-131419270D01*
X128376316Y-131226670D01*
X128431318Y-131021401D01*
X128449839Y-130809700D01*
X128431318Y-130597999D01*
X128376316Y-130392730D01*
X128286505Y-130200131D01*
X128164615Y-130026053D01*
X128014347Y-129875785D01*
X128014343Y-129875782D01*
X128014342Y-129875781D01*
X127840274Y-129753897D01*
X127840271Y-129753895D01*
X127840270Y-129753895D01*
X127735342Y-129704966D01*
X127664229Y-129671805D01*
X127611790Y-129625632D01*
X127592638Y-129558439D01*
X127612854Y-129491558D01*
X127664231Y-129447040D01*
X127840016Y-129365072D01*
X127894422Y-129326975D01*
X127327720Y-128760272D01*
X127367819Y-128754229D01*
X127492754Y-128694063D01*
X127594405Y-128599745D01*
X127663739Y-128479655D01*
X127680550Y-128405997D01*
X128247975Y-128973421D01*
X128286073Y-128919014D01*
X128375841Y-128726504D01*
X128375846Y-128726490D01*
X128430821Y-128521319D01*
X128430823Y-128521309D01*
X128449337Y-128309700D01*
X128449337Y-128309699D01*
X128430823Y-128098090D01*
X128430821Y-128098080D01*
X128375846Y-127892909D01*
X128375841Y-127892895D01*
X128286072Y-127700385D01*
X128286071Y-127700383D01*
X128247975Y-127645976D01*
X127684479Y-128209472D01*
X127684233Y-128206184D01*
X127633572Y-128077102D01*
X127547114Y-127968687D01*
X127432541Y-127890573D01*
X127328397Y-127858449D01*
X127894422Y-127292423D01*
X127894422Y-127292422D01*
X127840025Y-127254333D01*
X127840015Y-127254327D01*
X127647504Y-127164558D01*
X127647490Y-127164553D01*
X127442319Y-127109578D01*
X127442309Y-127109576D01*
X127230701Y-127091063D01*
X127230699Y-127091063D01*
X127019090Y-127109576D01*
X127019080Y-127109578D01*
X126813909Y-127164553D01*
X126813895Y-127164558D01*
X126621381Y-127254329D01*
X126621379Y-127254330D01*
X126566977Y-127292422D01*
X126566976Y-127292423D01*
X127133680Y-127859127D01*
X127093581Y-127865171D01*
X126968646Y-127925337D01*
X126866995Y-128019655D01*
X126797661Y-128139745D01*
X126780849Y-128213402D01*
X126213423Y-127645976D01*
X126213422Y-127645977D01*
X126175330Y-127700379D01*
X126175329Y-127700381D01*
X126085558Y-127892895D01*
X126085553Y-127892909D01*
X126030578Y-128098080D01*
X126030576Y-128098090D01*
X126012063Y-128309699D01*
X126012063Y-128309700D01*
X126030576Y-128521309D01*
X126030578Y-128521319D01*
X126085553Y-128726490D01*
X126085558Y-128726504D01*
X126175327Y-128919015D01*
X126175333Y-128919025D01*
X126213422Y-128973422D01*
X126213423Y-128973422D01*
X126776920Y-128409925D01*
X126777167Y-128413216D01*
X126827828Y-128542298D01*
X126914286Y-128650713D01*
X127028859Y-128728827D01*
X127133001Y-128760950D01*
X126566977Y-129326975D01*
X126621378Y-129365068D01*
X126797169Y-129447040D01*
X126849609Y-129493213D01*
X126868761Y-129560406D01*
X126848546Y-129627287D01*
X126797170Y-129671805D01*
X126621133Y-129753893D01*
X126447050Y-129875786D01*
X126296786Y-130026050D01*
X126174893Y-130200133D01*
X126085085Y-130392728D01*
X126085081Y-130392737D01*
X126030083Y-130597994D01*
X126030081Y-130598004D01*
X126011561Y-130809697D01*
X126011561Y-130809702D01*
X126030081Y-131021395D01*
X126030083Y-131021405D01*
X126085081Y-131226662D01*
X126085083Y-131226666D01*
X126085084Y-131226670D01*
X126174895Y-131419270D01*
X126174897Y-131419274D01*
X126296781Y-131593342D01*
X126296786Y-131593348D01*
X126425456Y-131722018D01*
X126458941Y-131783341D01*
X126453957Y-131853033D01*
X126425457Y-131897380D01*
X126296783Y-132026054D01*
X126174893Y-132200133D01*
X126085085Y-132392728D01*
X126085081Y-132392737D01*
X126030083Y-132597994D01*
X126030081Y-132598004D01*
X126011561Y-132809697D01*
X126011561Y-132809702D01*
X115949081Y-132809702D01*
X116013263Y-132663381D01*
X116074308Y-132422321D01*
X116076760Y-132392737D01*
X116089700Y-132236565D01*
X116089700Y-130112435D01*
X116074309Y-129926686D01*
X116074307Y-129926675D01*
X116013263Y-129685618D01*
X115913373Y-129457893D01*
X115777366Y-129249717D01*
X115748309Y-129218153D01*
X115608944Y-129066762D01*
X115412709Y-128914026D01*
X115412707Y-128914025D01*
X115412706Y-128914024D01*
X115194011Y-128795672D01*
X115194002Y-128795669D01*
X114958816Y-128714929D01*
X114713535Y-128674000D01*
X114464865Y-128674000D01*
X114219583Y-128714929D01*
X113984397Y-128795669D01*
X113984388Y-128795672D01*
X113765693Y-128914024D01*
X113569457Y-129066761D01*
X113401033Y-129249717D01*
X113265026Y-129457893D01*
X113165136Y-129685618D01*
X113104092Y-129926675D01*
X113104090Y-129926686D01*
X113088700Y-130112435D01*
X113088700Y-132236565D01*
X102939220Y-132236565D01*
X102904796Y-132144269D01*
X102904795Y-132144268D01*
X102904793Y-132144264D01*
X102818547Y-132029055D01*
X102818544Y-132029052D01*
X102703335Y-131942806D01*
X102703328Y-131942802D01*
X102568482Y-131892508D01*
X102568483Y-131892508D01*
X102508883Y-131886101D01*
X102508881Y-131886100D01*
X102508873Y-131886100D01*
X102508864Y-131886100D01*
X97413129Y-131886100D01*
X97413123Y-131886101D01*
X97353516Y-131892508D01*
X97218671Y-131942802D01*
X97218664Y-131942806D01*
X97103455Y-132029052D01*
X97103452Y-132029055D01*
X97017206Y-132144264D01*
X97017202Y-132144271D01*
X96966908Y-132279117D01*
X96960501Y-132338716D01*
X96960501Y-132338723D01*
X96960500Y-132338735D01*
X96960500Y-135934470D01*
X96436033Y-135934470D01*
X96430778Y-129434470D01*
X96960500Y-129434470D01*
X96960501Y-129434476D01*
X96966908Y-129494083D01*
X97017202Y-129628928D01*
X97017206Y-129628935D01*
X97103452Y-129744144D01*
X97103455Y-129744147D01*
X97218664Y-129830393D01*
X97218671Y-129830397D01*
X97353517Y-129880691D01*
X97353516Y-129880691D01*
X97360444Y-129881435D01*
X97413127Y-129887100D01*
X102508872Y-129887099D01*
X102568483Y-129880691D01*
X102703331Y-129830396D01*
X102818546Y-129744146D01*
X102904796Y-129628931D01*
X102955091Y-129494083D01*
X102961500Y-129434473D01*
X102961500Y-128274500D01*
X107083751Y-128274500D01*
X107103517Y-128525651D01*
X107162326Y-128770610D01*
X107258733Y-129003359D01*
X107390360Y-129218153D01*
X107390361Y-129218156D01*
X107390364Y-129218159D01*
X107553976Y-129409724D01*
X107651729Y-129493213D01*
X107745543Y-129573338D01*
X107745546Y-129573339D01*
X107960340Y-129704966D01*
X108078471Y-129753897D01*
X108193089Y-129801373D01*
X108438052Y-129860183D01*
X108594150Y-129872468D01*
X108626316Y-129875000D01*
X108626318Y-129875000D01*
X110952084Y-129875000D01*
X110981718Y-129872667D01*
X111140348Y-129860183D01*
X111385311Y-129801373D01*
X111618059Y-129704966D01*
X111832859Y-129573336D01*
X112024424Y-129409724D01*
X112188036Y-129218159D01*
X112319666Y-129003359D01*
X112416073Y-128770611D01*
X112474883Y-128525648D01*
X112494649Y-128274500D01*
X112474883Y-128023352D01*
X112416073Y-127778389D01*
X112383760Y-127700379D01*
X112319666Y-127545640D01*
X112192646Y-127338364D01*
X112188038Y-127330845D01*
X112188038Y-127330843D01*
X112122689Y-127254330D01*
X112024424Y-127139276D01*
X111897771Y-127031104D01*
X111832856Y-126975661D01*
X111832853Y-126975660D01*
X111618059Y-126844033D01*
X111385310Y-126747626D01*
X111140350Y-126688817D01*
X110952084Y-126674000D01*
X110952082Y-126674000D01*
X108626318Y-126674000D01*
X108626316Y-126674000D01*
X108438049Y-126688817D01*
X108193089Y-126747626D01*
X107960340Y-126844033D01*
X107745546Y-126975660D01*
X107745543Y-126975661D01*
X107553976Y-127139276D01*
X107390361Y-127330843D01*
X107390360Y-127330846D01*
X107258733Y-127545640D01*
X107162326Y-127778389D01*
X107103517Y-128023348D01*
X107083751Y-128274500D01*
X102961500Y-128274500D01*
X102961499Y-125838728D01*
X102955091Y-125779117D01*
X102953441Y-125774694D01*
X102904797Y-125644271D01*
X102904793Y-125644264D01*
X102818547Y-125529055D01*
X102818544Y-125529052D01*
X102703335Y-125442806D01*
X102703328Y-125442802D01*
X102568482Y-125392508D01*
X102568483Y-125392508D01*
X102508883Y-125386101D01*
X102508881Y-125386100D01*
X102508873Y-125386100D01*
X102508864Y-125386100D01*
X97413129Y-125386100D01*
X97413123Y-125386101D01*
X97353516Y-125392508D01*
X97218671Y-125442802D01*
X97218664Y-125442806D01*
X97103455Y-125529052D01*
X97103452Y-125529055D01*
X97017206Y-125644264D01*
X97017202Y-125644271D01*
X96966908Y-125779117D01*
X96960501Y-125838716D01*
X96960501Y-125838723D01*
X96960500Y-125838735D01*
X96960500Y-129434470D01*
X96430778Y-129434470D01*
X96424929Y-122199404D01*
X101094535Y-122199404D01*
X101114363Y-122464009D01*
X101114364Y-122464014D01*
X101173410Y-122722713D01*
X101173412Y-122722722D01*
X101173414Y-122722727D01*
X101270361Y-122969745D01*
X101403042Y-123199555D01*
X101568492Y-123407023D01*
X101763016Y-123587514D01*
X101982268Y-123736998D01*
X102221350Y-123852134D01*
X102474922Y-123930350D01*
X102474923Y-123930350D01*
X102474926Y-123930351D01*
X102737311Y-123969899D01*
X102737316Y-123969899D01*
X102737319Y-123969900D01*
X102737320Y-123969900D01*
X103002680Y-123969900D01*
X103002681Y-123969900D01*
X103002688Y-123969899D01*
X103265073Y-123930351D01*
X103265074Y-123930350D01*
X103265078Y-123930350D01*
X103518650Y-123852134D01*
X103757733Y-123736998D01*
X103976984Y-123587514D01*
X104171508Y-123407023D01*
X104336958Y-123199555D01*
X104469639Y-122969745D01*
X104482513Y-122936941D01*
X104525327Y-122881728D01*
X104591197Y-122858427D01*
X104659208Y-122874436D01*
X104672246Y-122882972D01*
X104774865Y-122959793D01*
X104774868Y-122959795D01*
X104774871Y-122959797D01*
X104909717Y-123010091D01*
X104909716Y-123010091D01*
X104916644Y-123010835D01*
X104969327Y-123016500D01*
X106765072Y-123016499D01*
X106824683Y-123010091D01*
X106959531Y-122959796D01*
X107074746Y-122873546D01*
X107160996Y-122758331D01*
X107210010Y-122626916D01*
X107251881Y-122570984D01*
X107317345Y-122546566D01*
X107385618Y-122561417D01*
X107413873Y-122582569D01*
X107535799Y-122704495D01*
X107632584Y-122772265D01*
X107729365Y-122840032D01*
X107729367Y-122840033D01*
X107729370Y-122840035D01*
X107943537Y-122939903D01*
X108171792Y-123001063D01*
X108348234Y-123016500D01*
X108407199Y-123021659D01*
X108407200Y-123021659D01*
X108407201Y-123021659D01*
X108466166Y-123016500D01*
X108642608Y-123001063D01*
X108870863Y-122939903D01*
X109085030Y-122840035D01*
X109278601Y-122704495D01*
X109445695Y-122537401D01*
X109575930Y-122351405D01*
X109630507Y-122307781D01*
X109700005Y-122300587D01*
X109762360Y-122332110D01*
X109779079Y-122351405D01*
X109909090Y-122537078D01*
X110076117Y-122704105D01*
X110269621Y-122839600D01*
X110483707Y-122939429D01*
X110483716Y-122939433D01*
X110697200Y-122996634D01*
X110697200Y-122101501D01*
X110804885Y-122150680D01*
X110911437Y-122166000D01*
X110982963Y-122166000D01*
X111089515Y-122150680D01*
X111197200Y-122101501D01*
X111197200Y-122996633D01*
X111410683Y-122939433D01*
X111410692Y-122939429D01*
X111624778Y-122839600D01*
X111818282Y-122704105D01*
X111985305Y-122537082D01*
X112120800Y-122343578D01*
X112220629Y-122129492D01*
X112220632Y-122129486D01*
X112277836Y-121916000D01*
X111380886Y-121916000D01*
X111406693Y-121875844D01*
X111447200Y-121737889D01*
X111447200Y-121594111D01*
X111406693Y-121456156D01*
X111380886Y-121416000D01*
X112277836Y-121416000D01*
X112277835Y-121415999D01*
X112220632Y-121202513D01*
X112220629Y-121202507D01*
X112120800Y-120988422D01*
X112120799Y-120988420D01*
X111985313Y-120794926D01*
X111985308Y-120794920D01*
X111818282Y-120627894D01*
X111624778Y-120492399D01*
X111410692Y-120392570D01*
X111410686Y-120392567D01*
X111197200Y-120335364D01*
X111197200Y-121230498D01*
X111089515Y-121181320D01*
X110982963Y-121166000D01*
X110911437Y-121166000D01*
X110804885Y-121181320D01*
X110697200Y-121230498D01*
X110697200Y-120335364D01*
X110697199Y-120335364D01*
X110483713Y-120392567D01*
X110483707Y-120392570D01*
X110269622Y-120492399D01*
X110269620Y-120492400D01*
X110076126Y-120627886D01*
X110076120Y-120627891D01*
X109909091Y-120794920D01*
X109909090Y-120794922D01*
X109779080Y-120980595D01*
X109724503Y-121024219D01*
X109655004Y-121031412D01*
X109592650Y-120999890D01*
X109575930Y-120980594D01*
X109445694Y-120794597D01*
X109278602Y-120627506D01*
X109278595Y-120627501D01*
X109085034Y-120491967D01*
X109085030Y-120491965D01*
X109034598Y-120468448D01*
X108870863Y-120392097D01*
X108870859Y-120392096D01*
X108870855Y-120392094D01*
X108642613Y-120330938D01*
X108642603Y-120330936D01*
X108407201Y-120310341D01*
X108407199Y-120310341D01*
X108171796Y-120330936D01*
X108171786Y-120330938D01*
X107943544Y-120392094D01*
X107943535Y-120392098D01*
X107729371Y-120491964D01*
X107729369Y-120491965D01*
X107535800Y-120627503D01*
X107413873Y-120749430D01*
X107352550Y-120782914D01*
X107282858Y-120777930D01*
X107226925Y-120736058D01*
X107210010Y-120705081D01*
X107160997Y-120573671D01*
X107160993Y-120573664D01*
X107074747Y-120458455D01*
X107074744Y-120458452D01*
X106959535Y-120372206D01*
X106959528Y-120372202D01*
X106824682Y-120321908D01*
X106824683Y-120321908D01*
X106765083Y-120315501D01*
X106765081Y-120315500D01*
X106765073Y-120315500D01*
X106765064Y-120315500D01*
X104969329Y-120315500D01*
X104969323Y-120315501D01*
X104909716Y-120321908D01*
X104774871Y-120372202D01*
X104774864Y-120372206D01*
X104659655Y-120458452D01*
X104659652Y-120458455D01*
X104573406Y-120573664D01*
X104573402Y-120573671D01*
X104523108Y-120708517D01*
X104516701Y-120768116D01*
X104516700Y-120768135D01*
X104516700Y-121070262D01*
X104497015Y-121137301D01*
X104444211Y-121183056D01*
X104375053Y-121193000D01*
X104311497Y-121163975D01*
X104295753Y-121147575D01*
X104254259Y-121095544D01*
X104171508Y-120991777D01*
X103976984Y-120811286D01*
X103952988Y-120794926D01*
X103757736Y-120661804D01*
X103757725Y-120661797D01*
X103518655Y-120546668D01*
X103518636Y-120546661D01*
X103265083Y-120468451D01*
X103265073Y-120468448D01*
X103002688Y-120428900D01*
X103002681Y-120428900D01*
X102737319Y-120428900D01*
X102737311Y-120428900D01*
X102474926Y-120468448D01*
X102474916Y-120468451D01*
X102221363Y-120546661D01*
X102221344Y-120546668D01*
X101982276Y-120661797D01*
X101982274Y-120661798D01*
X101763015Y-120811286D01*
X101568494Y-120991775D01*
X101568492Y-120991777D01*
X101403042Y-121199245D01*
X101270361Y-121429054D01*
X101173416Y-121676067D01*
X101173410Y-121676086D01*
X101114364Y-121934785D01*
X101114363Y-121934790D01*
X101094535Y-122199395D01*
X101094535Y-122199404D01*
X96424929Y-122199404D01*
X96421192Y-117576604D01*
X101094535Y-117576604D01*
X101114363Y-117841209D01*
X101114364Y-117841214D01*
X101173410Y-118099913D01*
X101173412Y-118099922D01*
X101173414Y-118099927D01*
X101270361Y-118346945D01*
X101403042Y-118576755D01*
X101568492Y-118784223D01*
X101763016Y-118964714D01*
X101982268Y-119114198D01*
X102221350Y-119229334D01*
X102474922Y-119307550D01*
X102474923Y-119307550D01*
X102474926Y-119307551D01*
X102737311Y-119347099D01*
X102737316Y-119347099D01*
X102737319Y-119347100D01*
X102737320Y-119347100D01*
X103002680Y-119347100D01*
X103002681Y-119347100D01*
X103002688Y-119347099D01*
X103265073Y-119307551D01*
X103265074Y-119307550D01*
X103265078Y-119307550D01*
X103518650Y-119229334D01*
X103757733Y-119114198D01*
X103976984Y-118964714D01*
X104171508Y-118784223D01*
X104336958Y-118576755D01*
X104469639Y-118346945D01*
X104482042Y-118315342D01*
X104524856Y-118260131D01*
X104590726Y-118236830D01*
X104658737Y-118252840D01*
X104707295Y-118303078D01*
X104712897Y-118315345D01*
X104725214Y-118346728D01*
X104725213Y-118346728D01*
X104857857Y-118576471D01*
X104908042Y-118639403D01*
X104908043Y-118639403D01*
X105841323Y-117706123D01*
X105864907Y-117786444D01*
X105942639Y-117907398D01*
X106051300Y-118001552D01*
X106182085Y-118061280D01*
X106191866Y-118062686D01*
X105260838Y-118993712D01*
X105436925Y-119113766D01*
X105436926Y-119113767D01*
X105675930Y-119228864D01*
X105675928Y-119228864D01*
X105929425Y-119307058D01*
X105929431Y-119307059D01*
X106191751Y-119346599D01*
X106191758Y-119346600D01*
X106457042Y-119346600D01*
X106457048Y-119346599D01*
X106719368Y-119307059D01*
X106719374Y-119307058D01*
X106972870Y-119228864D01*
X107211879Y-119113764D01*
X107387960Y-118993712D01*
X106456933Y-118062686D01*
X106466715Y-118061280D01*
X106597500Y-118001552D01*
X106706161Y-117907398D01*
X106783893Y-117786444D01*
X106807476Y-117706124D01*
X107740755Y-118639403D01*
X107740756Y-118639402D01*
X107790945Y-118576469D01*
X107923585Y-118346728D01*
X108020503Y-118099785D01*
X108020509Y-118099766D01*
X108079538Y-117841140D01*
X108079539Y-117841135D01*
X108099363Y-117576604D01*
X108099363Y-117576595D01*
X108079539Y-117312064D01*
X108079538Y-117312059D01*
X108020509Y-117053433D01*
X108020503Y-117053414D01*
X107923585Y-116806471D01*
X107923586Y-116806471D01*
X107790943Y-116576729D01*
X107790936Y-116576718D01*
X107740756Y-116513796D01*
X107740755Y-116513795D01*
X106807476Y-117447075D01*
X106783893Y-117366756D01*
X106706161Y-117245802D01*
X106597500Y-117151648D01*
X106466715Y-117091920D01*
X106456934Y-117090513D01*
X107387960Y-116159486D01*
X107211884Y-116039439D01*
X107211874Y-116039432D01*
X106972869Y-115924335D01*
X106972871Y-115924335D01*
X106719374Y-115846141D01*
X106719368Y-115846140D01*
X106457048Y-115806600D01*
X106191751Y-115806600D01*
X105929431Y-115846140D01*
X105929425Y-115846141D01*
X105675929Y-115924335D01*
X105436926Y-116039432D01*
X105436918Y-116039437D01*
X105260838Y-116159486D01*
X106191866Y-117090513D01*
X106182085Y-117091920D01*
X106051300Y-117151648D01*
X105942639Y-117245802D01*
X105864907Y-117366756D01*
X105841323Y-117447076D01*
X104908043Y-116513796D01*
X104857856Y-116576728D01*
X104725215Y-116806469D01*
X104712897Y-116837855D01*
X104670080Y-116893069D01*
X104604210Y-116916369D01*
X104536200Y-116900358D01*
X104487642Y-116850119D01*
X104482041Y-116837855D01*
X104469639Y-116806255D01*
X104336958Y-116576445D01*
X104171508Y-116368977D01*
X103976984Y-116188486D01*
X103941872Y-116164547D01*
X103757736Y-116039004D01*
X103757725Y-116038997D01*
X103518655Y-115923868D01*
X103518636Y-115923861D01*
X103265083Y-115845651D01*
X103265073Y-115845648D01*
X103002688Y-115806100D01*
X103002681Y-115806100D01*
X102737319Y-115806100D01*
X102737311Y-115806100D01*
X102474926Y-115845648D01*
X102474916Y-115845651D01*
X102221363Y-115923861D01*
X102221344Y-115923868D01*
X101982276Y-116038997D01*
X101982274Y-116038998D01*
X101982268Y-116039001D01*
X101982268Y-116039002D01*
X101977013Y-116042585D01*
X101763015Y-116188486D01*
X101568494Y-116368975D01*
X101568492Y-116368977D01*
X101403042Y-116576445D01*
X101270361Y-116806254D01*
X101173416Y-117053267D01*
X101173410Y-117053286D01*
X101114364Y-117311985D01*
X101114363Y-117311990D01*
X101094535Y-117576595D01*
X101094535Y-117576604D01*
X96421192Y-117576604D01*
X96419069Y-114950001D01*
X110208700Y-114950001D01*
X110208701Y-114950018D01*
X110219200Y-115052796D01*
X110219201Y-115052799D01*
X110274385Y-115219331D01*
X110274387Y-115219336D01*
X110290991Y-115246255D01*
X110366488Y-115368656D01*
X110490544Y-115492712D01*
X110639866Y-115584814D01*
X110806403Y-115639999D01*
X110909191Y-115650500D01*
X112509208Y-115650499D01*
X112611997Y-115639999D01*
X112778534Y-115584814D01*
X112927856Y-115492712D01*
X113051912Y-115368656D01*
X113144014Y-115219334D01*
X113199199Y-115052797D01*
X113209700Y-114950009D01*
X113209699Y-113649992D01*
X113199199Y-113547203D01*
X113144014Y-113380666D01*
X113051912Y-113231344D01*
X112927856Y-113107288D01*
X112778534Y-113015186D01*
X112772641Y-113011551D01*
X112725917Y-112959603D01*
X112714694Y-112890640D01*
X112742538Y-112826558D01*
X112750057Y-112818331D01*
X112897305Y-112671082D01*
X113032800Y-112477578D01*
X113132629Y-112263492D01*
X113132632Y-112263486D01*
X113189836Y-112050000D01*
X112142886Y-112050000D01*
X112168693Y-112009844D01*
X112209200Y-111871889D01*
X112209200Y-111728111D01*
X112168693Y-111590156D01*
X112142886Y-111550000D01*
X113189836Y-111550000D01*
X113189835Y-111549999D01*
X113132632Y-111336513D01*
X113132629Y-111336507D01*
X113032800Y-111122422D01*
X113032799Y-111122420D01*
X112897313Y-110928926D01*
X112897308Y-110928920D01*
X112730279Y-110761891D01*
X112730273Y-110761886D01*
X112536779Y-110626400D01*
X112536777Y-110626399D01*
X112322692Y-110526570D01*
X112322683Y-110526566D01*
X112094526Y-110465432D01*
X112094516Y-110465430D01*
X111959200Y-110453590D01*
X111959200Y-111364498D01*
X111851515Y-111315320D01*
X111744963Y-111300000D01*
X111673437Y-111300000D01*
X111566885Y-111315320D01*
X111459200Y-111364498D01*
X111459200Y-110453591D01*
X111459199Y-110453590D01*
X111323883Y-110465430D01*
X111323873Y-110465432D01*
X111095716Y-110526566D01*
X111095707Y-110526570D01*
X110881622Y-110626399D01*
X110881620Y-110626400D01*
X110688126Y-110761886D01*
X110688120Y-110761891D01*
X110521094Y-110928917D01*
X110385599Y-111122421D01*
X110285770Y-111336507D01*
X110285767Y-111336513D01*
X110228564Y-111549999D01*
X110228564Y-111550000D01*
X111275514Y-111550000D01*
X111249707Y-111590156D01*
X111209200Y-111728111D01*
X111209200Y-111871889D01*
X111249707Y-112009844D01*
X111275514Y-112050000D01*
X110228564Y-112050000D01*
X110285767Y-112263486D01*
X110285770Y-112263492D01*
X110385599Y-112477577D01*
X110385600Y-112477579D01*
X110521086Y-112671073D01*
X110668343Y-112818331D01*
X110701827Y-112879654D01*
X110696843Y-112949346D01*
X110654971Y-113005279D01*
X110645758Y-113011550D01*
X110490547Y-113107285D01*
X110490543Y-113107288D01*
X110366489Y-113231342D01*
X110274387Y-113380663D01*
X110274385Y-113380668D01*
X110246549Y-113464670D01*
X110219201Y-113547203D01*
X110219201Y-113547204D01*
X110219200Y-113547204D01*
X110208700Y-113649983D01*
X110208700Y-114950001D01*
X96419069Y-114950001D01*
X96409295Y-102859200D01*
X109441141Y-102859200D01*
X109461736Y-103094603D01*
X109461738Y-103094613D01*
X109522894Y-103322855D01*
X109522896Y-103322859D01*
X109522897Y-103322863D01*
X109572831Y-103429946D01*
X109622764Y-103537028D01*
X109622765Y-103537030D01*
X109758305Y-103730602D01*
X109905504Y-103877801D01*
X109938989Y-103939124D01*
X109934005Y-104008816D01*
X109892133Y-104064749D01*
X109882920Y-104071020D01*
X109728147Y-104166485D01*
X109728143Y-104166488D01*
X109604089Y-104290542D01*
X109511987Y-104439863D01*
X109511986Y-104439866D01*
X109456801Y-104606403D01*
X109456801Y-104606404D01*
X109456800Y-104606404D01*
X109446300Y-104709183D01*
X109446300Y-106009201D01*
X109446301Y-106009218D01*
X109456800Y-106111996D01*
X109456801Y-106111999D01*
X109511985Y-106278531D01*
X109511987Y-106278536D01*
X109546869Y-106335088D01*
X109604088Y-106427856D01*
X109728144Y-106551912D01*
X109877466Y-106644014D01*
X110044003Y-106699199D01*
X110146791Y-106709700D01*
X111696808Y-106709699D01*
X111799597Y-106699199D01*
X111966134Y-106644014D01*
X112115456Y-106551912D01*
X112239512Y-106427856D01*
X112331614Y-106278534D01*
X112386799Y-106111997D01*
X112397300Y-106009209D01*
X112397299Y-104709192D01*
X112386799Y-104606403D01*
X112331614Y-104439866D01*
X112239512Y-104290544D01*
X112115456Y-104166488D01*
X112033929Y-104116202D01*
X111960679Y-104071021D01*
X111913955Y-104019073D01*
X111902732Y-103950110D01*
X111930576Y-103886028D01*
X111938095Y-103877801D01*
X111952571Y-103863325D01*
X112085295Y-103730601D01*
X112220835Y-103537030D01*
X112320703Y-103322863D01*
X112381863Y-103094608D01*
X112401514Y-102870000D01*
X115306541Y-102870000D01*
X115327136Y-103105403D01*
X115327138Y-103105413D01*
X115388294Y-103333655D01*
X115388296Y-103333659D01*
X115388297Y-103333663D01*
X115419043Y-103399598D01*
X115488165Y-103547830D01*
X115488167Y-103547834D01*
X115596481Y-103702521D01*
X115623701Y-103741396D01*
X115623706Y-103741402D01*
X115745630Y-103863326D01*
X115779115Y-103924649D01*
X115774131Y-103994341D01*
X115732259Y-104050274D01*
X115701283Y-104067189D01*
X115569869Y-104116203D01*
X115569864Y-104116206D01*
X115454655Y-104202452D01*
X115454652Y-104202455D01*
X115368406Y-104317664D01*
X115368402Y-104317671D01*
X115318108Y-104452517D01*
X115311701Y-104512116D01*
X115311701Y-104512123D01*
X115311700Y-104512135D01*
X115311700Y-106307870D01*
X115311701Y-106307876D01*
X115318108Y-106367483D01*
X115368402Y-106502328D01*
X115368406Y-106502335D01*
X115454652Y-106617544D01*
X115454655Y-106617547D01*
X115569864Y-106703793D01*
X115569871Y-106703797D01*
X115704717Y-106754091D01*
X115704716Y-106754091D01*
X115711644Y-106754835D01*
X115764327Y-106760500D01*
X117560072Y-106760499D01*
X117619683Y-106754091D01*
X117754531Y-106703796D01*
X117869746Y-106617546D01*
X117955996Y-106502331D01*
X118006291Y-106367483D01*
X118012700Y-106307873D01*
X118012699Y-104512128D01*
X118006291Y-104452517D01*
X118001573Y-104439868D01*
X117955997Y-104317671D01*
X117955993Y-104317664D01*
X117869747Y-104202455D01*
X117869744Y-104202452D01*
X117754535Y-104116206D01*
X117754528Y-104116202D01*
X117623117Y-104067189D01*
X117567183Y-104025318D01*
X117542766Y-103959853D01*
X117557618Y-103891580D01*
X117578763Y-103863332D01*
X117700695Y-103741401D01*
X117836235Y-103547830D01*
X117936103Y-103333663D01*
X117997263Y-103105408D01*
X118017859Y-102870000D01*
X117997263Y-102634592D01*
X117936103Y-102406337D01*
X117836235Y-102192171D01*
X117828672Y-102181369D01*
X117700694Y-101998597D01*
X117533602Y-101831506D01*
X117533596Y-101831501D01*
X117348042Y-101701575D01*
X117304417Y-101646998D01*
X117297223Y-101577500D01*
X117328746Y-101515145D01*
X117348042Y-101498425D01*
X117418822Y-101448864D01*
X117533601Y-101368495D01*
X117700695Y-101201401D01*
X117836235Y-101007830D01*
X117936103Y-100793663D01*
X117997263Y-100565408D01*
X118017859Y-100330000D01*
X118016976Y-100319913D01*
X117999818Y-100123796D01*
X117997263Y-100094592D01*
X117943927Y-99895537D01*
X117936105Y-99866344D01*
X117936104Y-99866343D01*
X117936103Y-99866337D01*
X117836235Y-99652171D01*
X117800802Y-99601566D01*
X117700694Y-99458597D01*
X117533602Y-99291506D01*
X117533596Y-99291501D01*
X117348042Y-99161575D01*
X117304417Y-99106998D01*
X117297223Y-99037500D01*
X117328746Y-98975145D01*
X117348042Y-98958425D01*
X117434773Y-98897695D01*
X117533601Y-98828495D01*
X117700695Y-98661401D01*
X117836235Y-98467830D01*
X117936103Y-98253663D01*
X117997263Y-98025408D01*
X118017859Y-97790000D01*
X117997263Y-97554592D01*
X117936103Y-97326337D01*
X117836235Y-97112171D01*
X117749150Y-96987799D01*
X117700694Y-96918597D01*
X117533602Y-96751506D01*
X117533595Y-96751501D01*
X117340034Y-96615967D01*
X117340030Y-96615965D01*
X117286304Y-96590912D01*
X117125863Y-96516097D01*
X117125859Y-96516096D01*
X117125855Y-96516094D01*
X116897613Y-96454938D01*
X116897603Y-96454936D01*
X116662201Y-96434341D01*
X116662199Y-96434341D01*
X116426796Y-96454936D01*
X116426786Y-96454938D01*
X116198544Y-96516094D01*
X116198535Y-96516098D01*
X115984371Y-96615964D01*
X115984369Y-96615965D01*
X115790797Y-96751505D01*
X115623705Y-96918597D01*
X115488165Y-97112169D01*
X115488164Y-97112171D01*
X115388298Y-97326335D01*
X115388294Y-97326344D01*
X115327138Y-97554586D01*
X115327136Y-97554596D01*
X115306541Y-97789999D01*
X115306541Y-97790000D01*
X115327136Y-98025403D01*
X115327138Y-98025413D01*
X115388294Y-98253655D01*
X115388296Y-98253659D01*
X115388297Y-98253663D01*
X115465050Y-98418259D01*
X115488165Y-98467830D01*
X115488167Y-98467834D01*
X115623701Y-98661395D01*
X115623706Y-98661402D01*
X115790797Y-98828493D01*
X115790803Y-98828498D01*
X115976358Y-98958425D01*
X116019983Y-99013002D01*
X116027177Y-99082500D01*
X115995654Y-99144855D01*
X115976358Y-99161575D01*
X115790797Y-99291505D01*
X115623705Y-99458597D01*
X115488165Y-99652169D01*
X115488164Y-99652171D01*
X115388298Y-99866335D01*
X115388294Y-99866344D01*
X115327138Y-100094586D01*
X115327136Y-100094596D01*
X115306541Y-100329999D01*
X115306541Y-100330000D01*
X115327136Y-100565403D01*
X115327138Y-100565413D01*
X115388294Y-100793655D01*
X115388296Y-100793659D01*
X115388297Y-100793663D01*
X115419043Y-100859598D01*
X115488165Y-101007830D01*
X115488167Y-101007834D01*
X115623701Y-101201395D01*
X115623706Y-101201402D01*
X115790797Y-101368493D01*
X115790803Y-101368498D01*
X115976358Y-101498425D01*
X116019983Y-101553002D01*
X116027177Y-101622500D01*
X115995654Y-101684855D01*
X115976358Y-101701575D01*
X115790797Y-101831505D01*
X115623705Y-101998597D01*
X115488165Y-102192169D01*
X115488164Y-102192171D01*
X115388298Y-102406335D01*
X115388294Y-102406344D01*
X115327138Y-102634586D01*
X115327136Y-102634596D01*
X115306541Y-102869999D01*
X115306541Y-102870000D01*
X112401514Y-102870000D01*
X112402459Y-102859200D01*
X112381863Y-102623792D01*
X112320703Y-102395537D01*
X112220835Y-102181371D01*
X112220834Y-102181369D01*
X112085294Y-101987797D01*
X111918203Y-101820706D01*
X111861987Y-101781344D01*
X111761201Y-101710773D01*
X111717578Y-101656199D01*
X111710384Y-101586700D01*
X111741906Y-101524345D01*
X111761198Y-101507628D01*
X111918201Y-101397695D01*
X112085295Y-101230601D01*
X112220835Y-101037030D01*
X112320703Y-100822863D01*
X112381863Y-100594608D01*
X112402459Y-100359200D01*
X112381863Y-100123792D01*
X112320703Y-99895537D01*
X112220835Y-99681371D01*
X112220834Y-99681369D01*
X112085294Y-99487797D01*
X111918203Y-99320706D01*
X111850452Y-99273267D01*
X111761201Y-99210773D01*
X111717578Y-99156199D01*
X111710384Y-99086700D01*
X111741906Y-99024345D01*
X111761198Y-99007628D01*
X111918201Y-98897695D01*
X112085295Y-98730601D01*
X112220835Y-98537030D01*
X112320703Y-98322863D01*
X112381863Y-98094608D01*
X112402459Y-97859200D01*
X112381863Y-97623792D01*
X112320703Y-97395537D01*
X112220835Y-97181371D01*
X112220834Y-97181369D01*
X112085294Y-96987797D01*
X111918202Y-96820705D01*
X111724630Y-96685165D01*
X111724628Y-96685164D01*
X111617546Y-96635231D01*
X111510463Y-96585297D01*
X111510459Y-96585296D01*
X111510455Y-96585294D01*
X111282213Y-96524138D01*
X111282203Y-96524136D01*
X111105766Y-96508700D01*
X110737834Y-96508700D01*
X110561396Y-96524136D01*
X110561386Y-96524138D01*
X110333144Y-96585294D01*
X110333135Y-96585298D01*
X110118971Y-96685164D01*
X110118969Y-96685165D01*
X109925397Y-96820705D01*
X109758306Y-96987797D01*
X109758301Y-96987804D01*
X109622767Y-97181365D01*
X109622765Y-97181369D01*
X109522898Y-97395535D01*
X109522894Y-97395544D01*
X109461738Y-97623786D01*
X109461736Y-97623796D01*
X109441141Y-97859199D01*
X109441141Y-97859200D01*
X109461736Y-98094603D01*
X109461738Y-98094613D01*
X109522894Y-98322855D01*
X109522896Y-98322859D01*
X109522897Y-98322863D01*
X109549301Y-98379486D01*
X109622764Y-98537028D01*
X109622765Y-98537030D01*
X109758305Y-98730602D01*
X109925397Y-98897694D01*
X110082395Y-99007625D01*
X110126020Y-99062202D01*
X110133214Y-99131700D01*
X110101691Y-99194055D01*
X110082395Y-99210775D01*
X109925397Y-99320705D01*
X109758306Y-99487797D01*
X109758301Y-99487804D01*
X109622767Y-99681365D01*
X109622765Y-99681369D01*
X109522898Y-99895535D01*
X109522894Y-99895544D01*
X109461738Y-100123786D01*
X109461736Y-100123796D01*
X109441141Y-100359199D01*
X109441141Y-100359200D01*
X109461736Y-100594603D01*
X109461738Y-100594613D01*
X109522894Y-100822855D01*
X109522896Y-100822859D01*
X109522897Y-100822863D01*
X109539936Y-100859402D01*
X109622764Y-101037028D01*
X109622765Y-101037030D01*
X109758305Y-101230602D01*
X109925397Y-101397694D01*
X110082395Y-101507625D01*
X110126020Y-101562202D01*
X110133214Y-101631700D01*
X110101691Y-101694055D01*
X110082395Y-101710775D01*
X109925397Y-101820705D01*
X109758306Y-101987797D01*
X109758301Y-101987804D01*
X109622767Y-102181365D01*
X109622765Y-102181369D01*
X109522898Y-102395535D01*
X109522894Y-102395544D01*
X109461738Y-102623786D01*
X109461736Y-102623796D01*
X109441141Y-102859199D01*
X109441141Y-102859200D01*
X96409295Y-102859200D01*
X96406819Y-99796604D01*
X101095037Y-99796604D01*
X101114860Y-100061135D01*
X101114861Y-100061140D01*
X101173890Y-100319766D01*
X101173896Y-100319785D01*
X101270814Y-100566728D01*
X101270813Y-100566728D01*
X101403457Y-100796471D01*
X101453642Y-100859403D01*
X101453643Y-100859403D01*
X102386923Y-99926123D01*
X102410507Y-100006444D01*
X102488239Y-100127398D01*
X102596900Y-100221552D01*
X102727685Y-100281280D01*
X102737466Y-100282686D01*
X101806438Y-101213712D01*
X101982525Y-101333766D01*
X101982526Y-101333767D01*
X102221530Y-101448864D01*
X102221528Y-101448864D01*
X102475025Y-101527058D01*
X102475031Y-101527059D01*
X102737351Y-101566599D01*
X102737358Y-101566600D01*
X103002642Y-101566600D01*
X103002648Y-101566599D01*
X103264968Y-101527059D01*
X103264974Y-101527058D01*
X103518470Y-101448864D01*
X103757479Y-101333764D01*
X103933560Y-101213712D01*
X103002533Y-100282686D01*
X103012315Y-100281280D01*
X103143100Y-100221552D01*
X103251761Y-100127398D01*
X103329493Y-100006444D01*
X103353076Y-99926124D01*
X104286355Y-100859403D01*
X104286356Y-100859402D01*
X104336545Y-100796469D01*
X104469185Y-100566728D01*
X104469186Y-100566728D01*
X104481501Y-100535348D01*
X104524315Y-100480133D01*
X104590185Y-100456831D01*
X104658196Y-100472839D01*
X104706755Y-100523076D01*
X104712357Y-100535342D01*
X104724761Y-100566946D01*
X104732932Y-100581098D01*
X104857442Y-100796755D01*
X105022892Y-101004223D01*
X105217416Y-101184714D01*
X105436668Y-101334198D01*
X105436673Y-101334200D01*
X105436674Y-101334201D01*
X105436676Y-101334202D01*
X105524102Y-101376304D01*
X105675750Y-101449334D01*
X105929322Y-101527550D01*
X105929323Y-101527550D01*
X105929326Y-101527551D01*
X106191711Y-101567099D01*
X106191716Y-101567099D01*
X106191719Y-101567100D01*
X106191720Y-101567100D01*
X106457080Y-101567100D01*
X106457081Y-101567100D01*
X106457088Y-101567099D01*
X106719473Y-101527551D01*
X106719474Y-101527550D01*
X106719478Y-101527550D01*
X106973050Y-101449334D01*
X107212133Y-101334198D01*
X107431384Y-101184714D01*
X107625908Y-101004223D01*
X107791358Y-100796755D01*
X107924039Y-100566945D01*
X108020986Y-100319927D01*
X108080035Y-100061219D01*
X108080041Y-100061140D01*
X108099865Y-99796604D01*
X108099865Y-99796595D01*
X108080036Y-99531990D01*
X108080035Y-99531985D01*
X108080035Y-99531981D01*
X108020986Y-99273273D01*
X107924039Y-99026255D01*
X107791358Y-98796445D01*
X107625908Y-98588977D01*
X107431384Y-98408486D01*
X107400282Y-98387281D01*
X107212136Y-98259004D01*
X107212125Y-98258997D01*
X106973055Y-98143868D01*
X106973036Y-98143861D01*
X106719483Y-98065651D01*
X106719473Y-98065648D01*
X106457088Y-98026100D01*
X106457081Y-98026100D01*
X106191719Y-98026100D01*
X106191711Y-98026100D01*
X105929326Y-98065648D01*
X105929316Y-98065651D01*
X105675763Y-98143861D01*
X105675744Y-98143868D01*
X105436676Y-98258997D01*
X105436674Y-98258998D01*
X105217415Y-98408486D01*
X105022894Y-98588975D01*
X105022892Y-98588977D01*
X104857442Y-98796445D01*
X104724762Y-99026252D01*
X104712357Y-99057858D01*
X104669539Y-99113070D01*
X104603669Y-99136369D01*
X104535658Y-99120356D01*
X104487102Y-99070117D01*
X104481501Y-99057853D01*
X104469183Y-99026467D01*
X104336543Y-98796729D01*
X104336536Y-98796718D01*
X104286356Y-98733796D01*
X104286355Y-98733795D01*
X103353076Y-99667075D01*
X103329493Y-99586756D01*
X103251761Y-99465802D01*
X103143100Y-99371648D01*
X103012315Y-99311920D01*
X103002534Y-99310513D01*
X103933560Y-98379486D01*
X103757484Y-98259439D01*
X103757474Y-98259432D01*
X103518469Y-98144335D01*
X103518471Y-98144335D01*
X103264974Y-98066141D01*
X103264968Y-98066140D01*
X103002648Y-98026600D01*
X102737351Y-98026600D01*
X102475031Y-98066140D01*
X102475025Y-98066141D01*
X102221529Y-98144335D01*
X101982526Y-98259432D01*
X101982518Y-98259437D01*
X101806438Y-98379486D01*
X102737466Y-99310513D01*
X102727685Y-99311920D01*
X102596900Y-99371648D01*
X102488239Y-99465802D01*
X102410507Y-99586756D01*
X102386923Y-99667076D01*
X101453643Y-98733796D01*
X101403456Y-98796728D01*
X101270814Y-99026471D01*
X101173896Y-99273414D01*
X101173890Y-99273433D01*
X101114861Y-99532059D01*
X101114860Y-99532064D01*
X101095037Y-99796595D01*
X101095037Y-99796604D01*
X96406819Y-99796604D01*
X96403082Y-95173804D01*
X101094535Y-95173804D01*
X101114363Y-95438409D01*
X101114364Y-95438414D01*
X101173410Y-95697113D01*
X101173412Y-95697122D01*
X101173414Y-95697127D01*
X101270361Y-95944145D01*
X101403042Y-96173955D01*
X101568492Y-96381423D01*
X101763016Y-96561914D01*
X101982268Y-96711398D01*
X101982273Y-96711400D01*
X101982274Y-96711401D01*
X101982276Y-96711402D01*
X102065551Y-96751505D01*
X102221350Y-96826534D01*
X102474922Y-96904750D01*
X102474923Y-96904750D01*
X102474926Y-96904751D01*
X102737311Y-96944299D01*
X102737316Y-96944299D01*
X102737319Y-96944300D01*
X102737320Y-96944300D01*
X103002680Y-96944300D01*
X103002681Y-96944300D01*
X103002688Y-96944299D01*
X103265073Y-96904751D01*
X103265074Y-96904750D01*
X103265078Y-96904750D01*
X103518650Y-96826534D01*
X103757733Y-96711398D01*
X103976984Y-96561914D01*
X104171508Y-96381423D01*
X104336958Y-96173955D01*
X104469639Y-95944145D01*
X104482042Y-95912542D01*
X104524856Y-95857331D01*
X104590726Y-95834030D01*
X104658737Y-95850040D01*
X104707295Y-95900278D01*
X104712897Y-95912545D01*
X104725214Y-95943928D01*
X104725213Y-95943928D01*
X104857857Y-96173671D01*
X104908042Y-96236603D01*
X104908043Y-96236603D01*
X105841323Y-95303323D01*
X105864907Y-95383644D01*
X105942639Y-95504598D01*
X106051300Y-95598752D01*
X106182085Y-95658480D01*
X106191866Y-95659886D01*
X105260838Y-96590912D01*
X105436925Y-96710966D01*
X105436926Y-96710967D01*
X105675930Y-96826064D01*
X105675928Y-96826064D01*
X105929425Y-96904258D01*
X105929431Y-96904259D01*
X106191751Y-96943799D01*
X106191758Y-96943800D01*
X106457042Y-96943800D01*
X106457048Y-96943799D01*
X106719368Y-96904259D01*
X106719374Y-96904258D01*
X106972870Y-96826064D01*
X107211879Y-96710964D01*
X107387960Y-96590912D01*
X106456933Y-95659886D01*
X106466715Y-95658480D01*
X106597500Y-95598752D01*
X106706161Y-95504598D01*
X106783893Y-95383644D01*
X106807476Y-95303324D01*
X107740755Y-96236603D01*
X107740756Y-96236602D01*
X107790945Y-96173669D01*
X107923585Y-95943928D01*
X108020503Y-95696985D01*
X108020509Y-95696966D01*
X108079538Y-95438340D01*
X108079539Y-95438335D01*
X108099363Y-95173804D01*
X108099363Y-95173795D01*
X108079539Y-94909264D01*
X108079538Y-94909259D01*
X108020509Y-94650633D01*
X108020503Y-94650614D01*
X107923585Y-94403671D01*
X107923586Y-94403671D01*
X107790943Y-94173929D01*
X107790936Y-94173918D01*
X107740756Y-94110996D01*
X107740755Y-94110995D01*
X106807476Y-95044275D01*
X106783893Y-94963956D01*
X106706161Y-94843002D01*
X106597500Y-94748848D01*
X106466715Y-94689120D01*
X106456934Y-94687713D01*
X107387960Y-93756686D01*
X107211884Y-93636639D01*
X107211874Y-93636632D01*
X106972869Y-93521535D01*
X106972871Y-93521535D01*
X106719374Y-93443341D01*
X106719368Y-93443340D01*
X106457048Y-93403800D01*
X106191751Y-93403800D01*
X105929431Y-93443340D01*
X105929425Y-93443341D01*
X105675929Y-93521535D01*
X105436926Y-93636632D01*
X105436918Y-93636637D01*
X105260838Y-93756686D01*
X106191866Y-94687713D01*
X106182085Y-94689120D01*
X106051300Y-94748848D01*
X105942639Y-94843002D01*
X105864907Y-94963956D01*
X105841323Y-95044276D01*
X104908043Y-94110996D01*
X104857856Y-94173928D01*
X104725215Y-94403669D01*
X104712897Y-94435055D01*
X104670080Y-94490269D01*
X104604210Y-94513569D01*
X104536200Y-94497558D01*
X104487642Y-94447319D01*
X104482041Y-94435055D01*
X104469639Y-94403455D01*
X104336958Y-94173645D01*
X104171508Y-93966177D01*
X103976984Y-93785686D01*
X103757733Y-93636202D01*
X103757732Y-93636201D01*
X103757725Y-93636197D01*
X103518655Y-93521068D01*
X103518636Y-93521061D01*
X103265083Y-93442851D01*
X103265073Y-93442848D01*
X103002688Y-93403300D01*
X103002681Y-93403300D01*
X102737319Y-93403300D01*
X102737311Y-93403300D01*
X102474926Y-93442848D01*
X102474916Y-93442851D01*
X102221363Y-93521061D01*
X102221344Y-93521068D01*
X101982276Y-93636197D01*
X101982274Y-93636198D01*
X101763015Y-93785686D01*
X101568494Y-93966175D01*
X101568492Y-93966177D01*
X101403042Y-94173645D01*
X101270361Y-94403454D01*
X101173416Y-94650467D01*
X101173410Y-94650486D01*
X101114364Y-94909185D01*
X101114363Y-94909190D01*
X101094535Y-95173795D01*
X101094535Y-95173804D01*
X96403082Y-95173804D01*
X96396975Y-87619200D01*
X109339541Y-87619200D01*
X109360136Y-87854603D01*
X109360138Y-87854613D01*
X109421294Y-88082855D01*
X109421296Y-88082859D01*
X109421297Y-88082863D01*
X109438341Y-88119413D01*
X109521164Y-88297028D01*
X109521165Y-88297030D01*
X109656705Y-88490602D01*
X109803904Y-88637801D01*
X109837389Y-88699124D01*
X109832405Y-88768816D01*
X109790533Y-88824749D01*
X109781320Y-88831020D01*
X109626547Y-88926485D01*
X109626543Y-88926488D01*
X109502489Y-89050542D01*
X109410387Y-89199863D01*
X109410386Y-89199866D01*
X109355201Y-89366403D01*
X109355201Y-89366404D01*
X109355200Y-89366404D01*
X109344700Y-89469183D01*
X109344700Y-90769201D01*
X109344701Y-90769218D01*
X109355200Y-90871996D01*
X109355201Y-90871999D01*
X109410385Y-91038531D01*
X109410386Y-91038534D01*
X109502488Y-91187856D01*
X109626544Y-91311912D01*
X109775866Y-91404014D01*
X109942403Y-91459199D01*
X110045191Y-91469700D01*
X111595208Y-91469699D01*
X111697997Y-91459199D01*
X111864534Y-91404014D01*
X112013856Y-91311912D01*
X112137912Y-91187856D01*
X112230014Y-91038534D01*
X112285199Y-90871997D01*
X112295700Y-90769209D01*
X112295699Y-89469192D01*
X112285199Y-89366403D01*
X112230014Y-89199866D01*
X112137912Y-89050544D01*
X112013856Y-88926488D01*
X111932858Y-88876528D01*
X111859079Y-88831021D01*
X111812355Y-88779073D01*
X111801132Y-88710110D01*
X111828976Y-88646028D01*
X111836495Y-88637801D01*
X111983695Y-88490601D01*
X112119235Y-88297030D01*
X112219103Y-88082863D01*
X112272388Y-87884000D01*
X115306541Y-87884000D01*
X115327136Y-88119403D01*
X115327138Y-88119413D01*
X115388294Y-88347655D01*
X115388296Y-88347659D01*
X115388297Y-88347663D01*
X115454950Y-88490601D01*
X115488165Y-88561830D01*
X115488167Y-88561834D01*
X115547121Y-88646028D01*
X115623701Y-88755396D01*
X115623706Y-88755402D01*
X115745630Y-88877326D01*
X115779115Y-88938649D01*
X115774131Y-89008341D01*
X115732259Y-89064274D01*
X115701283Y-89081189D01*
X115569869Y-89130203D01*
X115569864Y-89130206D01*
X115454655Y-89216452D01*
X115454652Y-89216455D01*
X115368406Y-89331664D01*
X115368402Y-89331671D01*
X115318108Y-89466517D01*
X115311701Y-89526116D01*
X115311701Y-89526123D01*
X115311700Y-89526135D01*
X115311700Y-91321870D01*
X115311701Y-91321876D01*
X115318108Y-91381483D01*
X115368402Y-91516328D01*
X115368406Y-91516335D01*
X115454652Y-91631544D01*
X115454655Y-91631547D01*
X115569864Y-91717793D01*
X115569871Y-91717797D01*
X115704717Y-91768091D01*
X115704716Y-91768091D01*
X115711644Y-91768835D01*
X115764327Y-91774500D01*
X117560072Y-91774499D01*
X117619683Y-91768091D01*
X117754531Y-91717796D01*
X117869746Y-91631546D01*
X117955996Y-91516331D01*
X118006291Y-91381483D01*
X118012700Y-91321873D01*
X118012699Y-89526128D01*
X118006579Y-89469192D01*
X118006291Y-89466516D01*
X117955997Y-89331671D01*
X117955993Y-89331664D01*
X117869747Y-89216455D01*
X117869744Y-89216452D01*
X117754535Y-89130206D01*
X117754528Y-89130202D01*
X117623117Y-89081189D01*
X117567183Y-89039318D01*
X117542766Y-88973853D01*
X117557618Y-88905580D01*
X117578763Y-88877332D01*
X117700695Y-88755401D01*
X117836235Y-88561830D01*
X117936103Y-88347663D01*
X117997263Y-88119408D01*
X118017859Y-87884000D01*
X118015287Y-87854608D01*
X117997263Y-87648596D01*
X117997263Y-87648592D01*
X117936103Y-87420337D01*
X117836235Y-87206171D01*
X117800780Y-87155535D01*
X117700694Y-87012597D01*
X117533602Y-86845506D01*
X117533596Y-86845501D01*
X117348042Y-86715575D01*
X117304417Y-86660998D01*
X117297223Y-86591500D01*
X117328746Y-86529145D01*
X117348042Y-86512425D01*
X117444099Y-86445165D01*
X117533601Y-86382495D01*
X117700695Y-86215401D01*
X117836235Y-86021830D01*
X117936103Y-85807663D01*
X117997263Y-85579408D01*
X118017859Y-85344000D01*
X117997263Y-85108592D01*
X117936103Y-84880337D01*
X117836235Y-84666171D01*
X117700695Y-84472599D01*
X117700694Y-84472597D01*
X117533602Y-84305506D01*
X117533596Y-84305501D01*
X117348042Y-84175575D01*
X117304417Y-84120998D01*
X117297223Y-84051500D01*
X117328746Y-83989145D01*
X117348042Y-83972425D01*
X117495462Y-83869200D01*
X117533601Y-83842495D01*
X117700695Y-83675401D01*
X117836235Y-83481830D01*
X117936103Y-83267663D01*
X117997263Y-83039408D01*
X118017859Y-82804000D01*
X117997263Y-82568592D01*
X117936103Y-82340337D01*
X117836235Y-82126171D01*
X117706838Y-81941371D01*
X117700694Y-81932597D01*
X117533602Y-81765506D01*
X117533595Y-81765501D01*
X117340034Y-81629967D01*
X117340030Y-81629965D01*
X117340028Y-81629964D01*
X117125863Y-81530097D01*
X117125859Y-81530096D01*
X117125855Y-81530094D01*
X116897613Y-81468938D01*
X116897603Y-81468936D01*
X116662201Y-81448341D01*
X116662199Y-81448341D01*
X116426796Y-81468936D01*
X116426786Y-81468938D01*
X116198544Y-81530094D01*
X116198535Y-81530098D01*
X115984371Y-81629964D01*
X115984369Y-81629965D01*
X115790797Y-81765505D01*
X115623705Y-81932597D01*
X115488165Y-82126169D01*
X115488164Y-82126171D01*
X115388298Y-82340335D01*
X115388294Y-82340344D01*
X115327138Y-82568586D01*
X115327136Y-82568596D01*
X115306541Y-82803999D01*
X115306541Y-82804000D01*
X115327136Y-83039403D01*
X115327138Y-83039413D01*
X115388294Y-83267655D01*
X115388296Y-83267659D01*
X115388297Y-83267663D01*
X115401993Y-83297034D01*
X115488165Y-83481830D01*
X115488167Y-83481834D01*
X115596481Y-83636521D01*
X115611306Y-83657694D01*
X115623701Y-83675395D01*
X115623706Y-83675402D01*
X115790797Y-83842493D01*
X115790803Y-83842498D01*
X115976358Y-83972425D01*
X116019983Y-84027002D01*
X116027177Y-84096500D01*
X115995654Y-84158855D01*
X115976358Y-84175575D01*
X115790797Y-84305505D01*
X115623705Y-84472597D01*
X115488165Y-84666169D01*
X115488164Y-84666171D01*
X115388298Y-84880335D01*
X115388294Y-84880344D01*
X115327138Y-85108586D01*
X115327136Y-85108596D01*
X115306541Y-85343999D01*
X115306541Y-85344000D01*
X115327136Y-85579403D01*
X115327138Y-85579413D01*
X115388294Y-85807655D01*
X115388296Y-85807659D01*
X115388297Y-85807663D01*
X115473600Y-85990595D01*
X115488165Y-86021830D01*
X115488167Y-86021834D01*
X115623701Y-86215395D01*
X115623706Y-86215402D01*
X115790797Y-86382493D01*
X115790803Y-86382498D01*
X115976358Y-86512425D01*
X116019983Y-86567002D01*
X116027177Y-86636500D01*
X115995654Y-86698855D01*
X115976358Y-86715575D01*
X115790797Y-86845505D01*
X115623705Y-87012597D01*
X115488165Y-87206169D01*
X115488164Y-87206171D01*
X115388298Y-87420335D01*
X115388294Y-87420344D01*
X115327138Y-87648586D01*
X115327136Y-87648596D01*
X115306541Y-87883999D01*
X115306541Y-87884000D01*
X112272388Y-87884000D01*
X112280263Y-87854608D01*
X112300859Y-87619200D01*
X112280263Y-87383792D01*
X112219103Y-87155537D01*
X112119235Y-86941371D01*
X112119234Y-86941369D01*
X111983694Y-86747797D01*
X111816603Y-86580706D01*
X111742965Y-86529145D01*
X111659601Y-86470773D01*
X111615978Y-86416199D01*
X111608784Y-86346700D01*
X111640306Y-86284345D01*
X111659598Y-86267628D01*
X111816601Y-86157695D01*
X111983695Y-85990601D01*
X112119235Y-85797030D01*
X112219103Y-85582863D01*
X112280263Y-85354608D01*
X112300859Y-85119200D01*
X112280263Y-84883792D01*
X112219103Y-84655537D01*
X112119235Y-84441371D01*
X112119234Y-84441369D01*
X111983694Y-84247797D01*
X111816603Y-84080706D01*
X111739905Y-84027002D01*
X111659601Y-83970773D01*
X111615978Y-83916199D01*
X111608784Y-83846700D01*
X111640306Y-83784345D01*
X111659598Y-83767628D01*
X111816601Y-83657695D01*
X111983695Y-83490601D01*
X112119235Y-83297030D01*
X112219103Y-83082863D01*
X112280263Y-82854608D01*
X112300859Y-82619200D01*
X112280263Y-82383792D01*
X112219103Y-82155537D01*
X112119235Y-81941371D01*
X112119234Y-81941369D01*
X111983694Y-81747797D01*
X111816602Y-81580705D01*
X111623030Y-81445165D01*
X111623028Y-81445164D01*
X111515946Y-81395231D01*
X111408863Y-81345297D01*
X111408859Y-81345296D01*
X111408855Y-81345294D01*
X111180613Y-81284138D01*
X111180603Y-81284136D01*
X111004166Y-81268700D01*
X110636234Y-81268700D01*
X110459796Y-81284136D01*
X110459786Y-81284138D01*
X110231544Y-81345294D01*
X110231535Y-81345298D01*
X110017371Y-81445164D01*
X110017369Y-81445165D01*
X109823797Y-81580705D01*
X109656706Y-81747797D01*
X109656701Y-81747804D01*
X109521167Y-81941365D01*
X109521165Y-81941369D01*
X109421298Y-82155535D01*
X109421294Y-82155544D01*
X109360138Y-82383786D01*
X109360136Y-82383796D01*
X109339541Y-82619199D01*
X109339541Y-82619200D01*
X109360136Y-82854603D01*
X109360138Y-82854613D01*
X109421294Y-83082855D01*
X109421296Y-83082859D01*
X109421297Y-83082863D01*
X109471231Y-83189946D01*
X109521164Y-83297028D01*
X109521165Y-83297030D01*
X109656705Y-83490602D01*
X109823797Y-83657694D01*
X109980795Y-83767625D01*
X110024420Y-83822202D01*
X110031614Y-83891700D01*
X110000091Y-83954055D01*
X109980795Y-83970775D01*
X109823797Y-84080705D01*
X109656706Y-84247797D01*
X109656701Y-84247804D01*
X109521167Y-84441365D01*
X109521165Y-84441369D01*
X109421298Y-84655535D01*
X109421294Y-84655544D01*
X109360138Y-84883786D01*
X109360136Y-84883796D01*
X109339541Y-85119199D01*
X109339541Y-85119200D01*
X109360136Y-85354603D01*
X109360138Y-85354613D01*
X109421294Y-85582855D01*
X109421296Y-85582859D01*
X109421297Y-85582863D01*
X109471231Y-85689946D01*
X109521164Y-85797028D01*
X109521165Y-85797030D01*
X109656705Y-85990602D01*
X109823797Y-86157694D01*
X109980795Y-86267625D01*
X110024420Y-86322202D01*
X110031614Y-86391700D01*
X110000091Y-86454055D01*
X109980795Y-86470775D01*
X109823797Y-86580705D01*
X109656706Y-86747797D01*
X109656701Y-86747804D01*
X109521167Y-86941365D01*
X109521165Y-86941369D01*
X109421298Y-87155535D01*
X109421294Y-87155544D01*
X109360138Y-87383786D01*
X109360136Y-87383796D01*
X109339541Y-87619199D01*
X109339541Y-87619200D01*
X96396975Y-87619200D01*
X96388994Y-77747353D01*
X96388708Y-77393804D01*
X101095037Y-77393804D01*
X101114860Y-77658335D01*
X101114861Y-77658340D01*
X101173890Y-77916966D01*
X101173896Y-77916985D01*
X101270814Y-78163928D01*
X101270813Y-78163928D01*
X101403457Y-78393671D01*
X101453642Y-78456603D01*
X101453643Y-78456603D01*
X102386923Y-77523323D01*
X102410507Y-77603644D01*
X102488239Y-77724598D01*
X102596900Y-77818752D01*
X102727685Y-77878480D01*
X102737466Y-77879886D01*
X101806438Y-78810912D01*
X101982525Y-78930966D01*
X101982526Y-78930967D01*
X102221530Y-79046064D01*
X102221528Y-79046064D01*
X102475025Y-79124258D01*
X102475031Y-79124259D01*
X102737351Y-79163799D01*
X102737358Y-79163800D01*
X103002642Y-79163800D01*
X103002648Y-79163799D01*
X103264968Y-79124259D01*
X103264974Y-79124258D01*
X103518470Y-79046064D01*
X103757479Y-78930964D01*
X103933560Y-78810912D01*
X103002533Y-77879886D01*
X103012315Y-77878480D01*
X103143100Y-77818752D01*
X103251761Y-77724598D01*
X103329493Y-77603644D01*
X103353076Y-77523324D01*
X104286355Y-78456603D01*
X104286356Y-78456602D01*
X104336545Y-78393669D01*
X104469185Y-78163928D01*
X104469186Y-78163928D01*
X104481501Y-78132548D01*
X104524315Y-78077333D01*
X104590185Y-78054031D01*
X104658196Y-78070039D01*
X104706755Y-78120276D01*
X104712357Y-78132542D01*
X104724761Y-78164146D01*
X104791101Y-78279050D01*
X104857442Y-78393955D01*
X105022892Y-78601423D01*
X105217416Y-78781914D01*
X105436668Y-78931398D01*
X105675750Y-79046534D01*
X105929322Y-79124750D01*
X105929323Y-79124750D01*
X105929326Y-79124751D01*
X106191711Y-79164299D01*
X106191716Y-79164299D01*
X106191719Y-79164300D01*
X106191720Y-79164300D01*
X106457080Y-79164300D01*
X106457081Y-79164300D01*
X106457088Y-79164299D01*
X106719473Y-79124751D01*
X106719474Y-79124750D01*
X106719478Y-79124750D01*
X106973050Y-79046534D01*
X107212133Y-78931398D01*
X107431384Y-78781914D01*
X107625908Y-78601423D01*
X107791358Y-78393955D01*
X107924039Y-78164145D01*
X108020986Y-77917127D01*
X108080035Y-77658419D01*
X108080041Y-77658340D01*
X108099865Y-77393804D01*
X108099865Y-77393795D01*
X108080036Y-77129190D01*
X108080035Y-77129185D01*
X108080035Y-77129181D01*
X108020986Y-76870473D01*
X107924039Y-76623455D01*
X107791358Y-76393645D01*
X107625908Y-76186177D01*
X107431384Y-76005686D01*
X107212133Y-75856202D01*
X107212132Y-75856201D01*
X107212125Y-75856197D01*
X106973055Y-75741068D01*
X106973036Y-75741061D01*
X106719483Y-75662851D01*
X106719473Y-75662848D01*
X106457088Y-75623300D01*
X106457081Y-75623300D01*
X106191719Y-75623300D01*
X106191711Y-75623300D01*
X105929326Y-75662848D01*
X105929316Y-75662851D01*
X105675763Y-75741061D01*
X105675744Y-75741068D01*
X105436676Y-75856197D01*
X105436674Y-75856198D01*
X105217415Y-76005686D01*
X105022894Y-76186175D01*
X105022892Y-76186177D01*
X104857442Y-76393645D01*
X104724762Y-76623452D01*
X104712357Y-76655058D01*
X104669539Y-76710270D01*
X104603669Y-76733569D01*
X104535658Y-76717556D01*
X104487102Y-76667317D01*
X104481501Y-76655053D01*
X104469183Y-76623667D01*
X104336543Y-76393929D01*
X104336536Y-76393918D01*
X104286356Y-76330996D01*
X104286355Y-76330995D01*
X103353076Y-77264275D01*
X103329493Y-77183956D01*
X103251761Y-77063002D01*
X103143100Y-76968848D01*
X103012315Y-76909120D01*
X103002534Y-76907713D01*
X103933560Y-75976686D01*
X103757484Y-75856639D01*
X103757474Y-75856632D01*
X103518469Y-75741535D01*
X103518471Y-75741535D01*
X103264974Y-75663341D01*
X103264968Y-75663340D01*
X103002648Y-75623800D01*
X102737351Y-75623800D01*
X102475031Y-75663340D01*
X102475025Y-75663341D01*
X102221529Y-75741535D01*
X101982526Y-75856632D01*
X101982518Y-75856637D01*
X101806438Y-75976686D01*
X102737466Y-76907713D01*
X102727685Y-76909120D01*
X102596900Y-76968848D01*
X102488239Y-77063002D01*
X102410507Y-77183956D01*
X102386923Y-77264276D01*
X101453643Y-76330996D01*
X101403456Y-76393928D01*
X101270814Y-76623671D01*
X101173896Y-76870614D01*
X101173890Y-76870633D01*
X101114861Y-77129259D01*
X101114860Y-77129264D01*
X101095037Y-77393795D01*
X101095037Y-77393804D01*
X96388708Y-77393804D01*
X96384909Y-72694804D01*
X110873535Y-72694804D01*
X110893363Y-72959409D01*
X110893364Y-72959414D01*
X110952410Y-73218113D01*
X110952412Y-73218122D01*
X110952414Y-73218127D01*
X111049361Y-73465145D01*
X111182042Y-73694955D01*
X111347492Y-73902423D01*
X111542016Y-74082914D01*
X111761268Y-74232398D01*
X112000350Y-74347534D01*
X112253922Y-74425750D01*
X112253923Y-74425750D01*
X112253926Y-74425751D01*
X112516311Y-74465299D01*
X112516316Y-74465299D01*
X112516319Y-74465300D01*
X112516320Y-74465300D01*
X112781680Y-74465300D01*
X112781681Y-74465300D01*
X112781688Y-74465299D01*
X113044073Y-74425751D01*
X113044074Y-74425750D01*
X113044078Y-74425750D01*
X113297650Y-74347534D01*
X113536733Y-74232398D01*
X113755984Y-74082914D01*
X113950508Y-73902423D01*
X114115958Y-73694955D01*
X114248639Y-73465145D01*
X114345586Y-73218127D01*
X114404635Y-72959419D01*
X114404641Y-72959340D01*
X114424465Y-72694804D01*
X115674637Y-72694804D01*
X115694460Y-72959335D01*
X115694461Y-72959340D01*
X115753490Y-73217966D01*
X115753496Y-73217985D01*
X115850414Y-73464928D01*
X115850413Y-73464928D01*
X115983057Y-73694671D01*
X116033242Y-73757603D01*
X116033243Y-73757603D01*
X116966523Y-72824323D01*
X116990107Y-72904644D01*
X117067839Y-73025598D01*
X117176500Y-73119752D01*
X117307285Y-73179480D01*
X117317066Y-73180886D01*
X116386038Y-74111912D01*
X116562125Y-74231966D01*
X116562126Y-74231967D01*
X116801129Y-74347064D01*
X116883619Y-74372509D01*
X116941878Y-74411079D01*
X116970036Y-74475024D01*
X116959152Y-74544041D01*
X116912684Y-74596218D01*
X116845383Y-74614989D01*
X116834916Y-74614403D01*
X116789201Y-74609901D01*
X116789200Y-74609901D01*
X116602868Y-74628252D01*
X116602866Y-74628253D01*
X116423697Y-74682604D01*
X116258576Y-74770862D01*
X116258573Y-74770864D01*
X116113842Y-74889642D01*
X115995064Y-75034373D01*
X115995062Y-75034376D01*
X115906804Y-75199497D01*
X115852453Y-75378666D01*
X115852452Y-75378668D01*
X115834101Y-75565000D01*
X115852452Y-75751331D01*
X115852453Y-75751333D01*
X115906804Y-75930502D01*
X115995062Y-76095623D01*
X115995064Y-76095626D01*
X116113842Y-76240357D01*
X116258573Y-76359135D01*
X116258576Y-76359137D01*
X116376620Y-76422232D01*
X116423699Y-76447396D01*
X116602866Y-76501746D01*
X116602868Y-76501747D01*
X116619574Y-76503392D01*
X116789200Y-76520099D01*
X116975531Y-76501747D01*
X117154701Y-76447396D01*
X117319825Y-76359136D01*
X117369161Y-76318647D01*
X117433471Y-76291334D01*
X117447826Y-76290500D01*
X119318113Y-76290500D01*
X119336082Y-76291809D01*
X119339810Y-76292354D01*
X119358756Y-76295130D01*
X119408984Y-76290735D01*
X119414385Y-76290500D01*
X119422251Y-76290500D01*
X119422256Y-76290500D01*
X119444880Y-76287855D01*
X119453736Y-76286820D01*
X119472228Y-76285202D01*
X119527708Y-76280349D01*
X119527712Y-76280347D01*
X119534784Y-76278888D01*
X119534803Y-76278984D01*
X119541441Y-76277512D01*
X119541419Y-76277416D01*
X119548440Y-76275751D01*
X119548451Y-76275750D01*
X119618202Y-76250362D01*
X119688697Y-76227003D01*
X119688706Y-76226997D01*
X119695245Y-76223949D01*
X119695286Y-76224038D01*
X119701409Y-76221074D01*
X119701365Y-76220986D01*
X119707812Y-76217746D01*
X119707820Y-76217744D01*
X119769841Y-76176952D01*
X119833044Y-76137968D01*
X119833049Y-76137962D01*
X119838708Y-76133489D01*
X119838769Y-76133566D01*
X119844048Y-76129266D01*
X119843985Y-76129190D01*
X119849507Y-76124554D01*
X119849517Y-76124549D01*
X119900468Y-76070543D01*
X121193593Y-74777419D01*
X121254916Y-74743934D01*
X121281274Y-74741100D01*
X124956174Y-74741100D01*
X125023213Y-74760785D01*
X125034839Y-74769247D01*
X125084173Y-74809735D01*
X125084176Y-74809737D01*
X125249297Y-74897995D01*
X125249299Y-74897996D01*
X125428466Y-74952346D01*
X125428468Y-74952347D01*
X125445174Y-74953992D01*
X125614800Y-74970699D01*
X125801131Y-74952347D01*
X125980301Y-74897996D01*
X126145425Y-74809736D01*
X126290157Y-74690957D01*
X126408936Y-74546225D01*
X126497196Y-74381101D01*
X126551547Y-74201931D01*
X126569899Y-74015600D01*
X126551547Y-73829269D01*
X126497196Y-73650099D01*
X126408936Y-73484975D01*
X126408935Y-73484973D01*
X126290157Y-73340242D01*
X126150681Y-73225777D01*
X126111347Y-73168031D01*
X126109476Y-73098187D01*
X126145664Y-73038418D01*
X126164069Y-73024497D01*
X126269684Y-72959103D01*
X126432048Y-72811088D01*
X126564451Y-72635759D01*
X126662382Y-72439087D01*
X126702934Y-72296560D01*
X126740212Y-72237468D01*
X126803522Y-72207910D01*
X126872761Y-72217272D01*
X126925948Y-72262581D01*
X126941465Y-72296558D01*
X126955244Y-72344984D01*
X126982018Y-72439089D01*
X127079949Y-72635759D01*
X127212353Y-72811090D01*
X127349468Y-72936086D01*
X127374716Y-72959103D01*
X127561513Y-73074763D01*
X127766383Y-73154129D01*
X127982347Y-73194500D01*
X127982349Y-73194500D01*
X128202051Y-73194500D01*
X128202053Y-73194500D01*
X128418017Y-73154129D01*
X128622887Y-73074763D01*
X128809684Y-72959103D01*
X128972048Y-72811088D01*
X129104451Y-72635759D01*
X129202382Y-72439087D01*
X129203933Y-72433636D01*
X129241212Y-72374542D01*
X129304522Y-72344984D01*
X129373761Y-72354346D01*
X129426948Y-72399655D01*
X129447196Y-72466526D01*
X129447200Y-72467569D01*
X129447200Y-72741844D01*
X129453601Y-72801372D01*
X129453603Y-72801379D01*
X129503845Y-72936086D01*
X129503849Y-72936093D01*
X129590009Y-73051187D01*
X129590012Y-73051190D01*
X129705106Y-73137350D01*
X129705113Y-73137354D01*
X129839820Y-73187596D01*
X129839827Y-73187598D01*
X129899355Y-73193999D01*
X129899372Y-73194000D01*
X130382200Y-73194000D01*
X130382200Y-72455494D01*
X130487039Y-72503373D01*
X130595727Y-72519000D01*
X130668673Y-72519000D01*
X130777361Y-72503373D01*
X130882200Y-72455494D01*
X130882200Y-73194000D01*
X131365028Y-73194000D01*
X131365044Y-73193999D01*
X131424572Y-73187598D01*
X131424579Y-73187596D01*
X131559286Y-73137354D01*
X131559293Y-73137350D01*
X131674387Y-73051190D01*
X131674390Y-73051187D01*
X131760550Y-72936093D01*
X131760554Y-72936086D01*
X131810796Y-72801379D01*
X131810798Y-72801372D01*
X131817199Y-72741844D01*
X131817200Y-72741827D01*
X131817200Y-72259000D01*
X131077772Y-72259000D01*
X131100882Y-72223040D01*
X131142200Y-72082327D01*
X131142200Y-71935673D01*
X131100882Y-71794960D01*
X131077772Y-71759000D01*
X131817200Y-71759000D01*
X131817200Y-71276172D01*
X131817199Y-71276155D01*
X131810798Y-71216627D01*
X131810796Y-71216620D01*
X131760554Y-71081913D01*
X131760550Y-71081906D01*
X131674390Y-70966812D01*
X131674387Y-70966809D01*
X131559293Y-70880649D01*
X131559286Y-70880645D01*
X131424579Y-70830403D01*
X131424572Y-70830401D01*
X131365044Y-70824000D01*
X131078236Y-70824000D01*
X131011197Y-70804315D01*
X130965442Y-70751511D01*
X130955498Y-70682353D01*
X130984523Y-70618797D01*
X131033442Y-70584374D01*
X131162662Y-70534313D01*
X131162664Y-70534312D01*
X131274631Y-70464984D01*
X130773566Y-69963918D01*
X130777361Y-69963373D01*
X130910762Y-69902451D01*
X131021595Y-69806413D01*
X131100882Y-69683040D01*
X131123333Y-69606580D01*
X131630350Y-70113598D01*
X131630352Y-70113597D01*
X131644022Y-70095497D01*
X131644024Y-70095493D01*
X131741909Y-69898915D01*
X131741915Y-69898900D01*
X131802013Y-69687677D01*
X131802014Y-69687675D01*
X131822277Y-69469000D01*
X131822277Y-69468999D01*
X131802014Y-69250324D01*
X131802013Y-69250322D01*
X131741915Y-69039099D01*
X131741909Y-69039084D01*
X131644027Y-68842510D01*
X131644022Y-68842502D01*
X131630351Y-68824400D01*
X131123333Y-69331419D01*
X131100882Y-69254960D01*
X131021595Y-69131587D01*
X130910762Y-69035549D01*
X130777361Y-68974627D01*
X130773565Y-68974081D01*
X131274631Y-68473014D01*
X131274630Y-68473013D01*
X131162666Y-68403689D01*
X131162660Y-68403685D01*
X130957878Y-68324353D01*
X130957876Y-68324352D01*
X130939346Y-68320889D01*
X130877065Y-68289221D01*
X130841791Y-68228909D01*
X130844724Y-68159101D01*
X130884933Y-68101961D01*
X130939346Y-68077111D01*
X130957876Y-68073647D01*
X130957887Y-68073643D01*
X131162662Y-67994313D01*
X131162664Y-67994312D01*
X131274631Y-67924984D01*
X130773566Y-67423918D01*
X130777361Y-67423373D01*
X130910762Y-67362451D01*
X131021595Y-67266413D01*
X131100882Y-67143040D01*
X131123333Y-67066580D01*
X131630350Y-67573598D01*
X131630352Y-67573597D01*
X131644022Y-67555497D01*
X131644024Y-67555493D01*
X131741909Y-67358915D01*
X131741915Y-67358900D01*
X131802013Y-67147677D01*
X131802014Y-67147675D01*
X131822277Y-66929000D01*
X131822277Y-66928999D01*
X131802014Y-66710324D01*
X131802013Y-66710322D01*
X131741915Y-66499099D01*
X131741909Y-66499084D01*
X131644027Y-66302510D01*
X131644022Y-66302502D01*
X131630351Y-66284400D01*
X131123333Y-66791419D01*
X131100882Y-66714960D01*
X131021595Y-66591587D01*
X130910762Y-66495549D01*
X130777361Y-66434627D01*
X130773565Y-66434081D01*
X131274631Y-65933014D01*
X131274630Y-65933013D01*
X131162666Y-65863689D01*
X131162660Y-65863685D01*
X130957878Y-65784353D01*
X130957876Y-65784352D01*
X130939346Y-65780889D01*
X130877065Y-65749221D01*
X130841791Y-65688909D01*
X130844724Y-65619101D01*
X130884933Y-65561961D01*
X130939346Y-65537111D01*
X130957876Y-65533647D01*
X130957887Y-65533643D01*
X131162662Y-65454313D01*
X131162664Y-65454312D01*
X131274631Y-65384984D01*
X130773566Y-64883918D01*
X130777361Y-64883373D01*
X130910762Y-64822451D01*
X131021595Y-64726413D01*
X131100882Y-64603040D01*
X131123333Y-64526580D01*
X131630350Y-65033598D01*
X131630352Y-65033597D01*
X131644022Y-65015497D01*
X131644024Y-65015493D01*
X131741909Y-64818915D01*
X131741915Y-64818900D01*
X131802013Y-64607677D01*
X131802014Y-64607675D01*
X131822277Y-64389000D01*
X131822277Y-64388999D01*
X131802014Y-64170324D01*
X131802013Y-64170322D01*
X131741915Y-63959099D01*
X131741909Y-63959084D01*
X131644027Y-63762510D01*
X131644022Y-63762502D01*
X131630351Y-63744400D01*
X131123333Y-64251419D01*
X131100882Y-64174960D01*
X131021595Y-64051587D01*
X130910762Y-63955549D01*
X130777361Y-63894627D01*
X130773565Y-63894081D01*
X131274631Y-63393014D01*
X131274630Y-63393013D01*
X131162666Y-63323689D01*
X131162660Y-63323685D01*
X130957878Y-63244353D01*
X130957876Y-63244352D01*
X130939346Y-63240889D01*
X130877065Y-63209221D01*
X130841791Y-63148909D01*
X130844724Y-63079101D01*
X130884933Y-63021961D01*
X130939346Y-62997111D01*
X130957876Y-62993647D01*
X130957887Y-62993643D01*
X131162662Y-62914313D01*
X131162664Y-62914312D01*
X131274631Y-62844984D01*
X130773566Y-62343918D01*
X130777361Y-62343373D01*
X130910762Y-62282451D01*
X131021595Y-62186413D01*
X131100882Y-62063040D01*
X131123333Y-61986580D01*
X131630350Y-62493598D01*
X131630352Y-62493597D01*
X131644022Y-62475497D01*
X131644024Y-62475493D01*
X131741909Y-62278915D01*
X131741915Y-62278900D01*
X131802013Y-62067677D01*
X131802014Y-62067675D01*
X131822277Y-61849000D01*
X131822277Y-61848999D01*
X131802014Y-61630324D01*
X131802013Y-61630322D01*
X131741915Y-61419099D01*
X131741909Y-61419084D01*
X131644027Y-61222510D01*
X131644022Y-61222502D01*
X131630351Y-61204400D01*
X131123333Y-61711419D01*
X131100882Y-61634960D01*
X131021595Y-61511587D01*
X130910762Y-61415549D01*
X130777361Y-61354627D01*
X130773565Y-61354081D01*
X131274631Y-60853014D01*
X131274630Y-60853013D01*
X131162666Y-60783689D01*
X131162660Y-60783685D01*
X130957878Y-60704353D01*
X130957876Y-60704352D01*
X130939346Y-60700889D01*
X130877065Y-60669221D01*
X130841791Y-60608909D01*
X130844724Y-60539101D01*
X130884933Y-60481961D01*
X130939346Y-60457111D01*
X130957876Y-60453647D01*
X130957887Y-60453643D01*
X131162662Y-60374313D01*
X131162664Y-60374312D01*
X131274631Y-60304984D01*
X130773566Y-59803918D01*
X130777361Y-59803373D01*
X130910762Y-59742451D01*
X131021595Y-59646413D01*
X131100882Y-59523040D01*
X131123333Y-59446580D01*
X131630350Y-59953598D01*
X131630352Y-59953597D01*
X131644022Y-59935497D01*
X131644024Y-59935493D01*
X131741909Y-59738915D01*
X131741915Y-59738900D01*
X131802013Y-59527677D01*
X131802014Y-59527675D01*
X131822277Y-59309000D01*
X131822277Y-59308999D01*
X131802014Y-59090324D01*
X131802013Y-59090322D01*
X131741915Y-58879099D01*
X131741909Y-58879084D01*
X131644027Y-58682510D01*
X131644022Y-58682502D01*
X131630351Y-58664400D01*
X131123333Y-59171419D01*
X131100882Y-59094960D01*
X131021595Y-58971587D01*
X130910762Y-58875549D01*
X130777361Y-58814627D01*
X130773565Y-58814081D01*
X131274631Y-58313014D01*
X131274630Y-58313013D01*
X131162666Y-58243689D01*
X131162660Y-58243685D01*
X130957878Y-58164353D01*
X130957876Y-58164352D01*
X130939346Y-58160889D01*
X130877065Y-58129221D01*
X130841791Y-58068909D01*
X130844724Y-57999101D01*
X130884933Y-57941961D01*
X130939346Y-57917111D01*
X130957876Y-57913647D01*
X130957887Y-57913643D01*
X131162662Y-57834313D01*
X131162664Y-57834312D01*
X131274631Y-57764984D01*
X130773566Y-57263918D01*
X130777361Y-57263373D01*
X130910762Y-57202451D01*
X131021595Y-57106413D01*
X131100882Y-56983040D01*
X131123333Y-56906580D01*
X131630350Y-57413598D01*
X131630352Y-57413597D01*
X131644022Y-57395497D01*
X131644024Y-57395493D01*
X131741909Y-57198915D01*
X131741915Y-57198900D01*
X131802013Y-56987677D01*
X131802014Y-56987675D01*
X131822277Y-56769000D01*
X131822277Y-56768999D01*
X131802014Y-56550324D01*
X131802013Y-56550322D01*
X131741915Y-56339099D01*
X131741909Y-56339084D01*
X131644027Y-56142510D01*
X131644022Y-56142502D01*
X131630351Y-56124400D01*
X131123333Y-56631419D01*
X131100882Y-56554960D01*
X131021595Y-56431587D01*
X130910762Y-56335549D01*
X130777361Y-56274627D01*
X130773565Y-56274081D01*
X131274631Y-55773014D01*
X131274630Y-55773013D01*
X131162666Y-55703689D01*
X131162660Y-55703685D01*
X130957878Y-55624353D01*
X130957876Y-55624352D01*
X130939346Y-55620889D01*
X130877065Y-55589221D01*
X130841791Y-55528909D01*
X130844724Y-55459101D01*
X130884933Y-55401961D01*
X130939346Y-55377111D01*
X130957876Y-55373647D01*
X130957887Y-55373643D01*
X131162662Y-55294313D01*
X131162664Y-55294312D01*
X131274631Y-55224984D01*
X130773566Y-54723918D01*
X130777361Y-54723373D01*
X130910762Y-54662451D01*
X131021595Y-54566413D01*
X131100882Y-54443040D01*
X131123333Y-54366580D01*
X131630350Y-54873598D01*
X131630352Y-54873597D01*
X131644022Y-54855497D01*
X131644024Y-54855493D01*
X131741909Y-54658915D01*
X131741915Y-54658900D01*
X131802013Y-54447677D01*
X131802014Y-54447675D01*
X131822277Y-54229000D01*
X131822277Y-54228999D01*
X131802014Y-54010324D01*
X131802013Y-54010322D01*
X131741915Y-53799099D01*
X131741909Y-53799084D01*
X131644027Y-53602510D01*
X131644022Y-53602502D01*
X131630351Y-53584400D01*
X131123333Y-54091419D01*
X131100882Y-54014960D01*
X131021595Y-53891587D01*
X130910762Y-53795549D01*
X130777361Y-53734627D01*
X130773565Y-53734081D01*
X131274631Y-53233014D01*
X131274630Y-53233013D01*
X131162666Y-53163689D01*
X131162660Y-53163685D01*
X130957878Y-53084353D01*
X130742003Y-53044000D01*
X130522397Y-53044000D01*
X130306522Y-53084353D01*
X130306521Y-53084353D01*
X130101740Y-53163685D01*
X129989767Y-53233014D01*
X130490834Y-53734081D01*
X130487039Y-53734627D01*
X130353638Y-53795549D01*
X130242805Y-53891587D01*
X130163518Y-54014960D01*
X130141066Y-54091420D01*
X129634047Y-53584401D01*
X129634046Y-53584401D01*
X129620376Y-53602503D01*
X129522490Y-53799084D01*
X129522485Y-53799097D01*
X129481725Y-53942352D01*
X129444445Y-54001445D01*
X129381135Y-54031002D01*
X129311896Y-54021640D01*
X129258710Y-53976330D01*
X129243194Y-53942356D01*
X129202382Y-53798913D01*
X129202380Y-53798909D01*
X129153820Y-53701388D01*
X129104451Y-53602241D01*
X128972048Y-53426912D01*
X128972046Y-53426909D01*
X128809685Y-53278898D01*
X128809684Y-53278897D01*
X128622887Y-53163237D01*
X128622885Y-53163236D01*
X128419261Y-53084353D01*
X128418017Y-53083871D01*
X128202053Y-53043500D01*
X127982347Y-53043500D01*
X127766383Y-53083871D01*
X127766380Y-53083871D01*
X127766380Y-53083872D01*
X127561514Y-53163236D01*
X127561512Y-53163237D01*
X127374714Y-53278898D01*
X127212353Y-53426909D01*
X127079949Y-53602240D01*
X126982019Y-53798909D01*
X126982019Y-53798910D01*
X126982018Y-53798913D01*
X126941465Y-53941439D01*
X126904187Y-54000531D01*
X126840878Y-54030089D01*
X126771638Y-54020727D01*
X126718452Y-53975418D01*
X126702934Y-53941441D01*
X126662382Y-53798913D01*
X126564451Y-53602241D01*
X126432048Y-53426912D01*
X126432046Y-53426909D01*
X126269685Y-53278898D01*
X126269684Y-53278897D01*
X126082887Y-53163237D01*
X126082885Y-53163236D01*
X125879261Y-53084353D01*
X125878017Y-53083871D01*
X125662053Y-53043500D01*
X125442347Y-53043500D01*
X125226383Y-53083871D01*
X125226380Y-53083871D01*
X125226380Y-53083872D01*
X125021514Y-53163236D01*
X125021512Y-53163237D01*
X124834714Y-53278898D01*
X124672353Y-53426909D01*
X124539949Y-53602240D01*
X124442019Y-53798909D01*
X124381892Y-54010236D01*
X124361621Y-54228999D01*
X124361621Y-54229000D01*
X124381892Y-54447763D01*
X124381892Y-54447765D01*
X124381893Y-54447768D01*
X124441969Y-54658915D01*
X124442019Y-54659090D01*
X124539949Y-54855759D01*
X124672353Y-55031090D01*
X124812030Y-55158422D01*
X124834716Y-55179103D01*
X125021513Y-55294763D01*
X125226383Y-55374129D01*
X125242341Y-55377112D01*
X125304619Y-55408780D01*
X125339892Y-55469092D01*
X125336958Y-55538900D01*
X125296749Y-55596040D01*
X125242341Y-55620887D01*
X125226383Y-55623871D01*
X125226381Y-55623871D01*
X125226379Y-55623872D01*
X125021514Y-55703236D01*
X125021512Y-55703237D01*
X124834714Y-55818898D01*
X124672353Y-55966909D01*
X124539949Y-56142240D01*
X124442019Y-56338909D01*
X124381892Y-56550236D01*
X124361621Y-56768999D01*
X124361621Y-56769000D01*
X124381892Y-56987763D01*
X124381892Y-56987765D01*
X124381893Y-56987768D01*
X124441969Y-57198915D01*
X124442019Y-57199090D01*
X124539949Y-57395759D01*
X124672353Y-57571090D01*
X124812030Y-57698422D01*
X124834716Y-57719103D01*
X125021513Y-57834763D01*
X125226383Y-57914129D01*
X125242341Y-57917112D01*
X125304619Y-57948780D01*
X125339892Y-58009092D01*
X125336958Y-58078900D01*
X125296749Y-58136040D01*
X125242341Y-58160887D01*
X125226383Y-58163871D01*
X125226381Y-58163871D01*
X125226379Y-58163872D01*
X125021514Y-58243236D01*
X125021512Y-58243237D01*
X124834714Y-58358898D01*
X124672353Y-58506909D01*
X124539949Y-58682240D01*
X124442019Y-58878909D01*
X124381892Y-59090236D01*
X124361621Y-59308999D01*
X124361621Y-59309000D01*
X124381892Y-59527763D01*
X124381892Y-59527765D01*
X124381893Y-59527768D01*
X124441969Y-59738915D01*
X124442019Y-59739090D01*
X124539949Y-59935759D01*
X124672353Y-60111090D01*
X124794024Y-60222007D01*
X124834716Y-60259103D01*
X125021513Y-60374763D01*
X125226383Y-60454129D01*
X125242341Y-60457112D01*
X125304619Y-60488780D01*
X125339892Y-60549092D01*
X125336958Y-60618900D01*
X125296749Y-60676040D01*
X125242341Y-60700887D01*
X125226383Y-60703871D01*
X125226381Y-60703871D01*
X125226379Y-60703872D01*
X125021514Y-60783236D01*
X125021512Y-60783237D01*
X124834714Y-60898898D01*
X124672353Y-61046909D01*
X124539949Y-61222240D01*
X124442019Y-61418909D01*
X124381892Y-61630236D01*
X124361621Y-61848999D01*
X124361621Y-61849000D01*
X124381892Y-62067763D01*
X124381892Y-62067765D01*
X124381893Y-62067768D01*
X124441969Y-62278915D01*
X124442019Y-62279090D01*
X124447697Y-62290493D01*
X124459958Y-62359279D01*
X124433085Y-62423773D01*
X124375609Y-62463501D01*
X124305779Y-62465849D01*
X124258032Y-62441618D01*
X124126226Y-62333447D01*
X124126223Y-62333445D01*
X123961102Y-62245187D01*
X123781933Y-62190836D01*
X123781931Y-62190835D01*
X123595600Y-62172484D01*
X123409268Y-62190835D01*
X123409266Y-62190836D01*
X123230097Y-62245187D01*
X123064980Y-62333443D01*
X123064972Y-62333448D01*
X123026099Y-62365352D01*
X122961789Y-62392666D01*
X122947433Y-62393500D01*
X121135026Y-62393500D01*
X121067987Y-62373815D01*
X121056361Y-62365353D01*
X121007026Y-62324864D01*
X121007023Y-62324862D01*
X120841902Y-62236604D01*
X120662733Y-62182253D01*
X120662731Y-62182252D01*
X120476400Y-62163901D01*
X120290068Y-62182252D01*
X120290066Y-62182253D01*
X120110897Y-62236604D01*
X119945776Y-62324862D01*
X119945773Y-62324864D01*
X119801042Y-62443642D01*
X119682264Y-62588373D01*
X119682262Y-62588376D01*
X119594004Y-62753497D01*
X119539653Y-62932666D01*
X119539652Y-62932668D01*
X119521301Y-63119000D01*
X119539652Y-63305331D01*
X119539653Y-63305333D01*
X119594004Y-63484502D01*
X119682262Y-63649623D01*
X119682264Y-63649626D01*
X119801042Y-63794357D01*
X119945773Y-63913135D01*
X119945776Y-63913137D01*
X120031766Y-63959099D01*
X120110899Y-64001396D01*
X120290066Y-64055746D01*
X120290068Y-64055747D01*
X120306774Y-64057392D01*
X120476400Y-64074099D01*
X120662731Y-64055747D01*
X120841901Y-64001396D01*
X121007025Y-63913136D01*
X121056361Y-63872647D01*
X121120671Y-63845334D01*
X121135026Y-63844500D01*
X122926516Y-63844500D01*
X122993555Y-63864185D01*
X123005181Y-63872647D01*
X123064973Y-63921718D01*
X123064976Y-63921720D01*
X123214039Y-64001395D01*
X123230099Y-64009979D01*
X123380972Y-64055746D01*
X123409266Y-64064329D01*
X123409268Y-64064330D01*
X123425974Y-64065975D01*
X123595600Y-64082682D01*
X123781931Y-64064330D01*
X123961101Y-64009979D01*
X124126225Y-63921719D01*
X124245621Y-63823732D01*
X124309929Y-63796420D01*
X124378797Y-63808211D01*
X124430357Y-63855363D01*
X124448241Y-63922905D01*
X124443552Y-63953519D01*
X124381892Y-64170234D01*
X124361621Y-64388999D01*
X124361621Y-64389000D01*
X124381892Y-64607763D01*
X124381892Y-64607765D01*
X124381893Y-64607768D01*
X124441969Y-64818915D01*
X124442019Y-64819090D01*
X124539949Y-65015759D01*
X124672353Y-65191090D01*
X124812030Y-65318422D01*
X124834716Y-65339103D01*
X125021513Y-65454763D01*
X125226383Y-65534129D01*
X125242341Y-65537112D01*
X125304619Y-65568780D01*
X125339892Y-65629092D01*
X125336958Y-65698900D01*
X125296749Y-65756040D01*
X125242341Y-65780887D01*
X125226383Y-65783871D01*
X125226381Y-65783871D01*
X125226379Y-65783872D01*
X125021514Y-65863236D01*
X125021512Y-65863237D01*
X124834714Y-65978898D01*
X124672353Y-66126909D01*
X124539949Y-66302240D01*
X124442019Y-66498909D01*
X124381892Y-66710236D01*
X124361621Y-66928999D01*
X124361621Y-66929000D01*
X124381892Y-67147763D01*
X124381892Y-67147765D01*
X124381893Y-67147768D01*
X124441969Y-67358915D01*
X124442019Y-67359090D01*
X124539949Y-67555759D01*
X124672353Y-67731090D01*
X124812030Y-67858422D01*
X124834716Y-67879103D01*
X125021513Y-67994763D01*
X125226383Y-68074129D01*
X125242341Y-68077112D01*
X125304619Y-68108780D01*
X125339892Y-68169092D01*
X125336958Y-68238900D01*
X125296749Y-68296040D01*
X125242341Y-68320887D01*
X125226383Y-68323871D01*
X125226381Y-68323871D01*
X125226379Y-68323872D01*
X125021514Y-68403236D01*
X125021512Y-68403237D01*
X124834714Y-68518898D01*
X124672353Y-68666909D01*
X124539949Y-68842240D01*
X124442019Y-69038909D01*
X124381892Y-69250236D01*
X124361621Y-69468999D01*
X124361621Y-69469000D01*
X124381892Y-69687763D01*
X124381892Y-69687765D01*
X124381893Y-69687768D01*
X124441969Y-69898915D01*
X124442019Y-69899090D01*
X124539949Y-70095759D01*
X124672353Y-70271090D01*
X124812030Y-70398422D01*
X124834716Y-70419103D01*
X125021513Y-70534763D01*
X125226383Y-70614129D01*
X125242341Y-70617112D01*
X125304619Y-70648780D01*
X125339892Y-70709092D01*
X125336958Y-70778900D01*
X125296749Y-70836040D01*
X125242341Y-70860887D01*
X125226383Y-70863871D01*
X125226381Y-70863871D01*
X125226379Y-70863872D01*
X125021514Y-70943236D01*
X125021512Y-70943237D01*
X124834714Y-71058898D01*
X124672353Y-71206909D01*
X124539949Y-71382240D01*
X124442019Y-71578909D01*
X124381892Y-71790236D01*
X124361621Y-72008999D01*
X124361621Y-72009000D01*
X124381892Y-72227763D01*
X124381892Y-72227765D01*
X124381893Y-72227768D01*
X124430799Y-72399655D01*
X124442019Y-72439090D01*
X124539949Y-72635759D01*
X124672353Y-72811090D01*
X124834715Y-72959102D01*
X124834717Y-72959104D01*
X124998757Y-73060673D01*
X125045393Y-73112701D01*
X125056497Y-73181682D01*
X125028544Y-73245717D01*
X124970409Y-73284473D01*
X124933480Y-73290100D01*
X120991287Y-73290100D01*
X120973318Y-73288791D01*
X120950641Y-73285469D01*
X120905483Y-73289421D01*
X120900420Y-73289864D01*
X120895017Y-73290100D01*
X120887140Y-73290100D01*
X120855645Y-73293781D01*
X120781687Y-73300252D01*
X120774621Y-73301711D01*
X120774601Y-73301618D01*
X120767949Y-73303093D01*
X120767971Y-73303186D01*
X120760944Y-73304851D01*
X120691167Y-73330248D01*
X120620700Y-73353599D01*
X120614157Y-73356650D01*
X120614116Y-73356563D01*
X120607984Y-73359532D01*
X120608027Y-73359618D01*
X120601578Y-73362856D01*
X120539548Y-73403653D01*
X120476359Y-73442630D01*
X120470689Y-73447113D01*
X120470630Y-73447038D01*
X120465353Y-73451337D01*
X120465414Y-73451409D01*
X120459889Y-73456045D01*
X120459883Y-73456050D01*
X120459883Y-73456051D01*
X120408930Y-73510057D01*
X119417341Y-74501648D01*
X119115808Y-74803181D01*
X119054485Y-74836666D01*
X119028127Y-74839500D01*
X117447826Y-74839500D01*
X117380787Y-74819815D01*
X117369161Y-74811353D01*
X117319826Y-74770864D01*
X117319823Y-74770862D01*
X117158113Y-74684427D01*
X117108269Y-74635465D01*
X117092808Y-74567327D01*
X117116640Y-74501648D01*
X117172197Y-74459279D01*
X117235048Y-74452454D01*
X117316951Y-74464799D01*
X117316958Y-74464800D01*
X117582242Y-74464800D01*
X117582248Y-74464799D01*
X117844568Y-74425259D01*
X117844574Y-74425258D01*
X118098070Y-74347064D01*
X118337079Y-74231964D01*
X118513160Y-74111912D01*
X117582133Y-73180886D01*
X117591915Y-73179480D01*
X117722700Y-73119752D01*
X117831361Y-73025598D01*
X117909093Y-72904644D01*
X117932676Y-72824324D01*
X118865955Y-73757603D01*
X118865956Y-73757602D01*
X118916145Y-73694669D01*
X119048785Y-73464928D01*
X119145703Y-73217985D01*
X119145709Y-73217966D01*
X119204738Y-72959340D01*
X119204739Y-72959335D01*
X119224563Y-72694804D01*
X119224563Y-72694795D01*
X119204739Y-72430264D01*
X119204738Y-72430259D01*
X119145709Y-72171633D01*
X119145703Y-72171614D01*
X119048785Y-71924671D01*
X119048786Y-71924671D01*
X118916143Y-71694929D01*
X118916136Y-71694918D01*
X118865956Y-71631996D01*
X118865955Y-71631995D01*
X117932676Y-72565275D01*
X117909093Y-72484956D01*
X117831361Y-72364002D01*
X117722700Y-72269848D01*
X117591915Y-72210120D01*
X117582134Y-72208713D01*
X118513160Y-71277686D01*
X118337084Y-71157639D01*
X118337074Y-71157632D01*
X118098069Y-71042535D01*
X118098071Y-71042535D01*
X117844574Y-70964341D01*
X117844568Y-70964340D01*
X117582248Y-70924800D01*
X117316951Y-70924800D01*
X117054631Y-70964340D01*
X117054625Y-70964341D01*
X116801129Y-71042535D01*
X116562126Y-71157632D01*
X116562118Y-71157637D01*
X116386038Y-71277686D01*
X117317066Y-72208713D01*
X117307285Y-72210120D01*
X117176500Y-72269848D01*
X117067839Y-72364002D01*
X116990107Y-72484956D01*
X116966523Y-72565276D01*
X116033243Y-71631996D01*
X115983056Y-71694928D01*
X115850414Y-71924671D01*
X115753496Y-72171614D01*
X115753490Y-72171633D01*
X115694461Y-72430259D01*
X115694460Y-72430264D01*
X115674637Y-72694795D01*
X115674637Y-72694804D01*
X114424465Y-72694804D01*
X114424465Y-72694795D01*
X114404636Y-72430190D01*
X114404635Y-72430185D01*
X114404635Y-72430181D01*
X114345586Y-72171473D01*
X114248639Y-71924455D01*
X114115958Y-71694645D01*
X113950508Y-71487177D01*
X113755984Y-71306686D01*
X113536733Y-71157202D01*
X113536732Y-71157201D01*
X113536725Y-71157197D01*
X113297655Y-71042068D01*
X113297636Y-71042061D01*
X113044083Y-70963851D01*
X113044073Y-70963848D01*
X112781688Y-70924300D01*
X112781681Y-70924300D01*
X112516319Y-70924300D01*
X112516311Y-70924300D01*
X112253926Y-70963848D01*
X112253916Y-70963851D01*
X112000363Y-71042061D01*
X112000344Y-71042068D01*
X111761276Y-71157197D01*
X111761274Y-71157198D01*
X111542015Y-71306686D01*
X111347494Y-71487175D01*
X111347492Y-71487177D01*
X111182042Y-71694645D01*
X111049361Y-71924454D01*
X110952416Y-72171467D01*
X110952410Y-72171486D01*
X110893364Y-72430185D01*
X110893363Y-72430190D01*
X110873535Y-72694795D01*
X110873535Y-72694804D01*
X96384909Y-72694804D01*
X96374274Y-59538374D01*
X119520424Y-59538374D01*
X119538775Y-59724705D01*
X119538776Y-59724707D01*
X119593127Y-59903876D01*
X119681385Y-60068997D01*
X119681387Y-60069000D01*
X119800165Y-60213731D01*
X119944896Y-60332509D01*
X119944899Y-60332511D01*
X120023106Y-60374313D01*
X120110022Y-60420770D01*
X120289189Y-60475120D01*
X120289191Y-60475121D01*
X120305897Y-60476766D01*
X120475523Y-60493473D01*
X120661854Y-60475121D01*
X120841024Y-60420770D01*
X121006148Y-60332510D01*
X121023421Y-60318334D01*
X121045400Y-60300297D01*
X121109710Y-60272984D01*
X121124065Y-60272150D01*
X121926497Y-60272150D01*
X121993536Y-60291835D01*
X122005162Y-60300297D01*
X122054496Y-60340785D01*
X122054499Y-60340787D01*
X122219620Y-60429045D01*
X122219622Y-60429046D01*
X122371507Y-60475120D01*
X122398789Y-60483396D01*
X122398791Y-60483397D01*
X122415497Y-60485042D01*
X122585123Y-60501749D01*
X122771454Y-60483397D01*
X122950624Y-60429046D01*
X123115748Y-60340786D01*
X123260480Y-60222007D01*
X123379259Y-60077275D01*
X123467519Y-59912151D01*
X123521870Y-59732981D01*
X123540222Y-59546650D01*
X123521870Y-59360319D01*
X123467519Y-59181149D01*
X123467518Y-59181147D01*
X123379260Y-59016026D01*
X123379258Y-59016023D01*
X123260480Y-58871292D01*
X123115749Y-58752514D01*
X123115746Y-58752512D01*
X122950625Y-58664254D01*
X122771456Y-58609903D01*
X122771454Y-58609902D01*
X122585123Y-58591551D01*
X122398791Y-58609902D01*
X122398789Y-58609903D01*
X122219620Y-58664254D01*
X122054499Y-58752512D01*
X122054496Y-58752514D01*
X122005162Y-58793003D01*
X121940852Y-58820316D01*
X121926497Y-58821150D01*
X121144233Y-58821150D01*
X121077194Y-58801465D01*
X121065568Y-58793003D01*
X121006149Y-58744238D01*
X121006146Y-58744236D01*
X120841025Y-58655978D01*
X120661856Y-58601627D01*
X120661854Y-58601626D01*
X120475523Y-58583275D01*
X120289191Y-58601626D01*
X120289189Y-58601627D01*
X120110020Y-58655978D01*
X119944899Y-58744236D01*
X119944896Y-58744238D01*
X119800165Y-58863016D01*
X119681387Y-59007747D01*
X119681385Y-59007750D01*
X119593127Y-59172871D01*
X119538776Y-59352040D01*
X119538775Y-59352042D01*
X119520424Y-59538374D01*
X96374274Y-59538374D01*
X96370536Y-54914804D01*
X110874037Y-54914804D01*
X110893860Y-55179335D01*
X110893861Y-55179340D01*
X110952890Y-55437966D01*
X110952896Y-55437985D01*
X111049814Y-55684928D01*
X111049813Y-55684928D01*
X111182457Y-55914671D01*
X111232642Y-55977603D01*
X111232643Y-55977603D01*
X112165923Y-55044323D01*
X112189507Y-55124644D01*
X112267239Y-55245598D01*
X112375900Y-55339752D01*
X112506685Y-55399480D01*
X112516466Y-55400886D01*
X111585438Y-56331912D01*
X111761525Y-56451966D01*
X111761526Y-56451967D01*
X112000530Y-56567064D01*
X112000528Y-56567064D01*
X112254025Y-56645258D01*
X112254031Y-56645259D01*
X112516351Y-56684799D01*
X112516358Y-56684800D01*
X112781642Y-56684800D01*
X112781648Y-56684799D01*
X113043968Y-56645259D01*
X113043974Y-56645258D01*
X113297470Y-56567064D01*
X113536479Y-56451964D01*
X113712560Y-56331912D01*
X112781533Y-55400886D01*
X112791315Y-55399480D01*
X112922100Y-55339752D01*
X113030761Y-55245598D01*
X113108493Y-55124644D01*
X113132076Y-55044324D01*
X114065355Y-55977603D01*
X114065356Y-55977602D01*
X114115545Y-55914669D01*
X114248185Y-55684928D01*
X114345103Y-55437985D01*
X114345109Y-55437966D01*
X114404138Y-55179340D01*
X114404139Y-55179335D01*
X114423963Y-54914804D01*
X115674135Y-54914804D01*
X115693963Y-55179409D01*
X115693964Y-55179414D01*
X115753010Y-55438113D01*
X115753012Y-55438122D01*
X115753014Y-55438127D01*
X115849961Y-55685145D01*
X115982642Y-55914955D01*
X116148092Y-56122423D01*
X116342616Y-56302914D01*
X116561868Y-56452398D01*
X116800950Y-56567534D01*
X117054522Y-56645750D01*
X117054523Y-56645750D01*
X117054526Y-56645751D01*
X117316911Y-56685299D01*
X117316916Y-56685299D01*
X117316919Y-56685300D01*
X117316920Y-56685300D01*
X117582280Y-56685300D01*
X117582281Y-56685300D01*
X117582288Y-56685299D01*
X117844673Y-56645751D01*
X117844674Y-56645750D01*
X117844678Y-56645750D01*
X118098250Y-56567534D01*
X118337333Y-56452398D01*
X118556584Y-56302914D01*
X118751108Y-56122423D01*
X118916558Y-55914955D01*
X119049239Y-55685145D01*
X119146186Y-55438127D01*
X119205235Y-55179419D01*
X119205241Y-55179340D01*
X119225065Y-54914804D01*
X119225065Y-54914795D01*
X119205236Y-54650190D01*
X119205235Y-54650185D01*
X119205235Y-54650181D01*
X119146186Y-54391473D01*
X119049239Y-54144455D01*
X118916558Y-53914645D01*
X118751108Y-53707177D01*
X118556584Y-53526686D01*
X118450044Y-53454048D01*
X118337336Y-53377204D01*
X118337325Y-53377197D01*
X118098255Y-53262068D01*
X118098236Y-53262061D01*
X117844683Y-53183851D01*
X117844673Y-53183848D01*
X117582288Y-53144300D01*
X117582281Y-53144300D01*
X117316919Y-53144300D01*
X117316911Y-53144300D01*
X117054526Y-53183848D01*
X117054516Y-53183851D01*
X116800963Y-53262061D01*
X116800944Y-53262068D01*
X116561876Y-53377197D01*
X116561874Y-53377198D01*
X116342615Y-53526686D01*
X116148094Y-53707175D01*
X116148092Y-53707177D01*
X115982642Y-53914645D01*
X115849961Y-54144454D01*
X115753016Y-54391467D01*
X115753010Y-54391486D01*
X115693964Y-54650185D01*
X115693963Y-54650190D01*
X115674135Y-54914795D01*
X115674135Y-54914804D01*
X114423963Y-54914804D01*
X114423963Y-54914795D01*
X114404139Y-54650264D01*
X114404138Y-54650259D01*
X114345109Y-54391633D01*
X114345103Y-54391614D01*
X114248185Y-54144671D01*
X114248186Y-54144671D01*
X114115543Y-53914929D01*
X114115536Y-53914918D01*
X114065356Y-53851996D01*
X114065355Y-53851995D01*
X113132076Y-54785275D01*
X113108493Y-54704956D01*
X113030761Y-54584002D01*
X112922100Y-54489848D01*
X112791315Y-54430120D01*
X112781534Y-54428713D01*
X113712560Y-53497686D01*
X113536484Y-53377639D01*
X113536474Y-53377632D01*
X113297469Y-53262535D01*
X113297471Y-53262535D01*
X113043974Y-53184341D01*
X113043968Y-53184340D01*
X112781648Y-53144800D01*
X112516351Y-53144800D01*
X112254031Y-53184340D01*
X112254025Y-53184341D01*
X112000529Y-53262535D01*
X111761526Y-53377632D01*
X111761518Y-53377637D01*
X111585438Y-53497686D01*
X112516466Y-54428713D01*
X112506685Y-54430120D01*
X112375900Y-54489848D01*
X112267239Y-54584002D01*
X112189507Y-54704956D01*
X112165923Y-54785276D01*
X111232643Y-53851996D01*
X111182456Y-53914928D01*
X111049814Y-54144671D01*
X110952896Y-54391614D01*
X110952890Y-54391633D01*
X110893861Y-54650259D01*
X110893860Y-54650264D01*
X110874037Y-54914795D01*
X110874037Y-54914804D01*
X96370536Y-54914804D01*
X96368888Y-52875599D01*
X96388518Y-52808545D01*
X96441285Y-52762747D01*
X96492888Y-52751500D01*
X131489605Y-52751500D01*
X131534151Y-52751500D01*
X131540231Y-52751799D01*
G37*
G04 #@! TD.AperFunction*
G04 #@! TA.AperFunction,Conductor*
G36*
X129663000Y-118524808D02*
G01*
X129664238Y-118527076D01*
X129667072Y-118553434D01*
X129667072Y-119452498D01*
X129559387Y-119403320D01*
X129452835Y-119388000D01*
X129381309Y-119388000D01*
X129274757Y-119403320D01*
X129167072Y-119452498D01*
X129167072Y-118685791D01*
X129165834Y-118683524D01*
X129163000Y-118657166D01*
X129163000Y-117758101D01*
X129270685Y-117807280D01*
X129377237Y-117822600D01*
X129448763Y-117822600D01*
X129555315Y-117807280D01*
X129663000Y-117758101D01*
X129663000Y-118524808D01*
G37*
G04 #@! TD.AperFunction*
G04 #@! TA.AperFunction,Conductor*
G36*
X79013239Y-52771185D02*
G01*
X79058994Y-52823989D01*
X79070200Y-52875500D01*
X79070200Y-141942500D01*
X79050515Y-142009539D01*
X78997711Y-142055294D01*
X78946200Y-142066500D01*
X60896249Y-142066500D01*
X60890168Y-142066201D01*
X60768888Y-142054256D01*
X60745048Y-142049514D01*
X60637197Y-142016798D01*
X60614741Y-142007496D01*
X60515350Y-141954370D01*
X60495140Y-141940866D01*
X60408020Y-141869369D01*
X60390830Y-141852179D01*
X60319333Y-141765059D01*
X60305829Y-141744849D01*
X60304839Y-141742996D01*
X60252701Y-141645453D01*
X60243401Y-141623002D01*
X60238422Y-141606587D01*
X60210683Y-141515145D01*
X60205944Y-141491317D01*
X60193999Y-141370031D01*
X60193700Y-141363951D01*
X60193700Y-141297244D01*
X60460000Y-141297244D01*
X60466401Y-141356772D01*
X60466403Y-141356779D01*
X60516645Y-141491486D01*
X60516649Y-141491493D01*
X60602809Y-141606587D01*
X60602812Y-141606590D01*
X60717906Y-141692750D01*
X60717913Y-141692754D01*
X60852620Y-141742996D01*
X60852627Y-141742998D01*
X60912155Y-141749399D01*
X60912172Y-141749400D01*
X61980000Y-141749400D01*
X61980000Y-140414901D01*
X62087685Y-140464080D01*
X62194237Y-140479400D01*
X62265763Y-140479400D01*
X62372315Y-140464080D01*
X62480000Y-140414901D01*
X62480000Y-141749400D01*
X63547828Y-141749400D01*
X63547844Y-141749399D01*
X63607372Y-141742998D01*
X63607379Y-141742996D01*
X63742086Y-141692754D01*
X63742093Y-141692750D01*
X63857187Y-141606590D01*
X63857190Y-141606587D01*
X63943350Y-141491493D01*
X63943354Y-141491486D01*
X63993596Y-141356779D01*
X63993598Y-141356772D01*
X63999999Y-141297244D01*
X64000000Y-141297227D01*
X64000000Y-140229400D01*
X62663686Y-140229400D01*
X62689493Y-140189244D01*
X62730000Y-140051289D01*
X62730000Y-139907511D01*
X62689493Y-139769556D01*
X62663686Y-139729400D01*
X64000000Y-139729400D01*
X64000000Y-138661572D01*
X63999999Y-138661555D01*
X63993598Y-138602027D01*
X63993596Y-138602020D01*
X63943354Y-138467313D01*
X63943350Y-138467306D01*
X63857190Y-138352212D01*
X63857187Y-138352209D01*
X63742093Y-138266049D01*
X63742086Y-138266045D01*
X63607379Y-138215803D01*
X63607372Y-138215801D01*
X63547844Y-138209400D01*
X62480000Y-138209400D01*
X62480000Y-139543898D01*
X62372315Y-139494720D01*
X62265763Y-139479400D01*
X62194237Y-139479400D01*
X62087685Y-139494720D01*
X61980000Y-139543898D01*
X61980000Y-138209400D01*
X60912155Y-138209400D01*
X60852627Y-138215801D01*
X60852620Y-138215803D01*
X60717913Y-138266045D01*
X60717906Y-138266049D01*
X60602812Y-138352209D01*
X60602809Y-138352212D01*
X60516649Y-138467306D01*
X60516645Y-138467313D01*
X60466403Y-138602020D01*
X60466401Y-138602027D01*
X60460000Y-138661555D01*
X60460000Y-139729400D01*
X61796314Y-139729400D01*
X61770507Y-139769556D01*
X61730000Y-139907511D01*
X61730000Y-140051289D01*
X61770507Y-140189244D01*
X61796314Y-140229400D01*
X60460000Y-140229400D01*
X60460000Y-141297244D01*
X60193700Y-141297244D01*
X60193700Y-135884470D01*
X65960500Y-135884470D01*
X65960501Y-135884476D01*
X65966908Y-135944083D01*
X66017202Y-136078928D01*
X66017206Y-136078935D01*
X66103452Y-136194144D01*
X66103455Y-136194147D01*
X66218664Y-136280393D01*
X66218671Y-136280397D01*
X66353517Y-136330691D01*
X66353516Y-136330691D01*
X66360444Y-136331435D01*
X66413127Y-136337100D01*
X71508872Y-136337099D01*
X71568483Y-136330691D01*
X71703331Y-136280396D01*
X71818546Y-136194146D01*
X71904796Y-136078931D01*
X71955091Y-135944083D01*
X71961500Y-135884473D01*
X71961499Y-132288728D01*
X71955091Y-132229117D01*
X71904796Y-132094269D01*
X71904795Y-132094268D01*
X71904793Y-132094264D01*
X71818547Y-131979055D01*
X71818544Y-131979052D01*
X71703335Y-131892806D01*
X71703328Y-131892802D01*
X71568482Y-131842508D01*
X71568483Y-131842508D01*
X71508883Y-131836101D01*
X71508881Y-131836100D01*
X71508873Y-131836100D01*
X71508864Y-131836100D01*
X66413129Y-131836100D01*
X66413123Y-131836101D01*
X66353516Y-131842508D01*
X66218671Y-131892802D01*
X66218664Y-131892806D01*
X66103455Y-131979052D01*
X66103452Y-131979055D01*
X66017206Y-132094264D01*
X66017202Y-132094271D01*
X65966908Y-132229117D01*
X65960501Y-132288716D01*
X65960501Y-132288723D01*
X65960500Y-132288735D01*
X65960500Y-135884470D01*
X60193700Y-135884470D01*
X60193700Y-129434444D01*
X65961000Y-129434444D01*
X65967401Y-129493972D01*
X65967403Y-129493979D01*
X66017645Y-129628686D01*
X66017649Y-129628693D01*
X66103809Y-129743787D01*
X66103812Y-129743790D01*
X66218906Y-129829950D01*
X66218913Y-129829954D01*
X66353620Y-129880196D01*
X66353627Y-129880198D01*
X66413155Y-129886599D01*
X66413172Y-129886600D01*
X68711000Y-129886600D01*
X68711000Y-128212381D01*
X68729094Y-128222329D01*
X68882044Y-128261600D01*
X69000317Y-128261600D01*
X69117666Y-128246775D01*
X69211000Y-128209821D01*
X69211000Y-129886600D01*
X71508828Y-129886600D01*
X71508844Y-129886599D01*
X71568372Y-129880198D01*
X71568379Y-129880196D01*
X71703086Y-129829954D01*
X71703093Y-129829950D01*
X71818187Y-129743790D01*
X71818190Y-129743787D01*
X71904350Y-129628693D01*
X71904354Y-129628686D01*
X71954596Y-129493979D01*
X71954598Y-129493972D01*
X71960999Y-129434444D01*
X71961000Y-129434427D01*
X71961000Y-127886600D01*
X69534098Y-127886600D01*
X69560134Y-127831271D01*
X69589724Y-127676156D01*
X69579809Y-127518556D01*
X69536933Y-127386600D01*
X71961000Y-127386600D01*
X71961000Y-125838772D01*
X71960999Y-125838755D01*
X71954598Y-125779227D01*
X71954596Y-125779220D01*
X71904354Y-125644513D01*
X71904350Y-125644506D01*
X71818190Y-125529412D01*
X71818187Y-125529409D01*
X71703093Y-125443249D01*
X71703086Y-125443245D01*
X71568379Y-125393003D01*
X71568372Y-125393001D01*
X71508844Y-125386600D01*
X69211000Y-125386600D01*
X69211000Y-127060818D01*
X69192906Y-127050871D01*
X69039956Y-127011600D01*
X68921683Y-127011600D01*
X68804334Y-127026425D01*
X68711000Y-127063378D01*
X68711000Y-125386600D01*
X66413155Y-125386600D01*
X66353627Y-125393001D01*
X66353620Y-125393003D01*
X66218913Y-125443245D01*
X66218906Y-125443249D01*
X66103812Y-125529409D01*
X66103809Y-125529412D01*
X66017649Y-125644506D01*
X66017645Y-125644513D01*
X65967403Y-125779220D01*
X65967401Y-125779227D01*
X65961000Y-125838755D01*
X65961000Y-127386600D01*
X68387902Y-127386600D01*
X68361866Y-127441929D01*
X68332276Y-127597044D01*
X68342191Y-127754644D01*
X68385067Y-127886600D01*
X65961000Y-127886600D01*
X65961000Y-129434444D01*
X60193700Y-129434444D01*
X60193700Y-122199404D01*
X60454535Y-122199404D01*
X60474363Y-122464009D01*
X60474364Y-122464014D01*
X60533410Y-122722713D01*
X60533412Y-122722722D01*
X60533414Y-122722727D01*
X60630361Y-122969745D01*
X60763042Y-123199555D01*
X60928492Y-123407023D01*
X61123016Y-123587514D01*
X61342268Y-123736998D01*
X61581350Y-123852134D01*
X61834922Y-123930350D01*
X61834923Y-123930350D01*
X61834926Y-123930351D01*
X62097311Y-123969899D01*
X62097316Y-123969899D01*
X62097319Y-123969900D01*
X62097320Y-123969900D01*
X62362680Y-123969900D01*
X62362681Y-123969900D01*
X62362688Y-123969899D01*
X62625073Y-123930351D01*
X62625074Y-123930350D01*
X62625078Y-123930350D01*
X62878650Y-123852134D01*
X63117733Y-123736998D01*
X63336984Y-123587514D01*
X63531508Y-123407023D01*
X63696958Y-123199555D01*
X63829639Y-122969745D01*
X63926586Y-122722727D01*
X63985635Y-122464019D01*
X64005465Y-122199400D01*
X63985635Y-121934781D01*
X63926586Y-121676073D01*
X63829639Y-121429055D01*
X63696958Y-121199245D01*
X63531508Y-120991777D01*
X63336984Y-120811286D01*
X63117733Y-120661802D01*
X63117732Y-120661801D01*
X63117725Y-120661797D01*
X62878655Y-120546668D01*
X62878636Y-120546661D01*
X62625083Y-120468451D01*
X62625073Y-120468448D01*
X62362688Y-120428900D01*
X62362681Y-120428900D01*
X62097319Y-120428900D01*
X62097311Y-120428900D01*
X61834926Y-120468448D01*
X61834916Y-120468451D01*
X61581363Y-120546661D01*
X61581344Y-120546668D01*
X61342276Y-120661797D01*
X61342274Y-120661798D01*
X61123015Y-120811286D01*
X60928494Y-120991775D01*
X60928492Y-120991777D01*
X60763042Y-121199245D01*
X60630361Y-121429054D01*
X60533416Y-121676067D01*
X60533410Y-121676086D01*
X60474364Y-121934785D01*
X60474363Y-121934790D01*
X60454535Y-122199395D01*
X60454535Y-122199404D01*
X60193700Y-122199404D01*
X60193700Y-117576604D01*
X60454535Y-117576604D01*
X60474363Y-117841209D01*
X60474364Y-117841214D01*
X60533410Y-118099913D01*
X60533412Y-118099922D01*
X60533414Y-118099927D01*
X60630361Y-118346945D01*
X60763042Y-118576755D01*
X60928492Y-118784223D01*
X61123016Y-118964714D01*
X61342268Y-119114198D01*
X61581350Y-119229334D01*
X61834922Y-119307550D01*
X61834923Y-119307550D01*
X61834926Y-119307551D01*
X62097311Y-119347099D01*
X62097316Y-119347099D01*
X62097319Y-119347100D01*
X62097320Y-119347100D01*
X62362680Y-119347100D01*
X62362681Y-119347100D01*
X62362688Y-119347099D01*
X62625073Y-119307551D01*
X62625074Y-119307550D01*
X62625078Y-119307550D01*
X62878650Y-119229334D01*
X63117733Y-119114198D01*
X63336984Y-118964714D01*
X63531508Y-118784223D01*
X63693455Y-118581147D01*
X63750641Y-118541009D01*
X63820453Y-118538159D01*
X63880723Y-118573504D01*
X63912316Y-118635823D01*
X63914400Y-118658462D01*
X63914400Y-118894444D01*
X63920801Y-118953972D01*
X63920803Y-118953979D01*
X63971045Y-119088686D01*
X63971049Y-119088693D01*
X64057209Y-119203787D01*
X64057212Y-119203790D01*
X64172306Y-119289950D01*
X64172313Y-119289954D01*
X64307020Y-119340196D01*
X64307027Y-119340198D01*
X64366555Y-119346599D01*
X64366572Y-119346600D01*
X65434400Y-119346600D01*
X65434400Y-118012101D01*
X65542085Y-118061280D01*
X65648637Y-118076600D01*
X65720163Y-118076600D01*
X65826715Y-118061280D01*
X65934400Y-118012101D01*
X65934400Y-119346600D01*
X67002228Y-119346600D01*
X67002244Y-119346599D01*
X67061772Y-119340198D01*
X67061779Y-119340196D01*
X67196486Y-119289954D01*
X67196493Y-119289950D01*
X67311587Y-119203790D01*
X67311590Y-119203787D01*
X67397750Y-119088693D01*
X67397754Y-119088686D01*
X67447996Y-118953979D01*
X67447998Y-118953972D01*
X67454399Y-118894444D01*
X67454400Y-118894427D01*
X67454400Y-117826600D01*
X66118086Y-117826600D01*
X66143893Y-117786444D01*
X66184400Y-117648489D01*
X66184400Y-117504711D01*
X66143893Y-117366756D01*
X66118086Y-117326600D01*
X67454400Y-117326600D01*
X67454400Y-116258772D01*
X67454399Y-116258755D01*
X67447998Y-116199227D01*
X67447996Y-116199220D01*
X67397754Y-116064513D01*
X67397750Y-116064506D01*
X67311590Y-115949412D01*
X67311587Y-115949409D01*
X67196493Y-115863249D01*
X67196486Y-115863245D01*
X67061779Y-115813003D01*
X67061772Y-115813001D01*
X67002244Y-115806600D01*
X65934400Y-115806600D01*
X65934400Y-117141098D01*
X65826715Y-117091920D01*
X65720163Y-117076600D01*
X65648637Y-117076600D01*
X65542085Y-117091920D01*
X65434400Y-117141098D01*
X65434400Y-115806600D01*
X64366555Y-115806600D01*
X64307027Y-115813001D01*
X64307020Y-115813003D01*
X64172313Y-115863245D01*
X64172306Y-115863249D01*
X64057212Y-115949409D01*
X64057209Y-115949412D01*
X63971049Y-116064506D01*
X63971045Y-116064513D01*
X63920803Y-116199220D01*
X63920801Y-116199227D01*
X63914400Y-116258755D01*
X63914400Y-116494737D01*
X63894715Y-116561776D01*
X63841911Y-116607531D01*
X63772753Y-116617475D01*
X63709197Y-116588450D01*
X63693453Y-116572050D01*
X63631798Y-116494737D01*
X63531508Y-116368977D01*
X63336984Y-116188486D01*
X63155150Y-116064513D01*
X63117736Y-116039004D01*
X63117725Y-116038997D01*
X62878655Y-115923868D01*
X62878636Y-115923861D01*
X62625083Y-115845651D01*
X62625073Y-115845648D01*
X62362688Y-115806100D01*
X62362681Y-115806100D01*
X62097319Y-115806100D01*
X62097311Y-115806100D01*
X61834926Y-115845648D01*
X61834916Y-115845651D01*
X61581363Y-115923861D01*
X61581344Y-115923868D01*
X61342276Y-116038997D01*
X61342274Y-116038998D01*
X61123015Y-116188486D01*
X60928494Y-116368975D01*
X60928492Y-116368977D01*
X60763042Y-116576445D01*
X60630361Y-116806254D01*
X60533416Y-117053267D01*
X60533410Y-117053286D01*
X60474364Y-117311985D01*
X60474363Y-117311990D01*
X60454535Y-117576595D01*
X60454535Y-117576604D01*
X60193700Y-117576604D01*
X60193700Y-101114444D01*
X60460000Y-101114444D01*
X60466401Y-101173972D01*
X60466403Y-101173979D01*
X60516645Y-101308686D01*
X60516649Y-101308693D01*
X60602809Y-101423787D01*
X60602812Y-101423790D01*
X60717906Y-101509950D01*
X60717913Y-101509954D01*
X60852620Y-101560196D01*
X60852627Y-101560198D01*
X60912155Y-101566599D01*
X60912172Y-101566600D01*
X61980000Y-101566600D01*
X61980000Y-100232101D01*
X62087685Y-100281280D01*
X62194237Y-100296600D01*
X62265763Y-100296600D01*
X62372315Y-100281280D01*
X62480000Y-100232101D01*
X62480000Y-101566600D01*
X63547828Y-101566600D01*
X63547844Y-101566599D01*
X63607372Y-101560198D01*
X63607379Y-101560196D01*
X63742086Y-101509954D01*
X63742093Y-101509950D01*
X63857187Y-101423790D01*
X63857190Y-101423787D01*
X63943350Y-101308693D01*
X63943354Y-101308686D01*
X63993596Y-101173979D01*
X63993598Y-101173972D01*
X63999999Y-101114444D01*
X64000000Y-101114427D01*
X64000000Y-100878462D01*
X64019685Y-100811423D01*
X64072489Y-100765668D01*
X64141647Y-100755724D01*
X64205203Y-100784749D01*
X64220941Y-100801143D01*
X64382892Y-101004223D01*
X64577416Y-101184714D01*
X64796668Y-101334198D01*
X65035750Y-101449334D01*
X65289322Y-101527550D01*
X65289323Y-101527550D01*
X65289326Y-101527551D01*
X65551711Y-101567099D01*
X65551716Y-101567099D01*
X65551719Y-101567100D01*
X65551720Y-101567100D01*
X65817080Y-101567100D01*
X65817081Y-101567100D01*
X65817088Y-101567099D01*
X66079473Y-101527551D01*
X66079474Y-101527550D01*
X66079478Y-101527550D01*
X66333050Y-101449334D01*
X66572133Y-101334198D01*
X66791384Y-101184714D01*
X66985908Y-101004223D01*
X67151358Y-100796755D01*
X67284039Y-100566945D01*
X67380986Y-100319927D01*
X67440035Y-100061219D01*
X67459865Y-99796600D01*
X67440035Y-99531981D01*
X67380986Y-99273273D01*
X67284039Y-99026255D01*
X67151358Y-98796445D01*
X66985908Y-98588977D01*
X66791384Y-98408486D01*
X66609550Y-98284513D01*
X66572136Y-98259004D01*
X66572125Y-98258997D01*
X66333055Y-98143868D01*
X66333036Y-98143861D01*
X66079483Y-98065651D01*
X66079473Y-98065648D01*
X65817088Y-98026100D01*
X65817081Y-98026100D01*
X65551719Y-98026100D01*
X65551711Y-98026100D01*
X65289326Y-98065648D01*
X65289316Y-98065651D01*
X65035763Y-98143861D01*
X65035744Y-98143868D01*
X64796676Y-98258997D01*
X64796674Y-98258998D01*
X64577415Y-98408486D01*
X64382894Y-98588975D01*
X64382892Y-98588977D01*
X64220947Y-98792050D01*
X64163759Y-98832190D01*
X64093947Y-98835040D01*
X64033677Y-98799695D01*
X64002084Y-98737376D01*
X64000000Y-98714737D01*
X64000000Y-98478772D01*
X63999999Y-98478755D01*
X63993598Y-98419227D01*
X63993596Y-98419220D01*
X63943354Y-98284513D01*
X63943350Y-98284506D01*
X63857190Y-98169412D01*
X63857187Y-98169409D01*
X63742093Y-98083249D01*
X63742086Y-98083245D01*
X63607379Y-98033003D01*
X63607372Y-98033001D01*
X63547844Y-98026600D01*
X62480000Y-98026600D01*
X62480000Y-99361098D01*
X62372315Y-99311920D01*
X62265763Y-99296600D01*
X62194237Y-99296600D01*
X62087685Y-99311920D01*
X61980000Y-99361098D01*
X61980000Y-98026600D01*
X60912155Y-98026600D01*
X60852627Y-98033001D01*
X60852620Y-98033003D01*
X60717913Y-98083245D01*
X60717906Y-98083249D01*
X60602812Y-98169409D01*
X60602809Y-98169412D01*
X60516649Y-98284506D01*
X60516645Y-98284513D01*
X60466403Y-98419220D01*
X60466401Y-98419227D01*
X60460000Y-98478755D01*
X60460000Y-99546600D01*
X61796314Y-99546600D01*
X61770507Y-99586756D01*
X61730000Y-99724711D01*
X61730000Y-99868489D01*
X61770507Y-100006444D01*
X61796314Y-100046600D01*
X60460000Y-100046600D01*
X60460000Y-101114444D01*
X60193700Y-101114444D01*
X60193700Y-95173804D01*
X60454535Y-95173804D01*
X60474363Y-95438409D01*
X60474364Y-95438414D01*
X60533410Y-95697113D01*
X60533412Y-95697122D01*
X60533414Y-95697127D01*
X60630361Y-95944145D01*
X60763042Y-96173955D01*
X60928492Y-96381423D01*
X61123016Y-96561914D01*
X61342268Y-96711398D01*
X61581350Y-96826534D01*
X61834922Y-96904750D01*
X61834923Y-96904750D01*
X61834926Y-96904751D01*
X62097311Y-96944299D01*
X62097316Y-96944299D01*
X62097319Y-96944300D01*
X62097320Y-96944300D01*
X62362680Y-96944300D01*
X62362681Y-96944300D01*
X62362688Y-96944299D01*
X62625073Y-96904751D01*
X62625074Y-96904750D01*
X62625078Y-96904750D01*
X62878650Y-96826534D01*
X63117733Y-96711398D01*
X63336984Y-96561914D01*
X63531508Y-96381423D01*
X63693455Y-96178347D01*
X63750641Y-96138209D01*
X63820453Y-96135359D01*
X63880723Y-96170704D01*
X63912316Y-96233023D01*
X63914400Y-96255662D01*
X63914400Y-96491644D01*
X63920801Y-96551172D01*
X63920803Y-96551179D01*
X63971045Y-96685886D01*
X63971049Y-96685893D01*
X64057209Y-96800987D01*
X64057212Y-96800990D01*
X64172306Y-96887150D01*
X64172313Y-96887154D01*
X64307020Y-96937396D01*
X64307027Y-96937398D01*
X64366555Y-96943799D01*
X64366572Y-96943800D01*
X65434400Y-96943800D01*
X65434400Y-95609301D01*
X65542085Y-95658480D01*
X65648637Y-95673800D01*
X65720163Y-95673800D01*
X65826715Y-95658480D01*
X65934400Y-95609301D01*
X65934400Y-96943800D01*
X67002228Y-96943800D01*
X67002244Y-96943799D01*
X67061772Y-96937398D01*
X67061779Y-96937396D01*
X67196486Y-96887154D01*
X67196493Y-96887150D01*
X67311587Y-96800990D01*
X67311590Y-96800987D01*
X67397750Y-96685893D01*
X67397754Y-96685886D01*
X67447996Y-96551179D01*
X67447998Y-96551172D01*
X67454399Y-96491644D01*
X67454400Y-96491627D01*
X67454400Y-95423800D01*
X66118086Y-95423800D01*
X66143893Y-95383644D01*
X66184400Y-95245689D01*
X66184400Y-95101911D01*
X66143893Y-94963956D01*
X66118086Y-94923800D01*
X67454400Y-94923800D01*
X67454400Y-93855972D01*
X67454399Y-93855955D01*
X67447998Y-93796427D01*
X67447996Y-93796420D01*
X67397754Y-93661713D01*
X67397750Y-93661706D01*
X67311590Y-93546612D01*
X67311587Y-93546609D01*
X67196493Y-93460449D01*
X67196486Y-93460445D01*
X67061779Y-93410203D01*
X67061772Y-93410201D01*
X67002244Y-93403800D01*
X65934400Y-93403800D01*
X65934400Y-94738298D01*
X65826715Y-94689120D01*
X65720163Y-94673800D01*
X65648637Y-94673800D01*
X65542085Y-94689120D01*
X65434400Y-94738298D01*
X65434400Y-93403800D01*
X64366555Y-93403800D01*
X64307027Y-93410201D01*
X64307020Y-93410203D01*
X64172313Y-93460445D01*
X64172306Y-93460449D01*
X64057212Y-93546609D01*
X64057209Y-93546612D01*
X63971049Y-93661706D01*
X63971045Y-93661713D01*
X63920803Y-93796420D01*
X63920801Y-93796427D01*
X63914400Y-93855955D01*
X63914400Y-94091937D01*
X63894715Y-94158976D01*
X63841911Y-94204731D01*
X63772753Y-94214675D01*
X63709197Y-94185650D01*
X63693453Y-94169250D01*
X63631798Y-94091937D01*
X63531508Y-93966177D01*
X63336984Y-93785686D01*
X63155150Y-93661713D01*
X63117736Y-93636204D01*
X63117725Y-93636197D01*
X62878655Y-93521068D01*
X62878636Y-93521061D01*
X62625083Y-93442851D01*
X62625073Y-93442848D01*
X62362688Y-93403300D01*
X62362681Y-93403300D01*
X62097319Y-93403300D01*
X62097311Y-93403300D01*
X61834926Y-93442848D01*
X61834916Y-93442851D01*
X61581363Y-93521061D01*
X61581344Y-93521068D01*
X61342276Y-93636197D01*
X61342274Y-93636198D01*
X61123015Y-93785686D01*
X60928494Y-93966175D01*
X60928492Y-93966177D01*
X60763042Y-94173645D01*
X60630361Y-94403454D01*
X60533416Y-94650467D01*
X60533410Y-94650486D01*
X60474364Y-94909185D01*
X60474363Y-94909190D01*
X60454535Y-95173795D01*
X60454535Y-95173804D01*
X60193700Y-95173804D01*
X60193700Y-78711644D01*
X60460000Y-78711644D01*
X60466401Y-78771172D01*
X60466403Y-78771179D01*
X60516645Y-78905886D01*
X60516649Y-78905893D01*
X60602809Y-79020987D01*
X60602812Y-79020990D01*
X60717906Y-79107150D01*
X60717913Y-79107154D01*
X60852620Y-79157396D01*
X60852627Y-79157398D01*
X60912155Y-79163799D01*
X60912172Y-79163800D01*
X61980000Y-79163800D01*
X61980000Y-77829301D01*
X62087685Y-77878480D01*
X62194237Y-77893800D01*
X62265763Y-77893800D01*
X62372315Y-77878480D01*
X62480000Y-77829301D01*
X62480000Y-79163800D01*
X63547828Y-79163800D01*
X63547844Y-79163799D01*
X63607372Y-79157398D01*
X63607379Y-79157396D01*
X63742086Y-79107154D01*
X63742093Y-79107150D01*
X63857187Y-79020990D01*
X63857190Y-79020987D01*
X63943350Y-78905893D01*
X63943354Y-78905886D01*
X63993596Y-78771179D01*
X63993598Y-78771172D01*
X63999999Y-78711644D01*
X64000000Y-78711627D01*
X64000000Y-78475662D01*
X64019685Y-78408623D01*
X64072489Y-78362868D01*
X64141647Y-78352924D01*
X64205203Y-78381949D01*
X64220941Y-78398343D01*
X64382892Y-78601423D01*
X64577416Y-78781914D01*
X64796668Y-78931398D01*
X65035750Y-79046534D01*
X65289322Y-79124750D01*
X65289323Y-79124750D01*
X65289326Y-79124751D01*
X65551711Y-79164299D01*
X65551716Y-79164299D01*
X65551719Y-79164300D01*
X65551720Y-79164300D01*
X65817080Y-79164300D01*
X65817081Y-79164300D01*
X65817088Y-79164299D01*
X66079473Y-79124751D01*
X66079474Y-79124750D01*
X66079478Y-79124750D01*
X66333050Y-79046534D01*
X66572133Y-78931398D01*
X66791384Y-78781914D01*
X66985908Y-78601423D01*
X67151358Y-78393955D01*
X67284039Y-78164145D01*
X67380986Y-77917127D01*
X67440035Y-77658419D01*
X67459865Y-77393800D01*
X67440035Y-77129181D01*
X67380986Y-76870473D01*
X67284039Y-76623455D01*
X67151358Y-76393645D01*
X66985908Y-76186177D01*
X66791384Y-76005686D01*
X66609550Y-75881713D01*
X66572136Y-75856204D01*
X66572125Y-75856197D01*
X66333055Y-75741068D01*
X66333036Y-75741061D01*
X66079483Y-75662851D01*
X66079473Y-75662848D01*
X65817088Y-75623300D01*
X65817081Y-75623300D01*
X65551719Y-75623300D01*
X65551711Y-75623300D01*
X65289326Y-75662848D01*
X65289316Y-75662851D01*
X65035763Y-75741061D01*
X65035744Y-75741068D01*
X64796676Y-75856197D01*
X64796674Y-75856198D01*
X64577415Y-76005686D01*
X64382894Y-76186175D01*
X64382892Y-76186177D01*
X64220947Y-76389250D01*
X64163759Y-76429390D01*
X64093947Y-76432240D01*
X64033677Y-76396895D01*
X64002084Y-76334576D01*
X64000000Y-76311937D01*
X64000000Y-76075972D01*
X63999999Y-76075955D01*
X63993598Y-76016427D01*
X63993596Y-76016420D01*
X63943354Y-75881713D01*
X63943350Y-75881706D01*
X63857190Y-75766612D01*
X63857187Y-75766609D01*
X63742093Y-75680449D01*
X63742086Y-75680445D01*
X63607379Y-75630203D01*
X63607372Y-75630201D01*
X63547844Y-75623800D01*
X62480000Y-75623800D01*
X62480000Y-76958298D01*
X62372315Y-76909120D01*
X62265763Y-76893800D01*
X62194237Y-76893800D01*
X62087685Y-76909120D01*
X61980000Y-76958298D01*
X61980000Y-75623800D01*
X60912155Y-75623800D01*
X60852627Y-75630201D01*
X60852620Y-75630203D01*
X60717913Y-75680445D01*
X60717906Y-75680449D01*
X60602812Y-75766609D01*
X60602809Y-75766612D01*
X60516649Y-75881706D01*
X60516645Y-75881713D01*
X60466403Y-76016420D01*
X60466401Y-76016427D01*
X60460000Y-76075955D01*
X60460000Y-77143800D01*
X61796314Y-77143800D01*
X61770507Y-77183956D01*
X61730000Y-77321911D01*
X61730000Y-77465689D01*
X61770507Y-77603644D01*
X61796314Y-77643800D01*
X60460000Y-77643800D01*
X60460000Y-78711644D01*
X60193700Y-78711644D01*
X60193700Y-72694804D01*
X70233535Y-72694804D01*
X70253363Y-72959409D01*
X70253364Y-72959414D01*
X70312410Y-73218113D01*
X70312412Y-73218122D01*
X70312414Y-73218127D01*
X70409361Y-73465145D01*
X70542042Y-73694955D01*
X70707492Y-73902423D01*
X70902016Y-74082914D01*
X71121268Y-74232398D01*
X71360350Y-74347534D01*
X71613922Y-74425750D01*
X71613923Y-74425750D01*
X71613926Y-74425751D01*
X71876311Y-74465299D01*
X71876316Y-74465299D01*
X71876319Y-74465300D01*
X71876320Y-74465300D01*
X72141680Y-74465300D01*
X72141681Y-74465300D01*
X72141688Y-74465299D01*
X72404073Y-74425751D01*
X72404074Y-74425750D01*
X72404078Y-74425750D01*
X72657650Y-74347534D01*
X72896733Y-74232398D01*
X73115984Y-74082914D01*
X73191717Y-74012644D01*
X75039600Y-74012644D01*
X75046001Y-74072172D01*
X75046003Y-74072179D01*
X75096245Y-74206886D01*
X75096249Y-74206893D01*
X75182409Y-74321987D01*
X75182412Y-74321990D01*
X75297506Y-74408150D01*
X75297513Y-74408154D01*
X75432220Y-74458396D01*
X75432227Y-74458398D01*
X75491755Y-74464799D01*
X75491772Y-74464800D01*
X76559600Y-74464800D01*
X76559600Y-73130301D01*
X76667285Y-73179480D01*
X76773837Y-73194800D01*
X76845363Y-73194800D01*
X76951915Y-73179480D01*
X77059600Y-73130301D01*
X77059600Y-74464800D01*
X78127428Y-74464800D01*
X78127444Y-74464799D01*
X78186972Y-74458398D01*
X78186979Y-74458396D01*
X78321686Y-74408154D01*
X78321693Y-74408150D01*
X78436787Y-74321990D01*
X78436790Y-74321987D01*
X78522950Y-74206893D01*
X78522954Y-74206886D01*
X78573196Y-74072179D01*
X78573198Y-74072172D01*
X78579599Y-74012644D01*
X78579600Y-74012627D01*
X78579600Y-72944800D01*
X77243286Y-72944800D01*
X77269093Y-72904644D01*
X77309600Y-72766689D01*
X77309600Y-72622911D01*
X77269093Y-72484956D01*
X77243286Y-72444800D01*
X78579600Y-72444800D01*
X78579600Y-71376972D01*
X78579599Y-71376955D01*
X78573198Y-71317427D01*
X78573196Y-71317420D01*
X78522954Y-71182713D01*
X78522950Y-71182706D01*
X78436790Y-71067612D01*
X78436787Y-71067609D01*
X78321693Y-70981449D01*
X78321686Y-70981445D01*
X78186979Y-70931203D01*
X78186972Y-70931201D01*
X78127444Y-70924800D01*
X77059600Y-70924800D01*
X77059600Y-72259298D01*
X76951915Y-72210120D01*
X76845363Y-72194800D01*
X76773837Y-72194800D01*
X76667285Y-72210120D01*
X76559600Y-72259298D01*
X76559600Y-70924800D01*
X75491755Y-70924800D01*
X75432227Y-70931201D01*
X75432220Y-70931203D01*
X75297513Y-70981445D01*
X75297506Y-70981449D01*
X75182412Y-71067609D01*
X75182409Y-71067612D01*
X75096249Y-71182706D01*
X75096245Y-71182713D01*
X75046003Y-71317420D01*
X75046001Y-71317427D01*
X75039600Y-71376955D01*
X75039600Y-72444800D01*
X76375914Y-72444800D01*
X76350107Y-72484956D01*
X76309600Y-72622911D01*
X76309600Y-72766689D01*
X76350107Y-72904644D01*
X76375914Y-72944800D01*
X75039600Y-72944800D01*
X75039600Y-74012644D01*
X73191717Y-74012644D01*
X73310508Y-73902423D01*
X73475958Y-73694955D01*
X73608639Y-73465145D01*
X73705586Y-73218127D01*
X73764635Y-72959419D01*
X73784465Y-72694800D01*
X73764635Y-72430181D01*
X73705586Y-72171473D01*
X73608639Y-71924455D01*
X73475958Y-71694645D01*
X73310508Y-71487177D01*
X73115984Y-71306686D01*
X72934150Y-71182713D01*
X72896736Y-71157204D01*
X72896725Y-71157197D01*
X72657655Y-71042068D01*
X72657636Y-71042061D01*
X72404083Y-70963851D01*
X72404073Y-70963848D01*
X72141688Y-70924300D01*
X72141681Y-70924300D01*
X71876319Y-70924300D01*
X71876311Y-70924300D01*
X71613926Y-70963848D01*
X71613916Y-70963851D01*
X71360363Y-71042061D01*
X71360344Y-71042068D01*
X71121276Y-71157197D01*
X71121274Y-71157198D01*
X70902015Y-71306686D01*
X70707494Y-71487175D01*
X70707492Y-71487177D01*
X70542042Y-71694645D01*
X70409361Y-71924454D01*
X70312416Y-72171467D01*
X70312410Y-72171486D01*
X70253364Y-72430185D01*
X70253363Y-72430190D01*
X70233535Y-72694795D01*
X70233535Y-72694804D01*
X60193700Y-72694804D01*
X60193700Y-68343206D01*
X60213385Y-68276167D01*
X60266189Y-68230412D01*
X60335347Y-68220468D01*
X60398903Y-68249493D01*
X60409338Y-68259669D01*
X60414993Y-68265872D01*
X60428626Y-68276167D01*
X60585146Y-68394367D01*
X60776006Y-68489403D01*
X60776008Y-68489403D01*
X60776011Y-68489405D01*
X60981090Y-68547756D01*
X61140206Y-68562500D01*
X61140210Y-68562500D01*
X62546590Y-68562500D01*
X62546594Y-68562500D01*
X62705710Y-68547756D01*
X62910789Y-68489405D01*
X62910793Y-68489403D01*
X62910794Y-68489403D01*
X63101653Y-68394367D01*
X63101653Y-68394366D01*
X63101655Y-68394366D01*
X63271807Y-68265872D01*
X63415452Y-68108302D01*
X63527698Y-67927019D01*
X63604721Y-67728198D01*
X63643900Y-67518610D01*
X63643900Y-67305390D01*
X63604721Y-67095802D01*
X63527698Y-66896981D01*
X63415452Y-66715698D01*
X63271807Y-66558128D01*
X63253810Y-66544537D01*
X63101653Y-66429632D01*
X62910793Y-66334596D01*
X62705710Y-66276244D01*
X62546594Y-66261500D01*
X61140206Y-66261500D01*
X61012913Y-66273295D01*
X60981089Y-66276244D01*
X60776007Y-66334596D01*
X60776005Y-66334596D01*
X60585146Y-66429632D01*
X60414992Y-66558128D01*
X60409334Y-66564335D01*
X60349622Y-66600614D01*
X60279774Y-66598851D01*
X60221968Y-66559605D01*
X60194556Y-66495337D01*
X60193700Y-66480793D01*
X60193700Y-64262000D01*
X65480341Y-64262000D01*
X65500557Y-64570439D01*
X65500559Y-64570451D01*
X65560858Y-64873597D01*
X65560862Y-64873612D01*
X65660216Y-65166299D01*
X65660225Y-65166320D01*
X65796928Y-65443526D01*
X65968660Y-65700540D01*
X66007273Y-65744570D01*
X66007274Y-65744570D01*
X66728473Y-65023371D01*
X66805290Y-65133078D01*
X66972322Y-65300110D01*
X67082026Y-65376925D01*
X66360828Y-66098124D01*
X66360828Y-66098125D01*
X66404859Y-66136740D01*
X66661873Y-66308471D01*
X66939079Y-66445174D01*
X66939100Y-66445183D01*
X67231787Y-66544537D01*
X67231802Y-66544541D01*
X67534948Y-66604840D01*
X67534960Y-66604842D01*
X67843400Y-66625058D01*
X68151839Y-66604842D01*
X68151851Y-66604840D01*
X68454997Y-66544541D01*
X68455012Y-66544537D01*
X68747699Y-66445183D01*
X68747720Y-66445174D01*
X69024926Y-66308471D01*
X69281938Y-66136741D01*
X69281942Y-66136738D01*
X69325970Y-66098125D01*
X69325970Y-66098124D01*
X68604773Y-65376926D01*
X68714478Y-65300110D01*
X68881510Y-65133078D01*
X68958326Y-65023373D01*
X69679524Y-65744570D01*
X69679525Y-65744570D01*
X69718138Y-65700542D01*
X69718141Y-65700538D01*
X69889871Y-65443526D01*
X70026574Y-65166320D01*
X70026583Y-65166299D01*
X70125937Y-64873612D01*
X70125941Y-64873597D01*
X70186240Y-64570451D01*
X70186242Y-64570439D01*
X70206458Y-64262000D01*
X70186242Y-63953560D01*
X70186240Y-63953548D01*
X70125941Y-63650402D01*
X70125937Y-63650387D01*
X70026583Y-63357700D01*
X70026574Y-63357679D01*
X69889874Y-63080480D01*
X69889865Y-63080465D01*
X69718139Y-62823459D01*
X69679525Y-62779428D01*
X69679524Y-62779428D01*
X68958325Y-63500626D01*
X68881510Y-63390922D01*
X68714478Y-63223890D01*
X68604772Y-63147073D01*
X69325970Y-62425874D01*
X69325970Y-62425873D01*
X69281940Y-62387260D01*
X69024926Y-62215528D01*
X68747720Y-62078825D01*
X68747699Y-62078816D01*
X68455012Y-61979462D01*
X68454997Y-61979458D01*
X68151851Y-61919159D01*
X68151839Y-61919157D01*
X67843400Y-61898941D01*
X67534960Y-61919157D01*
X67534948Y-61919159D01*
X67231802Y-61979458D01*
X67231787Y-61979462D01*
X66939100Y-62078816D01*
X66939079Y-62078825D01*
X66661880Y-62215525D01*
X66661865Y-62215534D01*
X66404863Y-62387257D01*
X66360828Y-62425874D01*
X66360828Y-62425875D01*
X67082027Y-63147073D01*
X66972322Y-63223890D01*
X66805290Y-63390922D01*
X66728473Y-63500626D01*
X66007275Y-62779428D01*
X66007274Y-62779428D01*
X65968657Y-62823463D01*
X65796934Y-63080465D01*
X65796925Y-63080480D01*
X65660225Y-63357679D01*
X65660216Y-63357700D01*
X65560862Y-63650387D01*
X65560858Y-63650402D01*
X65500559Y-63953548D01*
X65500557Y-63953560D01*
X65480341Y-64262000D01*
X60193700Y-64262000D01*
X60193700Y-57062007D01*
X65479839Y-57062007D01*
X65500058Y-57370490D01*
X65500059Y-57370500D01*
X65500060Y-57370507D01*
X65500062Y-57370517D01*
X65560374Y-57673729D01*
X65560377Y-57673743D01*
X65659752Y-57966491D01*
X65659761Y-57966512D01*
X65796493Y-58243777D01*
X65968262Y-58500846D01*
X66172109Y-58733290D01*
X66353626Y-58892475D01*
X66404555Y-58937139D01*
X66661619Y-59108904D01*
X66661622Y-59108906D01*
X66938887Y-59245638D01*
X66938892Y-59245640D01*
X66938904Y-59245646D01*
X67231665Y-59345025D01*
X67534893Y-59405340D01*
X67564518Y-59407281D01*
X67843393Y-59425561D01*
X67843400Y-59425561D01*
X67843407Y-59425561D01*
X68090384Y-59409372D01*
X68151907Y-59405340D01*
X68455135Y-59345025D01*
X68747896Y-59245646D01*
X69025181Y-59108904D01*
X69282245Y-58937139D01*
X69514690Y-58733290D01*
X69718539Y-58500845D01*
X69890304Y-58243781D01*
X70027046Y-57966496D01*
X70126425Y-57673735D01*
X70186740Y-57370507D01*
X70206961Y-57062000D01*
X70206961Y-57061992D01*
X70186741Y-56753509D01*
X70186740Y-56753493D01*
X70165469Y-56646556D01*
X70171696Y-56576967D01*
X70214559Y-56521790D01*
X70280449Y-56498545D01*
X70348446Y-56514613D01*
X70374056Y-56537201D01*
X70375540Y-56535718D01*
X70381812Y-56541990D01*
X70496906Y-56628150D01*
X70496913Y-56628154D01*
X70631620Y-56678396D01*
X70631627Y-56678398D01*
X70691155Y-56684799D01*
X70691172Y-56684800D01*
X71759000Y-56684800D01*
X71759000Y-55350301D01*
X71866685Y-55399480D01*
X71973237Y-55414800D01*
X72044763Y-55414800D01*
X72151315Y-55399480D01*
X72259000Y-55350301D01*
X72259000Y-56684800D01*
X73326828Y-56684800D01*
X73326844Y-56684799D01*
X73386372Y-56678398D01*
X73386379Y-56678396D01*
X73521086Y-56628154D01*
X73521093Y-56628150D01*
X73636187Y-56541990D01*
X73636190Y-56541987D01*
X73722350Y-56426893D01*
X73722354Y-56426886D01*
X73772596Y-56292179D01*
X73772598Y-56292172D01*
X73778999Y-56232644D01*
X73779000Y-56232627D01*
X73779000Y-55164800D01*
X72442686Y-55164800D01*
X72468493Y-55124644D01*
X72509000Y-54986689D01*
X72509000Y-54914804D01*
X75034135Y-54914804D01*
X75053963Y-55179409D01*
X75053964Y-55179414D01*
X75113010Y-55438113D01*
X75113012Y-55438122D01*
X75113014Y-55438127D01*
X75209961Y-55685145D01*
X75342642Y-55914955D01*
X75508092Y-56122423D01*
X75702616Y-56302914D01*
X75921868Y-56452398D01*
X76160950Y-56567534D01*
X76414522Y-56645750D01*
X76414523Y-56645750D01*
X76414526Y-56645751D01*
X76676911Y-56685299D01*
X76676916Y-56685299D01*
X76676919Y-56685300D01*
X76676920Y-56685300D01*
X76942280Y-56685300D01*
X76942281Y-56685300D01*
X76942288Y-56685299D01*
X77204673Y-56645751D01*
X77204674Y-56645750D01*
X77204678Y-56645750D01*
X77458250Y-56567534D01*
X77697333Y-56452398D01*
X77916584Y-56302914D01*
X78111108Y-56122423D01*
X78276558Y-55914955D01*
X78409239Y-55685145D01*
X78506186Y-55438127D01*
X78565235Y-55179419D01*
X78577549Y-55015096D01*
X78585065Y-54914804D01*
X78585065Y-54914795D01*
X78565236Y-54650190D01*
X78565235Y-54650185D01*
X78565235Y-54650181D01*
X78506186Y-54391473D01*
X78409239Y-54144455D01*
X78276558Y-53914645D01*
X78111108Y-53707177D01*
X77916584Y-53526686D01*
X77734750Y-53402713D01*
X77697336Y-53377204D01*
X77697325Y-53377197D01*
X77458255Y-53262068D01*
X77458236Y-53262061D01*
X77204683Y-53183851D01*
X77204673Y-53183848D01*
X76942288Y-53144300D01*
X76942281Y-53144300D01*
X76676919Y-53144300D01*
X76676911Y-53144300D01*
X76414526Y-53183848D01*
X76414516Y-53183851D01*
X76160963Y-53262061D01*
X76160944Y-53262068D01*
X75921876Y-53377197D01*
X75921874Y-53377198D01*
X75702615Y-53526686D01*
X75508094Y-53707175D01*
X75508092Y-53707177D01*
X75342642Y-53914645D01*
X75209961Y-54144454D01*
X75113016Y-54391467D01*
X75113010Y-54391486D01*
X75053964Y-54650185D01*
X75053963Y-54650190D01*
X75034135Y-54914795D01*
X75034135Y-54914804D01*
X72509000Y-54914804D01*
X72509000Y-54842911D01*
X72468493Y-54704956D01*
X72442686Y-54664800D01*
X73779000Y-54664800D01*
X73779000Y-53596972D01*
X73778999Y-53596955D01*
X73772598Y-53537427D01*
X73772596Y-53537420D01*
X73722354Y-53402713D01*
X73722350Y-53402706D01*
X73636190Y-53287612D01*
X73636187Y-53287609D01*
X73521093Y-53201449D01*
X73521086Y-53201445D01*
X73386379Y-53151203D01*
X73386372Y-53151201D01*
X73326844Y-53144800D01*
X72259000Y-53144800D01*
X72259000Y-54479298D01*
X72151315Y-54430120D01*
X72044763Y-54414800D01*
X71973237Y-54414800D01*
X71866685Y-54430120D01*
X71759000Y-54479298D01*
X71759000Y-53144800D01*
X70691155Y-53144800D01*
X70631627Y-53151201D01*
X70631620Y-53151203D01*
X70496913Y-53201445D01*
X70496906Y-53201449D01*
X70381812Y-53287609D01*
X70381809Y-53287612D01*
X70295649Y-53402706D01*
X70295645Y-53402713D01*
X70245403Y-53537420D01*
X70245401Y-53537427D01*
X70239000Y-53596955D01*
X70239000Y-54664800D01*
X71575314Y-54664800D01*
X71549507Y-54704956D01*
X71509000Y-54842911D01*
X71509000Y-54986689D01*
X71549507Y-55124644D01*
X71575314Y-55164800D01*
X70239000Y-55164800D01*
X70239000Y-56055496D01*
X70219315Y-56122535D01*
X70166511Y-56168290D01*
X70097353Y-56178234D01*
X70033797Y-56149209D01*
X70003788Y-56110340D01*
X69890308Y-55880227D01*
X69890306Y-55880224D01*
X69890304Y-55880220D01*
X69718539Y-55623155D01*
X69514690Y-55390709D01*
X69282246Y-55186862D01*
X69271099Y-55179414D01*
X69025181Y-55015096D01*
X69025182Y-55015096D01*
X69025177Y-55015093D01*
X68747912Y-54878361D01*
X68747891Y-54878352D01*
X68455143Y-54778977D01*
X68455137Y-54778975D01*
X68455135Y-54778975D01*
X68151907Y-54718660D01*
X68151900Y-54718659D01*
X68151890Y-54718658D01*
X67843407Y-54698439D01*
X67843393Y-54698439D01*
X67534909Y-54718658D01*
X67534897Y-54718659D01*
X67534893Y-54718660D01*
X67534885Y-54718661D01*
X67534882Y-54718662D01*
X67231670Y-54778974D01*
X67231656Y-54778977D01*
X66938908Y-54878352D01*
X66938887Y-54878361D01*
X66661627Y-55015091D01*
X66661620Y-55015096D01*
X66404556Y-55186859D01*
X66172109Y-55390709D01*
X65968259Y-55623156D01*
X65796496Y-55880220D01*
X65796491Y-55880227D01*
X65659761Y-56157487D01*
X65659752Y-56157508D01*
X65560377Y-56450256D01*
X65560374Y-56450270D01*
X65500062Y-56753482D01*
X65500058Y-56753509D01*
X65479839Y-57061992D01*
X65479839Y-57062007D01*
X60193700Y-57062007D01*
X60193700Y-54843206D01*
X60213385Y-54776167D01*
X60266189Y-54730412D01*
X60335347Y-54720468D01*
X60398903Y-54749493D01*
X60409338Y-54759669D01*
X60414993Y-54765872D01*
X60432347Y-54778977D01*
X60585146Y-54894367D01*
X60776006Y-54989403D01*
X60776008Y-54989403D01*
X60776011Y-54989405D01*
X60981090Y-55047756D01*
X61140206Y-55062500D01*
X61140210Y-55062500D01*
X62546590Y-55062500D01*
X62546594Y-55062500D01*
X62705710Y-55047756D01*
X62910789Y-54989405D01*
X62910793Y-54989403D01*
X62910794Y-54989403D01*
X63101653Y-54894367D01*
X63101653Y-54894366D01*
X63101655Y-54894366D01*
X63271807Y-54765872D01*
X63415452Y-54608302D01*
X63527698Y-54427019D01*
X63604721Y-54228198D01*
X63643900Y-54018610D01*
X63643900Y-53805390D01*
X63604721Y-53595802D01*
X63527698Y-53396981D01*
X63415452Y-53215698D01*
X63271807Y-53058128D01*
X63161006Y-52974454D01*
X63119370Y-52918345D01*
X63114679Y-52848633D01*
X63148421Y-52787451D01*
X63209885Y-52754224D01*
X63235733Y-52751500D01*
X78946200Y-52751500D01*
X79013239Y-52771185D01*
G37*
G04 #@! TD.AperFunction*
M02*
