M48
; DRILL file {KiCad 7.0.8} date Fri Apr 19 19:44:53 2024
; FORMAT={-:-/ absolute / metric / decimal}
; #@! TF.CreationDate,2024-04-19T19:44:53-04:00
; #@! TF.GenerationSoftware,Kicad,Pcbnew,7.0.8
; #@! TF.FileFunction,Plated,1,2,PTH
FMAT,2
METRIC
; #@! TA.AperFunction,Plated,PTH,ViaDrill
T1C0.450
; #@! TA.AperFunction,Plated,PTH,ComponentDrill
T2C0.600
; #@! TA.AperFunction,Plated,PTH,ComponentDrill
T3C0.920
; #@! TA.AperFunction,Plated,PTH,ComponentDrill
T4C0.950
; #@! TA.AperFunction,Plated,PTH,ComponentDrill
T5C1.000
; #@! TA.AperFunction,Plated,PTH,ComponentDrill
T6C1.020
; #@! TA.AperFunction,Plated,PTH,ComponentDrill
T7C1.250
; #@! TA.AperFunction,Plated,PTH,ComponentDrill
T8C2.260
; #@! TA.AperFunction,Plated,PTH,ComponentDrill
T9C2.700
%
G90
G05
T1
X116.789Y-75.565
X120.476Y-59.538
X120.476Y-63.119
X122.585Y-59.547
X123.596Y-63.128
X124.381Y-130.131
X125.117Y-128.581
X125.615Y-74.016
X125.927Y-127.822
T3
X127.231Y-128.31
X127.231Y-130.81
X127.231Y-132.81
X127.231Y-135.31
T4
X110.82Y-82.619
X110.82Y-85.119
X110.82Y-87.619
X110.82Y-90.119
X110.922Y-97.859
X110.922Y-100.359
X110.922Y-102.859
X110.922Y-105.359
T5
X62.23Y-77.394
X62.23Y-95.174
X62.23Y-99.797
X62.23Y-117.577
X62.23Y-122.199
X62.23Y-139.979
X65.684Y-77.394
X65.684Y-95.174
X65.684Y-99.797
X65.684Y-117.577
X72.009Y-54.915
X72.009Y-72.695
X76.81Y-54.915
X76.81Y-72.695
X102.87Y-77.394
X102.87Y-95.174
X102.87Y-99.797
X102.87Y-117.577
X102.87Y-122.199
X102.87Y-139.979
X105.867Y-121.666
X106.324Y-77.394
X106.324Y-95.174
X106.324Y-99.797
X106.324Y-117.577
X108.407Y-121.666
X110.947Y-121.666
X111.709Y-111.8
X111.709Y-114.3
X112.649Y-54.915
X112.649Y-72.695
X116.662Y-82.804
X116.662Y-85.344
X116.662Y-87.884
X116.662Y-90.424
X116.662Y-97.79
X116.662Y-100.33
X116.662Y-102.87
X116.662Y-105.41
X117.45Y-54.915
X117.45Y-72.695
X124.333Y-97.003
X124.333Y-99.543
X124.333Y-102.083
X124.333Y-104.623
X124.333Y-107.163
X124.333Y-109.703
X124.333Y-112.243
X124.333Y-114.783
X124.333Y-117.323
X124.337Y-119.888
X126.873Y-117.323
X126.877Y-119.888
X129.413Y-117.323
X129.417Y-119.888
T6
X125.552Y-54.229
X125.552Y-56.769
X125.552Y-59.309
X125.552Y-61.849
X125.552Y-64.389
X125.552Y-66.929
X125.552Y-69.469
X125.552Y-72.009
X128.092Y-54.229
X128.092Y-56.769
X128.092Y-59.309
X128.092Y-61.849
X128.092Y-64.389
X128.092Y-66.929
X128.092Y-69.469
X128.092Y-72.009
X130.632Y-54.229
X130.632Y-56.769
X130.632Y-59.309
X130.632Y-61.849
X130.632Y-64.389
X130.632Y-66.929
X130.632Y-69.469
X130.632Y-72.009
T7
X68.961Y-127.637
X68.961Y-134.087
X99.961Y-127.637
X99.961Y-134.137
T8
X129.941Y-125.24
X129.941Y-138.38
T9
X67.843Y-57.062
X67.843Y-64.262
T2
X62.393Y-53.912G85X61.293Y-53.912
G05
X62.393Y-67.412G85X61.293Y-67.412
G05
T5
X108.489Y-128.274G85X111.089Y-128.274
G05
X108.689Y-134.575G85X110.889Y-134.575
G05
X114.589Y-130.075G85X114.589Y-132.274
G05
T0
M30
