%TF.GenerationSoftware,KiCad,Pcbnew,8.0.2*%
%TF.CreationDate,2024-09-16T20:18:51-04:00*%
%TF.ProjectId,servo_tester,73657276-6f5f-4746-9573-7465722e6b69,rev?*%
%TF.SameCoordinates,Original*%
%TF.FileFunction,Copper,L1,Top*%
%TF.FilePolarity,Positive*%
%FSLAX46Y46*%
G04 Gerber Fmt 4.6, Leading zero omitted, Abs format (unit mm)*
G04 Created by KiCad (PCBNEW 8.0.2) date 2024-09-16 20:18:51*
%MOMM*%
%LPD*%
G01*
G04 APERTURE LIST*
%TA.AperFunction,ComponentPad*%
%ADD10R,1.700000X1.700000*%
%TD*%
%TA.AperFunction,ComponentPad*%
%ADD11O,1.700000X1.700000*%
%TD*%
%TA.AperFunction,ComponentPad*%
%ADD12C,1.524000*%
%TD*%
%TA.AperFunction,ComponentPad*%
%ADD13O,3.000000X2.900000*%
%TD*%
%TA.AperFunction,ViaPad*%
%ADD14C,0.800000*%
%TD*%
%TA.AperFunction,ViaPad*%
%ADD15C,0.600000*%
%TD*%
%TA.AperFunction,Conductor*%
%ADD16C,0.500000*%
%TD*%
%TA.AperFunction,Conductor*%
%ADD17C,1.800000*%
%TD*%
%TA.AperFunction,Conductor*%
%ADD18C,0.300000*%
%TD*%
G04 APERTURE END LIST*
D10*
%TO.P,U4,1,1D/1E/1F/CA1*%
%TO.N,/22*%
X102362000Y-59436000D03*
D11*
%TO.P,U4,2,1L/1K/1J/1I*%
%TO.N,/21*%
X102362000Y-61976000D03*
%TO.P,U4,3,2D/2E/2F/CA2*%
%TO.N,/20*%
X102362000Y-64516000D03*
%TO.P,U4,4,2L/2K/2J/2I*%
%TO.N,/19*%
X102362000Y-67056000D03*
%TO.P,U4,5,3D/3E/3F/CA3*%
%TO.N,/18*%
X102362000Y-69596000D03*
%TO.P,U4,6,3L/3K/3J/3I*%
%TO.N,/17*%
X102362000Y-72136000D03*
%TO.P,U4,7,4D/4E/4F/CA4*%
%TO.N,/16*%
X102362000Y-74676000D03*
%TO.P,U4,8,4L/4K/4J/4I*%
%TO.N,/15*%
X102362000Y-77216000D03*
%TO.P,U4,9,5D/5E/5F/CA5*%
%TO.N,/14*%
X102362000Y-79756000D03*
%TO.P,U4,10,5L/5K/5J/5I*%
%TO.N,/13*%
X102362000Y-82296000D03*
%TO.P,U4,11,6D/6E/6F/CA6*%
%TO.N,/12*%
X102362000Y-84836000D03*
%TO.P,U4,12,6L/6K/6J/6I*%
%TO.N,/11*%
X102362000Y-87376000D03*
%TO.P,U4,13,7D/7E/7F/CA7*%
%TO.N,/10*%
X102362000Y-89916000D03*
%TO.P,U4,14,7L/7K/7J/7I*%
%TO.N,/9*%
X102362000Y-92456000D03*
%TO.P,U4,15,8D/8E/8F/CA8*%
%TO.N,/8*%
X102362000Y-94996000D03*
%TO.P,U4,16,8L/8K/8J/8I*%
%TO.N,/7*%
X102362000Y-97536000D03*
%TO.P,U4,17,COM0*%
%TO.N,/COM0*%
X102362000Y-100076000D03*
%TO.P,U4,18,COM1*%
%TO.N,/COM1*%
X102362000Y-102616000D03*
D10*
%TO.P,U4,19,COM2*%
%TO.N,/COM2*%
X126862000Y-102606000D03*
D11*
%TO.P,U4,20,COM3*%
%TO.N,/COM3*%
X126862000Y-100066000D03*
%TO.P,U4,21,DP8/8C/8B/8A*%
%TO.N,/6*%
X126862000Y-97526000D03*
%TO.P,U4,22,8M/8N/8G/8H*%
%TO.N,/5*%
X126862000Y-94986000D03*
%TO.P,U4,23,DP7/7C/7B/7A*%
%TO.N,/4*%
X126862000Y-92446000D03*
%TO.P,U4,24,7M/7N/7G/7H*%
%TO.N,/3*%
X126862000Y-89906000D03*
%TO.P,U4,25,DP6/6C/6B/6A*%
%TO.N,/2*%
X126862000Y-87366000D03*
%TO.P,U4,26,6M/6N/6G/6H*%
%TO.N,/1*%
X126862000Y-84826000D03*
%TO.P,U4,27,DP5/5C/5B/5A*%
%TO.N,/0*%
X126862000Y-82286000D03*
%TO.P,U4,28,5M/5N/5G/5H*%
%TO.N,/35*%
X126862000Y-79746000D03*
%TO.P,U4,29,DP4/4C/4B/4A*%
%TO.N,/34*%
X126862000Y-77206000D03*
%TO.P,U4,30,4M/4N/4G/4H*%
%TO.N,/33*%
X126862000Y-74666000D03*
%TO.P,U4,31,DP3/3C/3B/3A*%
%TO.N,/32*%
X126862000Y-72126000D03*
%TO.P,U4,32,3M/3N/3G/3H*%
%TO.N,/31*%
X126862000Y-69586000D03*
%TO.P,U4,33,DP1/2C/2B/2A*%
%TO.N,/27*%
X126862000Y-67046000D03*
%TO.P,U4,34,2M/2N/2G/2H*%
%TO.N,/28*%
X126862000Y-64506000D03*
%TO.P,U4,35,DP1/1C/1B/1A*%
%TO.N,/29*%
X126862000Y-61966000D03*
%TO.P,U4,36,1M/1N/1G/1H*%
%TO.N,/30*%
X126862000Y-59426000D03*
%TD*%
D10*
%TO.P,J3,1,Pin_1*%
%TO.N,unconnected-(J3-Pin_1-Pad1)*%
X102616000Y-109220000D03*
D11*
%TO.P,J3,2,Pin_2*%
%TO.N,VIN*%
X102616000Y-111760000D03*
%TO.P,J3,3,Pin_3*%
%TO.N,GND*%
X102616000Y-114300000D03*
%TD*%
D12*
%TO.P,SW1,A,A*%
%TO.N,/A*%
X112776000Y-43728000D03*
%TO.P,SW1,B,B*%
%TO.N,/B*%
X112776000Y-48728000D03*
%TO.P,SW1,C,C*%
%TO.N,GND*%
X112776000Y-46228000D03*
%TO.P,SW1,S1,S1*%
%TO.N,/SW*%
X127276000Y-43728000D03*
%TO.P,SW1,S2,S2*%
%TO.N,GND*%
X127276000Y-48728000D03*
D13*
%TO.P,SW1,SH*%
%TO.N,N/C*%
X120276000Y-39628000D03*
X120276000Y-52828000D03*
%TD*%
D10*
%TO.P,J2,1,Pin_1*%
%TO.N,/PWM2*%
X121920000Y-109220000D03*
D11*
%TO.P,J2,2,Pin_2*%
%TO.N,VIN*%
X121920000Y-111760000D03*
%TO.P,J2,3,Pin_3*%
%TO.N,GND*%
X121920000Y-114300000D03*
%TD*%
D10*
%TO.P,J5,1,Pin_1*%
%TO.N,/PWM3*%
X126492000Y-109220000D03*
D11*
%TO.P,J5,2,Pin_2*%
%TO.N,VIN*%
X126492000Y-111760000D03*
%TO.P,J5,3,Pin_3*%
%TO.N,GND*%
X126492000Y-114300000D03*
%TD*%
D10*
%TO.P,J4,1,Pin_1*%
%TO.N,/UPDI*%
X102591000Y-51278000D03*
D11*
%TO.P,J4,2,Pin_2*%
%TO.N,3V3*%
X102591000Y-48738000D03*
%TO.P,J4,3,Pin_3*%
%TO.N,GND*%
X102591000Y-46198000D03*
%TO.P,J4,4,Pin_4*%
%TO.N,/UART_RX*%
X102591000Y-43658000D03*
%TO.P,J4,5,Pin_5*%
%TO.N,/UART_TX*%
X102591000Y-41118000D03*
%TD*%
D10*
%TO.P,J1,1,Pin_1*%
%TO.N,/PWM1*%
X117348000Y-109220000D03*
D11*
%TO.P,J1,2,Pin_2*%
%TO.N,VIN*%
X117348000Y-111760000D03*
%TO.P,J1,3,Pin_3*%
%TO.N,GND*%
X117348000Y-114300000D03*
%TD*%
D14*
%TO.N,VIN*%
X108204000Y-94996000D03*
X112776000Y-111760000D03*
X108204000Y-76708000D03*
X108204000Y-70612000D03*
X111760000Y-111760000D03*
X108204000Y-99568000D03*
X109707154Y-62100346D03*
X108204000Y-111760000D03*
X108204000Y-89408000D03*
%TO.N,GND*%
X109728000Y-67564000D03*
X108204000Y-113792000D03*
X114808000Y-113792000D03*
X107188000Y-113792000D03*
X119380000Y-109220000D03*
X104822000Y-109220000D03*
X109220000Y-113792000D03*
X110744000Y-109220000D03*
X117348000Y-70612000D03*
X119888000Y-81280000D03*
X110236000Y-113792000D03*
X124460000Y-109220000D03*
%TO.N,3V3*%
X107188000Y-61468000D03*
X109220000Y-93980000D03*
X109220000Y-92456000D03*
X109220000Y-88392000D03*
X112268000Y-69596000D03*
X109220000Y-97028000D03*
X109220000Y-77724000D03*
X109220000Y-70104000D03*
X118925688Y-62938312D03*
D15*
X117049500Y-83312000D03*
D14*
X107188000Y-58420000D03*
%TO.N,/PWM1*%
X112268000Y-77724000D03*
X111760000Y-74168000D03*
X112268000Y-93980000D03*
X111760000Y-91440000D03*
%TO.N,/PWM2*%
X113284000Y-77724000D03*
X113284000Y-92964000D03*
X112776000Y-90424000D03*
X112776000Y-74168000D03*
%TO.N,/UPDI*%
X108712000Y-62992000D03*
X115341500Y-64516000D03*
%TO.N,/PWM3*%
X114300000Y-77724000D03*
X113792000Y-89408000D03*
X114300000Y-91948000D03*
X113792000Y-74168000D03*
D15*
%TO.N,/SDA*%
X122660023Y-64240023D03*
X123418734Y-72110734D03*
X123952000Y-78247266D03*
X123445043Y-69089043D03*
%TO.N,/SCL*%
X122402734Y-73126734D03*
X122429043Y-70105043D03*
X122936000Y-78232000D03*
X121898023Y-65002023D03*
%TD*%
D16*
%TO.N,3V3*%
X115088000Y-86588000D02*
X117049500Y-84626500D01*
X109220000Y-92456000D02*
X115088000Y-86588000D01*
%TO.N,VIN*%
X108401572Y-62100346D02*
X107862000Y-62639918D01*
X108204000Y-76708000D02*
X108204000Y-89408000D01*
D17*
X102616000Y-111760000D02*
X108204000Y-111760000D01*
D16*
X109707154Y-62100346D02*
X108401572Y-62100346D01*
D17*
X117348000Y-111760000D02*
X121920000Y-111760000D01*
X112776000Y-111760000D02*
X117348000Y-111760000D01*
D16*
X108204000Y-99568000D02*
X108204000Y-94996000D01*
D17*
X121920000Y-111760000D02*
X126492000Y-111760000D01*
X108204000Y-111760000D02*
X111760000Y-111760000D01*
D16*
X107862000Y-62639918D02*
X107862000Y-70270000D01*
D17*
X111760000Y-111760000D02*
X112776000Y-111760000D01*
D16*
X107862000Y-70270000D02*
X108204000Y-70612000D01*
D17*
%TO.N,GND*%
X119888000Y-68072000D02*
X119888000Y-90005321D01*
X116841500Y-65196500D02*
X116841500Y-49531500D01*
X111760000Y-98133321D02*
X111760000Y-108204000D01*
X112776000Y-46228000D02*
X124776000Y-46228000D01*
X119380000Y-107996364D02*
X118653636Y-107270000D01*
X124460000Y-108504364D02*
X123225636Y-107270000D01*
X109728000Y-67564000D02*
X111276000Y-66016000D01*
X124776000Y-46228000D02*
X127276000Y-48728000D01*
X121920000Y-114300000D02*
X126492000Y-114300000D01*
X111760000Y-108204000D02*
X110744000Y-109220000D01*
X119888000Y-65032147D02*
X119888000Y-68072000D01*
X119888000Y-90005321D02*
X111760000Y-98133321D01*
X124460000Y-109220000D02*
X124460000Y-108504364D01*
X102591000Y-46198000D02*
X112746000Y-46198000D01*
X102616000Y-114300000D02*
X117348000Y-114300000D01*
X116022000Y-66016000D02*
X116841500Y-65196500D01*
X104822000Y-109220000D02*
X110744000Y-109220000D01*
X112776000Y-46228000D02*
X113538000Y-46228000D01*
X117348000Y-114300000D02*
X121920000Y-114300000D01*
X112746000Y-46198000D02*
X112776000Y-46228000D01*
X116841500Y-58332179D02*
X120904000Y-62394679D01*
X116841500Y-49531500D02*
X116841500Y-58332179D01*
X111276000Y-66016000D02*
X116022000Y-66016000D01*
X120904000Y-64016147D02*
X119888000Y-65032147D01*
X112694000Y-107270000D02*
X110744000Y-109220000D01*
X118653636Y-107270000D02*
X112694000Y-107270000D01*
X123225636Y-107270000D02*
X118653636Y-107270000D01*
X119380000Y-109220000D02*
X119380000Y-107996364D01*
X113538000Y-46228000D02*
X116841500Y-49531500D01*
X120904000Y-62394679D02*
X120904000Y-64016147D01*
X119888000Y-68072000D02*
X117348000Y-70612000D01*
D16*
%TO.N,3V3*%
X118364000Y-66548000D02*
X115316000Y-69596000D01*
X115316000Y-69596000D02*
X112268000Y-69596000D01*
X109220000Y-88392000D02*
X109220000Y-77724000D01*
X118925688Y-62938312D02*
X118364000Y-63500000D01*
X109220000Y-93980000D02*
X109220000Y-97028000D01*
X112268000Y-69596000D02*
X109728000Y-69596000D01*
X118364000Y-63500000D02*
X118364000Y-66548000D01*
X109728000Y-69596000D02*
X109220000Y-70104000D01*
X107188000Y-61468000D02*
X107188000Y-58420000D01*
X117049500Y-84626500D02*
X117049500Y-83312000D01*
%TO.N,/PWM1*%
X112268000Y-91948000D02*
X111760000Y-91440000D01*
X112268000Y-77724000D02*
X111760000Y-77216000D01*
X111760000Y-77216000D02*
X111760000Y-74168000D01*
X112268000Y-93980000D02*
X112268000Y-91948000D01*
%TO.N,/PWM2*%
X113284000Y-92964000D02*
X113284000Y-90932000D01*
X113284000Y-77537918D02*
X113284000Y-77724000D01*
X112776000Y-77029918D02*
X113284000Y-77537918D01*
X113284000Y-90932000D02*
X112776000Y-90424000D01*
X112776000Y-74168000D02*
X112776000Y-77029918D01*
%TO.N,/UPDI*%
X110236000Y-64516000D02*
X115341500Y-64516000D01*
X108712000Y-62992000D02*
X110236000Y-64516000D01*
%TO.N,/PWM3*%
X113792000Y-74168000D02*
X113792000Y-77029918D01*
X113792000Y-77029918D02*
X114300000Y-77537918D01*
X114300000Y-91948000D02*
X114300000Y-89916000D01*
X114300000Y-89916000D02*
X113792000Y-89408000D01*
X114300000Y-77537918D02*
X114300000Y-77724000D01*
D18*
%TO.N,/SDA*%
X123952000Y-78247266D02*
X123444000Y-77739266D01*
X123444000Y-72136000D02*
X123418734Y-72110734D01*
X122660023Y-64240023D02*
X123445043Y-65025043D01*
X123445043Y-65025043D02*
X123445043Y-69089043D01*
X123444000Y-77739266D02*
X123444000Y-72136000D01*
%TO.N,/SCL*%
X122428000Y-77724000D02*
X122428000Y-73152000D01*
X122429043Y-65533043D02*
X122429043Y-70105043D01*
X122936000Y-78232000D02*
X122428000Y-77724000D01*
X122428000Y-73152000D02*
X122402734Y-73126734D01*
X121898023Y-65002023D02*
X122429043Y-65533043D01*
%TD*%
%TA.AperFunction,Conductor*%
%TO.N,GND*%
G36*
X118985448Y-37912185D02*
G01*
X119031203Y-37964989D01*
X119041147Y-38034147D01*
X119012122Y-38097703D01*
X118993895Y-38114876D01*
X118937188Y-38158388D01*
X118937181Y-38158394D01*
X118756394Y-38339181D01*
X118756388Y-38339188D01*
X118600745Y-38542026D01*
X118600734Y-38542042D01*
X118472899Y-38763457D01*
X118472894Y-38763468D01*
X118375053Y-38999677D01*
X118375050Y-38999687D01*
X118308874Y-39246661D01*
X118275500Y-39500149D01*
X118275500Y-39755850D01*
X118287119Y-39844097D01*
X118308874Y-40009340D01*
X118327674Y-40079501D01*
X118375050Y-40256312D01*
X118375053Y-40256322D01*
X118472894Y-40492531D01*
X118472899Y-40492542D01*
X118600734Y-40713957D01*
X118600745Y-40713973D01*
X118756388Y-40916811D01*
X118756394Y-40916818D01*
X118937181Y-41097605D01*
X118937188Y-41097611D01*
X119081638Y-41208452D01*
X119140035Y-41253261D01*
X119140042Y-41253265D01*
X119361457Y-41381100D01*
X119361462Y-41381102D01*
X119361465Y-41381104D01*
X119597687Y-41478950D01*
X119844660Y-41545126D01*
X120098157Y-41578500D01*
X120098164Y-41578500D01*
X120453836Y-41578500D01*
X120453843Y-41578500D01*
X120707340Y-41545126D01*
X120954313Y-41478950D01*
X121190535Y-41381104D01*
X121411965Y-41253261D01*
X121614813Y-41097610D01*
X121795610Y-40916813D01*
X121951261Y-40713965D01*
X122079104Y-40492535D01*
X122176950Y-40256313D01*
X122243126Y-40009340D01*
X122276500Y-39755843D01*
X122276500Y-39500157D01*
X122243126Y-39246660D01*
X122176950Y-38999687D01*
X122079104Y-38763465D01*
X122079102Y-38763462D01*
X122079100Y-38763457D01*
X121951265Y-38542042D01*
X121951261Y-38542035D01*
X121795610Y-38339187D01*
X121795605Y-38339181D01*
X121614818Y-38158394D01*
X121614811Y-38158388D01*
X121558105Y-38114876D01*
X121516902Y-38058448D01*
X121512747Y-37988702D01*
X121546959Y-37927782D01*
X121608676Y-37895029D01*
X121633591Y-37892500D01*
X128607500Y-37892500D01*
X128674539Y-37912185D01*
X128720294Y-37964989D01*
X128731500Y-38016500D01*
X128731500Y-43340197D01*
X128711815Y-43407236D01*
X128659011Y-43452991D01*
X128589853Y-43462935D01*
X128526297Y-43433910D01*
X128488523Y-43375132D01*
X128487725Y-43372291D01*
X128466895Y-43294555D01*
X128466895Y-43294554D01*
X128466894Y-43294550D01*
X128373534Y-43094339D01*
X128246826Y-42913380D01*
X128090620Y-42757174D01*
X128090616Y-42757171D01*
X128090615Y-42757170D01*
X127909666Y-42630468D01*
X127909662Y-42630466D01*
X127886147Y-42619501D01*
X127709450Y-42537106D01*
X127709447Y-42537105D01*
X127709445Y-42537104D01*
X127496070Y-42479930D01*
X127496062Y-42479929D01*
X127276002Y-42460677D01*
X127275998Y-42460677D01*
X127055937Y-42479929D01*
X127055929Y-42479930D01*
X126842554Y-42537104D01*
X126842548Y-42537107D01*
X126642340Y-42630465D01*
X126642338Y-42630466D01*
X126461377Y-42757175D01*
X126305175Y-42913377D01*
X126178466Y-43094338D01*
X126178465Y-43094340D01*
X126085107Y-43294548D01*
X126085104Y-43294554D01*
X126027930Y-43507929D01*
X126027929Y-43507937D01*
X126008677Y-43727997D01*
X126008677Y-43728002D01*
X126027929Y-43948062D01*
X126027930Y-43948070D01*
X126085104Y-44161445D01*
X126085105Y-44161447D01*
X126085106Y-44161450D01*
X126166420Y-44335830D01*
X126178466Y-44361662D01*
X126178468Y-44361666D01*
X126305170Y-44542615D01*
X126305175Y-44542621D01*
X126461378Y-44698824D01*
X126461384Y-44698829D01*
X126642333Y-44825531D01*
X126642335Y-44825532D01*
X126642338Y-44825534D01*
X126842550Y-44918894D01*
X127055932Y-44976070D01*
X127213123Y-44989822D01*
X127275998Y-44995323D01*
X127276000Y-44995323D01*
X127276002Y-44995323D01*
X127331017Y-44990509D01*
X127496068Y-44976070D01*
X127709450Y-44918894D01*
X127909662Y-44825534D01*
X128090620Y-44698826D01*
X128246826Y-44542620D01*
X128373534Y-44361662D01*
X128466894Y-44161450D01*
X128487725Y-44083707D01*
X128524090Y-44024048D01*
X128586937Y-43993519D01*
X128656313Y-44001814D01*
X128710191Y-44046299D01*
X128731465Y-44112851D01*
X128731500Y-44115802D01*
X128731500Y-48342131D01*
X128711815Y-48409170D01*
X128659011Y-48454925D01*
X128589853Y-48464869D01*
X128526297Y-48435844D01*
X128488523Y-48377066D01*
X128487725Y-48374225D01*
X128466423Y-48294727D01*
X128466420Y-48294720D01*
X128373096Y-48094586D01*
X128327741Y-48029811D01*
X128327740Y-48029810D01*
X127758962Y-48598589D01*
X127741925Y-48535007D01*
X127676099Y-48420993D01*
X127583007Y-48327901D01*
X127468993Y-48262075D01*
X127405410Y-48245037D01*
X127974188Y-47676259D01*
X127974187Y-47676258D01*
X127909411Y-47630901D01*
X127909405Y-47630898D01*
X127709284Y-47537580D01*
X127709270Y-47537575D01*
X127495986Y-47480426D01*
X127495976Y-47480424D01*
X127276001Y-47461179D01*
X127275999Y-47461179D01*
X127056023Y-47480424D01*
X127056013Y-47480426D01*
X126842729Y-47537575D01*
X126842720Y-47537579D01*
X126642590Y-47630901D01*
X126577811Y-47676258D01*
X127146590Y-48245037D01*
X127083007Y-48262075D01*
X126968993Y-48327901D01*
X126875901Y-48420993D01*
X126810075Y-48535007D01*
X126793037Y-48598590D01*
X126224258Y-48029811D01*
X126178901Y-48094590D01*
X126085579Y-48294720D01*
X126085575Y-48294729D01*
X126028426Y-48508013D01*
X126028424Y-48508023D01*
X126009179Y-48727999D01*
X126009179Y-48728000D01*
X126028424Y-48947976D01*
X126028426Y-48947986D01*
X126085575Y-49161270D01*
X126085580Y-49161284D01*
X126178898Y-49361405D01*
X126178901Y-49361411D01*
X126224258Y-49426187D01*
X126224259Y-49426188D01*
X126793037Y-48857409D01*
X126810075Y-48920993D01*
X126875901Y-49035007D01*
X126968993Y-49128099D01*
X127083007Y-49193925D01*
X127146590Y-49210962D01*
X126577810Y-49779740D01*
X126642590Y-49825099D01*
X126642592Y-49825100D01*
X126842715Y-49918419D01*
X126842729Y-49918424D01*
X127056013Y-49975573D01*
X127056023Y-49975575D01*
X127275999Y-49994821D01*
X127276001Y-49994821D01*
X127495976Y-49975575D01*
X127495986Y-49975573D01*
X127709270Y-49918424D01*
X127709284Y-49918419D01*
X127909407Y-49825100D01*
X127909417Y-49825094D01*
X127974188Y-49779741D01*
X127405410Y-49210962D01*
X127468993Y-49193925D01*
X127583007Y-49128099D01*
X127676099Y-49035007D01*
X127741925Y-48920993D01*
X127758962Y-48857409D01*
X128327741Y-49426188D01*
X128373094Y-49361417D01*
X128373100Y-49361407D01*
X128466419Y-49161284D01*
X128466424Y-49161270D01*
X128487725Y-49081775D01*
X128524090Y-49022114D01*
X128586937Y-48991585D01*
X128656312Y-48999880D01*
X128710190Y-49044365D01*
X128731465Y-49110917D01*
X128731500Y-49113868D01*
X128731500Y-116415500D01*
X128711815Y-116482539D01*
X128659011Y-116528294D01*
X128607500Y-116539500D01*
X101008500Y-116539500D01*
X100941461Y-116519815D01*
X100895706Y-116467011D01*
X100884500Y-116415500D01*
X100884500Y-111649778D01*
X101215500Y-111649778D01*
X101215500Y-111870221D01*
X101249985Y-112087952D01*
X101318103Y-112297603D01*
X101318104Y-112297606D01*
X101418187Y-112494025D01*
X101547752Y-112672358D01*
X101547756Y-112672363D01*
X101703636Y-112828243D01*
X101703641Y-112828247D01*
X101885919Y-112960679D01*
X101884767Y-112962264D01*
X101926083Y-113007922D01*
X101937512Y-113076851D01*
X101909861Y-113141016D01*
X101885547Y-113163423D01*
X101744922Y-113261890D01*
X101744920Y-113261891D01*
X101577891Y-113428920D01*
X101577886Y-113428926D01*
X101442400Y-113622420D01*
X101442399Y-113622422D01*
X101342570Y-113836507D01*
X101342567Y-113836513D01*
X101285364Y-114049999D01*
X101285364Y-114050000D01*
X102182988Y-114050000D01*
X102150075Y-114107007D01*
X102116000Y-114234174D01*
X102116000Y-114365826D01*
X102150075Y-114492993D01*
X102182988Y-114550000D01*
X101285364Y-114550000D01*
X101342567Y-114763486D01*
X101342570Y-114763492D01*
X101442399Y-114977578D01*
X101577894Y-115171082D01*
X101744917Y-115338105D01*
X101938421Y-115473600D01*
X102152507Y-115573429D01*
X102152516Y-115573433D01*
X102366000Y-115630634D01*
X102366000Y-114733012D01*
X102423007Y-114765925D01*
X102550174Y-114800000D01*
X102681826Y-114800000D01*
X102808993Y-114765925D01*
X102866000Y-114733012D01*
X102866000Y-115630633D01*
X103079483Y-115573433D01*
X103079492Y-115573429D01*
X103293578Y-115473600D01*
X103487082Y-115338105D01*
X103654105Y-115171082D01*
X103789600Y-114977578D01*
X103889429Y-114763492D01*
X103889432Y-114763486D01*
X103946636Y-114550000D01*
X103049012Y-114550000D01*
X103081925Y-114492993D01*
X103116000Y-114365826D01*
X103116000Y-114234174D01*
X103081925Y-114107007D01*
X103049012Y-114050000D01*
X103946636Y-114050000D01*
X103946635Y-114049999D01*
X103889432Y-113836513D01*
X103889429Y-113836507D01*
X103789600Y-113622422D01*
X103789599Y-113622420D01*
X103654113Y-113428926D01*
X103654108Y-113428920D01*
X103597369Y-113372181D01*
X103563884Y-113310858D01*
X103568868Y-113241166D01*
X103610740Y-113185233D01*
X103676204Y-113160816D01*
X103685050Y-113160500D01*
X116278950Y-113160500D01*
X116345989Y-113180185D01*
X116391744Y-113232989D01*
X116401688Y-113302147D01*
X116372663Y-113365703D01*
X116366631Y-113372181D01*
X116309891Y-113428920D01*
X116309886Y-113428926D01*
X116174400Y-113622420D01*
X116174399Y-113622422D01*
X116074570Y-113836507D01*
X116074567Y-113836513D01*
X116017364Y-114049999D01*
X116017364Y-114050000D01*
X116914988Y-114050000D01*
X116882075Y-114107007D01*
X116848000Y-114234174D01*
X116848000Y-114365826D01*
X116882075Y-114492993D01*
X116914988Y-114550000D01*
X116017364Y-114550000D01*
X116074567Y-114763486D01*
X116074570Y-114763492D01*
X116174399Y-114977578D01*
X116309894Y-115171082D01*
X116476917Y-115338105D01*
X116670421Y-115473600D01*
X116884507Y-115573429D01*
X116884516Y-115573433D01*
X117098000Y-115630634D01*
X117098000Y-114733012D01*
X117155007Y-114765925D01*
X117282174Y-114800000D01*
X117413826Y-114800000D01*
X117540993Y-114765925D01*
X117598000Y-114733012D01*
X117598000Y-115630633D01*
X117811483Y-115573433D01*
X117811492Y-115573429D01*
X118025578Y-115473600D01*
X118219082Y-115338105D01*
X118386105Y-115171082D01*
X118521600Y-114977578D01*
X118621429Y-114763492D01*
X118621432Y-114763486D01*
X118678636Y-114550000D01*
X117781012Y-114550000D01*
X117813925Y-114492993D01*
X117848000Y-114365826D01*
X117848000Y-114234174D01*
X117813925Y-114107007D01*
X117781012Y-114050000D01*
X118678636Y-114050000D01*
X118678635Y-114049999D01*
X118621432Y-113836513D01*
X118621429Y-113836507D01*
X118521600Y-113622422D01*
X118521599Y-113622420D01*
X118386113Y-113428926D01*
X118386108Y-113428920D01*
X118329369Y-113372181D01*
X118295884Y-113310858D01*
X118300868Y-113241166D01*
X118342740Y-113185233D01*
X118408204Y-113160816D01*
X118417050Y-113160500D01*
X120850950Y-113160500D01*
X120917989Y-113180185D01*
X120963744Y-113232989D01*
X120973688Y-113302147D01*
X120944663Y-113365703D01*
X120938631Y-113372181D01*
X120881891Y-113428920D01*
X120881886Y-113428926D01*
X120746400Y-113622420D01*
X120746399Y-113622422D01*
X120646570Y-113836507D01*
X120646567Y-113836513D01*
X120589364Y-114049999D01*
X120589364Y-114050000D01*
X121486988Y-114050000D01*
X121454075Y-114107007D01*
X121420000Y-114234174D01*
X121420000Y-114365826D01*
X121454075Y-114492993D01*
X121486988Y-114550000D01*
X120589364Y-114550000D01*
X120646567Y-114763486D01*
X120646570Y-114763492D01*
X120746399Y-114977578D01*
X120881894Y-115171082D01*
X121048917Y-115338105D01*
X121242421Y-115473600D01*
X121456507Y-115573429D01*
X121456516Y-115573433D01*
X121670000Y-115630634D01*
X121670000Y-114733012D01*
X121727007Y-114765925D01*
X121854174Y-114800000D01*
X121985826Y-114800000D01*
X122112993Y-114765925D01*
X122170000Y-114733012D01*
X122170000Y-115630633D01*
X122383483Y-115573433D01*
X122383492Y-115573429D01*
X122597578Y-115473600D01*
X122791082Y-115338105D01*
X122958105Y-115171082D01*
X123093600Y-114977578D01*
X123193429Y-114763492D01*
X123193432Y-114763486D01*
X123250636Y-114550000D01*
X122353012Y-114550000D01*
X122385925Y-114492993D01*
X122420000Y-114365826D01*
X122420000Y-114234174D01*
X122385925Y-114107007D01*
X122353012Y-114050000D01*
X123250636Y-114050000D01*
X123250635Y-114049999D01*
X123193432Y-113836513D01*
X123193429Y-113836507D01*
X123093600Y-113622422D01*
X123093599Y-113622420D01*
X122958113Y-113428926D01*
X122958108Y-113428920D01*
X122901369Y-113372181D01*
X122867884Y-113310858D01*
X122872868Y-113241166D01*
X122914740Y-113185233D01*
X122980204Y-113160816D01*
X122989050Y-113160500D01*
X125422950Y-113160500D01*
X125489989Y-113180185D01*
X125535744Y-113232989D01*
X125545688Y-113302147D01*
X125516663Y-113365703D01*
X125510631Y-113372181D01*
X125453891Y-113428920D01*
X125453886Y-113428926D01*
X125318400Y-113622420D01*
X125318399Y-113622422D01*
X125218570Y-113836507D01*
X125218567Y-113836513D01*
X125161364Y-114049999D01*
X125161364Y-114050000D01*
X126058988Y-114050000D01*
X126026075Y-114107007D01*
X125992000Y-114234174D01*
X125992000Y-114365826D01*
X126026075Y-114492993D01*
X126058988Y-114550000D01*
X125161364Y-114550000D01*
X125218567Y-114763486D01*
X125218570Y-114763492D01*
X125318399Y-114977578D01*
X125453894Y-115171082D01*
X125620917Y-115338105D01*
X125814421Y-115473600D01*
X126028507Y-115573429D01*
X126028516Y-115573433D01*
X126242000Y-115630634D01*
X126242000Y-114733012D01*
X126299007Y-114765925D01*
X126426174Y-114800000D01*
X126557826Y-114800000D01*
X126684993Y-114765925D01*
X126742000Y-114733012D01*
X126742000Y-115630633D01*
X126955483Y-115573433D01*
X126955492Y-115573429D01*
X127169578Y-115473600D01*
X127363082Y-115338105D01*
X127530105Y-115171082D01*
X127665600Y-114977578D01*
X127765429Y-114763492D01*
X127765432Y-114763486D01*
X127822636Y-114550000D01*
X126925012Y-114550000D01*
X126957925Y-114492993D01*
X126992000Y-114365826D01*
X126992000Y-114234174D01*
X126957925Y-114107007D01*
X126925012Y-114050000D01*
X127822636Y-114050000D01*
X127822635Y-114049999D01*
X127765432Y-113836513D01*
X127765429Y-113836507D01*
X127665600Y-113622422D01*
X127665599Y-113622420D01*
X127530113Y-113428926D01*
X127530108Y-113428920D01*
X127363082Y-113261894D01*
X127222452Y-113163423D01*
X127178827Y-113108845D01*
X127171635Y-113039347D01*
X127203157Y-112976992D01*
X127222495Y-112961250D01*
X127222081Y-112960679D01*
X127404358Y-112828247D01*
X127404356Y-112828247D01*
X127404365Y-112828242D01*
X127560242Y-112672365D01*
X127689815Y-112494022D01*
X127789895Y-112297606D01*
X127858015Y-112087951D01*
X127892500Y-111870222D01*
X127892500Y-111649778D01*
X127858015Y-111432049D01*
X127789895Y-111222394D01*
X127789895Y-111222393D01*
X127755237Y-111154375D01*
X127689815Y-111025978D01*
X127673260Y-111003192D01*
X127560247Y-110847641D01*
X127560243Y-110847636D01*
X127460071Y-110747464D01*
X127426586Y-110686141D01*
X127431570Y-110616449D01*
X127473442Y-110560516D01*
X127504420Y-110543601D01*
X127584326Y-110513798D01*
X127584326Y-110513797D01*
X127584331Y-110513796D01*
X127699546Y-110427546D01*
X127785796Y-110312331D01*
X127836091Y-110177483D01*
X127842500Y-110117873D01*
X127842499Y-108322128D01*
X127836091Y-108262517D01*
X127785796Y-108127669D01*
X127785795Y-108127668D01*
X127785793Y-108127664D01*
X127699547Y-108012455D01*
X127699544Y-108012452D01*
X127584335Y-107926206D01*
X127584328Y-107926202D01*
X127449482Y-107875908D01*
X127449483Y-107875908D01*
X127389883Y-107869501D01*
X127389881Y-107869500D01*
X127389873Y-107869500D01*
X127389864Y-107869500D01*
X125594129Y-107869500D01*
X125594123Y-107869501D01*
X125534516Y-107875908D01*
X125399671Y-107926202D01*
X125399664Y-107926206D01*
X125284455Y-108012452D01*
X125284452Y-108012455D01*
X125198206Y-108127664D01*
X125198202Y-108127671D01*
X125147908Y-108262517D01*
X125141501Y-108322116D01*
X125141501Y-108322123D01*
X125141500Y-108322135D01*
X125141500Y-110117870D01*
X125141501Y-110117876D01*
X125147908Y-110177483D01*
X125153385Y-110192165D01*
X125158371Y-110261857D01*
X125124886Y-110323180D01*
X125063564Y-110356666D01*
X125037204Y-110359500D01*
X123374796Y-110359500D01*
X123307757Y-110339815D01*
X123262002Y-110287011D01*
X123252058Y-110217853D01*
X123258615Y-110192165D01*
X123264091Y-110177483D01*
X123264091Y-110177482D01*
X123270500Y-110117873D01*
X123270499Y-108322128D01*
X123264091Y-108262517D01*
X123213796Y-108127669D01*
X123213795Y-108127668D01*
X123213793Y-108127664D01*
X123127547Y-108012455D01*
X123127544Y-108012452D01*
X123012335Y-107926206D01*
X123012328Y-107926202D01*
X122877482Y-107875908D01*
X122877483Y-107875908D01*
X122817883Y-107869501D01*
X122817881Y-107869500D01*
X122817873Y-107869500D01*
X122817864Y-107869500D01*
X121022129Y-107869500D01*
X121022123Y-107869501D01*
X120962516Y-107875908D01*
X120827671Y-107926202D01*
X120827664Y-107926206D01*
X120712455Y-108012452D01*
X120712452Y-108012455D01*
X120626206Y-108127664D01*
X120626202Y-108127671D01*
X120575908Y-108262517D01*
X120569501Y-108322116D01*
X120569501Y-108322123D01*
X120569500Y-108322135D01*
X120569500Y-110117870D01*
X120569501Y-110117876D01*
X120575908Y-110177483D01*
X120581385Y-110192165D01*
X120586371Y-110261857D01*
X120552886Y-110323180D01*
X120491564Y-110356666D01*
X120465204Y-110359500D01*
X118802796Y-110359500D01*
X118735757Y-110339815D01*
X118690002Y-110287011D01*
X118680058Y-110217853D01*
X118686615Y-110192165D01*
X118692091Y-110177483D01*
X118692091Y-110177482D01*
X118698500Y-110117873D01*
X118698499Y-108322128D01*
X118692091Y-108262517D01*
X118641796Y-108127669D01*
X118641795Y-108127668D01*
X118641793Y-108127664D01*
X118555547Y-108012455D01*
X118555544Y-108012452D01*
X118440335Y-107926206D01*
X118440328Y-107926202D01*
X118305482Y-107875908D01*
X118305483Y-107875908D01*
X118245883Y-107869501D01*
X118245881Y-107869500D01*
X118245873Y-107869500D01*
X118245864Y-107869500D01*
X116450129Y-107869500D01*
X116450123Y-107869501D01*
X116390516Y-107875908D01*
X116255671Y-107926202D01*
X116255664Y-107926206D01*
X116140455Y-108012452D01*
X116140452Y-108012455D01*
X116054206Y-108127664D01*
X116054202Y-108127671D01*
X116003908Y-108262517D01*
X115997501Y-108322116D01*
X115997501Y-108322123D01*
X115997500Y-108322135D01*
X115997500Y-110117870D01*
X115997501Y-110117876D01*
X116003908Y-110177483D01*
X116009385Y-110192165D01*
X116014371Y-110261857D01*
X115980886Y-110323180D01*
X115919564Y-110356666D01*
X115893204Y-110359500D01*
X104070796Y-110359500D01*
X104003757Y-110339815D01*
X103958002Y-110287011D01*
X103948058Y-110217853D01*
X103954615Y-110192165D01*
X103960091Y-110177483D01*
X103960091Y-110177482D01*
X103966500Y-110117873D01*
X103966499Y-108322128D01*
X103960091Y-108262517D01*
X103909796Y-108127669D01*
X103909795Y-108127668D01*
X103909793Y-108127664D01*
X103823547Y-108012455D01*
X103823544Y-108012452D01*
X103708335Y-107926206D01*
X103708328Y-107926202D01*
X103573482Y-107875908D01*
X103573483Y-107875908D01*
X103513883Y-107869501D01*
X103513881Y-107869500D01*
X103513873Y-107869500D01*
X103513864Y-107869500D01*
X101718129Y-107869500D01*
X101718123Y-107869501D01*
X101658516Y-107875908D01*
X101523671Y-107926202D01*
X101523664Y-107926206D01*
X101408455Y-108012452D01*
X101408452Y-108012455D01*
X101322206Y-108127664D01*
X101322202Y-108127671D01*
X101271908Y-108262517D01*
X101265501Y-108322116D01*
X101265501Y-108322123D01*
X101265500Y-108322135D01*
X101265500Y-110117870D01*
X101265501Y-110117876D01*
X101271908Y-110177483D01*
X101322202Y-110312328D01*
X101322206Y-110312335D01*
X101408452Y-110427544D01*
X101408455Y-110427547D01*
X101523664Y-110513793D01*
X101523671Y-110513797D01*
X101603580Y-110543601D01*
X101659514Y-110585472D01*
X101683931Y-110650936D01*
X101669080Y-110719209D01*
X101647929Y-110747464D01*
X101547751Y-110847642D01*
X101418187Y-111025974D01*
X101318104Y-111222393D01*
X101318103Y-111222396D01*
X101249985Y-111432047D01*
X101215500Y-111649778D01*
X100884500Y-111649778D01*
X100884500Y-103202374D01*
X100904185Y-103135335D01*
X100956989Y-103089580D01*
X101026147Y-103079636D01*
X101089703Y-103108661D01*
X101120880Y-103149966D01*
X101187965Y-103293830D01*
X101187967Y-103293834D01*
X101296281Y-103448521D01*
X101323505Y-103487401D01*
X101490599Y-103654495D01*
X101553199Y-103698328D01*
X101684165Y-103790032D01*
X101684167Y-103790033D01*
X101684170Y-103790035D01*
X101898337Y-103889903D01*
X101898343Y-103889904D01*
X101898344Y-103889905D01*
X101935262Y-103899797D01*
X102126592Y-103951063D01*
X102314918Y-103967539D01*
X102361999Y-103971659D01*
X102362000Y-103971659D01*
X102362001Y-103971659D01*
X102401234Y-103968226D01*
X102597408Y-103951063D01*
X102825663Y-103889903D01*
X103039830Y-103790035D01*
X103233401Y-103654495D01*
X103400495Y-103487401D01*
X103536035Y-103293830D01*
X103635903Y-103079663D01*
X103697063Y-102851408D01*
X103717659Y-102616000D01*
X103697063Y-102380592D01*
X103635903Y-102152337D01*
X103536035Y-101938171D01*
X103400495Y-101744599D01*
X103400494Y-101744597D01*
X103233402Y-101577506D01*
X103233396Y-101577501D01*
X103047842Y-101447575D01*
X103004217Y-101392998D01*
X102997023Y-101323500D01*
X103028546Y-101261145D01*
X103047842Y-101244425D01*
X103125082Y-101190341D01*
X103233401Y-101114495D01*
X103400495Y-100947401D01*
X103536035Y-100753830D01*
X103635903Y-100539663D01*
X103697063Y-100311408D01*
X103717659Y-100076000D01*
X103697063Y-99840592D01*
X103635903Y-99612337D01*
X103536035Y-99398171D01*
X103523133Y-99379744D01*
X103400494Y-99204597D01*
X103233402Y-99037506D01*
X103233396Y-99037501D01*
X103047842Y-98907575D01*
X103004217Y-98852998D01*
X102997023Y-98783500D01*
X103028546Y-98721145D01*
X103047842Y-98704425D01*
X103070026Y-98688891D01*
X103233401Y-98574495D01*
X103400495Y-98407401D01*
X103536035Y-98213830D01*
X103635903Y-97999663D01*
X103697063Y-97771408D01*
X103717659Y-97536000D01*
X103697063Y-97300592D01*
X103635903Y-97072337D01*
X103536035Y-96858171D01*
X103523133Y-96839744D01*
X103400494Y-96664597D01*
X103233402Y-96497506D01*
X103233396Y-96497501D01*
X103047842Y-96367575D01*
X103004217Y-96312998D01*
X102997023Y-96243500D01*
X103028546Y-96181145D01*
X103047842Y-96164425D01*
X103070026Y-96148891D01*
X103233401Y-96034495D01*
X103400495Y-95867401D01*
X103536035Y-95673830D01*
X103635903Y-95459663D01*
X103697063Y-95231408D01*
X103717659Y-94996000D01*
X107298540Y-94996000D01*
X107318326Y-95184256D01*
X107318327Y-95184259D01*
X107376818Y-95364277D01*
X107376821Y-95364284D01*
X107431883Y-95459655D01*
X107436887Y-95468321D01*
X107453500Y-95530321D01*
X107453500Y-99033677D01*
X107436887Y-99095677D01*
X107376821Y-99199714D01*
X107375234Y-99204599D01*
X107318326Y-99379744D01*
X107298540Y-99568000D01*
X107318326Y-99756256D01*
X107318327Y-99756259D01*
X107376818Y-99936277D01*
X107376821Y-99936284D01*
X107471467Y-100100216D01*
X107598129Y-100240888D01*
X107751265Y-100352148D01*
X107751270Y-100352151D01*
X107924192Y-100429142D01*
X107924197Y-100429144D01*
X108109354Y-100468500D01*
X108109355Y-100468500D01*
X108298644Y-100468500D01*
X108298646Y-100468500D01*
X108483803Y-100429144D01*
X108656730Y-100352151D01*
X108809871Y-100240888D01*
X108936533Y-100100216D01*
X109031179Y-99936284D01*
X109089674Y-99756256D01*
X109109460Y-99568000D01*
X109089674Y-99379744D01*
X109031179Y-99199716D01*
X108971113Y-99095677D01*
X108954500Y-99033677D01*
X108954500Y-98045310D01*
X108974185Y-97978271D01*
X109026989Y-97932516D01*
X109096147Y-97922572D01*
X109104247Y-97924013D01*
X109125354Y-97928500D01*
X109125358Y-97928500D01*
X109314644Y-97928500D01*
X109314646Y-97928500D01*
X109499803Y-97889144D01*
X109672730Y-97812151D01*
X109825871Y-97700888D01*
X109952533Y-97560216D01*
X110047179Y-97396284D01*
X110105674Y-97216256D01*
X110125460Y-97028000D01*
X110105674Y-96839744D01*
X110047179Y-96659716D01*
X109987113Y-96555677D01*
X109970500Y-96493677D01*
X109970500Y-94514321D01*
X109987113Y-94452321D01*
X110047179Y-94348284D01*
X110105674Y-94168256D01*
X110125460Y-93980000D01*
X110105674Y-93791744D01*
X110047179Y-93611716D01*
X109952533Y-93447784D01*
X109825871Y-93307112D01*
X109825870Y-93307111D01*
X109821522Y-93302282D01*
X109823372Y-93300616D01*
X109792597Y-93250667D01*
X109793925Y-93180810D01*
X109823211Y-93135239D01*
X109821522Y-93133718D01*
X109825871Y-93128888D01*
X109952533Y-92988216D01*
X110047179Y-92824284D01*
X110102522Y-92653955D01*
X110132769Y-92604597D01*
X110817186Y-91920180D01*
X110878507Y-91886697D01*
X110948199Y-91891681D01*
X111004132Y-91933553D01*
X111012252Y-91945864D01*
X111027463Y-91972211D01*
X111027465Y-91972214D01*
X111154129Y-92112888D01*
X111307265Y-92224148D01*
X111307266Y-92224148D01*
X111307270Y-92224151D01*
X111443936Y-92284999D01*
X111497173Y-92330249D01*
X111517494Y-92397098D01*
X111517500Y-92398278D01*
X111517500Y-93445677D01*
X111500887Y-93507677D01*
X111440821Y-93611714D01*
X111399626Y-93738500D01*
X111382326Y-93791744D01*
X111362540Y-93980000D01*
X111382326Y-94168256D01*
X111382327Y-94168259D01*
X111440818Y-94348277D01*
X111440821Y-94348284D01*
X111535467Y-94512216D01*
X111662129Y-94652888D01*
X111815265Y-94764148D01*
X111815270Y-94764151D01*
X111988192Y-94841142D01*
X111988197Y-94841144D01*
X112173354Y-94880500D01*
X112173355Y-94880500D01*
X112362644Y-94880500D01*
X112362646Y-94880500D01*
X112547803Y-94841144D01*
X112720730Y-94764151D01*
X112873871Y-94652888D01*
X113000533Y-94512216D01*
X113095179Y-94348284D01*
X113153674Y-94168256D01*
X113173460Y-93980000D01*
X113173459Y-93979999D01*
X113173929Y-93975538D01*
X113200514Y-93910924D01*
X113257811Y-93870939D01*
X113297250Y-93864500D01*
X113378644Y-93864500D01*
X113378646Y-93864500D01*
X113563803Y-93825144D01*
X113736730Y-93748151D01*
X113889871Y-93636888D01*
X114016533Y-93496216D01*
X114111179Y-93332284D01*
X114169674Y-93152256D01*
X114189460Y-92964000D01*
X114189459Y-92963999D01*
X114189929Y-92959538D01*
X114216514Y-92894924D01*
X114273811Y-92854939D01*
X114313250Y-92848500D01*
X114394644Y-92848500D01*
X114394646Y-92848500D01*
X114579803Y-92809144D01*
X114752730Y-92732151D01*
X114905871Y-92620888D01*
X115032533Y-92480216D01*
X115127179Y-92316284D01*
X115185674Y-92136256D01*
X115205460Y-91948000D01*
X115185674Y-91759744D01*
X115127179Y-91579716D01*
X115067113Y-91475677D01*
X115050500Y-91413677D01*
X115050500Y-89842079D01*
X115021659Y-89697092D01*
X115021658Y-89697091D01*
X115021658Y-89697087D01*
X115010685Y-89670596D01*
X114965087Y-89560511D01*
X114965080Y-89560498D01*
X114882952Y-89437585D01*
X114848905Y-89403538D01*
X114778416Y-89333049D01*
X114704771Y-89259404D01*
X114674521Y-89210041D01*
X114619181Y-89039721D01*
X114619178Y-89039715D01*
X114524533Y-88875784D01*
X114409093Y-88747575D01*
X114397872Y-88735113D01*
X114393539Y-88731965D01*
X114326142Y-88682998D01*
X114286189Y-88653970D01*
X114243524Y-88598640D01*
X114237545Y-88529026D01*
X114270151Y-88467231D01*
X114271320Y-88466045D01*
X115556206Y-87181160D01*
X115556211Y-87181156D01*
X115566414Y-87170952D01*
X115566416Y-87170952D01*
X117632452Y-85104916D01*
X117681686Y-85031229D01*
X117714584Y-84981995D01*
X117771158Y-84845413D01*
X117800000Y-84700418D01*
X117800000Y-83611972D01*
X117806958Y-83571017D01*
X117834868Y-83491254D01*
X117834869Y-83491249D01*
X117855065Y-83312003D01*
X117855065Y-83311996D01*
X117834869Y-83132750D01*
X117834868Y-83132745D01*
X117775289Y-82962478D01*
X117679316Y-82809738D01*
X117551762Y-82682184D01*
X117399023Y-82586211D01*
X117228754Y-82526631D01*
X117228749Y-82526630D01*
X117049504Y-82506435D01*
X117049496Y-82506435D01*
X116870250Y-82526630D01*
X116870245Y-82526631D01*
X116699976Y-82586211D01*
X116547237Y-82682184D01*
X116419684Y-82809737D01*
X116323711Y-82962476D01*
X116264131Y-83132745D01*
X116264130Y-83132750D01*
X116243935Y-83311996D01*
X116243935Y-83312003D01*
X116264130Y-83491249D01*
X116264131Y-83491254D01*
X116292042Y-83571017D01*
X116299000Y-83611972D01*
X116299000Y-84264270D01*
X116279315Y-84331309D01*
X116262681Y-84351951D01*
X114505046Y-86109586D01*
X109067228Y-91547402D01*
X109005905Y-91580887D01*
X109005329Y-91581011D01*
X108940196Y-91594856D01*
X108940192Y-91594857D01*
X108767270Y-91671848D01*
X108767265Y-91671851D01*
X108614129Y-91783111D01*
X108487466Y-91923785D01*
X108392821Y-92087715D01*
X108392818Y-92087722D01*
X108348490Y-92224151D01*
X108334326Y-92267744D01*
X108314540Y-92456000D01*
X108334326Y-92644256D01*
X108334327Y-92644259D01*
X108392818Y-92824277D01*
X108392821Y-92824284D01*
X108487467Y-92988216D01*
X108609575Y-93123830D01*
X108618478Y-93133718D01*
X108616633Y-93135378D01*
X108647413Y-93185374D01*
X108646061Y-93255230D01*
X108616796Y-93300767D01*
X108618478Y-93302282D01*
X108487466Y-93447785D01*
X108392821Y-93611715D01*
X108392818Y-93611722D01*
X108343666Y-93762998D01*
X108334326Y-93791744D01*
X108321800Y-93910924D01*
X108314071Y-93984462D01*
X108287486Y-94049076D01*
X108230189Y-94089061D01*
X108190750Y-94095500D01*
X108109354Y-94095500D01*
X108080684Y-94101594D01*
X107924197Y-94134855D01*
X107924192Y-94134857D01*
X107751270Y-94211848D01*
X107751265Y-94211851D01*
X107598129Y-94323111D01*
X107471466Y-94463785D01*
X107376821Y-94627715D01*
X107376818Y-94627722D01*
X107333645Y-94760596D01*
X107318326Y-94807744D01*
X107298540Y-94996000D01*
X103717659Y-94996000D01*
X103697063Y-94760592D01*
X103635903Y-94532337D01*
X103536035Y-94318171D01*
X103461590Y-94211851D01*
X103400494Y-94124597D01*
X103233402Y-93957506D01*
X103233396Y-93957501D01*
X103047842Y-93827575D01*
X103004217Y-93772998D01*
X102997023Y-93703500D01*
X103028546Y-93641145D01*
X103047842Y-93624425D01*
X103214575Y-93507677D01*
X103233401Y-93494495D01*
X103400495Y-93327401D01*
X103536035Y-93133830D01*
X103635903Y-92919663D01*
X103697063Y-92691408D01*
X103717659Y-92456000D01*
X103697063Y-92220592D01*
X103635903Y-91992337D01*
X103536035Y-91778171D01*
X103523133Y-91759744D01*
X103400494Y-91584597D01*
X103233402Y-91417506D01*
X103233396Y-91417501D01*
X103047842Y-91287575D01*
X103004217Y-91232998D01*
X102997023Y-91163500D01*
X103028546Y-91101145D01*
X103047842Y-91084425D01*
X103070026Y-91068891D01*
X103233401Y-90954495D01*
X103400495Y-90787401D01*
X103536035Y-90593830D01*
X103635903Y-90379663D01*
X103697063Y-90151408D01*
X103717659Y-89916000D01*
X103697063Y-89680592D01*
X103635903Y-89452337D01*
X103536035Y-89238171D01*
X103523133Y-89219744D01*
X103400494Y-89044597D01*
X103233402Y-88877506D01*
X103233396Y-88877501D01*
X103047842Y-88747575D01*
X103004217Y-88692998D01*
X102997023Y-88623500D01*
X103028546Y-88561145D01*
X103047842Y-88544425D01*
X103158086Y-88467231D01*
X103233401Y-88414495D01*
X103400495Y-88247401D01*
X103536035Y-88053830D01*
X103635903Y-87839663D01*
X103697063Y-87611408D01*
X103717659Y-87376000D01*
X103697063Y-87140592D01*
X103635903Y-86912337D01*
X103536035Y-86698171D01*
X103400495Y-86504599D01*
X103400494Y-86504597D01*
X103233402Y-86337506D01*
X103233396Y-86337501D01*
X103047842Y-86207575D01*
X103004217Y-86152998D01*
X102997023Y-86083500D01*
X103028546Y-86021145D01*
X103047842Y-86004425D01*
X103070026Y-85988891D01*
X103233401Y-85874495D01*
X103400495Y-85707401D01*
X103536035Y-85513830D01*
X103635903Y-85299663D01*
X103697063Y-85071408D01*
X103717659Y-84836000D01*
X103697063Y-84600592D01*
X103635903Y-84372337D01*
X103536035Y-84158171D01*
X103400495Y-83964599D01*
X103400494Y-83964597D01*
X103233402Y-83797506D01*
X103233396Y-83797501D01*
X103047842Y-83667575D01*
X103004217Y-83612998D01*
X102997023Y-83543500D01*
X103028546Y-83481145D01*
X103047842Y-83464425D01*
X103070026Y-83448891D01*
X103233401Y-83334495D01*
X103400495Y-83167401D01*
X103536035Y-82973830D01*
X103635903Y-82759663D01*
X103697063Y-82531408D01*
X103717659Y-82296000D01*
X103697063Y-82060592D01*
X103635903Y-81832337D01*
X103536035Y-81618171D01*
X103400495Y-81424599D01*
X103400494Y-81424597D01*
X103233402Y-81257506D01*
X103233396Y-81257501D01*
X103047842Y-81127575D01*
X103004217Y-81072998D01*
X102997023Y-81003500D01*
X103028546Y-80941145D01*
X103047842Y-80924425D01*
X103070026Y-80908891D01*
X103233401Y-80794495D01*
X103400495Y-80627401D01*
X103536035Y-80433830D01*
X103635903Y-80219663D01*
X103697063Y-79991408D01*
X103717659Y-79756000D01*
X103697063Y-79520592D01*
X103635903Y-79292337D01*
X103536035Y-79078171D01*
X103507603Y-79037565D01*
X103400494Y-78884597D01*
X103233402Y-78717506D01*
X103233396Y-78717501D01*
X103047842Y-78587575D01*
X103004217Y-78532998D01*
X102997023Y-78463500D01*
X103028546Y-78401145D01*
X103047842Y-78384425D01*
X103125250Y-78330223D01*
X103233401Y-78254495D01*
X103400495Y-78087401D01*
X103536035Y-77893830D01*
X103635903Y-77679663D01*
X103697063Y-77451408D01*
X103717659Y-77216000D01*
X103697063Y-76980592D01*
X103649696Y-76803815D01*
X103635905Y-76752344D01*
X103635904Y-76752343D01*
X103635903Y-76752337D01*
X103615228Y-76708000D01*
X107298540Y-76708000D01*
X107318326Y-76896256D01*
X107318327Y-76896259D01*
X107376818Y-77076277D01*
X107376821Y-77076284D01*
X107436887Y-77180321D01*
X107453500Y-77242321D01*
X107453500Y-88873677D01*
X107436887Y-88935677D01*
X107376821Y-89039714D01*
X107318327Y-89219740D01*
X107318326Y-89219744D01*
X107298540Y-89408000D01*
X107318326Y-89596256D01*
X107318327Y-89596259D01*
X107376818Y-89776277D01*
X107376821Y-89776284D01*
X107471467Y-89940216D01*
X107598129Y-90080888D01*
X107751265Y-90192148D01*
X107751270Y-90192151D01*
X107924192Y-90269142D01*
X107924197Y-90269144D01*
X108109354Y-90308500D01*
X108109355Y-90308500D01*
X108298644Y-90308500D01*
X108298646Y-90308500D01*
X108483803Y-90269144D01*
X108656730Y-90192151D01*
X108809871Y-90080888D01*
X108936533Y-89940216D01*
X109031179Y-89776284D01*
X109089674Y-89596256D01*
X109109460Y-89408000D01*
X109109459Y-89407999D01*
X109109929Y-89403538D01*
X109136514Y-89338924D01*
X109193811Y-89298939D01*
X109233250Y-89292500D01*
X109314644Y-89292500D01*
X109314646Y-89292500D01*
X109499803Y-89253144D01*
X109672730Y-89176151D01*
X109825871Y-89064888D01*
X109952533Y-88924216D01*
X110047179Y-88760284D01*
X110105674Y-88580256D01*
X110125460Y-88392000D01*
X110105674Y-88203744D01*
X110047179Y-88023716D01*
X110047178Y-88023714D01*
X109987113Y-87919677D01*
X109970500Y-87857677D01*
X109970500Y-78258321D01*
X109987113Y-78196321D01*
X110047179Y-78092284D01*
X110105674Y-77912256D01*
X110125460Y-77724000D01*
X110105674Y-77535744D01*
X110047179Y-77355716D01*
X109952533Y-77191784D01*
X109825871Y-77051112D01*
X109825870Y-77051111D01*
X109672734Y-76939851D01*
X109672729Y-76939848D01*
X109499807Y-76862857D01*
X109499802Y-76862855D01*
X109343316Y-76829594D01*
X109314646Y-76823500D01*
X109233250Y-76823500D01*
X109166211Y-76803815D01*
X109120456Y-76751011D01*
X109109929Y-76712462D01*
X109107993Y-76694046D01*
X109089674Y-76519744D01*
X109031179Y-76339716D01*
X108936533Y-76175784D01*
X108809871Y-76035112D01*
X108790248Y-76020855D01*
X108656734Y-75923851D01*
X108656729Y-75923848D01*
X108483807Y-75846857D01*
X108483802Y-75846855D01*
X108338001Y-75815865D01*
X108298646Y-75807500D01*
X108109354Y-75807500D01*
X108076897Y-75814398D01*
X107924197Y-75846855D01*
X107924192Y-75846857D01*
X107751270Y-75923848D01*
X107751265Y-75923851D01*
X107598129Y-76035111D01*
X107471466Y-76175785D01*
X107376821Y-76339715D01*
X107376818Y-76339722D01*
X107318327Y-76519740D01*
X107318326Y-76519744D01*
X107298540Y-76708000D01*
X103615228Y-76708000D01*
X103536035Y-76538171D01*
X103523133Y-76519744D01*
X103400494Y-76344597D01*
X103233402Y-76177506D01*
X103233396Y-76177501D01*
X103047842Y-76047575D01*
X103004217Y-75992998D01*
X102997023Y-75923500D01*
X103028546Y-75861145D01*
X103047842Y-75844425D01*
X103100576Y-75807500D01*
X103233401Y-75714495D01*
X103400495Y-75547401D01*
X103536035Y-75353830D01*
X103635903Y-75139663D01*
X103697063Y-74911408D01*
X103717659Y-74676000D01*
X103697063Y-74440592D01*
X103635903Y-74212337D01*
X103615228Y-74168000D01*
X110854540Y-74168000D01*
X110874326Y-74356256D01*
X110874327Y-74356259D01*
X110932818Y-74536277D01*
X110932821Y-74536284D01*
X110992887Y-74640321D01*
X111009500Y-74702321D01*
X111009500Y-77289918D01*
X111009500Y-77289920D01*
X111009499Y-77289920D01*
X111038340Y-77434907D01*
X111038343Y-77434917D01*
X111094913Y-77571490D01*
X111094919Y-77571501D01*
X111111799Y-77596762D01*
X111111800Y-77596767D01*
X111111802Y-77596767D01*
X111177043Y-77694410D01*
X111177047Y-77694415D01*
X111355228Y-77872596D01*
X111385478Y-77921958D01*
X111440819Y-78092280D01*
X111440821Y-78092284D01*
X111535467Y-78256216D01*
X111650907Y-78384425D01*
X111662129Y-78396888D01*
X111815265Y-78508148D01*
X111815270Y-78508151D01*
X111988192Y-78585142D01*
X111988197Y-78585144D01*
X112173354Y-78624500D01*
X112173355Y-78624500D01*
X112362644Y-78624500D01*
X112362646Y-78624500D01*
X112547803Y-78585144D01*
X112720730Y-78508151D01*
X112720734Y-78508148D01*
X112725563Y-78505998D01*
X112794813Y-78496712D01*
X112826437Y-78505998D01*
X112831265Y-78508148D01*
X112831270Y-78508151D01*
X113004197Y-78585144D01*
X113189354Y-78624500D01*
X113189355Y-78624500D01*
X113378644Y-78624500D01*
X113378646Y-78624500D01*
X113563803Y-78585144D01*
X113736730Y-78508151D01*
X113736734Y-78508148D01*
X113741563Y-78505998D01*
X113810813Y-78496712D01*
X113842437Y-78505998D01*
X113847265Y-78508148D01*
X113847270Y-78508151D01*
X114020197Y-78585144D01*
X114205354Y-78624500D01*
X114205355Y-78624500D01*
X114394644Y-78624500D01*
X114394646Y-78624500D01*
X114579803Y-78585144D01*
X114752730Y-78508151D01*
X114905871Y-78396888D01*
X115032533Y-78256216D01*
X115127179Y-78092284D01*
X115185674Y-77912256D01*
X115205460Y-77724000D01*
X115185674Y-77535744D01*
X115127179Y-77355716D01*
X115032533Y-77191784D01*
X114905871Y-77051112D01*
X114799270Y-76973662D01*
X114784474Y-76961025D01*
X114778416Y-76954967D01*
X114578819Y-76755369D01*
X114545334Y-76694046D01*
X114542500Y-76667688D01*
X114542500Y-74702321D01*
X114559113Y-74640321D01*
X114619179Y-74536284D01*
X114677674Y-74356256D01*
X114697460Y-74168000D01*
X114677674Y-73979744D01*
X114619179Y-73799716D01*
X114524533Y-73635784D01*
X114397871Y-73495112D01*
X114378248Y-73480855D01*
X114244734Y-73383851D01*
X114244729Y-73383848D01*
X114071807Y-73306857D01*
X114071802Y-73306855D01*
X113926001Y-73275865D01*
X113886646Y-73267500D01*
X113697354Y-73267500D01*
X113664897Y-73274398D01*
X113512197Y-73306855D01*
X113512192Y-73306857D01*
X113334436Y-73386001D01*
X113265186Y-73395286D01*
X113233564Y-73386001D01*
X113055807Y-73306857D01*
X113055802Y-73306855D01*
X112910001Y-73275865D01*
X112870646Y-73267500D01*
X112681354Y-73267500D01*
X112648897Y-73274398D01*
X112496197Y-73306855D01*
X112496192Y-73306857D01*
X112318436Y-73386001D01*
X112249186Y-73395286D01*
X112217564Y-73386001D01*
X112039807Y-73306857D01*
X112039802Y-73306855D01*
X111894001Y-73275865D01*
X111854646Y-73267500D01*
X111665354Y-73267500D01*
X111632897Y-73274398D01*
X111480197Y-73306855D01*
X111480192Y-73306857D01*
X111307270Y-73383848D01*
X111307265Y-73383851D01*
X111154129Y-73495111D01*
X111027466Y-73635785D01*
X110932821Y-73799715D01*
X110932818Y-73799722D01*
X110874327Y-73979740D01*
X110874326Y-73979744D01*
X110854540Y-74168000D01*
X103615228Y-74168000D01*
X103536035Y-73998171D01*
X103523133Y-73979744D01*
X103400494Y-73804597D01*
X103233402Y-73637506D01*
X103233396Y-73637501D01*
X103047842Y-73507575D01*
X103004217Y-73452998D01*
X102997023Y-73383500D01*
X103028546Y-73321145D01*
X103047842Y-73304425D01*
X103100576Y-73267500D01*
X103233401Y-73174495D01*
X103281166Y-73126730D01*
X121597169Y-73126730D01*
X121597169Y-73126737D01*
X121617364Y-73305983D01*
X121617365Y-73305988D01*
X121676945Y-73476257D01*
X121758494Y-73606040D01*
X121777500Y-73672012D01*
X121777500Y-77788071D01*
X121798454Y-77893409D01*
X121798454Y-77893410D01*
X121802497Y-77913737D01*
X121802500Y-77913747D01*
X121851532Y-78032123D01*
X121922726Y-78138673D01*
X121922727Y-78138674D01*
X122114277Y-78330223D01*
X122147762Y-78391546D01*
X122149815Y-78404012D01*
X122150630Y-78411246D01*
X122150632Y-78411255D01*
X122210210Y-78581521D01*
X122214014Y-78587575D01*
X122306184Y-78734262D01*
X122433738Y-78861816D01*
X122586478Y-78957789D01*
X122630106Y-78973055D01*
X122756745Y-79017368D01*
X122756750Y-79017369D01*
X122935996Y-79037565D01*
X122936000Y-79037565D01*
X122936004Y-79037565D01*
X123115249Y-79017369D01*
X123115252Y-79017368D01*
X123115255Y-79017368D01*
X123285522Y-78957789D01*
X123365879Y-78907297D01*
X123433116Y-78888296D01*
X123497825Y-78907297D01*
X123602475Y-78973054D01*
X123772745Y-79032634D01*
X123772750Y-79032635D01*
X123951996Y-79052831D01*
X123952000Y-79052831D01*
X123952004Y-79052831D01*
X124131249Y-79032635D01*
X124131252Y-79032634D01*
X124131255Y-79032634D01*
X124301522Y-78973055D01*
X124454262Y-78877082D01*
X124581816Y-78749528D01*
X124677789Y-78596788D01*
X124737368Y-78426521D01*
X124743238Y-78374425D01*
X124757565Y-78247269D01*
X124757565Y-78247262D01*
X124737369Y-78068016D01*
X124737368Y-78068011D01*
X124686262Y-77921958D01*
X124677789Y-77897744D01*
X124661987Y-77872596D01*
X124608877Y-77788071D01*
X124581816Y-77745004D01*
X124454262Y-77617450D01*
X124324228Y-77535744D01*
X124301521Y-77521476D01*
X124177546Y-77478096D01*
X124120770Y-77437374D01*
X124095022Y-77372422D01*
X124094500Y-77361054D01*
X124094500Y-72575591D01*
X124113507Y-72509618D01*
X124144522Y-72460258D01*
X124144523Y-72460256D01*
X124204102Y-72289989D01*
X124207233Y-72262199D01*
X124224299Y-72110737D01*
X124224299Y-72110730D01*
X124204103Y-71931484D01*
X124204102Y-71931479D01*
X124144522Y-71761210D01*
X124048549Y-71608471D01*
X123920996Y-71480918D01*
X123768257Y-71384945D01*
X123597988Y-71325365D01*
X123597983Y-71325364D01*
X123418738Y-71305169D01*
X123418730Y-71305169D01*
X123239484Y-71325364D01*
X123239479Y-71325365D01*
X123069210Y-71384945D01*
X122916471Y-71480918D01*
X122788918Y-71608471D01*
X122692945Y-71761210D01*
X122633365Y-71931479D01*
X122633364Y-71931484D01*
X122613169Y-72110730D01*
X122613169Y-72110739D01*
X122622479Y-72193377D01*
X122610424Y-72262199D01*
X122563074Y-72313577D01*
X122495464Y-72331201D01*
X122485377Y-72330479D01*
X122402739Y-72321169D01*
X122402730Y-72321169D01*
X122223484Y-72341364D01*
X122223479Y-72341365D01*
X122053210Y-72400945D01*
X121900471Y-72496918D01*
X121772918Y-72624471D01*
X121676945Y-72777210D01*
X121617365Y-72947479D01*
X121617364Y-72947484D01*
X121597169Y-73126730D01*
X103281166Y-73126730D01*
X103400495Y-73007401D01*
X103536035Y-72813830D01*
X103635903Y-72599663D01*
X103697063Y-72371408D01*
X103717659Y-72136000D01*
X103715448Y-72110734D01*
X103713539Y-72088918D01*
X103697063Y-71900592D01*
X103635903Y-71672337D01*
X103536035Y-71458171D01*
X103492609Y-71396151D01*
X103400494Y-71264597D01*
X103233402Y-71097506D01*
X103233396Y-71097501D01*
X103047842Y-70967575D01*
X103004217Y-70912998D01*
X102997023Y-70843500D01*
X103028546Y-70781145D01*
X103047842Y-70764425D01*
X103090068Y-70734858D01*
X103233401Y-70634495D01*
X103400495Y-70467401D01*
X103536035Y-70273830D01*
X103635903Y-70059663D01*
X103697063Y-69831408D01*
X103717659Y-69596000D01*
X103697063Y-69360592D01*
X103635903Y-69132337D01*
X103536035Y-68918171D01*
X103530166Y-68909788D01*
X103400494Y-68724597D01*
X103233402Y-68557506D01*
X103233396Y-68557501D01*
X103047842Y-68427575D01*
X103004217Y-68372998D01*
X102997023Y-68303500D01*
X103028546Y-68241145D01*
X103047842Y-68224425D01*
X103070026Y-68208891D01*
X103233401Y-68094495D01*
X103400495Y-67927401D01*
X103536035Y-67733830D01*
X103635903Y-67519663D01*
X103697063Y-67291408D01*
X103717659Y-67056000D01*
X103697063Y-66820592D01*
X103635903Y-66592337D01*
X103536035Y-66378171D01*
X103400495Y-66184599D01*
X103400494Y-66184597D01*
X103233402Y-66017506D01*
X103233396Y-66017501D01*
X103047842Y-65887575D01*
X103004217Y-65832998D01*
X102997023Y-65763500D01*
X103028546Y-65701145D01*
X103047842Y-65684425D01*
X103122944Y-65631838D01*
X103233401Y-65554495D01*
X103400495Y-65387401D01*
X103536035Y-65193830D01*
X103635903Y-64979663D01*
X103697063Y-64751408D01*
X103717659Y-64516000D01*
X103697063Y-64280592D01*
X103635903Y-64052337D01*
X103536035Y-63838171D01*
X103485151Y-63765500D01*
X103400494Y-63644597D01*
X103233402Y-63477506D01*
X103233396Y-63477501D01*
X103047842Y-63347575D01*
X103004217Y-63292998D01*
X102997023Y-63223500D01*
X103028546Y-63161145D01*
X103047842Y-63144425D01*
X103118042Y-63095270D01*
X103233401Y-63014495D01*
X103400495Y-62847401D01*
X103536035Y-62653830D01*
X103635903Y-62439663D01*
X103697063Y-62211408D01*
X103717659Y-61976000D01*
X103697063Y-61740592D01*
X103635903Y-61512337D01*
X103536035Y-61298171D01*
X103527460Y-61285925D01*
X103400496Y-61104600D01*
X103390493Y-61094597D01*
X103278567Y-60982671D01*
X103245084Y-60921351D01*
X103250068Y-60851659D01*
X103291939Y-60795725D01*
X103322915Y-60778810D01*
X103454331Y-60729796D01*
X103569546Y-60643546D01*
X103655796Y-60528331D01*
X103706091Y-60393483D01*
X103712500Y-60333873D01*
X103712499Y-58538128D01*
X103706091Y-58478517D01*
X103684265Y-58420000D01*
X106282540Y-58420000D01*
X106302326Y-58608256D01*
X106302327Y-58608259D01*
X106360818Y-58788277D01*
X106360821Y-58788284D01*
X106420887Y-58892321D01*
X106437500Y-58954321D01*
X106437500Y-60933677D01*
X106420887Y-60995677D01*
X106360821Y-61099714D01*
X106302327Y-61279740D01*
X106302326Y-61279744D01*
X106282540Y-61468000D01*
X106302326Y-61656256D01*
X106302327Y-61656259D01*
X106360818Y-61836277D01*
X106360821Y-61836284D01*
X106455467Y-62000216D01*
X106524755Y-62077168D01*
X106582129Y-62140888D01*
X106735265Y-62252148D01*
X106735270Y-62252151D01*
X106908192Y-62329142D01*
X106908193Y-62329142D01*
X106908197Y-62329144D01*
X107028741Y-62354766D01*
X107090223Y-62387958D01*
X107124000Y-62449121D01*
X107124579Y-62500247D01*
X107115822Y-62544268D01*
X107111500Y-62566000D01*
X107111500Y-70343918D01*
X107111500Y-70343920D01*
X107111499Y-70343920D01*
X107140340Y-70488907D01*
X107140343Y-70488917D01*
X107196914Y-70625492D01*
X107229812Y-70674727D01*
X107229813Y-70674730D01*
X107279046Y-70748414D01*
X107279052Y-70748421D01*
X107291228Y-70760597D01*
X107321478Y-70809959D01*
X107376819Y-70980280D01*
X107376821Y-70980284D01*
X107471467Y-71144216D01*
X107570855Y-71254597D01*
X107598129Y-71284888D01*
X107751265Y-71396148D01*
X107751270Y-71396151D01*
X107924192Y-71473142D01*
X107924197Y-71473144D01*
X108109354Y-71512500D01*
X108109355Y-71512500D01*
X108298644Y-71512500D01*
X108298646Y-71512500D01*
X108483803Y-71473144D01*
X108656730Y-71396151D01*
X108809871Y-71284888D01*
X108936533Y-71144216D01*
X108983974Y-71062043D01*
X109034540Y-71013829D01*
X109103147Y-71000605D01*
X109117140Y-71002754D01*
X109125354Y-71004500D01*
X109314644Y-71004500D01*
X109314646Y-71004500D01*
X109499803Y-70965144D01*
X109672730Y-70888151D01*
X109825871Y-70776888D01*
X109952533Y-70636216D01*
X110047179Y-70472284D01*
X110052015Y-70457402D01*
X110060209Y-70432182D01*
X110099646Y-70374507D01*
X110164004Y-70347308D01*
X110178140Y-70346500D01*
X111728663Y-70346500D01*
X111795702Y-70366185D01*
X111801548Y-70370182D01*
X111815265Y-70380148D01*
X111815270Y-70380151D01*
X111988192Y-70457142D01*
X111988197Y-70457144D01*
X112173354Y-70496500D01*
X112173355Y-70496500D01*
X112362644Y-70496500D01*
X112362646Y-70496500D01*
X112547803Y-70457144D01*
X112720730Y-70380151D01*
X112722776Y-70378664D01*
X112734452Y-70370182D01*
X112800258Y-70346702D01*
X112807337Y-70346500D01*
X115389920Y-70346500D01*
X115487462Y-70327096D01*
X115534913Y-70317658D01*
X115671495Y-70261084D01*
X115727322Y-70223782D01*
X115794416Y-70178952D01*
X118946952Y-67026416D01*
X118999708Y-66947459D01*
X119029084Y-66903495D01*
X119085658Y-66766913D01*
X119114500Y-66621918D01*
X119114500Y-65002019D01*
X121092458Y-65002019D01*
X121092458Y-65002026D01*
X121112653Y-65181272D01*
X121112654Y-65181277D01*
X121172234Y-65351546D01*
X121194764Y-65387402D01*
X121268207Y-65504285D01*
X121395761Y-65631839D01*
X121548501Y-65727812D01*
X121686214Y-65776000D01*
X121695497Y-65779248D01*
X121752273Y-65819970D01*
X121778021Y-65884922D01*
X121778543Y-65896290D01*
X121778543Y-69599974D01*
X121759537Y-69665946D01*
X121703254Y-69755520D01*
X121703252Y-69755524D01*
X121643676Y-69925780D01*
X121643673Y-69925793D01*
X121623478Y-70105039D01*
X121623478Y-70105046D01*
X121643673Y-70284292D01*
X121643674Y-70284297D01*
X121703254Y-70454566D01*
X121799227Y-70607305D01*
X121926781Y-70734859D01*
X121967743Y-70760597D01*
X122060693Y-70819002D01*
X122079521Y-70830832D01*
X122215748Y-70878500D01*
X122249788Y-70890411D01*
X122249793Y-70890412D01*
X122429039Y-70910608D01*
X122429043Y-70910608D01*
X122429047Y-70910608D01*
X122608292Y-70890412D01*
X122608295Y-70890411D01*
X122608298Y-70890411D01*
X122778565Y-70830832D01*
X122931305Y-70734859D01*
X123058859Y-70607305D01*
X123154832Y-70454565D01*
X123214411Y-70284298D01*
X123215590Y-70273834D01*
X123234608Y-70105046D01*
X123234608Y-70105039D01*
X123225297Y-70022400D01*
X123237352Y-69953578D01*
X123284701Y-69902199D01*
X123352311Y-69884575D01*
X123362400Y-69885297D01*
X123445039Y-69894608D01*
X123445043Y-69894608D01*
X123445047Y-69894608D01*
X123624292Y-69874412D01*
X123624295Y-69874411D01*
X123624298Y-69874411D01*
X123794565Y-69814832D01*
X123947305Y-69718859D01*
X124074859Y-69591305D01*
X124170832Y-69438565D01*
X124230411Y-69268298D01*
X124230412Y-69268292D01*
X124250608Y-69089046D01*
X124250608Y-69089039D01*
X124230412Y-68909793D01*
X124230409Y-68909780D01*
X124170833Y-68739524D01*
X124170832Y-68739521D01*
X124143172Y-68695500D01*
X124114549Y-68649946D01*
X124095543Y-68583974D01*
X124095543Y-64960971D01*
X124070545Y-64835304D01*
X124070544Y-64835303D01*
X124070544Y-64835299D01*
X124021508Y-64716916D01*
X123993202Y-64674553D01*
X123950320Y-64610374D01*
X123481745Y-64141799D01*
X123448260Y-64080476D01*
X123446205Y-64067996D01*
X123445391Y-64060768D01*
X123385812Y-63890501D01*
X123361665Y-63852072D01*
X123329685Y-63801176D01*
X123289839Y-63737761D01*
X123162285Y-63610207D01*
X123009546Y-63514234D01*
X122839277Y-63454654D01*
X122839272Y-63454653D01*
X122660027Y-63434458D01*
X122660019Y-63434458D01*
X122480773Y-63454653D01*
X122480768Y-63454654D01*
X122310499Y-63514234D01*
X122157760Y-63610207D01*
X122030207Y-63737760D01*
X121934233Y-63890501D01*
X121874653Y-64060773D01*
X121869940Y-64102605D01*
X121842873Y-64167019D01*
X121785277Y-64206573D01*
X121760605Y-64211940D01*
X121718773Y-64216653D01*
X121548501Y-64276233D01*
X121395760Y-64372207D01*
X121268207Y-64499760D01*
X121172234Y-64652499D01*
X121112654Y-64822768D01*
X121112653Y-64822773D01*
X121092458Y-65002019D01*
X119114500Y-65002019D01*
X119114500Y-63919111D01*
X119134185Y-63852072D01*
X119186989Y-63806317D01*
X119200194Y-63801176D01*
X119205481Y-63799458D01*
X119205491Y-63799456D01*
X119378418Y-63722463D01*
X119531559Y-63611200D01*
X119658221Y-63470528D01*
X119752867Y-63306596D01*
X119811362Y-63126568D01*
X119831148Y-62938312D01*
X119811362Y-62750056D01*
X119752867Y-62570028D01*
X119658221Y-62406096D01*
X119531559Y-62265424D01*
X119531558Y-62265423D01*
X119378422Y-62154163D01*
X119378417Y-62154160D01*
X119205495Y-62077169D01*
X119205490Y-62077167D01*
X119059689Y-62046177D01*
X119020334Y-62037812D01*
X118831042Y-62037812D01*
X118798585Y-62044710D01*
X118645885Y-62077167D01*
X118645880Y-62077169D01*
X118472958Y-62154160D01*
X118472953Y-62154163D01*
X118319817Y-62265423D01*
X118193154Y-62406097D01*
X118098509Y-62570027D01*
X118098507Y-62570031D01*
X118043167Y-62740351D01*
X118012917Y-62789713D01*
X117781049Y-63021581D01*
X117731812Y-63095271D01*
X117698921Y-63144496D01*
X117698914Y-63144508D01*
X117642342Y-63281086D01*
X117642340Y-63281092D01*
X117613500Y-63426079D01*
X117613500Y-66185770D01*
X117593815Y-66252809D01*
X117577181Y-66273451D01*
X115041451Y-68809181D01*
X114980128Y-68842666D01*
X114953770Y-68845500D01*
X112807337Y-68845500D01*
X112740298Y-68825815D01*
X112734452Y-68821818D01*
X112720734Y-68811851D01*
X112720729Y-68811848D01*
X112547807Y-68734857D01*
X112547802Y-68734855D01*
X112402001Y-68703865D01*
X112362646Y-68695500D01*
X112173354Y-68695500D01*
X112140897Y-68702398D01*
X111988197Y-68734855D01*
X111988192Y-68734857D01*
X111815270Y-68811848D01*
X111815265Y-68811851D01*
X111801548Y-68821818D01*
X111735742Y-68845298D01*
X111728663Y-68845500D01*
X109654080Y-68845500D01*
X109509092Y-68874340D01*
X109509082Y-68874343D01*
X109372511Y-68930912D01*
X109372498Y-68930919D01*
X109249584Y-69013048D01*
X109249580Y-69013051D01*
X109067229Y-69195402D01*
X109005906Y-69228887D01*
X109005330Y-69229011D01*
X108940196Y-69242856D01*
X108940192Y-69242857D01*
X108786936Y-69311093D01*
X108717686Y-69320378D01*
X108654410Y-69290750D01*
X108617196Y-69231616D01*
X108612500Y-69197814D01*
X108612500Y-64253229D01*
X108632185Y-64186190D01*
X108684989Y-64140435D01*
X108754147Y-64130491D01*
X108817703Y-64159516D01*
X108824181Y-64165548D01*
X109653048Y-64994415D01*
X109653049Y-64994416D01*
X109706847Y-65048214D01*
X109757585Y-65098952D01*
X109880498Y-65181080D01*
X109880511Y-65181087D01*
X110017082Y-65237656D01*
X110017087Y-65237658D01*
X110017091Y-65237658D01*
X110017092Y-65237659D01*
X110162079Y-65266500D01*
X110162082Y-65266500D01*
X114802163Y-65266500D01*
X114869202Y-65286185D01*
X114875048Y-65290182D01*
X114888765Y-65300148D01*
X114888770Y-65300151D01*
X115061692Y-65377142D01*
X115061697Y-65377144D01*
X115246854Y-65416500D01*
X115246855Y-65416500D01*
X115436144Y-65416500D01*
X115436146Y-65416500D01*
X115621303Y-65377144D01*
X115794230Y-65300151D01*
X115947371Y-65188888D01*
X116074033Y-65048216D01*
X116168679Y-64884284D01*
X116227174Y-64704256D01*
X116246960Y-64516000D01*
X116227174Y-64327744D01*
X116168679Y-64147716D01*
X116074033Y-63983784D01*
X115947371Y-63843112D01*
X115947370Y-63843111D01*
X115794234Y-63731851D01*
X115794229Y-63731848D01*
X115621307Y-63654857D01*
X115621302Y-63654855D01*
X115475501Y-63623865D01*
X115436146Y-63615500D01*
X115246854Y-63615500D01*
X115214397Y-63622398D01*
X115061697Y-63654855D01*
X115061692Y-63654857D01*
X114888770Y-63731848D01*
X114888765Y-63731851D01*
X114875048Y-63741818D01*
X114809242Y-63765298D01*
X114802163Y-63765500D01*
X110598229Y-63765500D01*
X110531190Y-63745815D01*
X110510548Y-63729181D01*
X109945634Y-63164266D01*
X109912149Y-63102943D01*
X109917133Y-63033251D01*
X109959005Y-62977318D01*
X109982879Y-62963306D01*
X110058912Y-62929452D01*
X110159884Y-62884497D01*
X110313025Y-62773234D01*
X110439687Y-62632562D01*
X110534333Y-62468630D01*
X110592828Y-62288602D01*
X110612614Y-62100346D01*
X110592828Y-61912090D01*
X110534333Y-61732062D01*
X110439687Y-61568130D01*
X110313025Y-61427458D01*
X110299758Y-61417819D01*
X110159888Y-61316197D01*
X110159883Y-61316194D01*
X109986961Y-61239203D01*
X109986956Y-61239201D01*
X109841155Y-61208211D01*
X109801800Y-61199846D01*
X109612508Y-61199846D01*
X109580051Y-61206744D01*
X109427351Y-61239201D01*
X109427346Y-61239203D01*
X109254424Y-61316194D01*
X109254419Y-61316197D01*
X109240702Y-61326164D01*
X109174896Y-61349644D01*
X109167817Y-61349846D01*
X108327652Y-61349846D01*
X108218309Y-61371596D01*
X108148717Y-61365369D01*
X108093540Y-61322506D01*
X108077124Y-61285456D01*
X108075682Y-61285925D01*
X108073674Y-61279744D01*
X108015179Y-61099716D01*
X107955113Y-60995677D01*
X107938500Y-60933677D01*
X107938500Y-59425999D01*
X125506341Y-59425999D01*
X125506341Y-59426000D01*
X125526936Y-59661403D01*
X125526938Y-59661413D01*
X125588094Y-59889655D01*
X125588096Y-59889659D01*
X125588097Y-59889663D01*
X125687965Y-60103830D01*
X125687967Y-60103834D01*
X125823501Y-60297395D01*
X125823506Y-60297402D01*
X125990597Y-60464493D01*
X125990603Y-60464498D01*
X126176158Y-60594425D01*
X126219783Y-60649002D01*
X126226977Y-60718500D01*
X126195454Y-60780855D01*
X126176158Y-60797575D01*
X125990597Y-60927505D01*
X125823505Y-61094597D01*
X125687965Y-61288169D01*
X125687964Y-61288171D01*
X125588098Y-61502335D01*
X125588094Y-61502344D01*
X125526938Y-61730586D01*
X125526936Y-61730596D01*
X125506341Y-61965999D01*
X125506341Y-61966000D01*
X125526936Y-62201403D01*
X125526938Y-62201413D01*
X125588094Y-62429655D01*
X125588096Y-62429659D01*
X125588097Y-62429663D01*
X125653552Y-62570031D01*
X125687965Y-62643830D01*
X125687967Y-62643834D01*
X125823501Y-62837395D01*
X125823506Y-62837402D01*
X125990597Y-63004493D01*
X125990603Y-63004498D01*
X126176158Y-63134425D01*
X126219783Y-63189002D01*
X126226977Y-63258500D01*
X126195454Y-63320855D01*
X126176158Y-63337575D01*
X125990597Y-63467505D01*
X125823505Y-63634597D01*
X125687965Y-63828169D01*
X125687964Y-63828171D01*
X125588098Y-64042335D01*
X125588094Y-64042344D01*
X125526938Y-64270586D01*
X125526936Y-64270596D01*
X125506341Y-64505999D01*
X125506341Y-64506000D01*
X125526936Y-64741403D01*
X125526938Y-64741413D01*
X125588094Y-64969655D01*
X125588096Y-64969659D01*
X125588097Y-64969663D01*
X125686683Y-65181080D01*
X125687965Y-65183830D01*
X125687967Y-65183834D01*
X125823501Y-65377395D01*
X125823506Y-65377402D01*
X125990597Y-65544493D01*
X125990603Y-65544498D01*
X126176158Y-65674425D01*
X126219783Y-65729002D01*
X126226977Y-65798500D01*
X126195454Y-65860855D01*
X126176158Y-65877575D01*
X125990597Y-66007505D01*
X125823505Y-66174597D01*
X125687965Y-66368169D01*
X125687964Y-66368171D01*
X125588098Y-66582335D01*
X125588094Y-66582344D01*
X125526938Y-66810586D01*
X125526936Y-66810596D01*
X125506341Y-67045999D01*
X125506341Y-67046000D01*
X125526936Y-67281403D01*
X125526938Y-67281413D01*
X125588094Y-67509655D01*
X125588096Y-67509659D01*
X125588097Y-67509663D01*
X125687965Y-67723830D01*
X125687967Y-67723834D01*
X125823501Y-67917395D01*
X125823506Y-67917402D01*
X125990597Y-68084493D01*
X125990603Y-68084498D01*
X126176158Y-68214425D01*
X126219783Y-68269002D01*
X126226977Y-68338500D01*
X126195454Y-68400855D01*
X126176158Y-68417575D01*
X125990597Y-68547505D01*
X125823505Y-68714597D01*
X125687965Y-68908169D01*
X125687964Y-68908171D01*
X125588098Y-69122335D01*
X125588094Y-69122344D01*
X125526938Y-69350586D01*
X125526936Y-69350596D01*
X125506341Y-69585999D01*
X125506341Y-69586000D01*
X125526936Y-69821403D01*
X125526938Y-69821413D01*
X125588094Y-70049655D01*
X125588096Y-70049659D01*
X125588097Y-70049663D01*
X125669290Y-70223782D01*
X125687965Y-70263830D01*
X125687967Y-70263834D01*
X125765462Y-70374507D01*
X125805846Y-70432182D01*
X125823501Y-70457395D01*
X125823506Y-70457402D01*
X125990597Y-70624493D01*
X125990603Y-70624498D01*
X126176158Y-70754425D01*
X126219783Y-70809002D01*
X126226977Y-70878500D01*
X126195454Y-70940855D01*
X126176158Y-70957575D01*
X125990597Y-71087505D01*
X125823505Y-71254597D01*
X125687965Y-71448169D01*
X125687964Y-71448171D01*
X125588098Y-71662335D01*
X125588094Y-71662344D01*
X125526938Y-71890586D01*
X125526936Y-71890596D01*
X125506341Y-72125999D01*
X125506341Y-72126000D01*
X125526936Y-72361403D01*
X125526938Y-72361413D01*
X125588094Y-72589655D01*
X125588096Y-72589659D01*
X125588097Y-72589663D01*
X125675552Y-72777210D01*
X125687965Y-72803830D01*
X125687967Y-72803834D01*
X125823501Y-72997395D01*
X125823506Y-72997402D01*
X125990597Y-73164493D01*
X125990603Y-73164498D01*
X126176158Y-73294425D01*
X126219783Y-73349002D01*
X126226977Y-73418500D01*
X126195454Y-73480855D01*
X126176158Y-73497575D01*
X125990597Y-73627505D01*
X125823505Y-73794597D01*
X125687965Y-73988169D01*
X125687964Y-73988171D01*
X125588098Y-74202335D01*
X125588094Y-74202344D01*
X125526938Y-74430586D01*
X125526936Y-74430596D01*
X125506341Y-74665999D01*
X125506341Y-74666000D01*
X125526936Y-74901403D01*
X125526938Y-74901413D01*
X125588094Y-75129655D01*
X125588096Y-75129659D01*
X125588097Y-75129663D01*
X125687965Y-75343830D01*
X125687967Y-75343834D01*
X125823501Y-75537395D01*
X125823506Y-75537402D01*
X125990597Y-75704493D01*
X125990603Y-75704498D01*
X126176158Y-75834425D01*
X126219783Y-75889002D01*
X126226977Y-75958500D01*
X126195454Y-76020855D01*
X126176158Y-76037575D01*
X125990597Y-76167505D01*
X125823505Y-76334597D01*
X125687965Y-76528169D01*
X125687964Y-76528171D01*
X125588098Y-76742335D01*
X125588094Y-76742344D01*
X125526938Y-76970586D01*
X125526936Y-76970596D01*
X125506341Y-77205999D01*
X125506341Y-77206000D01*
X125526936Y-77441403D01*
X125526938Y-77441413D01*
X125588094Y-77669655D01*
X125588096Y-77669659D01*
X125588097Y-77669663D01*
X125687965Y-77883830D01*
X125687967Y-77883834D01*
X125823501Y-78077395D01*
X125823506Y-78077402D01*
X125990597Y-78244493D01*
X125990603Y-78244498D01*
X126176158Y-78374425D01*
X126219783Y-78429002D01*
X126226977Y-78498500D01*
X126195454Y-78560855D01*
X126176158Y-78577575D01*
X125990597Y-78707505D01*
X125823505Y-78874597D01*
X125687965Y-79068169D01*
X125687964Y-79068171D01*
X125588098Y-79282335D01*
X125588094Y-79282344D01*
X125526938Y-79510586D01*
X125526936Y-79510596D01*
X125506341Y-79745999D01*
X125506341Y-79746000D01*
X125526936Y-79981403D01*
X125526938Y-79981413D01*
X125588094Y-80209655D01*
X125588096Y-80209659D01*
X125588097Y-80209663D01*
X125687965Y-80423830D01*
X125687967Y-80423834D01*
X125823501Y-80617395D01*
X125823506Y-80617402D01*
X125990597Y-80784493D01*
X125990603Y-80784498D01*
X126176158Y-80914425D01*
X126219783Y-80969002D01*
X126226977Y-81038500D01*
X126195454Y-81100855D01*
X126176158Y-81117575D01*
X125990597Y-81247505D01*
X125823505Y-81414597D01*
X125687965Y-81608169D01*
X125687964Y-81608171D01*
X125588098Y-81822335D01*
X125588094Y-81822344D01*
X125526938Y-82050586D01*
X125526936Y-82050596D01*
X125506341Y-82285999D01*
X125506341Y-82286000D01*
X125526936Y-82521403D01*
X125526938Y-82521413D01*
X125588094Y-82749655D01*
X125588096Y-82749659D01*
X125588097Y-82749663D01*
X125687334Y-82962476D01*
X125687965Y-82963830D01*
X125687967Y-82963834D01*
X125823501Y-83157395D01*
X125823506Y-83157402D01*
X125990597Y-83324493D01*
X125990603Y-83324498D01*
X126176158Y-83454425D01*
X126219783Y-83509002D01*
X126226977Y-83578500D01*
X126195454Y-83640855D01*
X126176158Y-83657575D01*
X125990597Y-83787505D01*
X125823505Y-83954597D01*
X125687965Y-84148169D01*
X125687964Y-84148171D01*
X125588098Y-84362335D01*
X125588094Y-84362344D01*
X125526938Y-84590586D01*
X125526936Y-84590596D01*
X125506341Y-84825999D01*
X125506341Y-84826000D01*
X125526936Y-85061403D01*
X125526938Y-85061413D01*
X125588094Y-85289655D01*
X125588096Y-85289659D01*
X125588097Y-85289663D01*
X125687965Y-85503830D01*
X125687967Y-85503834D01*
X125823501Y-85697395D01*
X125823506Y-85697402D01*
X125990597Y-85864493D01*
X125990603Y-85864498D01*
X126176158Y-85994425D01*
X126219783Y-86049002D01*
X126226977Y-86118500D01*
X126195454Y-86180855D01*
X126176158Y-86197575D01*
X125990597Y-86327505D01*
X125823505Y-86494597D01*
X125687965Y-86688169D01*
X125687964Y-86688171D01*
X125588098Y-86902335D01*
X125588094Y-86902344D01*
X125526938Y-87130586D01*
X125526936Y-87130596D01*
X125506341Y-87365999D01*
X125506341Y-87366000D01*
X125526936Y-87601403D01*
X125526938Y-87601413D01*
X125588094Y-87829655D01*
X125588096Y-87829659D01*
X125588097Y-87829663D01*
X125678585Y-88023714D01*
X125687965Y-88043830D01*
X125687967Y-88043834D01*
X125823501Y-88237395D01*
X125823506Y-88237402D01*
X125990597Y-88404493D01*
X125990603Y-88404498D01*
X126176158Y-88534425D01*
X126219783Y-88589002D01*
X126226977Y-88658500D01*
X126195454Y-88720855D01*
X126176158Y-88737575D01*
X125990597Y-88867505D01*
X125823505Y-89034597D01*
X125687965Y-89228169D01*
X125687964Y-89228171D01*
X125588098Y-89442335D01*
X125588094Y-89442344D01*
X125526938Y-89670586D01*
X125526936Y-89670596D01*
X125506341Y-89905999D01*
X125506341Y-89906000D01*
X125526936Y-90141403D01*
X125526938Y-90141413D01*
X125588094Y-90369655D01*
X125588096Y-90369659D01*
X125588097Y-90369663D01*
X125687965Y-90583830D01*
X125687967Y-90583834D01*
X125823501Y-90777395D01*
X125823506Y-90777402D01*
X125990597Y-90944493D01*
X125990603Y-90944498D01*
X126176158Y-91074425D01*
X126219783Y-91129002D01*
X126226977Y-91198500D01*
X126195454Y-91260855D01*
X126176158Y-91277575D01*
X125990597Y-91407505D01*
X125823505Y-91574597D01*
X125687965Y-91768169D01*
X125687964Y-91768171D01*
X125588098Y-91982335D01*
X125588094Y-91982344D01*
X125526938Y-92210586D01*
X125526936Y-92210596D01*
X125506341Y-92445999D01*
X125506341Y-92446000D01*
X125526936Y-92681403D01*
X125526938Y-92681413D01*
X125588094Y-92909655D01*
X125588096Y-92909659D01*
X125588097Y-92909663D01*
X125687965Y-93123830D01*
X125687967Y-93123834D01*
X125823501Y-93317395D01*
X125823506Y-93317402D01*
X125990597Y-93484493D01*
X125990603Y-93484498D01*
X126176158Y-93614425D01*
X126219783Y-93669002D01*
X126226977Y-93738500D01*
X126195454Y-93800855D01*
X126176158Y-93817575D01*
X125990597Y-93947505D01*
X125823505Y-94114597D01*
X125687965Y-94308169D01*
X125687964Y-94308171D01*
X125588098Y-94522335D01*
X125588094Y-94522344D01*
X125526938Y-94750586D01*
X125526936Y-94750596D01*
X125506341Y-94985999D01*
X125506341Y-94986000D01*
X125526936Y-95221403D01*
X125526938Y-95221413D01*
X125588094Y-95449655D01*
X125588096Y-95449659D01*
X125588097Y-95449663D01*
X125687965Y-95663830D01*
X125687967Y-95663834D01*
X125823501Y-95857395D01*
X125823506Y-95857402D01*
X125990597Y-96024493D01*
X125990603Y-96024498D01*
X126176158Y-96154425D01*
X126219783Y-96209002D01*
X126226977Y-96278500D01*
X126195454Y-96340855D01*
X126176158Y-96357575D01*
X125990597Y-96487505D01*
X125823505Y-96654597D01*
X125687965Y-96848169D01*
X125687964Y-96848171D01*
X125588098Y-97062335D01*
X125588094Y-97062344D01*
X125526938Y-97290586D01*
X125526936Y-97290596D01*
X125506341Y-97525999D01*
X125506341Y-97526000D01*
X125526936Y-97761403D01*
X125526938Y-97761413D01*
X125588094Y-97989655D01*
X125588096Y-97989659D01*
X125588097Y-97989663D01*
X125687965Y-98203830D01*
X125687967Y-98203834D01*
X125823501Y-98397395D01*
X125823506Y-98397402D01*
X125990597Y-98564493D01*
X125990603Y-98564498D01*
X126176158Y-98694425D01*
X126219783Y-98749002D01*
X126226977Y-98818500D01*
X126195454Y-98880855D01*
X126176158Y-98897575D01*
X125990597Y-99027505D01*
X125823505Y-99194597D01*
X125687965Y-99388169D01*
X125687964Y-99388171D01*
X125588098Y-99602335D01*
X125588094Y-99602344D01*
X125526938Y-99830586D01*
X125526936Y-99830596D01*
X125506341Y-100065999D01*
X125506341Y-100066000D01*
X125526936Y-100301403D01*
X125526938Y-100301413D01*
X125588094Y-100529655D01*
X125588096Y-100529659D01*
X125588097Y-100529663D01*
X125687965Y-100743830D01*
X125687967Y-100743834D01*
X125796281Y-100898521D01*
X125823501Y-100937396D01*
X125823506Y-100937402D01*
X125945430Y-101059326D01*
X125978915Y-101120649D01*
X125973931Y-101190341D01*
X125932059Y-101246274D01*
X125901083Y-101263189D01*
X125769669Y-101312203D01*
X125769664Y-101312206D01*
X125654455Y-101398452D01*
X125654452Y-101398455D01*
X125568206Y-101513664D01*
X125568202Y-101513671D01*
X125517908Y-101648517D01*
X125511501Y-101708116D01*
X125511501Y-101708123D01*
X125511500Y-101708135D01*
X125511500Y-103503870D01*
X125511501Y-103503876D01*
X125517908Y-103563483D01*
X125568202Y-103698328D01*
X125568206Y-103698335D01*
X125654452Y-103813544D01*
X125654455Y-103813547D01*
X125769664Y-103899793D01*
X125769671Y-103899797D01*
X125904517Y-103950091D01*
X125904516Y-103950091D01*
X125911444Y-103950835D01*
X125964127Y-103956500D01*
X127759872Y-103956499D01*
X127819483Y-103950091D01*
X127954331Y-103899796D01*
X128069546Y-103813546D01*
X128155796Y-103698331D01*
X128206091Y-103563483D01*
X128212500Y-103503873D01*
X128212499Y-101708128D01*
X128206091Y-101648517D01*
X128179605Y-101577505D01*
X128155797Y-101513671D01*
X128155793Y-101513664D01*
X128069547Y-101398455D01*
X128069544Y-101398452D01*
X127954335Y-101312206D01*
X127954328Y-101312202D01*
X127822917Y-101263189D01*
X127766983Y-101221318D01*
X127742566Y-101155853D01*
X127757418Y-101087580D01*
X127778563Y-101059332D01*
X127900495Y-100937401D01*
X128036035Y-100743830D01*
X128135903Y-100529663D01*
X128197063Y-100301408D01*
X128217659Y-100066000D01*
X128197063Y-99830592D01*
X128138584Y-99612344D01*
X128135905Y-99602344D01*
X128135904Y-99602343D01*
X128135903Y-99602337D01*
X128036035Y-99388171D01*
X128030135Y-99379744D01*
X127900494Y-99194597D01*
X127733402Y-99027506D01*
X127733396Y-99027501D01*
X127547842Y-98897575D01*
X127504217Y-98842998D01*
X127497023Y-98773500D01*
X127528546Y-98711145D01*
X127547842Y-98694425D01*
X127719115Y-98574498D01*
X127733401Y-98564495D01*
X127900495Y-98397401D01*
X128036035Y-98203830D01*
X128135903Y-97989663D01*
X128197063Y-97761408D01*
X128217659Y-97526000D01*
X128197063Y-97290592D01*
X128138584Y-97072344D01*
X128135905Y-97062344D01*
X128135904Y-97062343D01*
X128135903Y-97062337D01*
X128036035Y-96848171D01*
X128030135Y-96839744D01*
X127900494Y-96654597D01*
X127733402Y-96487506D01*
X127733396Y-96487501D01*
X127547842Y-96357575D01*
X127504217Y-96302998D01*
X127497023Y-96233500D01*
X127528546Y-96171145D01*
X127547842Y-96154425D01*
X127719115Y-96034498D01*
X127733401Y-96024495D01*
X127900495Y-95857401D01*
X128036035Y-95663830D01*
X128135903Y-95449663D01*
X128197063Y-95221408D01*
X128217659Y-94986000D01*
X128197063Y-94750592D01*
X128138584Y-94532344D01*
X128135905Y-94522344D01*
X128135904Y-94522343D01*
X128135903Y-94522337D01*
X128036035Y-94308171D01*
X127968592Y-94211851D01*
X127900494Y-94114597D01*
X127733402Y-93947506D01*
X127733396Y-93947501D01*
X127547842Y-93817575D01*
X127504217Y-93762998D01*
X127497023Y-93693500D01*
X127528546Y-93631145D01*
X127547842Y-93614425D01*
X127570026Y-93598891D01*
X127733401Y-93484495D01*
X127900495Y-93317401D01*
X128036035Y-93123830D01*
X128135903Y-92909663D01*
X128197063Y-92681408D01*
X128217659Y-92446000D01*
X128197063Y-92210592D01*
X128138584Y-91992344D01*
X128135905Y-91982344D01*
X128135904Y-91982343D01*
X128135903Y-91982337D01*
X128036035Y-91768171D01*
X128030135Y-91759744D01*
X127900494Y-91574597D01*
X127733402Y-91407506D01*
X127733396Y-91407501D01*
X127547842Y-91277575D01*
X127504217Y-91222998D01*
X127497023Y-91153500D01*
X127528546Y-91091145D01*
X127547842Y-91074425D01*
X127719115Y-90954498D01*
X127733401Y-90944495D01*
X127900495Y-90777401D01*
X128036035Y-90583830D01*
X128135903Y-90369663D01*
X128197063Y-90141408D01*
X128217659Y-89906000D01*
X128197063Y-89670592D01*
X128138584Y-89452344D01*
X128135905Y-89442344D01*
X128135904Y-89442343D01*
X128135903Y-89442337D01*
X128036035Y-89228171D01*
X128030135Y-89219744D01*
X127900494Y-89034597D01*
X127733402Y-88867506D01*
X127733396Y-88867501D01*
X127547842Y-88737575D01*
X127504217Y-88682998D01*
X127497023Y-88613500D01*
X127528546Y-88551145D01*
X127547842Y-88534425D01*
X127570026Y-88518891D01*
X127733401Y-88404495D01*
X127900495Y-88237401D01*
X128036035Y-88043830D01*
X128135903Y-87829663D01*
X128197063Y-87601408D01*
X128217659Y-87366000D01*
X128197063Y-87130592D01*
X128138584Y-86912344D01*
X128135905Y-86902344D01*
X128135904Y-86902343D01*
X128135903Y-86902337D01*
X128036035Y-86688171D01*
X127900495Y-86494599D01*
X127900494Y-86494597D01*
X127733402Y-86327506D01*
X127733396Y-86327501D01*
X127547842Y-86197575D01*
X127504217Y-86142998D01*
X127497023Y-86073500D01*
X127528546Y-86011145D01*
X127547842Y-85994425D01*
X127719115Y-85874498D01*
X127733401Y-85864495D01*
X127900495Y-85697401D01*
X128036035Y-85503830D01*
X128135903Y-85289663D01*
X128197063Y-85061408D01*
X128217659Y-84826000D01*
X128197063Y-84590592D01*
X128138584Y-84372344D01*
X128135905Y-84362344D01*
X128135904Y-84362343D01*
X128135903Y-84362337D01*
X128036035Y-84148171D01*
X127900495Y-83954599D01*
X127900494Y-83954597D01*
X127733402Y-83787506D01*
X127733396Y-83787501D01*
X127547842Y-83657575D01*
X127504217Y-83602998D01*
X127497023Y-83533500D01*
X127528546Y-83471145D01*
X127547842Y-83454425D01*
X127719115Y-83334498D01*
X127733401Y-83324495D01*
X127900495Y-83157401D01*
X128036035Y-82963830D01*
X128135903Y-82749663D01*
X128197063Y-82521408D01*
X128217659Y-82286000D01*
X128197063Y-82050592D01*
X128138584Y-81832344D01*
X128135905Y-81822344D01*
X128135904Y-81822343D01*
X128135903Y-81822337D01*
X128036035Y-81608171D01*
X127900495Y-81414599D01*
X127900494Y-81414597D01*
X127733402Y-81247506D01*
X127733396Y-81247501D01*
X127547842Y-81117575D01*
X127504217Y-81062998D01*
X127497023Y-80993500D01*
X127528546Y-80931145D01*
X127547842Y-80914425D01*
X127719115Y-80794498D01*
X127733401Y-80784495D01*
X127900495Y-80617401D01*
X128036035Y-80423830D01*
X128135903Y-80209663D01*
X128197063Y-79981408D01*
X128217659Y-79746000D01*
X128197063Y-79510592D01*
X128138584Y-79292344D01*
X128135905Y-79282344D01*
X128135904Y-79282343D01*
X128135903Y-79282337D01*
X128036035Y-79068171D01*
X128000464Y-79017369D01*
X127900494Y-78874597D01*
X127733402Y-78707506D01*
X127733396Y-78707501D01*
X127547842Y-78577575D01*
X127504217Y-78522998D01*
X127497023Y-78453500D01*
X127528546Y-78391145D01*
X127547842Y-78374425D01*
X127713655Y-78258321D01*
X127733401Y-78244495D01*
X127900495Y-78077401D01*
X128036035Y-77883830D01*
X128135903Y-77669663D01*
X128197063Y-77441408D01*
X128217659Y-77206000D01*
X128197063Y-76970592D01*
X128138584Y-76752344D01*
X128135905Y-76742344D01*
X128135904Y-76742343D01*
X128135903Y-76742337D01*
X128036035Y-76528171D01*
X128030135Y-76519744D01*
X127900494Y-76334597D01*
X127733402Y-76167506D01*
X127733396Y-76167501D01*
X127547842Y-76037575D01*
X127504217Y-75982998D01*
X127497023Y-75913500D01*
X127528546Y-75851145D01*
X127547842Y-75834425D01*
X127719115Y-75714498D01*
X127733401Y-75704495D01*
X127900495Y-75537401D01*
X128036035Y-75343830D01*
X128135903Y-75129663D01*
X128197063Y-74901408D01*
X128217659Y-74666000D01*
X128197063Y-74430592D01*
X128138584Y-74212344D01*
X128135905Y-74202344D01*
X128135904Y-74202343D01*
X128135903Y-74202337D01*
X128036035Y-73988171D01*
X128030135Y-73979744D01*
X127900494Y-73794597D01*
X127733402Y-73627506D01*
X127733396Y-73627501D01*
X127547842Y-73497575D01*
X127504217Y-73442998D01*
X127497023Y-73373500D01*
X127528546Y-73311145D01*
X127547842Y-73294425D01*
X127719115Y-73174498D01*
X127733401Y-73164495D01*
X127900495Y-72997401D01*
X128036035Y-72803830D01*
X128135903Y-72589663D01*
X128197063Y-72361408D01*
X128217659Y-72126000D01*
X128197063Y-71890592D01*
X128138584Y-71672344D01*
X128135905Y-71662344D01*
X128135904Y-71662343D01*
X128135903Y-71662337D01*
X128036035Y-71448171D01*
X127999611Y-71396151D01*
X127900494Y-71254597D01*
X127733402Y-71087506D01*
X127733396Y-71087501D01*
X127547842Y-70957575D01*
X127504217Y-70902998D01*
X127497023Y-70833500D01*
X127528546Y-70771145D01*
X127547842Y-70754425D01*
X127661662Y-70674727D01*
X127733401Y-70624495D01*
X127900495Y-70457401D01*
X128036035Y-70263830D01*
X128135903Y-70049663D01*
X128197063Y-69821408D01*
X128217659Y-69586000D01*
X128197063Y-69350592D01*
X128138584Y-69132344D01*
X128135905Y-69122344D01*
X128135904Y-69122343D01*
X128135903Y-69122337D01*
X128036035Y-68908171D01*
X128012349Y-68874343D01*
X127900494Y-68714597D01*
X127733402Y-68547506D01*
X127733396Y-68547501D01*
X127547842Y-68417575D01*
X127504217Y-68362998D01*
X127497023Y-68293500D01*
X127528546Y-68231145D01*
X127547842Y-68214425D01*
X127719115Y-68094498D01*
X127733401Y-68084495D01*
X127900495Y-67917401D01*
X128036035Y-67723830D01*
X128135903Y-67509663D01*
X128197063Y-67281408D01*
X128217659Y-67046000D01*
X128215945Y-67026415D01*
X128209038Y-66947461D01*
X128197063Y-66810592D01*
X128138584Y-66592344D01*
X128135905Y-66582344D01*
X128135904Y-66582343D01*
X128135903Y-66582337D01*
X128036035Y-66368171D01*
X127900495Y-66174599D01*
X127900494Y-66174597D01*
X127733402Y-66007506D01*
X127733396Y-66007501D01*
X127547842Y-65877575D01*
X127504217Y-65822998D01*
X127497023Y-65753500D01*
X127528546Y-65691145D01*
X127547842Y-65674425D01*
X127719115Y-65554498D01*
X127733401Y-65544495D01*
X127900495Y-65377401D01*
X128036035Y-65183830D01*
X128135903Y-64969663D01*
X128197063Y-64741408D01*
X128217659Y-64506000D01*
X128197063Y-64270592D01*
X128138584Y-64052344D01*
X128135905Y-64042344D01*
X128135904Y-64042343D01*
X128135903Y-64042337D01*
X128036035Y-63828171D01*
X127992153Y-63765500D01*
X127900494Y-63634597D01*
X127733402Y-63467506D01*
X127733396Y-63467501D01*
X127547842Y-63337575D01*
X127504217Y-63282998D01*
X127497023Y-63213500D01*
X127528546Y-63151145D01*
X127547842Y-63134425D01*
X127592803Y-63102943D01*
X127733401Y-63004495D01*
X127900495Y-62837401D01*
X128036035Y-62643830D01*
X128135903Y-62429663D01*
X128197063Y-62201408D01*
X128217659Y-61966000D01*
X128197063Y-61730592D01*
X128138584Y-61512344D01*
X128135905Y-61502344D01*
X128135904Y-61502343D01*
X128135903Y-61502337D01*
X128036035Y-61288171D01*
X128034463Y-61285925D01*
X127900494Y-61094597D01*
X127733402Y-60927506D01*
X127733396Y-60927501D01*
X127547842Y-60797575D01*
X127504217Y-60742998D01*
X127497023Y-60673500D01*
X127528546Y-60611145D01*
X127547842Y-60594425D01*
X127594468Y-60561777D01*
X127733401Y-60464495D01*
X127900495Y-60297401D01*
X128036035Y-60103830D01*
X128135903Y-59889663D01*
X128197063Y-59661408D01*
X128217659Y-59426000D01*
X128197063Y-59190592D01*
X128135903Y-58962337D01*
X128036035Y-58748171D01*
X127900495Y-58554599D01*
X127900494Y-58554597D01*
X127733402Y-58387506D01*
X127733395Y-58387501D01*
X127539834Y-58251967D01*
X127539830Y-58251965D01*
X127489413Y-58228455D01*
X127325663Y-58152097D01*
X127325659Y-58152096D01*
X127325655Y-58152094D01*
X127097413Y-58090938D01*
X127097403Y-58090936D01*
X126862001Y-58070341D01*
X126861999Y-58070341D01*
X126626596Y-58090936D01*
X126626586Y-58090938D01*
X126398344Y-58152094D01*
X126398335Y-58152098D01*
X126184171Y-58251964D01*
X126184169Y-58251965D01*
X125990597Y-58387505D01*
X125823505Y-58554597D01*
X125687965Y-58748169D01*
X125687964Y-58748171D01*
X125588098Y-58962335D01*
X125588094Y-58962344D01*
X125526938Y-59190586D01*
X125526936Y-59190596D01*
X125506341Y-59425999D01*
X107938500Y-59425999D01*
X107938500Y-58954321D01*
X107955113Y-58892321D01*
X108015179Y-58788284D01*
X108073674Y-58608256D01*
X108093460Y-58420000D01*
X108073674Y-58231744D01*
X108015179Y-58051716D01*
X107920533Y-57887784D01*
X107793871Y-57747112D01*
X107793870Y-57747111D01*
X107640734Y-57635851D01*
X107640729Y-57635848D01*
X107467807Y-57558857D01*
X107467802Y-57558855D01*
X107322001Y-57527865D01*
X107282646Y-57519500D01*
X107093354Y-57519500D01*
X107060897Y-57526398D01*
X106908197Y-57558855D01*
X106908192Y-57558857D01*
X106735270Y-57635848D01*
X106735265Y-57635851D01*
X106582129Y-57747111D01*
X106455466Y-57887785D01*
X106360821Y-58051715D01*
X106360818Y-58051722D01*
X106302327Y-58231740D01*
X106302326Y-58231744D01*
X106282540Y-58420000D01*
X103684265Y-58420000D01*
X103672144Y-58387501D01*
X103655797Y-58343671D01*
X103655793Y-58343664D01*
X103569547Y-58228455D01*
X103569544Y-58228452D01*
X103454335Y-58142206D01*
X103454328Y-58142202D01*
X103319482Y-58091908D01*
X103319483Y-58091908D01*
X103259883Y-58085501D01*
X103259881Y-58085500D01*
X103259873Y-58085500D01*
X103259864Y-58085500D01*
X101464129Y-58085500D01*
X101464123Y-58085501D01*
X101404516Y-58091908D01*
X101269671Y-58142202D01*
X101269664Y-58142206D01*
X101154455Y-58228452D01*
X101154452Y-58228455D01*
X101107766Y-58290820D01*
X101051832Y-58332691D01*
X100982141Y-58337675D01*
X100920818Y-58304189D01*
X100887334Y-58242866D01*
X100884500Y-58216509D01*
X100884500Y-52700149D01*
X118275500Y-52700149D01*
X118275500Y-52955850D01*
X118301457Y-53153007D01*
X118308874Y-53209340D01*
X118375050Y-53456312D01*
X118375053Y-53456322D01*
X118472894Y-53692531D01*
X118472899Y-53692542D01*
X118600734Y-53913957D01*
X118600745Y-53913973D01*
X118756388Y-54116811D01*
X118756394Y-54116818D01*
X118937181Y-54297605D01*
X118937187Y-54297610D01*
X119140035Y-54453261D01*
X119140042Y-54453265D01*
X119361457Y-54581100D01*
X119361462Y-54581102D01*
X119361465Y-54581104D01*
X119597687Y-54678950D01*
X119844660Y-54745126D01*
X120098157Y-54778500D01*
X120098164Y-54778500D01*
X120453836Y-54778500D01*
X120453843Y-54778500D01*
X120707340Y-54745126D01*
X120954313Y-54678950D01*
X121190535Y-54581104D01*
X121411965Y-54453261D01*
X121614813Y-54297610D01*
X121795610Y-54116813D01*
X121951261Y-53913965D01*
X122079104Y-53692535D01*
X122176950Y-53456313D01*
X122243126Y-53209340D01*
X122276500Y-52955843D01*
X122276500Y-52700157D01*
X122243126Y-52446660D01*
X122176950Y-52199687D01*
X122079104Y-51963465D01*
X122079102Y-51963462D01*
X122079100Y-51963457D01*
X121951265Y-51742042D01*
X121951261Y-51742035D01*
X121795610Y-51539187D01*
X121795605Y-51539181D01*
X121614818Y-51358394D01*
X121614811Y-51358388D01*
X121411973Y-51202745D01*
X121411971Y-51202743D01*
X121411965Y-51202739D01*
X121411960Y-51202736D01*
X121411957Y-51202734D01*
X121190542Y-51074899D01*
X121190531Y-51074894D01*
X120954322Y-50977053D01*
X120954315Y-50977051D01*
X120954313Y-50977050D01*
X120707340Y-50910874D01*
X120651007Y-50903457D01*
X120453850Y-50877500D01*
X120453843Y-50877500D01*
X120098157Y-50877500D01*
X120098149Y-50877500D01*
X119872826Y-50907165D01*
X119844660Y-50910874D01*
X119597687Y-50977050D01*
X119597677Y-50977053D01*
X119361468Y-51074894D01*
X119361457Y-51074899D01*
X119140042Y-51202734D01*
X119140026Y-51202745D01*
X118937188Y-51358388D01*
X118937181Y-51358394D01*
X118756394Y-51539181D01*
X118756388Y-51539188D01*
X118600745Y-51742026D01*
X118600734Y-51742042D01*
X118472899Y-51963457D01*
X118472894Y-51963468D01*
X118375053Y-52199677D01*
X118375050Y-52199687D01*
X118308874Y-52446661D01*
X118275500Y-52700149D01*
X100884500Y-52700149D01*
X100884500Y-41117999D01*
X101235341Y-41117999D01*
X101235341Y-41118000D01*
X101255936Y-41353403D01*
X101255938Y-41353413D01*
X101317094Y-41581655D01*
X101317096Y-41581659D01*
X101317097Y-41581663D01*
X101416965Y-41795830D01*
X101416967Y-41795834D01*
X101552501Y-41989395D01*
X101552506Y-41989402D01*
X101719597Y-42156493D01*
X101719603Y-42156498D01*
X101905158Y-42286425D01*
X101948783Y-42341002D01*
X101955977Y-42410500D01*
X101924454Y-42472855D01*
X101905158Y-42489575D01*
X101719597Y-42619505D01*
X101552505Y-42786597D01*
X101416965Y-42980169D01*
X101416964Y-42980171D01*
X101317098Y-43194335D01*
X101317094Y-43194344D01*
X101255938Y-43422586D01*
X101255936Y-43422596D01*
X101235341Y-43657999D01*
X101235341Y-43658000D01*
X101255936Y-43893403D01*
X101255938Y-43893413D01*
X101317094Y-44121655D01*
X101317096Y-44121659D01*
X101317097Y-44121663D01*
X101335648Y-44161445D01*
X101416965Y-44335830D01*
X101416967Y-44335834D01*
X101525281Y-44490521D01*
X101552505Y-44529401D01*
X101719599Y-44696495D01*
X101903884Y-44825533D01*
X101905594Y-44826730D01*
X101949219Y-44881307D01*
X101956413Y-44950805D01*
X101924890Y-45013160D01*
X101905595Y-45029880D01*
X101719922Y-45159890D01*
X101719920Y-45159891D01*
X101552891Y-45326920D01*
X101552886Y-45326926D01*
X101417400Y-45520420D01*
X101417399Y-45520422D01*
X101317570Y-45734507D01*
X101317567Y-45734513D01*
X101260364Y-45947999D01*
X101260364Y-45948000D01*
X102157988Y-45948000D01*
X102125075Y-46005007D01*
X102091000Y-46132174D01*
X102091000Y-46263826D01*
X102125075Y-46390993D01*
X102157988Y-46448000D01*
X101260364Y-46448000D01*
X101317567Y-46661486D01*
X101317570Y-46661492D01*
X101417399Y-46875578D01*
X101552894Y-47069082D01*
X101719917Y-47236105D01*
X101905595Y-47366119D01*
X101949219Y-47420696D01*
X101956412Y-47490195D01*
X101924890Y-47552549D01*
X101905595Y-47569269D01*
X101719594Y-47699508D01*
X101552505Y-47866597D01*
X101416965Y-48060169D01*
X101416964Y-48060171D01*
X101317098Y-48274335D01*
X101317094Y-48274344D01*
X101255938Y-48502586D01*
X101255936Y-48502596D01*
X101235341Y-48737999D01*
X101235341Y-48738000D01*
X101255936Y-48973403D01*
X101255938Y-48973413D01*
X101317094Y-49201655D01*
X101317096Y-49201659D01*
X101317097Y-49201663D01*
X101391586Y-49361405D01*
X101416965Y-49415830D01*
X101416967Y-49415834D01*
X101505741Y-49542615D01*
X101552501Y-49609396D01*
X101552506Y-49609402D01*
X101674430Y-49731326D01*
X101707915Y-49792649D01*
X101702931Y-49862341D01*
X101661059Y-49918274D01*
X101630083Y-49935189D01*
X101498669Y-49984203D01*
X101498664Y-49984206D01*
X101383455Y-50070452D01*
X101383452Y-50070455D01*
X101297206Y-50185664D01*
X101297202Y-50185671D01*
X101246908Y-50320517D01*
X101240501Y-50380116D01*
X101240501Y-50380123D01*
X101240500Y-50380135D01*
X101240500Y-52175870D01*
X101240501Y-52175876D01*
X101246908Y-52235483D01*
X101297202Y-52370328D01*
X101297206Y-52370335D01*
X101383452Y-52485544D01*
X101383455Y-52485547D01*
X101498664Y-52571793D01*
X101498671Y-52571797D01*
X101633517Y-52622091D01*
X101633516Y-52622091D01*
X101640444Y-52622835D01*
X101693127Y-52628500D01*
X103488872Y-52628499D01*
X103548483Y-52622091D01*
X103683331Y-52571796D01*
X103798546Y-52485546D01*
X103884796Y-52370331D01*
X103935091Y-52235483D01*
X103941500Y-52175873D01*
X103941499Y-50380128D01*
X103935091Y-50320517D01*
X103884796Y-50185669D01*
X103884795Y-50185668D01*
X103884793Y-50185664D01*
X103798547Y-50070455D01*
X103798544Y-50070452D01*
X103683335Y-49984206D01*
X103683328Y-49984202D01*
X103551917Y-49935189D01*
X103495983Y-49893318D01*
X103471566Y-49827853D01*
X103486418Y-49759580D01*
X103507563Y-49731332D01*
X103629495Y-49609401D01*
X103765035Y-49415830D01*
X103864903Y-49201663D01*
X103926063Y-48973408D01*
X103946659Y-48738000D01*
X103926063Y-48502592D01*
X103870319Y-48294550D01*
X103864905Y-48274344D01*
X103864904Y-48274343D01*
X103864903Y-48274337D01*
X103765035Y-48060171D01*
X103662252Y-47913380D01*
X103629494Y-47866597D01*
X103462402Y-47699506D01*
X103462401Y-47699505D01*
X103276405Y-47569269D01*
X103232781Y-47514692D01*
X103225588Y-47445193D01*
X103257110Y-47382839D01*
X103276405Y-47366119D01*
X103462082Y-47236105D01*
X103629105Y-47069082D01*
X103764600Y-46875578D01*
X103864429Y-46661492D01*
X103864432Y-46661486D01*
X103921636Y-46448000D01*
X103024012Y-46448000D01*
X103056925Y-46390993D01*
X103091000Y-46263826D01*
X103091000Y-46132174D01*
X103056925Y-46005007D01*
X103024012Y-45948000D01*
X103921636Y-45948000D01*
X103921635Y-45947999D01*
X103864432Y-45734513D01*
X103864429Y-45734507D01*
X103764600Y-45520422D01*
X103764599Y-45520420D01*
X103629113Y-45326926D01*
X103629108Y-45326920D01*
X103462078Y-45159890D01*
X103276405Y-45029879D01*
X103232780Y-44975302D01*
X103225588Y-44905804D01*
X103257110Y-44843449D01*
X103276406Y-44826730D01*
X103278114Y-44825534D01*
X103462401Y-44696495D01*
X103629495Y-44529401D01*
X103765035Y-44335830D01*
X103864903Y-44121663D01*
X103926063Y-43893408D01*
X103940535Y-43727997D01*
X111508677Y-43727997D01*
X111508677Y-43728002D01*
X111527929Y-43948062D01*
X111527930Y-43948070D01*
X111585104Y-44161445D01*
X111585105Y-44161447D01*
X111585106Y-44161450D01*
X111666420Y-44335830D01*
X111678466Y-44361662D01*
X111678468Y-44361666D01*
X111805170Y-44542615D01*
X111805175Y-44542621D01*
X111961378Y-44698824D01*
X111961384Y-44698829D01*
X112142333Y-44825531D01*
X112142335Y-44825532D01*
X112142338Y-44825534D01*
X112228891Y-44865894D01*
X112281330Y-44912066D01*
X112300482Y-44979260D01*
X112280266Y-45046141D01*
X112228891Y-45090658D01*
X112142590Y-45130901D01*
X112077811Y-45176258D01*
X112646590Y-45745037D01*
X112583007Y-45762075D01*
X112468993Y-45827901D01*
X112375901Y-45920993D01*
X112310075Y-46035007D01*
X112293037Y-46098590D01*
X111724258Y-45529811D01*
X111678901Y-45594590D01*
X111585579Y-45794720D01*
X111585575Y-45794729D01*
X111528426Y-46008013D01*
X111528424Y-46008023D01*
X111509179Y-46227999D01*
X111509179Y-46228000D01*
X111528424Y-46447976D01*
X111528426Y-46447986D01*
X111585575Y-46661270D01*
X111585580Y-46661284D01*
X111678898Y-46861405D01*
X111678901Y-46861411D01*
X111724258Y-46926187D01*
X111724259Y-46926188D01*
X112293037Y-46357409D01*
X112310075Y-46420993D01*
X112375901Y-46535007D01*
X112468993Y-46628099D01*
X112583007Y-46693925D01*
X112646590Y-46710962D01*
X112077810Y-47279740D01*
X112142589Y-47325098D01*
X112228891Y-47365342D01*
X112281330Y-47411514D01*
X112300482Y-47478708D01*
X112280266Y-47545589D01*
X112228891Y-47590106D01*
X112142340Y-47630465D01*
X112142338Y-47630466D01*
X111961377Y-47757175D01*
X111805175Y-47913377D01*
X111678466Y-48094338D01*
X111678465Y-48094340D01*
X111585107Y-48294548D01*
X111585104Y-48294554D01*
X111527930Y-48507929D01*
X111527929Y-48507937D01*
X111508677Y-48727997D01*
X111508677Y-48728002D01*
X111527929Y-48948062D01*
X111527930Y-48948070D01*
X111585104Y-49161445D01*
X111585105Y-49161447D01*
X111585106Y-49161450D01*
X111603854Y-49201655D01*
X111678466Y-49361662D01*
X111678468Y-49361666D01*
X111805170Y-49542615D01*
X111805175Y-49542621D01*
X111961378Y-49698824D01*
X111961384Y-49698829D01*
X112142333Y-49825531D01*
X112142335Y-49825532D01*
X112142338Y-49825534D01*
X112342550Y-49918894D01*
X112555932Y-49976070D01*
X112713123Y-49989822D01*
X112775998Y-49995323D01*
X112776000Y-49995323D01*
X112776002Y-49995323D01*
X112831017Y-49990509D01*
X112996068Y-49976070D01*
X113209450Y-49918894D01*
X113409662Y-49825534D01*
X113590620Y-49698826D01*
X113746826Y-49542620D01*
X113873534Y-49361662D01*
X113966894Y-49161450D01*
X114024070Y-48948068D01*
X114043323Y-48728000D01*
X114024070Y-48507932D01*
X113966894Y-48294550D01*
X113873534Y-48094339D01*
X113746826Y-47913380D01*
X113590620Y-47757174D01*
X113590616Y-47757171D01*
X113590615Y-47757170D01*
X113409666Y-47630468D01*
X113409663Y-47630466D01*
X113409662Y-47630466D01*
X113361691Y-47608096D01*
X113323108Y-47590105D01*
X113270669Y-47543932D01*
X113251517Y-47476739D01*
X113271733Y-47409858D01*
X113323110Y-47365340D01*
X113409412Y-47325097D01*
X113409417Y-47325094D01*
X113474188Y-47279741D01*
X112905410Y-46710962D01*
X112968993Y-46693925D01*
X113083007Y-46628099D01*
X113176099Y-46535007D01*
X113241925Y-46420993D01*
X113258962Y-46357409D01*
X113827741Y-46926188D01*
X113873094Y-46861417D01*
X113873100Y-46861407D01*
X113966419Y-46661284D01*
X113966424Y-46661270D01*
X114023573Y-46447986D01*
X114023575Y-46447976D01*
X114042821Y-46228000D01*
X114042821Y-46227999D01*
X114023575Y-46008023D01*
X114023573Y-46008013D01*
X113966424Y-45794729D01*
X113966420Y-45794720D01*
X113873096Y-45594586D01*
X113827741Y-45529811D01*
X113827740Y-45529810D01*
X113258962Y-46098589D01*
X113241925Y-46035007D01*
X113176099Y-45920993D01*
X113083007Y-45827901D01*
X112968993Y-45762075D01*
X112905410Y-45745037D01*
X113474188Y-45176259D01*
X113474187Y-45176258D01*
X113409411Y-45130901D01*
X113409405Y-45130898D01*
X113323109Y-45090658D01*
X113270669Y-45044486D01*
X113251517Y-44977293D01*
X113271732Y-44910412D01*
X113323109Y-44865894D01*
X113409662Y-44825534D01*
X113590620Y-44698826D01*
X113746826Y-44542620D01*
X113873534Y-44361662D01*
X113966894Y-44161450D01*
X114024070Y-43948068D01*
X114043323Y-43728000D01*
X114024070Y-43507932D01*
X113966894Y-43294550D01*
X113873534Y-43094339D01*
X113746826Y-42913380D01*
X113590620Y-42757174D01*
X113590616Y-42757171D01*
X113590615Y-42757170D01*
X113409666Y-42630468D01*
X113409662Y-42630466D01*
X113386147Y-42619501D01*
X113209450Y-42537106D01*
X113209447Y-42537105D01*
X113209445Y-42537104D01*
X112996070Y-42479930D01*
X112996062Y-42479929D01*
X112776002Y-42460677D01*
X112775998Y-42460677D01*
X112555937Y-42479929D01*
X112555929Y-42479930D01*
X112342554Y-42537104D01*
X112342548Y-42537107D01*
X112142340Y-42630465D01*
X112142338Y-42630466D01*
X111961377Y-42757175D01*
X111805175Y-42913377D01*
X111678466Y-43094338D01*
X111678465Y-43094340D01*
X111585107Y-43294548D01*
X111585104Y-43294554D01*
X111527930Y-43507929D01*
X111527929Y-43507937D01*
X111508677Y-43727997D01*
X103940535Y-43727997D01*
X103946659Y-43658000D01*
X103926063Y-43422592D01*
X103864903Y-43194337D01*
X103765035Y-42980171D01*
X103718269Y-42913381D01*
X103629494Y-42786597D01*
X103462402Y-42619506D01*
X103462396Y-42619501D01*
X103276842Y-42489575D01*
X103233217Y-42434998D01*
X103226023Y-42365500D01*
X103257546Y-42303145D01*
X103276842Y-42286425D01*
X103299026Y-42270891D01*
X103462401Y-42156495D01*
X103629495Y-41989401D01*
X103765035Y-41795830D01*
X103864903Y-41581663D01*
X103926063Y-41353408D01*
X103946659Y-41118000D01*
X103926063Y-40882592D01*
X103864903Y-40654337D01*
X103765035Y-40440171D01*
X103629495Y-40246599D01*
X103629494Y-40246597D01*
X103462402Y-40079506D01*
X103462395Y-40079501D01*
X103268834Y-39943967D01*
X103268830Y-39943965D01*
X103268828Y-39943964D01*
X103054663Y-39844097D01*
X103054659Y-39844096D01*
X103054655Y-39844094D01*
X102826413Y-39782938D01*
X102826403Y-39782936D01*
X102591001Y-39762341D01*
X102590999Y-39762341D01*
X102355596Y-39782936D01*
X102355586Y-39782938D01*
X102127344Y-39844094D01*
X102127335Y-39844098D01*
X101913171Y-39943964D01*
X101913169Y-39943965D01*
X101719597Y-40079505D01*
X101552505Y-40246597D01*
X101416965Y-40440169D01*
X101416964Y-40440171D01*
X101317098Y-40654335D01*
X101317094Y-40654344D01*
X101255938Y-40882586D01*
X101255936Y-40882596D01*
X101235341Y-41117999D01*
X100884500Y-41117999D01*
X100884500Y-38016500D01*
X100904185Y-37949461D01*
X100956989Y-37903706D01*
X101008500Y-37892500D01*
X118918409Y-37892500D01*
X118985448Y-37912185D01*
G37*
%TD.AperFunction*%
%TD*%
M02*
