%TF.GenerationSoftware,KiCad,Pcbnew,8.0.2*%
%TF.CreationDate,2024-09-16T20:19:00-04:00*%
%TF.ProjectId,servo_tester,73657276-6f5f-4746-9573-7465722e6b69,rev?*%
%TF.SameCoordinates,Original*%
%TF.FileFunction,Drillmap*%
%TF.FilePolarity,Positive*%
%FSLAX45Y45*%
G04 Gerber Fmt 4.5, Leading zero omitted, Abs format (unit mm)*
G04 Created by KiCad (PCBNEW 8.0.2) date 2024-09-16 20:19:00*
%MOMM*%
%LPD*%
G01*
G04 APERTURE LIST*
%ADD10C,0.100000*%
%ADD11C,0.200000*%
%ADD12C,0.210000*%
G04 APERTURE END LIST*
D10*
X10058400Y-3759200D02*
X12903200Y-3759200D01*
X12903200Y-11684000D01*
X10058400Y-11684000D01*
X10058400Y-3759200D01*
D11*
D10*
X11689950Y-8316200D02*
X11719950Y-8346200D01*
X11719950Y-8316200D02*
X11689950Y-8346200D01*
X12174802Y-6485202D02*
X12204802Y-6515202D01*
X12204802Y-6485202D02*
X12174802Y-6515202D01*
X12225273Y-7297673D02*
X12255273Y-7327673D01*
X12255273Y-7297673D02*
X12225273Y-7327673D01*
X12227904Y-6995504D02*
X12257904Y-7025504D01*
X12257904Y-6995504D02*
X12227904Y-7025504D01*
X12251002Y-6409002D02*
X12281002Y-6439002D01*
X12281002Y-6409002D02*
X12251002Y-6439002D01*
X12278600Y-7808200D02*
X12308600Y-7838200D01*
X12308600Y-7808200D02*
X12278600Y-7838200D01*
X12326873Y-7196073D02*
X12356873Y-7226073D01*
X12356873Y-7196073D02*
X12326873Y-7226073D01*
X12329504Y-6893904D02*
X12359504Y-6923904D01*
X12359504Y-6893904D02*
X12329504Y-6923904D01*
X12380200Y-7809727D02*
X12410200Y-7839727D01*
X12410200Y-7809727D02*
X12380200Y-7839727D01*
X10507200Y-10922000D02*
G75*
G02*
X10457200Y-10922000I-25000J0D01*
G01*
X10457200Y-10922000D02*
G75*
G02*
X10507200Y-10922000I25000J0D01*
G01*
X10743800Y-5842000D02*
G75*
G02*
X10693800Y-5842000I-25000J0D01*
G01*
X10693800Y-5842000D02*
G75*
G02*
X10743800Y-5842000I25000J0D01*
G01*
X10743800Y-6146800D02*
G75*
G02*
X10693800Y-6146800I-25000J0D01*
G01*
X10693800Y-6146800D02*
G75*
G02*
X10743800Y-6146800I25000J0D01*
G01*
X10743800Y-11379200D02*
G75*
G02*
X10693800Y-11379200I-25000J0D01*
G01*
X10693800Y-11379200D02*
G75*
G02*
X10743800Y-11379200I25000J0D01*
G01*
X10845400Y-7061200D02*
G75*
G02*
X10795400Y-7061200I-25000J0D01*
G01*
X10795400Y-7061200D02*
G75*
G02*
X10845400Y-7061200I25000J0D01*
G01*
X10845400Y-7670800D02*
G75*
G02*
X10795400Y-7670800I-25000J0D01*
G01*
X10795400Y-7670800D02*
G75*
G02*
X10845400Y-7670800I25000J0D01*
G01*
X10845400Y-8940800D02*
G75*
G02*
X10795400Y-8940800I-25000J0D01*
G01*
X10795400Y-8940800D02*
G75*
G02*
X10845400Y-8940800I25000J0D01*
G01*
X10845400Y-9499600D02*
G75*
G02*
X10795400Y-9499600I-25000J0D01*
G01*
X10795400Y-9499600D02*
G75*
G02*
X10845400Y-9499600I25000J0D01*
G01*
X10845400Y-9956800D02*
G75*
G02*
X10795400Y-9956800I-25000J0D01*
G01*
X10795400Y-9956800D02*
G75*
G02*
X10845400Y-9956800I25000J0D01*
G01*
X10845400Y-11176000D02*
G75*
G02*
X10795400Y-11176000I-25000J0D01*
G01*
X10795400Y-11176000D02*
G75*
G02*
X10845400Y-11176000I25000J0D01*
G01*
X10845400Y-11379200D02*
G75*
G02*
X10795400Y-11379200I-25000J0D01*
G01*
X10795400Y-11379200D02*
G75*
G02*
X10845400Y-11379200I25000J0D01*
G01*
X10896200Y-6299200D02*
G75*
G02*
X10846200Y-6299200I-25000J0D01*
G01*
X10846200Y-6299200D02*
G75*
G02*
X10896200Y-6299200I25000J0D01*
G01*
X10947000Y-7010400D02*
G75*
G02*
X10897000Y-7010400I-25000J0D01*
G01*
X10897000Y-7010400D02*
G75*
G02*
X10947000Y-7010400I25000J0D01*
G01*
X10947000Y-7772400D02*
G75*
G02*
X10897000Y-7772400I-25000J0D01*
G01*
X10897000Y-7772400D02*
G75*
G02*
X10947000Y-7772400I25000J0D01*
G01*
X10947000Y-8839200D02*
G75*
G02*
X10897000Y-8839200I-25000J0D01*
G01*
X10897000Y-8839200D02*
G75*
G02*
X10947000Y-8839200I25000J0D01*
G01*
X10947000Y-9245600D02*
G75*
G02*
X10897000Y-9245600I-25000J0D01*
G01*
X10897000Y-9245600D02*
G75*
G02*
X10947000Y-9245600I25000J0D01*
G01*
X10947000Y-9398000D02*
G75*
G02*
X10897000Y-9398000I-25000J0D01*
G01*
X10897000Y-9398000D02*
G75*
G02*
X10947000Y-9398000I25000J0D01*
G01*
X10947000Y-9702800D02*
G75*
G02*
X10897000Y-9702800I-25000J0D01*
G01*
X10897000Y-9702800D02*
G75*
G02*
X10947000Y-9702800I25000J0D01*
G01*
X10947000Y-11379200D02*
G75*
G02*
X10897000Y-11379200I-25000J0D01*
G01*
X10897000Y-11379200D02*
G75*
G02*
X10947000Y-11379200I25000J0D01*
G01*
X10995715Y-6210035D02*
G75*
G02*
X10945715Y-6210035I-25000J0D01*
G01*
X10945715Y-6210035D02*
G75*
G02*
X10995715Y-6210035I25000J0D01*
G01*
X10997800Y-6756400D02*
G75*
G02*
X10947800Y-6756400I-25000J0D01*
G01*
X10947800Y-6756400D02*
G75*
G02*
X10997800Y-6756400I25000J0D01*
G01*
X11048600Y-11379200D02*
G75*
G02*
X10998600Y-11379200I-25000J0D01*
G01*
X10998600Y-11379200D02*
G75*
G02*
X11048600Y-11379200I25000J0D01*
G01*
X11099400Y-10922000D02*
G75*
G02*
X11049400Y-10922000I-25000J0D01*
G01*
X11049400Y-10922000D02*
G75*
G02*
X11099400Y-10922000I25000J0D01*
G01*
X11201000Y-7416800D02*
G75*
G02*
X11151000Y-7416800I-25000J0D01*
G01*
X11151000Y-7416800D02*
G75*
G02*
X11201000Y-7416800I25000J0D01*
G01*
X11201000Y-9144000D02*
G75*
G02*
X11151000Y-9144000I-25000J0D01*
G01*
X11151000Y-9144000D02*
G75*
G02*
X11201000Y-9144000I25000J0D01*
G01*
X11201000Y-11176000D02*
G75*
G02*
X11151000Y-11176000I-25000J0D01*
G01*
X11151000Y-11176000D02*
G75*
G02*
X11201000Y-11176000I25000J0D01*
G01*
X11251800Y-6959600D02*
G75*
G02*
X11201800Y-6959600I-25000J0D01*
G01*
X11201800Y-6959600D02*
G75*
G02*
X11251800Y-6959600I25000J0D01*
G01*
X11251800Y-7772400D02*
G75*
G02*
X11201800Y-7772400I-25000J0D01*
G01*
X11201800Y-7772400D02*
G75*
G02*
X11251800Y-7772400I25000J0D01*
G01*
X11251800Y-9398000D02*
G75*
G02*
X11201800Y-9398000I-25000J0D01*
G01*
X11201800Y-9398000D02*
G75*
G02*
X11251800Y-9398000I25000J0D01*
G01*
X11302600Y-7416800D02*
G75*
G02*
X11252600Y-7416800I-25000J0D01*
G01*
X11252600Y-7416800D02*
G75*
G02*
X11302600Y-7416800I25000J0D01*
G01*
X11302600Y-9042400D02*
G75*
G02*
X11252600Y-9042400I-25000J0D01*
G01*
X11252600Y-9042400D02*
G75*
G02*
X11302600Y-9042400I25000J0D01*
G01*
X11302600Y-11176000D02*
G75*
G02*
X11252600Y-11176000I-25000J0D01*
G01*
X11252600Y-11176000D02*
G75*
G02*
X11302600Y-11176000I25000J0D01*
G01*
X11353400Y-7772400D02*
G75*
G02*
X11303400Y-7772400I-25000J0D01*
G01*
X11303400Y-7772400D02*
G75*
G02*
X11353400Y-7772400I25000J0D01*
G01*
X11353400Y-9296400D02*
G75*
G02*
X11303400Y-9296400I-25000J0D01*
G01*
X11303400Y-9296400D02*
G75*
G02*
X11353400Y-9296400I25000J0D01*
G01*
X11404200Y-7416800D02*
G75*
G02*
X11354200Y-7416800I-25000J0D01*
G01*
X11354200Y-7416800D02*
G75*
G02*
X11404200Y-7416800I25000J0D01*
G01*
X11404200Y-8940800D02*
G75*
G02*
X11354200Y-8940800I-25000J0D01*
G01*
X11354200Y-8940800D02*
G75*
G02*
X11404200Y-8940800I25000J0D01*
G01*
X11455000Y-7772400D02*
G75*
G02*
X11405000Y-7772400I-25000J0D01*
G01*
X11405000Y-7772400D02*
G75*
G02*
X11455000Y-7772400I25000J0D01*
G01*
X11455000Y-9194800D02*
G75*
G02*
X11405000Y-9194800I-25000J0D01*
G01*
X11405000Y-9194800D02*
G75*
G02*
X11455000Y-9194800I25000J0D01*
G01*
X11505800Y-11379200D02*
G75*
G02*
X11455800Y-11379200I-25000J0D01*
G01*
X11455800Y-11379200D02*
G75*
G02*
X11505800Y-11379200I25000J0D01*
G01*
X11559150Y-6451600D02*
G75*
G02*
X11509150Y-6451600I-25000J0D01*
G01*
X11509150Y-6451600D02*
G75*
G02*
X11559150Y-6451600I25000J0D01*
G01*
X11759800Y-7061200D02*
G75*
G02*
X11709800Y-7061200I-25000J0D01*
G01*
X11709800Y-7061200D02*
G75*
G02*
X11759800Y-7061200I25000J0D01*
G01*
X11917569Y-6293831D02*
G75*
G02*
X11867569Y-6293831I-25000J0D01*
G01*
X11867569Y-6293831D02*
G75*
G02*
X11917569Y-6293831I25000J0D01*
G01*
X11963000Y-10922000D02*
G75*
G02*
X11913000Y-10922000I-25000J0D01*
G01*
X11913000Y-10922000D02*
G75*
G02*
X11963000Y-10922000I25000J0D01*
G01*
X12013800Y-8128000D02*
G75*
G02*
X11963800Y-8128000I-25000J0D01*
G01*
X11963800Y-8128000D02*
G75*
G02*
X12013800Y-8128000I25000J0D01*
G01*
X12471000Y-10922000D02*
G75*
G02*
X12421000Y-10922000I-25000J0D01*
G01*
X12421000Y-10922000D02*
G75*
G02*
X12471000Y-10922000I25000J0D01*
G01*
X10236200Y-5893600D02*
X10236200Y-5993600D01*
X10186200Y-5943600D02*
X10286200Y-5943600D01*
X10236200Y-6147600D02*
X10236200Y-6247600D01*
X10186200Y-6197600D02*
X10286200Y-6197600D01*
X10236200Y-6401600D02*
X10236200Y-6501600D01*
X10186200Y-6451600D02*
X10286200Y-6451600D01*
X10236200Y-6655600D02*
X10236200Y-6755600D01*
X10186200Y-6705600D02*
X10286200Y-6705600D01*
X10236200Y-6909600D02*
X10236200Y-7009600D01*
X10186200Y-6959600D02*
X10286200Y-6959600D01*
X10236200Y-7163600D02*
X10236200Y-7263600D01*
X10186200Y-7213600D02*
X10286200Y-7213600D01*
X10236200Y-7417600D02*
X10236200Y-7517600D01*
X10186200Y-7467600D02*
X10286200Y-7467600D01*
X10236200Y-7671600D02*
X10236200Y-7771600D01*
X10186200Y-7721600D02*
X10286200Y-7721600D01*
X10236200Y-7925600D02*
X10236200Y-8025600D01*
X10186200Y-7975600D02*
X10286200Y-7975600D01*
X10236200Y-8179600D02*
X10236200Y-8279600D01*
X10186200Y-8229600D02*
X10286200Y-8229600D01*
X10236200Y-8433600D02*
X10236200Y-8533600D01*
X10186200Y-8483600D02*
X10286200Y-8483600D01*
X10236200Y-8687600D02*
X10236200Y-8787600D01*
X10186200Y-8737600D02*
X10286200Y-8737600D01*
X10236200Y-8941600D02*
X10236200Y-9041600D01*
X10186200Y-8991600D02*
X10286200Y-8991600D01*
X10236200Y-9195600D02*
X10236200Y-9295600D01*
X10186200Y-9245600D02*
X10286200Y-9245600D01*
X10236200Y-9449600D02*
X10236200Y-9549600D01*
X10186200Y-9499600D02*
X10286200Y-9499600D01*
X10236200Y-9703600D02*
X10236200Y-9803600D01*
X10186200Y-9753600D02*
X10286200Y-9753600D01*
X10236200Y-9957600D02*
X10236200Y-10057600D01*
X10186200Y-10007600D02*
X10286200Y-10007600D01*
X10236200Y-10211600D02*
X10236200Y-10311600D01*
X10186200Y-10261600D02*
X10286200Y-10261600D01*
X10259100Y-4061800D02*
X10259100Y-4161800D01*
X10209100Y-4111800D02*
X10309100Y-4111800D01*
X10259100Y-4315800D02*
X10259100Y-4415800D01*
X10209100Y-4365800D02*
X10309100Y-4365800D01*
X10259100Y-4569800D02*
X10259100Y-4669800D01*
X10209100Y-4619800D02*
X10309100Y-4619800D01*
X10259100Y-4823800D02*
X10259100Y-4923800D01*
X10209100Y-4873800D02*
X10309100Y-4873800D01*
X10259100Y-5077800D02*
X10259100Y-5177800D01*
X10209100Y-5127800D02*
X10309100Y-5127800D01*
X10261600Y-10872000D02*
X10261600Y-10972000D01*
X10211600Y-10922000D02*
X10311600Y-10922000D01*
X10261600Y-11126000D02*
X10261600Y-11226000D01*
X10211600Y-11176000D02*
X10311600Y-11176000D01*
X10261600Y-11380000D02*
X10261600Y-11480000D01*
X10211600Y-11430000D02*
X10311600Y-11430000D01*
X11277600Y-4322800D02*
X11277600Y-4422800D01*
X11227600Y-4372800D02*
X11327600Y-4372800D01*
X11277600Y-4572800D02*
X11277600Y-4672800D01*
X11227600Y-4622800D02*
X11327600Y-4622800D01*
X11277600Y-4822800D02*
X11277600Y-4922800D01*
X11227600Y-4872800D02*
X11327600Y-4872800D01*
X11734800Y-10872000D02*
X11734800Y-10972000D01*
X11684800Y-10922000D02*
X11784800Y-10922000D01*
X11734800Y-11126000D02*
X11734800Y-11226000D01*
X11684800Y-11176000D02*
X11784800Y-11176000D01*
X11734800Y-11380000D02*
X11734800Y-11480000D01*
X11684800Y-11430000D02*
X11784800Y-11430000D01*
X12192000Y-10872000D02*
X12192000Y-10972000D01*
X12142000Y-10922000D02*
X12242000Y-10922000D01*
X12192000Y-11126000D02*
X12192000Y-11226000D01*
X12142000Y-11176000D02*
X12242000Y-11176000D01*
X12192000Y-11380000D02*
X12192000Y-11480000D01*
X12142000Y-11430000D02*
X12242000Y-11430000D01*
X12649200Y-10872000D02*
X12649200Y-10972000D01*
X12599200Y-10922000D02*
X12699200Y-10922000D01*
X12649200Y-11126000D02*
X12649200Y-11226000D01*
X12599200Y-11176000D02*
X12699200Y-11176000D01*
X12649200Y-11380000D02*
X12649200Y-11480000D01*
X12599200Y-11430000D02*
X12699200Y-11430000D01*
X12686200Y-5892600D02*
X12686200Y-5992600D01*
X12636200Y-5942600D02*
X12736200Y-5942600D01*
X12686200Y-6146600D02*
X12686200Y-6246600D01*
X12636200Y-6196600D02*
X12736200Y-6196600D01*
X12686200Y-6400600D02*
X12686200Y-6500600D01*
X12636200Y-6450600D02*
X12736200Y-6450600D01*
X12686200Y-6654600D02*
X12686200Y-6754600D01*
X12636200Y-6704600D02*
X12736200Y-6704600D01*
X12686200Y-6908600D02*
X12686200Y-7008600D01*
X12636200Y-6958600D02*
X12736200Y-6958600D01*
X12686200Y-7162600D02*
X12686200Y-7262600D01*
X12636200Y-7212600D02*
X12736200Y-7212600D01*
X12686200Y-7416600D02*
X12686200Y-7516600D01*
X12636200Y-7466600D02*
X12736200Y-7466600D01*
X12686200Y-7670600D02*
X12686200Y-7770600D01*
X12636200Y-7720600D02*
X12736200Y-7720600D01*
X12686200Y-7924600D02*
X12686200Y-8024600D01*
X12636200Y-7974600D02*
X12736200Y-7974600D01*
X12686200Y-8178600D02*
X12686200Y-8278600D01*
X12636200Y-8228600D02*
X12736200Y-8228600D01*
X12686200Y-8432600D02*
X12686200Y-8532600D01*
X12636200Y-8482600D02*
X12736200Y-8482600D01*
X12686200Y-8686600D02*
X12686200Y-8786600D01*
X12636200Y-8736600D02*
X12736200Y-8736600D01*
X12686200Y-8940600D02*
X12686200Y-9040600D01*
X12636200Y-8990600D02*
X12736200Y-8990600D01*
X12686200Y-9194600D02*
X12686200Y-9294600D01*
X12636200Y-9244600D02*
X12736200Y-9244600D01*
X12686200Y-9448600D02*
X12686200Y-9548600D01*
X12636200Y-9498600D02*
X12736200Y-9498600D01*
X12686200Y-9702600D02*
X12686200Y-9802600D01*
X12636200Y-9752600D02*
X12736200Y-9752600D01*
X12686200Y-9956600D02*
X12686200Y-10056600D01*
X12636200Y-10006600D02*
X12736200Y-10006600D01*
X12686200Y-10210600D02*
X12686200Y-10310600D01*
X12636200Y-10260600D02*
X12736200Y-10260600D01*
X12727600Y-4322800D02*
X12727600Y-4422800D01*
X12677600Y-4372800D02*
X12777600Y-4372800D01*
X12727600Y-4822800D02*
X12727600Y-4922800D01*
X12677600Y-4872800D02*
X12777600Y-4872800D01*
D12*
X12101847Y-4037047D02*
X12101847Y-3888553D01*
X11953353Y-3888553D01*
X11953353Y-4037047D01*
X12101847Y-4037047D01*
D10*
X12032600Y-3857800D02*
X12022600Y-3857800D01*
X12022600Y-4067800D02*
G75*
G02*
X12022600Y-3857800I0J105000D01*
G01*
X12022600Y-4067800D02*
X12032600Y-4067800D01*
X12032600Y-4067800D02*
G75*
G03*
X12032600Y-3857800I0J105000D01*
G01*
D12*
X12101847Y-5357047D02*
X12101847Y-5208553D01*
X11953353Y-5208553D01*
X11953353Y-5357047D01*
X12101847Y-5357047D01*
D10*
X12032600Y-5177800D02*
X12022600Y-5177800D01*
X12022600Y-5387800D02*
G75*
G02*
X12022600Y-5177800I0J105000D01*
G01*
X12022600Y-5387800D02*
X12032600Y-5387800D01*
X12032600Y-5387800D02*
G75*
G03*
X12032600Y-5177800I0J105000D01*
G01*
D11*
X10314177Y-12000484D02*
X10314177Y-11800484D01*
X10314177Y-11800484D02*
X10361796Y-11800484D01*
X10361796Y-11800484D02*
X10390367Y-11810008D01*
X10390367Y-11810008D02*
X10409415Y-11829055D01*
X10409415Y-11829055D02*
X10418939Y-11848103D01*
X10418939Y-11848103D02*
X10428463Y-11886198D01*
X10428463Y-11886198D02*
X10428463Y-11914769D01*
X10428463Y-11914769D02*
X10418939Y-11952865D01*
X10418939Y-11952865D02*
X10409415Y-11971912D01*
X10409415Y-11971912D02*
X10390367Y-11990960D01*
X10390367Y-11990960D02*
X10361796Y-12000484D01*
X10361796Y-12000484D02*
X10314177Y-12000484D01*
X10514177Y-12000484D02*
X10514177Y-11867150D01*
X10514177Y-11905246D02*
X10523701Y-11886198D01*
X10523701Y-11886198D02*
X10533224Y-11876674D01*
X10533224Y-11876674D02*
X10552272Y-11867150D01*
X10552272Y-11867150D02*
X10571320Y-11867150D01*
X10637986Y-12000484D02*
X10637986Y-11867150D01*
X10637986Y-11800484D02*
X10628463Y-11810008D01*
X10628463Y-11810008D02*
X10637986Y-11819531D01*
X10637986Y-11819531D02*
X10647510Y-11810008D01*
X10647510Y-11810008D02*
X10637986Y-11800484D01*
X10637986Y-11800484D02*
X10637986Y-11819531D01*
X10761796Y-12000484D02*
X10742748Y-11990960D01*
X10742748Y-11990960D02*
X10733224Y-11971912D01*
X10733224Y-11971912D02*
X10733224Y-11800484D01*
X10866558Y-12000484D02*
X10847510Y-11990960D01*
X10847510Y-11990960D02*
X10837986Y-11971912D01*
X10837986Y-11971912D02*
X10837986Y-11800484D01*
X11095129Y-12000484D02*
X11095129Y-11800484D01*
X11095129Y-11800484D02*
X11161796Y-11943341D01*
X11161796Y-11943341D02*
X11228462Y-11800484D01*
X11228462Y-11800484D02*
X11228462Y-12000484D01*
X11409415Y-12000484D02*
X11409415Y-11895722D01*
X11409415Y-11895722D02*
X11399891Y-11876674D01*
X11399891Y-11876674D02*
X11380843Y-11867150D01*
X11380843Y-11867150D02*
X11342748Y-11867150D01*
X11342748Y-11867150D02*
X11323701Y-11876674D01*
X11409415Y-11990960D02*
X11390367Y-12000484D01*
X11390367Y-12000484D02*
X11342748Y-12000484D01*
X11342748Y-12000484D02*
X11323701Y-11990960D01*
X11323701Y-11990960D02*
X11314177Y-11971912D01*
X11314177Y-11971912D02*
X11314177Y-11952865D01*
X11314177Y-11952865D02*
X11323701Y-11933817D01*
X11323701Y-11933817D02*
X11342748Y-11924293D01*
X11342748Y-11924293D02*
X11390367Y-11924293D01*
X11390367Y-11924293D02*
X11409415Y-11914769D01*
X11504653Y-11867150D02*
X11504653Y-12067150D01*
X11504653Y-11876674D02*
X11523701Y-11867150D01*
X11523701Y-11867150D02*
X11561796Y-11867150D01*
X11561796Y-11867150D02*
X11580843Y-11876674D01*
X11580843Y-11876674D02*
X11590367Y-11886198D01*
X11590367Y-11886198D02*
X11599891Y-11905246D01*
X11599891Y-11905246D02*
X11599891Y-11962388D01*
X11599891Y-11962388D02*
X11590367Y-11981436D01*
X11590367Y-11981436D02*
X11580843Y-11990960D01*
X11580843Y-11990960D02*
X11561796Y-12000484D01*
X11561796Y-12000484D02*
X11523701Y-12000484D01*
X11523701Y-12000484D02*
X11504653Y-11990960D01*
X11685605Y-11981436D02*
X11695129Y-11990960D01*
X11695129Y-11990960D02*
X11685605Y-12000484D01*
X11685605Y-12000484D02*
X11676082Y-11990960D01*
X11676082Y-11990960D02*
X11685605Y-11981436D01*
X11685605Y-11981436D02*
X11685605Y-12000484D01*
X11685605Y-11876674D02*
X11695129Y-11886198D01*
X11695129Y-11886198D02*
X11685605Y-11895722D01*
X11685605Y-11895722D02*
X11676082Y-11886198D01*
X11676082Y-11886198D02*
X11685605Y-11876674D01*
X11685605Y-11876674D02*
X11685605Y-11895722D01*
D10*
X10023400Y-12314000D02*
X10053400Y-12344000D01*
X10053400Y-12314000D02*
X10023400Y-12344000D01*
D11*
X10352272Y-12220484D02*
X10371320Y-12220484D01*
X10371320Y-12220484D02*
X10390367Y-12230008D01*
X10390367Y-12230008D02*
X10399891Y-12239531D01*
X10399891Y-12239531D02*
X10409415Y-12258579D01*
X10409415Y-12258579D02*
X10418939Y-12296674D01*
X10418939Y-12296674D02*
X10418939Y-12344293D01*
X10418939Y-12344293D02*
X10409415Y-12382388D01*
X10409415Y-12382388D02*
X10399891Y-12401436D01*
X10399891Y-12401436D02*
X10390367Y-12410960D01*
X10390367Y-12410960D02*
X10371320Y-12420484D01*
X10371320Y-12420484D02*
X10352272Y-12420484D01*
X10352272Y-12420484D02*
X10333224Y-12410960D01*
X10333224Y-12410960D02*
X10323701Y-12401436D01*
X10323701Y-12401436D02*
X10314177Y-12382388D01*
X10314177Y-12382388D02*
X10304653Y-12344293D01*
X10304653Y-12344293D02*
X10304653Y-12296674D01*
X10304653Y-12296674D02*
X10314177Y-12258579D01*
X10314177Y-12258579D02*
X10323701Y-12239531D01*
X10323701Y-12239531D02*
X10333224Y-12230008D01*
X10333224Y-12230008D02*
X10352272Y-12220484D01*
X10504653Y-12401436D02*
X10514177Y-12410960D01*
X10514177Y-12410960D02*
X10504653Y-12420484D01*
X10504653Y-12420484D02*
X10495129Y-12410960D01*
X10495129Y-12410960D02*
X10504653Y-12401436D01*
X10504653Y-12401436D02*
X10504653Y-12420484D01*
X10580844Y-12220484D02*
X10704653Y-12220484D01*
X10704653Y-12220484D02*
X10637986Y-12296674D01*
X10637986Y-12296674D02*
X10666558Y-12296674D01*
X10666558Y-12296674D02*
X10685605Y-12306198D01*
X10685605Y-12306198D02*
X10695129Y-12315722D01*
X10695129Y-12315722D02*
X10704653Y-12334769D01*
X10704653Y-12334769D02*
X10704653Y-12382388D01*
X10704653Y-12382388D02*
X10695129Y-12401436D01*
X10695129Y-12401436D02*
X10685605Y-12410960D01*
X10685605Y-12410960D02*
X10666558Y-12420484D01*
X10666558Y-12420484D02*
X10609415Y-12420484D01*
X10609415Y-12420484D02*
X10590367Y-12410960D01*
X10590367Y-12410960D02*
X10580844Y-12401436D01*
X10828463Y-12220484D02*
X10847510Y-12220484D01*
X10847510Y-12220484D02*
X10866558Y-12230008D01*
X10866558Y-12230008D02*
X10876082Y-12239531D01*
X10876082Y-12239531D02*
X10885605Y-12258579D01*
X10885605Y-12258579D02*
X10895129Y-12296674D01*
X10895129Y-12296674D02*
X10895129Y-12344293D01*
X10895129Y-12344293D02*
X10885605Y-12382388D01*
X10885605Y-12382388D02*
X10876082Y-12401436D01*
X10876082Y-12401436D02*
X10866558Y-12410960D01*
X10866558Y-12410960D02*
X10847510Y-12420484D01*
X10847510Y-12420484D02*
X10828463Y-12420484D01*
X10828463Y-12420484D02*
X10809415Y-12410960D01*
X10809415Y-12410960D02*
X10799891Y-12401436D01*
X10799891Y-12401436D02*
X10790367Y-12382388D01*
X10790367Y-12382388D02*
X10780844Y-12344293D01*
X10780844Y-12344293D02*
X10780844Y-12296674D01*
X10780844Y-12296674D02*
X10790367Y-12258579D01*
X10790367Y-12258579D02*
X10799891Y-12239531D01*
X10799891Y-12239531D02*
X10809415Y-12230008D01*
X10809415Y-12230008D02*
X10828463Y-12220484D01*
X11018939Y-12220484D02*
X11037986Y-12220484D01*
X11037986Y-12220484D02*
X11057034Y-12230008D01*
X11057034Y-12230008D02*
X11066558Y-12239531D01*
X11066558Y-12239531D02*
X11076082Y-12258579D01*
X11076082Y-12258579D02*
X11085605Y-12296674D01*
X11085605Y-12296674D02*
X11085605Y-12344293D01*
X11085605Y-12344293D02*
X11076082Y-12382388D01*
X11076082Y-12382388D02*
X11066558Y-12401436D01*
X11066558Y-12401436D02*
X11057034Y-12410960D01*
X11057034Y-12410960D02*
X11037986Y-12420484D01*
X11037986Y-12420484D02*
X11018939Y-12420484D01*
X11018939Y-12420484D02*
X10999891Y-12410960D01*
X10999891Y-12410960D02*
X10990367Y-12401436D01*
X10990367Y-12401436D02*
X10980844Y-12382388D01*
X10980844Y-12382388D02*
X10971320Y-12344293D01*
X10971320Y-12344293D02*
X10971320Y-12296674D01*
X10971320Y-12296674D02*
X10980844Y-12258579D01*
X10980844Y-12258579D02*
X10990367Y-12239531D01*
X10990367Y-12239531D02*
X10999891Y-12230008D01*
X10999891Y-12230008D02*
X11018939Y-12220484D01*
X11171320Y-12420484D02*
X11171320Y-12287150D01*
X11171320Y-12306198D02*
X11180844Y-12296674D01*
X11180844Y-12296674D02*
X11199891Y-12287150D01*
X11199891Y-12287150D02*
X11228463Y-12287150D01*
X11228463Y-12287150D02*
X11247510Y-12296674D01*
X11247510Y-12296674D02*
X11257034Y-12315722D01*
X11257034Y-12315722D02*
X11257034Y-12420484D01*
X11257034Y-12315722D02*
X11266558Y-12296674D01*
X11266558Y-12296674D02*
X11285605Y-12287150D01*
X11285605Y-12287150D02*
X11314177Y-12287150D01*
X11314177Y-12287150D02*
X11333224Y-12296674D01*
X11333224Y-12296674D02*
X11342748Y-12315722D01*
X11342748Y-12315722D02*
X11342748Y-12420484D01*
X11437986Y-12420484D02*
X11437986Y-12287150D01*
X11437986Y-12306198D02*
X11447510Y-12296674D01*
X11447510Y-12296674D02*
X11466558Y-12287150D01*
X11466558Y-12287150D02*
X11495129Y-12287150D01*
X11495129Y-12287150D02*
X11514177Y-12296674D01*
X11514177Y-12296674D02*
X11523701Y-12315722D01*
X11523701Y-12315722D02*
X11523701Y-12420484D01*
X11523701Y-12315722D02*
X11533224Y-12296674D01*
X11533224Y-12296674D02*
X11552272Y-12287150D01*
X11552272Y-12287150D02*
X11580843Y-12287150D01*
X11580843Y-12287150D02*
X11599891Y-12296674D01*
X11599891Y-12296674D02*
X11609415Y-12315722D01*
X11609415Y-12315722D02*
X11609415Y-12420484D01*
X11999891Y-12210960D02*
X11828463Y-12468103D01*
X12257034Y-12220484D02*
X12276082Y-12220484D01*
X12276082Y-12220484D02*
X12295129Y-12230008D01*
X12295129Y-12230008D02*
X12304653Y-12239531D01*
X12304653Y-12239531D02*
X12314177Y-12258579D01*
X12314177Y-12258579D02*
X12323701Y-12296674D01*
X12323701Y-12296674D02*
X12323701Y-12344293D01*
X12323701Y-12344293D02*
X12314177Y-12382388D01*
X12314177Y-12382388D02*
X12304653Y-12401436D01*
X12304653Y-12401436D02*
X12295129Y-12410960D01*
X12295129Y-12410960D02*
X12276082Y-12420484D01*
X12276082Y-12420484D02*
X12257034Y-12420484D01*
X12257034Y-12420484D02*
X12237986Y-12410960D01*
X12237986Y-12410960D02*
X12228463Y-12401436D01*
X12228463Y-12401436D02*
X12218939Y-12382388D01*
X12218939Y-12382388D02*
X12209415Y-12344293D01*
X12209415Y-12344293D02*
X12209415Y-12296674D01*
X12209415Y-12296674D02*
X12218939Y-12258579D01*
X12218939Y-12258579D02*
X12228463Y-12239531D01*
X12228463Y-12239531D02*
X12237986Y-12230008D01*
X12237986Y-12230008D02*
X12257034Y-12220484D01*
X12409415Y-12401436D02*
X12418939Y-12410960D01*
X12418939Y-12410960D02*
X12409415Y-12420484D01*
X12409415Y-12420484D02*
X12399891Y-12410960D01*
X12399891Y-12410960D02*
X12409415Y-12401436D01*
X12409415Y-12401436D02*
X12409415Y-12420484D01*
X12542748Y-12220484D02*
X12561796Y-12220484D01*
X12561796Y-12220484D02*
X12580844Y-12230008D01*
X12580844Y-12230008D02*
X12590367Y-12239531D01*
X12590367Y-12239531D02*
X12599891Y-12258579D01*
X12599891Y-12258579D02*
X12609415Y-12296674D01*
X12609415Y-12296674D02*
X12609415Y-12344293D01*
X12609415Y-12344293D02*
X12599891Y-12382388D01*
X12599891Y-12382388D02*
X12590367Y-12401436D01*
X12590367Y-12401436D02*
X12580844Y-12410960D01*
X12580844Y-12410960D02*
X12561796Y-12420484D01*
X12561796Y-12420484D02*
X12542748Y-12420484D01*
X12542748Y-12420484D02*
X12523701Y-12410960D01*
X12523701Y-12410960D02*
X12514177Y-12401436D01*
X12514177Y-12401436D02*
X12504653Y-12382388D01*
X12504653Y-12382388D02*
X12495129Y-12344293D01*
X12495129Y-12344293D02*
X12495129Y-12296674D01*
X12495129Y-12296674D02*
X12504653Y-12258579D01*
X12504653Y-12258579D02*
X12514177Y-12239531D01*
X12514177Y-12239531D02*
X12523701Y-12230008D01*
X12523701Y-12230008D02*
X12542748Y-12220484D01*
X12799891Y-12420484D02*
X12685606Y-12420484D01*
X12742748Y-12420484D02*
X12742748Y-12220484D01*
X12742748Y-12220484D02*
X12723701Y-12249055D01*
X12723701Y-12249055D02*
X12704653Y-12268103D01*
X12704653Y-12268103D02*
X12685606Y-12277627D01*
X12990367Y-12420484D02*
X12876082Y-12420484D01*
X12933225Y-12420484D02*
X12933225Y-12220484D01*
X12933225Y-12220484D02*
X12914177Y-12249055D01*
X12914177Y-12249055D02*
X12895129Y-12268103D01*
X12895129Y-12268103D02*
X12876082Y-12277627D01*
X13104653Y-12306198D02*
X13085606Y-12296674D01*
X13085606Y-12296674D02*
X13076082Y-12287150D01*
X13076082Y-12287150D02*
X13066558Y-12268103D01*
X13066558Y-12268103D02*
X13066558Y-12258579D01*
X13066558Y-12258579D02*
X13076082Y-12239531D01*
X13076082Y-12239531D02*
X13085606Y-12230008D01*
X13085606Y-12230008D02*
X13104653Y-12220484D01*
X13104653Y-12220484D02*
X13142748Y-12220484D01*
X13142748Y-12220484D02*
X13161796Y-12230008D01*
X13161796Y-12230008D02*
X13171320Y-12239531D01*
X13171320Y-12239531D02*
X13180844Y-12258579D01*
X13180844Y-12258579D02*
X13180844Y-12268103D01*
X13180844Y-12268103D02*
X13171320Y-12287150D01*
X13171320Y-12287150D02*
X13161796Y-12296674D01*
X13161796Y-12296674D02*
X13142748Y-12306198D01*
X13142748Y-12306198D02*
X13104653Y-12306198D01*
X13104653Y-12306198D02*
X13085606Y-12315722D01*
X13085606Y-12315722D02*
X13076082Y-12325246D01*
X13076082Y-12325246D02*
X13066558Y-12344293D01*
X13066558Y-12344293D02*
X13066558Y-12382388D01*
X13066558Y-12382388D02*
X13076082Y-12401436D01*
X13076082Y-12401436D02*
X13085606Y-12410960D01*
X13085606Y-12410960D02*
X13104653Y-12420484D01*
X13104653Y-12420484D02*
X13142748Y-12420484D01*
X13142748Y-12420484D02*
X13161796Y-12410960D01*
X13161796Y-12410960D02*
X13171320Y-12401436D01*
X13171320Y-12401436D02*
X13180844Y-12382388D01*
X13180844Y-12382388D02*
X13180844Y-12344293D01*
X13180844Y-12344293D02*
X13171320Y-12325246D01*
X13171320Y-12325246D02*
X13161796Y-12315722D01*
X13161796Y-12315722D02*
X13142748Y-12306198D01*
X13257034Y-12220484D02*
X13257034Y-12258579D01*
X13333225Y-12220484D02*
X13333225Y-12258579D01*
X13628463Y-12496674D02*
X13618939Y-12487150D01*
X13618939Y-12487150D02*
X13599891Y-12458579D01*
X13599891Y-12458579D02*
X13590368Y-12439531D01*
X13590368Y-12439531D02*
X13580844Y-12410960D01*
X13580844Y-12410960D02*
X13571320Y-12363341D01*
X13571320Y-12363341D02*
X13571320Y-12325246D01*
X13571320Y-12325246D02*
X13580844Y-12277627D01*
X13580844Y-12277627D02*
X13590368Y-12249055D01*
X13590368Y-12249055D02*
X13599891Y-12230008D01*
X13599891Y-12230008D02*
X13618939Y-12201436D01*
X13618939Y-12201436D02*
X13628463Y-12191912D01*
X13714177Y-12420484D02*
X13752272Y-12420484D01*
X13752272Y-12420484D02*
X13771320Y-12410960D01*
X13771320Y-12410960D02*
X13780844Y-12401436D01*
X13780844Y-12401436D02*
X13799891Y-12372865D01*
X13799891Y-12372865D02*
X13809415Y-12334769D01*
X13809415Y-12334769D02*
X13809415Y-12258579D01*
X13809415Y-12258579D02*
X13799891Y-12239531D01*
X13799891Y-12239531D02*
X13790368Y-12230008D01*
X13790368Y-12230008D02*
X13771320Y-12220484D01*
X13771320Y-12220484D02*
X13733225Y-12220484D01*
X13733225Y-12220484D02*
X13714177Y-12230008D01*
X13714177Y-12230008D02*
X13704653Y-12239531D01*
X13704653Y-12239531D02*
X13695129Y-12258579D01*
X13695129Y-12258579D02*
X13695129Y-12306198D01*
X13695129Y-12306198D02*
X13704653Y-12325246D01*
X13704653Y-12325246D02*
X13714177Y-12334769D01*
X13714177Y-12334769D02*
X13733225Y-12344293D01*
X13733225Y-12344293D02*
X13771320Y-12344293D01*
X13771320Y-12344293D02*
X13790368Y-12334769D01*
X13790368Y-12334769D02*
X13799891Y-12325246D01*
X13799891Y-12325246D02*
X13809415Y-12306198D01*
X14047510Y-12420484D02*
X14047510Y-12220484D01*
X14133225Y-12420484D02*
X14133225Y-12315722D01*
X14133225Y-12315722D02*
X14123701Y-12296674D01*
X14123701Y-12296674D02*
X14104653Y-12287150D01*
X14104653Y-12287150D02*
X14076082Y-12287150D01*
X14076082Y-12287150D02*
X14057034Y-12296674D01*
X14057034Y-12296674D02*
X14047510Y-12306198D01*
X14257034Y-12420484D02*
X14237987Y-12410960D01*
X14237987Y-12410960D02*
X14228463Y-12401436D01*
X14228463Y-12401436D02*
X14218939Y-12382388D01*
X14218939Y-12382388D02*
X14218939Y-12325246D01*
X14218939Y-12325246D02*
X14228463Y-12306198D01*
X14228463Y-12306198D02*
X14237987Y-12296674D01*
X14237987Y-12296674D02*
X14257034Y-12287150D01*
X14257034Y-12287150D02*
X14285606Y-12287150D01*
X14285606Y-12287150D02*
X14304653Y-12296674D01*
X14304653Y-12296674D02*
X14314177Y-12306198D01*
X14314177Y-12306198D02*
X14323701Y-12325246D01*
X14323701Y-12325246D02*
X14323701Y-12382388D01*
X14323701Y-12382388D02*
X14314177Y-12401436D01*
X14314177Y-12401436D02*
X14304653Y-12410960D01*
X14304653Y-12410960D02*
X14285606Y-12420484D01*
X14285606Y-12420484D02*
X14257034Y-12420484D01*
X14437987Y-12420484D02*
X14418939Y-12410960D01*
X14418939Y-12410960D02*
X14409415Y-12391912D01*
X14409415Y-12391912D02*
X14409415Y-12220484D01*
X14590368Y-12410960D02*
X14571320Y-12420484D01*
X14571320Y-12420484D02*
X14533225Y-12420484D01*
X14533225Y-12420484D02*
X14514177Y-12410960D01*
X14514177Y-12410960D02*
X14504653Y-12391912D01*
X14504653Y-12391912D02*
X14504653Y-12315722D01*
X14504653Y-12315722D02*
X14514177Y-12296674D01*
X14514177Y-12296674D02*
X14533225Y-12287150D01*
X14533225Y-12287150D02*
X14571320Y-12287150D01*
X14571320Y-12287150D02*
X14590368Y-12296674D01*
X14590368Y-12296674D02*
X14599891Y-12315722D01*
X14599891Y-12315722D02*
X14599891Y-12334769D01*
X14599891Y-12334769D02*
X14504653Y-12353817D01*
X14676082Y-12410960D02*
X14695130Y-12420484D01*
X14695130Y-12420484D02*
X14733225Y-12420484D01*
X14733225Y-12420484D02*
X14752272Y-12410960D01*
X14752272Y-12410960D02*
X14761796Y-12391912D01*
X14761796Y-12391912D02*
X14761796Y-12382388D01*
X14761796Y-12382388D02*
X14752272Y-12363341D01*
X14752272Y-12363341D02*
X14733225Y-12353817D01*
X14733225Y-12353817D02*
X14704653Y-12353817D01*
X14704653Y-12353817D02*
X14685606Y-12344293D01*
X14685606Y-12344293D02*
X14676082Y-12325246D01*
X14676082Y-12325246D02*
X14676082Y-12315722D01*
X14676082Y-12315722D02*
X14685606Y-12296674D01*
X14685606Y-12296674D02*
X14704653Y-12287150D01*
X14704653Y-12287150D02*
X14733225Y-12287150D01*
X14733225Y-12287150D02*
X14752272Y-12296674D01*
X14828463Y-12496674D02*
X14837987Y-12487150D01*
X14837987Y-12487150D02*
X14857034Y-12458579D01*
X14857034Y-12458579D02*
X14866558Y-12439531D01*
X14866558Y-12439531D02*
X14876082Y-12410960D01*
X14876082Y-12410960D02*
X14885606Y-12363341D01*
X14885606Y-12363341D02*
X14885606Y-12325246D01*
X14885606Y-12325246D02*
X14876082Y-12277627D01*
X14876082Y-12277627D02*
X14866558Y-12249055D01*
X14866558Y-12249055D02*
X14857034Y-12230008D01*
X14857034Y-12230008D02*
X14837987Y-12201436D01*
X14837987Y-12201436D02*
X14828463Y-12191912D01*
D10*
X10053400Y-12593000D02*
G75*
G02*
X10003400Y-12593000I-25000J0D01*
G01*
X10003400Y-12593000D02*
G75*
G02*
X10053400Y-12593000I25000J0D01*
G01*
D11*
X10352272Y-12484484D02*
X10371320Y-12484484D01*
X10371320Y-12484484D02*
X10390367Y-12494008D01*
X10390367Y-12494008D02*
X10399891Y-12503531D01*
X10399891Y-12503531D02*
X10409415Y-12522579D01*
X10409415Y-12522579D02*
X10418939Y-12560674D01*
X10418939Y-12560674D02*
X10418939Y-12608293D01*
X10418939Y-12608293D02*
X10409415Y-12646388D01*
X10409415Y-12646388D02*
X10399891Y-12665436D01*
X10399891Y-12665436D02*
X10390367Y-12674960D01*
X10390367Y-12674960D02*
X10371320Y-12684484D01*
X10371320Y-12684484D02*
X10352272Y-12684484D01*
X10352272Y-12684484D02*
X10333224Y-12674960D01*
X10333224Y-12674960D02*
X10323701Y-12665436D01*
X10323701Y-12665436D02*
X10314177Y-12646388D01*
X10314177Y-12646388D02*
X10304653Y-12608293D01*
X10304653Y-12608293D02*
X10304653Y-12560674D01*
X10304653Y-12560674D02*
X10314177Y-12522579D01*
X10314177Y-12522579D02*
X10323701Y-12503531D01*
X10323701Y-12503531D02*
X10333224Y-12494008D01*
X10333224Y-12494008D02*
X10352272Y-12484484D01*
X10504653Y-12665436D02*
X10514177Y-12674960D01*
X10514177Y-12674960D02*
X10504653Y-12684484D01*
X10504653Y-12684484D02*
X10495129Y-12674960D01*
X10495129Y-12674960D02*
X10504653Y-12665436D01*
X10504653Y-12665436D02*
X10504653Y-12684484D01*
X10695129Y-12484484D02*
X10599891Y-12484484D01*
X10599891Y-12484484D02*
X10590367Y-12579722D01*
X10590367Y-12579722D02*
X10599891Y-12570198D01*
X10599891Y-12570198D02*
X10618939Y-12560674D01*
X10618939Y-12560674D02*
X10666558Y-12560674D01*
X10666558Y-12560674D02*
X10685605Y-12570198D01*
X10685605Y-12570198D02*
X10695129Y-12579722D01*
X10695129Y-12579722D02*
X10704653Y-12598769D01*
X10704653Y-12598769D02*
X10704653Y-12646388D01*
X10704653Y-12646388D02*
X10695129Y-12665436D01*
X10695129Y-12665436D02*
X10685605Y-12674960D01*
X10685605Y-12674960D02*
X10666558Y-12684484D01*
X10666558Y-12684484D02*
X10618939Y-12684484D01*
X10618939Y-12684484D02*
X10599891Y-12674960D01*
X10599891Y-12674960D02*
X10590367Y-12665436D01*
X10828463Y-12484484D02*
X10847510Y-12484484D01*
X10847510Y-12484484D02*
X10866558Y-12494008D01*
X10866558Y-12494008D02*
X10876082Y-12503531D01*
X10876082Y-12503531D02*
X10885605Y-12522579D01*
X10885605Y-12522579D02*
X10895129Y-12560674D01*
X10895129Y-12560674D02*
X10895129Y-12608293D01*
X10895129Y-12608293D02*
X10885605Y-12646388D01*
X10885605Y-12646388D02*
X10876082Y-12665436D01*
X10876082Y-12665436D02*
X10866558Y-12674960D01*
X10866558Y-12674960D02*
X10847510Y-12684484D01*
X10847510Y-12684484D02*
X10828463Y-12684484D01*
X10828463Y-12684484D02*
X10809415Y-12674960D01*
X10809415Y-12674960D02*
X10799891Y-12665436D01*
X10799891Y-12665436D02*
X10790367Y-12646388D01*
X10790367Y-12646388D02*
X10780844Y-12608293D01*
X10780844Y-12608293D02*
X10780844Y-12560674D01*
X10780844Y-12560674D02*
X10790367Y-12522579D01*
X10790367Y-12522579D02*
X10799891Y-12503531D01*
X10799891Y-12503531D02*
X10809415Y-12494008D01*
X10809415Y-12494008D02*
X10828463Y-12484484D01*
X11018939Y-12484484D02*
X11037986Y-12484484D01*
X11037986Y-12484484D02*
X11057034Y-12494008D01*
X11057034Y-12494008D02*
X11066558Y-12503531D01*
X11066558Y-12503531D02*
X11076082Y-12522579D01*
X11076082Y-12522579D02*
X11085605Y-12560674D01*
X11085605Y-12560674D02*
X11085605Y-12608293D01*
X11085605Y-12608293D02*
X11076082Y-12646388D01*
X11076082Y-12646388D02*
X11066558Y-12665436D01*
X11066558Y-12665436D02*
X11057034Y-12674960D01*
X11057034Y-12674960D02*
X11037986Y-12684484D01*
X11037986Y-12684484D02*
X11018939Y-12684484D01*
X11018939Y-12684484D02*
X10999891Y-12674960D01*
X10999891Y-12674960D02*
X10990367Y-12665436D01*
X10990367Y-12665436D02*
X10980844Y-12646388D01*
X10980844Y-12646388D02*
X10971320Y-12608293D01*
X10971320Y-12608293D02*
X10971320Y-12560674D01*
X10971320Y-12560674D02*
X10980844Y-12522579D01*
X10980844Y-12522579D02*
X10990367Y-12503531D01*
X10990367Y-12503531D02*
X10999891Y-12494008D01*
X10999891Y-12494008D02*
X11018939Y-12484484D01*
X11171320Y-12684484D02*
X11171320Y-12551150D01*
X11171320Y-12570198D02*
X11180844Y-12560674D01*
X11180844Y-12560674D02*
X11199891Y-12551150D01*
X11199891Y-12551150D02*
X11228463Y-12551150D01*
X11228463Y-12551150D02*
X11247510Y-12560674D01*
X11247510Y-12560674D02*
X11257034Y-12579722D01*
X11257034Y-12579722D02*
X11257034Y-12684484D01*
X11257034Y-12579722D02*
X11266558Y-12560674D01*
X11266558Y-12560674D02*
X11285605Y-12551150D01*
X11285605Y-12551150D02*
X11314177Y-12551150D01*
X11314177Y-12551150D02*
X11333224Y-12560674D01*
X11333224Y-12560674D02*
X11342748Y-12579722D01*
X11342748Y-12579722D02*
X11342748Y-12684484D01*
X11437986Y-12684484D02*
X11437986Y-12551150D01*
X11437986Y-12570198D02*
X11447510Y-12560674D01*
X11447510Y-12560674D02*
X11466558Y-12551150D01*
X11466558Y-12551150D02*
X11495129Y-12551150D01*
X11495129Y-12551150D02*
X11514177Y-12560674D01*
X11514177Y-12560674D02*
X11523701Y-12579722D01*
X11523701Y-12579722D02*
X11523701Y-12684484D01*
X11523701Y-12579722D02*
X11533224Y-12560674D01*
X11533224Y-12560674D02*
X11552272Y-12551150D01*
X11552272Y-12551150D02*
X11580843Y-12551150D01*
X11580843Y-12551150D02*
X11599891Y-12560674D01*
X11599891Y-12560674D02*
X11609415Y-12579722D01*
X11609415Y-12579722D02*
X11609415Y-12684484D01*
X11999891Y-12474960D02*
X11828463Y-12732103D01*
X12257034Y-12484484D02*
X12276082Y-12484484D01*
X12276082Y-12484484D02*
X12295129Y-12494008D01*
X12295129Y-12494008D02*
X12304653Y-12503531D01*
X12304653Y-12503531D02*
X12314177Y-12522579D01*
X12314177Y-12522579D02*
X12323701Y-12560674D01*
X12323701Y-12560674D02*
X12323701Y-12608293D01*
X12323701Y-12608293D02*
X12314177Y-12646388D01*
X12314177Y-12646388D02*
X12304653Y-12665436D01*
X12304653Y-12665436D02*
X12295129Y-12674960D01*
X12295129Y-12674960D02*
X12276082Y-12684484D01*
X12276082Y-12684484D02*
X12257034Y-12684484D01*
X12257034Y-12684484D02*
X12237986Y-12674960D01*
X12237986Y-12674960D02*
X12228463Y-12665436D01*
X12228463Y-12665436D02*
X12218939Y-12646388D01*
X12218939Y-12646388D02*
X12209415Y-12608293D01*
X12209415Y-12608293D02*
X12209415Y-12560674D01*
X12209415Y-12560674D02*
X12218939Y-12522579D01*
X12218939Y-12522579D02*
X12228463Y-12503531D01*
X12228463Y-12503531D02*
X12237986Y-12494008D01*
X12237986Y-12494008D02*
X12257034Y-12484484D01*
X12409415Y-12665436D02*
X12418939Y-12674960D01*
X12418939Y-12674960D02*
X12409415Y-12684484D01*
X12409415Y-12684484D02*
X12399891Y-12674960D01*
X12399891Y-12674960D02*
X12409415Y-12665436D01*
X12409415Y-12665436D02*
X12409415Y-12684484D01*
X12542748Y-12484484D02*
X12561796Y-12484484D01*
X12561796Y-12484484D02*
X12580844Y-12494008D01*
X12580844Y-12494008D02*
X12590367Y-12503531D01*
X12590367Y-12503531D02*
X12599891Y-12522579D01*
X12599891Y-12522579D02*
X12609415Y-12560674D01*
X12609415Y-12560674D02*
X12609415Y-12608293D01*
X12609415Y-12608293D02*
X12599891Y-12646388D01*
X12599891Y-12646388D02*
X12590367Y-12665436D01*
X12590367Y-12665436D02*
X12580844Y-12674960D01*
X12580844Y-12674960D02*
X12561796Y-12684484D01*
X12561796Y-12684484D02*
X12542748Y-12684484D01*
X12542748Y-12684484D02*
X12523701Y-12674960D01*
X12523701Y-12674960D02*
X12514177Y-12665436D01*
X12514177Y-12665436D02*
X12504653Y-12646388D01*
X12504653Y-12646388D02*
X12495129Y-12608293D01*
X12495129Y-12608293D02*
X12495129Y-12560674D01*
X12495129Y-12560674D02*
X12504653Y-12522579D01*
X12504653Y-12522579D02*
X12514177Y-12503531D01*
X12514177Y-12503531D02*
X12523701Y-12494008D01*
X12523701Y-12494008D02*
X12542748Y-12484484D01*
X12799891Y-12684484D02*
X12685606Y-12684484D01*
X12742748Y-12684484D02*
X12742748Y-12484484D01*
X12742748Y-12484484D02*
X12723701Y-12513055D01*
X12723701Y-12513055D02*
X12704653Y-12532103D01*
X12704653Y-12532103D02*
X12685606Y-12541627D01*
X12895129Y-12684484D02*
X12933225Y-12684484D01*
X12933225Y-12684484D02*
X12952272Y-12674960D01*
X12952272Y-12674960D02*
X12961796Y-12665436D01*
X12961796Y-12665436D02*
X12980844Y-12636865D01*
X12980844Y-12636865D02*
X12990367Y-12598769D01*
X12990367Y-12598769D02*
X12990367Y-12522579D01*
X12990367Y-12522579D02*
X12980844Y-12503531D01*
X12980844Y-12503531D02*
X12971320Y-12494008D01*
X12971320Y-12494008D02*
X12952272Y-12484484D01*
X12952272Y-12484484D02*
X12914177Y-12484484D01*
X12914177Y-12484484D02*
X12895129Y-12494008D01*
X12895129Y-12494008D02*
X12885606Y-12503531D01*
X12885606Y-12503531D02*
X12876082Y-12522579D01*
X12876082Y-12522579D02*
X12876082Y-12570198D01*
X12876082Y-12570198D02*
X12885606Y-12589246D01*
X12885606Y-12589246D02*
X12895129Y-12598769D01*
X12895129Y-12598769D02*
X12914177Y-12608293D01*
X12914177Y-12608293D02*
X12952272Y-12608293D01*
X12952272Y-12608293D02*
X12971320Y-12598769D01*
X12971320Y-12598769D02*
X12980844Y-12589246D01*
X12980844Y-12589246D02*
X12990367Y-12570198D01*
X13057034Y-12484484D02*
X13190367Y-12484484D01*
X13190367Y-12484484D02*
X13104653Y-12684484D01*
X13257034Y-12484484D02*
X13257034Y-12522579D01*
X13333225Y-12484484D02*
X13333225Y-12522579D01*
X13628463Y-12760674D02*
X13618939Y-12751150D01*
X13618939Y-12751150D02*
X13599891Y-12722579D01*
X13599891Y-12722579D02*
X13590368Y-12703531D01*
X13590368Y-12703531D02*
X13580844Y-12674960D01*
X13580844Y-12674960D02*
X13571320Y-12627341D01*
X13571320Y-12627341D02*
X13571320Y-12589246D01*
X13571320Y-12589246D02*
X13580844Y-12541627D01*
X13580844Y-12541627D02*
X13590368Y-12513055D01*
X13590368Y-12513055D02*
X13599891Y-12494008D01*
X13599891Y-12494008D02*
X13618939Y-12465436D01*
X13618939Y-12465436D02*
X13628463Y-12455912D01*
X13790368Y-12551150D02*
X13790368Y-12684484D01*
X13742748Y-12474960D02*
X13695129Y-12617817D01*
X13695129Y-12617817D02*
X13818939Y-12617817D01*
X13990368Y-12484484D02*
X13895129Y-12484484D01*
X13895129Y-12484484D02*
X13885606Y-12579722D01*
X13885606Y-12579722D02*
X13895129Y-12570198D01*
X13895129Y-12570198D02*
X13914177Y-12560674D01*
X13914177Y-12560674D02*
X13961796Y-12560674D01*
X13961796Y-12560674D02*
X13980844Y-12570198D01*
X13980844Y-12570198D02*
X13990368Y-12579722D01*
X13990368Y-12579722D02*
X13999891Y-12598769D01*
X13999891Y-12598769D02*
X13999891Y-12646388D01*
X13999891Y-12646388D02*
X13990368Y-12665436D01*
X13990368Y-12665436D02*
X13980844Y-12674960D01*
X13980844Y-12674960D02*
X13961796Y-12684484D01*
X13961796Y-12684484D02*
X13914177Y-12684484D01*
X13914177Y-12684484D02*
X13895129Y-12674960D01*
X13895129Y-12674960D02*
X13885606Y-12665436D01*
X14237987Y-12684484D02*
X14237987Y-12484484D01*
X14323701Y-12684484D02*
X14323701Y-12579722D01*
X14323701Y-12579722D02*
X14314177Y-12560674D01*
X14314177Y-12560674D02*
X14295130Y-12551150D01*
X14295130Y-12551150D02*
X14266558Y-12551150D01*
X14266558Y-12551150D02*
X14247510Y-12560674D01*
X14247510Y-12560674D02*
X14237987Y-12570198D01*
X14447510Y-12684484D02*
X14428463Y-12674960D01*
X14428463Y-12674960D02*
X14418939Y-12665436D01*
X14418939Y-12665436D02*
X14409415Y-12646388D01*
X14409415Y-12646388D02*
X14409415Y-12589246D01*
X14409415Y-12589246D02*
X14418939Y-12570198D01*
X14418939Y-12570198D02*
X14428463Y-12560674D01*
X14428463Y-12560674D02*
X14447510Y-12551150D01*
X14447510Y-12551150D02*
X14476082Y-12551150D01*
X14476082Y-12551150D02*
X14495130Y-12560674D01*
X14495130Y-12560674D02*
X14504653Y-12570198D01*
X14504653Y-12570198D02*
X14514177Y-12589246D01*
X14514177Y-12589246D02*
X14514177Y-12646388D01*
X14514177Y-12646388D02*
X14504653Y-12665436D01*
X14504653Y-12665436D02*
X14495130Y-12674960D01*
X14495130Y-12674960D02*
X14476082Y-12684484D01*
X14476082Y-12684484D02*
X14447510Y-12684484D01*
X14628463Y-12684484D02*
X14609415Y-12674960D01*
X14609415Y-12674960D02*
X14599891Y-12655912D01*
X14599891Y-12655912D02*
X14599891Y-12484484D01*
X14780844Y-12674960D02*
X14761796Y-12684484D01*
X14761796Y-12684484D02*
X14723701Y-12684484D01*
X14723701Y-12684484D02*
X14704653Y-12674960D01*
X14704653Y-12674960D02*
X14695130Y-12655912D01*
X14695130Y-12655912D02*
X14695130Y-12579722D01*
X14695130Y-12579722D02*
X14704653Y-12560674D01*
X14704653Y-12560674D02*
X14723701Y-12551150D01*
X14723701Y-12551150D02*
X14761796Y-12551150D01*
X14761796Y-12551150D02*
X14780844Y-12560674D01*
X14780844Y-12560674D02*
X14790368Y-12579722D01*
X14790368Y-12579722D02*
X14790368Y-12598769D01*
X14790368Y-12598769D02*
X14695130Y-12617817D01*
X14866558Y-12674960D02*
X14885606Y-12684484D01*
X14885606Y-12684484D02*
X14923701Y-12684484D01*
X14923701Y-12684484D02*
X14942749Y-12674960D01*
X14942749Y-12674960D02*
X14952272Y-12655912D01*
X14952272Y-12655912D02*
X14952272Y-12646388D01*
X14952272Y-12646388D02*
X14942749Y-12627341D01*
X14942749Y-12627341D02*
X14923701Y-12617817D01*
X14923701Y-12617817D02*
X14895130Y-12617817D01*
X14895130Y-12617817D02*
X14876082Y-12608293D01*
X14876082Y-12608293D02*
X14866558Y-12589246D01*
X14866558Y-12589246D02*
X14866558Y-12579722D01*
X14866558Y-12579722D02*
X14876082Y-12560674D01*
X14876082Y-12560674D02*
X14895130Y-12551150D01*
X14895130Y-12551150D02*
X14923701Y-12551150D01*
X14923701Y-12551150D02*
X14942749Y-12560674D01*
X15018939Y-12760674D02*
X15028463Y-12751150D01*
X15028463Y-12751150D02*
X15047511Y-12722579D01*
X15047511Y-12722579D02*
X15057034Y-12703531D01*
X15057034Y-12703531D02*
X15066558Y-12674960D01*
X15066558Y-12674960D02*
X15076082Y-12627341D01*
X15076082Y-12627341D02*
X15076082Y-12589246D01*
X15076082Y-12589246D02*
X15066558Y-12541627D01*
X15066558Y-12541627D02*
X15057034Y-12513055D01*
X15057034Y-12513055D02*
X15047511Y-12494008D01*
X15047511Y-12494008D02*
X15028463Y-12465436D01*
X15028463Y-12465436D02*
X15018939Y-12455912D01*
D10*
X10003400Y-12807000D02*
X10003400Y-12907000D01*
X9953400Y-12857000D02*
X10053400Y-12857000D01*
D11*
X10418939Y-12948484D02*
X10304653Y-12948484D01*
X10361796Y-12948484D02*
X10361796Y-12748484D01*
X10361796Y-12748484D02*
X10342748Y-12777055D01*
X10342748Y-12777055D02*
X10323701Y-12796103D01*
X10323701Y-12796103D02*
X10304653Y-12805627D01*
X10504653Y-12929436D02*
X10514177Y-12938960D01*
X10514177Y-12938960D02*
X10504653Y-12948484D01*
X10504653Y-12948484D02*
X10495129Y-12938960D01*
X10495129Y-12938960D02*
X10504653Y-12929436D01*
X10504653Y-12929436D02*
X10504653Y-12948484D01*
X10637986Y-12748484D02*
X10657034Y-12748484D01*
X10657034Y-12748484D02*
X10676082Y-12758008D01*
X10676082Y-12758008D02*
X10685605Y-12767531D01*
X10685605Y-12767531D02*
X10695129Y-12786579D01*
X10695129Y-12786579D02*
X10704653Y-12824674D01*
X10704653Y-12824674D02*
X10704653Y-12872293D01*
X10704653Y-12872293D02*
X10695129Y-12910388D01*
X10695129Y-12910388D02*
X10685605Y-12929436D01*
X10685605Y-12929436D02*
X10676082Y-12938960D01*
X10676082Y-12938960D02*
X10657034Y-12948484D01*
X10657034Y-12948484D02*
X10637986Y-12948484D01*
X10637986Y-12948484D02*
X10618939Y-12938960D01*
X10618939Y-12938960D02*
X10609415Y-12929436D01*
X10609415Y-12929436D02*
X10599891Y-12910388D01*
X10599891Y-12910388D02*
X10590367Y-12872293D01*
X10590367Y-12872293D02*
X10590367Y-12824674D01*
X10590367Y-12824674D02*
X10599891Y-12786579D01*
X10599891Y-12786579D02*
X10609415Y-12767531D01*
X10609415Y-12767531D02*
X10618939Y-12758008D01*
X10618939Y-12758008D02*
X10637986Y-12748484D01*
X10828463Y-12748484D02*
X10847510Y-12748484D01*
X10847510Y-12748484D02*
X10866558Y-12758008D01*
X10866558Y-12758008D02*
X10876082Y-12767531D01*
X10876082Y-12767531D02*
X10885605Y-12786579D01*
X10885605Y-12786579D02*
X10895129Y-12824674D01*
X10895129Y-12824674D02*
X10895129Y-12872293D01*
X10895129Y-12872293D02*
X10885605Y-12910388D01*
X10885605Y-12910388D02*
X10876082Y-12929436D01*
X10876082Y-12929436D02*
X10866558Y-12938960D01*
X10866558Y-12938960D02*
X10847510Y-12948484D01*
X10847510Y-12948484D02*
X10828463Y-12948484D01*
X10828463Y-12948484D02*
X10809415Y-12938960D01*
X10809415Y-12938960D02*
X10799891Y-12929436D01*
X10799891Y-12929436D02*
X10790367Y-12910388D01*
X10790367Y-12910388D02*
X10780844Y-12872293D01*
X10780844Y-12872293D02*
X10780844Y-12824674D01*
X10780844Y-12824674D02*
X10790367Y-12786579D01*
X10790367Y-12786579D02*
X10799891Y-12767531D01*
X10799891Y-12767531D02*
X10809415Y-12758008D01*
X10809415Y-12758008D02*
X10828463Y-12748484D01*
X11018939Y-12748484D02*
X11037986Y-12748484D01*
X11037986Y-12748484D02*
X11057034Y-12758008D01*
X11057034Y-12758008D02*
X11066558Y-12767531D01*
X11066558Y-12767531D02*
X11076082Y-12786579D01*
X11076082Y-12786579D02*
X11085605Y-12824674D01*
X11085605Y-12824674D02*
X11085605Y-12872293D01*
X11085605Y-12872293D02*
X11076082Y-12910388D01*
X11076082Y-12910388D02*
X11066558Y-12929436D01*
X11066558Y-12929436D02*
X11057034Y-12938960D01*
X11057034Y-12938960D02*
X11037986Y-12948484D01*
X11037986Y-12948484D02*
X11018939Y-12948484D01*
X11018939Y-12948484D02*
X10999891Y-12938960D01*
X10999891Y-12938960D02*
X10990367Y-12929436D01*
X10990367Y-12929436D02*
X10980844Y-12910388D01*
X10980844Y-12910388D02*
X10971320Y-12872293D01*
X10971320Y-12872293D02*
X10971320Y-12824674D01*
X10971320Y-12824674D02*
X10980844Y-12786579D01*
X10980844Y-12786579D02*
X10990367Y-12767531D01*
X10990367Y-12767531D02*
X10999891Y-12758008D01*
X10999891Y-12758008D02*
X11018939Y-12748484D01*
X11171320Y-12948484D02*
X11171320Y-12815150D01*
X11171320Y-12834198D02*
X11180844Y-12824674D01*
X11180844Y-12824674D02*
X11199891Y-12815150D01*
X11199891Y-12815150D02*
X11228463Y-12815150D01*
X11228463Y-12815150D02*
X11247510Y-12824674D01*
X11247510Y-12824674D02*
X11257034Y-12843722D01*
X11257034Y-12843722D02*
X11257034Y-12948484D01*
X11257034Y-12843722D02*
X11266558Y-12824674D01*
X11266558Y-12824674D02*
X11285605Y-12815150D01*
X11285605Y-12815150D02*
X11314177Y-12815150D01*
X11314177Y-12815150D02*
X11333224Y-12824674D01*
X11333224Y-12824674D02*
X11342748Y-12843722D01*
X11342748Y-12843722D02*
X11342748Y-12948484D01*
X11437986Y-12948484D02*
X11437986Y-12815150D01*
X11437986Y-12834198D02*
X11447510Y-12824674D01*
X11447510Y-12824674D02*
X11466558Y-12815150D01*
X11466558Y-12815150D02*
X11495129Y-12815150D01*
X11495129Y-12815150D02*
X11514177Y-12824674D01*
X11514177Y-12824674D02*
X11523701Y-12843722D01*
X11523701Y-12843722D02*
X11523701Y-12948484D01*
X11523701Y-12843722D02*
X11533224Y-12824674D01*
X11533224Y-12824674D02*
X11552272Y-12815150D01*
X11552272Y-12815150D02*
X11580843Y-12815150D01*
X11580843Y-12815150D02*
X11599891Y-12824674D01*
X11599891Y-12824674D02*
X11609415Y-12843722D01*
X11609415Y-12843722D02*
X11609415Y-12948484D01*
X11999891Y-12738960D02*
X11828463Y-12996103D01*
X12257034Y-12748484D02*
X12276082Y-12748484D01*
X12276082Y-12748484D02*
X12295129Y-12758008D01*
X12295129Y-12758008D02*
X12304653Y-12767531D01*
X12304653Y-12767531D02*
X12314177Y-12786579D01*
X12314177Y-12786579D02*
X12323701Y-12824674D01*
X12323701Y-12824674D02*
X12323701Y-12872293D01*
X12323701Y-12872293D02*
X12314177Y-12910388D01*
X12314177Y-12910388D02*
X12304653Y-12929436D01*
X12304653Y-12929436D02*
X12295129Y-12938960D01*
X12295129Y-12938960D02*
X12276082Y-12948484D01*
X12276082Y-12948484D02*
X12257034Y-12948484D01*
X12257034Y-12948484D02*
X12237986Y-12938960D01*
X12237986Y-12938960D02*
X12228463Y-12929436D01*
X12228463Y-12929436D02*
X12218939Y-12910388D01*
X12218939Y-12910388D02*
X12209415Y-12872293D01*
X12209415Y-12872293D02*
X12209415Y-12824674D01*
X12209415Y-12824674D02*
X12218939Y-12786579D01*
X12218939Y-12786579D02*
X12228463Y-12767531D01*
X12228463Y-12767531D02*
X12237986Y-12758008D01*
X12237986Y-12758008D02*
X12257034Y-12748484D01*
X12409415Y-12929436D02*
X12418939Y-12938960D01*
X12418939Y-12938960D02*
X12409415Y-12948484D01*
X12409415Y-12948484D02*
X12399891Y-12938960D01*
X12399891Y-12938960D02*
X12409415Y-12929436D01*
X12409415Y-12929436D02*
X12409415Y-12948484D01*
X12542748Y-12748484D02*
X12561796Y-12748484D01*
X12561796Y-12748484D02*
X12580844Y-12758008D01*
X12580844Y-12758008D02*
X12590367Y-12767531D01*
X12590367Y-12767531D02*
X12599891Y-12786579D01*
X12599891Y-12786579D02*
X12609415Y-12824674D01*
X12609415Y-12824674D02*
X12609415Y-12872293D01*
X12609415Y-12872293D02*
X12599891Y-12910388D01*
X12599891Y-12910388D02*
X12590367Y-12929436D01*
X12590367Y-12929436D02*
X12580844Y-12938960D01*
X12580844Y-12938960D02*
X12561796Y-12948484D01*
X12561796Y-12948484D02*
X12542748Y-12948484D01*
X12542748Y-12948484D02*
X12523701Y-12938960D01*
X12523701Y-12938960D02*
X12514177Y-12929436D01*
X12514177Y-12929436D02*
X12504653Y-12910388D01*
X12504653Y-12910388D02*
X12495129Y-12872293D01*
X12495129Y-12872293D02*
X12495129Y-12824674D01*
X12495129Y-12824674D02*
X12504653Y-12786579D01*
X12504653Y-12786579D02*
X12514177Y-12767531D01*
X12514177Y-12767531D02*
X12523701Y-12758008D01*
X12523701Y-12758008D02*
X12542748Y-12748484D01*
X12676082Y-12748484D02*
X12799891Y-12748484D01*
X12799891Y-12748484D02*
X12733225Y-12824674D01*
X12733225Y-12824674D02*
X12761796Y-12824674D01*
X12761796Y-12824674D02*
X12780844Y-12834198D01*
X12780844Y-12834198D02*
X12790367Y-12843722D01*
X12790367Y-12843722D02*
X12799891Y-12862769D01*
X12799891Y-12862769D02*
X12799891Y-12910388D01*
X12799891Y-12910388D02*
X12790367Y-12929436D01*
X12790367Y-12929436D02*
X12780844Y-12938960D01*
X12780844Y-12938960D02*
X12761796Y-12948484D01*
X12761796Y-12948484D02*
X12704653Y-12948484D01*
X12704653Y-12948484D02*
X12685606Y-12938960D01*
X12685606Y-12938960D02*
X12676082Y-12929436D01*
X12895129Y-12948484D02*
X12933225Y-12948484D01*
X12933225Y-12948484D02*
X12952272Y-12938960D01*
X12952272Y-12938960D02*
X12961796Y-12929436D01*
X12961796Y-12929436D02*
X12980844Y-12900865D01*
X12980844Y-12900865D02*
X12990367Y-12862769D01*
X12990367Y-12862769D02*
X12990367Y-12786579D01*
X12990367Y-12786579D02*
X12980844Y-12767531D01*
X12980844Y-12767531D02*
X12971320Y-12758008D01*
X12971320Y-12758008D02*
X12952272Y-12748484D01*
X12952272Y-12748484D02*
X12914177Y-12748484D01*
X12914177Y-12748484D02*
X12895129Y-12758008D01*
X12895129Y-12758008D02*
X12885606Y-12767531D01*
X12885606Y-12767531D02*
X12876082Y-12786579D01*
X12876082Y-12786579D02*
X12876082Y-12834198D01*
X12876082Y-12834198D02*
X12885606Y-12853246D01*
X12885606Y-12853246D02*
X12895129Y-12862769D01*
X12895129Y-12862769D02*
X12914177Y-12872293D01*
X12914177Y-12872293D02*
X12952272Y-12872293D01*
X12952272Y-12872293D02*
X12971320Y-12862769D01*
X12971320Y-12862769D02*
X12980844Y-12853246D01*
X12980844Y-12853246D02*
X12990367Y-12834198D01*
X13161796Y-12815150D02*
X13161796Y-12948484D01*
X13114177Y-12738960D02*
X13066558Y-12881817D01*
X13066558Y-12881817D02*
X13190367Y-12881817D01*
X13257034Y-12748484D02*
X13257034Y-12786579D01*
X13333225Y-12748484D02*
X13333225Y-12786579D01*
X13628463Y-13024674D02*
X13618939Y-13015150D01*
X13618939Y-13015150D02*
X13599891Y-12986579D01*
X13599891Y-12986579D02*
X13590368Y-12967531D01*
X13590368Y-12967531D02*
X13580844Y-12938960D01*
X13580844Y-12938960D02*
X13571320Y-12891341D01*
X13571320Y-12891341D02*
X13571320Y-12853246D01*
X13571320Y-12853246D02*
X13580844Y-12805627D01*
X13580844Y-12805627D02*
X13590368Y-12777055D01*
X13590368Y-12777055D02*
X13599891Y-12758008D01*
X13599891Y-12758008D02*
X13618939Y-12729436D01*
X13618939Y-12729436D02*
X13628463Y-12719912D01*
X13799891Y-12748484D02*
X13704653Y-12748484D01*
X13704653Y-12748484D02*
X13695129Y-12843722D01*
X13695129Y-12843722D02*
X13704653Y-12834198D01*
X13704653Y-12834198D02*
X13723701Y-12824674D01*
X13723701Y-12824674D02*
X13771320Y-12824674D01*
X13771320Y-12824674D02*
X13790368Y-12834198D01*
X13790368Y-12834198D02*
X13799891Y-12843722D01*
X13799891Y-12843722D02*
X13809415Y-12862769D01*
X13809415Y-12862769D02*
X13809415Y-12910388D01*
X13809415Y-12910388D02*
X13799891Y-12929436D01*
X13799891Y-12929436D02*
X13790368Y-12938960D01*
X13790368Y-12938960D02*
X13771320Y-12948484D01*
X13771320Y-12948484D02*
X13723701Y-12948484D01*
X13723701Y-12948484D02*
X13704653Y-12938960D01*
X13704653Y-12938960D02*
X13695129Y-12929436D01*
X13923701Y-12834198D02*
X13904653Y-12824674D01*
X13904653Y-12824674D02*
X13895129Y-12815150D01*
X13895129Y-12815150D02*
X13885606Y-12796103D01*
X13885606Y-12796103D02*
X13885606Y-12786579D01*
X13885606Y-12786579D02*
X13895129Y-12767531D01*
X13895129Y-12767531D02*
X13904653Y-12758008D01*
X13904653Y-12758008D02*
X13923701Y-12748484D01*
X13923701Y-12748484D02*
X13961796Y-12748484D01*
X13961796Y-12748484D02*
X13980844Y-12758008D01*
X13980844Y-12758008D02*
X13990368Y-12767531D01*
X13990368Y-12767531D02*
X13999891Y-12786579D01*
X13999891Y-12786579D02*
X13999891Y-12796103D01*
X13999891Y-12796103D02*
X13990368Y-12815150D01*
X13990368Y-12815150D02*
X13980844Y-12824674D01*
X13980844Y-12824674D02*
X13961796Y-12834198D01*
X13961796Y-12834198D02*
X13923701Y-12834198D01*
X13923701Y-12834198D02*
X13904653Y-12843722D01*
X13904653Y-12843722D02*
X13895129Y-12853246D01*
X13895129Y-12853246D02*
X13885606Y-12872293D01*
X13885606Y-12872293D02*
X13885606Y-12910388D01*
X13885606Y-12910388D02*
X13895129Y-12929436D01*
X13895129Y-12929436D02*
X13904653Y-12938960D01*
X13904653Y-12938960D02*
X13923701Y-12948484D01*
X13923701Y-12948484D02*
X13961796Y-12948484D01*
X13961796Y-12948484D02*
X13980844Y-12938960D01*
X13980844Y-12938960D02*
X13990368Y-12929436D01*
X13990368Y-12929436D02*
X13999891Y-12910388D01*
X13999891Y-12910388D02*
X13999891Y-12872293D01*
X13999891Y-12872293D02*
X13990368Y-12853246D01*
X13990368Y-12853246D02*
X13980844Y-12843722D01*
X13980844Y-12843722D02*
X13961796Y-12834198D01*
X14237987Y-12948484D02*
X14237987Y-12748484D01*
X14323701Y-12948484D02*
X14323701Y-12843722D01*
X14323701Y-12843722D02*
X14314177Y-12824674D01*
X14314177Y-12824674D02*
X14295130Y-12815150D01*
X14295130Y-12815150D02*
X14266558Y-12815150D01*
X14266558Y-12815150D02*
X14247510Y-12824674D01*
X14247510Y-12824674D02*
X14237987Y-12834198D01*
X14447510Y-12948484D02*
X14428463Y-12938960D01*
X14428463Y-12938960D02*
X14418939Y-12929436D01*
X14418939Y-12929436D02*
X14409415Y-12910388D01*
X14409415Y-12910388D02*
X14409415Y-12853246D01*
X14409415Y-12853246D02*
X14418939Y-12834198D01*
X14418939Y-12834198D02*
X14428463Y-12824674D01*
X14428463Y-12824674D02*
X14447510Y-12815150D01*
X14447510Y-12815150D02*
X14476082Y-12815150D01*
X14476082Y-12815150D02*
X14495130Y-12824674D01*
X14495130Y-12824674D02*
X14504653Y-12834198D01*
X14504653Y-12834198D02*
X14514177Y-12853246D01*
X14514177Y-12853246D02*
X14514177Y-12910388D01*
X14514177Y-12910388D02*
X14504653Y-12929436D01*
X14504653Y-12929436D02*
X14495130Y-12938960D01*
X14495130Y-12938960D02*
X14476082Y-12948484D01*
X14476082Y-12948484D02*
X14447510Y-12948484D01*
X14628463Y-12948484D02*
X14609415Y-12938960D01*
X14609415Y-12938960D02*
X14599891Y-12919912D01*
X14599891Y-12919912D02*
X14599891Y-12748484D01*
X14780844Y-12938960D02*
X14761796Y-12948484D01*
X14761796Y-12948484D02*
X14723701Y-12948484D01*
X14723701Y-12948484D02*
X14704653Y-12938960D01*
X14704653Y-12938960D02*
X14695130Y-12919912D01*
X14695130Y-12919912D02*
X14695130Y-12843722D01*
X14695130Y-12843722D02*
X14704653Y-12824674D01*
X14704653Y-12824674D02*
X14723701Y-12815150D01*
X14723701Y-12815150D02*
X14761796Y-12815150D01*
X14761796Y-12815150D02*
X14780844Y-12824674D01*
X14780844Y-12824674D02*
X14790368Y-12843722D01*
X14790368Y-12843722D02*
X14790368Y-12862769D01*
X14790368Y-12862769D02*
X14695130Y-12881817D01*
X14866558Y-12938960D02*
X14885606Y-12948484D01*
X14885606Y-12948484D02*
X14923701Y-12948484D01*
X14923701Y-12948484D02*
X14942749Y-12938960D01*
X14942749Y-12938960D02*
X14952272Y-12919912D01*
X14952272Y-12919912D02*
X14952272Y-12910388D01*
X14952272Y-12910388D02*
X14942749Y-12891341D01*
X14942749Y-12891341D02*
X14923701Y-12881817D01*
X14923701Y-12881817D02*
X14895130Y-12881817D01*
X14895130Y-12881817D02*
X14876082Y-12872293D01*
X14876082Y-12872293D02*
X14866558Y-12853246D01*
X14866558Y-12853246D02*
X14866558Y-12843722D01*
X14866558Y-12843722D02*
X14876082Y-12824674D01*
X14876082Y-12824674D02*
X14895130Y-12815150D01*
X14895130Y-12815150D02*
X14923701Y-12815150D01*
X14923701Y-12815150D02*
X14942749Y-12824674D01*
X15018939Y-13024674D02*
X15028463Y-13015150D01*
X15028463Y-13015150D02*
X15047511Y-12986579D01*
X15047511Y-12986579D02*
X15057034Y-12967531D01*
X15057034Y-12967531D02*
X15066558Y-12938960D01*
X15066558Y-12938960D02*
X15076082Y-12891341D01*
X15076082Y-12891341D02*
X15076082Y-12853246D01*
X15076082Y-12853246D02*
X15066558Y-12805627D01*
X15066558Y-12805627D02*
X15057034Y-12777055D01*
X15057034Y-12777055D02*
X15047511Y-12758008D01*
X15047511Y-12758008D02*
X15028463Y-12729436D01*
X15028463Y-12729436D02*
X15018939Y-12719912D01*
X10024111Y-13191711D02*
X10024111Y-13050289D01*
X9882689Y-13050289D01*
X9882689Y-13191711D01*
X10024111Y-13191711D01*
X10304653Y-13031531D02*
X10314177Y-13022008D01*
X10314177Y-13022008D02*
X10333224Y-13012484D01*
X10333224Y-13012484D02*
X10380844Y-13012484D01*
X10380844Y-13012484D02*
X10399891Y-13022008D01*
X10399891Y-13022008D02*
X10409415Y-13031531D01*
X10409415Y-13031531D02*
X10418939Y-13050579D01*
X10418939Y-13050579D02*
X10418939Y-13069627D01*
X10418939Y-13069627D02*
X10409415Y-13098198D01*
X10409415Y-13098198D02*
X10295129Y-13212484D01*
X10295129Y-13212484D02*
X10418939Y-13212484D01*
X10504653Y-13193436D02*
X10514177Y-13202960D01*
X10514177Y-13202960D02*
X10504653Y-13212484D01*
X10504653Y-13212484D02*
X10495129Y-13202960D01*
X10495129Y-13202960D02*
X10504653Y-13193436D01*
X10504653Y-13193436D02*
X10504653Y-13212484D01*
X10704653Y-13212484D02*
X10590367Y-13212484D01*
X10647510Y-13212484D02*
X10647510Y-13012484D01*
X10647510Y-13012484D02*
X10628463Y-13041055D01*
X10628463Y-13041055D02*
X10609415Y-13060103D01*
X10609415Y-13060103D02*
X10590367Y-13069627D01*
X10828463Y-13012484D02*
X10847510Y-13012484D01*
X10847510Y-13012484D02*
X10866558Y-13022008D01*
X10866558Y-13022008D02*
X10876082Y-13031531D01*
X10876082Y-13031531D02*
X10885605Y-13050579D01*
X10885605Y-13050579D02*
X10895129Y-13088674D01*
X10895129Y-13088674D02*
X10895129Y-13136293D01*
X10895129Y-13136293D02*
X10885605Y-13174388D01*
X10885605Y-13174388D02*
X10876082Y-13193436D01*
X10876082Y-13193436D02*
X10866558Y-13202960D01*
X10866558Y-13202960D02*
X10847510Y-13212484D01*
X10847510Y-13212484D02*
X10828463Y-13212484D01*
X10828463Y-13212484D02*
X10809415Y-13202960D01*
X10809415Y-13202960D02*
X10799891Y-13193436D01*
X10799891Y-13193436D02*
X10790367Y-13174388D01*
X10790367Y-13174388D02*
X10780844Y-13136293D01*
X10780844Y-13136293D02*
X10780844Y-13088674D01*
X10780844Y-13088674D02*
X10790367Y-13050579D01*
X10790367Y-13050579D02*
X10799891Y-13031531D01*
X10799891Y-13031531D02*
X10809415Y-13022008D01*
X10809415Y-13022008D02*
X10828463Y-13012484D01*
X11018939Y-13012484D02*
X11037986Y-13012484D01*
X11037986Y-13012484D02*
X11057034Y-13022008D01*
X11057034Y-13022008D02*
X11066558Y-13031531D01*
X11066558Y-13031531D02*
X11076082Y-13050579D01*
X11076082Y-13050579D02*
X11085605Y-13088674D01*
X11085605Y-13088674D02*
X11085605Y-13136293D01*
X11085605Y-13136293D02*
X11076082Y-13174388D01*
X11076082Y-13174388D02*
X11066558Y-13193436D01*
X11066558Y-13193436D02*
X11057034Y-13202960D01*
X11057034Y-13202960D02*
X11037986Y-13212484D01*
X11037986Y-13212484D02*
X11018939Y-13212484D01*
X11018939Y-13212484D02*
X10999891Y-13202960D01*
X10999891Y-13202960D02*
X10990367Y-13193436D01*
X10990367Y-13193436D02*
X10980844Y-13174388D01*
X10980844Y-13174388D02*
X10971320Y-13136293D01*
X10971320Y-13136293D02*
X10971320Y-13088674D01*
X10971320Y-13088674D02*
X10980844Y-13050579D01*
X10980844Y-13050579D02*
X10990367Y-13031531D01*
X10990367Y-13031531D02*
X10999891Y-13022008D01*
X10999891Y-13022008D02*
X11018939Y-13012484D01*
X11171320Y-13212484D02*
X11171320Y-13079150D01*
X11171320Y-13098198D02*
X11180844Y-13088674D01*
X11180844Y-13088674D02*
X11199891Y-13079150D01*
X11199891Y-13079150D02*
X11228463Y-13079150D01*
X11228463Y-13079150D02*
X11247510Y-13088674D01*
X11247510Y-13088674D02*
X11257034Y-13107722D01*
X11257034Y-13107722D02*
X11257034Y-13212484D01*
X11257034Y-13107722D02*
X11266558Y-13088674D01*
X11266558Y-13088674D02*
X11285605Y-13079150D01*
X11285605Y-13079150D02*
X11314177Y-13079150D01*
X11314177Y-13079150D02*
X11333224Y-13088674D01*
X11333224Y-13088674D02*
X11342748Y-13107722D01*
X11342748Y-13107722D02*
X11342748Y-13212484D01*
X11437986Y-13212484D02*
X11437986Y-13079150D01*
X11437986Y-13098198D02*
X11447510Y-13088674D01*
X11447510Y-13088674D02*
X11466558Y-13079150D01*
X11466558Y-13079150D02*
X11495129Y-13079150D01*
X11495129Y-13079150D02*
X11514177Y-13088674D01*
X11514177Y-13088674D02*
X11523701Y-13107722D01*
X11523701Y-13107722D02*
X11523701Y-13212484D01*
X11523701Y-13107722D02*
X11533224Y-13088674D01*
X11533224Y-13088674D02*
X11552272Y-13079150D01*
X11552272Y-13079150D02*
X11580843Y-13079150D01*
X11580843Y-13079150D02*
X11599891Y-13088674D01*
X11599891Y-13088674D02*
X11609415Y-13107722D01*
X11609415Y-13107722D02*
X11609415Y-13212484D01*
X11999891Y-13002960D02*
X11828463Y-13260103D01*
X12257034Y-13012484D02*
X12276082Y-13012484D01*
X12276082Y-13012484D02*
X12295129Y-13022008D01*
X12295129Y-13022008D02*
X12304653Y-13031531D01*
X12304653Y-13031531D02*
X12314177Y-13050579D01*
X12314177Y-13050579D02*
X12323701Y-13088674D01*
X12323701Y-13088674D02*
X12323701Y-13136293D01*
X12323701Y-13136293D02*
X12314177Y-13174388D01*
X12314177Y-13174388D02*
X12304653Y-13193436D01*
X12304653Y-13193436D02*
X12295129Y-13202960D01*
X12295129Y-13202960D02*
X12276082Y-13212484D01*
X12276082Y-13212484D02*
X12257034Y-13212484D01*
X12257034Y-13212484D02*
X12237986Y-13202960D01*
X12237986Y-13202960D02*
X12228463Y-13193436D01*
X12228463Y-13193436D02*
X12218939Y-13174388D01*
X12218939Y-13174388D02*
X12209415Y-13136293D01*
X12209415Y-13136293D02*
X12209415Y-13088674D01*
X12209415Y-13088674D02*
X12218939Y-13050579D01*
X12218939Y-13050579D02*
X12228463Y-13031531D01*
X12228463Y-13031531D02*
X12237986Y-13022008D01*
X12237986Y-13022008D02*
X12257034Y-13012484D01*
X12409415Y-13193436D02*
X12418939Y-13202960D01*
X12418939Y-13202960D02*
X12409415Y-13212484D01*
X12409415Y-13212484D02*
X12399891Y-13202960D01*
X12399891Y-13202960D02*
X12409415Y-13193436D01*
X12409415Y-13193436D02*
X12409415Y-13212484D01*
X12542748Y-13012484D02*
X12561796Y-13012484D01*
X12561796Y-13012484D02*
X12580844Y-13022008D01*
X12580844Y-13022008D02*
X12590367Y-13031531D01*
X12590367Y-13031531D02*
X12599891Y-13050579D01*
X12599891Y-13050579D02*
X12609415Y-13088674D01*
X12609415Y-13088674D02*
X12609415Y-13136293D01*
X12609415Y-13136293D02*
X12599891Y-13174388D01*
X12599891Y-13174388D02*
X12590367Y-13193436D01*
X12590367Y-13193436D02*
X12580844Y-13202960D01*
X12580844Y-13202960D02*
X12561796Y-13212484D01*
X12561796Y-13212484D02*
X12542748Y-13212484D01*
X12542748Y-13212484D02*
X12523701Y-13202960D01*
X12523701Y-13202960D02*
X12514177Y-13193436D01*
X12514177Y-13193436D02*
X12504653Y-13174388D01*
X12504653Y-13174388D02*
X12495129Y-13136293D01*
X12495129Y-13136293D02*
X12495129Y-13088674D01*
X12495129Y-13088674D02*
X12504653Y-13050579D01*
X12504653Y-13050579D02*
X12514177Y-13031531D01*
X12514177Y-13031531D02*
X12523701Y-13022008D01*
X12523701Y-13022008D02*
X12542748Y-13012484D01*
X12723701Y-13098198D02*
X12704653Y-13088674D01*
X12704653Y-13088674D02*
X12695129Y-13079150D01*
X12695129Y-13079150D02*
X12685606Y-13060103D01*
X12685606Y-13060103D02*
X12685606Y-13050579D01*
X12685606Y-13050579D02*
X12695129Y-13031531D01*
X12695129Y-13031531D02*
X12704653Y-13022008D01*
X12704653Y-13022008D02*
X12723701Y-13012484D01*
X12723701Y-13012484D02*
X12761796Y-13012484D01*
X12761796Y-13012484D02*
X12780844Y-13022008D01*
X12780844Y-13022008D02*
X12790367Y-13031531D01*
X12790367Y-13031531D02*
X12799891Y-13050579D01*
X12799891Y-13050579D02*
X12799891Y-13060103D01*
X12799891Y-13060103D02*
X12790367Y-13079150D01*
X12790367Y-13079150D02*
X12780844Y-13088674D01*
X12780844Y-13088674D02*
X12761796Y-13098198D01*
X12761796Y-13098198D02*
X12723701Y-13098198D01*
X12723701Y-13098198D02*
X12704653Y-13107722D01*
X12704653Y-13107722D02*
X12695129Y-13117246D01*
X12695129Y-13117246D02*
X12685606Y-13136293D01*
X12685606Y-13136293D02*
X12685606Y-13174388D01*
X12685606Y-13174388D02*
X12695129Y-13193436D01*
X12695129Y-13193436D02*
X12704653Y-13202960D01*
X12704653Y-13202960D02*
X12723701Y-13212484D01*
X12723701Y-13212484D02*
X12761796Y-13212484D01*
X12761796Y-13212484D02*
X12780844Y-13202960D01*
X12780844Y-13202960D02*
X12790367Y-13193436D01*
X12790367Y-13193436D02*
X12799891Y-13174388D01*
X12799891Y-13174388D02*
X12799891Y-13136293D01*
X12799891Y-13136293D02*
X12790367Y-13117246D01*
X12790367Y-13117246D02*
X12780844Y-13107722D01*
X12780844Y-13107722D02*
X12761796Y-13098198D01*
X12876082Y-13031531D02*
X12885606Y-13022008D01*
X12885606Y-13022008D02*
X12904653Y-13012484D01*
X12904653Y-13012484D02*
X12952272Y-13012484D01*
X12952272Y-13012484D02*
X12971320Y-13022008D01*
X12971320Y-13022008D02*
X12980844Y-13031531D01*
X12980844Y-13031531D02*
X12990367Y-13050579D01*
X12990367Y-13050579D02*
X12990367Y-13069627D01*
X12990367Y-13069627D02*
X12980844Y-13098198D01*
X12980844Y-13098198D02*
X12866558Y-13212484D01*
X12866558Y-13212484D02*
X12990367Y-13212484D01*
X13057034Y-13012484D02*
X13190367Y-13012484D01*
X13190367Y-13012484D02*
X13104653Y-13212484D01*
X13257034Y-13012484D02*
X13257034Y-13050579D01*
X13333225Y-13012484D02*
X13333225Y-13050579D01*
X13628463Y-13288674D02*
X13618939Y-13279150D01*
X13618939Y-13279150D02*
X13599891Y-13250579D01*
X13599891Y-13250579D02*
X13590368Y-13231531D01*
X13590368Y-13231531D02*
X13580844Y-13202960D01*
X13580844Y-13202960D02*
X13571320Y-13155341D01*
X13571320Y-13155341D02*
X13571320Y-13117246D01*
X13571320Y-13117246D02*
X13580844Y-13069627D01*
X13580844Y-13069627D02*
X13590368Y-13041055D01*
X13590368Y-13041055D02*
X13599891Y-13022008D01*
X13599891Y-13022008D02*
X13618939Y-12993436D01*
X13618939Y-12993436D02*
X13628463Y-12983912D01*
X13742748Y-13012484D02*
X13761796Y-13012484D01*
X13761796Y-13012484D02*
X13780844Y-13022008D01*
X13780844Y-13022008D02*
X13790368Y-13031531D01*
X13790368Y-13031531D02*
X13799891Y-13050579D01*
X13799891Y-13050579D02*
X13809415Y-13088674D01*
X13809415Y-13088674D02*
X13809415Y-13136293D01*
X13809415Y-13136293D02*
X13799891Y-13174388D01*
X13799891Y-13174388D02*
X13790368Y-13193436D01*
X13790368Y-13193436D02*
X13780844Y-13202960D01*
X13780844Y-13202960D02*
X13761796Y-13212484D01*
X13761796Y-13212484D02*
X13742748Y-13212484D01*
X13742748Y-13212484D02*
X13723701Y-13202960D01*
X13723701Y-13202960D02*
X13714177Y-13193436D01*
X13714177Y-13193436D02*
X13704653Y-13174388D01*
X13704653Y-13174388D02*
X13695129Y-13136293D01*
X13695129Y-13136293D02*
X13695129Y-13088674D01*
X13695129Y-13088674D02*
X13704653Y-13050579D01*
X13704653Y-13050579D02*
X13714177Y-13031531D01*
X13714177Y-13031531D02*
X13723701Y-13022008D01*
X13723701Y-13022008D02*
X13742748Y-13012484D01*
X14047510Y-13212484D02*
X14047510Y-13012484D01*
X14133225Y-13212484D02*
X14133225Y-13107722D01*
X14133225Y-13107722D02*
X14123701Y-13088674D01*
X14123701Y-13088674D02*
X14104653Y-13079150D01*
X14104653Y-13079150D02*
X14076082Y-13079150D01*
X14076082Y-13079150D02*
X14057034Y-13088674D01*
X14057034Y-13088674D02*
X14047510Y-13098198D01*
X14257034Y-13212484D02*
X14237987Y-13202960D01*
X14237987Y-13202960D02*
X14228463Y-13193436D01*
X14228463Y-13193436D02*
X14218939Y-13174388D01*
X14218939Y-13174388D02*
X14218939Y-13117246D01*
X14218939Y-13117246D02*
X14228463Y-13098198D01*
X14228463Y-13098198D02*
X14237987Y-13088674D01*
X14237987Y-13088674D02*
X14257034Y-13079150D01*
X14257034Y-13079150D02*
X14285606Y-13079150D01*
X14285606Y-13079150D02*
X14304653Y-13088674D01*
X14304653Y-13088674D02*
X14314177Y-13098198D01*
X14314177Y-13098198D02*
X14323701Y-13117246D01*
X14323701Y-13117246D02*
X14323701Y-13174388D01*
X14323701Y-13174388D02*
X14314177Y-13193436D01*
X14314177Y-13193436D02*
X14304653Y-13202960D01*
X14304653Y-13202960D02*
X14285606Y-13212484D01*
X14285606Y-13212484D02*
X14257034Y-13212484D01*
X14437987Y-13212484D02*
X14418939Y-13202960D01*
X14418939Y-13202960D02*
X14409415Y-13183912D01*
X14409415Y-13183912D02*
X14409415Y-13012484D01*
X14590368Y-13202960D02*
X14571320Y-13212484D01*
X14571320Y-13212484D02*
X14533225Y-13212484D01*
X14533225Y-13212484D02*
X14514177Y-13202960D01*
X14514177Y-13202960D02*
X14504653Y-13183912D01*
X14504653Y-13183912D02*
X14504653Y-13107722D01*
X14504653Y-13107722D02*
X14514177Y-13088674D01*
X14514177Y-13088674D02*
X14533225Y-13079150D01*
X14533225Y-13079150D02*
X14571320Y-13079150D01*
X14571320Y-13079150D02*
X14590368Y-13088674D01*
X14590368Y-13088674D02*
X14599891Y-13107722D01*
X14599891Y-13107722D02*
X14599891Y-13126769D01*
X14599891Y-13126769D02*
X14504653Y-13145817D01*
X14676082Y-13202960D02*
X14695130Y-13212484D01*
X14695130Y-13212484D02*
X14733225Y-13212484D01*
X14733225Y-13212484D02*
X14752272Y-13202960D01*
X14752272Y-13202960D02*
X14761796Y-13183912D01*
X14761796Y-13183912D02*
X14761796Y-13174388D01*
X14761796Y-13174388D02*
X14752272Y-13155341D01*
X14752272Y-13155341D02*
X14733225Y-13145817D01*
X14733225Y-13145817D02*
X14704653Y-13145817D01*
X14704653Y-13145817D02*
X14685606Y-13136293D01*
X14685606Y-13136293D02*
X14676082Y-13117246D01*
X14676082Y-13117246D02*
X14676082Y-13107722D01*
X14676082Y-13107722D02*
X14685606Y-13088674D01*
X14685606Y-13088674D02*
X14704653Y-13079150D01*
X14704653Y-13079150D02*
X14733225Y-13079150D01*
X14733225Y-13079150D02*
X14752272Y-13088674D01*
X14999892Y-13136293D02*
X15152273Y-13136293D01*
X15076082Y-13212484D02*
X15076082Y-13060103D01*
X15390368Y-13031531D02*
X15399892Y-13022008D01*
X15399892Y-13022008D02*
X15418939Y-13012484D01*
X15418939Y-13012484D02*
X15466558Y-13012484D01*
X15466558Y-13012484D02*
X15485606Y-13022008D01*
X15485606Y-13022008D02*
X15495130Y-13031531D01*
X15495130Y-13031531D02*
X15504653Y-13050579D01*
X15504653Y-13050579D02*
X15504653Y-13069627D01*
X15504653Y-13069627D02*
X15495130Y-13098198D01*
X15495130Y-13098198D02*
X15380844Y-13212484D01*
X15380844Y-13212484D02*
X15504653Y-13212484D01*
X15733225Y-13202960D02*
X15752273Y-13212484D01*
X15752273Y-13212484D02*
X15790368Y-13212484D01*
X15790368Y-13212484D02*
X15809415Y-13202960D01*
X15809415Y-13202960D02*
X15818939Y-13183912D01*
X15818939Y-13183912D02*
X15818939Y-13174388D01*
X15818939Y-13174388D02*
X15809415Y-13155341D01*
X15809415Y-13155341D02*
X15790368Y-13145817D01*
X15790368Y-13145817D02*
X15761796Y-13145817D01*
X15761796Y-13145817D02*
X15742749Y-13136293D01*
X15742749Y-13136293D02*
X15733225Y-13117246D01*
X15733225Y-13117246D02*
X15733225Y-13107722D01*
X15733225Y-13107722D02*
X15742749Y-13088674D01*
X15742749Y-13088674D02*
X15761796Y-13079150D01*
X15761796Y-13079150D02*
X15790368Y-13079150D01*
X15790368Y-13079150D02*
X15809415Y-13088674D01*
X15933225Y-13212484D02*
X15914177Y-13202960D01*
X15914177Y-13202960D02*
X15904654Y-13183912D01*
X15904654Y-13183912D02*
X15904654Y-13012484D01*
X16037987Y-13212484D02*
X16018939Y-13202960D01*
X16018939Y-13202960D02*
X16009415Y-13193436D01*
X16009415Y-13193436D02*
X15999892Y-13174388D01*
X15999892Y-13174388D02*
X15999892Y-13117246D01*
X15999892Y-13117246D02*
X16009415Y-13098198D01*
X16009415Y-13098198D02*
X16018939Y-13088674D01*
X16018939Y-13088674D02*
X16037987Y-13079150D01*
X16037987Y-13079150D02*
X16066558Y-13079150D01*
X16066558Y-13079150D02*
X16085606Y-13088674D01*
X16085606Y-13088674D02*
X16095130Y-13098198D01*
X16095130Y-13098198D02*
X16104654Y-13117246D01*
X16104654Y-13117246D02*
X16104654Y-13174388D01*
X16104654Y-13174388D02*
X16095130Y-13193436D01*
X16095130Y-13193436D02*
X16085606Y-13202960D01*
X16085606Y-13202960D02*
X16066558Y-13212484D01*
X16066558Y-13212484D02*
X16037987Y-13212484D01*
X16161796Y-13079150D02*
X16237987Y-13079150D01*
X16190368Y-13012484D02*
X16190368Y-13183912D01*
X16190368Y-13183912D02*
X16199892Y-13202960D01*
X16199892Y-13202960D02*
X16218939Y-13212484D01*
X16218939Y-13212484D02*
X16237987Y-13212484D01*
X16295130Y-13202960D02*
X16314177Y-13212484D01*
X16314177Y-13212484D02*
X16352273Y-13212484D01*
X16352273Y-13212484D02*
X16371320Y-13202960D01*
X16371320Y-13202960D02*
X16380844Y-13183912D01*
X16380844Y-13183912D02*
X16380844Y-13174388D01*
X16380844Y-13174388D02*
X16371320Y-13155341D01*
X16371320Y-13155341D02*
X16352273Y-13145817D01*
X16352273Y-13145817D02*
X16323701Y-13145817D01*
X16323701Y-13145817D02*
X16304654Y-13136293D01*
X16304654Y-13136293D02*
X16295130Y-13117246D01*
X16295130Y-13117246D02*
X16295130Y-13107722D01*
X16295130Y-13107722D02*
X16304654Y-13088674D01*
X16304654Y-13088674D02*
X16323701Y-13079150D01*
X16323701Y-13079150D02*
X16352273Y-13079150D01*
X16352273Y-13079150D02*
X16371320Y-13088674D01*
X16447511Y-13288674D02*
X16457035Y-13279150D01*
X16457035Y-13279150D02*
X16476082Y-13250579D01*
X16476082Y-13250579D02*
X16485606Y-13231531D01*
X16485606Y-13231531D02*
X16495130Y-13202960D01*
X16495130Y-13202960D02*
X16504654Y-13155341D01*
X16504654Y-13155341D02*
X16504654Y-13117246D01*
X16504654Y-13117246D02*
X16495130Y-13069627D01*
X16495130Y-13069627D02*
X16485606Y-13041055D01*
X16485606Y-13041055D02*
X16476082Y-13022008D01*
X16476082Y-13022008D02*
X16457035Y-12993436D01*
X16457035Y-12993436D02*
X16447511Y-12983912D01*
M02*
