G04 #@! TF.GenerationSoftware,KiCad,Pcbnew,7.0.8*
G04 #@! TF.CreationDate,2024-04-19T19:29:06-04:00*
G04 #@! TF.ProjectId,2 Axis Gimbal,32204178-6973-4204-9769-6d62616c2e6b,rev?*
G04 #@! TF.SameCoordinates,Original*
G04 #@! TF.FileFunction,Copper,L1,Top*
G04 #@! TF.FilePolarity,Positive*
%FSLAX46Y46*%
G04 Gerber Fmt 4.6, Leading zero omitted, Abs format (unit mm)*
G04 Created by KiCad (PCBNEW 7.0.8) date 2024-04-19 19:29:06*
%MOMM*%
%LPD*%
G01*
G04 APERTURE LIST*
G04 Aperture macros list*
%AMRoundRect*
0 Rectangle with rounded corners*
0 $1 Rounding radius*
0 $2 $3 $4 $5 $6 $7 $8 $9 X,Y pos of 4 corners*
0 Add a 4 corners polygon primitive as box body*
4,1,4,$2,$3,$4,$5,$6,$7,$8,$9,$2,$3,0*
0 Add four circle primitives for the rounded corners*
1,1,$1+$1,$2,$3*
1,1,$1+$1,$4,$5*
1,1,$1+$1,$6,$7*
1,1,$1+$1,$8,$9*
0 Add four rect primitives between the rounded corners*
20,1,$1+$1,$2,$3,$4,$5,0*
20,1,$1+$1,$4,$5,$6,$7,0*
20,1,$1+$1,$6,$7,$8,$9,0*
20,1,$1+$1,$8,$9,$2,$3,0*%
G04 Aperture macros list end*
G04 #@! TA.AperFunction,SMDPad,CuDef*
%ADD10RoundRect,0.237500X-0.237500X0.300000X-0.237500X-0.300000X0.237500X-0.300000X0.237500X0.300000X0*%
G04 #@! TD*
G04 #@! TA.AperFunction,SMDPad,CuDef*
%ADD11RoundRect,0.237500X0.237500X-0.300000X0.237500X0.300000X-0.237500X0.300000X-0.237500X-0.300000X0*%
G04 #@! TD*
G04 #@! TA.AperFunction,SMDPad,CuDef*
%ADD12RoundRect,0.237500X0.250000X0.237500X-0.250000X0.237500X-0.250000X-0.237500X0.250000X-0.237500X0*%
G04 #@! TD*
G04 #@! TA.AperFunction,SMDPad,CuDef*
%ADD13RoundRect,0.237500X0.237500X-0.250000X0.237500X0.250000X-0.237500X0.250000X-0.237500X-0.250000X0*%
G04 #@! TD*
G04 #@! TA.AperFunction,SMDPad,CuDef*
%ADD14RoundRect,0.237500X0.237500X-0.287500X0.237500X0.287500X-0.237500X0.287500X-0.237500X-0.287500X0*%
G04 #@! TD*
G04 #@! TA.AperFunction,SMDPad,CuDef*
%ADD15RoundRect,0.237500X-0.237500X0.250000X-0.237500X-0.250000X0.237500X-0.250000X0.237500X0.250000X0*%
G04 #@! TD*
G04 #@! TA.AperFunction,ComponentPad*
%ADD16RoundRect,0.250000X-0.750000X0.600000X-0.750000X-0.600000X0.750000X-0.600000X0.750000X0.600000X0*%
G04 #@! TD*
G04 #@! TA.AperFunction,ComponentPad*
%ADD17O,2.000000X1.700000*%
G04 #@! TD*
G04 #@! TA.AperFunction,SMDPad,CuDef*
%ADD18RoundRect,0.237500X-0.250000X-0.237500X0.250000X-0.237500X0.250000X0.237500X-0.250000X0.237500X0*%
G04 #@! TD*
G04 #@! TA.AperFunction,ComponentPad*
%ADD19RoundRect,0.250000X0.750000X-0.600000X0.750000X0.600000X-0.750000X0.600000X-0.750000X-0.600000X0*%
G04 #@! TD*
G04 #@! TA.AperFunction,SMDPad,CuDef*
%ADD20R,2.000000X1.200000*%
G04 #@! TD*
G04 #@! TA.AperFunction,SMDPad,CuDef*
%ADD21R,5.600000X5.600000*%
G04 #@! TD*
G04 #@! TA.AperFunction,ComponentPad*
%ADD22RoundRect,0.250000X0.725000X-0.600000X0.725000X0.600000X-0.725000X0.600000X-0.725000X-0.600000X0*%
G04 #@! TD*
G04 #@! TA.AperFunction,ComponentPad*
%ADD23O,1.950000X1.700000*%
G04 #@! TD*
G04 #@! TA.AperFunction,SMDPad,CuDef*
%ADD24RoundRect,0.237500X0.300000X0.237500X-0.300000X0.237500X-0.300000X-0.237500X0.300000X-0.237500X0*%
G04 #@! TD*
G04 #@! TA.AperFunction,SMDPad,CuDef*
%ADD25R,0.675000X0.250000*%
G04 #@! TD*
G04 #@! TA.AperFunction,SMDPad,CuDef*
%ADD26R,0.250000X0.575000*%
G04 #@! TD*
G04 #@! TA.AperFunction,SMDPad,CuDef*
%ADD27RoundRect,0.150000X-0.825000X-0.150000X0.825000X-0.150000X0.825000X0.150000X-0.825000X0.150000X0*%
G04 #@! TD*
G04 #@! TA.AperFunction,ComponentPad*
%ADD28R,1.700000X1.700000*%
G04 #@! TD*
G04 #@! TA.AperFunction,ComponentPad*
%ADD29O,1.700000X1.700000*%
G04 #@! TD*
G04 #@! TA.AperFunction,ViaPad*
%ADD30C,0.800000*%
G04 #@! TD*
G04 #@! TA.AperFunction,ViaPad*
%ADD31C,0.600000*%
G04 #@! TD*
G04 #@! TA.AperFunction,Conductor*
%ADD32C,0.500000*%
G04 #@! TD*
G04 #@! TA.AperFunction,Conductor*
%ADD33C,0.250000*%
G04 #@! TD*
G04 #@! TA.AperFunction,Conductor*
%ADD34C,0.300000*%
G04 #@! TD*
G04 APERTURE END LIST*
D10*
X96350000Y-91151500D03*
X96350000Y-92876500D03*
D11*
X110158000Y-84807000D03*
X110158000Y-83082000D03*
D12*
X100350000Y-90414000D03*
X98525000Y-90414000D03*
D13*
X102403377Y-85747637D03*
X102403377Y-83922637D03*
D10*
X114150000Y-91251500D03*
X114150000Y-92976500D03*
D14*
X94996000Y-82042000D03*
X94996000Y-80292000D03*
D15*
X100838000Y-83923500D03*
X100838000Y-85748500D03*
D16*
X92981149Y-71528028D03*
D17*
X92981149Y-74028028D03*
D18*
X111967000Y-84074000D03*
X113792000Y-84074000D03*
D19*
X85008915Y-74022112D03*
D17*
X85008915Y-71522112D03*
D20*
X102550000Y-87920000D03*
X102550000Y-92420000D03*
D21*
X109750000Y-90170000D03*
D22*
X85050557Y-91028664D03*
D23*
X85050557Y-88528664D03*
X85050557Y-86028664D03*
D22*
X91927877Y-91046155D03*
D23*
X91927877Y-88546155D03*
X91927877Y-86046155D03*
D22*
X78192557Y-91028664D03*
D23*
X78192557Y-88528664D03*
X78192557Y-86028664D03*
D24*
X108050500Y-69342000D03*
X106325500Y-69342000D03*
D18*
X98525000Y-91914000D03*
X100350000Y-91914000D03*
D15*
X113538000Y-73001500D03*
X113538000Y-74826500D03*
D18*
X111967000Y-85598000D03*
X113792000Y-85598000D03*
D24*
X106332929Y-85767775D03*
X104607929Y-85767775D03*
D12*
X102396068Y-73710475D03*
X100571068Y-73710475D03*
D11*
X104219598Y-84085987D03*
X104219598Y-82360987D03*
D25*
X105586000Y-84328000D03*
D26*
X106399000Y-84391000D03*
X106899000Y-84391000D03*
X107399000Y-84391000D03*
X107899000Y-84391000D03*
D25*
X108712000Y-84328000D03*
X108712000Y-83828000D03*
X108712000Y-83328000D03*
X108712000Y-82828000D03*
X108712000Y-82328000D03*
X108712000Y-81828000D03*
X108712000Y-81328000D03*
X108712000Y-80828000D03*
X108712000Y-80328000D03*
X108712000Y-79828000D03*
D26*
X107899000Y-79765000D03*
X107399000Y-79765000D03*
X106899000Y-79765000D03*
X106399000Y-79765000D03*
D25*
X105586000Y-79828000D03*
X105586000Y-80328000D03*
X105586000Y-80828000D03*
X105586000Y-81328000D03*
X105586000Y-81828000D03*
X105586000Y-82328000D03*
X105586000Y-82828000D03*
X105586000Y-83328000D03*
X105586000Y-83828000D03*
D27*
X104459000Y-70866000D03*
X104459000Y-72136000D03*
X104459000Y-73406000D03*
X104459000Y-74676000D03*
X104459000Y-75946000D03*
X104459000Y-77216000D03*
X104459000Y-78486000D03*
X109409000Y-78486000D03*
X109409000Y-77216000D03*
X109409000Y-75946000D03*
X109409000Y-74676000D03*
X109409000Y-73406000D03*
X109409000Y-72136000D03*
X109409000Y-70866000D03*
D28*
X80518000Y-79248000D03*
D29*
X83058000Y-79248000D03*
X85598000Y-79248000D03*
X88138000Y-79248000D03*
X90678000Y-79248000D03*
D18*
X100560675Y-75942075D03*
X102385675Y-75942075D03*
D15*
X93345000Y-78439000D03*
X93345000Y-80264000D03*
D28*
X98552000Y-74930000D03*
D29*
X98552000Y-77470000D03*
X98552000Y-80010000D03*
X98552000Y-82550000D03*
X98552000Y-85090000D03*
X98552000Y-87630000D03*
X116332000Y-87630000D03*
X116332000Y-85090000D03*
X116332000Y-82550000D03*
X116332000Y-80010000D03*
X116332000Y-77470000D03*
X116332000Y-74930000D03*
D19*
X78106887Y-74010092D03*
D17*
X78106887Y-71510092D03*
D30*
X101092000Y-77216000D03*
X96266000Y-79248000D03*
X115450000Y-92114000D03*
D31*
X107890112Y-83581063D03*
D30*
X94950000Y-92964000D03*
X103650000Y-86514000D03*
X93599000Y-82042000D03*
D31*
X106426000Y-81422000D03*
D30*
X97250000Y-90114000D03*
X107696000Y-70866000D03*
D31*
X106426000Y-82574000D03*
X106426000Y-83590000D03*
D30*
X108966000Y-85344000D03*
X104902000Y-69342000D03*
X102870000Y-82296000D03*
D31*
X102616000Y-80264000D03*
X106465667Y-80463801D03*
X106426000Y-78528000D03*
X100652027Y-79570027D03*
X110744000Y-80010000D03*
X102108000Y-74676000D03*
X112268000Y-79502000D03*
X112074589Y-80832589D03*
X113792000Y-80518000D03*
X107696000Y-76454000D03*
X105918000Y-76454000D03*
X109728000Y-79703500D03*
X111967000Y-81995000D03*
X103124000Y-74930000D03*
X97155000Y-74110500D03*
X110998000Y-86614000D03*
X107464266Y-81302266D03*
D32*
X96198082Y-83820000D02*
X82550000Y-83820000D01*
X99060000Y-89154000D02*
X98525000Y-89689000D01*
X100838863Y-85747637D02*
X100838000Y-85748500D01*
X99060000Y-89154000D02*
X100062000Y-88152000D01*
X96266000Y-83185000D02*
X96266000Y-83752082D01*
X79218000Y-80488000D02*
X79218000Y-77830604D01*
D33*
X107051000Y-83848884D02*
X106899000Y-84000884D01*
X108712000Y-82328000D02*
X108259291Y-82328000D01*
D32*
X107835272Y-69342000D02*
X106311272Y-70866000D01*
X109750000Y-90170000D02*
X108712000Y-90170000D01*
X98525000Y-89689000D02*
X98525000Y-90414000D01*
X100560675Y-76684675D02*
X101092000Y-77216000D01*
X110490000Y-69342000D02*
X108050500Y-69342000D01*
X96266000Y-83185000D02*
X96266000Y-87376000D01*
X100560675Y-75942075D02*
X100571068Y-75931682D01*
D33*
X107051000Y-83536291D02*
X107051000Y-83848884D01*
X104477585Y-83828000D02*
X104219598Y-84085987D01*
X106899000Y-84000884D02*
X106899000Y-84391000D01*
D32*
X111912000Y-89408000D02*
X117094000Y-89408000D01*
X113792000Y-87528000D02*
X111912000Y-89408000D01*
X96266000Y-87376000D02*
X98044000Y-89154000D01*
X83058000Y-78994000D02*
X83058000Y-79248000D01*
X113792000Y-84074000D02*
X113792000Y-87528000D01*
X117094000Y-89408000D02*
X117856000Y-88646000D01*
X102403377Y-85747637D02*
X102557948Y-85747637D01*
X106332929Y-87790929D02*
X106332929Y-85767775D01*
X82550000Y-83820000D02*
X79218000Y-80488000D01*
X116448251Y-73001500D02*
X113538000Y-73001500D01*
X117856000Y-74409249D02*
X116448251Y-73001500D01*
X96266000Y-83752082D02*
X96198082Y-83820000D01*
X109750000Y-90170000D02*
X113068500Y-90170000D01*
X98044000Y-89154000D02*
X99060000Y-89154000D01*
X81631000Y-77567000D02*
X83058000Y-78994000D01*
X113068500Y-90170000D02*
X114150000Y-91251500D01*
X113538000Y-73001500D02*
X113538000Y-72390000D01*
X106311272Y-70866000D02*
X104459000Y-70866000D01*
X113538000Y-72390000D02*
X110490000Y-69342000D01*
X79481604Y-77567000D02*
X81631000Y-77567000D01*
D33*
X106899000Y-85201704D02*
X106332929Y-85767775D01*
D32*
X79218000Y-77830604D02*
X79481604Y-77567000D01*
X102403377Y-85747637D02*
X100838863Y-85747637D01*
X102557948Y-85747637D02*
X104219598Y-84085987D01*
X100062000Y-88152000D02*
X100062000Y-86524500D01*
D33*
X108259291Y-82328000D02*
X107051000Y-83536291D01*
D32*
X100560675Y-75942075D02*
X100560675Y-76684675D01*
X108712000Y-90170000D02*
X106332929Y-87790929D01*
X113792000Y-85598000D02*
X113792000Y-84074000D01*
D33*
X106899000Y-84391000D02*
X106899000Y-85201704D01*
X105586000Y-83828000D02*
X104477585Y-83828000D01*
D32*
X100062000Y-86524500D02*
X100838000Y-85748500D01*
X117856000Y-88646000D02*
X117856000Y-74409249D01*
X100571068Y-75931682D02*
X100571068Y-73710475D01*
X96266000Y-79248000D02*
X96266000Y-83185000D01*
X108050500Y-69342000D02*
X107835272Y-69342000D01*
D33*
X106426000Y-82574000D02*
X105832000Y-82574000D01*
X107890112Y-83581063D02*
X107899000Y-83589951D01*
D32*
X106325500Y-69342000D02*
X104902000Y-69342000D01*
X94996000Y-82042000D02*
X93599000Y-82042000D01*
X108966000Y-85344000D02*
X109621000Y-85344000D01*
D33*
X106426000Y-82574000D02*
X105840000Y-82574000D01*
D32*
X115450000Y-92114000D02*
X114587500Y-92976500D01*
X102934987Y-82360987D02*
X102870000Y-82296000D01*
X98525000Y-91914000D02*
X97250000Y-90639000D01*
D33*
X107399000Y-79765000D02*
X107399000Y-80449000D01*
D32*
X103650000Y-86514000D02*
X103861704Y-86514000D01*
D33*
X108712000Y-84328000D02*
X107962000Y-84328000D01*
X107399000Y-80449000D02*
X106426000Y-81422000D01*
D32*
X109621000Y-85344000D02*
X110158000Y-84807000D01*
D33*
X105832000Y-82574000D02*
X105586000Y-82328000D01*
D32*
X114587500Y-92976500D02*
X114150000Y-92976500D01*
X95000601Y-92913399D02*
X96313101Y-92913399D01*
D33*
X106426000Y-83590000D02*
X106399000Y-83617000D01*
X106399000Y-83617000D02*
X106399000Y-84391000D01*
D32*
X103861704Y-86514000D02*
X104607929Y-85767775D01*
X107696000Y-70866000D02*
X109409000Y-70866000D01*
X96313101Y-92913399D02*
X96350000Y-92876500D01*
D33*
X107962000Y-84328000D02*
X107899000Y-84391000D01*
X107899000Y-83589951D02*
X107899000Y-84391000D01*
D32*
X94950000Y-92964000D02*
X95000601Y-92913399D01*
X104219598Y-82360987D02*
X102934987Y-82360987D01*
X97250000Y-90639000D02*
X97250000Y-90114000D01*
D33*
X105840000Y-82574000D02*
X105586000Y-82828000D01*
X109904000Y-82828000D02*
X108712000Y-82828000D01*
X110158000Y-83082000D02*
X109904000Y-82828000D01*
X94968000Y-80264000D02*
X94996000Y-80292000D01*
X93345000Y-80264000D02*
X94968000Y-80264000D01*
X106775500Y-79152500D02*
X106109000Y-79152500D01*
X102145000Y-81751000D02*
X104068000Y-79828000D01*
X106109000Y-79152500D02*
X105586000Y-79675500D01*
X101490014Y-84836000D02*
X102403377Y-83922637D01*
X105586000Y-79675500D02*
X105586000Y-79828000D01*
X107442000Y-78486000D02*
X106775500Y-79152500D01*
X98552000Y-85090000D02*
X98806000Y-84836000D01*
X104068000Y-79828000D02*
X105586000Y-79828000D01*
X98806000Y-84836000D02*
X101490014Y-84836000D01*
X102145000Y-83664260D02*
X102145000Y-81751000D01*
X109409000Y-78486000D02*
X107442000Y-78486000D01*
X102403377Y-83922637D02*
X102145000Y-83664260D01*
X98552000Y-82550000D02*
X99464500Y-82550000D01*
X100838000Y-83923500D02*
X100838000Y-82042000D01*
X106399000Y-80397134D02*
X106399000Y-79765000D01*
X106465667Y-80463801D02*
X106399000Y-80397134D01*
X99464500Y-82550000D02*
X100838000Y-83923500D01*
X107738000Y-77216000D02*
X106426000Y-78528000D01*
X100838000Y-82042000D02*
X102616000Y-80264000D01*
X109409000Y-77216000D02*
X107738000Y-77216000D01*
X112268000Y-76904248D02*
X112268000Y-79502000D01*
X102396068Y-74387932D02*
X102396068Y-73710475D01*
X110744000Y-80010000D02*
X110426000Y-80328000D01*
X97962634Y-81280000D02*
X97377000Y-81865634D01*
X109409000Y-73406000D02*
X108688000Y-73406000D01*
X102736593Y-74051000D02*
X102396068Y-73710475D01*
X100652027Y-79687973D02*
X99060000Y-81280000D01*
X100652027Y-79570027D02*
X100652027Y-79687973D01*
X108043000Y-74051000D02*
X102736593Y-74051000D01*
X107950000Y-75023876D02*
X108247124Y-75321000D01*
X108688000Y-73406000D02*
X107950000Y-74144000D01*
X108247124Y-75321000D02*
X110684752Y-75321000D01*
X97377000Y-81865634D02*
X97377000Y-86455000D01*
X108688000Y-73406000D02*
X108043000Y-74051000D01*
X107950000Y-74144000D02*
X107950000Y-75023876D01*
X97377000Y-86455000D02*
X98552000Y-87630000D01*
X99060000Y-81280000D02*
X97962634Y-81280000D01*
X110684752Y-75321000D02*
X112268000Y-76904248D01*
X110426000Y-80328000D02*
X108712000Y-80328000D01*
X102108000Y-74676000D02*
X102396068Y-74387932D01*
X113792000Y-80518000D02*
X113538000Y-80264000D01*
X110429500Y-86069000D02*
X108665695Y-86069000D01*
D34*
X113538000Y-74826500D02*
X113387500Y-74676000D01*
X113387500Y-74676000D02*
X109409000Y-74676000D01*
X113688500Y-74676000D02*
X116078000Y-74676000D01*
X116078000Y-74676000D02*
X116332000Y-74930000D01*
X113538000Y-74826500D02*
X113688500Y-74676000D01*
D33*
X112074589Y-80832589D02*
X110998000Y-81909178D01*
X110998000Y-81909178D02*
X110998000Y-85500500D01*
X110998000Y-85500500D02*
X110429500Y-86069000D01*
X107399000Y-84802305D02*
X107399000Y-84391000D01*
X113538000Y-80264000D02*
X113538000Y-74826500D01*
X108665695Y-86069000D02*
X107399000Y-84802305D01*
X111953058Y-80070942D02*
X110490000Y-81534000D01*
X111252000Y-77158248D02*
X111252000Y-79369884D01*
X112009116Y-80127000D02*
X112385000Y-80127000D01*
X107833000Y-76591000D02*
X110684752Y-76591000D01*
X109428120Y-81534000D02*
X109134120Y-81828000D01*
X105781000Y-76591000D02*
X105918000Y-76454000D01*
X107696000Y-76454000D02*
X107833000Y-76591000D01*
X110490000Y-81534000D02*
X109428120Y-81534000D01*
X109134120Y-81828000D02*
X108712000Y-81828000D01*
X110684752Y-76591000D02*
X111252000Y-77158248D01*
X105104000Y-76591000D02*
X105781000Y-76591000D01*
X111252000Y-79369884D02*
X111760000Y-79877884D01*
X102389600Y-75946000D02*
X102385675Y-75942075D01*
X104459000Y-75946000D02*
X105104000Y-76591000D01*
X111760000Y-79877884D02*
X111953058Y-80070942D01*
X111760000Y-79877884D02*
X112009116Y-80127000D01*
X114808000Y-82550000D02*
X116332000Y-82550000D01*
X112385000Y-80127000D02*
X114808000Y-82550000D01*
X104459000Y-75946000D02*
X102389600Y-75946000D01*
D32*
X96350000Y-91151500D02*
X97275000Y-92076500D01*
X91927877Y-88546155D02*
X93744655Y-88546155D01*
X101456000Y-93514000D02*
X102550000Y-92420000D01*
X97275000Y-92439000D02*
X98350000Y-93514000D01*
X97275000Y-92076500D02*
X97275000Y-92439000D01*
X98350000Y-93514000D02*
X101456000Y-93514000D01*
X93744655Y-88546155D02*
X96350000Y-91151500D01*
D33*
X111967000Y-81995000D02*
X111967000Y-84074000D01*
X109728000Y-79703500D02*
X108836500Y-79703500D01*
X108836500Y-79703500D02*
X108712000Y-79828000D01*
X75565000Y-88401107D02*
X78192557Y-91028664D01*
X99314000Y-70866000D02*
X97155000Y-68707000D01*
X105684752Y-71441000D02*
X105530752Y-71441000D01*
X105480752Y-71491000D02*
X102831124Y-71491000D01*
X105530752Y-71441000D02*
X105480752Y-71491000D01*
X78740000Y-68707000D02*
X75565000Y-71882000D01*
X102831124Y-71491000D02*
X102206124Y-70866000D01*
X106379752Y-72136000D02*
X105684752Y-71441000D01*
X97155000Y-68707000D02*
X78740000Y-68707000D01*
X109409000Y-72136000D02*
X106379752Y-72136000D01*
X102206124Y-70866000D02*
X99314000Y-70866000D01*
X75565000Y-71882000D02*
X75565000Y-88401107D01*
X104459000Y-72136000D02*
X102839728Y-72136000D01*
X79883000Y-72771000D02*
X76962000Y-72771000D01*
X98298000Y-71374000D02*
X96393000Y-69469000D01*
X76581000Y-73152000D02*
X76581000Y-82559107D01*
X76581000Y-82559107D02*
X85050557Y-91028664D01*
X102839728Y-72136000D02*
X102077728Y-71374000D01*
X102077728Y-71374000D02*
X98298000Y-71374000D01*
X83185000Y-69469000D02*
X79883000Y-72771000D01*
X76962000Y-72771000D02*
X76581000Y-73152000D01*
X96393000Y-69469000D02*
X83185000Y-69469000D01*
X97155000Y-74110500D02*
X97155000Y-75171004D01*
X93250608Y-78439000D02*
X91948000Y-79741608D01*
X103124000Y-74930000D02*
X103378000Y-74676000D01*
X93887004Y-78439000D02*
X93345000Y-78439000D01*
X103378000Y-74676000D02*
X104459000Y-74676000D01*
X91186000Y-80518000D02*
X87630000Y-80518000D01*
X97155000Y-75171004D02*
X93887004Y-78439000D01*
X86868000Y-79756000D02*
X86868000Y-73381197D01*
X87630000Y-80518000D02*
X86868000Y-79756000D01*
X86868000Y-73381197D02*
X85008915Y-71522112D01*
X91948000Y-79756000D02*
X91186000Y-80518000D01*
X91948000Y-79741608D02*
X91948000Y-79756000D01*
X93345000Y-78439000D02*
X93250608Y-78439000D01*
X104459000Y-77216000D02*
X102108000Y-77216000D01*
X100838000Y-72390000D02*
X93843121Y-72390000D01*
X101817000Y-76915695D02*
X101459917Y-76558612D01*
X92981149Y-71528028D02*
X88138000Y-76371177D01*
X101459917Y-76558612D02*
X101459917Y-73011917D01*
X101459917Y-73011917D02*
X100838000Y-72390000D01*
X93843121Y-72390000D02*
X92981149Y-71528028D01*
X88138000Y-76371177D02*
X88138000Y-79248000D01*
X102108000Y-77216000D02*
X101817000Y-76925000D01*
X101817000Y-76925000D02*
X101817000Y-76915695D01*
X99060000Y-73152000D02*
X93857177Y-73152000D01*
X90678000Y-76331177D02*
X90678000Y-79248000D01*
X93857177Y-73152000D02*
X92981149Y-74028028D01*
X99727000Y-73819000D02*
X99060000Y-73152000D01*
X99727000Y-77121000D02*
X99727000Y-73819000D01*
X104459000Y-78486000D02*
X101092000Y-78486000D01*
X101092000Y-78486000D02*
X99727000Y-77121000D01*
X92981149Y-74028028D02*
X90678000Y-76331177D01*
X109292000Y-75829000D02*
X107437116Y-75829000D01*
X92398000Y-79942396D02*
X91314396Y-81026000D01*
X92398000Y-79928004D02*
X92398000Y-79942396D01*
X105759000Y-77507116D02*
X105759000Y-78832752D01*
X105759000Y-78832752D02*
X105343752Y-79248000D01*
X102059027Y-78945027D02*
X99147081Y-78945027D01*
X98942054Y-78740000D02*
X97962634Y-78740000D01*
X96689134Y-77466500D02*
X94904134Y-79251500D01*
X91314396Y-81026000D02*
X82296000Y-81026000D01*
X93074504Y-79251500D02*
X92398000Y-79928004D01*
X107437116Y-75829000D02*
X105759000Y-77507116D01*
X97962634Y-78740000D02*
X96689134Y-77466500D01*
X99147081Y-78945027D02*
X98942054Y-78740000D01*
X102362000Y-79248000D02*
X102059027Y-78945027D01*
X94904134Y-79251500D02*
X93074504Y-79251500D01*
X82296000Y-81026000D02*
X80518000Y-79248000D01*
X105343752Y-79248000D02*
X102362000Y-79248000D01*
X109409000Y-75946000D02*
X109292000Y-75829000D01*
X107464266Y-81302266D02*
X107899000Y-80867532D01*
X110998000Y-86567000D02*
X111967000Y-85598000D01*
X110998000Y-86614000D02*
X110998000Y-86567000D01*
X107899000Y-80867532D02*
X107899000Y-79765000D01*
X85590722Y-84709000D02*
X91927877Y-91046155D01*
X81661000Y-84709000D02*
X85590722Y-84709000D01*
X101854000Y-71882000D02*
X97028000Y-71882000D01*
X104459000Y-73406000D02*
X103378000Y-73406000D01*
X97028000Y-71882000D02*
X95377000Y-70231000D01*
X103378000Y-73406000D02*
X101854000Y-71882000D01*
X95377000Y-70231000D02*
X84328000Y-70231000D01*
X77851000Y-76708000D02*
X77851000Y-80899000D01*
X84328000Y-70231000D02*
X77851000Y-76708000D01*
X77851000Y-80899000D02*
X81661000Y-84709000D01*
D32*
X100350000Y-91914000D02*
X100350000Y-90414000D01*
X100350000Y-90414000D02*
X100350000Y-90120000D01*
X100350000Y-90120000D02*
X102550000Y-87920000D01*
G04 #@! TA.AperFunction,Conductor*
G36*
X86567209Y-86573794D02*
G01*
X86587025Y-86589893D01*
X90416058Y-90418926D01*
X90449543Y-90480249D01*
X90452377Y-90506607D01*
X90452377Y-91696156D01*
X90452378Y-91696173D01*
X90462877Y-91798951D01*
X90462878Y-91798954D01*
X90518062Y-91965486D01*
X90518064Y-91965491D01*
X90539488Y-92000224D01*
X90610165Y-92114811D01*
X90734221Y-92238867D01*
X90883543Y-92330969D01*
X91050080Y-92386154D01*
X91152868Y-92396655D01*
X92702885Y-92396654D01*
X92805674Y-92386154D01*
X92972211Y-92330969D01*
X93121533Y-92238867D01*
X93245589Y-92114811D01*
X93337691Y-91965489D01*
X93392876Y-91798952D01*
X93403377Y-91696164D01*
X93403376Y-90396147D01*
X93402814Y-90390650D01*
X93392876Y-90293358D01*
X93392875Y-90293355D01*
X93376762Y-90244729D01*
X93337691Y-90126821D01*
X93245589Y-89977499D01*
X93121533Y-89853443D01*
X93025543Y-89794236D01*
X92966756Y-89757976D01*
X92920032Y-89706028D01*
X92908809Y-89637065D01*
X92936653Y-89572983D01*
X92944172Y-89564756D01*
X93005836Y-89503092D01*
X93091372Y-89417556D01*
X93139004Y-89349531D01*
X93193581Y-89305906D01*
X93240578Y-89296655D01*
X93382425Y-89296655D01*
X93449464Y-89316340D01*
X93470106Y-89332974D01*
X95338181Y-91201048D01*
X95371666Y-91262371D01*
X95374500Y-91288728D01*
X95374500Y-91500668D01*
X95374501Y-91500687D01*
X95384825Y-91601752D01*
X95439092Y-91765515D01*
X95439093Y-91765518D01*
X95459717Y-91798954D01*
X95524067Y-91903283D01*
X95529661Y-91912351D01*
X95543982Y-91926672D01*
X95577467Y-91987995D01*
X95572483Y-92057687D01*
X95543985Y-92102032D01*
X95530052Y-92115965D01*
X95439551Y-92262688D01*
X95439546Y-92262699D01*
X95385319Y-92426347D01*
X95375000Y-92527345D01*
X95375000Y-92626500D01*
X96456959Y-92626500D01*
X96523998Y-92646185D01*
X96569753Y-92698989D01*
X96574665Y-92711496D01*
X96592457Y-92765188D01*
X96590873Y-92765712D01*
X96600000Y-92806870D01*
X96600000Y-93913999D01*
X96636640Y-93913999D01*
X96636654Y-93913998D01*
X96737652Y-93903680D01*
X96901300Y-93849453D01*
X96901311Y-93849448D01*
X97048034Y-93758947D01*
X97048038Y-93758944D01*
X97169944Y-93637038D01*
X97169945Y-93637036D01*
X97179832Y-93621008D01*
X97231779Y-93574282D01*
X97300741Y-93563058D01*
X97364824Y-93590900D01*
X97373053Y-93598421D01*
X97750451Y-93975819D01*
X97783936Y-94037142D01*
X97778952Y-94106834D01*
X97737080Y-94162767D01*
X97671616Y-94187184D01*
X97662770Y-94187500D01*
X76424214Y-94187500D01*
X76419791Y-94187342D01*
X76401142Y-94186008D01*
X76188982Y-94170834D01*
X76171470Y-94168316D01*
X75951862Y-94120543D01*
X75934887Y-94115559D01*
X75724311Y-94037019D01*
X75708217Y-94029669D01*
X75510963Y-93921959D01*
X75496080Y-93912394D01*
X75316163Y-93777710D01*
X75302792Y-93766124D01*
X75143875Y-93607207D01*
X75132289Y-93593836D01*
X74997605Y-93413919D01*
X74988040Y-93399036D01*
X74976306Y-93377547D01*
X74880327Y-93201777D01*
X74872983Y-93185694D01*
X74850905Y-93126500D01*
X95375001Y-93126500D01*
X95375001Y-93225654D01*
X95385319Y-93326652D01*
X95439546Y-93490300D01*
X95439551Y-93490311D01*
X95530052Y-93637034D01*
X95530055Y-93637038D01*
X95651961Y-93758944D01*
X95651965Y-93758947D01*
X95798688Y-93849448D01*
X95798699Y-93849453D01*
X95962347Y-93903680D01*
X96063352Y-93913999D01*
X96100000Y-93913999D01*
X96100000Y-93126500D01*
X95375001Y-93126500D01*
X74850905Y-93126500D01*
X74794437Y-92975103D01*
X74789458Y-92958144D01*
X74741683Y-92738529D01*
X74739165Y-92721017D01*
X74736619Y-92685423D01*
X74722657Y-92490208D01*
X74722500Y-92485786D01*
X74722500Y-88622378D01*
X74742185Y-88555339D01*
X74794989Y-88509584D01*
X74864147Y-88499640D01*
X74927703Y-88528665D01*
X74961794Y-88576736D01*
X74971490Y-88601228D01*
X74973382Y-88606754D01*
X74986381Y-88651495D01*
X74996580Y-88668741D01*
X75005136Y-88686207D01*
X75012514Y-88704839D01*
X75039898Y-88742530D01*
X75043106Y-88747414D01*
X75066827Y-88787523D01*
X75066833Y-88787531D01*
X75080990Y-88801687D01*
X75093628Y-88816483D01*
X75105405Y-88832693D01*
X75105406Y-88832694D01*
X75141309Y-88862395D01*
X75145620Y-88866317D01*
X75916368Y-89637065D01*
X76680738Y-90401435D01*
X76714223Y-90462758D01*
X76717057Y-90489116D01*
X76717057Y-91678665D01*
X76717058Y-91678682D01*
X76727557Y-91781460D01*
X76727558Y-91781463D01*
X76782742Y-91947995D01*
X76782744Y-91948000D01*
X76793531Y-91965489D01*
X76874845Y-92097320D01*
X76998901Y-92221376D01*
X77148223Y-92313478D01*
X77314760Y-92368663D01*
X77417548Y-92379164D01*
X78967565Y-92379163D01*
X79070354Y-92368663D01*
X79236891Y-92313478D01*
X79386213Y-92221376D01*
X79510269Y-92097320D01*
X79602371Y-91947998D01*
X79657556Y-91781461D01*
X79668057Y-91678673D01*
X79668056Y-90378656D01*
X79657556Y-90275867D01*
X79602371Y-90109330D01*
X79510269Y-89960008D01*
X79386213Y-89835952D01*
X79259793Y-89757976D01*
X79231436Y-89740485D01*
X79184712Y-89688537D01*
X79173489Y-89619574D01*
X79201333Y-89555492D01*
X79208852Y-89547265D01*
X79253025Y-89503092D01*
X79356052Y-89400065D01*
X79491592Y-89206494D01*
X79591460Y-88992327D01*
X79652620Y-88764072D01*
X79673216Y-88528664D01*
X79670497Y-88497592D01*
X79665499Y-88440457D01*
X79652620Y-88293256D01*
X79594838Y-88077608D01*
X79591462Y-88065008D01*
X79591461Y-88065007D01*
X79591460Y-88065001D01*
X79491592Y-87850835D01*
X79491591Y-87850833D01*
X79356051Y-87657261D01*
X79188960Y-87490170D01*
X79031524Y-87379933D01*
X78987899Y-87325356D01*
X78980705Y-87255858D01*
X79012228Y-87193503D01*
X79031524Y-87176783D01*
X79188630Y-87066777D01*
X79188636Y-87066772D01*
X79355662Y-86899746D01*
X79491157Y-86706241D01*
X79491158Y-86706239D01*
X79528380Y-86626417D01*
X79574552Y-86573977D01*
X79641745Y-86554825D01*
X79708626Y-86575040D01*
X79728443Y-86591140D01*
X83538738Y-90401435D01*
X83572223Y-90462758D01*
X83575057Y-90489116D01*
X83575057Y-91678665D01*
X83575058Y-91678682D01*
X83585557Y-91781460D01*
X83585558Y-91781463D01*
X83640742Y-91947995D01*
X83640744Y-91948000D01*
X83651531Y-91965489D01*
X83732845Y-92097320D01*
X83856901Y-92221376D01*
X84006223Y-92313478D01*
X84172760Y-92368663D01*
X84275548Y-92379164D01*
X85825565Y-92379163D01*
X85928354Y-92368663D01*
X86094891Y-92313478D01*
X86244213Y-92221376D01*
X86368269Y-92097320D01*
X86460371Y-91947998D01*
X86515556Y-91781461D01*
X86526057Y-91678673D01*
X86526056Y-90378656D01*
X86515556Y-90275867D01*
X86460371Y-90109330D01*
X86368269Y-89960008D01*
X86244213Y-89835952D01*
X86117793Y-89757976D01*
X86089436Y-89740485D01*
X86042712Y-89688537D01*
X86031489Y-89619574D01*
X86059333Y-89555492D01*
X86066852Y-89547265D01*
X86111025Y-89503092D01*
X86214052Y-89400065D01*
X86349592Y-89206494D01*
X86449460Y-88992327D01*
X86510620Y-88764072D01*
X86531216Y-88528664D01*
X86528497Y-88497592D01*
X86523499Y-88440457D01*
X86510620Y-88293256D01*
X86452838Y-88077608D01*
X86449462Y-88065008D01*
X86449461Y-88065007D01*
X86449460Y-88065001D01*
X86349592Y-87850835D01*
X86349591Y-87850833D01*
X86214051Y-87657261D01*
X86046960Y-87490170D01*
X85889524Y-87379933D01*
X85845899Y-87325356D01*
X85838705Y-87255858D01*
X85870228Y-87193503D01*
X85889524Y-87176783D01*
X86046630Y-87066777D01*
X86046636Y-87066772D01*
X86213662Y-86899746D01*
X86349156Y-86706242D01*
X86386962Y-86625169D01*
X86433134Y-86572730D01*
X86500328Y-86553578D01*
X86567209Y-86573794D01*
G37*
G04 #@! TD.AperFunction*
G04 #@! TA.AperFunction,Conductor*
G36*
X104800968Y-85537460D02*
G01*
X104846723Y-85590264D01*
X104857929Y-85641775D01*
X104857929Y-86742774D01*
X104957069Y-86742774D01*
X104957083Y-86742773D01*
X105058081Y-86732455D01*
X105221729Y-86678228D01*
X105221740Y-86678223D01*
X105368466Y-86587720D01*
X105370742Y-86585445D01*
X105372691Y-86584380D01*
X105374135Y-86583239D01*
X105374329Y-86583485D01*
X105432063Y-86551956D01*
X105501755Y-86556935D01*
X105557691Y-86598803D01*
X105582112Y-86664266D01*
X105582429Y-86673120D01*
X105582429Y-87727223D01*
X105581120Y-87745192D01*
X105577639Y-87768954D01*
X105582193Y-87820993D01*
X105582429Y-87826399D01*
X105582429Y-87834638D01*
X105586235Y-87867203D01*
X105592929Y-87943720D01*
X105594390Y-87950796D01*
X105594332Y-87950807D01*
X105595963Y-87958166D01*
X105596021Y-87958153D01*
X105597686Y-87965179D01*
X105623954Y-88037353D01*
X105648114Y-88110260D01*
X105651165Y-88116803D01*
X105651111Y-88116827D01*
X105654399Y-88123617D01*
X105654450Y-88123592D01*
X105657690Y-88130042D01*
X105657691Y-88130043D01*
X105657692Y-88130046D01*
X105665565Y-88142016D01*
X105699894Y-88194212D01*
X105740216Y-88259584D01*
X105744695Y-88265248D01*
X105744648Y-88265285D01*
X105749411Y-88271131D01*
X105749457Y-88271093D01*
X105754102Y-88276629D01*
X105809947Y-88329315D01*
X106413181Y-88932549D01*
X106446666Y-88993872D01*
X106449500Y-89020230D01*
X106449500Y-93017870D01*
X106449501Y-93017876D01*
X106455908Y-93077483D01*
X106506202Y-93212328D01*
X106506206Y-93212335D01*
X106592452Y-93327544D01*
X106592455Y-93327547D01*
X106707664Y-93413793D01*
X106707671Y-93413797D01*
X106842517Y-93464091D01*
X106842516Y-93464091D01*
X106849444Y-93464835D01*
X106902127Y-93470500D01*
X112597872Y-93470499D01*
X112657483Y-93464091D01*
X112792331Y-93413796D01*
X112907546Y-93327546D01*
X112952711Y-93267213D01*
X113008643Y-93225342D01*
X113078335Y-93220358D01*
X113139658Y-93253843D01*
X113173143Y-93315166D01*
X113175335Y-93328922D01*
X113185319Y-93426652D01*
X113239546Y-93590300D01*
X113239551Y-93590311D01*
X113330052Y-93737034D01*
X113330055Y-93737038D01*
X113451961Y-93858944D01*
X113451965Y-93858947D01*
X113598692Y-93949450D01*
X113602266Y-93951117D01*
X113604305Y-93952913D01*
X113604844Y-93953245D01*
X113604787Y-93953336D01*
X113654706Y-93997289D01*
X113673859Y-94064482D01*
X113653644Y-94131363D01*
X113600480Y-94176699D01*
X113549863Y-94187500D01*
X102143229Y-94187500D01*
X102076190Y-94167815D01*
X102030435Y-94115011D01*
X102020491Y-94045853D01*
X102049516Y-93982297D01*
X102055548Y-93975819D01*
X102474548Y-93556818D01*
X102535871Y-93523333D01*
X102562229Y-93520499D01*
X103597871Y-93520499D01*
X103597872Y-93520499D01*
X103657483Y-93514091D01*
X103792331Y-93463796D01*
X103907546Y-93377546D01*
X103993796Y-93262331D01*
X104044091Y-93127483D01*
X104050500Y-93067873D01*
X104050499Y-91772128D01*
X104044091Y-91712517D01*
X104040076Y-91701753D01*
X103993797Y-91577671D01*
X103993793Y-91577664D01*
X103907547Y-91462455D01*
X103907544Y-91462452D01*
X103792335Y-91376206D01*
X103792328Y-91376202D01*
X103657482Y-91325908D01*
X103657483Y-91325908D01*
X103597883Y-91319501D01*
X103597881Y-91319500D01*
X103597873Y-91319500D01*
X103597864Y-91319500D01*
X101502129Y-91319500D01*
X101502123Y-91319501D01*
X101442517Y-91325908D01*
X101382105Y-91348440D01*
X101312413Y-91353423D01*
X101251091Y-91319936D01*
X101233236Y-91297355D01*
X101227915Y-91288728D01*
X101191133Y-91229095D01*
X101172693Y-91161705D01*
X101191134Y-91098903D01*
X101211657Y-91065631D01*
X101273408Y-90965516D01*
X101327674Y-90801753D01*
X101338000Y-90700677D01*
X101337999Y-90244728D01*
X101357683Y-90177690D01*
X101374313Y-90157053D01*
X102474549Y-89056818D01*
X102535872Y-89023333D01*
X102562230Y-89020499D01*
X103597871Y-89020499D01*
X103597872Y-89020499D01*
X103657483Y-89014091D01*
X103792331Y-88963796D01*
X103907546Y-88877546D01*
X103993796Y-88762331D01*
X104044091Y-88627483D01*
X104050500Y-88567873D01*
X104050499Y-87272128D01*
X104044091Y-87212517D01*
X104036999Y-87193503D01*
X103993797Y-87077671D01*
X103993793Y-87077664D01*
X103907547Y-86962455D01*
X103907544Y-86962452D01*
X103792335Y-86876206D01*
X103792328Y-86876202D01*
X103657482Y-86825908D01*
X103657483Y-86825908D01*
X103597883Y-86819501D01*
X103597881Y-86819500D01*
X103597873Y-86819500D01*
X103597865Y-86819500D01*
X103151446Y-86819500D01*
X103084407Y-86799815D01*
X103038652Y-86747011D01*
X103028708Y-86677853D01*
X103057733Y-86614297D01*
X103086350Y-86589961D01*
X103101727Y-86580477D01*
X103223717Y-86458487D01*
X103314285Y-86311653D01*
X103355696Y-86186682D01*
X103395466Y-86129241D01*
X103459982Y-86102418D01*
X103528758Y-86114733D01*
X103579958Y-86162276D01*
X103591106Y-86186686D01*
X103634975Y-86319075D01*
X103634980Y-86319086D01*
X103725481Y-86465809D01*
X103725484Y-86465813D01*
X103847390Y-86587719D01*
X103847394Y-86587722D01*
X103994117Y-86678223D01*
X103994128Y-86678228D01*
X104157776Y-86732455D01*
X104258780Y-86742774D01*
X104357929Y-86742773D01*
X104357929Y-85641775D01*
X104377614Y-85574736D01*
X104430418Y-85528981D01*
X104481929Y-85517775D01*
X104733929Y-85517775D01*
X104800968Y-85537460D01*
G37*
G04 #@! TD.AperFunction*
G04 #@! TA.AperFunction,Conductor*
G36*
X118507216Y-89187201D02*
G01*
X118556490Y-89236738D01*
X118571500Y-89295875D01*
X118571500Y-92485786D01*
X118571342Y-92490210D01*
X118554834Y-92721017D01*
X118552316Y-92738529D01*
X118504543Y-92958137D01*
X118499559Y-92975112D01*
X118421019Y-93185688D01*
X118413669Y-93201782D01*
X118305959Y-93399036D01*
X118296394Y-93413919D01*
X118161710Y-93593836D01*
X118150124Y-93607207D01*
X117991207Y-93766124D01*
X117977836Y-93777710D01*
X117797919Y-93912394D01*
X117783036Y-93921959D01*
X117585782Y-94029669D01*
X117569688Y-94037019D01*
X117359112Y-94115559D01*
X117342137Y-94120543D01*
X117122529Y-94168316D01*
X117105017Y-94170834D01*
X116891172Y-94186128D01*
X116874208Y-94187342D01*
X116869786Y-94187500D01*
X114750137Y-94187500D01*
X114683098Y-94167815D01*
X114637343Y-94115011D01*
X114627399Y-94045853D01*
X114656424Y-93982297D01*
X114697734Y-93951117D01*
X114701307Y-93949450D01*
X114848034Y-93858947D01*
X114848038Y-93858944D01*
X114969944Y-93737038D01*
X114969947Y-93737034D01*
X115060448Y-93590311D01*
X115060453Y-93590300D01*
X115114680Y-93426652D01*
X115124999Y-93325654D01*
X115125000Y-93325641D01*
X115125000Y-93226500D01*
X114024000Y-93226500D01*
X113956961Y-93206815D01*
X113911206Y-93154011D01*
X113900000Y-93102500D01*
X113900000Y-92850500D01*
X113919685Y-92783461D01*
X113972489Y-92737706D01*
X114024000Y-92726500D01*
X115124999Y-92726500D01*
X115124999Y-92627360D01*
X115124998Y-92627345D01*
X115114680Y-92526347D01*
X115060453Y-92362699D01*
X115060448Y-92362688D01*
X114969947Y-92215965D01*
X114969944Y-92215961D01*
X114956017Y-92202034D01*
X114922532Y-92140711D01*
X114927516Y-92071019D01*
X114956017Y-92026672D01*
X114970340Y-92012350D01*
X115060908Y-91865516D01*
X115115174Y-91701753D01*
X115125500Y-91600677D01*
X115125499Y-90902324D01*
X115115174Y-90801247D01*
X115060908Y-90637484D01*
X114970340Y-90490650D01*
X114849871Y-90370181D01*
X114816386Y-90308858D01*
X114821370Y-90239166D01*
X114863242Y-90183233D01*
X114928706Y-90158816D01*
X114937552Y-90158500D01*
X117030295Y-90158500D01*
X117048265Y-90159809D01*
X117072023Y-90163289D01*
X117124068Y-90158735D01*
X117129470Y-90158500D01*
X117137704Y-90158500D01*
X117137709Y-90158500D01*
X117150130Y-90157048D01*
X117170276Y-90154693D01*
X117183028Y-90153577D01*
X117246797Y-90147999D01*
X117246805Y-90147996D01*
X117253866Y-90146539D01*
X117253878Y-90146598D01*
X117261243Y-90144965D01*
X117261229Y-90144906D01*
X117268246Y-90143241D01*
X117268255Y-90143241D01*
X117340423Y-90116974D01*
X117413334Y-90092814D01*
X117413343Y-90092807D01*
X117419882Y-90089760D01*
X117419908Y-90089816D01*
X117426690Y-90086532D01*
X117426663Y-90086478D01*
X117433106Y-90083240D01*
X117433117Y-90083237D01*
X117497283Y-90041034D01*
X117562656Y-90000712D01*
X117562662Y-90000705D01*
X117568325Y-89996229D01*
X117568363Y-89996277D01*
X117574200Y-89991522D01*
X117574161Y-89991475D01*
X117579696Y-89986830D01*
X117632385Y-89930983D01*
X118163308Y-89400059D01*
X118341642Y-89221724D01*
X118355261Y-89209954D01*
X118373456Y-89196408D01*
X118438983Y-89172168D01*
X118507216Y-89187201D01*
G37*
G04 #@! TD.AperFunction*
G04 #@! TA.AperFunction,Conductor*
G36*
X97530702Y-90807034D02*
G01*
X97567205Y-90861743D01*
X97601591Y-90965513D01*
X97601593Y-90965518D01*
X97650220Y-91044354D01*
X97668660Y-91111747D01*
X97647737Y-91178410D01*
X97594095Y-91223180D01*
X97524765Y-91231841D01*
X97461757Y-91201644D01*
X97457000Y-91197132D01*
X97361818Y-91101950D01*
X97328333Y-91040627D01*
X97325499Y-91014269D01*
X97325499Y-90900747D01*
X97345184Y-90833708D01*
X97397988Y-90787953D01*
X97467146Y-90778009D01*
X97530702Y-90807034D01*
G37*
G04 #@! TD.AperFunction*
G04 #@! TA.AperFunction,Conductor*
G36*
X95458539Y-84590185D02*
G01*
X95504294Y-84642989D01*
X95515500Y-84694500D01*
X95515500Y-87312294D01*
X95514191Y-87330263D01*
X95510710Y-87354025D01*
X95515264Y-87406064D01*
X95515500Y-87411470D01*
X95515500Y-87419709D01*
X95519306Y-87452274D01*
X95526000Y-87528791D01*
X95527461Y-87535867D01*
X95527403Y-87535878D01*
X95529034Y-87543237D01*
X95529092Y-87543224D01*
X95530757Y-87550250D01*
X95557025Y-87622424D01*
X95581185Y-87695331D01*
X95584236Y-87701874D01*
X95584182Y-87701898D01*
X95587470Y-87708688D01*
X95587521Y-87708663D01*
X95590761Y-87715113D01*
X95590762Y-87715114D01*
X95590763Y-87715117D01*
X95624013Y-87765672D01*
X95632965Y-87779283D01*
X95673287Y-87844655D01*
X95677766Y-87850319D01*
X95677719Y-87850356D01*
X95682482Y-87856202D01*
X95682528Y-87856164D01*
X95687173Y-87861700D01*
X95743017Y-87914385D01*
X97468270Y-89639638D01*
X97480051Y-89653270D01*
X97494388Y-89672528D01*
X97534409Y-89706111D01*
X97538397Y-89709766D01*
X97544220Y-89715589D01*
X97560141Y-89728177D01*
X97600520Y-89785197D01*
X97603661Y-89854996D01*
X97600940Y-89864450D01*
X97547326Y-90026247D01*
X97547325Y-90026248D01*
X97537000Y-90127315D01*
X97537000Y-90602251D01*
X97517315Y-90669290D01*
X97464511Y-90715045D01*
X97395353Y-90724989D01*
X97331797Y-90695964D01*
X97295295Y-90641256D01*
X97260908Y-90537484D01*
X97170340Y-90390650D01*
X97048350Y-90268660D01*
X96957129Y-90212395D01*
X96901518Y-90178093D01*
X96901513Y-90178091D01*
X96900069Y-90177612D01*
X96737753Y-90123826D01*
X96737751Y-90123825D01*
X96636684Y-90113500D01*
X96636677Y-90113500D01*
X96424730Y-90113500D01*
X96357691Y-90093815D01*
X96337049Y-90077181D01*
X94320384Y-88060516D01*
X94308604Y-88046885D01*
X94300138Y-88035514D01*
X94294267Y-88027627D01*
X94294265Y-88027625D01*
X94254242Y-87994041D01*
X94250267Y-87990399D01*
X94247345Y-87987477D01*
X94244435Y-87984566D01*
X94218695Y-87964214D01*
X94178943Y-87930858D01*
X94159869Y-87914853D01*
X94159868Y-87914852D01*
X94159864Y-87914849D01*
X94153835Y-87910884D01*
X94153867Y-87910835D01*
X94147508Y-87906783D01*
X94147477Y-87906834D01*
X94141335Y-87903046D01*
X94141333Y-87903045D01*
X94141332Y-87903044D01*
X94102129Y-87884763D01*
X94071713Y-87870579D01*
X94031371Y-87850319D01*
X94003088Y-87836115D01*
X94003086Y-87836114D01*
X94003085Y-87836114D01*
X93996300Y-87833644D01*
X93996320Y-87833588D01*
X93989204Y-87831114D01*
X93989186Y-87831170D01*
X93982326Y-87828897D01*
X93954496Y-87823151D01*
X93907089Y-87813362D01*
X93858127Y-87801758D01*
X93832374Y-87795654D01*
X93825202Y-87794816D01*
X93825208Y-87794756D01*
X93817710Y-87793990D01*
X93817705Y-87794050D01*
X93810515Y-87793420D01*
X93733738Y-87795655D01*
X93240578Y-87795655D01*
X93173539Y-87775970D01*
X93139003Y-87742778D01*
X93091370Y-87674751D01*
X92924280Y-87507661D01*
X92766844Y-87397424D01*
X92723219Y-87342847D01*
X92716025Y-87273349D01*
X92747548Y-87210994D01*
X92766844Y-87194274D01*
X92923950Y-87084268D01*
X92923956Y-87084263D01*
X93090982Y-86917237D01*
X93226477Y-86723733D01*
X93326306Y-86509647D01*
X93326309Y-86509641D01*
X93383513Y-86296155D01*
X92331846Y-86296155D01*
X92364396Y-86245506D01*
X92402877Y-86114450D01*
X92402877Y-85977860D01*
X92364396Y-85846804D01*
X92331846Y-85796155D01*
X93383513Y-85796155D01*
X93383512Y-85796154D01*
X93326309Y-85582668D01*
X93326306Y-85582662D01*
X93226477Y-85368577D01*
X93226476Y-85368575D01*
X93090990Y-85175081D01*
X93090985Y-85175075D01*
X92923956Y-85008046D01*
X92923950Y-85008041D01*
X92730456Y-84872555D01*
X92730454Y-84872554D01*
X92589620Y-84806882D01*
X92537181Y-84760710D01*
X92518029Y-84693516D01*
X92538245Y-84626635D01*
X92591410Y-84581300D01*
X92642025Y-84570500D01*
X95391500Y-84570500D01*
X95458539Y-84590185D01*
G37*
G04 #@! TD.AperFunction*
G04 #@! TA.AperFunction,Conductor*
G36*
X91280768Y-84590185D02*
G01*
X91326523Y-84642989D01*
X91336467Y-84712147D01*
X91307442Y-84775703D01*
X91266134Y-84806882D01*
X91125299Y-84872554D01*
X91125297Y-84872555D01*
X90931803Y-85008041D01*
X90931797Y-85008046D01*
X90764771Y-85175072D01*
X90629276Y-85368576D01*
X90529447Y-85582662D01*
X90529444Y-85582668D01*
X90472241Y-85796154D01*
X90472241Y-85796155D01*
X91523908Y-85796155D01*
X91491358Y-85846804D01*
X91452877Y-85977860D01*
X91452877Y-86114450D01*
X91491358Y-86245506D01*
X91523908Y-86296155D01*
X90472241Y-86296155D01*
X90529444Y-86509641D01*
X90529447Y-86509647D01*
X90629276Y-86723732D01*
X90629277Y-86723734D01*
X90764763Y-86917228D01*
X90764768Y-86917234D01*
X90931797Y-87084263D01*
X90931803Y-87084268D01*
X91088908Y-87194274D01*
X91132533Y-87248851D01*
X91139727Y-87318349D01*
X91108204Y-87380704D01*
X91088909Y-87397424D01*
X90931471Y-87507663D01*
X90764383Y-87674752D01*
X90764378Y-87674759D01*
X90628844Y-87868320D01*
X90628842Y-87868324D01*
X90570216Y-87994048D01*
X90531252Y-88077608D01*
X90528975Y-88082490D01*
X90528971Y-88082499D01*
X90467815Y-88310741D01*
X90467813Y-88310751D01*
X90459553Y-88405160D01*
X90434100Y-88470228D01*
X90377508Y-88511206D01*
X90307746Y-88515083D01*
X90248344Y-88482032D01*
X86548494Y-84782181D01*
X86515009Y-84720858D01*
X86519993Y-84651166D01*
X86561865Y-84595233D01*
X86627329Y-84570816D01*
X86636175Y-84570500D01*
X91213729Y-84570500D01*
X91280768Y-84590185D01*
G37*
G04 #@! TD.AperFunction*
G04 #@! TA.AperFunction,Conductor*
G36*
X76395703Y-83258846D02*
G01*
X76402181Y-83264878D01*
X77679706Y-84542403D01*
X77713191Y-84603726D01*
X77708207Y-84673418D01*
X77666335Y-84729351D01*
X77624122Y-84749858D01*
X77604074Y-84755230D01*
X77604064Y-84755234D01*
X77389979Y-84855063D01*
X77389977Y-84855064D01*
X77196483Y-84990550D01*
X77196477Y-84990555D01*
X77029451Y-85157581D01*
X76893956Y-85351085D01*
X76794127Y-85565171D01*
X76794124Y-85565177D01*
X76736921Y-85778663D01*
X76736921Y-85778664D01*
X77788588Y-85778664D01*
X77756038Y-85829313D01*
X77717557Y-85960369D01*
X77717557Y-86096959D01*
X77756038Y-86228015D01*
X77788588Y-86278664D01*
X76736921Y-86278664D01*
X76794124Y-86492150D01*
X76794127Y-86492156D01*
X76893956Y-86706241D01*
X76893957Y-86706243D01*
X77029443Y-86899737D01*
X77029448Y-86899743D01*
X77196477Y-87066772D01*
X77196483Y-87066777D01*
X77353588Y-87176783D01*
X77397213Y-87231360D01*
X77404407Y-87300858D01*
X77372884Y-87363213D01*
X77353589Y-87379933D01*
X77196151Y-87490172D01*
X77029063Y-87657261D01*
X77029058Y-87657268D01*
X76893524Y-87850829D01*
X76893522Y-87850833D01*
X76793655Y-88064999D01*
X76793651Y-88065008D01*
X76732495Y-88293250D01*
X76732493Y-88293260D01*
X76724233Y-88387669D01*
X76698780Y-88452737D01*
X76642188Y-88493715D01*
X76572426Y-88497592D01*
X76513024Y-88464541D01*
X76453643Y-88405160D01*
X76226819Y-88178335D01*
X76193334Y-88117012D01*
X76190500Y-88090654D01*
X76190500Y-83352559D01*
X76210185Y-83285520D01*
X76262989Y-83239765D01*
X76332147Y-83229821D01*
X76395703Y-83258846D01*
G37*
G04 #@! TD.AperFunction*
G04 #@! TA.AperFunction,Conductor*
G36*
X77409541Y-81345589D02*
G01*
X77427310Y-81360289D01*
X77431632Y-81364222D01*
X81160194Y-85092784D01*
X81170019Y-85105048D01*
X81170240Y-85104866D01*
X81175210Y-85110873D01*
X81175213Y-85110876D01*
X81175214Y-85110877D01*
X81225651Y-85158241D01*
X81246530Y-85179120D01*
X81252004Y-85183366D01*
X81256442Y-85187156D01*
X81290418Y-85219062D01*
X81290422Y-85219064D01*
X81307973Y-85228713D01*
X81324231Y-85239392D01*
X81340064Y-85251674D01*
X81362015Y-85261172D01*
X81382837Y-85270183D01*
X81388081Y-85272752D01*
X81428908Y-85295197D01*
X81448312Y-85300179D01*
X81466710Y-85306478D01*
X81485105Y-85314438D01*
X81531129Y-85321726D01*
X81536832Y-85322907D01*
X81581981Y-85334500D01*
X81602016Y-85334500D01*
X81621413Y-85336026D01*
X81641196Y-85339160D01*
X81687584Y-85334775D01*
X81693422Y-85334500D01*
X83565050Y-85334500D01*
X83632089Y-85354185D01*
X83677844Y-85406989D01*
X83687788Y-85476147D01*
X83677432Y-85510905D01*
X83652126Y-85565171D01*
X83652124Y-85565177D01*
X83594921Y-85778663D01*
X83594921Y-85778664D01*
X84646588Y-85778664D01*
X84614038Y-85829313D01*
X84575557Y-85960369D01*
X84575557Y-86096959D01*
X84614038Y-86228015D01*
X84646588Y-86278664D01*
X83594921Y-86278664D01*
X83652124Y-86492150D01*
X83652127Y-86492156D01*
X83751956Y-86706241D01*
X83751957Y-86706243D01*
X83887443Y-86899737D01*
X83887448Y-86899743D01*
X84054477Y-87066772D01*
X84054483Y-87066777D01*
X84211588Y-87176783D01*
X84255213Y-87231360D01*
X84262407Y-87300858D01*
X84230884Y-87363213D01*
X84211589Y-87379933D01*
X84054151Y-87490172D01*
X83887063Y-87657261D01*
X83887058Y-87657268D01*
X83751524Y-87850829D01*
X83751522Y-87850833D01*
X83651655Y-88064999D01*
X83651651Y-88065008D01*
X83590495Y-88293250D01*
X83590493Y-88293260D01*
X83582233Y-88387668D01*
X83556780Y-88452736D01*
X83500188Y-88493714D01*
X83430426Y-88497591D01*
X83371024Y-88464540D01*
X77242819Y-82336335D01*
X77209334Y-82275012D01*
X77206500Y-82248654D01*
X77206500Y-81441132D01*
X77226185Y-81374093D01*
X77278989Y-81328338D01*
X77348147Y-81318394D01*
X77409541Y-81345589D01*
G37*
G04 #@! TD.AperFunction*
G04 #@! TA.AperFunction,Conductor*
G36*
X108780039Y-84473184D02*
G01*
X108825794Y-84525988D01*
X108837000Y-84577499D01*
X108837000Y-84953000D01*
X109059001Y-84953000D01*
X109126040Y-84972685D01*
X109171795Y-85025489D01*
X109183001Y-85077000D01*
X109183001Y-85156155D01*
X109193319Y-85257151D01*
X109201055Y-85280498D01*
X109203455Y-85350326D01*
X109167723Y-85410367D01*
X109105202Y-85441559D01*
X109083348Y-85443500D01*
X108976148Y-85443500D01*
X108909109Y-85423815D01*
X108888467Y-85407181D01*
X108598324Y-85117038D01*
X108564839Y-85055715D01*
X108569823Y-84986023D01*
X108587000Y-84959295D01*
X108587000Y-84577499D01*
X108606685Y-84510460D01*
X108659489Y-84464705D01*
X108710997Y-84453499D01*
X108713001Y-84453499D01*
X108780039Y-84473184D01*
G37*
G04 #@! TD.AperFunction*
G04 #@! TA.AperFunction,Conductor*
G36*
X104698563Y-80473185D02*
G01*
X104744318Y-80525989D01*
X104754841Y-80564506D01*
X104754894Y-80565009D01*
X104754867Y-80591257D01*
X104754409Y-80595516D01*
X104754409Y-80595517D01*
X104748000Y-80655127D01*
X104748000Y-80655132D01*
X104748000Y-80655133D01*
X104748000Y-81000869D01*
X104748001Y-81000879D01*
X104754867Y-81064751D01*
X104754867Y-81091257D01*
X104754409Y-81095516D01*
X104754409Y-81095517D01*
X104748000Y-81155127D01*
X104748000Y-81155131D01*
X104748000Y-81155132D01*
X104748000Y-81210871D01*
X104728315Y-81277910D01*
X104675511Y-81323665D01*
X104611398Y-81334229D01*
X104506254Y-81323487D01*
X104469598Y-81323487D01*
X104469598Y-82110987D01*
X104687150Y-82110987D01*
X104754189Y-82130672D01*
X104799944Y-82183476D01*
X104803332Y-82191653D01*
X104804703Y-82195329D01*
X104804706Y-82195335D01*
X104890952Y-82310544D01*
X104890955Y-82310547D01*
X104994045Y-82387721D01*
X105035916Y-82443655D01*
X105040900Y-82513346D01*
X105007414Y-82574669D01*
X104946091Y-82608153D01*
X104919734Y-82610987D01*
X103244599Y-82610987D01*
X103244599Y-82710141D01*
X103254917Y-82811140D01*
X103304364Y-82960363D01*
X103306766Y-83030191D01*
X103271034Y-83090233D01*
X103208513Y-83121425D01*
X103139054Y-83113864D01*
X103108216Y-83093229D01*
X103107390Y-83094275D01*
X103101729Y-83089798D01*
X102954895Y-82999230D01*
X102954890Y-82999228D01*
X102855496Y-82966292D01*
X102798051Y-82926519D01*
X102771228Y-82862003D01*
X102770500Y-82848586D01*
X102770500Y-82061452D01*
X102790185Y-81994413D01*
X102806819Y-81973771D01*
X102932880Y-81847710D01*
X103075842Y-81704747D01*
X103137163Y-81671264D01*
X103206854Y-81676248D01*
X103262788Y-81718119D01*
X103287205Y-81783584D01*
X103281227Y-81831433D01*
X103254917Y-81910832D01*
X103254917Y-81910833D01*
X103244598Y-82011832D01*
X103244598Y-82110987D01*
X103969598Y-82110987D01*
X103969598Y-81323487D01*
X103932959Y-81323487D01*
X103932941Y-81323488D01*
X103831944Y-81333806D01*
X103752544Y-81360116D01*
X103682715Y-81362517D01*
X103622674Y-81326785D01*
X103591482Y-81264264D01*
X103599043Y-81194805D01*
X103625857Y-81154732D01*
X104290771Y-80489819D01*
X104352094Y-80456334D01*
X104378452Y-80453500D01*
X104631524Y-80453500D01*
X104698563Y-80473185D01*
G37*
G04 #@! TD.AperFunction*
G04 #@! TA.AperFunction,Conductor*
G36*
X106629201Y-81333547D02*
G01*
X106666976Y-81392325D01*
X106671219Y-81413377D01*
X106678896Y-81481516D01*
X106678897Y-81481520D01*
X106738477Y-81651789D01*
X106792431Y-81737655D01*
X106834450Y-81804528D01*
X106962004Y-81932082D01*
X107011181Y-81962982D01*
X107071482Y-82000872D01*
X107114744Y-82028055D01*
X107250691Y-82075625D01*
X107285011Y-82087634D01*
X107285015Y-82087635D01*
X107325772Y-82092227D01*
X107390186Y-82119293D01*
X107429741Y-82176888D01*
X107431879Y-82246724D01*
X107399570Y-82303128D01*
X106667208Y-83035490D01*
X106654951Y-83045311D01*
X106655134Y-83045532D01*
X106649121Y-83050506D01*
X106637889Y-83062467D01*
X106577647Y-83097860D01*
X106507833Y-83095064D01*
X106450613Y-83054968D01*
X106424154Y-82990302D01*
X106423500Y-82977580D01*
X106423500Y-82953000D01*
X106423448Y-82952948D01*
X106356585Y-82933315D01*
X106324353Y-82903305D01*
X106322856Y-82901305D01*
X106298442Y-82835839D01*
X106313298Y-82767567D01*
X106362706Y-82718164D01*
X106422127Y-82703000D01*
X106423500Y-82703000D01*
X106423500Y-82655172D01*
X106423499Y-82655158D01*
X106416628Y-82591257D01*
X106416628Y-82564743D01*
X106423499Y-82500841D01*
X106423500Y-82500827D01*
X106423500Y-82453000D01*
X106422127Y-82453000D01*
X106355088Y-82433315D01*
X106309333Y-82380511D01*
X106299389Y-82311353D01*
X106322856Y-82254695D01*
X106324353Y-82252695D01*
X106380284Y-82210821D01*
X106423472Y-82203027D01*
X106423500Y-82203000D01*
X106423500Y-82155172D01*
X106423499Y-82155160D01*
X106416880Y-82093604D01*
X106416880Y-82067090D01*
X106417590Y-82060485D01*
X106417591Y-82060483D01*
X106424000Y-82000873D01*
X106423999Y-81655128D01*
X106417591Y-81595517D01*
X106417589Y-81595513D01*
X106417132Y-81591255D01*
X106417132Y-81564745D01*
X106417589Y-81560486D01*
X106417591Y-81560483D01*
X106424000Y-81500873D01*
X106423999Y-81427260D01*
X106443683Y-81360223D01*
X106496486Y-81314467D01*
X106565644Y-81304523D01*
X106629201Y-81333547D01*
G37*
G04 #@! TD.AperFunction*
G04 #@! TA.AperFunction,Conductor*
G36*
X80999586Y-80618184D02*
G01*
X81020228Y-80634818D01*
X81795194Y-81409784D01*
X81805019Y-81422048D01*
X81805240Y-81421866D01*
X81810210Y-81427873D01*
X81810213Y-81427876D01*
X81810214Y-81427877D01*
X81860651Y-81475241D01*
X81881530Y-81496120D01*
X81887004Y-81500366D01*
X81891442Y-81504156D01*
X81925418Y-81536062D01*
X81925422Y-81536064D01*
X81942973Y-81545713D01*
X81959231Y-81556392D01*
X81975064Y-81568674D01*
X81996616Y-81578000D01*
X82017837Y-81587183D01*
X82023081Y-81589752D01*
X82063908Y-81612197D01*
X82083312Y-81617179D01*
X82101710Y-81623478D01*
X82120105Y-81631438D01*
X82166129Y-81638726D01*
X82171832Y-81639907D01*
X82216981Y-81651500D01*
X82237016Y-81651500D01*
X82256413Y-81653026D01*
X82276196Y-81656160D01*
X82322584Y-81651775D01*
X82328422Y-81651500D01*
X91231653Y-81651500D01*
X91247273Y-81653224D01*
X91247300Y-81652939D01*
X91255056Y-81653671D01*
X91255063Y-81653673D01*
X91324210Y-81651500D01*
X91353746Y-81651500D01*
X91360624Y-81650630D01*
X91366437Y-81650172D01*
X91413023Y-81648709D01*
X91432265Y-81643117D01*
X91451308Y-81639174D01*
X91471188Y-81636664D01*
X91514518Y-81619507D01*
X91520042Y-81617617D01*
X91523792Y-81616527D01*
X91564786Y-81604618D01*
X91582025Y-81594422D01*
X91599499Y-81585862D01*
X91618123Y-81578488D01*
X91618123Y-81578487D01*
X91618128Y-81578486D01*
X91655845Y-81551082D01*
X91660701Y-81547892D01*
X91700816Y-81524170D01*
X91714985Y-81509999D01*
X91729775Y-81497368D01*
X91745983Y-81485594D01*
X91775695Y-81449676D01*
X91779608Y-81445376D01*
X92309040Y-80915944D01*
X92370361Y-80882461D01*
X92440053Y-80887445D01*
X92495986Y-80929317D01*
X92502254Y-80938524D01*
X92524660Y-80974850D01*
X92646650Y-81096840D01*
X92793484Y-81187408D01*
X92957247Y-81241674D01*
X93058323Y-81252000D01*
X93631676Y-81251999D01*
X93631684Y-81251998D01*
X93631687Y-81251998D01*
X93687030Y-81246344D01*
X93732753Y-81241674D01*
X93896516Y-81187408D01*
X94008496Y-81118337D01*
X94075888Y-81099897D01*
X94142552Y-81120819D01*
X94187321Y-81174461D01*
X94195983Y-81243792D01*
X94179132Y-81288973D01*
X94085548Y-81440694D01*
X94085546Y-81440699D01*
X94031319Y-81604347D01*
X94021000Y-81705345D01*
X94021000Y-81792000D01*
X95122000Y-81792000D01*
X95189039Y-81811685D01*
X95234794Y-81864489D01*
X95246000Y-81916000D01*
X95246000Y-82168000D01*
X95226315Y-82235039D01*
X95173511Y-82280794D01*
X95122000Y-82292000D01*
X94021001Y-82292000D01*
X94021001Y-82378654D01*
X94031319Y-82479652D01*
X94085546Y-82643300D01*
X94085551Y-82643311D01*
X94176052Y-82790034D01*
X94176055Y-82790038D01*
X94243836Y-82857819D01*
X94277321Y-82919142D01*
X94272337Y-82988834D01*
X94230465Y-83044767D01*
X94165001Y-83069184D01*
X94156155Y-83069500D01*
X82912229Y-83069500D01*
X82845190Y-83049815D01*
X82824548Y-83033181D01*
X80601548Y-80810180D01*
X80568063Y-80748857D01*
X80573047Y-80679165D01*
X80614919Y-80623232D01*
X80680383Y-80598815D01*
X80689229Y-80598499D01*
X80932547Y-80598499D01*
X80999586Y-80618184D01*
G37*
G04 #@! TD.AperFunction*
G04 #@! TA.AperFunction,Conductor*
G36*
X115014821Y-75346185D02*
G01*
X115060163Y-75398094D01*
X115125100Y-75537350D01*
X115157965Y-75607830D01*
X115157967Y-75607834D01*
X115293501Y-75801395D01*
X115293506Y-75801402D01*
X115460597Y-75968493D01*
X115460603Y-75968498D01*
X115520214Y-76010238D01*
X115584169Y-76055020D01*
X115646594Y-76098730D01*
X115690219Y-76153307D01*
X115697413Y-76222805D01*
X115665890Y-76285160D01*
X115646595Y-76301880D01*
X115460922Y-76431890D01*
X115460920Y-76431891D01*
X115293891Y-76598920D01*
X115293886Y-76598926D01*
X115158400Y-76792420D01*
X115158399Y-76792422D01*
X115058570Y-77006507D01*
X115058567Y-77006513D01*
X115001364Y-77219999D01*
X115001364Y-77220000D01*
X115898314Y-77220000D01*
X115872507Y-77260156D01*
X115832000Y-77398111D01*
X115832000Y-77541889D01*
X115872507Y-77679844D01*
X115898314Y-77720000D01*
X115001364Y-77720000D01*
X115058567Y-77933486D01*
X115058570Y-77933492D01*
X115158399Y-78147578D01*
X115293894Y-78341082D01*
X115460917Y-78508105D01*
X115647031Y-78638425D01*
X115690656Y-78693003D01*
X115697848Y-78762501D01*
X115666326Y-78824856D01*
X115647031Y-78841575D01*
X115460922Y-78971890D01*
X115460920Y-78971891D01*
X115293891Y-79138920D01*
X115293886Y-79138926D01*
X115158400Y-79332420D01*
X115158399Y-79332422D01*
X115058570Y-79546507D01*
X115058567Y-79546513D01*
X115001364Y-79759999D01*
X115001364Y-79760000D01*
X115898314Y-79760000D01*
X115872507Y-79800156D01*
X115832000Y-79938111D01*
X115832000Y-80081889D01*
X115872507Y-80219844D01*
X115898314Y-80260000D01*
X115001364Y-80260000D01*
X115058567Y-80473486D01*
X115058570Y-80473492D01*
X115158399Y-80687578D01*
X115293894Y-80881082D01*
X115460917Y-81048105D01*
X115646595Y-81178119D01*
X115690219Y-81232696D01*
X115697412Y-81302195D01*
X115665890Y-81364549D01*
X115646595Y-81381269D01*
X115460594Y-81511508D01*
X115293505Y-81678597D01*
X115183750Y-81835345D01*
X115129173Y-81878970D01*
X115059675Y-81886164D01*
X114997320Y-81854641D01*
X114994494Y-81851903D01*
X114380015Y-81237424D01*
X114346530Y-81176101D01*
X114351514Y-81106409D01*
X114380014Y-81062063D01*
X114421816Y-81020262D01*
X114517789Y-80867522D01*
X114577368Y-80697255D01*
X114578458Y-80687583D01*
X114597565Y-80518003D01*
X114597565Y-80517996D01*
X114577369Y-80338750D01*
X114577368Y-80338745D01*
X114570751Y-80319834D01*
X114517789Y-80168478D01*
X114486952Y-80119402D01*
X114421815Y-80015737D01*
X114294260Y-79888182D01*
X114294258Y-79888181D01*
X114221527Y-79842480D01*
X114175236Y-79790145D01*
X114163500Y-79737487D01*
X114163500Y-75773481D01*
X114183185Y-75706442D01*
X114222404Y-75667942D01*
X114223295Y-75667392D01*
X114236350Y-75659340D01*
X114358340Y-75537350D01*
X114448908Y-75390516D01*
X114448908Y-75390513D01*
X114452061Y-75385403D01*
X114504009Y-75338679D01*
X114557600Y-75326500D01*
X114947782Y-75326500D01*
X115014821Y-75346185D01*
G37*
G04 #@! TD.AperFunction*
G04 #@! TA.AperFunction,Conductor*
G36*
X116582000Y-79574498D02*
G01*
X116474315Y-79525320D01*
X116367763Y-79510000D01*
X116296237Y-79510000D01*
X116189685Y-79525320D01*
X116082000Y-79574498D01*
X116082000Y-77905501D01*
X116189685Y-77954680D01*
X116296237Y-77970000D01*
X116367763Y-77970000D01*
X116474315Y-77954680D01*
X116582000Y-77905501D01*
X116582000Y-79574498D01*
G37*
G04 #@! TD.AperFunction*
G04 #@! TA.AperFunction,Conductor*
G36*
X83550354Y-71995749D02*
G01*
X83606287Y-72037621D01*
X83619402Y-72059526D01*
X83684879Y-72199940D01*
X83684880Y-72199942D01*
X83820420Y-72393514D01*
X83967982Y-72541076D01*
X84001467Y-72602399D01*
X83996483Y-72672091D01*
X83954611Y-72728024D01*
X83945398Y-72734295D01*
X83790574Y-72829792D01*
X83790570Y-72829795D01*
X83666599Y-72953766D01*
X83574558Y-73102987D01*
X83574556Y-73102992D01*
X83519409Y-73269414D01*
X83519408Y-73269421D01*
X83508915Y-73372125D01*
X83508915Y-73772112D01*
X84575229Y-73772112D01*
X84549422Y-73812268D01*
X84508915Y-73950223D01*
X84508915Y-74094001D01*
X84549422Y-74231956D01*
X84575229Y-74272112D01*
X83508916Y-74272112D01*
X83508916Y-74672098D01*
X83519409Y-74774809D01*
X83574556Y-74941231D01*
X83574558Y-74941236D01*
X83666599Y-75090457D01*
X83790569Y-75214427D01*
X83939790Y-75306468D01*
X83939795Y-75306470D01*
X84106217Y-75361617D01*
X84106224Y-75361618D01*
X84208934Y-75372111D01*
X84758914Y-75372111D01*
X84758915Y-75372110D01*
X84758915Y-74457613D01*
X84866600Y-74506792D01*
X84973152Y-74522112D01*
X85044678Y-74522112D01*
X85151230Y-74506792D01*
X85258915Y-74457613D01*
X85258915Y-75372111D01*
X85808887Y-75372111D01*
X85808901Y-75372110D01*
X85911612Y-75361617D01*
X86079496Y-75305986D01*
X86149324Y-75303584D01*
X86209366Y-75339316D01*
X86240559Y-75401836D01*
X86242500Y-75423692D01*
X86242500Y-77864334D01*
X86222815Y-77931373D01*
X86170011Y-77977128D01*
X86100853Y-77987072D01*
X86066096Y-77976716D01*
X86061497Y-77974571D01*
X86061486Y-77974567D01*
X85848000Y-77917364D01*
X85848000Y-78812498D01*
X85740315Y-78763320D01*
X85633763Y-78748000D01*
X85562237Y-78748000D01*
X85455685Y-78763320D01*
X85348000Y-78812498D01*
X85348000Y-77917364D01*
X85347999Y-77917364D01*
X85134513Y-77974567D01*
X85134507Y-77974570D01*
X84920422Y-78074399D01*
X84920420Y-78074400D01*
X84726926Y-78209886D01*
X84726920Y-78209891D01*
X84559891Y-78376920D01*
X84559890Y-78376922D01*
X84429880Y-78562595D01*
X84375303Y-78606219D01*
X84305804Y-78613412D01*
X84243450Y-78581890D01*
X84226730Y-78562594D01*
X84096494Y-78376597D01*
X83929402Y-78209506D01*
X83929395Y-78209501D01*
X83735834Y-78073967D01*
X83735830Y-78073965D01*
X83683500Y-78049563D01*
X83521663Y-77974097D01*
X83521659Y-77974096D01*
X83521655Y-77974094D01*
X83293413Y-77912938D01*
X83293403Y-77912936D01*
X83058804Y-77892411D01*
X82993736Y-77866958D01*
X82981931Y-77856564D01*
X82206729Y-77081361D01*
X82194949Y-77067730D01*
X82181423Y-77049562D01*
X82180612Y-77048472D01*
X82180610Y-77048470D01*
X82140587Y-77014886D01*
X82136612Y-77011244D01*
X82133690Y-77008322D01*
X82130780Y-77005411D01*
X82105040Y-76985059D01*
X82083625Y-76967090D01*
X82046214Y-76935698D01*
X82046213Y-76935697D01*
X82046209Y-76935694D01*
X82040180Y-76931729D01*
X82040212Y-76931680D01*
X82033853Y-76927628D01*
X82033822Y-76927679D01*
X82027680Y-76923891D01*
X82027678Y-76923890D01*
X82027677Y-76923889D01*
X81978631Y-76901018D01*
X81958058Y-76891424D01*
X81921971Y-76873301D01*
X81889433Y-76856960D01*
X81889431Y-76856959D01*
X81889430Y-76856959D01*
X81882645Y-76854489D01*
X81882665Y-76854433D01*
X81875549Y-76851959D01*
X81875531Y-76852015D01*
X81868671Y-76849742D01*
X81839848Y-76843791D01*
X81793434Y-76834207D01*
X81744472Y-76822603D01*
X81718719Y-76816499D01*
X81711547Y-76815661D01*
X81711553Y-76815601D01*
X81704055Y-76814835D01*
X81704050Y-76814895D01*
X81696860Y-76814265D01*
X81620083Y-76816500D01*
X79545309Y-76816500D01*
X79527339Y-76815191D01*
X79503576Y-76811710D01*
X79458494Y-76815655D01*
X79451537Y-76816264D01*
X79446136Y-76816500D01*
X79437892Y-76816500D01*
X79405311Y-76820308D01*
X79328803Y-76827001D01*
X79321737Y-76828461D01*
X79321725Y-76828404D01*
X79314358Y-76830038D01*
X79314372Y-76830094D01*
X79307355Y-76831756D01*
X79235177Y-76858026D01*
X79162266Y-76882187D01*
X79155723Y-76885238D01*
X79155698Y-76885186D01*
X79148914Y-76888470D01*
X79148940Y-76888521D01*
X79142489Y-76891761D01*
X79078327Y-76933961D01*
X79012950Y-76974285D01*
X79007286Y-76978765D01*
X79007250Y-76978719D01*
X79001402Y-76983484D01*
X79001439Y-76983528D01*
X78995914Y-76988164D01*
X78943218Y-77044017D01*
X78732358Y-77254876D01*
X78718729Y-77266655D01*
X78699469Y-77280994D01*
X78695488Y-77285739D01*
X78637315Y-77324440D01*
X78567454Y-77325547D01*
X78508085Y-77288708D01*
X78478057Y-77225620D01*
X78476500Y-77206031D01*
X78476500Y-77018452D01*
X78496185Y-76951413D01*
X78512819Y-76930771D01*
X80961389Y-74482201D01*
X83419341Y-72024248D01*
X83480662Y-71990765D01*
X83550354Y-71995749D01*
G37*
G04 #@! TD.AperFunction*
G04 #@! TA.AperFunction,Conductor*
G36*
X82204586Y-69352185D02*
G01*
X82250341Y-69404989D01*
X82260285Y-69474147D01*
X82231260Y-69537703D01*
X82225228Y-69544181D01*
X79760366Y-72009042D01*
X79699043Y-72042527D01*
X79629351Y-72037543D01*
X79573418Y-71995671D01*
X79549001Y-71930207D01*
X79552910Y-71889267D01*
X79587523Y-71760092D01*
X78540573Y-71760092D01*
X78566380Y-71719936D01*
X78606887Y-71581981D01*
X78606887Y-71438203D01*
X78566380Y-71300248D01*
X78540573Y-71260092D01*
X79587523Y-71260092D01*
X79587522Y-71260091D01*
X79530319Y-71046605D01*
X79530316Y-71046599D01*
X79430487Y-70832514D01*
X79430486Y-70832512D01*
X79295000Y-70639018D01*
X79294995Y-70639012D01*
X79127966Y-70471983D01*
X79127960Y-70471978D01*
X78934466Y-70336492D01*
X78934464Y-70336491D01*
X78720379Y-70236662D01*
X78720370Y-70236658D01*
X78492213Y-70175524D01*
X78492203Y-70175522D01*
X78448015Y-70171656D01*
X78382946Y-70146202D01*
X78341969Y-70089611D01*
X78338092Y-70019849D01*
X78371142Y-69960448D01*
X78962772Y-69368819D01*
X79024095Y-69335334D01*
X79050453Y-69332500D01*
X82137547Y-69332500D01*
X82204586Y-69352185D01*
G37*
G04 #@! TD.AperFunction*
G04 #@! TA.AperFunction,Conductor*
G36*
X107856876Y-70484274D02*
G01*
X107912810Y-70526145D01*
X107937227Y-70591610D01*
X107937161Y-70610180D01*
X107936703Y-70615998D01*
X107936705Y-70616000D01*
X109535000Y-70616000D01*
X109602039Y-70635685D01*
X109647794Y-70688489D01*
X109659000Y-70740000D01*
X109659000Y-70992000D01*
X109639315Y-71059039D01*
X109586511Y-71104794D01*
X109535000Y-71116000D01*
X107936705Y-71116000D01*
X107936704Y-71116001D01*
X107936899Y-71118486D01*
X107982718Y-71276198D01*
X108010621Y-71323379D01*
X108027804Y-71391103D01*
X108005644Y-71457365D01*
X107951178Y-71501129D01*
X107903889Y-71510500D01*
X107027502Y-71510500D01*
X106960463Y-71490815D01*
X106914708Y-71438011D01*
X106904764Y-71368853D01*
X106933789Y-71305297D01*
X106939821Y-71298819D01*
X107325178Y-70913461D01*
X107725864Y-70512773D01*
X107787185Y-70479290D01*
X107856876Y-70484274D01*
G37*
G04 #@! TD.AperFunction*
G04 #@! TA.AperFunction,Conductor*
G36*
X105482194Y-68392185D02*
G01*
X105527949Y-68444989D01*
X105537893Y-68514147D01*
X105508868Y-68577703D01*
X105502836Y-68584181D01*
X105443055Y-68643961D01*
X105443052Y-68643965D01*
X105352551Y-68790688D01*
X105352546Y-68790699D01*
X105298319Y-68954347D01*
X105288000Y-69055345D01*
X105288000Y-69092000D01*
X106451500Y-69092000D01*
X106518539Y-69111685D01*
X106564294Y-69164489D01*
X106575500Y-69216000D01*
X106575500Y-69468000D01*
X106555815Y-69535039D01*
X106503011Y-69580794D01*
X106451500Y-69592000D01*
X105288001Y-69592000D01*
X105288001Y-69628654D01*
X105298319Y-69729652D01*
X105354819Y-69900158D01*
X105352389Y-69900963D01*
X105361076Y-69958183D01*
X105332551Y-70021964D01*
X105274071Y-70060199D01*
X105238203Y-70065500D01*
X103568304Y-70065500D01*
X103531432Y-70068401D01*
X103531426Y-70068402D01*
X103373606Y-70114254D01*
X103373603Y-70114255D01*
X103232137Y-70197917D01*
X103232129Y-70197923D01*
X103115923Y-70314129D01*
X103115917Y-70314137D01*
X103032255Y-70455603D01*
X103032254Y-70455605D01*
X103011522Y-70526965D01*
X102973915Y-70585850D01*
X102910442Y-70615056D01*
X102841256Y-70605310D01*
X102804765Y-70580050D01*
X102706927Y-70482212D01*
X102697104Y-70469950D01*
X102696883Y-70470134D01*
X102691910Y-70464123D01*
X102682836Y-70455602D01*
X102641488Y-70416773D01*
X102631043Y-70406328D01*
X102620599Y-70395883D01*
X102615110Y-70391625D01*
X102610685Y-70387847D01*
X102576706Y-70355938D01*
X102576704Y-70355936D01*
X102576701Y-70355935D01*
X102559153Y-70346288D01*
X102542887Y-70335604D01*
X102527057Y-70323325D01*
X102484292Y-70304818D01*
X102479046Y-70302248D01*
X102438217Y-70279803D01*
X102438216Y-70279802D01*
X102418817Y-70274822D01*
X102400405Y-70268518D01*
X102382022Y-70260562D01*
X102382016Y-70260560D01*
X102335998Y-70253272D01*
X102330276Y-70252087D01*
X102285145Y-70240500D01*
X102285143Y-70240500D01*
X102265108Y-70240500D01*
X102245710Y-70238973D01*
X102238286Y-70237797D01*
X102225929Y-70235840D01*
X102225928Y-70235840D01*
X102179540Y-70240225D01*
X102173702Y-70240500D01*
X99624452Y-70240500D01*
X99557413Y-70220815D01*
X99536771Y-70204181D01*
X97916772Y-68584181D01*
X97883287Y-68522858D01*
X97888271Y-68453166D01*
X97930143Y-68397233D01*
X97995607Y-68372816D01*
X98004453Y-68372500D01*
X105415155Y-68372500D01*
X105482194Y-68392185D01*
G37*
G04 #@! TD.AperFunction*
M02*
