M48
; DRILL file {KiCad 7.0.8} date Fri Apr 19 19:29:13 2024
; FORMAT={-:-/ absolute / metric / decimal}
; #@! TF.CreationDate,2024-04-19T19:29:13-04:00
; #@! TF.GenerationSoftware,Kicad,Pcbnew,7.0.8
; #@! TF.FileFunction,Plated,1,2,PTH
FMAT,2
METRIC
; #@! TA.AperFunction,Plated,PTH,ViaDrill
T1C0.300
; #@! TA.AperFunction,Plated,PTH,ViaDrill
T2C0.500
; #@! TA.AperFunction,Plated,PTH,ComponentDrill
T3C0.950
; #@! TA.AperFunction,Plated,PTH,ComponentDrill
T4C1.000
%
G90
G05
T1
X97.155Y-74.111
X100.652Y-79.57
X102.108Y-74.676
X102.616Y-80.264
X103.124Y-74.93
X105.918Y-76.454
X106.426Y-78.528
X106.426Y-81.422
X106.426Y-82.574
X106.426Y-83.59
X106.466Y-80.464
X107.464Y-81.302
X107.696Y-76.454
X107.89Y-83.581
X109.728Y-79.703
X110.744Y-80.01
X110.998Y-86.614
X111.967Y-81.995
X112.075Y-80.833
X112.268Y-79.502
X113.792Y-80.518
T2
X93.599Y-82.042
X94.95Y-92.964
X96.266Y-79.248
X97.25Y-90.114
X101.092Y-77.216
X102.87Y-82.296
X103.65Y-86.514
X104.902Y-69.342
X107.696Y-70.866
X108.966Y-85.344
X115.45Y-92.114
T3
X78.193Y-86.029
X78.193Y-88.529
X78.193Y-91.029
X85.051Y-86.029
X85.051Y-88.529
X85.051Y-91.029
X91.928Y-86.046
X91.928Y-88.546
X91.928Y-91.046
T4
X78.107Y-71.51
X78.107Y-74.01
X80.518Y-79.248
X83.058Y-79.248
X85.009Y-71.522
X85.009Y-74.022
X85.598Y-79.248
X88.138Y-79.248
X90.678Y-79.248
X92.981Y-71.528
X92.981Y-74.028
X98.552Y-74.93
X98.552Y-77.47
X98.552Y-80.01
X98.552Y-82.55
X98.552Y-85.09
X98.552Y-87.63
X116.332Y-74.93
X116.332Y-77.47
X116.332Y-80.01
X116.332Y-82.55
X116.332Y-85.09
X116.332Y-87.63
T0
M30
