M48
; DRILL file {KiCad 8.0.2} date 2024-09-16T20:07:50-0400
; FORMAT={-:-/ absolute / metric / decimal}
; #@! TF.CreationDate,2024-09-16T20:07:50-04:00
; #@! TF.GenerationSoftware,Kicad,Pcbnew,8.0.2
; #@! TF.FileFunction,Plated,1,2,PTH
FMAT,2
METRIC
; #@! TA.AperFunction,Plated,PTH,ViaDrill
T1C0.300
; #@! TA.AperFunction,Plated,PTH,ViaDrill
T2C0.500
; #@! TA.AperFunction,Plated,PTH,ComponentDrill
T3C1.000
; #@! TA.AperFunction,Plated,PTH,ComponentDrill
T4C2.100
%
G90
G05
T1
X117.049Y-83.312
X121.898Y-65.002
X122.403Y-73.127
X122.429Y-70.105
X122.66Y-64.24
X122.936Y-78.232
X123.419Y-72.111
X123.445Y-69.089
X123.952Y-78.247
T2
X104.822Y-109.22
X107.188Y-58.42
X107.188Y-61.468
X107.188Y-113.792
X108.204Y-70.612
X108.204Y-76.708
X108.204Y-89.408
X108.204Y-94.996
X108.204Y-99.568
X108.204Y-111.76
X108.204Y-113.792
X108.712Y-62.992
X109.22Y-70.104
X109.22Y-77.724
X109.22Y-88.392
X109.22Y-92.456
X109.22Y-93.98
X109.22Y-97.028
X109.22Y-113.792
X109.707Y-62.1
X109.728Y-67.564
X110.236Y-113.792
X110.744Y-109.22
X111.76Y-74.168
X111.76Y-91.44
X111.76Y-111.76
X112.268Y-69.596
X112.268Y-77.724
X112.268Y-93.98
X112.776Y-74.168
X112.776Y-90.424
X112.776Y-111.76
X113.284Y-77.724
X113.284Y-92.964
X113.792Y-74.168
X113.792Y-89.408
X114.3Y-77.724
X114.3Y-91.948
X114.808Y-113.792
X115.341Y-64.516
X117.348Y-70.612
X118.926Y-62.938
X119.38Y-109.22
X119.888Y-81.28
X124.46Y-109.22
T3
X102.362Y-59.436
X102.362Y-61.976
X102.362Y-64.516
X102.362Y-67.056
X102.362Y-69.596
X102.362Y-72.136
X102.362Y-74.676
X102.362Y-77.216
X102.362Y-79.756
X102.362Y-82.296
X102.362Y-84.836
X102.362Y-87.376
X102.362Y-89.916
X102.362Y-92.456
X102.362Y-94.996
X102.362Y-97.536
X102.362Y-100.076
X102.362Y-102.616
X102.591Y-41.118
X102.591Y-43.658
X102.591Y-46.198
X102.591Y-48.738
X102.591Y-51.278
X102.616Y-109.22
X102.616Y-111.76
X102.616Y-114.3
X112.776Y-43.728
X112.776Y-46.228
X112.776Y-48.728
X117.348Y-109.22
X117.348Y-111.76
X117.348Y-114.3
X121.92Y-109.22
X121.92Y-111.76
X121.92Y-114.3
X126.492Y-109.22
X126.492Y-111.76
X126.492Y-114.3
X126.862Y-59.426
X126.862Y-61.966
X126.862Y-64.506
X126.862Y-67.046
X126.862Y-69.586
X126.862Y-72.126
X126.862Y-74.666
X126.862Y-77.206
X126.862Y-79.746
X126.862Y-82.286
X126.862Y-84.826
X126.862Y-87.366
X126.862Y-89.906
X126.862Y-92.446
X126.862Y-94.986
X126.862Y-97.526
X126.862Y-100.066
X126.862Y-102.606
X127.276Y-43.728
X127.276Y-48.728
T4
G00X120.326Y-39.628
M15
G01X120.226Y-39.628
M16
G05
G00X120.326Y-52.828
M15
G01X120.226Y-52.828
M16
G05
M30
