%TF.GenerationSoftware,KiCad,Pcbnew,8.0.2*%
%TF.CreationDate,2024-09-16T20:09:15-04:00*%
%TF.ProjectId,servo_tester,73657276-6f5f-4746-9573-7465722e6b69,rev?*%
%TF.SameCoordinates,Original*%
%TF.FileFunction,Copper,L2,Bot*%
%TF.FilePolarity,Positive*%
%FSLAX46Y46*%
G04 Gerber Fmt 4.6, Leading zero omitted, Abs format (unit mm)*
G04 Created by KiCad (PCBNEW 8.0.2) date 2024-09-16 20:09:15*
%MOMM*%
%LPD*%
G01*
G04 APERTURE LIST*
G04 Aperture macros list*
%AMRoundRect*
0 Rectangle with rounded corners*
0 $1 Rounding radius*
0 $2 $3 $4 $5 $6 $7 $8 $9 X,Y pos of 4 corners*
0 Add a 4 corners polygon primitive as box body*
4,1,4,$2,$3,$4,$5,$6,$7,$8,$9,$2,$3,0*
0 Add four circle primitives for the rounded corners*
1,1,$1+$1,$2,$3*
1,1,$1+$1,$4,$5*
1,1,$1+$1,$6,$7*
1,1,$1+$1,$8,$9*
0 Add four rect primitives between the rounded corners*
20,1,$1+$1,$2,$3,$4,$5,0*
20,1,$1+$1,$4,$5,$6,$7,0*
20,1,$1+$1,$6,$7,$8,$9,0*
20,1,$1+$1,$8,$9,$2,$3,0*%
%AMFreePoly0*
4,1,9,5.362500,-0.866500,1.237500,-0.866500,1.237500,-0.450000,-1.237500,-0.450000,-1.237500,0.450000,1.237500,0.450000,1.237500,0.866500,5.362500,0.866500,5.362500,-0.866500,5.362500,-0.866500,$1*%
G04 Aperture macros list end*
%TA.AperFunction,ComponentPad*%
%ADD10R,1.700000X1.700000*%
%TD*%
%TA.AperFunction,ComponentPad*%
%ADD11O,1.700000X1.700000*%
%TD*%
%TA.AperFunction,ComponentPad*%
%ADD12C,1.524000*%
%TD*%
%TA.AperFunction,ComponentPad*%
%ADD13O,3.000000X2.900000*%
%TD*%
%TA.AperFunction,SMDPad,CuDef*%
%ADD14RoundRect,0.237500X-0.237500X0.300000X-0.237500X-0.300000X0.237500X-0.300000X0.237500X0.300000X0*%
%TD*%
%TA.AperFunction,SMDPad,CuDef*%
%ADD15RoundRect,0.150000X-0.825000X-0.150000X0.825000X-0.150000X0.825000X0.150000X-0.825000X0.150000X0*%
%TD*%
%TA.AperFunction,SMDPad,CuDef*%
%ADD16RoundRect,0.237500X-0.237500X0.250000X-0.237500X-0.250000X0.237500X-0.250000X0.237500X0.250000X0*%
%TD*%
%TA.AperFunction,SMDPad,CuDef*%
%ADD17RoundRect,0.237500X0.250000X0.237500X-0.250000X0.237500X-0.250000X-0.237500X0.250000X-0.237500X0*%
%TD*%
%TA.AperFunction,SMDPad,CuDef*%
%ADD18RoundRect,0.237500X0.237500X-0.300000X0.237500X0.300000X-0.237500X0.300000X-0.237500X-0.300000X0*%
%TD*%
%TA.AperFunction,SMDPad,CuDef*%
%ADD19R,2.300000X0.900000*%
%TD*%
%TA.AperFunction,SMDPad,CuDef*%
%ADD20FreePoly0,180.000000*%
%TD*%
%TA.AperFunction,SMDPad,CuDef*%
%ADD21RoundRect,0.072500X0.722500X0.072500X-0.722500X0.072500X-0.722500X-0.072500X0.722500X-0.072500X0*%
%TD*%
%TA.AperFunction,ViaPad*%
%ADD22C,0.800000*%
%TD*%
%TA.AperFunction,ViaPad*%
%ADD23C,0.600000*%
%TD*%
%TA.AperFunction,Conductor*%
%ADD24C,0.300000*%
%TD*%
%TA.AperFunction,Conductor*%
%ADD25C,0.650000*%
%TD*%
%TA.AperFunction,Conductor*%
%ADD26C,0.500000*%
%TD*%
%TA.AperFunction,Conductor*%
%ADD27C,1.800000*%
%TD*%
G04 APERTURE END LIST*
D10*
%TO.P,U4,1,1D/1E/1F/CA1*%
%TO.N,/22*%
X102362000Y-59436000D03*
D11*
%TO.P,U4,2,1L/1K/1J/1I*%
%TO.N,/21*%
X102362000Y-61976000D03*
%TO.P,U4,3,2D/2E/2F/CA2*%
%TO.N,/20*%
X102362000Y-64516000D03*
%TO.P,U4,4,2L/2K/2J/2I*%
%TO.N,/19*%
X102362000Y-67056000D03*
%TO.P,U4,5,3D/3E/3F/CA3*%
%TO.N,/18*%
X102362000Y-69596000D03*
%TO.P,U4,6,3L/3K/3J/3I*%
%TO.N,/17*%
X102362000Y-72136000D03*
%TO.P,U4,7,4D/4E/4F/CA4*%
%TO.N,/16*%
X102362000Y-74676000D03*
%TO.P,U4,8,4L/4K/4J/4I*%
%TO.N,/15*%
X102362000Y-77216000D03*
%TO.P,U4,9,5D/5E/5F/CA5*%
%TO.N,/14*%
X102362000Y-79756000D03*
%TO.P,U4,10,5L/5K/5J/5I*%
%TO.N,/13*%
X102362000Y-82296000D03*
%TO.P,U4,11,6D/6E/6F/CA6*%
%TO.N,/12*%
X102362000Y-84836000D03*
%TO.P,U4,12,6L/6K/6J/6I*%
%TO.N,/11*%
X102362000Y-87376000D03*
%TO.P,U4,13,7D/7E/7F/CA7*%
%TO.N,/10*%
X102362000Y-89916000D03*
%TO.P,U4,14,7L/7K/7J/7I*%
%TO.N,/9*%
X102362000Y-92456000D03*
%TO.P,U4,15,8D/8E/8F/CA8*%
%TO.N,/8*%
X102362000Y-94996000D03*
%TO.P,U4,16,8L/8K/8J/8I*%
%TO.N,/7*%
X102362000Y-97536000D03*
%TO.P,U4,17,COM0*%
%TO.N,/COM0*%
X102362000Y-100076000D03*
%TO.P,U4,18,COM1*%
%TO.N,/COM1*%
X102362000Y-102616000D03*
D10*
%TO.P,U4,19,COM2*%
%TO.N,/COM2*%
X126862000Y-102606000D03*
D11*
%TO.P,U4,20,COM3*%
%TO.N,/COM3*%
X126862000Y-100066000D03*
%TO.P,U4,21,DP8/8C/8B/8A*%
%TO.N,/6*%
X126862000Y-97526000D03*
%TO.P,U4,22,8M/8N/8G/8H*%
%TO.N,/5*%
X126862000Y-94986000D03*
%TO.P,U4,23,DP7/7C/7B/7A*%
%TO.N,/4*%
X126862000Y-92446000D03*
%TO.P,U4,24,7M/7N/7G/7H*%
%TO.N,/3*%
X126862000Y-89906000D03*
%TO.P,U4,25,DP6/6C/6B/6A*%
%TO.N,/2*%
X126862000Y-87366000D03*
%TO.P,U4,26,6M/6N/6G/6H*%
%TO.N,/1*%
X126862000Y-84826000D03*
%TO.P,U4,27,DP5/5C/5B/5A*%
%TO.N,/0*%
X126862000Y-82286000D03*
%TO.P,U4,28,5M/5N/5G/5H*%
%TO.N,/35*%
X126862000Y-79746000D03*
%TO.P,U4,29,DP4/4C/4B/4A*%
%TO.N,/34*%
X126862000Y-77206000D03*
%TO.P,U4,30,4M/4N/4G/4H*%
%TO.N,/33*%
X126862000Y-74666000D03*
%TO.P,U4,31,DP3/3C/3B/3A*%
%TO.N,/32*%
X126862000Y-72126000D03*
%TO.P,U4,32,3M/3N/3G/3H*%
%TO.N,/31*%
X126862000Y-69586000D03*
%TO.P,U4,33,DP1/2C/2B/2A*%
%TO.N,/27*%
X126862000Y-67046000D03*
%TO.P,U4,34,2M/2N/2G/2H*%
%TO.N,/28*%
X126862000Y-64506000D03*
%TO.P,U4,35,DP1/1C/1B/1A*%
%TO.N,/29*%
X126862000Y-61966000D03*
%TO.P,U4,36,1M/1N/1G/1H*%
%TO.N,/30*%
X126862000Y-59426000D03*
%TD*%
D10*
%TO.P,J3,1,Pin_1*%
%TO.N,unconnected-(J3-Pin_1-Pad1)*%
X102616000Y-109220000D03*
D11*
%TO.P,J3,2,Pin_2*%
%TO.N,VIN*%
X102616000Y-111760000D03*
%TO.P,J3,3,Pin_3*%
%TO.N,GND*%
X102616000Y-114300000D03*
%TD*%
D12*
%TO.P,SW1,A,A*%
%TO.N,/A*%
X112776000Y-43728000D03*
%TO.P,SW1,B,B*%
%TO.N,/B*%
X112776000Y-48728000D03*
%TO.P,SW1,C,C*%
%TO.N,GND*%
X112776000Y-46228000D03*
%TO.P,SW1,S1,S1*%
%TO.N,/SW*%
X127276000Y-43728000D03*
%TO.P,SW1,S2,S2*%
%TO.N,GND*%
X127276000Y-48728000D03*
D13*
%TO.P,SW1,SH*%
%TO.N,N/C*%
X120276000Y-39628000D03*
X120276000Y-52828000D03*
%TD*%
D10*
%TO.P,J2,1,Pin_1*%
%TO.N,/PWM2*%
X121920000Y-109220000D03*
D11*
%TO.P,J2,2,Pin_2*%
%TO.N,VIN*%
X121920000Y-111760000D03*
%TO.P,J2,3,Pin_3*%
%TO.N,GND*%
X121920000Y-114300000D03*
%TD*%
D10*
%TO.P,J5,1,Pin_1*%
%TO.N,/PWM3*%
X126492000Y-109220000D03*
D11*
%TO.P,J5,2,Pin_2*%
%TO.N,VIN*%
X126492000Y-111760000D03*
%TO.P,J5,3,Pin_3*%
%TO.N,GND*%
X126492000Y-114300000D03*
%TD*%
D10*
%TO.P,J4,1,Pin_1*%
%TO.N,/UPDI*%
X102591000Y-51278000D03*
D11*
%TO.P,J4,2,Pin_2*%
%TO.N,3V3*%
X102591000Y-48738000D03*
%TO.P,J4,3,Pin_3*%
%TO.N,GND*%
X102591000Y-46198000D03*
%TO.P,J4,4,Pin_4*%
%TO.N,/UART_RX*%
X102591000Y-43658000D03*
%TO.P,J4,5,Pin_5*%
%TO.N,/UART_TX*%
X102591000Y-41118000D03*
%TD*%
D10*
%TO.P,J1,1,Pin_1*%
%TO.N,/PWM1*%
X117348000Y-109220000D03*
D11*
%TO.P,J1,2,Pin_2*%
%TO.N,VIN*%
X117348000Y-111760000D03*
%TO.P,J1,3,Pin_3*%
%TO.N,GND*%
X117348000Y-114300000D03*
%TD*%
D14*
%TO.P,C1,1*%
%TO.N,VIN*%
X114808000Y-110389500D03*
%TO.P,C1,2*%
%TO.N,GND*%
X114808000Y-112114500D03*
%TD*%
%TO.P,C3,1*%
%TO.N,3V3*%
X120396000Y-79248000D03*
%TO.P,C3,2*%
%TO.N,GND*%
X120396000Y-80973000D03*
%TD*%
D15*
%TO.P,U1,1,VCC*%
%TO.N,3V3*%
X112268000Y-69596000D03*
%TO.P,U1,2,PA4*%
%TO.N,/PWM2*%
X112268000Y-68326000D03*
%TO.P,U1,3,PA5*%
%TO.N,/PWM1*%
X112268000Y-67056000D03*
%TO.P,U1,4,PA6*%
%TO.N,/B*%
X112268000Y-65786000D03*
%TO.P,U1,5,PA7*%
%TO.N,/VREAD*%
X112268000Y-64516000D03*
%TO.P,U1,6,PB3*%
%TO.N,/UART_RX*%
X112268000Y-63246000D03*
%TO.P,U1,7,PB2*%
%TO.N,/UART_TX*%
X112268000Y-61976000D03*
%TO.P,U1,8,PB1*%
%TO.N,/SDA*%
X117218000Y-61976000D03*
%TO.P,U1,9,PB0*%
%TO.N,/SCL*%
X117218000Y-63246000D03*
%TO.P,U1,10,~{RESET}/PA0*%
%TO.N,/UPDI*%
X117218000Y-64516000D03*
%TO.P,U1,11,PA1*%
%TO.N,/SW*%
X117218000Y-65786000D03*
%TO.P,U1,12,PA2*%
%TO.N,/A*%
X117218000Y-67056000D03*
%TO.P,U1,13,PA3*%
%TO.N,/PWM3*%
X117218000Y-68326000D03*
%TO.P,U1,14,GND*%
%TO.N,GND*%
X117218000Y-69596000D03*
%TD*%
D16*
%TO.P,R3,1*%
%TO.N,VIN*%
X109728000Y-62079500D03*
%TO.P,R3,2*%
%TO.N,/VREAD*%
X109728000Y-63904500D03*
%TD*%
%TO.P,R4,1*%
%TO.N,/VREAD*%
X109728000Y-65739000D03*
%TO.P,R4,2*%
%TO.N,GND*%
X109728000Y-67564000D03*
%TD*%
D17*
%TO.P,R2,1*%
%TO.N,3V3*%
X121412000Y-64008000D03*
%TO.P,R2,2*%
%TO.N,/SCL*%
X119587000Y-64008000D03*
%TD*%
%TO.P,R1,1*%
%TO.N,3V3*%
X121412000Y-61468000D03*
%TO.P,R1,2*%
%TO.N,/SDA*%
X119587000Y-61468000D03*
%TD*%
D18*
%TO.P,C2,1*%
%TO.N,3V3*%
X114808000Y-115517000D03*
%TO.P,C2,2*%
%TO.N,GND*%
X114808000Y-113792000D03*
%TD*%
D19*
%TO.P,U2,1,IN*%
%TO.N,VIN*%
X112178000Y-111784000D03*
D20*
%TO.P,U2,2,GND*%
%TO.N,GND*%
X112090500Y-113284000D03*
D19*
%TO.P,U2,3,OUT*%
%TO.N,3V3*%
X112178000Y-114784000D03*
%TD*%
D21*
%TO.P,U3,1,SEG31*%
%TO.N,/31*%
X118269000Y-75276000D03*
%TO.P,U3,2,SEG32*%
%TO.N,/32*%
X118269000Y-75776000D03*
%TO.P,U3,3,SEG33*%
%TO.N,/33*%
X118269000Y-76276000D03*
%TO.P,U3,4,SEG34*%
%TO.N,/34*%
X118269000Y-76776000D03*
%TO.P,U3,5,SEG35*%
%TO.N,/35*%
X118269000Y-77276000D03*
%TO.P,U3,6,COM0*%
%TO.N,/COM0*%
X118269000Y-77776000D03*
%TO.P,U3,7,COM1*%
%TO.N,/COM1*%
X118269000Y-78276000D03*
%TO.P,U3,8,COM2*%
%TO.N,/COM2*%
X118269000Y-78776000D03*
%TO.P,U3,9,COM3*%
%TO.N,/COM3*%
X118269000Y-79276000D03*
%TO.P,U3,10,VLCD*%
%TO.N,3V3*%
X118269000Y-79776000D03*
%TO.P,U3,11,VDD*%
X118269000Y-80276000D03*
%TO.P,U3,12,VSS*%
%TO.N,GND*%
X118269000Y-80776000D03*
%TO.P,U3,13,T1*%
X118269000Y-81276000D03*
%TO.P,U3,14,CLK*%
%TO.N,unconnected-(U3-CLK-Pad14)*%
X118269000Y-81776000D03*
%TO.P,U3,15,SCL*%
%TO.N,/SCL*%
X118269000Y-82276000D03*
%TO.P,U3,16,SDA*%
%TO.N,/SDA*%
X118269000Y-82776000D03*
%TO.P,U3,17,PORE*%
%TO.N,3V3*%
X118269000Y-83276000D03*
%TO.P,U3,18,SEG0*%
%TO.N,/0*%
X118269000Y-83776000D03*
%TO.P,U3,19,SEG1*%
%TO.N,/1*%
X118269000Y-84276000D03*
%TO.P,U3,20,SEG2*%
%TO.N,/2*%
X118269000Y-84776000D03*
%TO.P,U3,21,SEG3*%
%TO.N,/3*%
X118269000Y-85276000D03*
%TO.P,U3,22,SEG4*%
%TO.N,/4*%
X118269000Y-85776000D03*
%TO.P,U3,23,SEG5*%
%TO.N,/5*%
X118269000Y-86276000D03*
%TO.P,U3,24,SEG6*%
%TO.N,/6*%
X118269000Y-86776000D03*
%TO.P,U3,25,SEG7*%
%TO.N,/7*%
X110839000Y-86776000D03*
%TO.P,U3,26,SEG8*%
%TO.N,/8*%
X110839000Y-86276000D03*
%TO.P,U3,27,SEG9*%
%TO.N,/9*%
X110839000Y-85776000D03*
%TO.P,U3,28,SEG10*%
%TO.N,/10*%
X110839000Y-85276000D03*
%TO.P,U3,29,SEG11*%
%TO.N,/11*%
X110839000Y-84776000D03*
%TO.P,U3,30,SEG12*%
%TO.N,/12*%
X110839000Y-84276000D03*
%TO.P,U3,31,SEG13*%
%TO.N,/13*%
X110839000Y-83776000D03*
%TO.P,U3,32,SEG14*%
%TO.N,/14*%
X110839000Y-83276000D03*
%TO.P,U3,33,SEG15*%
%TO.N,/15*%
X110839000Y-82776000D03*
%TO.P,U3,34,SEG16*%
%TO.N,/16*%
X110839000Y-82276000D03*
%TO.P,U3,35,SEG17*%
%TO.N,/17*%
X110839000Y-81776000D03*
%TO.P,U3,36,SEG18*%
%TO.N,/18*%
X110839000Y-81276000D03*
%TO.P,U3,37,SEG19*%
%TO.N,/19*%
X110839000Y-80776000D03*
%TO.P,U3,38,SEG20*%
%TO.N,/20*%
X110839000Y-80276000D03*
%TO.P,U3,39,SEG21*%
%TO.N,/21*%
X110839000Y-79776000D03*
%TO.P,U3,40,SEG22*%
%TO.N,/22*%
X110839000Y-79276000D03*
%TO.P,U3,41,SEG23*%
%TO.N,unconnected-(U3-SEG23-Pad41)*%
X110839000Y-78776000D03*
%TO.P,U3,42,SEG24*%
%TO.N,unconnected-(U3-SEG24-Pad42)*%
X110839000Y-78276000D03*
%TO.P,U3,43,SEG25*%
%TO.N,unconnected-(U3-SEG25-Pad43)*%
X110839000Y-77776000D03*
%TO.P,U3,44,SEG26*%
%TO.N,unconnected-(U3-SEG26-Pad44)*%
X110839000Y-77276000D03*
%TO.P,U3,45,SEG27*%
%TO.N,/27*%
X110839000Y-76776000D03*
%TO.P,U3,46,SEG28*%
%TO.N,/28*%
X110839000Y-76276000D03*
%TO.P,U3,47,SEG29*%
%TO.N,/29*%
X110839000Y-75776000D03*
%TO.P,U3,48,SEG30*%
%TO.N,/30*%
X110839000Y-75276000D03*
%TD*%
D14*
%TO.P,C4,1*%
%TO.N,3V3*%
X121920000Y-78385500D03*
%TO.P,C4,2*%
%TO.N,GND*%
X121920000Y-80110500D03*
%TD*%
D22*
%TO.N,VIN*%
X108204000Y-94996000D03*
X112776000Y-111760000D03*
X108204000Y-76708000D03*
X108204000Y-70612000D03*
X111760000Y-111760000D03*
X108204000Y-99568000D03*
X109707154Y-62100346D03*
X108204000Y-111760000D03*
X108204000Y-89408000D03*
%TO.N,GND*%
X109728000Y-67564000D03*
X108204000Y-113792000D03*
X114808000Y-113792000D03*
X107188000Y-113792000D03*
X119380000Y-109220000D03*
X104822000Y-109220000D03*
X109220000Y-113792000D03*
X110744000Y-109220000D03*
X117348000Y-70612000D03*
X119888000Y-81280000D03*
X110236000Y-113792000D03*
X124460000Y-109220000D03*
%TO.N,3V3*%
X107188000Y-61468000D03*
X109220000Y-93980000D03*
X109220000Y-92456000D03*
X109220000Y-88392000D03*
X112268000Y-69596000D03*
X109220000Y-97028000D03*
X109220000Y-77724000D03*
X109220000Y-70104000D03*
X118925688Y-62938312D03*
D23*
X117049500Y-83312000D03*
D22*
X107188000Y-58420000D03*
%TO.N,/PWM1*%
X112268000Y-77724000D03*
X111760000Y-74168000D03*
X112268000Y-93980000D03*
X111760000Y-91440000D03*
%TO.N,/PWM2*%
X113284000Y-77724000D03*
X113284000Y-92964000D03*
X112776000Y-90424000D03*
X112776000Y-74168000D03*
%TO.N,/UPDI*%
X108712000Y-62992000D03*
X115341500Y-64516000D03*
%TO.N,/PWM3*%
X114300000Y-77724000D03*
X113792000Y-89408000D03*
X114300000Y-91948000D03*
X113792000Y-74168000D03*
D23*
%TO.N,/SDA*%
X122660023Y-64240023D03*
X123418734Y-72110734D03*
X123952000Y-78247266D03*
X123445043Y-69089043D03*
%TO.N,/SCL*%
X122402734Y-73126734D03*
X122429043Y-70105043D03*
X122936000Y-78232000D03*
X121898023Y-65002023D03*
%TD*%
D24*
%TO.N,3V3*%
X117000000Y-83262500D02*
X117049500Y-83312000D01*
X117000000Y-80500000D02*
X117000000Y-83262500D01*
X117000000Y-80500000D02*
X117224000Y-80276000D01*
X117224000Y-80276000D02*
X118269000Y-80276000D01*
X117571894Y-79776000D02*
X117000000Y-80347894D01*
X117000000Y-80347894D02*
X117000000Y-80500000D01*
X118269000Y-79776000D02*
X117571894Y-79776000D01*
D25*
%TO.N,VIN*%
X112178000Y-111784000D02*
X113413500Y-111784000D01*
X113413500Y-111784000D02*
X114808000Y-110389500D01*
D26*
X108204000Y-99568000D02*
X108204000Y-111760000D01*
X108204000Y-70612000D02*
X108204000Y-76708000D01*
X108204000Y-89408000D02*
X108204000Y-94996000D01*
D24*
%TO.N,GND*%
X119384000Y-80776000D02*
X118269000Y-80776000D01*
D25*
X112090500Y-113284000D02*
X113643500Y-113284000D01*
D27*
X104822000Y-112944000D02*
X104822000Y-109220000D01*
X122770000Y-114300000D02*
X124460000Y-112610000D01*
X119380000Y-109220000D02*
X119380000Y-113118000D01*
D26*
X117218000Y-70482000D02*
X117348000Y-70612000D01*
D27*
X124460000Y-112610000D02*
X124460000Y-109220000D01*
D24*
X120396000Y-81179500D02*
X120295500Y-81280000D01*
X120195000Y-80973000D02*
X120396000Y-80973000D01*
X119888000Y-81280000D02*
X120295500Y-81280000D01*
D27*
X121920000Y-114300000D02*
X122770000Y-114300000D01*
X119380000Y-113118000D02*
X118198000Y-114300000D01*
X103466000Y-114300000D02*
X104822000Y-112944000D01*
D24*
X118273000Y-81280000D02*
X118269000Y-81276000D01*
X120295500Y-81280000D02*
X118273000Y-81280000D01*
D27*
X102616000Y-114300000D02*
X103466000Y-114300000D01*
D24*
X119888000Y-81280000D02*
X119384000Y-80776000D01*
X120396000Y-80973000D02*
X120396000Y-81179500D01*
D25*
X113643500Y-113284000D02*
X114300000Y-113284000D01*
D24*
X121057500Y-80973000D02*
X120396000Y-80973000D01*
X119888000Y-81280000D02*
X120195000Y-80973000D01*
X121920000Y-80110500D02*
X121057500Y-80973000D01*
D25*
X112090500Y-113284000D02*
X110744000Y-113284000D01*
X109728000Y-112268000D02*
X109728000Y-110236000D01*
D26*
X117218000Y-69596000D02*
X117218000Y-70482000D01*
D25*
X113643500Y-113284000D02*
X114808000Y-112119500D01*
X109728000Y-110236000D02*
X110744000Y-109220000D01*
X114300000Y-113284000D02*
X114808000Y-113792000D01*
D27*
X118198000Y-114300000D02*
X117348000Y-114300000D01*
D25*
X110744000Y-113284000D02*
X109728000Y-112268000D01*
X114808000Y-112119500D02*
X114808000Y-112114500D01*
D26*
%TO.N,3V3*%
X107862000Y-68746000D02*
X107862000Y-62142000D01*
X118925688Y-62938312D02*
X120342312Y-62938312D01*
X107188000Y-53335000D02*
X102591000Y-48738000D01*
D24*
X117085500Y-83276000D02*
X117049500Y-83312000D01*
D25*
X112178000Y-114784000D02*
X114075000Y-114784000D01*
D24*
X118269000Y-83276000D02*
X117085500Y-83276000D01*
D26*
X106656000Y-114784000D02*
X112178000Y-114784000D01*
X121412000Y-61468000D02*
X121412000Y-61868624D01*
X109220000Y-97028000D02*
X106172000Y-100076000D01*
X120342312Y-62938312D02*
X121412000Y-64008000D01*
X106172000Y-114300000D02*
X106656000Y-114784000D01*
X106172000Y-100076000D02*
X106172000Y-114300000D01*
X109220000Y-70104000D02*
X109220000Y-77724000D01*
X107188000Y-58420000D02*
X107188000Y-53335000D01*
X107862000Y-62142000D02*
X107188000Y-61468000D01*
X121412000Y-61868624D02*
X120342312Y-62938312D01*
D25*
X114075000Y-114784000D02*
X114808000Y-115517000D01*
D26*
X109220000Y-88392000D02*
X109220000Y-93980000D01*
X109220000Y-70104000D02*
X107862000Y-68746000D01*
D24*
X118269000Y-80276000D02*
X119368000Y-80276000D01*
X119368000Y-80276000D02*
X120396000Y-79248000D01*
X119571000Y-78549000D02*
X119888000Y-78232000D01*
X119888000Y-78232000D02*
X121766500Y-78232000D01*
X118269000Y-79776000D02*
X119160894Y-79776000D01*
X119160894Y-79776000D02*
X119571000Y-79365894D01*
X119571000Y-79365894D02*
X119571000Y-78549000D01*
X121766500Y-78232000D02*
X121920000Y-78385500D01*
D26*
%TO.N,/PWM1*%
X110744000Y-73152000D02*
X110744000Y-67605000D01*
X117348000Y-99060000D02*
X117348000Y-109220000D01*
X111760000Y-87371000D02*
X111777928Y-87371000D01*
X111760000Y-91440000D02*
X111760000Y-87371000D01*
X112268000Y-93980000D02*
X117348000Y-99060000D01*
X111293000Y-67056000D02*
X112268000Y-67056000D01*
X111760000Y-74168000D02*
X110744000Y-73152000D01*
X112268000Y-86880928D02*
X112268000Y-77724000D01*
X111777928Y-87371000D02*
X112268000Y-86880928D01*
X110744000Y-67605000D02*
X111293000Y-67056000D01*
%TO.N,/PWM2*%
X113792000Y-70104000D02*
X113792000Y-68875000D01*
X121920000Y-101600000D02*
X121920000Y-109220000D01*
X112776000Y-90424000D02*
X112776000Y-87362878D01*
X112776000Y-74168000D02*
X112776000Y-71120000D01*
X113792000Y-68875000D02*
X113243000Y-68326000D01*
X113243000Y-68326000D02*
X112268000Y-68326000D01*
X113284000Y-92964000D02*
X121920000Y-101600000D01*
X113284000Y-86854878D02*
X113284000Y-77724000D01*
X112776000Y-71120000D02*
X113792000Y-70104000D01*
X112776000Y-87362878D02*
X113284000Y-86854878D01*
%TO.N,/UPDI*%
X117218000Y-64516000D02*
X115341500Y-64516000D01*
X108712000Y-61468000D02*
X103662000Y-56418000D01*
X108712000Y-62992000D02*
X108712000Y-61468000D01*
X103662000Y-56418000D02*
X103662000Y-52349000D01*
X103662000Y-52349000D02*
X102591000Y-51278000D01*
%TO.N,/UART_RX*%
X108712000Y-49779000D02*
X102591000Y-43658000D01*
X110744000Y-61441950D02*
X108712000Y-59409950D01*
X112268000Y-63246000D02*
X111714472Y-63246000D01*
X110744000Y-62275528D02*
X110744000Y-61441950D01*
X108712000Y-59409950D02*
X108712000Y-49779000D01*
X111714472Y-63246000D02*
X110744000Y-62275528D01*
%TO.N,/UART_TX*%
X110236000Y-59944000D02*
X110236000Y-48763000D01*
X112268000Y-61976000D02*
X110236000Y-59944000D01*
X110236000Y-48763000D02*
X102591000Y-41118000D01*
%TO.N,/PWM3*%
X113792000Y-74168000D02*
X113792000Y-71120000D01*
X113792000Y-71120000D02*
X116586000Y-68326000D01*
X123952000Y-106680000D02*
X126492000Y-109220000D01*
X113792000Y-87336827D02*
X113792000Y-89408000D01*
X114300000Y-77724000D02*
X114300000Y-86828827D01*
X116586000Y-68326000D02*
X117218000Y-68326000D01*
X114300000Y-86828827D02*
X113792000Y-87336827D01*
X123952000Y-101600000D02*
X123952000Y-106680000D01*
X114300000Y-91948000D02*
X123952000Y-101600000D01*
D24*
%TO.N,/SDA*%
X120603000Y-60452000D02*
X122237000Y-60452000D01*
X122237000Y-60452000D02*
X122660023Y-60875023D01*
X119587000Y-61468000D02*
X120603000Y-60452000D01*
X123418734Y-69115352D02*
X123445043Y-69089043D01*
X123952000Y-81479106D02*
X122655106Y-82776000D01*
X122655106Y-82776000D02*
X118269000Y-82776000D01*
X123952000Y-78247266D02*
X123952000Y-81479106D01*
X123418734Y-72110734D02*
X123418734Y-69115352D01*
D26*
X117218000Y-61976000D02*
X119079000Y-61976000D01*
D24*
X122660023Y-60875023D02*
X122660023Y-64240023D01*
D26*
X119079000Y-61976000D02*
X119587000Y-61468000D01*
D24*
%TO.N,/SCL*%
X122936000Y-78232000D02*
X122936000Y-81788000D01*
D26*
X119556000Y-64008000D02*
X118794000Y-64008000D01*
D24*
X122402734Y-73126734D02*
X122402734Y-70131352D01*
X122402734Y-70131352D02*
X122429043Y-70105043D01*
X122448000Y-82276000D02*
X118269000Y-82276000D01*
X119866023Y-65002023D02*
X121898023Y-65002023D01*
X119556000Y-64008000D02*
X119556000Y-64692000D01*
X122936000Y-81788000D02*
X122448000Y-82276000D01*
D26*
X118794000Y-64008000D02*
X118032000Y-63246000D01*
X118032000Y-63246000D02*
X117218000Y-63246000D01*
D24*
X119556000Y-64692000D02*
X119866023Y-65002023D01*
D26*
%TO.N,/VREAD*%
X110339500Y-64516000D02*
X112268000Y-64516000D01*
X109728000Y-63904500D02*
X110339500Y-64516000D01*
X109728000Y-65127500D02*
X109728000Y-65739000D01*
X110339500Y-64516000D02*
X109728000Y-65127500D01*
%TO.N,/A*%
X114492000Y-65305000D02*
X116243000Y-67056000D01*
X116243000Y-67056000D02*
X117218000Y-67056000D01*
X114492000Y-45444000D02*
X114492000Y-65305000D01*
X112776000Y-43728000D02*
X114492000Y-45444000D01*
%TO.N,/B*%
X113243000Y-65786000D02*
X112268000Y-65786000D01*
X113792000Y-65237000D02*
X113243000Y-65786000D01*
X113792000Y-49744000D02*
X113792000Y-65237000D01*
X112776000Y-48728000D02*
X113792000Y-49744000D01*
%TO.N,/SW*%
X122174000Y-65786000D02*
X117218000Y-65786000D01*
X127276000Y-43728000D02*
X123444000Y-47560000D01*
X123444000Y-64516000D02*
X122174000Y-65786000D01*
X123444000Y-47560000D02*
X123444000Y-64516000D01*
D24*
%TO.N,/COM0*%
X116588894Y-77776000D02*
X118269000Y-77776000D01*
X114900000Y-89370894D02*
X114900000Y-79464894D01*
X104194894Y-100076000D02*
X114900000Y-89370894D01*
X114900000Y-79464894D02*
X116588894Y-77776000D01*
X102362000Y-100076000D02*
X104194894Y-100076000D01*
%TO.N,/COM1*%
X115400000Y-79672000D02*
X116796000Y-78276000D01*
X115400000Y-89578000D02*
X115400000Y-79672000D01*
X102362000Y-102616000D02*
X115400000Y-89578000D01*
X116796000Y-78276000D02*
X118269000Y-78276000D01*
%TO.N,/COM2*%
X126862000Y-102606000D02*
X115900000Y-91644000D01*
X115900000Y-79988894D02*
X117112894Y-78776000D01*
X117112894Y-78776000D02*
X118269000Y-78776000D01*
X115900000Y-91644000D02*
X115900000Y-79988894D01*
%TO.N,/COM3*%
X116400000Y-89604000D02*
X116400000Y-80196000D01*
X126862000Y-100066000D02*
X116400000Y-89604000D01*
X116400000Y-80196000D02*
X117320000Y-79276000D01*
X117320000Y-79276000D02*
X118269000Y-79276000D01*
%TO.N,/22*%
X107172000Y-64246000D02*
X102362000Y-59436000D01*
X109371742Y-79276000D02*
X107172000Y-77076258D01*
X107172000Y-77076258D02*
X107172000Y-64246000D01*
X110839000Y-79276000D02*
X109371742Y-79276000D01*
%TO.N,/21*%
X109164636Y-79776000D02*
X110839000Y-79776000D01*
X106672000Y-77283364D02*
X109164636Y-79776000D01*
X106672000Y-66286000D02*
X106672000Y-77283364D01*
X102362000Y-61976000D02*
X106672000Y-66286000D01*
%TO.N,/20*%
X108957530Y-80276000D02*
X110839000Y-80276000D01*
X102362000Y-64516000D02*
X106172000Y-68326000D01*
X106172000Y-77490470D02*
X108957530Y-80276000D01*
X106172000Y-68326000D02*
X106172000Y-77490470D01*
%TO.N,/19*%
X105664000Y-70358000D02*
X105664000Y-77689576D01*
X105664000Y-77689576D02*
X108750424Y-80776000D01*
X108750424Y-80776000D02*
X110839000Y-80776000D01*
X102362000Y-67056000D02*
X105664000Y-70358000D01*
%TO.N,/18*%
X102362000Y-69596000D02*
X105140000Y-72374000D01*
X105140000Y-72374000D02*
X105140000Y-77872682D01*
X105140000Y-77872682D02*
X108543318Y-81276000D01*
X108543318Y-81276000D02*
X110839000Y-81276000D01*
%TO.N,/5*%
X119984894Y-86276000D02*
X118269000Y-86276000D01*
X126862000Y-94986000D02*
X124968000Y-93092000D01*
X124968000Y-91259106D02*
X119984894Y-86276000D01*
X124968000Y-93092000D02*
X124968000Y-91259106D01*
%TO.N,/4*%
X126862000Y-92446000D02*
X120192000Y-85776000D01*
X120192000Y-85776000D02*
X118269000Y-85776000D01*
%TO.N,/3*%
X122232000Y-85276000D02*
X118269000Y-85276000D01*
X126862000Y-89906000D02*
X122232000Y-85276000D01*
%TO.N,/2*%
X126862000Y-87366000D02*
X124272000Y-84776000D01*
X124272000Y-84776000D02*
X118269000Y-84776000D01*
%TO.N,/1*%
X126312000Y-84276000D02*
X118269000Y-84276000D01*
X126862000Y-84826000D02*
X126312000Y-84276000D01*
%TO.N,/30*%
X124460000Y-65034235D02*
X124460000Y-61828000D01*
X124460000Y-61828000D02*
X126862000Y-59426000D01*
X110839000Y-75276000D02*
X114218235Y-75276000D01*
X114218235Y-75276000D02*
X124460000Y-65034235D01*
%TO.N,/29*%
X124968000Y-65233341D02*
X124968000Y-63860000D01*
X110839000Y-75776000D02*
X114425341Y-75776000D01*
X114425341Y-75776000D02*
X124968000Y-65233341D01*
X124968000Y-63860000D02*
X126862000Y-61966000D01*
%TO.N,/28*%
X114632447Y-76276000D02*
X110839000Y-76276000D01*
X126862000Y-64506000D02*
X126402447Y-64506000D01*
X126402447Y-64506000D02*
X114632447Y-76276000D01*
%TO.N,/27*%
X126862000Y-67046000D02*
X124569553Y-67046000D01*
X114839553Y-76776000D02*
X110839000Y-76776000D01*
X124569553Y-67046000D02*
X114839553Y-76776000D01*
%TO.N,/17*%
X102362000Y-72136000D02*
X104640000Y-74414000D01*
X108336212Y-81776000D02*
X110839000Y-81776000D01*
X104640000Y-74414000D02*
X104640000Y-78079788D01*
X104640000Y-78079788D02*
X108336212Y-81776000D01*
%TO.N,/16*%
X108129106Y-82276000D02*
X110839000Y-82276000D01*
X102362000Y-74676000D02*
X104140000Y-76454000D01*
X104140000Y-76454000D02*
X104140000Y-78286894D01*
X104140000Y-78286894D02*
X108129106Y-82276000D01*
%TO.N,/15*%
X102362000Y-77216000D02*
X107922000Y-82776000D01*
X107922000Y-82776000D02*
X110839000Y-82776000D01*
%TO.N,/14*%
X102362000Y-79756000D02*
X105882000Y-83276000D01*
X105882000Y-83276000D02*
X110839000Y-83276000D01*
%TO.N,/13*%
X103842000Y-83776000D02*
X110839000Y-83776000D01*
X102362000Y-82296000D02*
X103842000Y-83776000D01*
%TO.N,/12*%
X102362000Y-84836000D02*
X102922000Y-84276000D01*
X102922000Y-84276000D02*
X110839000Y-84276000D01*
%TO.N,/11*%
X104962000Y-84776000D02*
X110839000Y-84776000D01*
X102362000Y-87376000D02*
X104962000Y-84776000D01*
%TO.N,/10*%
X107002000Y-85276000D02*
X110839000Y-85276000D01*
X102362000Y-89916000D02*
X107002000Y-85276000D01*
%TO.N,/9*%
X102362000Y-92456000D02*
X109042000Y-85776000D01*
X109042000Y-85776000D02*
X110839000Y-85776000D01*
%TO.N,/8*%
X104140000Y-93218000D02*
X104140000Y-91440000D01*
X102362000Y-94996000D02*
X104140000Y-93218000D01*
X104140000Y-91440000D02*
X109304000Y-86276000D01*
X109304000Y-86276000D02*
X110839000Y-86276000D01*
%TO.N,/7*%
X104640000Y-91647106D02*
X109511106Y-86776000D01*
X102362000Y-97536000D02*
X104640000Y-95258000D01*
X104640000Y-95258000D02*
X104640000Y-91647106D01*
X109511106Y-86776000D02*
X110839000Y-86776000D01*
%TO.N,/6*%
X119777788Y-86776000D02*
X118269000Y-86776000D01*
X123952000Y-94616000D02*
X123952000Y-90950212D01*
X123952000Y-90950212D02*
X119777788Y-86776000D01*
X126862000Y-97526000D02*
X123952000Y-94616000D01*
%TO.N,/0*%
X125372000Y-83776000D02*
X118269000Y-83776000D01*
X126862000Y-82286000D02*
X125372000Y-83776000D01*
%TO.N,/35*%
X126862000Y-79746000D02*
X124392000Y-77276000D01*
X124392000Y-77276000D02*
X118269000Y-77276000D01*
%TO.N,/34*%
X126862000Y-77206000D02*
X126432000Y-76776000D01*
X126432000Y-76776000D02*
X118269000Y-76776000D01*
%TO.N,/33*%
X126862000Y-74666000D02*
X125252000Y-76276000D01*
X125252000Y-76276000D02*
X118269000Y-76276000D01*
%TO.N,/32*%
X123212000Y-75776000D02*
X118269000Y-75776000D01*
X126862000Y-72126000D02*
X123212000Y-75776000D01*
%TO.N,/31*%
X121172000Y-75276000D02*
X118269000Y-75276000D01*
X126862000Y-69586000D02*
X121172000Y-75276000D01*
%TD*%
%TA.AperFunction,Conductor*%
%TO.N,GND*%
G36*
X105340834Y-100659625D02*
G01*
X105396767Y-100701497D01*
X105421184Y-100766961D01*
X105421500Y-100775807D01*
X105421500Y-114373918D01*
X105421500Y-114373920D01*
X105421499Y-114373920D01*
X105450340Y-114518907D01*
X105450343Y-114518917D01*
X105506912Y-114655488D01*
X105506920Y-114655503D01*
X105538452Y-114702692D01*
X105538453Y-114702695D01*
X105538454Y-114702695D01*
X105579076Y-114763492D01*
X105589051Y-114778420D01*
X105589052Y-114778421D01*
X106177580Y-115366948D01*
X106177584Y-115366951D01*
X106300498Y-115449080D01*
X106300511Y-115449087D01*
X106437082Y-115505656D01*
X106437087Y-115505658D01*
X106437091Y-115505658D01*
X106437092Y-115505659D01*
X106582079Y-115534500D01*
X106582082Y-115534500D01*
X106729917Y-115534500D01*
X110565680Y-115534500D01*
X110632719Y-115554185D01*
X110664948Y-115584191D01*
X110670454Y-115591546D01*
X110670457Y-115591548D01*
X110785664Y-115677793D01*
X110785671Y-115677797D01*
X110920517Y-115728091D01*
X110920516Y-115728091D01*
X110927444Y-115728835D01*
X110980127Y-115734500D01*
X113375872Y-115734499D01*
X113435483Y-115728091D01*
X113570331Y-115677796D01*
X113616440Y-115643278D01*
X113681901Y-115618861D01*
X113750174Y-115633711D01*
X113778431Y-115654864D01*
X113796181Y-115672614D01*
X113829666Y-115733937D01*
X113832500Y-115760294D01*
X113832500Y-115866168D01*
X113832501Y-115866187D01*
X113842825Y-115967252D01*
X113897092Y-116131015D01*
X113897093Y-116131018D01*
X113987661Y-116277851D01*
X114037629Y-116327819D01*
X114071114Y-116389142D01*
X114066130Y-116458834D01*
X114024258Y-116514767D01*
X113958794Y-116539184D01*
X113949948Y-116539500D01*
X101008500Y-116539500D01*
X100941461Y-116519815D01*
X100895706Y-116467011D01*
X100884500Y-116415500D01*
X100884500Y-111759999D01*
X101260341Y-111759999D01*
X101260341Y-111760000D01*
X101280936Y-111995403D01*
X101280938Y-111995413D01*
X101342094Y-112223655D01*
X101342096Y-112223659D01*
X101342097Y-112223663D01*
X101374063Y-112292214D01*
X101441965Y-112437830D01*
X101441967Y-112437834D01*
X101530767Y-112564652D01*
X101577505Y-112631401D01*
X101744599Y-112798495D01*
X101862692Y-112881185D01*
X101930594Y-112928730D01*
X101974219Y-112983307D01*
X101981413Y-113052805D01*
X101949890Y-113115160D01*
X101930595Y-113131880D01*
X101744922Y-113261890D01*
X101744920Y-113261891D01*
X101577891Y-113428920D01*
X101577886Y-113428926D01*
X101442400Y-113622420D01*
X101442399Y-113622422D01*
X101342570Y-113836507D01*
X101342567Y-113836513D01*
X101285364Y-114049999D01*
X101285364Y-114050000D01*
X102182988Y-114050000D01*
X102150075Y-114107007D01*
X102116000Y-114234174D01*
X102116000Y-114365826D01*
X102150075Y-114492993D01*
X102182988Y-114550000D01*
X101285364Y-114550000D01*
X101342567Y-114763486D01*
X101342570Y-114763492D01*
X101442399Y-114977578D01*
X101577894Y-115171082D01*
X101744917Y-115338105D01*
X101938421Y-115473600D01*
X102152507Y-115573429D01*
X102152516Y-115573433D01*
X102366000Y-115630634D01*
X102366000Y-114733012D01*
X102423007Y-114765925D01*
X102550174Y-114800000D01*
X102681826Y-114800000D01*
X102808993Y-114765925D01*
X102866000Y-114733012D01*
X102866000Y-115630633D01*
X103079483Y-115573433D01*
X103079492Y-115573429D01*
X103293578Y-115473600D01*
X103487082Y-115338105D01*
X103654105Y-115171082D01*
X103789600Y-114977578D01*
X103889429Y-114763492D01*
X103889432Y-114763486D01*
X103946636Y-114550000D01*
X103049012Y-114550000D01*
X103081925Y-114492993D01*
X103116000Y-114365826D01*
X103116000Y-114234174D01*
X103081925Y-114107007D01*
X103049012Y-114050000D01*
X103946636Y-114050000D01*
X103946635Y-114049999D01*
X103889432Y-113836513D01*
X103889429Y-113836507D01*
X103789600Y-113622422D01*
X103789599Y-113622420D01*
X103654113Y-113428926D01*
X103654108Y-113428920D01*
X103487078Y-113261890D01*
X103301405Y-113131879D01*
X103257780Y-113077302D01*
X103250588Y-113007804D01*
X103282110Y-112945449D01*
X103301406Y-112928730D01*
X103487401Y-112798495D01*
X103654495Y-112631401D01*
X103790035Y-112437830D01*
X103889903Y-112223663D01*
X103951063Y-111995408D01*
X103971659Y-111760000D01*
X103967858Y-111716561D01*
X103951063Y-111524596D01*
X103951063Y-111524592D01*
X103889903Y-111296337D01*
X103790035Y-111082171D01*
X103734960Y-111003516D01*
X103654496Y-110888600D01*
X103596562Y-110830666D01*
X103532567Y-110766671D01*
X103499084Y-110705351D01*
X103504068Y-110635659D01*
X103545939Y-110579725D01*
X103576915Y-110562810D01*
X103708331Y-110513796D01*
X103823546Y-110427546D01*
X103909796Y-110312331D01*
X103960091Y-110177483D01*
X103966500Y-110117873D01*
X103966499Y-108322128D01*
X103960091Y-108262517D01*
X103909796Y-108127669D01*
X103909795Y-108127668D01*
X103909793Y-108127664D01*
X103823547Y-108012455D01*
X103823544Y-108012452D01*
X103708335Y-107926206D01*
X103708328Y-107926202D01*
X103573482Y-107875908D01*
X103573483Y-107875908D01*
X103513883Y-107869501D01*
X103513881Y-107869500D01*
X103513873Y-107869500D01*
X103513864Y-107869500D01*
X101718129Y-107869500D01*
X101718123Y-107869501D01*
X101658516Y-107875908D01*
X101523671Y-107926202D01*
X101523664Y-107926206D01*
X101408455Y-108012452D01*
X101408452Y-108012455D01*
X101322206Y-108127664D01*
X101322202Y-108127671D01*
X101271908Y-108262517D01*
X101265501Y-108322116D01*
X101265501Y-108322123D01*
X101265500Y-108322135D01*
X101265500Y-110117870D01*
X101265501Y-110117876D01*
X101271908Y-110177483D01*
X101322202Y-110312328D01*
X101322206Y-110312335D01*
X101408452Y-110427544D01*
X101408455Y-110427547D01*
X101523664Y-110513793D01*
X101523671Y-110513797D01*
X101655081Y-110562810D01*
X101711015Y-110604681D01*
X101735432Y-110670145D01*
X101720580Y-110738418D01*
X101699430Y-110766673D01*
X101577503Y-110888600D01*
X101441965Y-111082169D01*
X101441964Y-111082171D01*
X101342098Y-111296335D01*
X101342094Y-111296344D01*
X101280938Y-111524586D01*
X101280936Y-111524596D01*
X101260341Y-111759999D01*
X100884500Y-111759999D01*
X100884500Y-103202374D01*
X100904185Y-103135335D01*
X100956989Y-103089580D01*
X101026147Y-103079636D01*
X101089703Y-103108661D01*
X101120880Y-103149966D01*
X101187965Y-103293830D01*
X101187967Y-103293834D01*
X101296281Y-103448521D01*
X101323505Y-103487401D01*
X101490599Y-103654495D01*
X101553199Y-103698328D01*
X101684165Y-103790032D01*
X101684167Y-103790033D01*
X101684170Y-103790035D01*
X101898337Y-103889903D01*
X101898343Y-103889904D01*
X101898344Y-103889905D01*
X101935262Y-103899797D01*
X102126592Y-103951063D01*
X102314918Y-103967539D01*
X102361999Y-103971659D01*
X102362000Y-103971659D01*
X102362001Y-103971659D01*
X102401234Y-103968226D01*
X102597408Y-103951063D01*
X102825663Y-103889903D01*
X103039830Y-103790035D01*
X103233401Y-103654495D01*
X103400495Y-103487401D01*
X103536035Y-103293830D01*
X103635903Y-103079663D01*
X103697063Y-102851408D01*
X103717659Y-102616000D01*
X103697063Y-102380592D01*
X103677614Y-102308007D01*
X103679277Y-102238162D01*
X103709706Y-102188238D01*
X105209820Y-100688124D01*
X105271142Y-100654641D01*
X105340834Y-100659625D01*
G37*
%TD.AperFunction*%
%TA.AperFunction,Conductor*%
G36*
X128656313Y-44001814D02*
G01*
X128710191Y-44046299D01*
X128731465Y-44112851D01*
X128731500Y-44115802D01*
X128731500Y-48342131D01*
X128711815Y-48409170D01*
X128659011Y-48454925D01*
X128589853Y-48464869D01*
X128526297Y-48435844D01*
X128488523Y-48377066D01*
X128487725Y-48374225D01*
X128466423Y-48294727D01*
X128466420Y-48294720D01*
X128373096Y-48094586D01*
X128327741Y-48029811D01*
X128327740Y-48029810D01*
X127758962Y-48598589D01*
X127741925Y-48535007D01*
X127676099Y-48420993D01*
X127583007Y-48327901D01*
X127468993Y-48262075D01*
X127405410Y-48245037D01*
X127974188Y-47676259D01*
X127974187Y-47676258D01*
X127909411Y-47630901D01*
X127909405Y-47630898D01*
X127709284Y-47537580D01*
X127709270Y-47537575D01*
X127495986Y-47480426D01*
X127495976Y-47480424D01*
X127276001Y-47461179D01*
X127275999Y-47461179D01*
X127056023Y-47480424D01*
X127056013Y-47480426D01*
X126842729Y-47537575D01*
X126842720Y-47537579D01*
X126642590Y-47630901D01*
X126577811Y-47676258D01*
X127146590Y-48245037D01*
X127083007Y-48262075D01*
X126968993Y-48327901D01*
X126875901Y-48420993D01*
X126810075Y-48535007D01*
X126793037Y-48598590D01*
X126224258Y-48029811D01*
X126178901Y-48094590D01*
X126085579Y-48294720D01*
X126085575Y-48294729D01*
X126028426Y-48508013D01*
X126028424Y-48508023D01*
X126009179Y-48727999D01*
X126009179Y-48728000D01*
X126028424Y-48947976D01*
X126028426Y-48947986D01*
X126085575Y-49161270D01*
X126085580Y-49161284D01*
X126178898Y-49361405D01*
X126178901Y-49361411D01*
X126224258Y-49426187D01*
X126224259Y-49426188D01*
X126793037Y-48857409D01*
X126810075Y-48920993D01*
X126875901Y-49035007D01*
X126968993Y-49128099D01*
X127083007Y-49193925D01*
X127146590Y-49210962D01*
X126577810Y-49779740D01*
X126642590Y-49825099D01*
X126642592Y-49825100D01*
X126842715Y-49918419D01*
X126842729Y-49918424D01*
X127056013Y-49975573D01*
X127056023Y-49975575D01*
X127275999Y-49994821D01*
X127276001Y-49994821D01*
X127495976Y-49975575D01*
X127495986Y-49975573D01*
X127709270Y-49918424D01*
X127709284Y-49918419D01*
X127909407Y-49825100D01*
X127909417Y-49825094D01*
X127974188Y-49779741D01*
X127405410Y-49210962D01*
X127468993Y-49193925D01*
X127583007Y-49128099D01*
X127676099Y-49035007D01*
X127741925Y-48920993D01*
X127758962Y-48857409D01*
X128327741Y-49426188D01*
X128373094Y-49361417D01*
X128373100Y-49361407D01*
X128466419Y-49161284D01*
X128466424Y-49161270D01*
X128487725Y-49081775D01*
X128524090Y-49022114D01*
X128586937Y-48991585D01*
X128656312Y-48999880D01*
X128710190Y-49044365D01*
X128731465Y-49110917D01*
X128731500Y-49113868D01*
X128731500Y-116415500D01*
X128711815Y-116482539D01*
X128659011Y-116528294D01*
X128607500Y-116539500D01*
X115666052Y-116539500D01*
X115599013Y-116519815D01*
X115553258Y-116467011D01*
X115543314Y-116397853D01*
X115572339Y-116334297D01*
X115578371Y-116327819D01*
X115628340Y-116277850D01*
X115718908Y-116131016D01*
X115773174Y-115967253D01*
X115783500Y-115866177D01*
X115783499Y-115167824D01*
X115773174Y-115066747D01*
X115718908Y-114902984D01*
X115628340Y-114756150D01*
X115614017Y-114741827D01*
X115580532Y-114680504D01*
X115585516Y-114610812D01*
X115614021Y-114566460D01*
X115627947Y-114552535D01*
X115718448Y-114405811D01*
X115718453Y-114405800D01*
X115772680Y-114242152D01*
X115782999Y-114141154D01*
X115783000Y-114141141D01*
X115783000Y-114109863D01*
X115798403Y-114057403D01*
X115783000Y-114042000D01*
X114465453Y-114042000D01*
X114418001Y-114032561D01*
X114315793Y-113990225D01*
X114315783Y-113990222D01*
X114156307Y-113958500D01*
X114156305Y-113958500D01*
X113702835Y-113958500D01*
X113635796Y-113938815D01*
X113628524Y-113933767D01*
X113570331Y-113890204D01*
X113570328Y-113890202D01*
X113435482Y-113839908D01*
X113435483Y-113839908D01*
X113375883Y-113833501D01*
X113375881Y-113833500D01*
X113375873Y-113833500D01*
X113375864Y-113833500D01*
X110980129Y-113833500D01*
X110980123Y-113833501D01*
X110920516Y-113839908D01*
X110785671Y-113890202D01*
X110785664Y-113890206D01*
X110670457Y-113976451D01*
X110670451Y-113976457D01*
X110664948Y-113983809D01*
X110609015Y-114025681D01*
X110565680Y-114033500D01*
X107046500Y-114033500D01*
X106979461Y-114013815D01*
X106933706Y-113961011D01*
X106922500Y-113909500D01*
X106922500Y-100438229D01*
X106942185Y-100371190D01*
X106958815Y-100350552D01*
X107241819Y-100067547D01*
X107303142Y-100034063D01*
X107372834Y-100039047D01*
X107428767Y-100080919D01*
X107453184Y-100146383D01*
X107453500Y-100155229D01*
X107453500Y-111225677D01*
X107436887Y-111287677D01*
X107376821Y-111391714D01*
X107333645Y-111524596D01*
X107318326Y-111571744D01*
X107298540Y-111760000D01*
X107318326Y-111948256D01*
X107318327Y-111948259D01*
X107376818Y-112128277D01*
X107376821Y-112128284D01*
X107471467Y-112292216D01*
X107536552Y-112364500D01*
X107598129Y-112432888D01*
X107751265Y-112544148D01*
X107751270Y-112544151D01*
X107924192Y-112621142D01*
X107924197Y-112621144D01*
X108109354Y-112660500D01*
X108109355Y-112660500D01*
X108298644Y-112660500D01*
X108298646Y-112660500D01*
X108483803Y-112621144D01*
X108656730Y-112544151D01*
X108809871Y-112432888D01*
X108936533Y-112292216D01*
X109031179Y-112128284D01*
X109089674Y-111948256D01*
X109109460Y-111760000D01*
X109089674Y-111571744D01*
X109031179Y-111391716D01*
X109009384Y-111353965D01*
X108971113Y-111287677D01*
X108954500Y-111225677D01*
X108954500Y-100102321D01*
X108971113Y-100040321D01*
X108974726Y-100034063D01*
X109031179Y-99936284D01*
X109089674Y-99756256D01*
X109109460Y-99568000D01*
X109089674Y-99379744D01*
X109031179Y-99199716D01*
X108936533Y-99035784D01*
X108809871Y-98895112D01*
X108735512Y-98841087D01*
X108698190Y-98813971D01*
X108655524Y-98758641D01*
X108649545Y-98689028D01*
X108682151Y-98627233D01*
X108683324Y-98626042D01*
X109372771Y-97936595D01*
X109434092Y-97903112D01*
X109434448Y-97903034D01*
X109499803Y-97889144D01*
X109672730Y-97812151D01*
X109825871Y-97700888D01*
X109952533Y-97560216D01*
X110047179Y-97396284D01*
X110105674Y-97216256D01*
X110125460Y-97028000D01*
X110105674Y-96839744D01*
X110047179Y-96659716D01*
X109952533Y-96495784D01*
X109837093Y-96367575D01*
X109825873Y-96355114D01*
X109825872Y-96355113D01*
X109825871Y-96355112D01*
X109779391Y-96321342D01*
X109736728Y-96266016D01*
X109730749Y-96196403D01*
X109763354Y-96134608D01*
X109764528Y-96133416D01*
X111372127Y-94525817D01*
X111433448Y-94492334D01*
X111503140Y-94497318D01*
X111551954Y-94530526D01*
X111639462Y-94627714D01*
X111662129Y-94652888D01*
X111815265Y-94764148D01*
X111815270Y-94764151D01*
X111988191Y-94841142D01*
X111988193Y-94841142D01*
X111988197Y-94841144D01*
X112053329Y-94854987D01*
X112114809Y-94888178D01*
X112115228Y-94888596D01*
X116561181Y-99334549D01*
X116594666Y-99395872D01*
X116597500Y-99422230D01*
X116597500Y-107745500D01*
X116577815Y-107812539D01*
X116525011Y-107858294D01*
X116473505Y-107869500D01*
X116450132Y-107869500D01*
X116450123Y-107869501D01*
X116390516Y-107875908D01*
X116255671Y-107926202D01*
X116255664Y-107926206D01*
X116140455Y-108012452D01*
X116140452Y-108012455D01*
X116054206Y-108127664D01*
X116054202Y-108127671D01*
X116003908Y-108262517D01*
X115997501Y-108322116D01*
X115997501Y-108322123D01*
X115997500Y-108322135D01*
X115997500Y-109847796D01*
X115977815Y-109914835D01*
X115925011Y-109960590D01*
X115855853Y-109970534D01*
X115792297Y-109941509D01*
X115755795Y-109886802D01*
X115718908Y-109775484D01*
X115628340Y-109628650D01*
X115506350Y-109506660D01*
X115359516Y-109416092D01*
X115195753Y-109361826D01*
X115195751Y-109361825D01*
X115094678Y-109351500D01*
X114521330Y-109351500D01*
X114521312Y-109351501D01*
X114420247Y-109361825D01*
X114256484Y-109416092D01*
X114256481Y-109416093D01*
X114109648Y-109506661D01*
X113987661Y-109628648D01*
X113897093Y-109775481D01*
X113897092Y-109775484D01*
X113842826Y-109939247D01*
X113842826Y-109939248D01*
X113842825Y-109939248D01*
X113832500Y-110040315D01*
X113832500Y-110146204D01*
X113812815Y-110213243D01*
X113796181Y-110233885D01*
X113232884Y-110797181D01*
X113171561Y-110830666D01*
X113145203Y-110833500D01*
X110980129Y-110833500D01*
X110980123Y-110833501D01*
X110920516Y-110839908D01*
X110785671Y-110890202D01*
X110785664Y-110890206D01*
X110670455Y-110976452D01*
X110670452Y-110976455D01*
X110584206Y-111091664D01*
X110584202Y-111091671D01*
X110533908Y-111226517D01*
X110527501Y-111286116D01*
X110527500Y-111286135D01*
X110527500Y-112281870D01*
X110527501Y-112281876D01*
X110533908Y-112341483D01*
X110584202Y-112476328D01*
X110584206Y-112476335D01*
X110670452Y-112591544D01*
X110670455Y-112591547D01*
X110785664Y-112677793D01*
X110785671Y-112677797D01*
X110920517Y-112728091D01*
X110920516Y-112728091D01*
X110922563Y-112728311D01*
X110980127Y-112734500D01*
X113375872Y-112734499D01*
X113435483Y-112728091D01*
X113570331Y-112677796D01*
X113681250Y-112594761D01*
X113746711Y-112570345D01*
X113814984Y-112585196D01*
X113864390Y-112634601D01*
X113873265Y-112655024D01*
X113897547Y-112728302D01*
X113897551Y-112728311D01*
X113988056Y-112875041D01*
X113989088Y-112876346D01*
X113989516Y-112877408D01*
X113991846Y-112881185D01*
X113991200Y-112881583D01*
X114015225Y-112941143D01*
X114002180Y-113009784D01*
X113989088Y-113030154D01*
X113988056Y-113031458D01*
X113897551Y-113178188D01*
X113897546Y-113178199D01*
X113843319Y-113341847D01*
X113833000Y-113442845D01*
X113833000Y-113542000D01*
X114558000Y-113542000D01*
X115058000Y-113542000D01*
X115782999Y-113542000D01*
X115782999Y-113442860D01*
X115782998Y-113442845D01*
X115772680Y-113341847D01*
X115718453Y-113178199D01*
X115718448Y-113178188D01*
X115627950Y-113031469D01*
X115626917Y-113030163D01*
X115626487Y-113029097D01*
X115624154Y-113025315D01*
X115624800Y-113024916D01*
X115600776Y-112965368D01*
X115613814Y-112896726D01*
X115626917Y-112876337D01*
X115627950Y-112875030D01*
X115718448Y-112728311D01*
X115718453Y-112728300D01*
X115772680Y-112564652D01*
X115782999Y-112463654D01*
X115783000Y-112463641D01*
X115783000Y-112364500D01*
X115058000Y-112364500D01*
X115058000Y-113542000D01*
X114558000Y-113542000D01*
X114558000Y-111988500D01*
X114577685Y-111921461D01*
X114630489Y-111875706D01*
X114682000Y-111864500D01*
X115782998Y-111864500D01*
X115795873Y-111851625D01*
X115857196Y-111818139D01*
X115926887Y-111823123D01*
X115982821Y-111864994D01*
X116007083Y-111928497D01*
X116012936Y-111995403D01*
X116012938Y-111995413D01*
X116074094Y-112223655D01*
X116074096Y-112223659D01*
X116074097Y-112223663D01*
X116106063Y-112292214D01*
X116173965Y-112437830D01*
X116173967Y-112437834D01*
X116262767Y-112564652D01*
X116309505Y-112631401D01*
X116476599Y-112798495D01*
X116594692Y-112881185D01*
X116662594Y-112928730D01*
X116706219Y-112983307D01*
X116713413Y-113052805D01*
X116681890Y-113115160D01*
X116662595Y-113131880D01*
X116476922Y-113261890D01*
X116476920Y-113261891D01*
X116309891Y-113428920D01*
X116309886Y-113428926D01*
X116174400Y-113622420D01*
X116174399Y-113622422D01*
X116074570Y-113836507D01*
X116074567Y-113836514D01*
X116025115Y-114021072D01*
X116011856Y-114042823D01*
X116017364Y-114050000D01*
X116914988Y-114050000D01*
X116882075Y-114107007D01*
X116848000Y-114234174D01*
X116848000Y-114365826D01*
X116882075Y-114492993D01*
X116914988Y-114550000D01*
X116017364Y-114550000D01*
X116074567Y-114763486D01*
X116074570Y-114763492D01*
X116174399Y-114977578D01*
X116309894Y-115171082D01*
X116476917Y-115338105D01*
X116670421Y-115473600D01*
X116884507Y-115573429D01*
X116884516Y-115573433D01*
X117098000Y-115630634D01*
X117098000Y-114733012D01*
X117155007Y-114765925D01*
X117282174Y-114800000D01*
X117413826Y-114800000D01*
X117540993Y-114765925D01*
X117598000Y-114733012D01*
X117598000Y-115630633D01*
X117811483Y-115573433D01*
X117811492Y-115573429D01*
X118025578Y-115473600D01*
X118219082Y-115338105D01*
X118386105Y-115171082D01*
X118521600Y-114977578D01*
X118621429Y-114763492D01*
X118621432Y-114763486D01*
X118678636Y-114550000D01*
X117781012Y-114550000D01*
X117813925Y-114492993D01*
X117848000Y-114365826D01*
X117848000Y-114234174D01*
X117813925Y-114107007D01*
X117781012Y-114050000D01*
X118678636Y-114050000D01*
X118678635Y-114049999D01*
X118621432Y-113836513D01*
X118621429Y-113836507D01*
X118521600Y-113622422D01*
X118521599Y-113622420D01*
X118386113Y-113428926D01*
X118386108Y-113428920D01*
X118219078Y-113261890D01*
X118033405Y-113131879D01*
X117989780Y-113077302D01*
X117982588Y-113007804D01*
X118014110Y-112945449D01*
X118033406Y-112928730D01*
X118219401Y-112798495D01*
X118386495Y-112631401D01*
X118522035Y-112437830D01*
X118621903Y-112223663D01*
X118683063Y-111995408D01*
X118703659Y-111760000D01*
X118699858Y-111716561D01*
X118683063Y-111524596D01*
X118683063Y-111524592D01*
X118621903Y-111296337D01*
X118522035Y-111082171D01*
X118466960Y-111003516D01*
X118386496Y-110888600D01*
X118328562Y-110830666D01*
X118264567Y-110766671D01*
X118231084Y-110705351D01*
X118236068Y-110635659D01*
X118277939Y-110579725D01*
X118308915Y-110562810D01*
X118440331Y-110513796D01*
X118555546Y-110427546D01*
X118641796Y-110312331D01*
X118692091Y-110177483D01*
X118698500Y-110117873D01*
X118698499Y-108322128D01*
X118692091Y-108262517D01*
X118641796Y-108127669D01*
X118641795Y-108127668D01*
X118641793Y-108127664D01*
X118555547Y-108012455D01*
X118555544Y-108012452D01*
X118440335Y-107926206D01*
X118440328Y-107926202D01*
X118305482Y-107875908D01*
X118305483Y-107875908D01*
X118245883Y-107869501D01*
X118245881Y-107869500D01*
X118245873Y-107869500D01*
X118245865Y-107869500D01*
X118222500Y-107869500D01*
X118155461Y-107849815D01*
X118109706Y-107797011D01*
X118098500Y-107745500D01*
X118098500Y-99139229D01*
X118118185Y-99072190D01*
X118170989Y-99026435D01*
X118240147Y-99016491D01*
X118303703Y-99045516D01*
X118310181Y-99051548D01*
X121133181Y-101874548D01*
X121166666Y-101935871D01*
X121169500Y-101962229D01*
X121169500Y-107745500D01*
X121149815Y-107812539D01*
X121097011Y-107858294D01*
X121045505Y-107869500D01*
X121022132Y-107869500D01*
X121022123Y-107869501D01*
X120962516Y-107875908D01*
X120827671Y-107926202D01*
X120827664Y-107926206D01*
X120712455Y-108012452D01*
X120712452Y-108012455D01*
X120626206Y-108127664D01*
X120626202Y-108127671D01*
X120575908Y-108262517D01*
X120569501Y-108322116D01*
X120569501Y-108322123D01*
X120569500Y-108322135D01*
X120569500Y-110117870D01*
X120569501Y-110117876D01*
X120575908Y-110177483D01*
X120626202Y-110312328D01*
X120626206Y-110312335D01*
X120712452Y-110427544D01*
X120712455Y-110427547D01*
X120827664Y-110513793D01*
X120827671Y-110513797D01*
X120959081Y-110562810D01*
X121015015Y-110604681D01*
X121039432Y-110670145D01*
X121024580Y-110738418D01*
X121003430Y-110766673D01*
X120881503Y-110888600D01*
X120745965Y-111082169D01*
X120745964Y-111082171D01*
X120646098Y-111296335D01*
X120646094Y-111296344D01*
X120584938Y-111524586D01*
X120584936Y-111524596D01*
X120564341Y-111759999D01*
X120564341Y-111760000D01*
X120584936Y-111995403D01*
X120584938Y-111995413D01*
X120646094Y-112223655D01*
X120646096Y-112223659D01*
X120646097Y-112223663D01*
X120678063Y-112292214D01*
X120745965Y-112437830D01*
X120745967Y-112437834D01*
X120834767Y-112564652D01*
X120881505Y-112631401D01*
X121048599Y-112798495D01*
X121166692Y-112881185D01*
X121234594Y-112928730D01*
X121278219Y-112983307D01*
X121285413Y-113052805D01*
X121253890Y-113115160D01*
X121234595Y-113131880D01*
X121048922Y-113261890D01*
X121048920Y-113261891D01*
X120881891Y-113428920D01*
X120881886Y-113428926D01*
X120746400Y-113622420D01*
X120746399Y-113622422D01*
X120646570Y-113836507D01*
X120646567Y-113836513D01*
X120589364Y-114049999D01*
X120589364Y-114050000D01*
X121486988Y-114050000D01*
X121454075Y-114107007D01*
X121420000Y-114234174D01*
X121420000Y-114365826D01*
X121454075Y-114492993D01*
X121486988Y-114550000D01*
X120589364Y-114550000D01*
X120646567Y-114763486D01*
X120646570Y-114763492D01*
X120746399Y-114977578D01*
X120881894Y-115171082D01*
X121048917Y-115338105D01*
X121242421Y-115473600D01*
X121456507Y-115573429D01*
X121456516Y-115573433D01*
X121670000Y-115630634D01*
X121670000Y-114733012D01*
X121727007Y-114765925D01*
X121854174Y-114800000D01*
X121985826Y-114800000D01*
X122112993Y-114765925D01*
X122170000Y-114733012D01*
X122170000Y-115630633D01*
X122383483Y-115573433D01*
X122383492Y-115573429D01*
X122597578Y-115473600D01*
X122791082Y-115338105D01*
X122958105Y-115171082D01*
X123093600Y-114977578D01*
X123193429Y-114763492D01*
X123193432Y-114763486D01*
X123250636Y-114550000D01*
X122353012Y-114550000D01*
X122385925Y-114492993D01*
X122420000Y-114365826D01*
X122420000Y-114234174D01*
X122385925Y-114107007D01*
X122353012Y-114050000D01*
X123250636Y-114050000D01*
X123250635Y-114049999D01*
X123193432Y-113836513D01*
X123193429Y-113836507D01*
X123093600Y-113622422D01*
X123093599Y-113622420D01*
X122958113Y-113428926D01*
X122958108Y-113428920D01*
X122791078Y-113261890D01*
X122605405Y-113131879D01*
X122561780Y-113077302D01*
X122554588Y-113007804D01*
X122586110Y-112945449D01*
X122605406Y-112928730D01*
X122791401Y-112798495D01*
X122958495Y-112631401D01*
X123094035Y-112437830D01*
X123193903Y-112223663D01*
X123255063Y-111995408D01*
X123275659Y-111760000D01*
X123271858Y-111716561D01*
X123255063Y-111524596D01*
X123255063Y-111524592D01*
X123193903Y-111296337D01*
X123094035Y-111082171D01*
X123038960Y-111003516D01*
X122958496Y-110888600D01*
X122900562Y-110830666D01*
X122836567Y-110766671D01*
X122803084Y-110705351D01*
X122808068Y-110635659D01*
X122849939Y-110579725D01*
X122880915Y-110562810D01*
X123012331Y-110513796D01*
X123127546Y-110427546D01*
X123213796Y-110312331D01*
X123264091Y-110177483D01*
X123270500Y-110117873D01*
X123270499Y-108322128D01*
X123264091Y-108262517D01*
X123213796Y-108127669D01*
X123213795Y-108127668D01*
X123213793Y-108127664D01*
X123127547Y-108012455D01*
X123127544Y-108012452D01*
X123012335Y-107926206D01*
X123012328Y-107926202D01*
X122877482Y-107875908D01*
X122877483Y-107875908D01*
X122817883Y-107869501D01*
X122817881Y-107869500D01*
X122817873Y-107869500D01*
X122817865Y-107869500D01*
X122794500Y-107869500D01*
X122727461Y-107849815D01*
X122681706Y-107797011D01*
X122670500Y-107745500D01*
X122670500Y-101679229D01*
X122690185Y-101612190D01*
X122742989Y-101566435D01*
X122812147Y-101556491D01*
X122875703Y-101585516D01*
X122882181Y-101591548D01*
X123165181Y-101874548D01*
X123198666Y-101935871D01*
X123201500Y-101962229D01*
X123201500Y-106753918D01*
X123201500Y-106753920D01*
X123201499Y-106753920D01*
X123230340Y-106898907D01*
X123230343Y-106898917D01*
X123286914Y-107035492D01*
X123319812Y-107084727D01*
X123319813Y-107084730D01*
X123369046Y-107158414D01*
X123369052Y-107158421D01*
X125105181Y-108894548D01*
X125138666Y-108955871D01*
X125141500Y-108982229D01*
X125141500Y-110117870D01*
X125141501Y-110117876D01*
X125147908Y-110177483D01*
X125198202Y-110312328D01*
X125198206Y-110312335D01*
X125284452Y-110427544D01*
X125284455Y-110427547D01*
X125399664Y-110513793D01*
X125399671Y-110513797D01*
X125531081Y-110562810D01*
X125587015Y-110604681D01*
X125611432Y-110670145D01*
X125596580Y-110738418D01*
X125575430Y-110766673D01*
X125453503Y-110888600D01*
X125317965Y-111082169D01*
X125317964Y-111082171D01*
X125218098Y-111296335D01*
X125218094Y-111296344D01*
X125156938Y-111524586D01*
X125156936Y-111524596D01*
X125136341Y-111759999D01*
X125136341Y-111760000D01*
X125156936Y-111995403D01*
X125156938Y-111995413D01*
X125218094Y-112223655D01*
X125218096Y-112223659D01*
X125218097Y-112223663D01*
X125250063Y-112292214D01*
X125317965Y-112437830D01*
X125317967Y-112437834D01*
X125406767Y-112564652D01*
X125453505Y-112631401D01*
X125620599Y-112798495D01*
X125738692Y-112881185D01*
X125806594Y-112928730D01*
X125850219Y-112983307D01*
X125857413Y-113052805D01*
X125825890Y-113115160D01*
X125806595Y-113131880D01*
X125620922Y-113261890D01*
X125620920Y-113261891D01*
X125453891Y-113428920D01*
X125453886Y-113428926D01*
X125318400Y-113622420D01*
X125318399Y-113622422D01*
X125218570Y-113836507D01*
X125218567Y-113836513D01*
X125161364Y-114049999D01*
X125161364Y-114050000D01*
X126058988Y-114050000D01*
X126026075Y-114107007D01*
X125992000Y-114234174D01*
X125992000Y-114365826D01*
X126026075Y-114492993D01*
X126058988Y-114550000D01*
X125161364Y-114550000D01*
X125218567Y-114763486D01*
X125218570Y-114763492D01*
X125318399Y-114977578D01*
X125453894Y-115171082D01*
X125620917Y-115338105D01*
X125814421Y-115473600D01*
X126028507Y-115573429D01*
X126028516Y-115573433D01*
X126242000Y-115630634D01*
X126242000Y-114733012D01*
X126299007Y-114765925D01*
X126426174Y-114800000D01*
X126557826Y-114800000D01*
X126684993Y-114765925D01*
X126742000Y-114733012D01*
X126742000Y-115630633D01*
X126955483Y-115573433D01*
X126955492Y-115573429D01*
X127169578Y-115473600D01*
X127363082Y-115338105D01*
X127530105Y-115171082D01*
X127665600Y-114977578D01*
X127765429Y-114763492D01*
X127765432Y-114763486D01*
X127822636Y-114550000D01*
X126925012Y-114550000D01*
X126957925Y-114492993D01*
X126992000Y-114365826D01*
X126992000Y-114234174D01*
X126957925Y-114107007D01*
X126925012Y-114050000D01*
X127822636Y-114050000D01*
X127822635Y-114049999D01*
X127765432Y-113836513D01*
X127765429Y-113836507D01*
X127665600Y-113622422D01*
X127665599Y-113622420D01*
X127530113Y-113428926D01*
X127530108Y-113428920D01*
X127363078Y-113261890D01*
X127177405Y-113131879D01*
X127133780Y-113077302D01*
X127126588Y-113007804D01*
X127158110Y-112945449D01*
X127177406Y-112928730D01*
X127363401Y-112798495D01*
X127530495Y-112631401D01*
X127666035Y-112437830D01*
X127765903Y-112223663D01*
X127827063Y-111995408D01*
X127847659Y-111760000D01*
X127843858Y-111716561D01*
X127827063Y-111524596D01*
X127827063Y-111524592D01*
X127765903Y-111296337D01*
X127666035Y-111082171D01*
X127610960Y-111003516D01*
X127530496Y-110888600D01*
X127472562Y-110830666D01*
X127408567Y-110766671D01*
X127375084Y-110705351D01*
X127380068Y-110635659D01*
X127421939Y-110579725D01*
X127452915Y-110562810D01*
X127584331Y-110513796D01*
X127699546Y-110427546D01*
X127785796Y-110312331D01*
X127836091Y-110177483D01*
X127842500Y-110117873D01*
X127842499Y-108322128D01*
X127836091Y-108262517D01*
X127785796Y-108127669D01*
X127785795Y-108127668D01*
X127785793Y-108127664D01*
X127699547Y-108012455D01*
X127699544Y-108012452D01*
X127584335Y-107926206D01*
X127584328Y-107926202D01*
X127449482Y-107875908D01*
X127449483Y-107875908D01*
X127389883Y-107869501D01*
X127389881Y-107869500D01*
X127389873Y-107869500D01*
X127389865Y-107869500D01*
X126254229Y-107869500D01*
X126187190Y-107849815D01*
X126166548Y-107833181D01*
X124738819Y-106405451D01*
X124705334Y-106344128D01*
X124702500Y-106317770D01*
X124702500Y-101665808D01*
X124722185Y-101598769D01*
X124774989Y-101553014D01*
X124844147Y-101543070D01*
X124907703Y-101572095D01*
X124914181Y-101578127D01*
X125475181Y-102139127D01*
X125508666Y-102200450D01*
X125511500Y-102226808D01*
X125511500Y-103503870D01*
X125511501Y-103503876D01*
X125517908Y-103563483D01*
X125568202Y-103698328D01*
X125568206Y-103698335D01*
X125654452Y-103813544D01*
X125654455Y-103813547D01*
X125769664Y-103899793D01*
X125769671Y-103899797D01*
X125904517Y-103950091D01*
X125904516Y-103950091D01*
X125911444Y-103950835D01*
X125964127Y-103956500D01*
X127759872Y-103956499D01*
X127819483Y-103950091D01*
X127954331Y-103899796D01*
X128069546Y-103813546D01*
X128155796Y-103698331D01*
X128206091Y-103563483D01*
X128212500Y-103503873D01*
X128212499Y-101708128D01*
X128206091Y-101648517D01*
X128187536Y-101598769D01*
X128155797Y-101513671D01*
X128155793Y-101513664D01*
X128069547Y-101398455D01*
X128069544Y-101398452D01*
X127954335Y-101312206D01*
X127954328Y-101312202D01*
X127822917Y-101263189D01*
X127766983Y-101221318D01*
X127742566Y-101155853D01*
X127757418Y-101087580D01*
X127778563Y-101059332D01*
X127900495Y-100937401D01*
X128036035Y-100743830D01*
X128135903Y-100529663D01*
X128197063Y-100301408D01*
X128217659Y-100066000D01*
X128197063Y-99830592D01*
X128138927Y-99613621D01*
X128135905Y-99602344D01*
X128135904Y-99602343D01*
X128135903Y-99602337D01*
X128036035Y-99388171D01*
X128030135Y-99379744D01*
X127900494Y-99194597D01*
X127733402Y-99027506D01*
X127733396Y-99027501D01*
X127547842Y-98897575D01*
X127504217Y-98842998D01*
X127497023Y-98773500D01*
X127528546Y-98711145D01*
X127547842Y-98694425D01*
X127643802Y-98627233D01*
X127733401Y-98564495D01*
X127900495Y-98397401D01*
X128036035Y-98203830D01*
X128135903Y-97989663D01*
X128197063Y-97761408D01*
X128217659Y-97526000D01*
X128197063Y-97290592D01*
X128138927Y-97073621D01*
X128135905Y-97062344D01*
X128135904Y-97062343D01*
X128135903Y-97062337D01*
X128036035Y-96848171D01*
X128030135Y-96839744D01*
X127900494Y-96654597D01*
X127733402Y-96487506D01*
X127733396Y-96487501D01*
X127547842Y-96357575D01*
X127504217Y-96302998D01*
X127497023Y-96233500D01*
X127528546Y-96171145D01*
X127547842Y-96154425D01*
X127719115Y-96034498D01*
X127733401Y-96024495D01*
X127900495Y-95857401D01*
X128036035Y-95663830D01*
X128135903Y-95449663D01*
X128197063Y-95221408D01*
X128217659Y-94986000D01*
X128197063Y-94750592D01*
X128138927Y-94533621D01*
X128135905Y-94522344D01*
X128135904Y-94522343D01*
X128135903Y-94522337D01*
X128036035Y-94308171D01*
X128022224Y-94288446D01*
X127900494Y-94114597D01*
X127733402Y-93947506D01*
X127733396Y-93947501D01*
X127547842Y-93817575D01*
X127504217Y-93762998D01*
X127497023Y-93693500D01*
X127528546Y-93631145D01*
X127547842Y-93614425D01*
X127719115Y-93494498D01*
X127733401Y-93484495D01*
X127900495Y-93317401D01*
X128036035Y-93123830D01*
X128135903Y-92909663D01*
X128197063Y-92681408D01*
X128217659Y-92446000D01*
X128197063Y-92210592D01*
X128138927Y-91993621D01*
X128135905Y-91982344D01*
X128135904Y-91982343D01*
X128135903Y-91982337D01*
X128036035Y-91768171D01*
X128030135Y-91759744D01*
X127900494Y-91574597D01*
X127733402Y-91407506D01*
X127733396Y-91407501D01*
X127547842Y-91277575D01*
X127504217Y-91222998D01*
X127497023Y-91153500D01*
X127528546Y-91091145D01*
X127547842Y-91074425D01*
X127577946Y-91053346D01*
X127733401Y-90944495D01*
X127900495Y-90777401D01*
X128036035Y-90583830D01*
X128135903Y-90369663D01*
X128197063Y-90141408D01*
X128217659Y-89906000D01*
X128197063Y-89670592D01*
X128138927Y-89453621D01*
X128135905Y-89442344D01*
X128135904Y-89442343D01*
X128135903Y-89442337D01*
X128036035Y-89228171D01*
X127900495Y-89034599D01*
X127900494Y-89034597D01*
X127733402Y-88867506D01*
X127733396Y-88867501D01*
X127547842Y-88737575D01*
X127504217Y-88682998D01*
X127497023Y-88613500D01*
X127528546Y-88551145D01*
X127547842Y-88534425D01*
X127719115Y-88414498D01*
X127733401Y-88404495D01*
X127900495Y-88237401D01*
X128036035Y-88043830D01*
X128135903Y-87829663D01*
X128197063Y-87601408D01*
X128217659Y-87366000D01*
X128197063Y-87130592D01*
X128138927Y-86913621D01*
X128135905Y-86902344D01*
X128135904Y-86902343D01*
X128135903Y-86902337D01*
X128036035Y-86688171D01*
X127900495Y-86494599D01*
X127900494Y-86494597D01*
X127733402Y-86327506D01*
X127733396Y-86327501D01*
X127547842Y-86197575D01*
X127504217Y-86142998D01*
X127497023Y-86073500D01*
X127528546Y-86011145D01*
X127547842Y-85994425D01*
X127609526Y-85951233D01*
X127733401Y-85864495D01*
X127900495Y-85697401D01*
X128036035Y-85503830D01*
X128135903Y-85289663D01*
X128197063Y-85061408D01*
X128217659Y-84826000D01*
X128197063Y-84590592D01*
X128138927Y-84373621D01*
X128135905Y-84362344D01*
X128135904Y-84362343D01*
X128135903Y-84362337D01*
X128036035Y-84148171D01*
X127900495Y-83954599D01*
X127900494Y-83954597D01*
X127733402Y-83787506D01*
X127733396Y-83787501D01*
X127547842Y-83657575D01*
X127504217Y-83602998D01*
X127497023Y-83533500D01*
X127528546Y-83471145D01*
X127547842Y-83454425D01*
X127719115Y-83334498D01*
X127733401Y-83324495D01*
X127900495Y-83157401D01*
X128036035Y-82963830D01*
X128135903Y-82749663D01*
X128197063Y-82521408D01*
X128217659Y-82286000D01*
X128197063Y-82050592D01*
X128138927Y-81833621D01*
X128135905Y-81822344D01*
X128135904Y-81822343D01*
X128135903Y-81822337D01*
X128036035Y-81608171D01*
X128034386Y-81605815D01*
X127900494Y-81414597D01*
X127733402Y-81247506D01*
X127733396Y-81247501D01*
X127547842Y-81117575D01*
X127504217Y-81062998D01*
X127497023Y-80993500D01*
X127528546Y-80931145D01*
X127547842Y-80914425D01*
X127719115Y-80794498D01*
X127733401Y-80784495D01*
X127900495Y-80617401D01*
X128036035Y-80423830D01*
X128135903Y-80209663D01*
X128197063Y-79981408D01*
X128217659Y-79746000D01*
X128197063Y-79510592D01*
X128138927Y-79293621D01*
X128135905Y-79282344D01*
X128135904Y-79282343D01*
X128135903Y-79282337D01*
X128036035Y-79068171D01*
X127900495Y-78874599D01*
X127900494Y-78874597D01*
X127733402Y-78707506D01*
X127733396Y-78707501D01*
X127547842Y-78577575D01*
X127504217Y-78522998D01*
X127497023Y-78453500D01*
X127528546Y-78391145D01*
X127547842Y-78374425D01*
X127719115Y-78254498D01*
X127733401Y-78244495D01*
X127900495Y-78077401D01*
X128036035Y-77883830D01*
X128135903Y-77669663D01*
X128197063Y-77441408D01*
X128217659Y-77206000D01*
X128197063Y-76970592D01*
X128138927Y-76753621D01*
X128135905Y-76742344D01*
X128135904Y-76742343D01*
X128135903Y-76742337D01*
X128036035Y-76528171D01*
X128020811Y-76506428D01*
X127900494Y-76334597D01*
X127733402Y-76167506D01*
X127733396Y-76167501D01*
X127547842Y-76037575D01*
X127504217Y-75982998D01*
X127497023Y-75913500D01*
X127528546Y-75851145D01*
X127547842Y-75834425D01*
X127615503Y-75787048D01*
X127733401Y-75704495D01*
X127900495Y-75537401D01*
X128036035Y-75343830D01*
X128135903Y-75129663D01*
X128197063Y-74901408D01*
X128217659Y-74666000D01*
X128197063Y-74430592D01*
X128138927Y-74213621D01*
X128135905Y-74202344D01*
X128135904Y-74202343D01*
X128135903Y-74202337D01*
X128036035Y-73988171D01*
X127986202Y-73917001D01*
X127900494Y-73794597D01*
X127733402Y-73627506D01*
X127733396Y-73627501D01*
X127547842Y-73497575D01*
X127504217Y-73442998D01*
X127497023Y-73373500D01*
X127528546Y-73311145D01*
X127547842Y-73294425D01*
X127645680Y-73225918D01*
X127733401Y-73164495D01*
X127900495Y-72997401D01*
X128036035Y-72803830D01*
X128135903Y-72589663D01*
X128197063Y-72361408D01*
X128217659Y-72126000D01*
X128197063Y-71890592D01*
X128138927Y-71673621D01*
X128135905Y-71662344D01*
X128135904Y-71662343D01*
X128135903Y-71662337D01*
X128036035Y-71448171D01*
X128023920Y-71430868D01*
X127900494Y-71254597D01*
X127733402Y-71087506D01*
X127733396Y-71087501D01*
X127547842Y-70957575D01*
X127504217Y-70902998D01*
X127497023Y-70833500D01*
X127528546Y-70771145D01*
X127547842Y-70754425D01*
X127570026Y-70738891D01*
X127733401Y-70624495D01*
X127900495Y-70457401D01*
X128036035Y-70263830D01*
X128135903Y-70049663D01*
X128197063Y-69821408D01*
X128217659Y-69586000D01*
X128197063Y-69350592D01*
X128138927Y-69133621D01*
X128135905Y-69122344D01*
X128135904Y-69122343D01*
X128135903Y-69122337D01*
X128036035Y-68908171D01*
X127917946Y-68739521D01*
X127900494Y-68714597D01*
X127733402Y-68547506D01*
X127733396Y-68547501D01*
X127547842Y-68417575D01*
X127504217Y-68362998D01*
X127497023Y-68293500D01*
X127528546Y-68231145D01*
X127547842Y-68214425D01*
X127617618Y-68165567D01*
X127733401Y-68084495D01*
X127900495Y-67917401D01*
X128036035Y-67723830D01*
X128135903Y-67509663D01*
X128197063Y-67281408D01*
X128217659Y-67046000D01*
X128197063Y-66810592D01*
X128138927Y-66593621D01*
X128135905Y-66582344D01*
X128135904Y-66582343D01*
X128135903Y-66582337D01*
X128036035Y-66368171D01*
X128018733Y-66343460D01*
X127900494Y-66174597D01*
X127733402Y-66007506D01*
X127733396Y-66007501D01*
X127547842Y-65877575D01*
X127504217Y-65822998D01*
X127497023Y-65753500D01*
X127528546Y-65691145D01*
X127547842Y-65674425D01*
X127719115Y-65554498D01*
X127733401Y-65544495D01*
X127900495Y-65377401D01*
X128036035Y-65183830D01*
X128135903Y-64969663D01*
X128197063Y-64741408D01*
X128217659Y-64506000D01*
X128197063Y-64270592D01*
X128138927Y-64053621D01*
X128135905Y-64042344D01*
X128135904Y-64042343D01*
X128135903Y-64042337D01*
X128036035Y-63828171D01*
X127992153Y-63765500D01*
X127900494Y-63634597D01*
X127733402Y-63467506D01*
X127733396Y-63467501D01*
X127547842Y-63337575D01*
X127504217Y-63282998D01*
X127497023Y-63213500D01*
X127528546Y-63151145D01*
X127547842Y-63134425D01*
X127627017Y-63078986D01*
X127733401Y-63004495D01*
X127900495Y-62837401D01*
X128036035Y-62643830D01*
X128135903Y-62429663D01*
X128197063Y-62201408D01*
X128217659Y-61966000D01*
X128197063Y-61730592D01*
X128138927Y-61513621D01*
X128135905Y-61502344D01*
X128135904Y-61502343D01*
X128135903Y-61502337D01*
X128036035Y-61288171D01*
X128030135Y-61279744D01*
X127900494Y-61094597D01*
X127733402Y-60927506D01*
X127733396Y-60927501D01*
X127547842Y-60797575D01*
X127504217Y-60742998D01*
X127497023Y-60673500D01*
X127528546Y-60611145D01*
X127547842Y-60594425D01*
X127601159Y-60557092D01*
X127733401Y-60464495D01*
X127900495Y-60297401D01*
X128036035Y-60103830D01*
X128135903Y-59889663D01*
X128197063Y-59661408D01*
X128217659Y-59426000D01*
X128197063Y-59190592D01*
X128135903Y-58962337D01*
X128036035Y-58748171D01*
X127900495Y-58554599D01*
X127900494Y-58554597D01*
X127733402Y-58387506D01*
X127733395Y-58387501D01*
X127539834Y-58251967D01*
X127539830Y-58251965D01*
X127489413Y-58228455D01*
X127325663Y-58152097D01*
X127325659Y-58152096D01*
X127325655Y-58152094D01*
X127097413Y-58090938D01*
X127097403Y-58090936D01*
X126862001Y-58070341D01*
X126861999Y-58070341D01*
X126626596Y-58090936D01*
X126626586Y-58090938D01*
X126398344Y-58152094D01*
X126398335Y-58152098D01*
X126184171Y-58251964D01*
X126184169Y-58251965D01*
X125990597Y-58387505D01*
X125823505Y-58554597D01*
X125687965Y-58748169D01*
X125687964Y-58748171D01*
X125588098Y-58962335D01*
X125588094Y-58962344D01*
X125526938Y-59190586D01*
X125526936Y-59190596D01*
X125506341Y-59425999D01*
X125506341Y-59426000D01*
X125526936Y-59661403D01*
X125526939Y-59661416D01*
X125546384Y-59733989D01*
X125544721Y-59803839D01*
X125514290Y-59853762D01*
X124406181Y-60961872D01*
X124344858Y-60995357D01*
X124275166Y-60990373D01*
X124219233Y-60948501D01*
X124194816Y-60883037D01*
X124194500Y-60874191D01*
X124194500Y-47922229D01*
X124214185Y-47855190D01*
X124230819Y-47834548D01*
X125632052Y-46433315D01*
X127045728Y-45019638D01*
X127107049Y-44986155D01*
X127144211Y-44983793D01*
X127250168Y-44993063D01*
X127275999Y-44995323D01*
X127276000Y-44995323D01*
X127276002Y-44995323D01*
X127331017Y-44990509D01*
X127496068Y-44976070D01*
X127709450Y-44918894D01*
X127909662Y-44825534D01*
X128090620Y-44698826D01*
X128246826Y-44542620D01*
X128373534Y-44361662D01*
X128466894Y-44161450D01*
X128487725Y-44083707D01*
X128524090Y-44024048D01*
X128586937Y-43993519D01*
X128656313Y-44001814D01*
G37*
%TD.AperFunction*%
%TA.AperFunction,Conductor*%
G36*
X122113039Y-79880185D02*
G01*
X122158794Y-79932989D01*
X122170000Y-79984500D01*
X122170000Y-81147999D01*
X122173533Y-81151532D01*
X122228539Y-81167684D01*
X122274294Y-81220488D01*
X122285500Y-81271999D01*
X122285500Y-81467192D01*
X122265815Y-81534231D01*
X122249181Y-81554873D01*
X122214873Y-81589181D01*
X122153550Y-81622666D01*
X122127192Y-81625500D01*
X121465350Y-81625500D01*
X121398311Y-81605815D01*
X121352556Y-81553011D01*
X121342612Y-81483853D01*
X121347644Y-81462497D01*
X121360680Y-81423154D01*
X121360680Y-81423153D01*
X121370999Y-81322153D01*
X121370999Y-81255937D01*
X121390683Y-81188897D01*
X121443486Y-81143141D01*
X121512644Y-81133197D01*
X121525722Y-81136278D01*
X121525726Y-81136264D01*
X121532343Y-81137680D01*
X121633352Y-81147999D01*
X121670000Y-81147999D01*
X121670000Y-79984500D01*
X121689685Y-79917461D01*
X121742489Y-79871706D01*
X121794000Y-79860500D01*
X122046000Y-79860500D01*
X122113039Y-79880185D01*
G37*
%TD.AperFunction*%
%TA.AperFunction,Conductor*%
G36*
X121805466Y-66556185D02*
G01*
X121851221Y-66608989D01*
X121861165Y-66678147D01*
X121832140Y-66741703D01*
X121826108Y-66748181D01*
X118764607Y-69809681D01*
X118703284Y-69843166D01*
X118676926Y-69846000D01*
X117468000Y-69846000D01*
X117468000Y-70396000D01*
X117878926Y-70396000D01*
X117945965Y-70415685D01*
X117991720Y-70468489D01*
X118001664Y-70537647D01*
X117972639Y-70601203D01*
X117966607Y-70607681D01*
X114790325Y-73783962D01*
X114729002Y-73817447D01*
X114659310Y-73812463D01*
X114603377Y-73770591D01*
X114595257Y-73758280D01*
X114559113Y-73695676D01*
X114542500Y-73633677D01*
X114542500Y-71482229D01*
X114562185Y-71415190D01*
X114578814Y-71394553D01*
X115762886Y-70210481D01*
X115824205Y-70176999D01*
X115893897Y-70181983D01*
X115938244Y-70210484D01*
X115991438Y-70263678D01*
X115991447Y-70263685D01*
X116132803Y-70347282D01*
X116132806Y-70347283D01*
X116290504Y-70393099D01*
X116290510Y-70393100D01*
X116327350Y-70395999D01*
X116327366Y-70396000D01*
X116968000Y-70396000D01*
X116968000Y-69470000D01*
X116987685Y-69402961D01*
X117040489Y-69357206D01*
X117092000Y-69346000D01*
X118690295Y-69346000D01*
X118690295Y-69345998D01*
X118690100Y-69343513D01*
X118644281Y-69185801D01*
X118560685Y-69044447D01*
X118555900Y-69038278D01*
X118558366Y-69036364D01*
X118531802Y-68987776D01*
X118536749Y-68918082D01*
X118557856Y-68885232D01*
X118556301Y-68884026D01*
X118561077Y-68877868D01*
X118561081Y-68877865D01*
X118644744Y-68736398D01*
X118690598Y-68578569D01*
X118693500Y-68541694D01*
X118693500Y-68110306D01*
X118690598Y-68073431D01*
X118690596Y-68073425D01*
X118644745Y-67915606D01*
X118644744Y-67915603D01*
X118644744Y-67915602D01*
X118561081Y-67774135D01*
X118561078Y-67774132D01*
X118556298Y-67767969D01*
X118558750Y-67766066D01*
X118532155Y-67717421D01*
X118537104Y-67647726D01*
X118557940Y-67615304D01*
X118556298Y-67614031D01*
X118561075Y-67607870D01*
X118561081Y-67607865D01*
X118644744Y-67466398D01*
X118683301Y-67333685D01*
X118690597Y-67308573D01*
X118690598Y-67308567D01*
X118691948Y-67291413D01*
X118693500Y-67271694D01*
X118693500Y-66840306D01*
X118690598Y-66803431D01*
X118675906Y-66752860D01*
X118659124Y-66695095D01*
X118659323Y-66625225D01*
X118697265Y-66566555D01*
X118760904Y-66537712D01*
X118778200Y-66536500D01*
X121738427Y-66536500D01*
X121805466Y-66556185D01*
G37*
%TD.AperFunction*%
%TA.AperFunction,Conductor*%
G36*
X109921039Y-67333685D02*
G01*
X109966794Y-67386489D01*
X109978000Y-67438000D01*
X109978000Y-68568807D01*
X109990666Y-68592003D01*
X109993500Y-68618361D01*
X109993500Y-69309538D01*
X109973815Y-69376577D01*
X109921011Y-69422332D01*
X109851853Y-69432276D01*
X109796615Y-69409856D01*
X109672734Y-69319851D01*
X109672729Y-69319848D01*
X109499807Y-69242857D01*
X109499803Y-69242856D01*
X109434669Y-69229011D01*
X109373188Y-69195818D01*
X109372770Y-69195402D01*
X108648819Y-68471451D01*
X108615334Y-68410128D01*
X108612500Y-68383770D01*
X108612500Y-68232606D01*
X108632185Y-68165567D01*
X108684989Y-68119812D01*
X108754147Y-68109868D01*
X108817703Y-68138893D01*
X108842038Y-68167509D01*
X108908052Y-68274534D01*
X108908055Y-68274538D01*
X109029961Y-68396444D01*
X109029965Y-68396447D01*
X109176688Y-68486948D01*
X109176699Y-68486953D01*
X109340347Y-68541180D01*
X109441352Y-68551499D01*
X109478000Y-68551499D01*
X109478000Y-67438000D01*
X109497685Y-67370961D01*
X109550489Y-67325206D01*
X109602000Y-67314000D01*
X109854000Y-67314000D01*
X109921039Y-67333685D01*
G37*
%TD.AperFunction*%
%TA.AperFunction,Conductor*%
G36*
X118985448Y-37912185D02*
G01*
X119031203Y-37964989D01*
X119041147Y-38034147D01*
X119012122Y-38097703D01*
X118993895Y-38114876D01*
X118937188Y-38158388D01*
X118937181Y-38158394D01*
X118756394Y-38339181D01*
X118756388Y-38339188D01*
X118600745Y-38542026D01*
X118600734Y-38542042D01*
X118472899Y-38763457D01*
X118472894Y-38763468D01*
X118375053Y-38999677D01*
X118375050Y-38999687D01*
X118308874Y-39246661D01*
X118275500Y-39500149D01*
X118275500Y-39755850D01*
X118287119Y-39844097D01*
X118308874Y-40009340D01*
X118327674Y-40079501D01*
X118375050Y-40256312D01*
X118375053Y-40256322D01*
X118472894Y-40492531D01*
X118472899Y-40492542D01*
X118600734Y-40713957D01*
X118600745Y-40713973D01*
X118756388Y-40916811D01*
X118756394Y-40916818D01*
X118937181Y-41097605D01*
X118937188Y-41097611D01*
X119081638Y-41208452D01*
X119140035Y-41253261D01*
X119140042Y-41253265D01*
X119361457Y-41381100D01*
X119361462Y-41381102D01*
X119361465Y-41381104D01*
X119597687Y-41478950D01*
X119844660Y-41545126D01*
X120098157Y-41578500D01*
X120098164Y-41578500D01*
X120453836Y-41578500D01*
X120453843Y-41578500D01*
X120707340Y-41545126D01*
X120954313Y-41478950D01*
X121190535Y-41381104D01*
X121411965Y-41253261D01*
X121614813Y-41097610D01*
X121795610Y-40916813D01*
X121951261Y-40713965D01*
X122079104Y-40492535D01*
X122176950Y-40256313D01*
X122243126Y-40009340D01*
X122276500Y-39755843D01*
X122276500Y-39500157D01*
X122243126Y-39246660D01*
X122176950Y-38999687D01*
X122079104Y-38763465D01*
X122079102Y-38763462D01*
X122079100Y-38763457D01*
X121951265Y-38542042D01*
X121951261Y-38542035D01*
X121795610Y-38339187D01*
X121795605Y-38339181D01*
X121614818Y-38158394D01*
X121614811Y-38158388D01*
X121558105Y-38114876D01*
X121516902Y-38058448D01*
X121512747Y-37988702D01*
X121546959Y-37927782D01*
X121608676Y-37895029D01*
X121633591Y-37892500D01*
X128607500Y-37892500D01*
X128674539Y-37912185D01*
X128720294Y-37964989D01*
X128731500Y-38016500D01*
X128731500Y-43340197D01*
X128711815Y-43407236D01*
X128659011Y-43452991D01*
X128589853Y-43462935D01*
X128526297Y-43433910D01*
X128488523Y-43375132D01*
X128487725Y-43372291D01*
X128466895Y-43294555D01*
X128466895Y-43294554D01*
X128466894Y-43294550D01*
X128373534Y-43094339D01*
X128246826Y-42913380D01*
X128090620Y-42757174D01*
X128090616Y-42757171D01*
X128090615Y-42757170D01*
X127909666Y-42630468D01*
X127909662Y-42630466D01*
X127886156Y-42619505D01*
X127709450Y-42537106D01*
X127709447Y-42537105D01*
X127709445Y-42537104D01*
X127496070Y-42479930D01*
X127496062Y-42479929D01*
X127276002Y-42460677D01*
X127275998Y-42460677D01*
X127055937Y-42479929D01*
X127055929Y-42479930D01*
X126842554Y-42537104D01*
X126842548Y-42537107D01*
X126642340Y-42630465D01*
X126642338Y-42630466D01*
X126461377Y-42757175D01*
X126305175Y-42913377D01*
X126178466Y-43094338D01*
X126178465Y-43094340D01*
X126085107Y-43294548D01*
X126085104Y-43294554D01*
X126027930Y-43507929D01*
X126027929Y-43507937D01*
X126008677Y-43727997D01*
X126008677Y-43728002D01*
X126020205Y-43859785D01*
X126006438Y-43928285D01*
X125984358Y-43958272D01*
X122861050Y-47081580D01*
X122861044Y-47081588D01*
X122811812Y-47155268D01*
X122811813Y-47155269D01*
X122778921Y-47204496D01*
X122778914Y-47204508D01*
X122722342Y-47341086D01*
X122722340Y-47341092D01*
X122693500Y-47486079D01*
X122693500Y-59751413D01*
X122673815Y-59818452D01*
X122621011Y-59864207D01*
X122551853Y-59874151D01*
X122522048Y-59865974D01*
X122426748Y-59826500D01*
X122426738Y-59826497D01*
X122301071Y-59801500D01*
X122301069Y-59801500D01*
X120538931Y-59801500D01*
X120538929Y-59801500D01*
X120413261Y-59826497D01*
X120413255Y-59826499D01*
X120294874Y-59875534D01*
X120188326Y-59946726D01*
X119678871Y-60456181D01*
X119617548Y-60489666D01*
X119591190Y-60492500D01*
X119287831Y-60492500D01*
X119287812Y-60492501D01*
X119186747Y-60502825D01*
X119022984Y-60557092D01*
X119022981Y-60557093D01*
X118876148Y-60647661D01*
X118754161Y-60769648D01*
X118663593Y-60916481D01*
X118663591Y-60916486D01*
X118609326Y-61080248D01*
X118609325Y-61080249D01*
X118605867Y-61114103D01*
X118579470Y-61178795D01*
X118522289Y-61218946D01*
X118482509Y-61225500D01*
X118325328Y-61225500D01*
X118290733Y-61220576D01*
X118145573Y-61178402D01*
X118145567Y-61178401D01*
X118108701Y-61175500D01*
X118108694Y-61175500D01*
X116327306Y-61175500D01*
X116327298Y-61175500D01*
X116290432Y-61178401D01*
X116290426Y-61178402D01*
X116132606Y-61224254D01*
X116132603Y-61224255D01*
X115991137Y-61307917D01*
X115991129Y-61307923D01*
X115874923Y-61424129D01*
X115874917Y-61424137D01*
X115791255Y-61565603D01*
X115791254Y-61565606D01*
X115745402Y-61723426D01*
X115745401Y-61723432D01*
X115742500Y-61760298D01*
X115742500Y-62191701D01*
X115745401Y-62228567D01*
X115745402Y-62228573D01*
X115791254Y-62386393D01*
X115791255Y-62386396D01*
X115874917Y-62527862D01*
X115879702Y-62534031D01*
X115877256Y-62535927D01*
X115903857Y-62584642D01*
X115898873Y-62654334D01*
X115878069Y-62686703D01*
X115879702Y-62687969D01*
X115874917Y-62694137D01*
X115791255Y-62835603D01*
X115791254Y-62835606D01*
X115745402Y-62993426D01*
X115745401Y-62993432D01*
X115742500Y-63030298D01*
X115742500Y-63461701D01*
X115745401Y-63498567D01*
X115746540Y-63504799D01*
X115744134Y-63505238D01*
X115743950Y-63564198D01*
X115705991Y-63622857D01*
X115642344Y-63651682D01*
X115599303Y-63650179D01*
X115436147Y-63615500D01*
X115436146Y-63615500D01*
X115366500Y-63615500D01*
X115299461Y-63595815D01*
X115253706Y-63543011D01*
X115242500Y-63491500D01*
X115242500Y-52700149D01*
X118275500Y-52700149D01*
X118275500Y-52955850D01*
X118278615Y-52979506D01*
X118308874Y-53209340D01*
X118375050Y-53456312D01*
X118375053Y-53456322D01*
X118472894Y-53692531D01*
X118472899Y-53692542D01*
X118600734Y-53913957D01*
X118600745Y-53913973D01*
X118756388Y-54116811D01*
X118756394Y-54116818D01*
X118937181Y-54297605D01*
X118937187Y-54297610D01*
X119140035Y-54453261D01*
X119140042Y-54453265D01*
X119361457Y-54581100D01*
X119361462Y-54581102D01*
X119361465Y-54581104D01*
X119597687Y-54678950D01*
X119844660Y-54745126D01*
X120098157Y-54778500D01*
X120098164Y-54778500D01*
X120453836Y-54778500D01*
X120453843Y-54778500D01*
X120707340Y-54745126D01*
X120954313Y-54678950D01*
X121190535Y-54581104D01*
X121411965Y-54453261D01*
X121614813Y-54297610D01*
X121795610Y-54116813D01*
X121951261Y-53913965D01*
X122079104Y-53692535D01*
X122176950Y-53456313D01*
X122243126Y-53209340D01*
X122276500Y-52955843D01*
X122276500Y-52700157D01*
X122243126Y-52446660D01*
X122176950Y-52199687D01*
X122079104Y-51963465D01*
X122079102Y-51963462D01*
X122079100Y-51963457D01*
X121951265Y-51742042D01*
X121951261Y-51742035D01*
X121795610Y-51539187D01*
X121795605Y-51539181D01*
X121614818Y-51358394D01*
X121614811Y-51358388D01*
X121411973Y-51202745D01*
X121411971Y-51202743D01*
X121411965Y-51202739D01*
X121411960Y-51202736D01*
X121411957Y-51202734D01*
X121190542Y-51074899D01*
X121190531Y-51074894D01*
X120954322Y-50977053D01*
X120954315Y-50977051D01*
X120954313Y-50977050D01*
X120707340Y-50910874D01*
X120651007Y-50903457D01*
X120453850Y-50877500D01*
X120453843Y-50877500D01*
X120098157Y-50877500D01*
X120098149Y-50877500D01*
X119872826Y-50907165D01*
X119844660Y-50910874D01*
X119597687Y-50977050D01*
X119597677Y-50977053D01*
X119361468Y-51074894D01*
X119361457Y-51074899D01*
X119140042Y-51202734D01*
X119140026Y-51202745D01*
X118937188Y-51358388D01*
X118937181Y-51358394D01*
X118756394Y-51539181D01*
X118756388Y-51539188D01*
X118600745Y-51742026D01*
X118600734Y-51742042D01*
X118472899Y-51963457D01*
X118472894Y-51963468D01*
X118375053Y-52199677D01*
X118375050Y-52199687D01*
X118308874Y-52446661D01*
X118275500Y-52700149D01*
X115242500Y-52700149D01*
X115242500Y-45370079D01*
X115213659Y-45225092D01*
X115213658Y-45225091D01*
X115213658Y-45225087D01*
X115213656Y-45225082D01*
X115157087Y-45088511D01*
X115157080Y-45088498D01*
X115074952Y-44965585D01*
X115028259Y-44918892D01*
X114970416Y-44861049D01*
X114067640Y-43958272D01*
X114034155Y-43896949D01*
X114031793Y-43859785D01*
X114043323Y-43728000D01*
X114024070Y-43507932D01*
X113966894Y-43294550D01*
X113873534Y-43094339D01*
X113746826Y-42913380D01*
X113590620Y-42757174D01*
X113590616Y-42757171D01*
X113590615Y-42757170D01*
X113409666Y-42630468D01*
X113409662Y-42630466D01*
X113386156Y-42619505D01*
X113209450Y-42537106D01*
X113209447Y-42537105D01*
X113209445Y-42537104D01*
X112996070Y-42479930D01*
X112996062Y-42479929D01*
X112776002Y-42460677D01*
X112775998Y-42460677D01*
X112555937Y-42479929D01*
X112555929Y-42479930D01*
X112342554Y-42537104D01*
X112342548Y-42537107D01*
X112142340Y-42630465D01*
X112142338Y-42630466D01*
X111961377Y-42757175D01*
X111805175Y-42913377D01*
X111678466Y-43094338D01*
X111678465Y-43094340D01*
X111585107Y-43294548D01*
X111585104Y-43294554D01*
X111527930Y-43507929D01*
X111527929Y-43507937D01*
X111508677Y-43727997D01*
X111508677Y-43728002D01*
X111527929Y-43948062D01*
X111527930Y-43948070D01*
X111585104Y-44161445D01*
X111585105Y-44161447D01*
X111585106Y-44161450D01*
X111666420Y-44335830D01*
X111678466Y-44361662D01*
X111678468Y-44361666D01*
X111805170Y-44542615D01*
X111805175Y-44542621D01*
X111961378Y-44698824D01*
X111961384Y-44698829D01*
X112142333Y-44825531D01*
X112142335Y-44825532D01*
X112142338Y-44825534D01*
X112218503Y-44861050D01*
X112228891Y-44865894D01*
X112281330Y-44912066D01*
X112300482Y-44979260D01*
X112280266Y-45046141D01*
X112228891Y-45090658D01*
X112142590Y-45130901D01*
X112077811Y-45176258D01*
X112646590Y-45745037D01*
X112583007Y-45762075D01*
X112468993Y-45827901D01*
X112375901Y-45920993D01*
X112310075Y-46035007D01*
X112293037Y-46098590D01*
X111724258Y-45529811D01*
X111678901Y-45594590D01*
X111585579Y-45794720D01*
X111585575Y-45794729D01*
X111528426Y-46008013D01*
X111528424Y-46008023D01*
X111509179Y-46227999D01*
X111509179Y-46228000D01*
X111528424Y-46447976D01*
X111528426Y-46447986D01*
X111585575Y-46661270D01*
X111585580Y-46661284D01*
X111678898Y-46861405D01*
X111678901Y-46861411D01*
X111724258Y-46926187D01*
X111724259Y-46926188D01*
X112293037Y-46357409D01*
X112310075Y-46420993D01*
X112375901Y-46535007D01*
X112468993Y-46628099D01*
X112583007Y-46693925D01*
X112646588Y-46710961D01*
X112077810Y-47279740D01*
X112142589Y-47325098D01*
X112228891Y-47365342D01*
X112281330Y-47411514D01*
X112300482Y-47478708D01*
X112280266Y-47545589D01*
X112228891Y-47590106D01*
X112142340Y-47630465D01*
X112142338Y-47630466D01*
X111961377Y-47757175D01*
X111805175Y-47913377D01*
X111678466Y-48094338D01*
X111678465Y-48094340D01*
X111585107Y-48294548D01*
X111585104Y-48294554D01*
X111527930Y-48507929D01*
X111527929Y-48507937D01*
X111508677Y-48727997D01*
X111508677Y-48728002D01*
X111527929Y-48948062D01*
X111527930Y-48948070D01*
X111585104Y-49161445D01*
X111585105Y-49161447D01*
X111585106Y-49161450D01*
X111603854Y-49201655D01*
X111678466Y-49361662D01*
X111678468Y-49361666D01*
X111805170Y-49542615D01*
X111805175Y-49542621D01*
X111961378Y-49698824D01*
X111961384Y-49698829D01*
X112142333Y-49825531D01*
X112142335Y-49825532D01*
X112142338Y-49825534D01*
X112342550Y-49918894D01*
X112555932Y-49976070D01*
X112713123Y-49989822D01*
X112775998Y-49995323D01*
X112776000Y-49995323D01*
X112776001Y-49995323D01*
X112786325Y-49994419D01*
X112906695Y-49983888D01*
X112975192Y-49997654D01*
X113025375Y-50046269D01*
X113041500Y-50107416D01*
X113041500Y-61051500D01*
X113021815Y-61118539D01*
X112969011Y-61164294D01*
X112917500Y-61175500D01*
X112580230Y-61175500D01*
X112513191Y-61155815D01*
X112492549Y-61139181D01*
X111022819Y-59669451D01*
X110989334Y-59608128D01*
X110986500Y-59581770D01*
X110986500Y-48689080D01*
X110974640Y-48629460D01*
X110974640Y-48629459D01*
X110957659Y-48544088D01*
X110903408Y-48413117D01*
X110901765Y-48408525D01*
X110901084Y-48407505D01*
X110846205Y-48325373D01*
X110818952Y-48284585D01*
X103963869Y-41429501D01*
X103930384Y-41368178D01*
X103928022Y-41331012D01*
X103934825Y-41253265D01*
X103946659Y-41118000D01*
X103926063Y-40882592D01*
X103864903Y-40654337D01*
X103765035Y-40440171D01*
X103629495Y-40246599D01*
X103629494Y-40246597D01*
X103462402Y-40079506D01*
X103462395Y-40079501D01*
X103268834Y-39943967D01*
X103268830Y-39943965D01*
X103268828Y-39943964D01*
X103054663Y-39844097D01*
X103054659Y-39844096D01*
X103054655Y-39844094D01*
X102826413Y-39782938D01*
X102826403Y-39782936D01*
X102591001Y-39762341D01*
X102590999Y-39762341D01*
X102355596Y-39782936D01*
X102355586Y-39782938D01*
X102127344Y-39844094D01*
X102127335Y-39844098D01*
X101913171Y-39943964D01*
X101913169Y-39943965D01*
X101719597Y-40079505D01*
X101552505Y-40246597D01*
X101416965Y-40440169D01*
X101416964Y-40440171D01*
X101317098Y-40654335D01*
X101317094Y-40654344D01*
X101255938Y-40882586D01*
X101255936Y-40882596D01*
X101235341Y-41117999D01*
X101235341Y-41118000D01*
X101255936Y-41353403D01*
X101255938Y-41353413D01*
X101317094Y-41581655D01*
X101317096Y-41581659D01*
X101317097Y-41581663D01*
X101416965Y-41795830D01*
X101416967Y-41795834D01*
X101552501Y-41989395D01*
X101552506Y-41989402D01*
X101719597Y-42156493D01*
X101719603Y-42156498D01*
X101905158Y-42286425D01*
X101948783Y-42341002D01*
X101955977Y-42410500D01*
X101924454Y-42472855D01*
X101905158Y-42489575D01*
X101719597Y-42619505D01*
X101552505Y-42786597D01*
X101416965Y-42980169D01*
X101416964Y-42980171D01*
X101317098Y-43194335D01*
X101317094Y-43194344D01*
X101255938Y-43422586D01*
X101255936Y-43422596D01*
X101235341Y-43657999D01*
X101235341Y-43658000D01*
X101255936Y-43893403D01*
X101255938Y-43893413D01*
X101317094Y-44121655D01*
X101317096Y-44121659D01*
X101317097Y-44121663D01*
X101335648Y-44161445D01*
X101416965Y-44335830D01*
X101416967Y-44335834D01*
X101525281Y-44490521D01*
X101552505Y-44529401D01*
X101719599Y-44696495D01*
X101903884Y-44825533D01*
X101905594Y-44826730D01*
X101949219Y-44881307D01*
X101956413Y-44950805D01*
X101924890Y-45013160D01*
X101905595Y-45029880D01*
X101719922Y-45159890D01*
X101719920Y-45159891D01*
X101552891Y-45326920D01*
X101552886Y-45326926D01*
X101417400Y-45520420D01*
X101417399Y-45520422D01*
X101317570Y-45734507D01*
X101317567Y-45734513D01*
X101260364Y-45947999D01*
X101260364Y-45948000D01*
X102157988Y-45948000D01*
X102125075Y-46005007D01*
X102091000Y-46132174D01*
X102091000Y-46263826D01*
X102125075Y-46390993D01*
X102157988Y-46448000D01*
X101260364Y-46448000D01*
X101317567Y-46661486D01*
X101317570Y-46661492D01*
X101417399Y-46875578D01*
X101552894Y-47069082D01*
X101719917Y-47236105D01*
X101905595Y-47366119D01*
X101949219Y-47420696D01*
X101956412Y-47490195D01*
X101924890Y-47552549D01*
X101905595Y-47569269D01*
X101719594Y-47699508D01*
X101552505Y-47866597D01*
X101416965Y-48060169D01*
X101416964Y-48060171D01*
X101317098Y-48274335D01*
X101317094Y-48274344D01*
X101255938Y-48502586D01*
X101255936Y-48502596D01*
X101235341Y-48737999D01*
X101235341Y-48738000D01*
X101255936Y-48973403D01*
X101255938Y-48973413D01*
X101317094Y-49201655D01*
X101317096Y-49201659D01*
X101317097Y-49201663D01*
X101343745Y-49258809D01*
X101416965Y-49415830D01*
X101416967Y-49415834D01*
X101552501Y-49609395D01*
X101552506Y-49609402D01*
X101674430Y-49731326D01*
X101707915Y-49792649D01*
X101702931Y-49862341D01*
X101661059Y-49918274D01*
X101630083Y-49935189D01*
X101498669Y-49984203D01*
X101498664Y-49984206D01*
X101383455Y-50070452D01*
X101383452Y-50070455D01*
X101297206Y-50185664D01*
X101297202Y-50185671D01*
X101246908Y-50320517D01*
X101240501Y-50380116D01*
X101240500Y-50380135D01*
X101240500Y-52175870D01*
X101240501Y-52175872D01*
X101246908Y-52235483D01*
X101297202Y-52370328D01*
X101297206Y-52370335D01*
X101383452Y-52485544D01*
X101383455Y-52485547D01*
X101498664Y-52571793D01*
X101498671Y-52571797D01*
X101633517Y-52622091D01*
X101633516Y-52622091D01*
X101640444Y-52622835D01*
X101693127Y-52628500D01*
X102787500Y-52628499D01*
X102854539Y-52648184D01*
X102900294Y-52700987D01*
X102911500Y-52752499D01*
X102911500Y-56491918D01*
X102911500Y-56491920D01*
X102911499Y-56491920D01*
X102940340Y-56636907D01*
X102940343Y-56636917D01*
X102996914Y-56773492D01*
X103029812Y-56822727D01*
X103029813Y-56822730D01*
X103079046Y-56896414D01*
X103079052Y-56896421D01*
X106708605Y-60525972D01*
X106742090Y-60587295D01*
X106737106Y-60656987D01*
X106695234Y-60712920D01*
X106693810Y-60713971D01*
X106582127Y-60795113D01*
X106455466Y-60935785D01*
X106360821Y-61099715D01*
X106360818Y-61099722D01*
X106320355Y-61224256D01*
X106302326Y-61279744D01*
X106282540Y-61468000D01*
X106302326Y-61656256D01*
X106302327Y-61656259D01*
X106360818Y-61836277D01*
X106360821Y-61836284D01*
X106455467Y-62000216D01*
X106510311Y-62061126D01*
X106582129Y-62140888D01*
X106735265Y-62252148D01*
X106735270Y-62252151D01*
X106908191Y-62329142D01*
X106908193Y-62329142D01*
X106908197Y-62329144D01*
X106973329Y-62342987D01*
X107034809Y-62376178D01*
X107035228Y-62376596D01*
X107075181Y-62416549D01*
X107108666Y-62477872D01*
X107111500Y-62504230D01*
X107111500Y-62966192D01*
X107091815Y-63033231D01*
X107039011Y-63078986D01*
X106969853Y-63088930D01*
X106906297Y-63059905D01*
X106899819Y-63053873D01*
X103748818Y-59902872D01*
X103715333Y-59841549D01*
X103712499Y-59815191D01*
X103712499Y-58538129D01*
X103712498Y-58538123D01*
X103706091Y-58478516D01*
X103655797Y-58343671D01*
X103655793Y-58343664D01*
X103569547Y-58228455D01*
X103569544Y-58228452D01*
X103454335Y-58142206D01*
X103454328Y-58142202D01*
X103319482Y-58091908D01*
X103319483Y-58091908D01*
X103259883Y-58085501D01*
X103259881Y-58085500D01*
X103259873Y-58085500D01*
X103259864Y-58085500D01*
X101464129Y-58085500D01*
X101464123Y-58085501D01*
X101404516Y-58091908D01*
X101269671Y-58142202D01*
X101269664Y-58142206D01*
X101154455Y-58228452D01*
X101154452Y-58228455D01*
X101107766Y-58290820D01*
X101051832Y-58332691D01*
X100982141Y-58337675D01*
X100920818Y-58304189D01*
X100887334Y-58242866D01*
X100884500Y-58216509D01*
X100884500Y-38016500D01*
X100904185Y-37949461D01*
X100956989Y-37903706D01*
X101008500Y-37892500D01*
X118918409Y-37892500D01*
X118985448Y-37912185D01*
G37*
%TD.AperFunction*%
%TD*%
M02*
