%TF.GenerationSoftware,KiCad,Pcbnew,8.0.2*%
%TF.CreationDate,2024-09-16T20:23:21-04:00*%
%TF.ProjectId,fpga,66706761-2e6b-4696-9361-645f70636258,rev?*%
%TF.SameCoordinates,Original*%
%TF.FileFunction,Legend,Bot*%
%TF.FilePolarity,Positive*%
%FSLAX46Y46*%
G04 Gerber Fmt 4.6, Leading zero omitted, Abs format (unit mm)*
G04 Created by KiCad (PCBNEW 8.0.2) date 2024-09-16 20:23:21*
%MOMM*%
%LPD*%
G01*
G04 APERTURE LIST*
G04 Aperture macros list*
%AMRoundRect*
0 Rectangle with rounded corners*
0 $1 Rounding radius*
0 $2 $3 $4 $5 $6 $7 $8 $9 X,Y pos of 4 corners*
0 Add a 4 corners polygon primitive as box body*
4,1,4,$2,$3,$4,$5,$6,$7,$8,$9,$2,$3,0*
0 Add four circle primitives for the rounded corners*
1,1,$1+$1,$2,$3*
1,1,$1+$1,$4,$5*
1,1,$1+$1,$6,$7*
1,1,$1+$1,$8,$9*
0 Add four rect primitives between the rounded corners*
20,1,$1+$1,$2,$3,$4,$5,0*
20,1,$1+$1,$4,$5,$6,$7,0*
20,1,$1+$1,$6,$7,$8,$9,0*
20,1,$1+$1,$8,$9,$2,$3,0*%
%AMRotRect*
0 Rectangle, with rotation*
0 The origin of the aperture is its center*
0 $1 length*
0 $2 width*
0 $3 Rotation angle, in degrees counterclockwise*
0 Add horizontal line*
21,1,$1,$2,0,0,$3*%
%AMFreePoly0*
4,1,21,3.024497,2.399497,3.045000,2.350000,3.045000,-2.350000,3.024497,-2.399497,2.975000,-2.420000,1.425000,-2.420000,1.375503,-2.399497,1.355000,-2.350000,1.355000,-2.170000,-1.650000,-2.170000,-1.699497,-2.149497,-1.720000,-2.100000,-1.720000,2.100000,-1.699497,2.149497,-1.650000,2.170000,1.355000,2.170000,1.355000,2.350000,1.375503,2.399497,1.425000,2.420000,2.975000,2.420000,
3.024497,2.399497,3.024497,2.399497,$1*%
%AMFreePoly1*
4,1,19,0.500000,-0.750000,0.000000,-0.750000,0.000000,-0.744911,-0.071157,-0.744911,-0.207708,-0.704816,-0.327430,-0.627875,-0.420627,-0.520320,-0.479746,-0.390866,-0.500000,-0.250000,-0.500000,0.250000,-0.479746,0.390866,-0.420627,0.520320,-0.327430,0.627875,-0.207708,0.704816,-0.071157,0.744911,0.000000,0.744911,0.000000,0.750000,0.500000,0.750000,0.500000,-0.750000,0.500000,-0.750000,
$1*%
%AMFreePoly2*
4,1,19,0.000000,0.744911,0.071157,0.744911,0.207708,0.704816,0.327430,0.627875,0.420627,0.520320,0.479746,0.390866,0.500000,0.250000,0.500000,-0.250000,0.479746,-0.390866,0.420627,-0.520320,0.327430,-0.627875,0.207708,-0.704816,0.071157,-0.744911,0.000000,-0.744911,0.000000,-0.750000,-0.500000,-0.750000,-0.500000,0.750000,0.000000,0.750000,0.000000,0.744911,0.000000,0.744911,
$1*%
G04 Aperture macros list end*
%ADD10C,0.150000*%
%ADD11C,0.120000*%
%ADD12C,0.152400*%
%ADD13C,0.000000*%
%ADD14C,0.200000*%
%ADD15C,1.450000*%
%ADD16C,6.000000*%
%ADD17C,2.000000*%
%ADD18RotRect,0.900000X2.000000X278.000000*%
%ADD19RoundRect,1.025000X-1.157677X0.872372X-0.872372X-1.157677X1.157677X-0.872372X0.872372X1.157677X0*%
%ADD20C,4.100000*%
%ADD21RotRect,2.300000X1.300000X278.000000*%
%ADD22R,1.700000X1.700000*%
%ADD23O,1.700000X1.700000*%
%ADD24RoundRect,0.102000X0.754000X-0.754000X0.754000X0.754000X-0.754000X0.754000X-0.754000X-0.754000X0*%
%ADD25C,1.712000*%
%ADD26O,1.600000X0.900000*%
%ADD27RoundRect,0.155000X-0.212500X-0.155000X0.212500X-0.155000X0.212500X0.155000X-0.212500X0.155000X0*%
%ADD28RoundRect,0.160000X-0.197500X-0.160000X0.197500X-0.160000X0.197500X0.160000X-0.197500X0.160000X0*%
%ADD29RoundRect,0.160000X0.197500X0.160000X-0.197500X0.160000X-0.197500X-0.160000X0.197500X-0.160000X0*%
%ADD30RoundRect,0.155000X0.155000X-0.212500X0.155000X0.212500X-0.155000X0.212500X-0.155000X-0.212500X0*%
%ADD31RoundRect,0.160000X-0.160000X0.197500X-0.160000X-0.197500X0.160000X-0.197500X0.160000X0.197500X0*%
%ADD32R,0.254000X0.812800*%
%ADD33R,0.812800X0.254000*%
%ADD34R,0.990600X2.895600*%
%ADD35RoundRect,0.070000X-0.575000X0.350000X-0.575000X-0.350000X0.575000X-0.350000X0.575000X0.350000X0*%
%ADD36FreePoly0,180.000000*%
%ADD37R,1.000000X0.599999*%
%ADD38R,0.304800X0.711200*%
%ADD39R,2.649000X2.089194*%
%ADD40R,0.711200X0.304800*%
%ADD41R,2.641600X2.336800*%
%ADD42R,2.006600X0.685800*%
%ADD43R,2.211400X4.700000*%
%ADD44RoundRect,0.160000X0.160000X-0.197500X0.160000X0.197500X-0.160000X0.197500X-0.160000X-0.197500X0*%
%ADD45RoundRect,0.155000X-0.155000X0.212500X-0.155000X-0.212500X0.155000X-0.212500X0.155000X0.212500X0*%
%ADD46FreePoly1,180.000000*%
%ADD47FreePoly2,180.000000*%
%ADD48RoundRect,0.160000X0.160000X-0.222500X0.160000X0.222500X-0.160000X0.222500X-0.160000X-0.222500X0*%
%ADD49R,0.650000X1.700000*%
%ADD50RoundRect,0.250000X-0.325000X-0.450000X0.325000X-0.450000X0.325000X0.450000X-0.325000X0.450000X0*%
%ADD51RotRect,1.540000X1.800000X225.000000*%
%ADD52RoundRect,0.075000X-0.662500X-0.075000X0.662500X-0.075000X0.662500X0.075000X-0.662500X0.075000X0*%
%ADD53RoundRect,0.075000X-0.075000X-0.662500X0.075000X-0.662500X0.075000X0.662500X-0.075000X0.662500X0*%
%ADD54RoundRect,0.155000X-0.040659X-0.259862X0.259862X0.040659X0.040659X0.259862X-0.259862X-0.040659X0*%
G04 APERTURE END LIST*
D10*
X67906658Y-54241819D02*
X67287611Y-54241819D01*
X67287611Y-54241819D02*
X67620944Y-54622771D01*
X67620944Y-54622771D02*
X67478087Y-54622771D01*
X67478087Y-54622771D02*
X67382849Y-54670390D01*
X67382849Y-54670390D02*
X67335230Y-54718009D01*
X67335230Y-54718009D02*
X67287611Y-54813247D01*
X67287611Y-54813247D02*
X67287611Y-55051342D01*
X67287611Y-55051342D02*
X67335230Y-55146580D01*
X67335230Y-55146580D02*
X67382849Y-55194200D01*
X67382849Y-55194200D02*
X67478087Y-55241819D01*
X67478087Y-55241819D02*
X67763801Y-55241819D01*
X67763801Y-55241819D02*
X67859039Y-55194200D01*
X67859039Y-55194200D02*
X67906658Y-55146580D01*
X67001896Y-54241819D02*
X66668563Y-55241819D01*
X66668563Y-55241819D02*
X66335230Y-54241819D01*
X66097134Y-54241819D02*
X65478087Y-54241819D01*
X65478087Y-54241819D02*
X65811420Y-54622771D01*
X65811420Y-54622771D02*
X65668563Y-54622771D01*
X65668563Y-54622771D02*
X65573325Y-54670390D01*
X65573325Y-54670390D02*
X65525706Y-54718009D01*
X65525706Y-54718009D02*
X65478087Y-54813247D01*
X65478087Y-54813247D02*
X65478087Y-55051342D01*
X65478087Y-55051342D02*
X65525706Y-55146580D01*
X65525706Y-55146580D02*
X65573325Y-55194200D01*
X65573325Y-55194200D02*
X65668563Y-55241819D01*
X65668563Y-55241819D02*
X65954277Y-55241819D01*
X65954277Y-55241819D02*
X66049515Y-55194200D01*
X66049515Y-55194200D02*
X66097134Y-55146580D01*
X137397877Y-71132819D02*
X136826449Y-71132819D01*
X137112163Y-72132819D02*
X137112163Y-71132819D01*
X136493115Y-72132819D02*
X136493115Y-71132819D01*
X136493115Y-71132819D02*
X136255020Y-71132819D01*
X136255020Y-71132819D02*
X136112163Y-71180438D01*
X136112163Y-71180438D02*
X136016925Y-71275676D01*
X136016925Y-71275676D02*
X135969306Y-71370914D01*
X135969306Y-71370914D02*
X135921687Y-71561390D01*
X135921687Y-71561390D02*
X135921687Y-71704247D01*
X135921687Y-71704247D02*
X135969306Y-71894723D01*
X135969306Y-71894723D02*
X136016925Y-71989961D01*
X136016925Y-71989961D02*
X136112163Y-72085200D01*
X136112163Y-72085200D02*
X136255020Y-72132819D01*
X136255020Y-72132819D02*
X136493115Y-72132819D01*
X135493115Y-72132819D02*
X135493115Y-71132819D01*
X142833838Y-73428388D02*
X142786219Y-73333150D01*
X142786219Y-73333150D02*
X142786219Y-73190293D01*
X142786219Y-73190293D02*
X142833838Y-73047436D01*
X142833838Y-73047436D02*
X142929076Y-72952198D01*
X142929076Y-72952198D02*
X143024314Y-72904579D01*
X143024314Y-72904579D02*
X143214790Y-72856960D01*
X143214790Y-72856960D02*
X143357647Y-72856960D01*
X143357647Y-72856960D02*
X143548123Y-72904579D01*
X143548123Y-72904579D02*
X143643361Y-72952198D01*
X143643361Y-72952198D02*
X143738600Y-73047436D01*
X143738600Y-73047436D02*
X143786219Y-73190293D01*
X143786219Y-73190293D02*
X143786219Y-73285531D01*
X143786219Y-73285531D02*
X143738600Y-73428388D01*
X143738600Y-73428388D02*
X143690980Y-73476007D01*
X143690980Y-73476007D02*
X143357647Y-73476007D01*
X143357647Y-73476007D02*
X143357647Y-73285531D01*
X143786219Y-73904579D02*
X142786219Y-73904579D01*
X142786219Y-73904579D02*
X143786219Y-74476007D01*
X143786219Y-74476007D02*
X142786219Y-74476007D01*
X143786219Y-74952198D02*
X142786219Y-74952198D01*
X142786219Y-74952198D02*
X142786219Y-75190293D01*
X142786219Y-75190293D02*
X142833838Y-75333150D01*
X142833838Y-75333150D02*
X142929076Y-75428388D01*
X142929076Y-75428388D02*
X143024314Y-75476007D01*
X143024314Y-75476007D02*
X143214790Y-75523626D01*
X143214790Y-75523626D02*
X143357647Y-75523626D01*
X143357647Y-75523626D02*
X143548123Y-75476007D01*
X143548123Y-75476007D02*
X143643361Y-75428388D01*
X143643361Y-75428388D02*
X143738600Y-75333150D01*
X143738600Y-75333150D02*
X143786219Y-75190293D01*
X143786219Y-75190293D02*
X143786219Y-74952198D01*
X115814239Y-77216000D02*
X115671382Y-77263619D01*
X115671382Y-77263619D02*
X115433287Y-77263619D01*
X115433287Y-77263619D02*
X115338049Y-77216000D01*
X115338049Y-77216000D02*
X115290430Y-77168380D01*
X115290430Y-77168380D02*
X115242811Y-77073142D01*
X115242811Y-77073142D02*
X115242811Y-76977904D01*
X115242811Y-76977904D02*
X115290430Y-76882666D01*
X115290430Y-76882666D02*
X115338049Y-76835047D01*
X115338049Y-76835047D02*
X115433287Y-76787428D01*
X115433287Y-76787428D02*
X115623763Y-76739809D01*
X115623763Y-76739809D02*
X115719001Y-76692190D01*
X115719001Y-76692190D02*
X115766620Y-76644571D01*
X115766620Y-76644571D02*
X115814239Y-76549333D01*
X115814239Y-76549333D02*
X115814239Y-76454095D01*
X115814239Y-76454095D02*
X115766620Y-76358857D01*
X115766620Y-76358857D02*
X115719001Y-76311238D01*
X115719001Y-76311238D02*
X115623763Y-76263619D01*
X115623763Y-76263619D02*
X115385668Y-76263619D01*
X115385668Y-76263619D02*
X115242811Y-76311238D01*
X114814239Y-77263619D02*
X114814239Y-76263619D01*
X114814239Y-76263619D02*
X114433287Y-76263619D01*
X114433287Y-76263619D02*
X114338049Y-76311238D01*
X114338049Y-76311238D02*
X114290430Y-76358857D01*
X114290430Y-76358857D02*
X114242811Y-76454095D01*
X114242811Y-76454095D02*
X114242811Y-76596952D01*
X114242811Y-76596952D02*
X114290430Y-76692190D01*
X114290430Y-76692190D02*
X114338049Y-76739809D01*
X114338049Y-76739809D02*
X114433287Y-76787428D01*
X114433287Y-76787428D02*
X114814239Y-76787428D01*
X113861858Y-76977904D02*
X113385668Y-76977904D01*
X113957096Y-77263619D02*
X113623763Y-76263619D01*
X113623763Y-76263619D02*
X113290430Y-77263619D01*
X112385668Y-77263619D02*
X112719001Y-76787428D01*
X112957096Y-77263619D02*
X112957096Y-76263619D01*
X112957096Y-76263619D02*
X112576144Y-76263619D01*
X112576144Y-76263619D02*
X112480906Y-76311238D01*
X112480906Y-76311238D02*
X112433287Y-76358857D01*
X112433287Y-76358857D02*
X112385668Y-76454095D01*
X112385668Y-76454095D02*
X112385668Y-76596952D01*
X112385668Y-76596952D02*
X112433287Y-76692190D01*
X112433287Y-76692190D02*
X112480906Y-76739809D01*
X112480906Y-76739809D02*
X112576144Y-76787428D01*
X112576144Y-76787428D02*
X112957096Y-76787428D01*
X112099953Y-76263619D02*
X111528525Y-76263619D01*
X111814239Y-77263619D02*
X111814239Y-76263619D01*
X111242810Y-76977904D02*
X110766620Y-76977904D01*
X111338048Y-77263619D02*
X111004715Y-76263619D01*
X111004715Y-76263619D02*
X110671382Y-77263619D01*
X110338048Y-77263619D02*
X110338048Y-76263619D01*
X110338048Y-76263619D02*
X109766620Y-77263619D01*
X109766620Y-77263619D02*
X109766620Y-76263619D01*
X108099953Y-76263619D02*
X108290429Y-76263619D01*
X108290429Y-76263619D02*
X108385667Y-76311238D01*
X108385667Y-76311238D02*
X108433286Y-76358857D01*
X108433286Y-76358857D02*
X108528524Y-76501714D01*
X108528524Y-76501714D02*
X108576143Y-76692190D01*
X108576143Y-76692190D02*
X108576143Y-77073142D01*
X108576143Y-77073142D02*
X108528524Y-77168380D01*
X108528524Y-77168380D02*
X108480905Y-77216000D01*
X108480905Y-77216000D02*
X108385667Y-77263619D01*
X108385667Y-77263619D02*
X108195191Y-77263619D01*
X108195191Y-77263619D02*
X108099953Y-77216000D01*
X108099953Y-77216000D02*
X108052334Y-77168380D01*
X108052334Y-77168380D02*
X108004715Y-77073142D01*
X108004715Y-77073142D02*
X108004715Y-76835047D01*
X108004715Y-76835047D02*
X108052334Y-76739809D01*
X108052334Y-76739809D02*
X108099953Y-76692190D01*
X108099953Y-76692190D02*
X108195191Y-76644571D01*
X108195191Y-76644571D02*
X108385667Y-76644571D01*
X108385667Y-76644571D02*
X108480905Y-76692190D01*
X108480905Y-76692190D02*
X108528524Y-76739809D01*
X108528524Y-76739809D02*
X108576143Y-76835047D01*
X75682287Y-71405809D02*
X75539430Y-71453428D01*
X75539430Y-71453428D02*
X75491811Y-71501047D01*
X75491811Y-71501047D02*
X75444192Y-71596285D01*
X75444192Y-71596285D02*
X75444192Y-71739142D01*
X75444192Y-71739142D02*
X75491811Y-71834380D01*
X75491811Y-71834380D02*
X75539430Y-71882000D01*
X75539430Y-71882000D02*
X75634668Y-71929619D01*
X75634668Y-71929619D02*
X76015620Y-71929619D01*
X76015620Y-71929619D02*
X76015620Y-70929619D01*
X76015620Y-70929619D02*
X75682287Y-70929619D01*
X75682287Y-70929619D02*
X75587049Y-70977238D01*
X75587049Y-70977238D02*
X75539430Y-71024857D01*
X75539430Y-71024857D02*
X75491811Y-71120095D01*
X75491811Y-71120095D02*
X75491811Y-71215333D01*
X75491811Y-71215333D02*
X75539430Y-71310571D01*
X75539430Y-71310571D02*
X75587049Y-71358190D01*
X75587049Y-71358190D02*
X75682287Y-71405809D01*
X75682287Y-71405809D02*
X76015620Y-71405809D01*
X75015620Y-70929619D02*
X75015620Y-71739142D01*
X75015620Y-71739142D02*
X74968001Y-71834380D01*
X74968001Y-71834380D02*
X74920382Y-71882000D01*
X74920382Y-71882000D02*
X74825144Y-71929619D01*
X74825144Y-71929619D02*
X74634668Y-71929619D01*
X74634668Y-71929619D02*
X74539430Y-71882000D01*
X74539430Y-71882000D02*
X74491811Y-71834380D01*
X74491811Y-71834380D02*
X74444192Y-71739142D01*
X74444192Y-71739142D02*
X74444192Y-70929619D01*
X74110858Y-70929619D02*
X73539430Y-70929619D01*
X73825144Y-71929619D02*
X73825144Y-70929619D01*
X73348953Y-70929619D02*
X72777525Y-70929619D01*
X73063239Y-71929619D02*
X73063239Y-70929619D01*
X72253715Y-70929619D02*
X72063239Y-70929619D01*
X72063239Y-70929619D02*
X71968001Y-70977238D01*
X71968001Y-70977238D02*
X71872763Y-71072476D01*
X71872763Y-71072476D02*
X71825144Y-71262952D01*
X71825144Y-71262952D02*
X71825144Y-71596285D01*
X71825144Y-71596285D02*
X71872763Y-71786761D01*
X71872763Y-71786761D02*
X71968001Y-71882000D01*
X71968001Y-71882000D02*
X72063239Y-71929619D01*
X72063239Y-71929619D02*
X72253715Y-71929619D01*
X72253715Y-71929619D02*
X72348953Y-71882000D01*
X72348953Y-71882000D02*
X72444191Y-71786761D01*
X72444191Y-71786761D02*
X72491810Y-71596285D01*
X72491810Y-71596285D02*
X72491810Y-71262952D01*
X72491810Y-71262952D02*
X72444191Y-71072476D01*
X72444191Y-71072476D02*
X72348953Y-70977238D01*
X72348953Y-70977238D02*
X72253715Y-70929619D01*
X71396572Y-71929619D02*
X71396572Y-70929619D01*
X71396572Y-70929619D02*
X70825144Y-71929619D01*
X70825144Y-71929619D02*
X70825144Y-70929619D01*
X69063239Y-71929619D02*
X69634667Y-71929619D01*
X69348953Y-71929619D02*
X69348953Y-70929619D01*
X69348953Y-70929619D02*
X69444191Y-71072476D01*
X69444191Y-71072476D02*
X69539429Y-71167714D01*
X69539429Y-71167714D02*
X69634667Y-71215333D01*
X137550277Y-81267419D02*
X137216944Y-82267419D01*
X137216944Y-82267419D02*
X136883611Y-81267419D01*
X135978849Y-82267419D02*
X136312182Y-81791228D01*
X136550277Y-82267419D02*
X136550277Y-81267419D01*
X136550277Y-81267419D02*
X136169325Y-81267419D01*
X136169325Y-81267419D02*
X136074087Y-81315038D01*
X136074087Y-81315038D02*
X136026468Y-81362657D01*
X136026468Y-81362657D02*
X135978849Y-81457895D01*
X135978849Y-81457895D02*
X135978849Y-81600752D01*
X135978849Y-81600752D02*
X136026468Y-81695990D01*
X136026468Y-81695990D02*
X136074087Y-81743609D01*
X136074087Y-81743609D02*
X136169325Y-81791228D01*
X136169325Y-81791228D02*
X136550277Y-81791228D01*
X135550277Y-81743609D02*
X135216944Y-81743609D01*
X135074087Y-82267419D02*
X135550277Y-82267419D01*
X135550277Y-82267419D02*
X135550277Y-81267419D01*
X135550277Y-81267419D02*
X135074087Y-81267419D01*
X134312182Y-81743609D02*
X134645515Y-81743609D01*
X134645515Y-82267419D02*
X134645515Y-81267419D01*
X134645515Y-81267419D02*
X134169325Y-81267419D01*
X137474077Y-76136619D02*
X136902649Y-76136619D01*
X137188363Y-77136619D02*
X137188363Y-76136619D01*
X135997887Y-77041380D02*
X136045506Y-77089000D01*
X136045506Y-77089000D02*
X136188363Y-77136619D01*
X136188363Y-77136619D02*
X136283601Y-77136619D01*
X136283601Y-77136619D02*
X136426458Y-77089000D01*
X136426458Y-77089000D02*
X136521696Y-76993761D01*
X136521696Y-76993761D02*
X136569315Y-76898523D01*
X136569315Y-76898523D02*
X136616934Y-76708047D01*
X136616934Y-76708047D02*
X136616934Y-76565190D01*
X136616934Y-76565190D02*
X136569315Y-76374714D01*
X136569315Y-76374714D02*
X136521696Y-76279476D01*
X136521696Y-76279476D02*
X136426458Y-76184238D01*
X136426458Y-76184238D02*
X136283601Y-76136619D01*
X136283601Y-76136619D02*
X136188363Y-76136619D01*
X136188363Y-76136619D02*
X136045506Y-76184238D01*
X136045506Y-76184238D02*
X135997887Y-76231857D01*
X135569315Y-77136619D02*
X135569315Y-76136619D01*
X134997887Y-77136619D02*
X135426458Y-76565190D01*
X134997887Y-76136619D02*
X135569315Y-76708047D01*
X90033287Y-71482009D02*
X89890430Y-71529628D01*
X89890430Y-71529628D02*
X89842811Y-71577247D01*
X89842811Y-71577247D02*
X89795192Y-71672485D01*
X89795192Y-71672485D02*
X89795192Y-71815342D01*
X89795192Y-71815342D02*
X89842811Y-71910580D01*
X89842811Y-71910580D02*
X89890430Y-71958200D01*
X89890430Y-71958200D02*
X89985668Y-72005819D01*
X89985668Y-72005819D02*
X90366620Y-72005819D01*
X90366620Y-72005819D02*
X90366620Y-71005819D01*
X90366620Y-71005819D02*
X90033287Y-71005819D01*
X90033287Y-71005819D02*
X89938049Y-71053438D01*
X89938049Y-71053438D02*
X89890430Y-71101057D01*
X89890430Y-71101057D02*
X89842811Y-71196295D01*
X89842811Y-71196295D02*
X89842811Y-71291533D01*
X89842811Y-71291533D02*
X89890430Y-71386771D01*
X89890430Y-71386771D02*
X89938049Y-71434390D01*
X89938049Y-71434390D02*
X90033287Y-71482009D01*
X90033287Y-71482009D02*
X90366620Y-71482009D01*
X89366620Y-71005819D02*
X89366620Y-71815342D01*
X89366620Y-71815342D02*
X89319001Y-71910580D01*
X89319001Y-71910580D02*
X89271382Y-71958200D01*
X89271382Y-71958200D02*
X89176144Y-72005819D01*
X89176144Y-72005819D02*
X88985668Y-72005819D01*
X88985668Y-72005819D02*
X88890430Y-71958200D01*
X88890430Y-71958200D02*
X88842811Y-71910580D01*
X88842811Y-71910580D02*
X88795192Y-71815342D01*
X88795192Y-71815342D02*
X88795192Y-71005819D01*
X88461858Y-71005819D02*
X87890430Y-71005819D01*
X88176144Y-72005819D02*
X88176144Y-71005819D01*
X87699953Y-71005819D02*
X87128525Y-71005819D01*
X87414239Y-72005819D02*
X87414239Y-71005819D01*
X86604715Y-71005819D02*
X86414239Y-71005819D01*
X86414239Y-71005819D02*
X86319001Y-71053438D01*
X86319001Y-71053438D02*
X86223763Y-71148676D01*
X86223763Y-71148676D02*
X86176144Y-71339152D01*
X86176144Y-71339152D02*
X86176144Y-71672485D01*
X86176144Y-71672485D02*
X86223763Y-71862961D01*
X86223763Y-71862961D02*
X86319001Y-71958200D01*
X86319001Y-71958200D02*
X86414239Y-72005819D01*
X86414239Y-72005819D02*
X86604715Y-72005819D01*
X86604715Y-72005819D02*
X86699953Y-71958200D01*
X86699953Y-71958200D02*
X86795191Y-71862961D01*
X86795191Y-71862961D02*
X86842810Y-71672485D01*
X86842810Y-71672485D02*
X86842810Y-71339152D01*
X86842810Y-71339152D02*
X86795191Y-71148676D01*
X86795191Y-71148676D02*
X86699953Y-71053438D01*
X86699953Y-71053438D02*
X86604715Y-71005819D01*
X85747572Y-72005819D02*
X85747572Y-71005819D01*
X85747572Y-71005819D02*
X85176144Y-72005819D01*
X85176144Y-72005819D02*
X85176144Y-71005819D01*
X83985667Y-71101057D02*
X83938048Y-71053438D01*
X83938048Y-71053438D02*
X83842810Y-71005819D01*
X83842810Y-71005819D02*
X83604715Y-71005819D01*
X83604715Y-71005819D02*
X83509477Y-71053438D01*
X83509477Y-71053438D02*
X83461858Y-71101057D01*
X83461858Y-71101057D02*
X83414239Y-71196295D01*
X83414239Y-71196295D02*
X83414239Y-71291533D01*
X83414239Y-71291533D02*
X83461858Y-71434390D01*
X83461858Y-71434390D02*
X84033286Y-72005819D01*
X84033286Y-72005819D02*
X83414239Y-72005819D01*
X67957458Y-76974819D02*
X67338411Y-76974819D01*
X67338411Y-76974819D02*
X67671744Y-77355771D01*
X67671744Y-77355771D02*
X67528887Y-77355771D01*
X67528887Y-77355771D02*
X67433649Y-77403390D01*
X67433649Y-77403390D02*
X67386030Y-77451009D01*
X67386030Y-77451009D02*
X67338411Y-77546247D01*
X67338411Y-77546247D02*
X67338411Y-77784342D01*
X67338411Y-77784342D02*
X67386030Y-77879580D01*
X67386030Y-77879580D02*
X67433649Y-77927200D01*
X67433649Y-77927200D02*
X67528887Y-77974819D01*
X67528887Y-77974819D02*
X67814601Y-77974819D01*
X67814601Y-77974819D02*
X67909839Y-77927200D01*
X67909839Y-77927200D02*
X67957458Y-77879580D01*
X67052696Y-76974819D02*
X66719363Y-77974819D01*
X66719363Y-77974819D02*
X66386030Y-76974819D01*
X66147934Y-76974819D02*
X65528887Y-76974819D01*
X65528887Y-76974819D02*
X65862220Y-77355771D01*
X65862220Y-77355771D02*
X65719363Y-77355771D01*
X65719363Y-77355771D02*
X65624125Y-77403390D01*
X65624125Y-77403390D02*
X65576506Y-77451009D01*
X65576506Y-77451009D02*
X65528887Y-77546247D01*
X65528887Y-77546247D02*
X65528887Y-77784342D01*
X65528887Y-77784342D02*
X65576506Y-77879580D01*
X65576506Y-77879580D02*
X65624125Y-77927200D01*
X65624125Y-77927200D02*
X65719363Y-77974819D01*
X65719363Y-77974819D02*
X66005077Y-77974819D01*
X66005077Y-77974819D02*
X66100315Y-77927200D01*
X66100315Y-77927200D02*
X66147934Y-77879580D01*
X65465438Y-46402788D02*
X65417819Y-46307550D01*
X65417819Y-46307550D02*
X65417819Y-46164693D01*
X65417819Y-46164693D02*
X65465438Y-46021836D01*
X65465438Y-46021836D02*
X65560676Y-45926598D01*
X65560676Y-45926598D02*
X65655914Y-45878979D01*
X65655914Y-45878979D02*
X65846390Y-45831360D01*
X65846390Y-45831360D02*
X65989247Y-45831360D01*
X65989247Y-45831360D02*
X66179723Y-45878979D01*
X66179723Y-45878979D02*
X66274961Y-45926598D01*
X66274961Y-45926598D02*
X66370200Y-46021836D01*
X66370200Y-46021836D02*
X66417819Y-46164693D01*
X66417819Y-46164693D02*
X66417819Y-46259931D01*
X66417819Y-46259931D02*
X66370200Y-46402788D01*
X66370200Y-46402788D02*
X66322580Y-46450407D01*
X66322580Y-46450407D02*
X65989247Y-46450407D01*
X65989247Y-46450407D02*
X65989247Y-46259931D01*
X66417819Y-46878979D02*
X65417819Y-46878979D01*
X65417819Y-46878979D02*
X65417819Y-47259931D01*
X65417819Y-47259931D02*
X65465438Y-47355169D01*
X65465438Y-47355169D02*
X65513057Y-47402788D01*
X65513057Y-47402788D02*
X65608295Y-47450407D01*
X65608295Y-47450407D02*
X65751152Y-47450407D01*
X65751152Y-47450407D02*
X65846390Y-47402788D01*
X65846390Y-47402788D02*
X65894009Y-47355169D01*
X65894009Y-47355169D02*
X65941628Y-47259931D01*
X65941628Y-47259931D02*
X65941628Y-46878979D01*
X66417819Y-47878979D02*
X65417819Y-47878979D01*
X65417819Y-48545645D02*
X65417819Y-48736121D01*
X65417819Y-48736121D02*
X65465438Y-48831359D01*
X65465438Y-48831359D02*
X65560676Y-48926597D01*
X65560676Y-48926597D02*
X65751152Y-48974216D01*
X65751152Y-48974216D02*
X66084485Y-48974216D01*
X66084485Y-48974216D02*
X66274961Y-48926597D01*
X66274961Y-48926597D02*
X66370200Y-48831359D01*
X66370200Y-48831359D02*
X66417819Y-48736121D01*
X66417819Y-48736121D02*
X66417819Y-48545645D01*
X66417819Y-48545645D02*
X66370200Y-48450407D01*
X66370200Y-48450407D02*
X66274961Y-48355169D01*
X66274961Y-48355169D02*
X66084485Y-48307550D01*
X66084485Y-48307550D02*
X65751152Y-48307550D01*
X65751152Y-48307550D02*
X65560676Y-48355169D01*
X65560676Y-48355169D02*
X65465438Y-48450407D01*
X65465438Y-48450407D02*
X65417819Y-48545645D01*
X137423277Y-73672819D02*
X136851849Y-73672819D01*
X137137563Y-74672819D02*
X137137563Y-73672819D01*
X136518515Y-74672819D02*
X136518515Y-73672819D01*
X136518515Y-73672819D02*
X136280420Y-73672819D01*
X136280420Y-73672819D02*
X136137563Y-73720438D01*
X136137563Y-73720438D02*
X136042325Y-73815676D01*
X136042325Y-73815676D02*
X135994706Y-73910914D01*
X135994706Y-73910914D02*
X135947087Y-74101390D01*
X135947087Y-74101390D02*
X135947087Y-74244247D01*
X135947087Y-74244247D02*
X135994706Y-74434723D01*
X135994706Y-74434723D02*
X136042325Y-74529961D01*
X136042325Y-74529961D02*
X136137563Y-74625200D01*
X136137563Y-74625200D02*
X136280420Y-74672819D01*
X136280420Y-74672819D02*
X136518515Y-74672819D01*
X135328039Y-73672819D02*
X135137563Y-73672819D01*
X135137563Y-73672819D02*
X135042325Y-73720438D01*
X135042325Y-73720438D02*
X134947087Y-73815676D01*
X134947087Y-73815676D02*
X134899468Y-74006152D01*
X134899468Y-74006152D02*
X134899468Y-74339485D01*
X134899468Y-74339485D02*
X134947087Y-74529961D01*
X134947087Y-74529961D02*
X135042325Y-74625200D01*
X135042325Y-74625200D02*
X135137563Y-74672819D01*
X135137563Y-74672819D02*
X135328039Y-74672819D01*
X135328039Y-74672819D02*
X135423277Y-74625200D01*
X135423277Y-74625200D02*
X135518515Y-74529961D01*
X135518515Y-74529961D02*
X135566134Y-74339485D01*
X135566134Y-74339485D02*
X135566134Y-74006152D01*
X135566134Y-74006152D02*
X135518515Y-73815676D01*
X135518515Y-73815676D02*
X135423277Y-73720438D01*
X135423277Y-73720438D02*
X135328039Y-73672819D01*
X89604620Y-48942619D02*
X89604620Y-47942619D01*
X89604620Y-47942619D02*
X89223668Y-47942619D01*
X89223668Y-47942619D02*
X89128430Y-47990238D01*
X89128430Y-47990238D02*
X89080811Y-48037857D01*
X89080811Y-48037857D02*
X89033192Y-48133095D01*
X89033192Y-48133095D02*
X89033192Y-48275952D01*
X89033192Y-48275952D02*
X89080811Y-48371190D01*
X89080811Y-48371190D02*
X89128430Y-48418809D01*
X89128430Y-48418809D02*
X89223668Y-48466428D01*
X89223668Y-48466428D02*
X89604620Y-48466428D01*
X88033192Y-48942619D02*
X88366525Y-48466428D01*
X88604620Y-48942619D02*
X88604620Y-47942619D01*
X88604620Y-47942619D02*
X88223668Y-47942619D01*
X88223668Y-47942619D02*
X88128430Y-47990238D01*
X88128430Y-47990238D02*
X88080811Y-48037857D01*
X88080811Y-48037857D02*
X88033192Y-48133095D01*
X88033192Y-48133095D02*
X88033192Y-48275952D01*
X88033192Y-48275952D02*
X88080811Y-48371190D01*
X88080811Y-48371190D02*
X88128430Y-48418809D01*
X88128430Y-48418809D02*
X88223668Y-48466428D01*
X88223668Y-48466428D02*
X88604620Y-48466428D01*
X87414144Y-47942619D02*
X87223668Y-47942619D01*
X87223668Y-47942619D02*
X87128430Y-47990238D01*
X87128430Y-47990238D02*
X87033192Y-48085476D01*
X87033192Y-48085476D02*
X86985573Y-48275952D01*
X86985573Y-48275952D02*
X86985573Y-48609285D01*
X86985573Y-48609285D02*
X87033192Y-48799761D01*
X87033192Y-48799761D02*
X87128430Y-48895000D01*
X87128430Y-48895000D02*
X87223668Y-48942619D01*
X87223668Y-48942619D02*
X87414144Y-48942619D01*
X87414144Y-48942619D02*
X87509382Y-48895000D01*
X87509382Y-48895000D02*
X87604620Y-48799761D01*
X87604620Y-48799761D02*
X87652239Y-48609285D01*
X87652239Y-48609285D02*
X87652239Y-48275952D01*
X87652239Y-48275952D02*
X87604620Y-48085476D01*
X87604620Y-48085476D02*
X87509382Y-47990238D01*
X87509382Y-47990238D02*
X87414144Y-47942619D01*
X86033192Y-47990238D02*
X86128430Y-47942619D01*
X86128430Y-47942619D02*
X86271287Y-47942619D01*
X86271287Y-47942619D02*
X86414144Y-47990238D01*
X86414144Y-47990238D02*
X86509382Y-48085476D01*
X86509382Y-48085476D02*
X86557001Y-48180714D01*
X86557001Y-48180714D02*
X86604620Y-48371190D01*
X86604620Y-48371190D02*
X86604620Y-48514047D01*
X86604620Y-48514047D02*
X86557001Y-48704523D01*
X86557001Y-48704523D02*
X86509382Y-48799761D01*
X86509382Y-48799761D02*
X86414144Y-48895000D01*
X86414144Y-48895000D02*
X86271287Y-48942619D01*
X86271287Y-48942619D02*
X86176049Y-48942619D01*
X86176049Y-48942619D02*
X86033192Y-48895000D01*
X86033192Y-48895000D02*
X85985573Y-48847380D01*
X85985573Y-48847380D02*
X85985573Y-48514047D01*
X85985573Y-48514047D02*
X86176049Y-48514047D01*
X84985573Y-48942619D02*
X85318906Y-48466428D01*
X85557001Y-48942619D02*
X85557001Y-47942619D01*
X85557001Y-47942619D02*
X85176049Y-47942619D01*
X85176049Y-47942619D02*
X85080811Y-47990238D01*
X85080811Y-47990238D02*
X85033192Y-48037857D01*
X85033192Y-48037857D02*
X84985573Y-48133095D01*
X84985573Y-48133095D02*
X84985573Y-48275952D01*
X84985573Y-48275952D02*
X85033192Y-48371190D01*
X85033192Y-48371190D02*
X85080811Y-48418809D01*
X85080811Y-48418809D02*
X85176049Y-48466428D01*
X85176049Y-48466428D02*
X85557001Y-48466428D01*
X84604620Y-48656904D02*
X84128430Y-48656904D01*
X84699858Y-48942619D02*
X84366525Y-47942619D01*
X84366525Y-47942619D02*
X84033192Y-48942619D01*
X83699858Y-48942619D02*
X83699858Y-47942619D01*
X83699858Y-47942619D02*
X83366525Y-48656904D01*
X83366525Y-48656904D02*
X83033192Y-47942619D01*
X83033192Y-47942619D02*
X83033192Y-48942619D01*
X65516238Y-69135788D02*
X65468619Y-69040550D01*
X65468619Y-69040550D02*
X65468619Y-68897693D01*
X65468619Y-68897693D02*
X65516238Y-68754836D01*
X65516238Y-68754836D02*
X65611476Y-68659598D01*
X65611476Y-68659598D02*
X65706714Y-68611979D01*
X65706714Y-68611979D02*
X65897190Y-68564360D01*
X65897190Y-68564360D02*
X66040047Y-68564360D01*
X66040047Y-68564360D02*
X66230523Y-68611979D01*
X66230523Y-68611979D02*
X66325761Y-68659598D01*
X66325761Y-68659598D02*
X66421000Y-68754836D01*
X66421000Y-68754836D02*
X66468619Y-68897693D01*
X66468619Y-68897693D02*
X66468619Y-68992931D01*
X66468619Y-68992931D02*
X66421000Y-69135788D01*
X66421000Y-69135788D02*
X66373380Y-69183407D01*
X66373380Y-69183407D02*
X66040047Y-69183407D01*
X66040047Y-69183407D02*
X66040047Y-68992931D01*
X66468619Y-69611979D02*
X65468619Y-69611979D01*
X65468619Y-69611979D02*
X65468619Y-69992931D01*
X65468619Y-69992931D02*
X65516238Y-70088169D01*
X65516238Y-70088169D02*
X65563857Y-70135788D01*
X65563857Y-70135788D02*
X65659095Y-70183407D01*
X65659095Y-70183407D02*
X65801952Y-70183407D01*
X65801952Y-70183407D02*
X65897190Y-70135788D01*
X65897190Y-70135788D02*
X65944809Y-70088169D01*
X65944809Y-70088169D02*
X65992428Y-69992931D01*
X65992428Y-69992931D02*
X65992428Y-69611979D01*
X66468619Y-70611979D02*
X65468619Y-70611979D01*
X65468619Y-71278645D02*
X65468619Y-71469121D01*
X65468619Y-71469121D02*
X65516238Y-71564359D01*
X65516238Y-71564359D02*
X65611476Y-71659597D01*
X65611476Y-71659597D02*
X65801952Y-71707216D01*
X65801952Y-71707216D02*
X66135285Y-71707216D01*
X66135285Y-71707216D02*
X66325761Y-71659597D01*
X66325761Y-71659597D02*
X66421000Y-71564359D01*
X66421000Y-71564359D02*
X66468619Y-71469121D01*
X66468619Y-71469121D02*
X66468619Y-71278645D01*
X66468619Y-71278645D02*
X66421000Y-71183407D01*
X66421000Y-71183407D02*
X66325761Y-71088169D01*
X66325761Y-71088169D02*
X66135285Y-71040550D01*
X66135285Y-71040550D02*
X65801952Y-71040550D01*
X65801952Y-71040550D02*
X65611476Y-71088169D01*
X65611476Y-71088169D02*
X65516238Y-71183407D01*
X65516238Y-71183407D02*
X65468619Y-71278645D01*
X76037887Y-48545809D02*
X75895030Y-48593428D01*
X75895030Y-48593428D02*
X75847411Y-48641047D01*
X75847411Y-48641047D02*
X75799792Y-48736285D01*
X75799792Y-48736285D02*
X75799792Y-48879142D01*
X75799792Y-48879142D02*
X75847411Y-48974380D01*
X75847411Y-48974380D02*
X75895030Y-49022000D01*
X75895030Y-49022000D02*
X75990268Y-49069619D01*
X75990268Y-49069619D02*
X76371220Y-49069619D01*
X76371220Y-49069619D02*
X76371220Y-48069619D01*
X76371220Y-48069619D02*
X76037887Y-48069619D01*
X76037887Y-48069619D02*
X75942649Y-48117238D01*
X75942649Y-48117238D02*
X75895030Y-48164857D01*
X75895030Y-48164857D02*
X75847411Y-48260095D01*
X75847411Y-48260095D02*
X75847411Y-48355333D01*
X75847411Y-48355333D02*
X75895030Y-48450571D01*
X75895030Y-48450571D02*
X75942649Y-48498190D01*
X75942649Y-48498190D02*
X76037887Y-48545809D01*
X76037887Y-48545809D02*
X76371220Y-48545809D01*
X75371220Y-48069619D02*
X75371220Y-48879142D01*
X75371220Y-48879142D02*
X75323601Y-48974380D01*
X75323601Y-48974380D02*
X75275982Y-49022000D01*
X75275982Y-49022000D02*
X75180744Y-49069619D01*
X75180744Y-49069619D02*
X74990268Y-49069619D01*
X74990268Y-49069619D02*
X74895030Y-49022000D01*
X74895030Y-49022000D02*
X74847411Y-48974380D01*
X74847411Y-48974380D02*
X74799792Y-48879142D01*
X74799792Y-48879142D02*
X74799792Y-48069619D01*
X74466458Y-48069619D02*
X73895030Y-48069619D01*
X74180744Y-49069619D02*
X74180744Y-48069619D01*
X73704553Y-48069619D02*
X73133125Y-48069619D01*
X73418839Y-49069619D02*
X73418839Y-48069619D01*
X72609315Y-48069619D02*
X72418839Y-48069619D01*
X72418839Y-48069619D02*
X72323601Y-48117238D01*
X72323601Y-48117238D02*
X72228363Y-48212476D01*
X72228363Y-48212476D02*
X72180744Y-48402952D01*
X72180744Y-48402952D02*
X72180744Y-48736285D01*
X72180744Y-48736285D02*
X72228363Y-48926761D01*
X72228363Y-48926761D02*
X72323601Y-49022000D01*
X72323601Y-49022000D02*
X72418839Y-49069619D01*
X72418839Y-49069619D02*
X72609315Y-49069619D01*
X72609315Y-49069619D02*
X72704553Y-49022000D01*
X72704553Y-49022000D02*
X72799791Y-48926761D01*
X72799791Y-48926761D02*
X72847410Y-48736285D01*
X72847410Y-48736285D02*
X72847410Y-48402952D01*
X72847410Y-48402952D02*
X72799791Y-48212476D01*
X72799791Y-48212476D02*
X72704553Y-48117238D01*
X72704553Y-48117238D02*
X72609315Y-48069619D01*
X71752172Y-49069619D02*
X71752172Y-48069619D01*
X71752172Y-48069619D02*
X71180744Y-49069619D01*
X71180744Y-49069619D02*
X71180744Y-48069619D01*
X70037886Y-48069619D02*
X69418839Y-48069619D01*
X69418839Y-48069619D02*
X69752172Y-48450571D01*
X69752172Y-48450571D02*
X69609315Y-48450571D01*
X69609315Y-48450571D02*
X69514077Y-48498190D01*
X69514077Y-48498190D02*
X69466458Y-48545809D01*
X69466458Y-48545809D02*
X69418839Y-48641047D01*
X69418839Y-48641047D02*
X69418839Y-48879142D01*
X69418839Y-48879142D02*
X69466458Y-48974380D01*
X69466458Y-48974380D02*
X69514077Y-49022000D01*
X69514077Y-49022000D02*
X69609315Y-49069619D01*
X69609315Y-49069619D02*
X69895029Y-49069619D01*
X69895029Y-49069619D02*
X69990267Y-49022000D01*
X69990267Y-49022000D02*
X70037886Y-48974380D01*
X67567011Y-75295238D02*
X67662249Y-75247619D01*
X67662249Y-75247619D02*
X67805106Y-75247619D01*
X67805106Y-75247619D02*
X67947963Y-75295238D01*
X67947963Y-75295238D02*
X68043201Y-75390476D01*
X68043201Y-75390476D02*
X68090820Y-75485714D01*
X68090820Y-75485714D02*
X68138439Y-75676190D01*
X68138439Y-75676190D02*
X68138439Y-75819047D01*
X68138439Y-75819047D02*
X68090820Y-76009523D01*
X68090820Y-76009523D02*
X68043201Y-76104761D01*
X68043201Y-76104761D02*
X67947963Y-76200000D01*
X67947963Y-76200000D02*
X67805106Y-76247619D01*
X67805106Y-76247619D02*
X67709868Y-76247619D01*
X67709868Y-76247619D02*
X67567011Y-76200000D01*
X67567011Y-76200000D02*
X67519392Y-76152380D01*
X67519392Y-76152380D02*
X67519392Y-75819047D01*
X67519392Y-75819047D02*
X67709868Y-75819047D01*
X67090820Y-76247619D02*
X67090820Y-75247619D01*
X67090820Y-75247619D02*
X66519392Y-76247619D01*
X66519392Y-76247619D02*
X66519392Y-75247619D01*
X66043201Y-76247619D02*
X66043201Y-75247619D01*
X66043201Y-75247619D02*
X65805106Y-75247619D01*
X65805106Y-75247619D02*
X65662249Y-75295238D01*
X65662249Y-75295238D02*
X65567011Y-75390476D01*
X65567011Y-75390476D02*
X65519392Y-75485714D01*
X65519392Y-75485714D02*
X65471773Y-75676190D01*
X65471773Y-75676190D02*
X65471773Y-75819047D01*
X65471773Y-75819047D02*
X65519392Y-76009523D01*
X65519392Y-76009523D02*
X65567011Y-76104761D01*
X65567011Y-76104761D02*
X65662249Y-76200000D01*
X65662249Y-76200000D02*
X65805106Y-76247619D01*
X65805106Y-76247619D02*
X66043201Y-76247619D01*
X137524877Y-78727419D02*
X136953449Y-78727419D01*
X137239163Y-79727419D02*
X137239163Y-78727419D01*
X136620115Y-79727419D02*
X136620115Y-78727419D01*
X136620115Y-78727419D02*
X136286782Y-79441704D01*
X136286782Y-79441704D02*
X135953449Y-78727419D01*
X135953449Y-78727419D02*
X135953449Y-79727419D01*
X135524877Y-79679800D02*
X135382020Y-79727419D01*
X135382020Y-79727419D02*
X135143925Y-79727419D01*
X135143925Y-79727419D02*
X135048687Y-79679800D01*
X135048687Y-79679800D02*
X135001068Y-79632180D01*
X135001068Y-79632180D02*
X134953449Y-79536942D01*
X134953449Y-79536942D02*
X134953449Y-79441704D01*
X134953449Y-79441704D02*
X135001068Y-79346466D01*
X135001068Y-79346466D02*
X135048687Y-79298847D01*
X135048687Y-79298847D02*
X135143925Y-79251228D01*
X135143925Y-79251228D02*
X135334401Y-79203609D01*
X135334401Y-79203609D02*
X135429639Y-79155990D01*
X135429639Y-79155990D02*
X135477258Y-79108371D01*
X135477258Y-79108371D02*
X135524877Y-79013133D01*
X135524877Y-79013133D02*
X135524877Y-78917895D01*
X135524877Y-78917895D02*
X135477258Y-78822657D01*
X135477258Y-78822657D02*
X135429639Y-78775038D01*
X135429639Y-78775038D02*
X135334401Y-78727419D01*
X135334401Y-78727419D02*
X135096306Y-78727419D01*
X135096306Y-78727419D02*
X134953449Y-78775038D01*
X67516211Y-52562238D02*
X67611449Y-52514619D01*
X67611449Y-52514619D02*
X67754306Y-52514619D01*
X67754306Y-52514619D02*
X67897163Y-52562238D01*
X67897163Y-52562238D02*
X67992401Y-52657476D01*
X67992401Y-52657476D02*
X68040020Y-52752714D01*
X68040020Y-52752714D02*
X68087639Y-52943190D01*
X68087639Y-52943190D02*
X68087639Y-53086047D01*
X68087639Y-53086047D02*
X68040020Y-53276523D01*
X68040020Y-53276523D02*
X67992401Y-53371761D01*
X67992401Y-53371761D02*
X67897163Y-53467000D01*
X67897163Y-53467000D02*
X67754306Y-53514619D01*
X67754306Y-53514619D02*
X67659068Y-53514619D01*
X67659068Y-53514619D02*
X67516211Y-53467000D01*
X67516211Y-53467000D02*
X67468592Y-53419380D01*
X67468592Y-53419380D02*
X67468592Y-53086047D01*
X67468592Y-53086047D02*
X67659068Y-53086047D01*
X67040020Y-53514619D02*
X67040020Y-52514619D01*
X67040020Y-52514619D02*
X66468592Y-53514619D01*
X66468592Y-53514619D02*
X66468592Y-52514619D01*
X65992401Y-53514619D02*
X65992401Y-52514619D01*
X65992401Y-52514619D02*
X65754306Y-52514619D01*
X65754306Y-52514619D02*
X65611449Y-52562238D01*
X65611449Y-52562238D02*
X65516211Y-52657476D01*
X65516211Y-52657476D02*
X65468592Y-52752714D01*
X65468592Y-52752714D02*
X65420973Y-52943190D01*
X65420973Y-52943190D02*
X65420973Y-53086047D01*
X65420973Y-53086047D02*
X65468592Y-53276523D01*
X65468592Y-53276523D02*
X65516211Y-53371761D01*
X65516211Y-53371761D02*
X65611449Y-53467000D01*
X65611449Y-53467000D02*
X65754306Y-53514619D01*
X65754306Y-53514619D02*
X65992401Y-53514619D01*
X104123819Y-45350242D02*
X103647628Y-45016909D01*
X104123819Y-44778814D02*
X103123819Y-44778814D01*
X103123819Y-44778814D02*
X103123819Y-45159766D01*
X103123819Y-45159766D02*
X103171438Y-45255004D01*
X103171438Y-45255004D02*
X103219057Y-45302623D01*
X103219057Y-45302623D02*
X103314295Y-45350242D01*
X103314295Y-45350242D02*
X103457152Y-45350242D01*
X103457152Y-45350242D02*
X103552390Y-45302623D01*
X103552390Y-45302623D02*
X103600009Y-45255004D01*
X103600009Y-45255004D02*
X103647628Y-45159766D01*
X103647628Y-45159766D02*
X103647628Y-44778814D01*
X103123819Y-45683576D02*
X103123819Y-46302623D01*
X103123819Y-46302623D02*
X103504771Y-45969290D01*
X103504771Y-45969290D02*
X103504771Y-46112147D01*
X103504771Y-46112147D02*
X103552390Y-46207385D01*
X103552390Y-46207385D02*
X103600009Y-46255004D01*
X103600009Y-46255004D02*
X103695247Y-46302623D01*
X103695247Y-46302623D02*
X103933342Y-46302623D01*
X103933342Y-46302623D02*
X104028580Y-46255004D01*
X104028580Y-46255004D02*
X104076200Y-46207385D01*
X104076200Y-46207385D02*
X104123819Y-46112147D01*
X104123819Y-46112147D02*
X104123819Y-45826433D01*
X104123819Y-45826433D02*
X104076200Y-45731195D01*
X104076200Y-45731195D02*
X104028580Y-45683576D01*
X103123819Y-47159766D02*
X103123819Y-46969290D01*
X103123819Y-46969290D02*
X103171438Y-46874052D01*
X103171438Y-46874052D02*
X103219057Y-46826433D01*
X103219057Y-46826433D02*
X103361914Y-46731195D01*
X103361914Y-46731195D02*
X103552390Y-46683576D01*
X103552390Y-46683576D02*
X103933342Y-46683576D01*
X103933342Y-46683576D02*
X104028580Y-46731195D01*
X104028580Y-46731195D02*
X104076200Y-46778814D01*
X104076200Y-46778814D02*
X104123819Y-46874052D01*
X104123819Y-46874052D02*
X104123819Y-47064528D01*
X104123819Y-47064528D02*
X104076200Y-47159766D01*
X104076200Y-47159766D02*
X104028580Y-47207385D01*
X104028580Y-47207385D02*
X103933342Y-47255004D01*
X103933342Y-47255004D02*
X103695247Y-47255004D01*
X103695247Y-47255004D02*
X103600009Y-47207385D01*
X103600009Y-47207385D02*
X103552390Y-47159766D01*
X103552390Y-47159766D02*
X103504771Y-47064528D01*
X103504771Y-47064528D02*
X103504771Y-46874052D01*
X103504771Y-46874052D02*
X103552390Y-46778814D01*
X103552390Y-46778814D02*
X103600009Y-46731195D01*
X103600009Y-46731195D02*
X103695247Y-46683576D01*
X131286094Y-65875819D02*
X131286094Y-66685342D01*
X131286094Y-66685342D02*
X131238475Y-66780580D01*
X131238475Y-66780580D02*
X131190856Y-66828200D01*
X131190856Y-66828200D02*
X131095618Y-66875819D01*
X131095618Y-66875819D02*
X130905142Y-66875819D01*
X130905142Y-66875819D02*
X130809904Y-66828200D01*
X130809904Y-66828200D02*
X130762285Y-66780580D01*
X130762285Y-66780580D02*
X130714666Y-66685342D01*
X130714666Y-66685342D02*
X130714666Y-65875819D01*
X129714666Y-66875819D02*
X130286094Y-66875819D01*
X130000380Y-66875819D02*
X130000380Y-65875819D01*
X130000380Y-65875819D02*
X130095618Y-66018676D01*
X130095618Y-66018676D02*
X130190856Y-66113914D01*
X130190856Y-66113914D02*
X130286094Y-66161533D01*
X128857523Y-66209152D02*
X128857523Y-66875819D01*
X129095618Y-65828200D02*
X129333713Y-66542485D01*
X129333713Y-66542485D02*
X128714666Y-66542485D01*
X126380999Y-69190519D02*
X126380999Y-69428614D01*
X126619094Y-69333376D02*
X126380999Y-69428614D01*
X126380999Y-69428614D02*
X126142904Y-69333376D01*
X126523856Y-69619090D02*
X126380999Y-69428614D01*
X126380999Y-69428614D02*
X126238142Y-69619090D01*
X126381000Y-70280880D02*
X126381000Y-70042785D01*
X126142905Y-70138023D02*
X126381000Y-70042785D01*
X126381000Y-70042785D02*
X126619095Y-70138023D01*
X126238143Y-69852309D02*
X126381000Y-70042785D01*
X126381000Y-70042785D02*
X126523857Y-69852309D01*
X129279494Y-38748619D02*
X129279494Y-39558142D01*
X129279494Y-39558142D02*
X129231875Y-39653380D01*
X129231875Y-39653380D02*
X129184256Y-39701000D01*
X129184256Y-39701000D02*
X129089018Y-39748619D01*
X129089018Y-39748619D02*
X128898542Y-39748619D01*
X128898542Y-39748619D02*
X128803304Y-39701000D01*
X128803304Y-39701000D02*
X128755685Y-39653380D01*
X128755685Y-39653380D02*
X128708066Y-39558142D01*
X128708066Y-39558142D02*
X128708066Y-38748619D01*
X127708066Y-39748619D02*
X128279494Y-39748619D01*
X127993780Y-39748619D02*
X127993780Y-38748619D01*
X127993780Y-38748619D02*
X128089018Y-38891476D01*
X128089018Y-38891476D02*
X128184256Y-38986714D01*
X128184256Y-38986714D02*
X128279494Y-39034333D01*
X126755685Y-39748619D02*
X127327113Y-39748619D01*
X127041399Y-39748619D02*
X127041399Y-38748619D01*
X127041399Y-38748619D02*
X127136637Y-38891476D01*
X127136637Y-38891476D02*
X127231875Y-38986714D01*
X127231875Y-38986714D02*
X127327113Y-39034333D01*
X128785857Y-36808580D02*
X128833476Y-36856200D01*
X128833476Y-36856200D02*
X128976333Y-36903819D01*
X128976333Y-36903819D02*
X129071571Y-36903819D01*
X129071571Y-36903819D02*
X129214428Y-36856200D01*
X129214428Y-36856200D02*
X129309666Y-36760961D01*
X129309666Y-36760961D02*
X129357285Y-36665723D01*
X129357285Y-36665723D02*
X129404904Y-36475247D01*
X129404904Y-36475247D02*
X129404904Y-36332390D01*
X129404904Y-36332390D02*
X129357285Y-36141914D01*
X129357285Y-36141914D02*
X129309666Y-36046676D01*
X129309666Y-36046676D02*
X129214428Y-35951438D01*
X129214428Y-35951438D02*
X129071571Y-35903819D01*
X129071571Y-35903819D02*
X128976333Y-35903819D01*
X128976333Y-35903819D02*
X128833476Y-35951438D01*
X128833476Y-35951438D02*
X128785857Y-35999057D01*
X127881095Y-35903819D02*
X128357285Y-35903819D01*
X128357285Y-35903819D02*
X128404904Y-36380009D01*
X128404904Y-36380009D02*
X128357285Y-36332390D01*
X128357285Y-36332390D02*
X128262047Y-36284771D01*
X128262047Y-36284771D02*
X128023952Y-36284771D01*
X128023952Y-36284771D02*
X127928714Y-36332390D01*
X127928714Y-36332390D02*
X127881095Y-36380009D01*
X127881095Y-36380009D02*
X127833476Y-36475247D01*
X127833476Y-36475247D02*
X127833476Y-36713342D01*
X127833476Y-36713342D02*
X127881095Y-36808580D01*
X127881095Y-36808580D02*
X127928714Y-36856200D01*
X127928714Y-36856200D02*
X128023952Y-36903819D01*
X128023952Y-36903819D02*
X128262047Y-36903819D01*
X128262047Y-36903819D02*
X128357285Y-36856200D01*
X128357285Y-36856200D02*
X128404904Y-36808580D01*
X126881095Y-36903819D02*
X127452523Y-36903819D01*
X127166809Y-36903819D02*
X127166809Y-35903819D01*
X127166809Y-35903819D02*
X127262047Y-36046676D01*
X127262047Y-36046676D02*
X127357285Y-36141914D01*
X127357285Y-36141914D02*
X127452523Y-36189533D01*
X81872057Y-64412019D02*
X82205390Y-63935828D01*
X82443485Y-64412019D02*
X82443485Y-63412019D01*
X82443485Y-63412019D02*
X82062533Y-63412019D01*
X82062533Y-63412019D02*
X81967295Y-63459638D01*
X81967295Y-63459638D02*
X81919676Y-63507257D01*
X81919676Y-63507257D02*
X81872057Y-63602495D01*
X81872057Y-63602495D02*
X81872057Y-63745352D01*
X81872057Y-63745352D02*
X81919676Y-63840590D01*
X81919676Y-63840590D02*
X81967295Y-63888209D01*
X81967295Y-63888209D02*
X82062533Y-63935828D01*
X82062533Y-63935828D02*
X82443485Y-63935828D01*
X80967295Y-63412019D02*
X81443485Y-63412019D01*
X81443485Y-63412019D02*
X81491104Y-63888209D01*
X81491104Y-63888209D02*
X81443485Y-63840590D01*
X81443485Y-63840590D02*
X81348247Y-63792971D01*
X81348247Y-63792971D02*
X81110152Y-63792971D01*
X81110152Y-63792971D02*
X81014914Y-63840590D01*
X81014914Y-63840590D02*
X80967295Y-63888209D01*
X80967295Y-63888209D02*
X80919676Y-63983447D01*
X80919676Y-63983447D02*
X80919676Y-64221542D01*
X80919676Y-64221542D02*
X80967295Y-64316780D01*
X80967295Y-64316780D02*
X81014914Y-64364400D01*
X81014914Y-64364400D02*
X81110152Y-64412019D01*
X81110152Y-64412019D02*
X81348247Y-64412019D01*
X81348247Y-64412019D02*
X81443485Y-64364400D01*
X81443485Y-64364400D02*
X81491104Y-64316780D01*
X79967295Y-64412019D02*
X80538723Y-64412019D01*
X80253009Y-64412019D02*
X80253009Y-63412019D01*
X80253009Y-63412019D02*
X80348247Y-63554876D01*
X80348247Y-63554876D02*
X80443485Y-63650114D01*
X80443485Y-63650114D02*
X80538723Y-63697733D01*
X130447894Y-54268019D02*
X130447894Y-55077542D01*
X130447894Y-55077542D02*
X130400275Y-55172780D01*
X130400275Y-55172780D02*
X130352656Y-55220400D01*
X130352656Y-55220400D02*
X130257418Y-55268019D01*
X130257418Y-55268019D02*
X130066942Y-55268019D01*
X130066942Y-55268019D02*
X129971704Y-55220400D01*
X129971704Y-55220400D02*
X129924085Y-55172780D01*
X129924085Y-55172780D02*
X129876466Y-55077542D01*
X129876466Y-55077542D02*
X129876466Y-54268019D01*
X128876466Y-55268019D02*
X129447894Y-55268019D01*
X129162180Y-55268019D02*
X129162180Y-54268019D01*
X129162180Y-54268019D02*
X129257418Y-54410876D01*
X129257418Y-54410876D02*
X129352656Y-54506114D01*
X129352656Y-54506114D02*
X129447894Y-54553733D01*
X128257418Y-54268019D02*
X128162180Y-54268019D01*
X128162180Y-54268019D02*
X128066942Y-54315638D01*
X128066942Y-54315638D02*
X128019323Y-54363257D01*
X128019323Y-54363257D02*
X127971704Y-54458495D01*
X127971704Y-54458495D02*
X127924085Y-54648971D01*
X127924085Y-54648971D02*
X127924085Y-54887066D01*
X127924085Y-54887066D02*
X127971704Y-55077542D01*
X127971704Y-55077542D02*
X128019323Y-55172780D01*
X128019323Y-55172780D02*
X128066942Y-55220400D01*
X128066942Y-55220400D02*
X128162180Y-55268019D01*
X128162180Y-55268019D02*
X128257418Y-55268019D01*
X128257418Y-55268019D02*
X128352656Y-55220400D01*
X128352656Y-55220400D02*
X128400275Y-55172780D01*
X128400275Y-55172780D02*
X128447894Y-55077542D01*
X128447894Y-55077542D02*
X128495513Y-54887066D01*
X128495513Y-54887066D02*
X128495513Y-54648971D01*
X128495513Y-54648971D02*
X128447894Y-54458495D01*
X128447894Y-54458495D02*
X128400275Y-54363257D01*
X128400275Y-54363257D02*
X128352656Y-54315638D01*
X128352656Y-54315638D02*
X128257418Y-54268019D01*
X83868419Y-55592742D02*
X83392228Y-55259409D01*
X83868419Y-55021314D02*
X82868419Y-55021314D01*
X82868419Y-55021314D02*
X82868419Y-55402266D01*
X82868419Y-55402266D02*
X82916038Y-55497504D01*
X82916038Y-55497504D02*
X82963657Y-55545123D01*
X82963657Y-55545123D02*
X83058895Y-55592742D01*
X83058895Y-55592742D02*
X83201752Y-55592742D01*
X83201752Y-55592742D02*
X83296990Y-55545123D01*
X83296990Y-55545123D02*
X83344609Y-55497504D01*
X83344609Y-55497504D02*
X83392228Y-55402266D01*
X83392228Y-55402266D02*
X83392228Y-55021314D01*
X82868419Y-56497504D02*
X82868419Y-56021314D01*
X82868419Y-56021314D02*
X83344609Y-55973695D01*
X83344609Y-55973695D02*
X83296990Y-56021314D01*
X83296990Y-56021314D02*
X83249371Y-56116552D01*
X83249371Y-56116552D02*
X83249371Y-56354647D01*
X83249371Y-56354647D02*
X83296990Y-56449885D01*
X83296990Y-56449885D02*
X83344609Y-56497504D01*
X83344609Y-56497504D02*
X83439847Y-56545123D01*
X83439847Y-56545123D02*
X83677942Y-56545123D01*
X83677942Y-56545123D02*
X83773180Y-56497504D01*
X83773180Y-56497504D02*
X83820800Y-56449885D01*
X83820800Y-56449885D02*
X83868419Y-56354647D01*
X83868419Y-56354647D02*
X83868419Y-56116552D01*
X83868419Y-56116552D02*
X83820800Y-56021314D01*
X83820800Y-56021314D02*
X83773180Y-55973695D01*
X83296990Y-57116552D02*
X83249371Y-57021314D01*
X83249371Y-57021314D02*
X83201752Y-56973695D01*
X83201752Y-56973695D02*
X83106514Y-56926076D01*
X83106514Y-56926076D02*
X83058895Y-56926076D01*
X83058895Y-56926076D02*
X82963657Y-56973695D01*
X82963657Y-56973695D02*
X82916038Y-57021314D01*
X82916038Y-57021314D02*
X82868419Y-57116552D01*
X82868419Y-57116552D02*
X82868419Y-57307028D01*
X82868419Y-57307028D02*
X82916038Y-57402266D01*
X82916038Y-57402266D02*
X82963657Y-57449885D01*
X82963657Y-57449885D02*
X83058895Y-57497504D01*
X83058895Y-57497504D02*
X83106514Y-57497504D01*
X83106514Y-57497504D02*
X83201752Y-57449885D01*
X83201752Y-57449885D02*
X83249371Y-57402266D01*
X83249371Y-57402266D02*
X83296990Y-57307028D01*
X83296990Y-57307028D02*
X83296990Y-57116552D01*
X83296990Y-57116552D02*
X83344609Y-57021314D01*
X83344609Y-57021314D02*
X83392228Y-56973695D01*
X83392228Y-56973695D02*
X83487466Y-56926076D01*
X83487466Y-56926076D02*
X83677942Y-56926076D01*
X83677942Y-56926076D02*
X83773180Y-56973695D01*
X83773180Y-56973695D02*
X83820800Y-57021314D01*
X83820800Y-57021314D02*
X83868419Y-57116552D01*
X83868419Y-57116552D02*
X83868419Y-57307028D01*
X83868419Y-57307028D02*
X83820800Y-57402266D01*
X83820800Y-57402266D02*
X83773180Y-57449885D01*
X83773180Y-57449885D02*
X83677942Y-57497504D01*
X83677942Y-57497504D02*
X83487466Y-57497504D01*
X83487466Y-57497504D02*
X83392228Y-57449885D01*
X83392228Y-57449885D02*
X83344609Y-57402266D01*
X83344609Y-57402266D02*
X83296990Y-57307028D01*
X111209057Y-51839019D02*
X111542390Y-51362828D01*
X111780485Y-51839019D02*
X111780485Y-50839019D01*
X111780485Y-50839019D02*
X111399533Y-50839019D01*
X111399533Y-50839019D02*
X111304295Y-50886638D01*
X111304295Y-50886638D02*
X111256676Y-50934257D01*
X111256676Y-50934257D02*
X111209057Y-51029495D01*
X111209057Y-51029495D02*
X111209057Y-51172352D01*
X111209057Y-51172352D02*
X111256676Y-51267590D01*
X111256676Y-51267590D02*
X111304295Y-51315209D01*
X111304295Y-51315209D02*
X111399533Y-51362828D01*
X111399533Y-51362828D02*
X111780485Y-51362828D01*
X110351914Y-51172352D02*
X110351914Y-51839019D01*
X110590009Y-50791400D02*
X110828104Y-51505685D01*
X110828104Y-51505685D02*
X110209057Y-51505685D01*
X109399533Y-50839019D02*
X109590009Y-50839019D01*
X109590009Y-50839019D02*
X109685247Y-50886638D01*
X109685247Y-50886638D02*
X109732866Y-50934257D01*
X109732866Y-50934257D02*
X109828104Y-51077114D01*
X109828104Y-51077114D02*
X109875723Y-51267590D01*
X109875723Y-51267590D02*
X109875723Y-51648542D01*
X109875723Y-51648542D02*
X109828104Y-51743780D01*
X109828104Y-51743780D02*
X109780485Y-51791400D01*
X109780485Y-51791400D02*
X109685247Y-51839019D01*
X109685247Y-51839019D02*
X109494771Y-51839019D01*
X109494771Y-51839019D02*
X109399533Y-51791400D01*
X109399533Y-51791400D02*
X109351914Y-51743780D01*
X109351914Y-51743780D02*
X109304295Y-51648542D01*
X109304295Y-51648542D02*
X109304295Y-51410447D01*
X109304295Y-51410447D02*
X109351914Y-51315209D01*
X109351914Y-51315209D02*
X109399533Y-51267590D01*
X109399533Y-51267590D02*
X109494771Y-51219971D01*
X109494771Y-51219971D02*
X109685247Y-51219971D01*
X109685247Y-51219971D02*
X109780485Y-51267590D01*
X109780485Y-51267590D02*
X109828104Y-51315209D01*
X109828104Y-51315209D02*
X109875723Y-51410447D01*
X132714904Y-54242619D02*
X132714904Y-55052142D01*
X132714904Y-55052142D02*
X132667285Y-55147380D01*
X132667285Y-55147380D02*
X132619666Y-55195000D01*
X132619666Y-55195000D02*
X132524428Y-55242619D01*
X132524428Y-55242619D02*
X132333952Y-55242619D01*
X132333952Y-55242619D02*
X132238714Y-55195000D01*
X132238714Y-55195000D02*
X132191095Y-55147380D01*
X132191095Y-55147380D02*
X132143476Y-55052142D01*
X132143476Y-55052142D02*
X132143476Y-54242619D01*
X131524428Y-54671190D02*
X131619666Y-54623571D01*
X131619666Y-54623571D02*
X131667285Y-54575952D01*
X131667285Y-54575952D02*
X131714904Y-54480714D01*
X131714904Y-54480714D02*
X131714904Y-54433095D01*
X131714904Y-54433095D02*
X131667285Y-54337857D01*
X131667285Y-54337857D02*
X131619666Y-54290238D01*
X131619666Y-54290238D02*
X131524428Y-54242619D01*
X131524428Y-54242619D02*
X131333952Y-54242619D01*
X131333952Y-54242619D02*
X131238714Y-54290238D01*
X131238714Y-54290238D02*
X131191095Y-54337857D01*
X131191095Y-54337857D02*
X131143476Y-54433095D01*
X131143476Y-54433095D02*
X131143476Y-54480714D01*
X131143476Y-54480714D02*
X131191095Y-54575952D01*
X131191095Y-54575952D02*
X131238714Y-54623571D01*
X131238714Y-54623571D02*
X131333952Y-54671190D01*
X131333952Y-54671190D02*
X131524428Y-54671190D01*
X131524428Y-54671190D02*
X131619666Y-54718809D01*
X131619666Y-54718809D02*
X131667285Y-54766428D01*
X131667285Y-54766428D02*
X131714904Y-54861666D01*
X131714904Y-54861666D02*
X131714904Y-55052142D01*
X131714904Y-55052142D02*
X131667285Y-55147380D01*
X131667285Y-55147380D02*
X131619666Y-55195000D01*
X131619666Y-55195000D02*
X131524428Y-55242619D01*
X131524428Y-55242619D02*
X131333952Y-55242619D01*
X131333952Y-55242619D02*
X131238714Y-55195000D01*
X131238714Y-55195000D02*
X131191095Y-55147380D01*
X131191095Y-55147380D02*
X131143476Y-55052142D01*
X131143476Y-55052142D02*
X131143476Y-54861666D01*
X131143476Y-54861666D02*
X131191095Y-54766428D01*
X131191095Y-54766428D02*
X131238714Y-54718809D01*
X131238714Y-54718809D02*
X131333952Y-54671190D01*
X75395057Y-53464619D02*
X75728390Y-52988428D01*
X75966485Y-53464619D02*
X75966485Y-52464619D01*
X75966485Y-52464619D02*
X75585533Y-52464619D01*
X75585533Y-52464619D02*
X75490295Y-52512238D01*
X75490295Y-52512238D02*
X75442676Y-52559857D01*
X75442676Y-52559857D02*
X75395057Y-52655095D01*
X75395057Y-52655095D02*
X75395057Y-52797952D01*
X75395057Y-52797952D02*
X75442676Y-52893190D01*
X75442676Y-52893190D02*
X75490295Y-52940809D01*
X75490295Y-52940809D02*
X75585533Y-52988428D01*
X75585533Y-52988428D02*
X75966485Y-52988428D01*
X74490295Y-52464619D02*
X74966485Y-52464619D01*
X74966485Y-52464619D02*
X75014104Y-52940809D01*
X75014104Y-52940809D02*
X74966485Y-52893190D01*
X74966485Y-52893190D02*
X74871247Y-52845571D01*
X74871247Y-52845571D02*
X74633152Y-52845571D01*
X74633152Y-52845571D02*
X74537914Y-52893190D01*
X74537914Y-52893190D02*
X74490295Y-52940809D01*
X74490295Y-52940809D02*
X74442676Y-53036047D01*
X74442676Y-53036047D02*
X74442676Y-53274142D01*
X74442676Y-53274142D02*
X74490295Y-53369380D01*
X74490295Y-53369380D02*
X74537914Y-53417000D01*
X74537914Y-53417000D02*
X74633152Y-53464619D01*
X74633152Y-53464619D02*
X74871247Y-53464619D01*
X74871247Y-53464619D02*
X74966485Y-53417000D01*
X74966485Y-53417000D02*
X75014104Y-53369380D01*
X73537914Y-52464619D02*
X74014104Y-52464619D01*
X74014104Y-52464619D02*
X74061723Y-52940809D01*
X74061723Y-52940809D02*
X74014104Y-52893190D01*
X74014104Y-52893190D02*
X73918866Y-52845571D01*
X73918866Y-52845571D02*
X73680771Y-52845571D01*
X73680771Y-52845571D02*
X73585533Y-52893190D01*
X73585533Y-52893190D02*
X73537914Y-52940809D01*
X73537914Y-52940809D02*
X73490295Y-53036047D01*
X73490295Y-53036047D02*
X73490295Y-53274142D01*
X73490295Y-53274142D02*
X73537914Y-53369380D01*
X73537914Y-53369380D02*
X73585533Y-53417000D01*
X73585533Y-53417000D02*
X73680771Y-53464619D01*
X73680771Y-53464619D02*
X73918866Y-53464619D01*
X73918866Y-53464619D02*
X74014104Y-53417000D01*
X74014104Y-53417000D02*
X74061723Y-53369380D01*
X105087657Y-44473019D02*
X105420990Y-43996828D01*
X105659085Y-44473019D02*
X105659085Y-43473019D01*
X105659085Y-43473019D02*
X105278133Y-43473019D01*
X105278133Y-43473019D02*
X105182895Y-43520638D01*
X105182895Y-43520638D02*
X105135276Y-43568257D01*
X105135276Y-43568257D02*
X105087657Y-43663495D01*
X105087657Y-43663495D02*
X105087657Y-43806352D01*
X105087657Y-43806352D02*
X105135276Y-43901590D01*
X105135276Y-43901590D02*
X105182895Y-43949209D01*
X105182895Y-43949209D02*
X105278133Y-43996828D01*
X105278133Y-43996828D02*
X105659085Y-43996828D01*
X104230514Y-43806352D02*
X104230514Y-44473019D01*
X104468609Y-43425400D02*
X104706704Y-44139685D01*
X104706704Y-44139685D02*
X104087657Y-44139685D01*
X103516228Y-43473019D02*
X103420990Y-43473019D01*
X103420990Y-43473019D02*
X103325752Y-43520638D01*
X103325752Y-43520638D02*
X103278133Y-43568257D01*
X103278133Y-43568257D02*
X103230514Y-43663495D01*
X103230514Y-43663495D02*
X103182895Y-43853971D01*
X103182895Y-43853971D02*
X103182895Y-44092066D01*
X103182895Y-44092066D02*
X103230514Y-44282542D01*
X103230514Y-44282542D02*
X103278133Y-44377780D01*
X103278133Y-44377780D02*
X103325752Y-44425400D01*
X103325752Y-44425400D02*
X103420990Y-44473019D01*
X103420990Y-44473019D02*
X103516228Y-44473019D01*
X103516228Y-44473019D02*
X103611466Y-44425400D01*
X103611466Y-44425400D02*
X103659085Y-44377780D01*
X103659085Y-44377780D02*
X103706704Y-44282542D01*
X103706704Y-44282542D02*
X103754323Y-44092066D01*
X103754323Y-44092066D02*
X103754323Y-43853971D01*
X103754323Y-43853971D02*
X103706704Y-43663495D01*
X103706704Y-43663495D02*
X103659085Y-43568257D01*
X103659085Y-43568257D02*
X103611466Y-43520638D01*
X103611466Y-43520638D02*
X103516228Y-43473019D01*
X70315057Y-68958619D02*
X70648390Y-68482428D01*
X70886485Y-68958619D02*
X70886485Y-67958619D01*
X70886485Y-67958619D02*
X70505533Y-67958619D01*
X70505533Y-67958619D02*
X70410295Y-68006238D01*
X70410295Y-68006238D02*
X70362676Y-68053857D01*
X70362676Y-68053857D02*
X70315057Y-68149095D01*
X70315057Y-68149095D02*
X70315057Y-68291952D01*
X70315057Y-68291952D02*
X70362676Y-68387190D01*
X70362676Y-68387190D02*
X70410295Y-68434809D01*
X70410295Y-68434809D02*
X70505533Y-68482428D01*
X70505533Y-68482428D02*
X70886485Y-68482428D01*
X69457914Y-68291952D02*
X69457914Y-68958619D01*
X69696009Y-67911000D02*
X69934104Y-68625285D01*
X69934104Y-68625285D02*
X69315057Y-68625285D01*
X69029342Y-67958619D02*
X68362676Y-67958619D01*
X68362676Y-67958619D02*
X68791247Y-68958619D01*
X78239857Y-64386619D02*
X78573190Y-63910428D01*
X78811285Y-64386619D02*
X78811285Y-63386619D01*
X78811285Y-63386619D02*
X78430333Y-63386619D01*
X78430333Y-63386619D02*
X78335095Y-63434238D01*
X78335095Y-63434238D02*
X78287476Y-63481857D01*
X78287476Y-63481857D02*
X78239857Y-63577095D01*
X78239857Y-63577095D02*
X78239857Y-63719952D01*
X78239857Y-63719952D02*
X78287476Y-63815190D01*
X78287476Y-63815190D02*
X78335095Y-63862809D01*
X78335095Y-63862809D02*
X78430333Y-63910428D01*
X78430333Y-63910428D02*
X78811285Y-63910428D01*
X77335095Y-63386619D02*
X77811285Y-63386619D01*
X77811285Y-63386619D02*
X77858904Y-63862809D01*
X77858904Y-63862809D02*
X77811285Y-63815190D01*
X77811285Y-63815190D02*
X77716047Y-63767571D01*
X77716047Y-63767571D02*
X77477952Y-63767571D01*
X77477952Y-63767571D02*
X77382714Y-63815190D01*
X77382714Y-63815190D02*
X77335095Y-63862809D01*
X77335095Y-63862809D02*
X77287476Y-63958047D01*
X77287476Y-63958047D02*
X77287476Y-64196142D01*
X77287476Y-64196142D02*
X77335095Y-64291380D01*
X77335095Y-64291380D02*
X77382714Y-64339000D01*
X77382714Y-64339000D02*
X77477952Y-64386619D01*
X77477952Y-64386619D02*
X77716047Y-64386619D01*
X77716047Y-64386619D02*
X77811285Y-64339000D01*
X77811285Y-64339000D02*
X77858904Y-64291380D01*
X76668428Y-63386619D02*
X76573190Y-63386619D01*
X76573190Y-63386619D02*
X76477952Y-63434238D01*
X76477952Y-63434238D02*
X76430333Y-63481857D01*
X76430333Y-63481857D02*
X76382714Y-63577095D01*
X76382714Y-63577095D02*
X76335095Y-63767571D01*
X76335095Y-63767571D02*
X76335095Y-64005666D01*
X76335095Y-64005666D02*
X76382714Y-64196142D01*
X76382714Y-64196142D02*
X76430333Y-64291380D01*
X76430333Y-64291380D02*
X76477952Y-64339000D01*
X76477952Y-64339000D02*
X76573190Y-64386619D01*
X76573190Y-64386619D02*
X76668428Y-64386619D01*
X76668428Y-64386619D02*
X76763666Y-64339000D01*
X76763666Y-64339000D02*
X76811285Y-64291380D01*
X76811285Y-64291380D02*
X76858904Y-64196142D01*
X76858904Y-64196142D02*
X76906523Y-64005666D01*
X76906523Y-64005666D02*
X76906523Y-63767571D01*
X76906523Y-63767571D02*
X76858904Y-63577095D01*
X76858904Y-63577095D02*
X76811285Y-63481857D01*
X76811285Y-63481857D02*
X76763666Y-63434238D01*
X76763666Y-63434238D02*
X76668428Y-63386619D01*
X107907057Y-44473019D02*
X108240390Y-43996828D01*
X108478485Y-44473019D02*
X108478485Y-43473019D01*
X108478485Y-43473019D02*
X108097533Y-43473019D01*
X108097533Y-43473019D02*
X108002295Y-43520638D01*
X108002295Y-43520638D02*
X107954676Y-43568257D01*
X107954676Y-43568257D02*
X107907057Y-43663495D01*
X107907057Y-43663495D02*
X107907057Y-43806352D01*
X107907057Y-43806352D02*
X107954676Y-43901590D01*
X107954676Y-43901590D02*
X108002295Y-43949209D01*
X108002295Y-43949209D02*
X108097533Y-43996828D01*
X108097533Y-43996828D02*
X108478485Y-43996828D01*
X107049914Y-43806352D02*
X107049914Y-44473019D01*
X107288009Y-43425400D02*
X107526104Y-44139685D01*
X107526104Y-44139685D02*
X106907057Y-44139685D01*
X106002295Y-44473019D02*
X106573723Y-44473019D01*
X106288009Y-44473019D02*
X106288009Y-43473019D01*
X106288009Y-43473019D02*
X106383247Y-43615876D01*
X106383247Y-43615876D02*
X106478485Y-43711114D01*
X106478485Y-43711114D02*
X106573723Y-43758733D01*
X96940666Y-48867219D02*
X97273999Y-48391028D01*
X97512094Y-48867219D02*
X97512094Y-47867219D01*
X97512094Y-47867219D02*
X97131142Y-47867219D01*
X97131142Y-47867219D02*
X97035904Y-47914838D01*
X97035904Y-47914838D02*
X96988285Y-47962457D01*
X96988285Y-47962457D02*
X96940666Y-48057695D01*
X96940666Y-48057695D02*
X96940666Y-48200552D01*
X96940666Y-48200552D02*
X96988285Y-48295790D01*
X96988285Y-48295790D02*
X97035904Y-48343409D01*
X97035904Y-48343409D02*
X97131142Y-48391028D01*
X97131142Y-48391028D02*
X97512094Y-48391028D01*
X96607332Y-47867219D02*
X95940666Y-47867219D01*
X95940666Y-47867219D02*
X96369237Y-48867219D01*
X85580457Y-64361219D02*
X85913790Y-63885028D01*
X86151885Y-64361219D02*
X86151885Y-63361219D01*
X86151885Y-63361219D02*
X85770933Y-63361219D01*
X85770933Y-63361219D02*
X85675695Y-63408838D01*
X85675695Y-63408838D02*
X85628076Y-63456457D01*
X85628076Y-63456457D02*
X85580457Y-63551695D01*
X85580457Y-63551695D02*
X85580457Y-63694552D01*
X85580457Y-63694552D02*
X85628076Y-63789790D01*
X85628076Y-63789790D02*
X85675695Y-63837409D01*
X85675695Y-63837409D02*
X85770933Y-63885028D01*
X85770933Y-63885028D02*
X86151885Y-63885028D01*
X84675695Y-63361219D02*
X85151885Y-63361219D01*
X85151885Y-63361219D02*
X85199504Y-63837409D01*
X85199504Y-63837409D02*
X85151885Y-63789790D01*
X85151885Y-63789790D02*
X85056647Y-63742171D01*
X85056647Y-63742171D02*
X84818552Y-63742171D01*
X84818552Y-63742171D02*
X84723314Y-63789790D01*
X84723314Y-63789790D02*
X84675695Y-63837409D01*
X84675695Y-63837409D02*
X84628076Y-63932647D01*
X84628076Y-63932647D02*
X84628076Y-64170742D01*
X84628076Y-64170742D02*
X84675695Y-64265980D01*
X84675695Y-64265980D02*
X84723314Y-64313600D01*
X84723314Y-64313600D02*
X84818552Y-64361219D01*
X84818552Y-64361219D02*
X85056647Y-64361219D01*
X85056647Y-64361219D02*
X85151885Y-64313600D01*
X85151885Y-64313600D02*
X85199504Y-64265980D01*
X84247123Y-63456457D02*
X84199504Y-63408838D01*
X84199504Y-63408838D02*
X84104266Y-63361219D01*
X84104266Y-63361219D02*
X83866171Y-63361219D01*
X83866171Y-63361219D02*
X83770933Y-63408838D01*
X83770933Y-63408838D02*
X83723314Y-63456457D01*
X83723314Y-63456457D02*
X83675695Y-63551695D01*
X83675695Y-63551695D02*
X83675695Y-63646933D01*
X83675695Y-63646933D02*
X83723314Y-63789790D01*
X83723314Y-63789790D02*
X84294742Y-64361219D01*
X84294742Y-64361219D02*
X83675695Y-64361219D01*
X131673504Y-38723219D02*
X131673504Y-39532742D01*
X131673504Y-39532742D02*
X131625885Y-39627980D01*
X131625885Y-39627980D02*
X131578266Y-39675600D01*
X131578266Y-39675600D02*
X131483028Y-39723219D01*
X131483028Y-39723219D02*
X131292552Y-39723219D01*
X131292552Y-39723219D02*
X131197314Y-39675600D01*
X131197314Y-39675600D02*
X131149695Y-39627980D01*
X131149695Y-39627980D02*
X131102076Y-39532742D01*
X131102076Y-39532742D02*
X131102076Y-38723219D01*
X130578266Y-39723219D02*
X130387790Y-39723219D01*
X130387790Y-39723219D02*
X130292552Y-39675600D01*
X130292552Y-39675600D02*
X130244933Y-39627980D01*
X130244933Y-39627980D02*
X130149695Y-39485123D01*
X130149695Y-39485123D02*
X130102076Y-39294647D01*
X130102076Y-39294647D02*
X130102076Y-38913695D01*
X130102076Y-38913695D02*
X130149695Y-38818457D01*
X130149695Y-38818457D02*
X130197314Y-38770838D01*
X130197314Y-38770838D02*
X130292552Y-38723219D01*
X130292552Y-38723219D02*
X130483028Y-38723219D01*
X130483028Y-38723219D02*
X130578266Y-38770838D01*
X130578266Y-38770838D02*
X130625885Y-38818457D01*
X130625885Y-38818457D02*
X130673504Y-38913695D01*
X130673504Y-38913695D02*
X130673504Y-39151790D01*
X130673504Y-39151790D02*
X130625885Y-39247028D01*
X130625885Y-39247028D02*
X130578266Y-39294647D01*
X130578266Y-39294647D02*
X130483028Y-39342266D01*
X130483028Y-39342266D02*
X130292552Y-39342266D01*
X130292552Y-39342266D02*
X130197314Y-39294647D01*
X130197314Y-39294647D02*
X130149695Y-39247028D01*
X130149695Y-39247028D02*
X130102076Y-39151790D01*
X80287019Y-55618142D02*
X79810828Y-55284809D01*
X80287019Y-55046714D02*
X79287019Y-55046714D01*
X79287019Y-55046714D02*
X79287019Y-55427666D01*
X79287019Y-55427666D02*
X79334638Y-55522904D01*
X79334638Y-55522904D02*
X79382257Y-55570523D01*
X79382257Y-55570523D02*
X79477495Y-55618142D01*
X79477495Y-55618142D02*
X79620352Y-55618142D01*
X79620352Y-55618142D02*
X79715590Y-55570523D01*
X79715590Y-55570523D02*
X79763209Y-55522904D01*
X79763209Y-55522904D02*
X79810828Y-55427666D01*
X79810828Y-55427666D02*
X79810828Y-55046714D01*
X79287019Y-56522904D02*
X79287019Y-56046714D01*
X79287019Y-56046714D02*
X79763209Y-55999095D01*
X79763209Y-55999095D02*
X79715590Y-56046714D01*
X79715590Y-56046714D02*
X79667971Y-56141952D01*
X79667971Y-56141952D02*
X79667971Y-56380047D01*
X79667971Y-56380047D02*
X79715590Y-56475285D01*
X79715590Y-56475285D02*
X79763209Y-56522904D01*
X79763209Y-56522904D02*
X79858447Y-56570523D01*
X79858447Y-56570523D02*
X80096542Y-56570523D01*
X80096542Y-56570523D02*
X80191780Y-56522904D01*
X80191780Y-56522904D02*
X80239400Y-56475285D01*
X80239400Y-56475285D02*
X80287019Y-56380047D01*
X80287019Y-56380047D02*
X80287019Y-56141952D01*
X80287019Y-56141952D02*
X80239400Y-56046714D01*
X80239400Y-56046714D02*
X80191780Y-55999095D01*
X79287019Y-56903857D02*
X79287019Y-57570523D01*
X79287019Y-57570523D02*
X80287019Y-57141952D01*
X132722857Y-53775780D02*
X132770476Y-53823400D01*
X132770476Y-53823400D02*
X132913333Y-53871019D01*
X132913333Y-53871019D02*
X133008571Y-53871019D01*
X133008571Y-53871019D02*
X133151428Y-53823400D01*
X133151428Y-53823400D02*
X133246666Y-53728161D01*
X133246666Y-53728161D02*
X133294285Y-53632923D01*
X133294285Y-53632923D02*
X133341904Y-53442447D01*
X133341904Y-53442447D02*
X133341904Y-53299590D01*
X133341904Y-53299590D02*
X133294285Y-53109114D01*
X133294285Y-53109114D02*
X133246666Y-53013876D01*
X133246666Y-53013876D02*
X133151428Y-52918638D01*
X133151428Y-52918638D02*
X133008571Y-52871019D01*
X133008571Y-52871019D02*
X132913333Y-52871019D01*
X132913333Y-52871019D02*
X132770476Y-52918638D01*
X132770476Y-52918638D02*
X132722857Y-52966257D01*
X131865714Y-53204352D02*
X131865714Y-53871019D01*
X132103809Y-52823400D02*
X132341904Y-53537685D01*
X132341904Y-53537685D02*
X131722857Y-53537685D01*
X131199047Y-53299590D02*
X131294285Y-53251971D01*
X131294285Y-53251971D02*
X131341904Y-53204352D01*
X131341904Y-53204352D02*
X131389523Y-53109114D01*
X131389523Y-53109114D02*
X131389523Y-53061495D01*
X131389523Y-53061495D02*
X131341904Y-52966257D01*
X131341904Y-52966257D02*
X131294285Y-52918638D01*
X131294285Y-52918638D02*
X131199047Y-52871019D01*
X131199047Y-52871019D02*
X131008571Y-52871019D01*
X131008571Y-52871019D02*
X130913333Y-52918638D01*
X130913333Y-52918638D02*
X130865714Y-52966257D01*
X130865714Y-52966257D02*
X130818095Y-53061495D01*
X130818095Y-53061495D02*
X130818095Y-53109114D01*
X130818095Y-53109114D02*
X130865714Y-53204352D01*
X130865714Y-53204352D02*
X130913333Y-53251971D01*
X130913333Y-53251971D02*
X131008571Y-53299590D01*
X131008571Y-53299590D02*
X131199047Y-53299590D01*
X131199047Y-53299590D02*
X131294285Y-53347209D01*
X131294285Y-53347209D02*
X131341904Y-53394828D01*
X131341904Y-53394828D02*
X131389523Y-53490066D01*
X131389523Y-53490066D02*
X131389523Y-53680542D01*
X131389523Y-53680542D02*
X131341904Y-53775780D01*
X131341904Y-53775780D02*
X131294285Y-53823400D01*
X131294285Y-53823400D02*
X131199047Y-53871019D01*
X131199047Y-53871019D02*
X131008571Y-53871019D01*
X131008571Y-53871019D02*
X130913333Y-53823400D01*
X130913333Y-53823400D02*
X130865714Y-53775780D01*
X130865714Y-53775780D02*
X130818095Y-53680542D01*
X130818095Y-53680542D02*
X130818095Y-53490066D01*
X130818095Y-53490066D02*
X130865714Y-53394828D01*
X130865714Y-53394828D02*
X130913333Y-53347209D01*
X130913333Y-53347209D02*
X131008571Y-53299590D01*
X76131657Y-56944419D02*
X76464990Y-56468228D01*
X76703085Y-56944419D02*
X76703085Y-55944419D01*
X76703085Y-55944419D02*
X76322133Y-55944419D01*
X76322133Y-55944419D02*
X76226895Y-55992038D01*
X76226895Y-55992038D02*
X76179276Y-56039657D01*
X76179276Y-56039657D02*
X76131657Y-56134895D01*
X76131657Y-56134895D02*
X76131657Y-56277752D01*
X76131657Y-56277752D02*
X76179276Y-56372990D01*
X76179276Y-56372990D02*
X76226895Y-56420609D01*
X76226895Y-56420609D02*
X76322133Y-56468228D01*
X76322133Y-56468228D02*
X76703085Y-56468228D01*
X75226895Y-55944419D02*
X75703085Y-55944419D01*
X75703085Y-55944419D02*
X75750704Y-56420609D01*
X75750704Y-56420609D02*
X75703085Y-56372990D01*
X75703085Y-56372990D02*
X75607847Y-56325371D01*
X75607847Y-56325371D02*
X75369752Y-56325371D01*
X75369752Y-56325371D02*
X75274514Y-56372990D01*
X75274514Y-56372990D02*
X75226895Y-56420609D01*
X75226895Y-56420609D02*
X75179276Y-56515847D01*
X75179276Y-56515847D02*
X75179276Y-56753942D01*
X75179276Y-56753942D02*
X75226895Y-56849180D01*
X75226895Y-56849180D02*
X75274514Y-56896800D01*
X75274514Y-56896800D02*
X75369752Y-56944419D01*
X75369752Y-56944419D02*
X75607847Y-56944419D01*
X75607847Y-56944419D02*
X75703085Y-56896800D01*
X75703085Y-56896800D02*
X75750704Y-56849180D01*
X74322133Y-55944419D02*
X74512609Y-55944419D01*
X74512609Y-55944419D02*
X74607847Y-55992038D01*
X74607847Y-55992038D02*
X74655466Y-56039657D01*
X74655466Y-56039657D02*
X74750704Y-56182514D01*
X74750704Y-56182514D02*
X74798323Y-56372990D01*
X74798323Y-56372990D02*
X74798323Y-56753942D01*
X74798323Y-56753942D02*
X74750704Y-56849180D01*
X74750704Y-56849180D02*
X74703085Y-56896800D01*
X74703085Y-56896800D02*
X74607847Y-56944419D01*
X74607847Y-56944419D02*
X74417371Y-56944419D01*
X74417371Y-56944419D02*
X74322133Y-56896800D01*
X74322133Y-56896800D02*
X74274514Y-56849180D01*
X74274514Y-56849180D02*
X74226895Y-56753942D01*
X74226895Y-56753942D02*
X74226895Y-56515847D01*
X74226895Y-56515847D02*
X74274514Y-56420609D01*
X74274514Y-56420609D02*
X74322133Y-56372990D01*
X74322133Y-56372990D02*
X74417371Y-56325371D01*
X74417371Y-56325371D02*
X74607847Y-56325371D01*
X74607847Y-56325371D02*
X74703085Y-56372990D01*
X74703085Y-56372990D02*
X74750704Y-56420609D01*
X74750704Y-56420609D02*
X74798323Y-56515847D01*
X131235294Y-59906819D02*
X131235294Y-60716342D01*
X131235294Y-60716342D02*
X131187675Y-60811580D01*
X131187675Y-60811580D02*
X131140056Y-60859200D01*
X131140056Y-60859200D02*
X131044818Y-60906819D01*
X131044818Y-60906819D02*
X130854342Y-60906819D01*
X130854342Y-60906819D02*
X130759104Y-60859200D01*
X130759104Y-60859200D02*
X130711485Y-60811580D01*
X130711485Y-60811580D02*
X130663866Y-60716342D01*
X130663866Y-60716342D02*
X130663866Y-59906819D01*
X129663866Y-60906819D02*
X130235294Y-60906819D01*
X129949580Y-60906819D02*
X129949580Y-59906819D01*
X129949580Y-59906819D02*
X130044818Y-60049676D01*
X130044818Y-60049676D02*
X130140056Y-60144914D01*
X130140056Y-60144914D02*
X130235294Y-60192533D01*
X129330532Y-59906819D02*
X128711485Y-59906819D01*
X128711485Y-59906819D02*
X129044818Y-60287771D01*
X129044818Y-60287771D02*
X128901961Y-60287771D01*
X128901961Y-60287771D02*
X128806723Y-60335390D01*
X128806723Y-60335390D02*
X128759104Y-60383009D01*
X128759104Y-60383009D02*
X128711485Y-60478247D01*
X128711485Y-60478247D02*
X128711485Y-60716342D01*
X128711485Y-60716342D02*
X128759104Y-60811580D01*
X128759104Y-60811580D02*
X128806723Y-60859200D01*
X128806723Y-60859200D02*
X128901961Y-60906819D01*
X128901961Y-60906819D02*
X129187675Y-60906819D01*
X129187675Y-60906819D02*
X129282913Y-60859200D01*
X129282913Y-60859200D02*
X129330532Y-60811580D01*
X126369000Y-64311880D02*
X126369000Y-64073785D01*
X126130905Y-64169023D02*
X126369000Y-64073785D01*
X126369000Y-64073785D02*
X126607095Y-64169023D01*
X126226143Y-63883309D02*
X126369000Y-64073785D01*
X126369000Y-64073785D02*
X126511857Y-63883309D01*
X126368999Y-63221519D02*
X126368999Y-63459614D01*
X126607094Y-63364376D02*
X126368999Y-63459614D01*
X126368999Y-63459614D02*
X126130904Y-63364376D01*
X126511856Y-63650090D02*
X126368999Y-63459614D01*
X126368999Y-63459614D02*
X126226142Y-63650090D01*
X104036019Y-48709342D02*
X103559828Y-48376009D01*
X104036019Y-48137914D02*
X103036019Y-48137914D01*
X103036019Y-48137914D02*
X103036019Y-48518866D01*
X103036019Y-48518866D02*
X103083638Y-48614104D01*
X103083638Y-48614104D02*
X103131257Y-48661723D01*
X103131257Y-48661723D02*
X103226495Y-48709342D01*
X103226495Y-48709342D02*
X103369352Y-48709342D01*
X103369352Y-48709342D02*
X103464590Y-48661723D01*
X103464590Y-48661723D02*
X103512209Y-48614104D01*
X103512209Y-48614104D02*
X103559828Y-48518866D01*
X103559828Y-48518866D02*
X103559828Y-48137914D01*
X103036019Y-49042676D02*
X103036019Y-49661723D01*
X103036019Y-49661723D02*
X103416971Y-49328390D01*
X103416971Y-49328390D02*
X103416971Y-49471247D01*
X103416971Y-49471247D02*
X103464590Y-49566485D01*
X103464590Y-49566485D02*
X103512209Y-49614104D01*
X103512209Y-49614104D02*
X103607447Y-49661723D01*
X103607447Y-49661723D02*
X103845542Y-49661723D01*
X103845542Y-49661723D02*
X103940780Y-49614104D01*
X103940780Y-49614104D02*
X103988400Y-49566485D01*
X103988400Y-49566485D02*
X104036019Y-49471247D01*
X104036019Y-49471247D02*
X104036019Y-49185533D01*
X104036019Y-49185533D02*
X103988400Y-49090295D01*
X103988400Y-49090295D02*
X103940780Y-49042676D01*
X103036019Y-50566485D02*
X103036019Y-50090295D01*
X103036019Y-50090295D02*
X103512209Y-50042676D01*
X103512209Y-50042676D02*
X103464590Y-50090295D01*
X103464590Y-50090295D02*
X103416971Y-50185533D01*
X103416971Y-50185533D02*
X103416971Y-50423628D01*
X103416971Y-50423628D02*
X103464590Y-50518866D01*
X103464590Y-50518866D02*
X103512209Y-50566485D01*
X103512209Y-50566485D02*
X103607447Y-50614104D01*
X103607447Y-50614104D02*
X103845542Y-50614104D01*
X103845542Y-50614104D02*
X103940780Y-50566485D01*
X103940780Y-50566485D02*
X103988400Y-50518866D01*
X103988400Y-50518866D02*
X104036019Y-50423628D01*
X104036019Y-50423628D02*
X104036019Y-50185533D01*
X104036019Y-50185533D02*
X103988400Y-50090295D01*
X103988400Y-50090295D02*
X103940780Y-50042676D01*
X129827257Y-52505780D02*
X129874876Y-52553400D01*
X129874876Y-52553400D02*
X130017733Y-52601019D01*
X130017733Y-52601019D02*
X130112971Y-52601019D01*
X130112971Y-52601019D02*
X130255828Y-52553400D01*
X130255828Y-52553400D02*
X130351066Y-52458161D01*
X130351066Y-52458161D02*
X130398685Y-52362923D01*
X130398685Y-52362923D02*
X130446304Y-52172447D01*
X130446304Y-52172447D02*
X130446304Y-52029590D01*
X130446304Y-52029590D02*
X130398685Y-51839114D01*
X130398685Y-51839114D02*
X130351066Y-51743876D01*
X130351066Y-51743876D02*
X130255828Y-51648638D01*
X130255828Y-51648638D02*
X130112971Y-51601019D01*
X130112971Y-51601019D02*
X130017733Y-51601019D01*
X130017733Y-51601019D02*
X129874876Y-51648638D01*
X129874876Y-51648638D02*
X129827257Y-51696257D01*
X128970114Y-51934352D02*
X128970114Y-52601019D01*
X129208209Y-51553400D02*
X129446304Y-52267685D01*
X129446304Y-52267685D02*
X128827257Y-52267685D01*
X128541542Y-51601019D02*
X127874876Y-51601019D01*
X127874876Y-51601019D02*
X128303447Y-52601019D01*
X113459419Y-45229542D02*
X112983228Y-44896209D01*
X113459419Y-44658114D02*
X112459419Y-44658114D01*
X112459419Y-44658114D02*
X112459419Y-45039066D01*
X112459419Y-45039066D02*
X112507038Y-45134304D01*
X112507038Y-45134304D02*
X112554657Y-45181923D01*
X112554657Y-45181923D02*
X112649895Y-45229542D01*
X112649895Y-45229542D02*
X112792752Y-45229542D01*
X112792752Y-45229542D02*
X112887990Y-45181923D01*
X112887990Y-45181923D02*
X112935609Y-45134304D01*
X112935609Y-45134304D02*
X112983228Y-45039066D01*
X112983228Y-45039066D02*
X112983228Y-44658114D01*
X112792752Y-46086685D02*
X113459419Y-46086685D01*
X112411800Y-45848590D02*
X113126085Y-45610495D01*
X113126085Y-45610495D02*
X113126085Y-46229542D01*
X112459419Y-46515257D02*
X112459419Y-47134304D01*
X112459419Y-47134304D02*
X112840371Y-46800971D01*
X112840371Y-46800971D02*
X112840371Y-46943828D01*
X112840371Y-46943828D02*
X112887990Y-47039066D01*
X112887990Y-47039066D02*
X112935609Y-47086685D01*
X112935609Y-47086685D02*
X113030847Y-47134304D01*
X113030847Y-47134304D02*
X113268942Y-47134304D01*
X113268942Y-47134304D02*
X113364180Y-47086685D01*
X113364180Y-47086685D02*
X113411800Y-47039066D01*
X113411800Y-47039066D02*
X113459419Y-46943828D01*
X113459419Y-46943828D02*
X113459419Y-46658114D01*
X113459419Y-46658114D02*
X113411800Y-46562876D01*
X113411800Y-46562876D02*
X113364180Y-46515257D01*
X108836619Y-48556942D02*
X108360428Y-48223609D01*
X108836619Y-47985514D02*
X107836619Y-47985514D01*
X107836619Y-47985514D02*
X107836619Y-48366466D01*
X107836619Y-48366466D02*
X107884238Y-48461704D01*
X107884238Y-48461704D02*
X107931857Y-48509323D01*
X107931857Y-48509323D02*
X108027095Y-48556942D01*
X108027095Y-48556942D02*
X108169952Y-48556942D01*
X108169952Y-48556942D02*
X108265190Y-48509323D01*
X108265190Y-48509323D02*
X108312809Y-48461704D01*
X108312809Y-48461704D02*
X108360428Y-48366466D01*
X108360428Y-48366466D02*
X108360428Y-47985514D01*
X108169952Y-49414085D02*
X108836619Y-49414085D01*
X107789000Y-49175990D02*
X108503285Y-48937895D01*
X108503285Y-48937895D02*
X108503285Y-49556942D01*
X108169952Y-50366466D02*
X108836619Y-50366466D01*
X107789000Y-50128371D02*
X108503285Y-49890276D01*
X108503285Y-49890276D02*
X108503285Y-50509323D01*
X92292466Y-49508580D02*
X92340085Y-49556200D01*
X92340085Y-49556200D02*
X92482942Y-49603819D01*
X92482942Y-49603819D02*
X92578180Y-49603819D01*
X92578180Y-49603819D02*
X92721037Y-49556200D01*
X92721037Y-49556200D02*
X92816275Y-49460961D01*
X92816275Y-49460961D02*
X92863894Y-49365723D01*
X92863894Y-49365723D02*
X92911513Y-49175247D01*
X92911513Y-49175247D02*
X92911513Y-49032390D01*
X92911513Y-49032390D02*
X92863894Y-48841914D01*
X92863894Y-48841914D02*
X92816275Y-48746676D01*
X92816275Y-48746676D02*
X92721037Y-48651438D01*
X92721037Y-48651438D02*
X92578180Y-48603819D01*
X92578180Y-48603819D02*
X92482942Y-48603819D01*
X92482942Y-48603819D02*
X92340085Y-48651438D01*
X92340085Y-48651438D02*
X92292466Y-48699057D01*
X91911513Y-48699057D02*
X91863894Y-48651438D01*
X91863894Y-48651438D02*
X91768656Y-48603819D01*
X91768656Y-48603819D02*
X91530561Y-48603819D01*
X91530561Y-48603819D02*
X91435323Y-48651438D01*
X91435323Y-48651438D02*
X91387704Y-48699057D01*
X91387704Y-48699057D02*
X91340085Y-48794295D01*
X91340085Y-48794295D02*
X91340085Y-48889533D01*
X91340085Y-48889533D02*
X91387704Y-49032390D01*
X91387704Y-49032390D02*
X91959132Y-49603819D01*
X91959132Y-49603819D02*
X91340085Y-49603819D01*
X82811857Y-66545619D02*
X83145190Y-66069428D01*
X83383285Y-66545619D02*
X83383285Y-65545619D01*
X83383285Y-65545619D02*
X83002333Y-65545619D01*
X83002333Y-65545619D02*
X82907095Y-65593238D01*
X82907095Y-65593238D02*
X82859476Y-65640857D01*
X82859476Y-65640857D02*
X82811857Y-65736095D01*
X82811857Y-65736095D02*
X82811857Y-65878952D01*
X82811857Y-65878952D02*
X82859476Y-65974190D01*
X82859476Y-65974190D02*
X82907095Y-66021809D01*
X82907095Y-66021809D02*
X83002333Y-66069428D01*
X83002333Y-66069428D02*
X83383285Y-66069428D01*
X81954714Y-65878952D02*
X81954714Y-66545619D01*
X82192809Y-65498000D02*
X82430904Y-66212285D01*
X82430904Y-66212285D02*
X81811857Y-66212285D01*
X81288047Y-65974190D02*
X81383285Y-65926571D01*
X81383285Y-65926571D02*
X81430904Y-65878952D01*
X81430904Y-65878952D02*
X81478523Y-65783714D01*
X81478523Y-65783714D02*
X81478523Y-65736095D01*
X81478523Y-65736095D02*
X81430904Y-65640857D01*
X81430904Y-65640857D02*
X81383285Y-65593238D01*
X81383285Y-65593238D02*
X81288047Y-65545619D01*
X81288047Y-65545619D02*
X81097571Y-65545619D01*
X81097571Y-65545619D02*
X81002333Y-65593238D01*
X81002333Y-65593238D02*
X80954714Y-65640857D01*
X80954714Y-65640857D02*
X80907095Y-65736095D01*
X80907095Y-65736095D02*
X80907095Y-65783714D01*
X80907095Y-65783714D02*
X80954714Y-65878952D01*
X80954714Y-65878952D02*
X81002333Y-65926571D01*
X81002333Y-65926571D02*
X81097571Y-65974190D01*
X81097571Y-65974190D02*
X81288047Y-65974190D01*
X81288047Y-65974190D02*
X81383285Y-66021809D01*
X81383285Y-66021809D02*
X81430904Y-66069428D01*
X81430904Y-66069428D02*
X81478523Y-66164666D01*
X81478523Y-66164666D02*
X81478523Y-66355142D01*
X81478523Y-66355142D02*
X81430904Y-66450380D01*
X81430904Y-66450380D02*
X81383285Y-66498000D01*
X81383285Y-66498000D02*
X81288047Y-66545619D01*
X81288047Y-66545619D02*
X81097571Y-66545619D01*
X81097571Y-66545619D02*
X81002333Y-66498000D01*
X81002333Y-66498000D02*
X80954714Y-66450380D01*
X80954714Y-66450380D02*
X80907095Y-66355142D01*
X80907095Y-66355142D02*
X80907095Y-66164666D01*
X80907095Y-66164666D02*
X80954714Y-66069428D01*
X80954714Y-66069428D02*
X81002333Y-66021809D01*
X81002333Y-66021809D02*
X81097571Y-65974190D01*
X100812504Y-47283019D02*
X100812504Y-48092542D01*
X100812504Y-48092542D02*
X100764885Y-48187780D01*
X100764885Y-48187780D02*
X100717266Y-48235400D01*
X100717266Y-48235400D02*
X100622028Y-48283019D01*
X100622028Y-48283019D02*
X100431552Y-48283019D01*
X100431552Y-48283019D02*
X100336314Y-48235400D01*
X100336314Y-48235400D02*
X100288695Y-48187780D01*
X100288695Y-48187780D02*
X100241076Y-48092542D01*
X100241076Y-48092542D02*
X100241076Y-47283019D01*
X99288695Y-47283019D02*
X99764885Y-47283019D01*
X99764885Y-47283019D02*
X99812504Y-47759209D01*
X99812504Y-47759209D02*
X99764885Y-47711590D01*
X99764885Y-47711590D02*
X99669647Y-47663971D01*
X99669647Y-47663971D02*
X99431552Y-47663971D01*
X99431552Y-47663971D02*
X99336314Y-47711590D01*
X99336314Y-47711590D02*
X99288695Y-47759209D01*
X99288695Y-47759209D02*
X99241076Y-47854447D01*
X99241076Y-47854447D02*
X99241076Y-48092542D01*
X99241076Y-48092542D02*
X99288695Y-48187780D01*
X99288695Y-48187780D02*
X99336314Y-48235400D01*
X99336314Y-48235400D02*
X99431552Y-48283019D01*
X99431552Y-48283019D02*
X99669647Y-48283019D01*
X99669647Y-48283019D02*
X99764885Y-48235400D01*
X99764885Y-48235400D02*
X99812504Y-48187780D01*
X128785857Y-38205580D02*
X128833476Y-38253200D01*
X128833476Y-38253200D02*
X128976333Y-38300819D01*
X128976333Y-38300819D02*
X129071571Y-38300819D01*
X129071571Y-38300819D02*
X129214428Y-38253200D01*
X129214428Y-38253200D02*
X129309666Y-38157961D01*
X129309666Y-38157961D02*
X129357285Y-38062723D01*
X129357285Y-38062723D02*
X129404904Y-37872247D01*
X129404904Y-37872247D02*
X129404904Y-37729390D01*
X129404904Y-37729390D02*
X129357285Y-37538914D01*
X129357285Y-37538914D02*
X129309666Y-37443676D01*
X129309666Y-37443676D02*
X129214428Y-37348438D01*
X129214428Y-37348438D02*
X129071571Y-37300819D01*
X129071571Y-37300819D02*
X128976333Y-37300819D01*
X128976333Y-37300819D02*
X128833476Y-37348438D01*
X128833476Y-37348438D02*
X128785857Y-37396057D01*
X127928714Y-37634152D02*
X127928714Y-38300819D01*
X128166809Y-37253200D02*
X128404904Y-37967485D01*
X128404904Y-37967485D02*
X127785857Y-37967485D01*
X126976333Y-37300819D02*
X127166809Y-37300819D01*
X127166809Y-37300819D02*
X127262047Y-37348438D01*
X127262047Y-37348438D02*
X127309666Y-37396057D01*
X127309666Y-37396057D02*
X127404904Y-37538914D01*
X127404904Y-37538914D02*
X127452523Y-37729390D01*
X127452523Y-37729390D02*
X127452523Y-38110342D01*
X127452523Y-38110342D02*
X127404904Y-38205580D01*
X127404904Y-38205580D02*
X127357285Y-38253200D01*
X127357285Y-38253200D02*
X127262047Y-38300819D01*
X127262047Y-38300819D02*
X127071571Y-38300819D01*
X127071571Y-38300819D02*
X126976333Y-38253200D01*
X126976333Y-38253200D02*
X126928714Y-38205580D01*
X126928714Y-38205580D02*
X126881095Y-38110342D01*
X126881095Y-38110342D02*
X126881095Y-37872247D01*
X126881095Y-37872247D02*
X126928714Y-37777009D01*
X126928714Y-37777009D02*
X126976333Y-37729390D01*
X126976333Y-37729390D02*
X127071571Y-37681771D01*
X127071571Y-37681771D02*
X127262047Y-37681771D01*
X127262047Y-37681771D02*
X127357285Y-37729390D01*
X127357285Y-37729390D02*
X127404904Y-37777009D01*
X127404904Y-37777009D02*
X127452523Y-37872247D01*
X107780057Y-51889819D02*
X108113390Y-51413628D01*
X108351485Y-51889819D02*
X108351485Y-50889819D01*
X108351485Y-50889819D02*
X107970533Y-50889819D01*
X107970533Y-50889819D02*
X107875295Y-50937438D01*
X107875295Y-50937438D02*
X107827676Y-50985057D01*
X107827676Y-50985057D02*
X107780057Y-51080295D01*
X107780057Y-51080295D02*
X107780057Y-51223152D01*
X107780057Y-51223152D02*
X107827676Y-51318390D01*
X107827676Y-51318390D02*
X107875295Y-51366009D01*
X107875295Y-51366009D02*
X107970533Y-51413628D01*
X107970533Y-51413628D02*
X108351485Y-51413628D01*
X107446723Y-50889819D02*
X106827676Y-50889819D01*
X106827676Y-50889819D02*
X107161009Y-51270771D01*
X107161009Y-51270771D02*
X107018152Y-51270771D01*
X107018152Y-51270771D02*
X106922914Y-51318390D01*
X106922914Y-51318390D02*
X106875295Y-51366009D01*
X106875295Y-51366009D02*
X106827676Y-51461247D01*
X106827676Y-51461247D02*
X106827676Y-51699342D01*
X106827676Y-51699342D02*
X106875295Y-51794580D01*
X106875295Y-51794580D02*
X106922914Y-51842200D01*
X106922914Y-51842200D02*
X107018152Y-51889819D01*
X107018152Y-51889819D02*
X107303866Y-51889819D01*
X107303866Y-51889819D02*
X107399104Y-51842200D01*
X107399104Y-51842200D02*
X107446723Y-51794580D01*
X106256247Y-51318390D02*
X106351485Y-51270771D01*
X106351485Y-51270771D02*
X106399104Y-51223152D01*
X106399104Y-51223152D02*
X106446723Y-51127914D01*
X106446723Y-51127914D02*
X106446723Y-51080295D01*
X106446723Y-51080295D02*
X106399104Y-50985057D01*
X106399104Y-50985057D02*
X106351485Y-50937438D01*
X106351485Y-50937438D02*
X106256247Y-50889819D01*
X106256247Y-50889819D02*
X106065771Y-50889819D01*
X106065771Y-50889819D02*
X105970533Y-50937438D01*
X105970533Y-50937438D02*
X105922914Y-50985057D01*
X105922914Y-50985057D02*
X105875295Y-51080295D01*
X105875295Y-51080295D02*
X105875295Y-51127914D01*
X105875295Y-51127914D02*
X105922914Y-51223152D01*
X105922914Y-51223152D02*
X105970533Y-51270771D01*
X105970533Y-51270771D02*
X106065771Y-51318390D01*
X106065771Y-51318390D02*
X106256247Y-51318390D01*
X106256247Y-51318390D02*
X106351485Y-51366009D01*
X106351485Y-51366009D02*
X106399104Y-51413628D01*
X106399104Y-51413628D02*
X106446723Y-51508866D01*
X106446723Y-51508866D02*
X106446723Y-51699342D01*
X106446723Y-51699342D02*
X106399104Y-51794580D01*
X106399104Y-51794580D02*
X106351485Y-51842200D01*
X106351485Y-51842200D02*
X106256247Y-51889819D01*
X106256247Y-51889819D02*
X106065771Y-51889819D01*
X106065771Y-51889819D02*
X105970533Y-51842200D01*
X105970533Y-51842200D02*
X105922914Y-51794580D01*
X105922914Y-51794580D02*
X105875295Y-51699342D01*
X105875295Y-51699342D02*
X105875295Y-51508866D01*
X105875295Y-51508866D02*
X105922914Y-51413628D01*
X105922914Y-51413628D02*
X105970533Y-51366009D01*
X105970533Y-51366009D02*
X106065771Y-51318390D01*
X108811219Y-45635942D02*
X108335028Y-45302609D01*
X108811219Y-45064514D02*
X107811219Y-45064514D01*
X107811219Y-45064514D02*
X107811219Y-45445466D01*
X107811219Y-45445466D02*
X107858838Y-45540704D01*
X107858838Y-45540704D02*
X107906457Y-45588323D01*
X107906457Y-45588323D02*
X108001695Y-45635942D01*
X108001695Y-45635942D02*
X108144552Y-45635942D01*
X108144552Y-45635942D02*
X108239790Y-45588323D01*
X108239790Y-45588323D02*
X108287409Y-45540704D01*
X108287409Y-45540704D02*
X108335028Y-45445466D01*
X108335028Y-45445466D02*
X108335028Y-45064514D01*
X107811219Y-45969276D02*
X107811219Y-46588323D01*
X107811219Y-46588323D02*
X108192171Y-46254990D01*
X108192171Y-46254990D02*
X108192171Y-46397847D01*
X108192171Y-46397847D02*
X108239790Y-46493085D01*
X108239790Y-46493085D02*
X108287409Y-46540704D01*
X108287409Y-46540704D02*
X108382647Y-46588323D01*
X108382647Y-46588323D02*
X108620742Y-46588323D01*
X108620742Y-46588323D02*
X108715980Y-46540704D01*
X108715980Y-46540704D02*
X108763600Y-46493085D01*
X108763600Y-46493085D02*
X108811219Y-46397847D01*
X108811219Y-46397847D02*
X108811219Y-46112133D01*
X108811219Y-46112133D02*
X108763600Y-46016895D01*
X108763600Y-46016895D02*
X108715980Y-45969276D01*
X107811219Y-46921657D02*
X107811219Y-47588323D01*
X107811219Y-47588323D02*
X108811219Y-47159752D01*
X93338494Y-60440219D02*
X93338494Y-61249742D01*
X93338494Y-61249742D02*
X93290875Y-61344980D01*
X93290875Y-61344980D02*
X93243256Y-61392600D01*
X93243256Y-61392600D02*
X93148018Y-61440219D01*
X93148018Y-61440219D02*
X92957542Y-61440219D01*
X92957542Y-61440219D02*
X92862304Y-61392600D01*
X92862304Y-61392600D02*
X92814685Y-61344980D01*
X92814685Y-61344980D02*
X92767066Y-61249742D01*
X92767066Y-61249742D02*
X92767066Y-60440219D01*
X91767066Y-61440219D02*
X92338494Y-61440219D01*
X92052780Y-61440219D02*
X92052780Y-60440219D01*
X92052780Y-60440219D02*
X92148018Y-60583076D01*
X92148018Y-60583076D02*
X92243256Y-60678314D01*
X92243256Y-60678314D02*
X92338494Y-60725933D01*
X90862304Y-60440219D02*
X91338494Y-60440219D01*
X91338494Y-60440219D02*
X91386113Y-60916409D01*
X91386113Y-60916409D02*
X91338494Y-60868790D01*
X91338494Y-60868790D02*
X91243256Y-60821171D01*
X91243256Y-60821171D02*
X91005161Y-60821171D01*
X91005161Y-60821171D02*
X90909923Y-60868790D01*
X90909923Y-60868790D02*
X90862304Y-60916409D01*
X90862304Y-60916409D02*
X90814685Y-61011647D01*
X90814685Y-61011647D02*
X90814685Y-61249742D01*
X90814685Y-61249742D02*
X90862304Y-61344980D01*
X90862304Y-61344980D02*
X90909923Y-61392600D01*
X90909923Y-61392600D02*
X91005161Y-61440219D01*
X91005161Y-61440219D02*
X91243256Y-61440219D01*
X91243256Y-61440219D02*
X91338494Y-61392600D01*
X91338494Y-61392600D02*
X91386113Y-61344980D01*
X95692799Y-57074719D02*
X95692799Y-57312814D01*
X95930894Y-57217576D02*
X95692799Y-57312814D01*
X95692799Y-57312814D02*
X95454704Y-57217576D01*
X95835656Y-57503290D02*
X95692799Y-57312814D01*
X95692799Y-57312814D02*
X95549942Y-57503290D01*
X95692799Y-57074719D02*
X95692799Y-57312814D01*
X95930894Y-57217576D02*
X95692799Y-57312814D01*
X95692799Y-57312814D02*
X95454704Y-57217576D01*
X95835656Y-57503290D02*
X95692799Y-57312814D01*
X95692799Y-57312814D02*
X95549942Y-57503290D01*
X129801857Y-53801180D02*
X129849476Y-53848800D01*
X129849476Y-53848800D02*
X129992333Y-53896419D01*
X129992333Y-53896419D02*
X130087571Y-53896419D01*
X130087571Y-53896419D02*
X130230428Y-53848800D01*
X130230428Y-53848800D02*
X130325666Y-53753561D01*
X130325666Y-53753561D02*
X130373285Y-53658323D01*
X130373285Y-53658323D02*
X130420904Y-53467847D01*
X130420904Y-53467847D02*
X130420904Y-53324990D01*
X130420904Y-53324990D02*
X130373285Y-53134514D01*
X130373285Y-53134514D02*
X130325666Y-53039276D01*
X130325666Y-53039276D02*
X130230428Y-52944038D01*
X130230428Y-52944038D02*
X130087571Y-52896419D01*
X130087571Y-52896419D02*
X129992333Y-52896419D01*
X129992333Y-52896419D02*
X129849476Y-52944038D01*
X129849476Y-52944038D02*
X129801857Y-52991657D01*
X128944714Y-53229752D02*
X128944714Y-53896419D01*
X129182809Y-52848800D02*
X129420904Y-53563085D01*
X129420904Y-53563085D02*
X128801857Y-53563085D01*
X128373285Y-53896419D02*
X128182809Y-53896419D01*
X128182809Y-53896419D02*
X128087571Y-53848800D01*
X128087571Y-53848800D02*
X128039952Y-53801180D01*
X128039952Y-53801180D02*
X127944714Y-53658323D01*
X127944714Y-53658323D02*
X127897095Y-53467847D01*
X127897095Y-53467847D02*
X127897095Y-53086895D01*
X127897095Y-53086895D02*
X127944714Y-52991657D01*
X127944714Y-52991657D02*
X127992333Y-52944038D01*
X127992333Y-52944038D02*
X128087571Y-52896419D01*
X128087571Y-52896419D02*
X128278047Y-52896419D01*
X128278047Y-52896419D02*
X128373285Y-52944038D01*
X128373285Y-52944038D02*
X128420904Y-52991657D01*
X128420904Y-52991657D02*
X128468523Y-53086895D01*
X128468523Y-53086895D02*
X128468523Y-53324990D01*
X128468523Y-53324990D02*
X128420904Y-53420228D01*
X128420904Y-53420228D02*
X128373285Y-53467847D01*
X128373285Y-53467847D02*
X128278047Y-53515466D01*
X128278047Y-53515466D02*
X128087571Y-53515466D01*
X128087571Y-53515466D02*
X127992333Y-53467847D01*
X127992333Y-53467847D02*
X127944714Y-53420228D01*
X127944714Y-53420228D02*
X127897095Y-53324990D01*
X104935257Y-51889819D02*
X105268590Y-51413628D01*
X105506685Y-51889819D02*
X105506685Y-50889819D01*
X105506685Y-50889819D02*
X105125733Y-50889819D01*
X105125733Y-50889819D02*
X105030495Y-50937438D01*
X105030495Y-50937438D02*
X104982876Y-50985057D01*
X104982876Y-50985057D02*
X104935257Y-51080295D01*
X104935257Y-51080295D02*
X104935257Y-51223152D01*
X104935257Y-51223152D02*
X104982876Y-51318390D01*
X104982876Y-51318390D02*
X105030495Y-51366009D01*
X105030495Y-51366009D02*
X105125733Y-51413628D01*
X105125733Y-51413628D02*
X105506685Y-51413628D01*
X104601923Y-50889819D02*
X103982876Y-50889819D01*
X103982876Y-50889819D02*
X104316209Y-51270771D01*
X104316209Y-51270771D02*
X104173352Y-51270771D01*
X104173352Y-51270771D02*
X104078114Y-51318390D01*
X104078114Y-51318390D02*
X104030495Y-51366009D01*
X104030495Y-51366009D02*
X103982876Y-51461247D01*
X103982876Y-51461247D02*
X103982876Y-51699342D01*
X103982876Y-51699342D02*
X104030495Y-51794580D01*
X104030495Y-51794580D02*
X104078114Y-51842200D01*
X104078114Y-51842200D02*
X104173352Y-51889819D01*
X104173352Y-51889819D02*
X104459066Y-51889819D01*
X104459066Y-51889819D02*
X104554304Y-51842200D01*
X104554304Y-51842200D02*
X104601923Y-51794580D01*
X103506685Y-51889819D02*
X103316209Y-51889819D01*
X103316209Y-51889819D02*
X103220971Y-51842200D01*
X103220971Y-51842200D02*
X103173352Y-51794580D01*
X103173352Y-51794580D02*
X103078114Y-51651723D01*
X103078114Y-51651723D02*
X103030495Y-51461247D01*
X103030495Y-51461247D02*
X103030495Y-51080295D01*
X103030495Y-51080295D02*
X103078114Y-50985057D01*
X103078114Y-50985057D02*
X103125733Y-50937438D01*
X103125733Y-50937438D02*
X103220971Y-50889819D01*
X103220971Y-50889819D02*
X103411447Y-50889819D01*
X103411447Y-50889819D02*
X103506685Y-50937438D01*
X103506685Y-50937438D02*
X103554304Y-50985057D01*
X103554304Y-50985057D02*
X103601923Y-51080295D01*
X103601923Y-51080295D02*
X103601923Y-51318390D01*
X103601923Y-51318390D02*
X103554304Y-51413628D01*
X103554304Y-51413628D02*
X103506685Y-51461247D01*
X103506685Y-51461247D02*
X103411447Y-51508866D01*
X103411447Y-51508866D02*
X103220971Y-51508866D01*
X103220971Y-51508866D02*
X103125733Y-51461247D01*
X103125733Y-51461247D02*
X103078114Y-51413628D01*
X103078114Y-51413628D02*
X103030495Y-51318390D01*
X100109257Y-50086419D02*
X100442590Y-49610228D01*
X100680685Y-50086419D02*
X100680685Y-49086419D01*
X100680685Y-49086419D02*
X100299733Y-49086419D01*
X100299733Y-49086419D02*
X100204495Y-49134038D01*
X100204495Y-49134038D02*
X100156876Y-49181657D01*
X100156876Y-49181657D02*
X100109257Y-49276895D01*
X100109257Y-49276895D02*
X100109257Y-49419752D01*
X100109257Y-49419752D02*
X100156876Y-49514990D01*
X100156876Y-49514990D02*
X100204495Y-49562609D01*
X100204495Y-49562609D02*
X100299733Y-49610228D01*
X100299733Y-49610228D02*
X100680685Y-49610228D01*
X99156876Y-50086419D02*
X99728304Y-50086419D01*
X99442590Y-50086419D02*
X99442590Y-49086419D01*
X99442590Y-49086419D02*
X99537828Y-49229276D01*
X99537828Y-49229276D02*
X99633066Y-49324514D01*
X99633066Y-49324514D02*
X99728304Y-49372133D01*
X98299733Y-49419752D02*
X98299733Y-50086419D01*
X98537828Y-49038800D02*
X98775923Y-49753085D01*
X98775923Y-49753085D02*
X98156876Y-49753085D01*
X79230457Y-76527819D02*
X79563790Y-76051628D01*
X79801885Y-76527819D02*
X79801885Y-75527819D01*
X79801885Y-75527819D02*
X79420933Y-75527819D01*
X79420933Y-75527819D02*
X79325695Y-75575438D01*
X79325695Y-75575438D02*
X79278076Y-75623057D01*
X79278076Y-75623057D02*
X79230457Y-75718295D01*
X79230457Y-75718295D02*
X79230457Y-75861152D01*
X79230457Y-75861152D02*
X79278076Y-75956390D01*
X79278076Y-75956390D02*
X79325695Y-76004009D01*
X79325695Y-76004009D02*
X79420933Y-76051628D01*
X79420933Y-76051628D02*
X79801885Y-76051628D01*
X78325695Y-75527819D02*
X78801885Y-75527819D01*
X78801885Y-75527819D02*
X78849504Y-76004009D01*
X78849504Y-76004009D02*
X78801885Y-75956390D01*
X78801885Y-75956390D02*
X78706647Y-75908771D01*
X78706647Y-75908771D02*
X78468552Y-75908771D01*
X78468552Y-75908771D02*
X78373314Y-75956390D01*
X78373314Y-75956390D02*
X78325695Y-76004009D01*
X78325695Y-76004009D02*
X78278076Y-76099247D01*
X78278076Y-76099247D02*
X78278076Y-76337342D01*
X78278076Y-76337342D02*
X78325695Y-76432580D01*
X78325695Y-76432580D02*
X78373314Y-76480200D01*
X78373314Y-76480200D02*
X78468552Y-76527819D01*
X78468552Y-76527819D02*
X78706647Y-76527819D01*
X78706647Y-76527819D02*
X78801885Y-76480200D01*
X78801885Y-76480200D02*
X78849504Y-76432580D01*
X77944742Y-75527819D02*
X77325695Y-75527819D01*
X77325695Y-75527819D02*
X77659028Y-75908771D01*
X77659028Y-75908771D02*
X77516171Y-75908771D01*
X77516171Y-75908771D02*
X77420933Y-75956390D01*
X77420933Y-75956390D02*
X77373314Y-76004009D01*
X77373314Y-76004009D02*
X77325695Y-76099247D01*
X77325695Y-76099247D02*
X77325695Y-76337342D01*
X77325695Y-76337342D02*
X77373314Y-76432580D01*
X77373314Y-76432580D02*
X77420933Y-76480200D01*
X77420933Y-76480200D02*
X77516171Y-76527819D01*
X77516171Y-76527819D02*
X77801885Y-76527819D01*
X77801885Y-76527819D02*
X77897123Y-76480200D01*
X77897123Y-76480200D02*
X77944742Y-76432580D01*
X111310657Y-44523819D02*
X111643990Y-44047628D01*
X111882085Y-44523819D02*
X111882085Y-43523819D01*
X111882085Y-43523819D02*
X111501133Y-43523819D01*
X111501133Y-43523819D02*
X111405895Y-43571438D01*
X111405895Y-43571438D02*
X111358276Y-43619057D01*
X111358276Y-43619057D02*
X111310657Y-43714295D01*
X111310657Y-43714295D02*
X111310657Y-43857152D01*
X111310657Y-43857152D02*
X111358276Y-43952390D01*
X111358276Y-43952390D02*
X111405895Y-44000009D01*
X111405895Y-44000009D02*
X111501133Y-44047628D01*
X111501133Y-44047628D02*
X111882085Y-44047628D01*
X110453514Y-43857152D02*
X110453514Y-44523819D01*
X110691609Y-43476200D02*
X110929704Y-44190485D01*
X110929704Y-44190485D02*
X110310657Y-44190485D01*
X109977323Y-43619057D02*
X109929704Y-43571438D01*
X109929704Y-43571438D02*
X109834466Y-43523819D01*
X109834466Y-43523819D02*
X109596371Y-43523819D01*
X109596371Y-43523819D02*
X109501133Y-43571438D01*
X109501133Y-43571438D02*
X109453514Y-43619057D01*
X109453514Y-43619057D02*
X109405895Y-43714295D01*
X109405895Y-43714295D02*
X109405895Y-43809533D01*
X109405895Y-43809533D02*
X109453514Y-43952390D01*
X109453514Y-43952390D02*
X110024942Y-44523819D01*
X110024942Y-44523819D02*
X109405895Y-44523819D01*
X100287057Y-46301819D02*
X100620390Y-45825628D01*
X100858485Y-46301819D02*
X100858485Y-45301819D01*
X100858485Y-45301819D02*
X100477533Y-45301819D01*
X100477533Y-45301819D02*
X100382295Y-45349438D01*
X100382295Y-45349438D02*
X100334676Y-45397057D01*
X100334676Y-45397057D02*
X100287057Y-45492295D01*
X100287057Y-45492295D02*
X100287057Y-45635152D01*
X100287057Y-45635152D02*
X100334676Y-45730390D01*
X100334676Y-45730390D02*
X100382295Y-45778009D01*
X100382295Y-45778009D02*
X100477533Y-45825628D01*
X100477533Y-45825628D02*
X100858485Y-45825628D01*
X99334676Y-46301819D02*
X99906104Y-46301819D01*
X99620390Y-46301819D02*
X99620390Y-45301819D01*
X99620390Y-45301819D02*
X99715628Y-45444676D01*
X99715628Y-45444676D02*
X99810866Y-45539914D01*
X99810866Y-45539914D02*
X99906104Y-45587533D01*
X98953723Y-45397057D02*
X98906104Y-45349438D01*
X98906104Y-45349438D02*
X98810866Y-45301819D01*
X98810866Y-45301819D02*
X98572771Y-45301819D01*
X98572771Y-45301819D02*
X98477533Y-45349438D01*
X98477533Y-45349438D02*
X98429914Y-45397057D01*
X98429914Y-45397057D02*
X98382295Y-45492295D01*
X98382295Y-45492295D02*
X98382295Y-45587533D01*
X98382295Y-45587533D02*
X98429914Y-45730390D01*
X98429914Y-45730390D02*
X99001342Y-46301819D01*
X99001342Y-46301819D02*
X98382295Y-46301819D01*
X131656057Y-38205580D02*
X131703676Y-38253200D01*
X131703676Y-38253200D02*
X131846533Y-38300819D01*
X131846533Y-38300819D02*
X131941771Y-38300819D01*
X131941771Y-38300819D02*
X132084628Y-38253200D01*
X132084628Y-38253200D02*
X132179866Y-38157961D01*
X132179866Y-38157961D02*
X132227485Y-38062723D01*
X132227485Y-38062723D02*
X132275104Y-37872247D01*
X132275104Y-37872247D02*
X132275104Y-37729390D01*
X132275104Y-37729390D02*
X132227485Y-37538914D01*
X132227485Y-37538914D02*
X132179866Y-37443676D01*
X132179866Y-37443676D02*
X132084628Y-37348438D01*
X132084628Y-37348438D02*
X131941771Y-37300819D01*
X131941771Y-37300819D02*
X131846533Y-37300819D01*
X131846533Y-37300819D02*
X131703676Y-37348438D01*
X131703676Y-37348438D02*
X131656057Y-37396057D01*
X130751295Y-37300819D02*
X131227485Y-37300819D01*
X131227485Y-37300819D02*
X131275104Y-37777009D01*
X131275104Y-37777009D02*
X131227485Y-37729390D01*
X131227485Y-37729390D02*
X131132247Y-37681771D01*
X131132247Y-37681771D02*
X130894152Y-37681771D01*
X130894152Y-37681771D02*
X130798914Y-37729390D01*
X130798914Y-37729390D02*
X130751295Y-37777009D01*
X130751295Y-37777009D02*
X130703676Y-37872247D01*
X130703676Y-37872247D02*
X130703676Y-38110342D01*
X130703676Y-38110342D02*
X130751295Y-38205580D01*
X130751295Y-38205580D02*
X130798914Y-38253200D01*
X130798914Y-38253200D02*
X130894152Y-38300819D01*
X130894152Y-38300819D02*
X131132247Y-38300819D01*
X131132247Y-38300819D02*
X131227485Y-38253200D01*
X131227485Y-38253200D02*
X131275104Y-38205580D01*
X130084628Y-37300819D02*
X129989390Y-37300819D01*
X129989390Y-37300819D02*
X129894152Y-37348438D01*
X129894152Y-37348438D02*
X129846533Y-37396057D01*
X129846533Y-37396057D02*
X129798914Y-37491295D01*
X129798914Y-37491295D02*
X129751295Y-37681771D01*
X129751295Y-37681771D02*
X129751295Y-37919866D01*
X129751295Y-37919866D02*
X129798914Y-38110342D01*
X129798914Y-38110342D02*
X129846533Y-38205580D01*
X129846533Y-38205580D02*
X129894152Y-38253200D01*
X129894152Y-38253200D02*
X129989390Y-38300819D01*
X129989390Y-38300819D02*
X130084628Y-38300819D01*
X130084628Y-38300819D02*
X130179866Y-38253200D01*
X130179866Y-38253200D02*
X130227485Y-38205580D01*
X130227485Y-38205580D02*
X130275104Y-38110342D01*
X130275104Y-38110342D02*
X130322723Y-37919866D01*
X130322723Y-37919866D02*
X130322723Y-37681771D01*
X130322723Y-37681771D02*
X130275104Y-37491295D01*
X130275104Y-37491295D02*
X130227485Y-37396057D01*
X130227485Y-37396057D02*
X130179866Y-37348438D01*
X130179866Y-37348438D02*
X130084628Y-37300819D01*
X115396292Y-44569300D02*
X115631994Y-45747811D01*
X114924888Y-45040704D02*
X116103399Y-45276406D01*
X114992231Y-46387574D02*
X115396292Y-45983513D01*
X115194262Y-46185544D02*
X114487155Y-45478437D01*
X114487155Y-45478437D02*
X114655514Y-45512109D01*
X114655514Y-45512109D02*
X114790201Y-45512109D01*
X114790201Y-45512109D02*
X114891216Y-45478437D01*
X89365057Y-76400819D02*
X89698390Y-75924628D01*
X89936485Y-76400819D02*
X89936485Y-75400819D01*
X89936485Y-75400819D02*
X89555533Y-75400819D01*
X89555533Y-75400819D02*
X89460295Y-75448438D01*
X89460295Y-75448438D02*
X89412676Y-75496057D01*
X89412676Y-75496057D02*
X89365057Y-75591295D01*
X89365057Y-75591295D02*
X89365057Y-75734152D01*
X89365057Y-75734152D02*
X89412676Y-75829390D01*
X89412676Y-75829390D02*
X89460295Y-75877009D01*
X89460295Y-75877009D02*
X89555533Y-75924628D01*
X89555533Y-75924628D02*
X89936485Y-75924628D01*
X88460295Y-75400819D02*
X88936485Y-75400819D01*
X88936485Y-75400819D02*
X88984104Y-75877009D01*
X88984104Y-75877009D02*
X88936485Y-75829390D01*
X88936485Y-75829390D02*
X88841247Y-75781771D01*
X88841247Y-75781771D02*
X88603152Y-75781771D01*
X88603152Y-75781771D02*
X88507914Y-75829390D01*
X88507914Y-75829390D02*
X88460295Y-75877009D01*
X88460295Y-75877009D02*
X88412676Y-75972247D01*
X88412676Y-75972247D02*
X88412676Y-76210342D01*
X88412676Y-76210342D02*
X88460295Y-76305580D01*
X88460295Y-76305580D02*
X88507914Y-76353200D01*
X88507914Y-76353200D02*
X88603152Y-76400819D01*
X88603152Y-76400819D02*
X88841247Y-76400819D01*
X88841247Y-76400819D02*
X88936485Y-76353200D01*
X88936485Y-76353200D02*
X88984104Y-76305580D01*
X87555533Y-75734152D02*
X87555533Y-76400819D01*
X87793628Y-75353200D02*
X88031723Y-76067485D01*
X88031723Y-76067485D02*
X87412676Y-76067485D01*
X70315057Y-46759019D02*
X70648390Y-46282828D01*
X70886485Y-46759019D02*
X70886485Y-45759019D01*
X70886485Y-45759019D02*
X70505533Y-45759019D01*
X70505533Y-45759019D02*
X70410295Y-45806638D01*
X70410295Y-45806638D02*
X70362676Y-45854257D01*
X70362676Y-45854257D02*
X70315057Y-45949495D01*
X70315057Y-45949495D02*
X70315057Y-46092352D01*
X70315057Y-46092352D02*
X70362676Y-46187590D01*
X70362676Y-46187590D02*
X70410295Y-46235209D01*
X70410295Y-46235209D02*
X70505533Y-46282828D01*
X70505533Y-46282828D02*
X70886485Y-46282828D01*
X69457914Y-46092352D02*
X69457914Y-46759019D01*
X69696009Y-45711400D02*
X69934104Y-46425685D01*
X69934104Y-46425685D02*
X69315057Y-46425685D01*
X68886485Y-46759019D02*
X68696009Y-46759019D01*
X68696009Y-46759019D02*
X68600771Y-46711400D01*
X68600771Y-46711400D02*
X68553152Y-46663780D01*
X68553152Y-46663780D02*
X68457914Y-46520923D01*
X68457914Y-46520923D02*
X68410295Y-46330447D01*
X68410295Y-46330447D02*
X68410295Y-45949495D01*
X68410295Y-45949495D02*
X68457914Y-45854257D01*
X68457914Y-45854257D02*
X68505533Y-45806638D01*
X68505533Y-45806638D02*
X68600771Y-45759019D01*
X68600771Y-45759019D02*
X68791247Y-45759019D01*
X68791247Y-45759019D02*
X68886485Y-45806638D01*
X68886485Y-45806638D02*
X68934104Y-45854257D01*
X68934104Y-45854257D02*
X68981723Y-45949495D01*
X68981723Y-45949495D02*
X68981723Y-46187590D01*
X68981723Y-46187590D02*
X68934104Y-46282828D01*
X68934104Y-46282828D02*
X68886485Y-46330447D01*
X68886485Y-46330447D02*
X68791247Y-46378066D01*
X68791247Y-46378066D02*
X68600771Y-46378066D01*
X68600771Y-46378066D02*
X68505533Y-46330447D01*
X68505533Y-46330447D02*
X68457914Y-46282828D01*
X68457914Y-46282828D02*
X68410295Y-46187590D01*
X96889866Y-46276419D02*
X97223199Y-45800228D01*
X97461294Y-46276419D02*
X97461294Y-45276419D01*
X97461294Y-45276419D02*
X97080342Y-45276419D01*
X97080342Y-45276419D02*
X96985104Y-45324038D01*
X96985104Y-45324038D02*
X96937485Y-45371657D01*
X96937485Y-45371657D02*
X96889866Y-45466895D01*
X96889866Y-45466895D02*
X96889866Y-45609752D01*
X96889866Y-45609752D02*
X96937485Y-45704990D01*
X96937485Y-45704990D02*
X96985104Y-45752609D01*
X96985104Y-45752609D02*
X97080342Y-45800228D01*
X97080342Y-45800228D02*
X97461294Y-45800228D01*
X96032723Y-45276419D02*
X96223199Y-45276419D01*
X96223199Y-45276419D02*
X96318437Y-45324038D01*
X96318437Y-45324038D02*
X96366056Y-45371657D01*
X96366056Y-45371657D02*
X96461294Y-45514514D01*
X96461294Y-45514514D02*
X96508913Y-45704990D01*
X96508913Y-45704990D02*
X96508913Y-46085942D01*
X96508913Y-46085942D02*
X96461294Y-46181180D01*
X96461294Y-46181180D02*
X96413675Y-46228800D01*
X96413675Y-46228800D02*
X96318437Y-46276419D01*
X96318437Y-46276419D02*
X96127961Y-46276419D01*
X96127961Y-46276419D02*
X96032723Y-46228800D01*
X96032723Y-46228800D02*
X95985104Y-46181180D01*
X95985104Y-46181180D02*
X95937485Y-46085942D01*
X95937485Y-46085942D02*
X95937485Y-45847847D01*
X95937485Y-45847847D02*
X95985104Y-45752609D01*
X95985104Y-45752609D02*
X96032723Y-45704990D01*
X96032723Y-45704990D02*
X96127961Y-45657371D01*
X96127961Y-45657371D02*
X96318437Y-45657371D01*
X96318437Y-45657371D02*
X96413675Y-45704990D01*
X96413675Y-45704990D02*
X96461294Y-45752609D01*
X96461294Y-45752609D02*
X96508913Y-45847847D01*
X97823257Y-47597219D02*
X98156590Y-47121028D01*
X98394685Y-47597219D02*
X98394685Y-46597219D01*
X98394685Y-46597219D02*
X98013733Y-46597219D01*
X98013733Y-46597219D02*
X97918495Y-46644838D01*
X97918495Y-46644838D02*
X97870876Y-46692457D01*
X97870876Y-46692457D02*
X97823257Y-46787695D01*
X97823257Y-46787695D02*
X97823257Y-46930552D01*
X97823257Y-46930552D02*
X97870876Y-47025790D01*
X97870876Y-47025790D02*
X97918495Y-47073409D01*
X97918495Y-47073409D02*
X98013733Y-47121028D01*
X98013733Y-47121028D02*
X98394685Y-47121028D01*
X96870876Y-47597219D02*
X97442304Y-47597219D01*
X97156590Y-47597219D02*
X97156590Y-46597219D01*
X97156590Y-46597219D02*
X97251828Y-46740076D01*
X97251828Y-46740076D02*
X97347066Y-46835314D01*
X97347066Y-46835314D02*
X97442304Y-46882933D01*
X96537542Y-46597219D02*
X95918495Y-46597219D01*
X95918495Y-46597219D02*
X96251828Y-46978171D01*
X96251828Y-46978171D02*
X96108971Y-46978171D01*
X96108971Y-46978171D02*
X96013733Y-47025790D01*
X96013733Y-47025790D02*
X95966114Y-47073409D01*
X95966114Y-47073409D02*
X95918495Y-47168647D01*
X95918495Y-47168647D02*
X95918495Y-47406742D01*
X95918495Y-47406742D02*
X95966114Y-47501980D01*
X95966114Y-47501980D02*
X96013733Y-47549600D01*
X96013733Y-47549600D02*
X96108971Y-47597219D01*
X96108971Y-47597219D02*
X96394685Y-47597219D01*
X96394685Y-47597219D02*
X96489923Y-47549600D01*
X96489923Y-47549600D02*
X96537542Y-47501980D01*
X113434019Y-48963342D02*
X112957828Y-48630009D01*
X113434019Y-48391914D02*
X112434019Y-48391914D01*
X112434019Y-48391914D02*
X112434019Y-48772866D01*
X112434019Y-48772866D02*
X112481638Y-48868104D01*
X112481638Y-48868104D02*
X112529257Y-48915723D01*
X112529257Y-48915723D02*
X112624495Y-48963342D01*
X112624495Y-48963342D02*
X112767352Y-48963342D01*
X112767352Y-48963342D02*
X112862590Y-48915723D01*
X112862590Y-48915723D02*
X112910209Y-48868104D01*
X112910209Y-48868104D02*
X112957828Y-48772866D01*
X112957828Y-48772866D02*
X112957828Y-48391914D01*
X112767352Y-49820485D02*
X113434019Y-49820485D01*
X112386400Y-49582390D02*
X113100685Y-49344295D01*
X113100685Y-49344295D02*
X113100685Y-49963342D01*
X112434019Y-50820485D02*
X112434019Y-50344295D01*
X112434019Y-50344295D02*
X112910209Y-50296676D01*
X112910209Y-50296676D02*
X112862590Y-50344295D01*
X112862590Y-50344295D02*
X112814971Y-50439533D01*
X112814971Y-50439533D02*
X112814971Y-50677628D01*
X112814971Y-50677628D02*
X112862590Y-50772866D01*
X112862590Y-50772866D02*
X112910209Y-50820485D01*
X112910209Y-50820485D02*
X113005447Y-50868104D01*
X113005447Y-50868104D02*
X113243542Y-50868104D01*
X113243542Y-50868104D02*
X113338780Y-50820485D01*
X113338780Y-50820485D02*
X113386400Y-50772866D01*
X113386400Y-50772866D02*
X113434019Y-50677628D01*
X113434019Y-50677628D02*
X113434019Y-50439533D01*
X113434019Y-50439533D02*
X113386400Y-50344295D01*
X113386400Y-50344295D02*
X113338780Y-50296676D01*
X91784466Y-53490019D02*
X92117799Y-53013828D01*
X92355894Y-53490019D02*
X92355894Y-52490019D01*
X92355894Y-52490019D02*
X91974942Y-52490019D01*
X91974942Y-52490019D02*
X91879704Y-52537638D01*
X91879704Y-52537638D02*
X91832085Y-52585257D01*
X91832085Y-52585257D02*
X91784466Y-52680495D01*
X91784466Y-52680495D02*
X91784466Y-52823352D01*
X91784466Y-52823352D02*
X91832085Y-52918590D01*
X91832085Y-52918590D02*
X91879704Y-52966209D01*
X91879704Y-52966209D02*
X91974942Y-53013828D01*
X91974942Y-53013828D02*
X92355894Y-53013828D01*
X91403513Y-52585257D02*
X91355894Y-52537638D01*
X91355894Y-52537638D02*
X91260656Y-52490019D01*
X91260656Y-52490019D02*
X91022561Y-52490019D01*
X91022561Y-52490019D02*
X90927323Y-52537638D01*
X90927323Y-52537638D02*
X90879704Y-52585257D01*
X90879704Y-52585257D02*
X90832085Y-52680495D01*
X90832085Y-52680495D02*
X90832085Y-52775733D01*
X90832085Y-52775733D02*
X90879704Y-52918590D01*
X90879704Y-52918590D02*
X91451132Y-53490019D01*
X91451132Y-53490019D02*
X90832085Y-53490019D01*
X121227515Y-50675681D02*
X121294859Y-50675681D01*
X121294859Y-50675681D02*
X121429546Y-50608337D01*
X121429546Y-50608337D02*
X121496889Y-50540994D01*
X121496889Y-50540994D02*
X121564233Y-50406307D01*
X121564233Y-50406307D02*
X121564233Y-50271620D01*
X121564233Y-50271620D02*
X121530561Y-50170605D01*
X121530561Y-50170605D02*
X121429546Y-50002246D01*
X121429546Y-50002246D02*
X121328531Y-49901231D01*
X121328531Y-49901231D02*
X121160172Y-49800215D01*
X121160172Y-49800215D02*
X121059157Y-49766544D01*
X121059157Y-49766544D02*
X120924470Y-49766544D01*
X120924470Y-49766544D02*
X120789783Y-49833887D01*
X120789783Y-49833887D02*
X120722439Y-49901231D01*
X120722439Y-49901231D02*
X120655096Y-50035918D01*
X120655096Y-50035918D02*
X120655096Y-50103261D01*
X119947989Y-50675681D02*
X120284706Y-50338963D01*
X120284706Y-50338963D02*
X120655096Y-50642009D01*
X120655096Y-50642009D02*
X120587752Y-50642009D01*
X120587752Y-50642009D02*
X120486737Y-50675681D01*
X120486737Y-50675681D02*
X120318378Y-50844040D01*
X120318378Y-50844040D02*
X120284706Y-50945055D01*
X120284706Y-50945055D02*
X120284706Y-51012398D01*
X120284706Y-51012398D02*
X120318378Y-51113414D01*
X120318378Y-51113414D02*
X120486737Y-51281772D01*
X120486737Y-51281772D02*
X120587752Y-51315444D01*
X120587752Y-51315444D02*
X120655096Y-51315444D01*
X120655096Y-51315444D02*
X120756111Y-51281772D01*
X120756111Y-51281772D02*
X120924470Y-51113414D01*
X120924470Y-51113414D02*
X120958141Y-51012398D01*
X120958141Y-51012398D02*
X120958141Y-50945055D01*
X119712286Y-51046070D02*
X119644943Y-51046070D01*
X119644943Y-51046070D02*
X119543928Y-51079742D01*
X119543928Y-51079742D02*
X119375569Y-51248101D01*
X119375569Y-51248101D02*
X119341897Y-51349116D01*
X119341897Y-51349116D02*
X119341897Y-51416460D01*
X119341897Y-51416460D02*
X119375569Y-51517475D01*
X119375569Y-51517475D02*
X119442912Y-51584818D01*
X119442912Y-51584818D02*
X119577599Y-51652162D01*
X119577599Y-51652162D02*
X120385721Y-51652162D01*
X120385721Y-51652162D02*
X119947989Y-52089895D01*
X96940666Y-50086419D02*
X97273999Y-49610228D01*
X97512094Y-50086419D02*
X97512094Y-49086419D01*
X97512094Y-49086419D02*
X97131142Y-49086419D01*
X97131142Y-49086419D02*
X97035904Y-49134038D01*
X97035904Y-49134038D02*
X96988285Y-49181657D01*
X96988285Y-49181657D02*
X96940666Y-49276895D01*
X96940666Y-49276895D02*
X96940666Y-49419752D01*
X96940666Y-49419752D02*
X96988285Y-49514990D01*
X96988285Y-49514990D02*
X97035904Y-49562609D01*
X97035904Y-49562609D02*
X97131142Y-49610228D01*
X97131142Y-49610228D02*
X97512094Y-49610228D01*
X96369237Y-49514990D02*
X96464475Y-49467371D01*
X96464475Y-49467371D02*
X96512094Y-49419752D01*
X96512094Y-49419752D02*
X96559713Y-49324514D01*
X96559713Y-49324514D02*
X96559713Y-49276895D01*
X96559713Y-49276895D02*
X96512094Y-49181657D01*
X96512094Y-49181657D02*
X96464475Y-49134038D01*
X96464475Y-49134038D02*
X96369237Y-49086419D01*
X96369237Y-49086419D02*
X96178761Y-49086419D01*
X96178761Y-49086419D02*
X96083523Y-49134038D01*
X96083523Y-49134038D02*
X96035904Y-49181657D01*
X96035904Y-49181657D02*
X95988285Y-49276895D01*
X95988285Y-49276895D02*
X95988285Y-49324514D01*
X95988285Y-49324514D02*
X96035904Y-49419752D01*
X96035904Y-49419752D02*
X96083523Y-49467371D01*
X96083523Y-49467371D02*
X96178761Y-49514990D01*
X96178761Y-49514990D02*
X96369237Y-49514990D01*
X96369237Y-49514990D02*
X96464475Y-49562609D01*
X96464475Y-49562609D02*
X96512094Y-49610228D01*
X96512094Y-49610228D02*
X96559713Y-49705466D01*
X96559713Y-49705466D02*
X96559713Y-49895942D01*
X96559713Y-49895942D02*
X96512094Y-49991180D01*
X96512094Y-49991180D02*
X96464475Y-50038800D01*
X96464475Y-50038800D02*
X96369237Y-50086419D01*
X96369237Y-50086419D02*
X96178761Y-50086419D01*
X96178761Y-50086419D02*
X96083523Y-50038800D01*
X96083523Y-50038800D02*
X96035904Y-49991180D01*
X96035904Y-49991180D02*
X95988285Y-49895942D01*
X95988285Y-49895942D02*
X95988285Y-49705466D01*
X95988285Y-49705466D02*
X96035904Y-49610228D01*
X96035904Y-49610228D02*
X96083523Y-49562609D01*
X96083523Y-49562609D02*
X96178761Y-49514990D01*
D11*
%TO.C,C62*%
X106371621Y-81307200D02*
X106603291Y-81307200D01*
X106371621Y-82027200D02*
X106603291Y-82027200D01*
%TO.C,R30*%
X95914835Y-80712200D02*
X96250077Y-80712200D01*
X95914835Y-81472200D02*
X96250077Y-81472200D01*
%TO.C,R25*%
X82322166Y-82546998D02*
X81986924Y-82546998D01*
X82322166Y-81786998D02*
X81986924Y-81786998D01*
%TO.C,C40*%
X82392045Y-87100333D02*
X82392045Y-86868663D01*
X83112045Y-87100333D02*
X83112045Y-86868663D01*
%TO.C,R36*%
X105219000Y-45825479D02*
X105219000Y-46160721D01*
X104459000Y-45825479D02*
X104459000Y-46160721D01*
D12*
%TO.C,U14*%
X125259400Y-64020700D02*
X125921260Y-64020700D01*
X125921260Y-68770500D02*
X125259400Y-68770500D01*
X127340740Y-64020700D02*
X128002600Y-64020700D01*
X128002600Y-68770500D02*
X127340740Y-68770500D01*
D13*
G36*
X126571501Y-63588900D02*
G01*
X126190500Y-63588900D01*
X126190500Y-63334900D01*
X126571501Y-63334900D01*
X126571501Y-63588900D01*
G37*
G36*
X127071500Y-69456300D02*
G01*
X126690499Y-69456300D01*
X126690499Y-69202300D01*
X127071500Y-69202300D01*
X127071500Y-69456300D01*
G37*
D11*
%TO.C,U11*%
X129064601Y-45360255D02*
X124764601Y-45360255D01*
X129064601Y-45160255D02*
X129064601Y-45360255D01*
X129064601Y-40160255D02*
X129064601Y-40360255D01*
X124764601Y-45360255D02*
X124764601Y-45210255D01*
X124764601Y-40310255D02*
X124764601Y-40160255D01*
X124764601Y-40160255D02*
X129064601Y-40160255D01*
%TO.C,C51*%
X131418266Y-40131255D02*
X131649936Y-40131255D01*
X131418266Y-40851255D02*
X131649936Y-40851255D01*
%TO.C,R34*%
X106309835Y-86862200D02*
X106645077Y-86862200D01*
X106309835Y-87622200D02*
X106645077Y-87622200D01*
%TO.C,R51*%
X80551400Y-61839579D02*
X80551400Y-62174821D01*
X79791400Y-61839579D02*
X79791400Y-62174821D01*
%TO.C,U10*%
X129072001Y-51019255D02*
X124772001Y-51019255D01*
X129072001Y-50819255D02*
X129072001Y-51019255D01*
X129072001Y-45819255D02*
X129072001Y-46019255D01*
X124772001Y-51019255D02*
X124772001Y-50869255D01*
X124772001Y-45969255D02*
X124772001Y-45819255D01*
X124772001Y-45819255D02*
X129072001Y-45819255D01*
%TO.C,R58*%
X84174600Y-58658779D02*
X84174600Y-58994021D01*
X83414600Y-58658779D02*
X83414600Y-58994021D01*
%TO.C,R46*%
X111304421Y-50435400D02*
X110969179Y-50435400D01*
X111304421Y-49675400D02*
X110969179Y-49675400D01*
D14*
%TO.C,U8*%
X134247000Y-47894257D02*
X132072001Y-47894257D01*
X133047000Y-50994255D02*
X132072001Y-50994255D01*
D12*
%TO.C,U12*%
X103879156Y-81393000D02*
X103879156Y-81567376D01*
X103705574Y-81393000D02*
X103879156Y-81393000D01*
X97630756Y-81393000D02*
X97994817Y-81393000D01*
X97630756Y-81757061D02*
X97630756Y-81393000D01*
X103879156Y-87479819D02*
X103879156Y-87641400D01*
X103879156Y-87641400D02*
X103704685Y-87641400D01*
X97994817Y-87641400D02*
X97630756Y-87641400D01*
X97630756Y-87641400D02*
X97630756Y-87277339D01*
D13*
G36*
X104564956Y-83082699D02*
G01*
X104310956Y-83082699D01*
X104310956Y-82701699D01*
X104564956Y-82701699D01*
X104564956Y-83082699D01*
G37*
G36*
X97198956Y-83732701D02*
G01*
X96944956Y-83732701D01*
X96944956Y-83351701D01*
X97198956Y-83351701D01*
X97198956Y-83732701D01*
G37*
G36*
X101270457Y-88327200D02*
G01*
X100889457Y-88327200D01*
X100889457Y-88073200D01*
X101270457Y-88073200D01*
X101270457Y-88327200D01*
G37*
D11*
%TO.C,R55*%
X76243400Y-53562521D02*
X76243400Y-53227279D01*
X77003400Y-53562521D02*
X77003400Y-53227279D01*
D12*
%TO.C,U6*%
X76054201Y-81449800D02*
X76054201Y-81624176D01*
X75880619Y-81449800D02*
X76054201Y-81449800D01*
X69805801Y-81449800D02*
X70169862Y-81449800D01*
X69805801Y-81813861D02*
X69805801Y-81449800D01*
X76054201Y-87536619D02*
X76054201Y-87698200D01*
X76054201Y-87698200D02*
X75879730Y-87698200D01*
X70169862Y-87698200D02*
X69805801Y-87698200D01*
X69805801Y-87698200D02*
X69805801Y-87334139D01*
D13*
G36*
X76740001Y-83139499D02*
G01*
X76486001Y-83139499D01*
X76486001Y-82758499D01*
X76740001Y-82758499D01*
X76740001Y-83139499D01*
G37*
G36*
X69374001Y-83789501D02*
G01*
X69120001Y-83789501D01*
X69120001Y-83408501D01*
X69374001Y-83408501D01*
X69374001Y-83789501D01*
G37*
G36*
X73445502Y-88384000D02*
G01*
X73064502Y-88384000D01*
X73064502Y-88130000D01*
X73445502Y-88130000D01*
X73445502Y-88384000D01*
G37*
D11*
%TO.C,C56*%
X102189956Y-79683865D02*
X102189956Y-79915535D01*
X101469956Y-79683865D02*
X101469956Y-79915535D01*
%TO.C,C60*%
X105214956Y-87158865D02*
X105214956Y-87390535D01*
X104494956Y-87158865D02*
X104494956Y-87390535D01*
%TO.C,C31*%
X68483000Y-87136935D02*
X68483000Y-86905265D01*
X69203000Y-87136935D02*
X69203000Y-86905265D01*
%TO.C,JP1*%
X79514099Y-80302000D02*
X79514099Y-79702000D01*
X78814099Y-79002000D02*
X77414099Y-79002000D01*
X77414099Y-81002000D02*
X78814099Y-81002000D01*
X76714099Y-79702000D02*
X76714099Y-80302000D01*
X79514099Y-80302000D02*
G75*
G02*
X78814099Y-81002000I-699999J-1D01*
G01*
X78814099Y-79002000D02*
G75*
G02*
X79514099Y-79702000I1J-699999D01*
G01*
X77414099Y-81002000D02*
G75*
G02*
X76714099Y-80302000I0J700000D01*
G01*
X76714099Y-79702000D02*
G75*
G02*
X77414099Y-79002000I700000J0D01*
G01*
%TO.C,C29*%
X76297000Y-79725065D02*
X76297000Y-79956735D01*
X75577000Y-79725065D02*
X75577000Y-79956735D01*
%TO.C,R40*%
X106593521Y-45750200D02*
X106258279Y-45750200D01*
X106593521Y-44990200D02*
X106258279Y-44990200D01*
%TO.C,C39*%
X88262045Y-79708663D02*
X88262045Y-79940333D01*
X87542045Y-79708663D02*
X87542045Y-79940333D01*
%TO.C,R47*%
X71955800Y-68537179D02*
X71955800Y-68872421D01*
X71195800Y-68537179D02*
X71195800Y-68872421D01*
%TO.C,C34*%
X78525665Y-83401200D02*
X78757335Y-83401200D01*
X78525665Y-84121200D02*
X78757335Y-84121200D01*
%TO.C,C27*%
X74366600Y-79725065D02*
X74366600Y-79956735D01*
X73646600Y-79725065D02*
X73646600Y-79956735D01*
%TO.C,C54*%
X104114956Y-79693865D02*
X104114956Y-79925535D01*
X103394956Y-79693865D02*
X103394956Y-79925535D01*
%TO.C,R22*%
X85657045Y-79601877D02*
X85657045Y-79937119D01*
X84897045Y-79601877D02*
X84897045Y-79937119D01*
%TO.C,C43*%
X91337045Y-87176163D02*
X91337045Y-87407833D01*
X90617045Y-87176163D02*
X90617045Y-87407833D01*
%TO.C,J7*%
X117746000Y-34872000D02*
X117746000Y-40072000D01*
X66826000Y-34872000D02*
X117746000Y-34872000D01*
X66826000Y-34872000D02*
X66826000Y-37472000D01*
X69426000Y-37472000D02*
X69426000Y-40072000D01*
X66826000Y-37472000D02*
X69426000Y-37472000D01*
X66826000Y-38742000D02*
X66826000Y-40072000D01*
X69426000Y-40072000D02*
X117746000Y-40072000D01*
X66826000Y-40072000D02*
X68156000Y-40072000D01*
%TO.C,R26*%
X91456924Y-85286998D02*
X91792166Y-85286998D01*
X91456924Y-86046998D02*
X91792166Y-86046998D01*
%TO.C,R50*%
X76943400Y-61840779D02*
X76943400Y-62176021D01*
X76183400Y-61840779D02*
X76183400Y-62176021D01*
%TO.C,R23*%
X82068400Y-84927421D02*
X82068400Y-84592179D01*
X82828400Y-84927421D02*
X82828400Y-84592179D01*
%TO.C,R41*%
X106593521Y-46715400D02*
X106258279Y-46715400D01*
X106593521Y-45955400D02*
X106258279Y-45955400D01*
%TO.C,R17*%
X68149200Y-84952821D02*
X68149200Y-84617579D01*
X68909200Y-84952821D02*
X68909200Y-84617579D01*
%TO.C,R32*%
X105337335Y-85262200D02*
X105672577Y-85262200D01*
X105337335Y-86022200D02*
X105672577Y-86022200D01*
%TO.C,R19*%
X77547379Y-85311600D02*
X77882621Y-85311600D01*
X77547379Y-86071600D02*
X77882621Y-86071600D01*
%TO.C,R7*%
X95314500Y-46734079D02*
X95314500Y-47069321D01*
X94554500Y-46734079D02*
X94554500Y-47069321D01*
%TO.C,C41*%
X81142045Y-84865333D02*
X81142045Y-84633663D01*
X81862045Y-84865333D02*
X81862045Y-84633663D01*
%TO.C,R18*%
X68071380Y-80790400D02*
X68406622Y-80790400D01*
X68071380Y-81550400D02*
X68406622Y-81550400D01*
%TO.C,L3*%
X104519956Y-84119900D02*
X104519956Y-83919500D01*
X105239956Y-84119900D02*
X105239956Y-83919500D01*
%TO.C,R52*%
X84158200Y-61849979D02*
X84158200Y-62185221D01*
X83398200Y-61849979D02*
X83398200Y-62185221D01*
D14*
%TO.C,U9*%
X134216600Y-42241258D02*
X132041601Y-42241258D01*
X133016600Y-45341256D02*
X132041601Y-45341256D01*
D11*
%TO.C,R57*%
X80542400Y-58658779D02*
X80542400Y-58994021D01*
X79782400Y-58658779D02*
X79782400Y-58994021D01*
%TO.C,C48*%
X133601365Y-46790400D02*
X133833035Y-46790400D01*
X133601365Y-47510400D02*
X133833035Y-47510400D01*
%TO.C,R56*%
X76943400Y-58106979D02*
X76943400Y-58442221D01*
X76183400Y-58106979D02*
X76183400Y-58442221D01*
%TO.C,R28*%
X92431924Y-86836998D02*
X92767166Y-86836998D01*
X92431924Y-87596998D02*
X92767166Y-87596998D01*
%TO.C,R27*%
X92411924Y-84311998D02*
X92747166Y-84311998D01*
X92411924Y-85071998D02*
X92747166Y-85071998D01*
D12*
%TO.C,U13*%
X125247400Y-58051700D02*
X125909260Y-58051700D01*
X125909260Y-62801500D02*
X125247400Y-62801500D01*
X127328740Y-58051700D02*
X127990600Y-58051700D01*
X127990600Y-62801500D02*
X127328740Y-62801500D01*
D13*
G36*
X126559501Y-57619900D02*
G01*
X126178500Y-57619900D01*
X126178500Y-57365900D01*
X126559501Y-57365900D01*
X126559501Y-57619900D01*
G37*
G36*
X127059500Y-63487300D02*
G01*
X126678499Y-63487300D01*
X126678499Y-63233300D01*
X127059500Y-63233300D01*
X127059500Y-63487300D01*
G37*
D11*
%TO.C,R35*%
X105219000Y-49560479D02*
X105219000Y-49895721D01*
X104459000Y-49560479D02*
X104459000Y-49895721D01*
%TO.C,C47*%
X131423666Y-45859255D02*
X131655336Y-45859255D01*
X131423666Y-46579255D02*
X131655336Y-46579255D01*
%TO.C,C55*%
X103139956Y-79683865D02*
X103139956Y-79915535D01*
X102419956Y-79683865D02*
X102419956Y-79915535D01*
%TO.C,R43*%
X111292621Y-46684200D02*
X110957379Y-46684200D01*
X111292621Y-45924200D02*
X110957379Y-45924200D01*
%TO.C,R16*%
X68418722Y-82566400D02*
X68083480Y-82566400D01*
X68418722Y-81806400D02*
X68083480Y-81806400D01*
%TO.C,C45*%
X92443710Y-81331998D02*
X92675380Y-81331998D01*
X92443710Y-82051998D02*
X92675380Y-82051998D01*
%TO.C,C36*%
X87287045Y-79683663D02*
X87287045Y-79915333D01*
X86567045Y-79683663D02*
X86567045Y-79915333D01*
%TO.C,R44*%
X109944300Y-49565279D02*
X109944300Y-49900521D01*
X109184300Y-49565279D02*
X109184300Y-49900521D01*
%TO.C,C2*%
X90262780Y-49269555D02*
X90262780Y-49037885D01*
X90982780Y-49269555D02*
X90982780Y-49037885D01*
%TO.C,R48*%
X83643200Y-66156821D02*
X83643200Y-65821579D01*
X84403200Y-66156821D02*
X84403200Y-65821579D01*
%TO.C,C58*%
X95069956Y-84825535D02*
X95069956Y-84593865D01*
X95789956Y-84825535D02*
X95789956Y-84593865D01*
%TO.C,L2*%
X90642045Y-84144698D02*
X90642045Y-83944298D01*
X91362045Y-84144698D02*
X91362045Y-83944298D01*
D10*
%TO.C,U5*%
X101150500Y-44921200D02*
X100850500Y-44921200D01*
X101150500Y-44921200D02*
X101150500Y-50421200D01*
X95845500Y-44921200D02*
X95845500Y-43171200D01*
X95640500Y-44921200D02*
X95845500Y-44921200D01*
X95640500Y-44921200D02*
X95640500Y-50421200D01*
X101150500Y-50421200D02*
X100850500Y-50421200D01*
X95640500Y-50421200D02*
X95940500Y-50421200D01*
D11*
%TO.C,C46*%
X131418266Y-41131255D02*
X131649936Y-41131255D01*
X131418266Y-41851255D02*
X131649936Y-41851255D01*
%TO.C,D4*%
X95019956Y-78657200D02*
X97879956Y-78657200D01*
X95019956Y-80577200D02*
X95019956Y-78657200D01*
X97879956Y-80577200D02*
X95019956Y-80577200D01*
%TO.C,R38*%
X106593521Y-49485200D02*
X106258279Y-49485200D01*
X106593521Y-48725200D02*
X106258279Y-48725200D01*
%TO.C,C26*%
X73401400Y-79725065D02*
X73401400Y-79956735D01*
X72681400Y-79725065D02*
X72681400Y-79956735D01*
%TO.C,C30*%
X68075766Y-82842400D02*
X68307436Y-82842400D01*
X68075766Y-83562400D02*
X68307436Y-83562400D01*
%TO.C,C32*%
X67229400Y-84884335D02*
X67229400Y-84652665D01*
X67949400Y-84884335D02*
X67949400Y-84652665D01*
%TO.C,R21*%
X78500479Y-86835600D02*
X78835721Y-86835600D01*
X78500479Y-87595600D02*
X78835721Y-87595600D01*
%TO.C,R29*%
X96038400Y-84882321D02*
X96038400Y-84547079D01*
X96798400Y-84882321D02*
X96798400Y-84547079D01*
%TO.C,R37*%
X109932500Y-45814079D02*
X109932500Y-46149321D01*
X109172500Y-45814079D02*
X109172500Y-46149321D01*
%TO.C,JP2*%
X93402045Y-80241998D02*
X93402045Y-79641998D01*
X92702045Y-78941998D02*
X91302045Y-78941998D01*
X91302045Y-80941998D02*
X92702045Y-80941998D01*
X90602045Y-79641998D02*
X90602045Y-80241998D01*
X93402045Y-80241998D02*
G75*
G02*
X92702045Y-80941998I-699999J-1D01*
G01*
X92702045Y-78941998D02*
G75*
G02*
X93402045Y-79641998I1J-699999D01*
G01*
X91302045Y-80941998D02*
G75*
G02*
X90602045Y-80241998I0J700000D01*
G01*
X90602045Y-79641998D02*
G75*
G02*
X91302045Y-78941998I700000J0D01*
G01*
D12*
%TO.C,U15*%
X96814400Y-63334900D02*
X96152540Y-63334900D01*
X96152540Y-58585100D02*
X96814400Y-58585100D01*
X94733060Y-63334900D02*
X94071200Y-63334900D01*
X94071200Y-58585100D02*
X94733060Y-58585100D01*
D13*
G36*
X95883300Y-64020700D02*
G01*
X95502299Y-64020700D01*
X95502299Y-63766700D01*
X95883300Y-63766700D01*
X95883300Y-64020700D01*
G37*
G36*
X95383301Y-58153300D02*
G01*
X95002300Y-58153300D01*
X95002300Y-57899300D01*
X95383301Y-57899300D01*
X95383301Y-58153300D01*
G37*
D11*
%TO.C,C49*%
X131423666Y-46809255D02*
X131655336Y-46809255D01*
X131423666Y-47529255D02*
X131655336Y-47529255D01*
%TO.C,R39*%
X106593521Y-50450400D02*
X106258279Y-50450400D01*
X106593521Y-49690400D02*
X106258279Y-49690400D01*
%TO.C,R14*%
X94554500Y-51494321D02*
X94554500Y-51159079D01*
X95314500Y-51494321D02*
X95314500Y-51159079D01*
%TO.C,L1*%
X76694600Y-84179900D02*
X76694600Y-83979500D01*
X77414600Y-84179900D02*
X77414600Y-83979500D01*
%TO.C,C42*%
X82018710Y-82806998D02*
X82250380Y-82806998D01*
X82018710Y-83526998D02*
X82250380Y-83526998D01*
D12*
%TO.C,U7*%
X89955426Y-81420440D02*
X89955426Y-81594816D01*
X89781844Y-81420440D02*
X89955426Y-81420440D01*
X83707026Y-81420440D02*
X84071087Y-81420440D01*
X83707026Y-81784501D02*
X83707026Y-81420440D01*
X89955426Y-87507259D02*
X89955426Y-87668840D01*
X89955426Y-87668840D02*
X89780955Y-87668840D01*
X84071087Y-87668840D02*
X83707026Y-87668840D01*
X83707026Y-87668840D02*
X83707026Y-87304779D01*
D13*
G36*
X90641226Y-83110139D02*
G01*
X90387226Y-83110139D01*
X90387226Y-82729139D01*
X90641226Y-82729139D01*
X90641226Y-83110139D01*
G37*
G36*
X83275226Y-83760141D02*
G01*
X83021226Y-83760141D01*
X83021226Y-83379141D01*
X83275226Y-83379141D01*
X83275226Y-83760141D01*
G37*
G36*
X87346727Y-88354640D02*
G01*
X86965727Y-88354640D01*
X86965727Y-88100640D01*
X87346727Y-88100640D01*
X87346727Y-88354640D01*
G37*
D11*
%TO.C,R53*%
X76275800Y-76467021D02*
X76275800Y-76131779D01*
X77035800Y-76467021D02*
X77035800Y-76131779D01*
%TO.C,R42*%
X111292621Y-45734200D02*
X110957379Y-45734200D01*
X111292621Y-44974200D02*
X110957379Y-44974200D01*
%TO.C,C33*%
X77414600Y-87192665D02*
X77414600Y-87424335D01*
X76694600Y-87192665D02*
X76694600Y-87424335D01*
%TO.C,C38*%
X90237045Y-79708663D02*
X90237045Y-79940333D01*
X89517045Y-79708663D02*
X89517045Y-79940333D01*
%TO.C,C37*%
X89262045Y-79708663D02*
X89262045Y-79940333D01*
X88542045Y-79708663D02*
X88542045Y-79940333D01*
%TO.C,C35*%
X78546664Y-81369200D02*
X78778334Y-81369200D01*
X78546664Y-82089200D02*
X78778334Y-82089200D01*
%TO.C,R12*%
X97349621Y-42809200D02*
X97014379Y-42809200D01*
X97349621Y-42049200D02*
X97014379Y-42049200D01*
%TO.C,C59*%
X95921621Y-82782200D02*
X96153291Y-82782200D01*
X95921621Y-83502200D02*
X96153291Y-83502200D01*
%TO.C,JP3*%
X107304956Y-80242200D02*
X107304956Y-79642200D01*
X106604956Y-78942200D02*
X105204956Y-78942200D01*
X105204956Y-80942200D02*
X106604956Y-80942200D01*
X104504956Y-79642200D02*
X104504956Y-80242200D01*
X107304956Y-80242200D02*
G75*
G02*
X106604956Y-80942200I-699999J-1D01*
G01*
X106604956Y-78942200D02*
G75*
G02*
X107304956Y-79642200I1J-699999D01*
G01*
X105204956Y-80942200D02*
G75*
G02*
X104504956Y-80242200I0J700000D01*
G01*
X104504956Y-79642200D02*
G75*
G02*
X105204956Y-78942200I700000J0D01*
G01*
%TO.C,C44*%
X92443710Y-83331998D02*
X92675380Y-83331998D01*
X92443710Y-84051998D02*
X92675380Y-84051998D01*
%TO.C,D2*%
X67177200Y-78686400D02*
X70037200Y-78686400D01*
X67177200Y-80606400D02*
X67177200Y-78686400D01*
X70037200Y-80606400D02*
X67177200Y-80606400D01*
%TO.C,C50*%
X133601365Y-41151600D02*
X133833035Y-41151600D01*
X133601365Y-41871600D02*
X133833035Y-41871600D01*
%TO.C,C57*%
X96344956Y-87065535D02*
X96344956Y-86833865D01*
X97064956Y-87065535D02*
X97064956Y-86833865D01*
%TO.C,X1*%
X120724807Y-47224277D02*
X118179222Y-44678692D01*
X118179222Y-44678692D02*
X117903450Y-44954464D01*
X120944010Y-47995023D02*
X120449035Y-47500049D01*
X120449035Y-47500049D02*
X120724807Y-47224277D01*
X119077248Y-48871836D02*
X119572222Y-49366810D01*
X116531663Y-46326251D02*
X116008404Y-46849510D01*
X118553989Y-49395095D02*
X119077248Y-48871836D01*
X114636617Y-48221297D02*
X114360845Y-48497069D01*
X116906430Y-51042654D02*
X117182202Y-50766882D01*
X114360845Y-48497069D02*
X116906430Y-51042654D01*
%TO.C,C53*%
X101214956Y-79658865D02*
X101214956Y-79890535D01*
X100494956Y-79658865D02*
X100494956Y-79890535D01*
%TO.C,R1*%
X99584956Y-79602079D02*
X99584956Y-79937321D01*
X98824956Y-79602079D02*
X98824956Y-79937321D01*
%TO.C,R15*%
X71745000Y-79643279D02*
X71745000Y-79978521D01*
X70985000Y-79643279D02*
X70985000Y-79978521D01*
%TO.C,R54*%
X90296600Y-76489521D02*
X90296600Y-76154279D01*
X91056600Y-76489521D02*
X91056600Y-76154279D01*
%TO.C,R33*%
X106289835Y-84262200D02*
X106625077Y-84262200D01*
X106289835Y-85022200D02*
X106625077Y-85022200D01*
%TO.C,D3*%
X81067045Y-78656998D02*
X83927045Y-78656998D01*
X81067045Y-80576998D02*
X81067045Y-78656998D01*
X83927045Y-80576998D02*
X81067045Y-80576998D01*
%TO.C,C28*%
X75331800Y-79725065D02*
X75331800Y-79956735D01*
X74611800Y-79725065D02*
X74611800Y-79956735D01*
%TO.C,R49*%
X71948800Y-45580679D02*
X71948800Y-45915921D01*
X71188800Y-45580679D02*
X71188800Y-45915921D01*
%TO.C,R31*%
X96200077Y-82472200D02*
X95864835Y-82472200D01*
X96200077Y-81712200D02*
X95864835Y-81712200D01*
%TO.C,R24*%
X81981924Y-80761998D02*
X82317166Y-80761998D01*
X81981924Y-81521998D02*
X82317166Y-81521998D01*
%TO.C,R6*%
X94554500Y-42644321D02*
X94554500Y-42309079D01*
X95314500Y-42644321D02*
X95314500Y-42309079D01*
%TO.C,R13*%
X94554500Y-44869321D02*
X94554500Y-44534079D01*
X95314500Y-44869321D02*
X95314500Y-44534079D01*
%TO.C,R20*%
X78473879Y-84346400D02*
X78809121Y-84346400D01*
X78473879Y-85106400D02*
X78809121Y-85106400D01*
%TO.C,C61*%
X106356621Y-83307200D02*
X106588291Y-83307200D01*
X106356621Y-84027200D02*
X106588291Y-84027200D01*
%TO.C,R45*%
X111309421Y-49485400D02*
X110974179Y-49485400D01*
X111309421Y-48725400D02*
X110974179Y-48725400D01*
%TO.C,R2*%
X92609400Y-51729621D02*
X92609400Y-51394379D01*
X93369400Y-51729621D02*
X93369400Y-51394379D01*
%TO.C,U1*%
X101824831Y-53834207D02*
X101824831Y-54784207D01*
X101824831Y-73104207D02*
X100534831Y-73104207D01*
X101824831Y-74054207D02*
X101824831Y-73104207D01*
X102774831Y-53834207D02*
X101824831Y-53834207D01*
X102774831Y-74054207D02*
X101824831Y-74054207D01*
X121094831Y-53834207D02*
X122044831Y-53834207D01*
X121094831Y-74054207D02*
X122044831Y-74054207D01*
X122044831Y-53834207D02*
X122044831Y-54784207D01*
X122044831Y-74054207D02*
X122044831Y-73104207D01*
%TO.C,C52*%
X119361975Y-49883093D02*
X119525790Y-49719278D01*
X119871092Y-50392210D02*
X120034907Y-50228395D01*
%TO.C,R8*%
X95313500Y-48953079D02*
X95313500Y-49288321D01*
X94553500Y-48953079D02*
X94553500Y-49288321D01*
%TD*%
%LPC*%
D15*
%TO.C,J4*%
X126025149Y-86707451D03*
X133025149Y-86707451D03*
%TD*%
D16*
%TO.C,J9*%
X63259600Y-37436200D03*
X63259600Y-86436200D03*
X121259600Y-37436200D03*
X121259600Y-86436200D03*
%TD*%
D17*
%TO.C,SW2*%
X90678000Y-51257200D03*
X85598000Y-43637200D03*
%TD*%
D15*
%TO.C,J2*%
X109581749Y-86707451D03*
X116581749Y-86707451D03*
%TD*%
D18*
%TO.C,XT60M*%
X141359388Y-34925000D03*
X143238225Y-48293619D03*
D19*
X135856175Y-38879383D03*
D20*
X136858221Y-46009313D03*
D21*
X139971677Y-41936366D03*
%TD*%
D22*
%TO.C,SW9*%
X77935000Y-56344200D03*
D23*
X77935000Y-58884200D03*
X77935000Y-61424200D03*
%TD*%
D22*
%TO.C,SW11*%
X85149800Y-56343000D03*
D23*
X85149800Y-58883000D03*
X85149800Y-61423000D03*
%TD*%
D22*
%TO.C,J5*%
X64103600Y-42628200D03*
D23*
X61563600Y-42628200D03*
X64103600Y-45168200D03*
X61563600Y-45168200D03*
X64103600Y-47708200D03*
X61563600Y-47708200D03*
X64103600Y-50248200D03*
X61563600Y-50248200D03*
X64103600Y-52788200D03*
X61563600Y-52788200D03*
X64103600Y-55328200D03*
X61563600Y-55328200D03*
%TD*%
D22*
%TO.C,J8*%
X61628200Y-59087400D03*
D23*
X61628200Y-61627400D03*
X64168200Y-59087400D03*
X64168200Y-61627400D03*
X66708200Y-59087400D03*
X66708200Y-61627400D03*
X69248200Y-59087400D03*
X69248200Y-61627400D03*
X71788200Y-59087400D03*
X71788200Y-61627400D03*
X74328200Y-59087400D03*
X74328200Y-61627400D03*
%TD*%
D17*
%TO.C,SW8*%
X76657200Y-51257200D03*
X71577200Y-43637200D03*
%TD*%
D24*
%TO.C,J1*%
X141358800Y-81769600D03*
D25*
X138818800Y-81769600D03*
X141358800Y-79229600D03*
X138818800Y-79229600D03*
X141358800Y-76689600D03*
X138818800Y-76689600D03*
X141358800Y-74149600D03*
X138818800Y-74149600D03*
X141358800Y-71609600D03*
X138818800Y-71609600D03*
X141358800Y-69069600D03*
X138818800Y-69069600D03*
X141358800Y-66529600D03*
X138818800Y-66529600D03*
%TD*%
D22*
%TO.C,SW3*%
X136956800Y-53340000D03*
D23*
X136956800Y-55880000D03*
X136956800Y-58420000D03*
%TD*%
D22*
%TO.C,SW5*%
X98221800Y-56337200D03*
D23*
X95681800Y-56337200D03*
X93141800Y-56337200D03*
%TD*%
D22*
%TO.C,SW10*%
X81544800Y-56343000D03*
D23*
X81544800Y-58883000D03*
X81544800Y-61423000D03*
%TD*%
D26*
%TO.C,J3*%
X143394600Y-60051600D03*
X143394600Y-53451600D03*
%TD*%
D17*
%TO.C,SW6*%
X76655800Y-74191200D03*
X71575800Y-66571200D03*
%TD*%
D22*
%TO.C,SW4*%
X125755400Y-71033701D03*
D23*
X128295400Y-71033701D03*
X130835400Y-71033701D03*
%TD*%
D22*
%TO.C,J6*%
X64103600Y-65513200D03*
D23*
X61563600Y-65513200D03*
X64103600Y-68053200D03*
X61563600Y-68053200D03*
X64103600Y-70593200D03*
X61563600Y-70593200D03*
X64103600Y-73133200D03*
X61563600Y-73133200D03*
X64103600Y-75673200D03*
X61563600Y-75673200D03*
X64103600Y-78213200D03*
X61563600Y-78213200D03*
%TD*%
D22*
%TO.C,SW1*%
X95740400Y-75622800D03*
D23*
X95740400Y-73082800D03*
X95740400Y-70542800D03*
%TD*%
D17*
%TO.C,SW7*%
X90676600Y-74200400D03*
X85596600Y-66580400D03*
%TD*%
D27*
%TO.C,C62*%
X105919956Y-81667200D03*
X107054956Y-81667200D03*
%TD*%
D28*
%TO.C,R30*%
X95484956Y-81092200D03*
X96679956Y-81092200D03*
%TD*%
D29*
%TO.C,R25*%
X82752045Y-82166998D03*
X81557045Y-82166998D03*
%TD*%
D30*
%TO.C,C40*%
X82752045Y-87551998D03*
X82752045Y-86416998D03*
%TD*%
D31*
%TO.C,R36*%
X104839000Y-45395600D03*
X104839000Y-46590600D03*
%TD*%
D32*
%TO.C,U14*%
X126381000Y-68541900D03*
D33*
X125488000Y-68145599D03*
X125488000Y-67645600D03*
X125488000Y-67145601D03*
X125488000Y-66645600D03*
X125488000Y-66145600D03*
X125488000Y-65645599D03*
X125488000Y-65145600D03*
X125488000Y-64645601D03*
D32*
X126381000Y-64249300D03*
X126881000Y-64249300D03*
D33*
X127774000Y-64645601D03*
X127774000Y-65145600D03*
X127774000Y-65645599D03*
X127774000Y-66145600D03*
X127774000Y-66645600D03*
X127774000Y-67145601D03*
X127774000Y-67645600D03*
X127774000Y-68145599D03*
D32*
X126881000Y-68541900D03*
D34*
X126631000Y-66395600D03*
%TD*%
D35*
%TO.C,U11*%
X129584601Y-40850255D03*
X129584601Y-42120255D03*
X129584601Y-43400255D03*
X129584601Y-44670255D03*
D36*
X126314601Y-42760255D03*
%TD*%
D27*
%TO.C,C51*%
X130966601Y-40491255D03*
X132101601Y-40491255D03*
%TD*%
D28*
%TO.C,R34*%
X105879956Y-87242200D03*
X107074956Y-87242200D03*
%TD*%
D31*
%TO.C,R51*%
X80171400Y-61409700D03*
X80171400Y-62604700D03*
%TD*%
D35*
%TO.C,U10*%
X129592001Y-46509255D03*
X129592001Y-47779255D03*
X129592001Y-49059255D03*
X129592001Y-50329255D03*
D36*
X126322001Y-48419255D03*
%TD*%
D31*
%TO.C,R58*%
X83794600Y-58228900D03*
X83794600Y-59423900D03*
%TD*%
D29*
%TO.C,R46*%
X111734300Y-50055400D03*
X110539300Y-50055400D03*
%TD*%
D37*
%TO.C,U8*%
X133947001Y-48494255D03*
X133947001Y-49444256D03*
X133947001Y-50394254D03*
X131197001Y-50394254D03*
X131197001Y-49444256D03*
X131197001Y-48494255D03*
%TD*%
D38*
%TO.C,U12*%
X98479957Y-81570800D03*
X99129955Y-81570800D03*
X99779957Y-81570800D03*
X100429955Y-81570800D03*
X101079957Y-81570800D03*
D39*
X102254956Y-82717200D03*
D38*
X101729955Y-81570800D03*
X102379957Y-81570800D03*
X103029955Y-81570800D03*
D40*
X103701356Y-82242201D03*
X103701356Y-82892199D03*
X103701356Y-83542201D03*
X103701356Y-84192199D03*
D41*
X102258656Y-85192897D03*
D40*
X103701356Y-84842201D03*
X103701356Y-85492199D03*
X103701356Y-86142201D03*
X103701356Y-86792199D03*
D42*
X102583656Y-86970397D03*
D38*
X103029955Y-87463600D03*
X102379957Y-87463600D03*
X101729955Y-87463600D03*
X101079957Y-87463600D03*
X100429955Y-87463600D03*
X99779957Y-87463600D03*
X99129955Y-87463600D03*
X98479957Y-87463600D03*
D40*
X97808556Y-86792199D03*
X97808556Y-86142201D03*
X97808556Y-85492199D03*
X97808556Y-84842201D03*
X97808556Y-84192199D03*
X97808556Y-83542201D03*
X97808556Y-82892199D03*
X97808556Y-82242201D03*
D43*
X99512456Y-84517200D03*
%TD*%
D44*
%TO.C,R55*%
X76623400Y-53992400D03*
X76623400Y-52797400D03*
%TD*%
D38*
%TO.C,U6*%
X70655002Y-81627600D03*
X71305000Y-81627600D03*
X71955002Y-81627600D03*
X72605000Y-81627600D03*
X73255002Y-81627600D03*
D39*
X74430001Y-82774000D03*
D38*
X73905000Y-81627600D03*
X74555002Y-81627600D03*
X75205000Y-81627600D03*
D40*
X75876401Y-82299001D03*
X75876401Y-82948999D03*
X75876401Y-83599001D03*
X75876401Y-84248999D03*
D41*
X74433701Y-85249697D03*
D40*
X75876401Y-84899001D03*
X75876401Y-85548999D03*
X75876401Y-86199001D03*
X75876401Y-86848999D03*
D42*
X74758701Y-87027197D03*
D38*
X75205000Y-87520400D03*
X74555002Y-87520400D03*
X73905000Y-87520400D03*
X73255002Y-87520400D03*
X72605000Y-87520400D03*
X71955002Y-87520400D03*
X71305000Y-87520400D03*
X70655002Y-87520400D03*
D40*
X69983601Y-86848999D03*
X69983601Y-86199001D03*
X69983601Y-85548999D03*
X69983601Y-84899001D03*
X69983601Y-84248999D03*
X69983601Y-83599001D03*
X69983601Y-82948999D03*
X69983601Y-82299001D03*
D43*
X71687501Y-84574000D03*
%TD*%
D45*
%TO.C,C56*%
X101829956Y-79232200D03*
X101829956Y-80367200D03*
%TD*%
%TO.C,C60*%
X104854956Y-86707200D03*
X104854956Y-87842200D03*
%TD*%
D30*
%TO.C,C31*%
X68843000Y-87588600D03*
X68843000Y-86453600D03*
%TD*%
D46*
%TO.C,JP1*%
X78764099Y-80002000D03*
D47*
X77464099Y-80002000D03*
%TD*%
D45*
%TO.C,C29*%
X75937000Y-79273400D03*
X75937000Y-80408400D03*
%TD*%
D29*
%TO.C,R40*%
X107023400Y-45370200D03*
X105828400Y-45370200D03*
%TD*%
D45*
%TO.C,C39*%
X87902045Y-79256998D03*
X87902045Y-80391998D03*
%TD*%
D31*
%TO.C,R47*%
X71575800Y-68107300D03*
X71575800Y-69302300D03*
%TD*%
D27*
%TO.C,C34*%
X78074000Y-83761200D03*
X79209000Y-83761200D03*
%TD*%
D45*
%TO.C,C27*%
X74006600Y-79273400D03*
X74006600Y-80408400D03*
%TD*%
%TO.C,C54*%
X103754956Y-79242200D03*
X103754956Y-80377200D03*
%TD*%
D31*
%TO.C,R22*%
X85277045Y-79171998D03*
X85277045Y-80366998D03*
%TD*%
D45*
%TO.C,C43*%
X90977045Y-86724498D03*
X90977045Y-87859498D03*
%TD*%
D22*
%TO.C,J7*%
X68156000Y-38742000D03*
D23*
X68156000Y-36202000D03*
X70696000Y-38742000D03*
X70696000Y-36202000D03*
X73236000Y-38742000D03*
X73236000Y-36202000D03*
X75776000Y-38742000D03*
X75776000Y-36202000D03*
X78316000Y-38742000D03*
X78316000Y-36202000D03*
X80856000Y-38742000D03*
X80856000Y-36202000D03*
X83396000Y-38742000D03*
X83396000Y-36202000D03*
X85936000Y-38742000D03*
X85936000Y-36202000D03*
X88476000Y-38742000D03*
X88476000Y-36202000D03*
X91016000Y-38742000D03*
X91016000Y-36202000D03*
X93556000Y-38742000D03*
X93556000Y-36202000D03*
X96096000Y-38742000D03*
X96096000Y-36202000D03*
X98636000Y-38742000D03*
X98636000Y-36202000D03*
X101176000Y-38742000D03*
X101176000Y-36202000D03*
X103716000Y-38742000D03*
X103716000Y-36202000D03*
X106256000Y-38742000D03*
X106256000Y-36202000D03*
X108796000Y-38742000D03*
X108796000Y-36202000D03*
X111336000Y-38742000D03*
X111336000Y-36202000D03*
X113876000Y-38742000D03*
X113876000Y-36202000D03*
X116416000Y-38742000D03*
X116416000Y-36202000D03*
%TD*%
D28*
%TO.C,R26*%
X91027045Y-85666998D03*
X92222045Y-85666998D03*
%TD*%
D31*
%TO.C,R50*%
X76563400Y-61410900D03*
X76563400Y-62605900D03*
%TD*%
D44*
%TO.C,R23*%
X82448400Y-85357300D03*
X82448400Y-84162300D03*
%TD*%
D29*
%TO.C,R41*%
X107023400Y-46335400D03*
X105828400Y-46335400D03*
%TD*%
D44*
%TO.C,R17*%
X68529200Y-85382700D03*
X68529200Y-84187700D03*
%TD*%
D28*
%TO.C,R32*%
X104907456Y-85642200D03*
X106102456Y-85642200D03*
%TD*%
%TO.C,R19*%
X77117500Y-85691600D03*
X78312500Y-85691600D03*
%TD*%
D31*
%TO.C,R7*%
X94934500Y-46304200D03*
X94934500Y-47499200D03*
%TD*%
D30*
%TO.C,C41*%
X81502045Y-85316998D03*
X81502045Y-84181998D03*
%TD*%
D28*
%TO.C,R18*%
X67641501Y-81170400D03*
X68836501Y-81170400D03*
%TD*%
D48*
%TO.C,L3*%
X104879956Y-84592200D03*
X104879956Y-83447200D03*
%TD*%
D31*
%TO.C,R52*%
X83778200Y-61420100D03*
X83778200Y-62615100D03*
%TD*%
D37*
%TO.C,U9*%
X133916601Y-42841256D03*
X133916601Y-43791257D03*
X133916601Y-44741255D03*
X131166601Y-44741255D03*
X131166601Y-43791257D03*
X131166601Y-42841256D03*
%TD*%
D31*
%TO.C,R57*%
X80162400Y-58228900D03*
X80162400Y-59423900D03*
%TD*%
D27*
%TO.C,C48*%
X133149700Y-47150400D03*
X134284700Y-47150400D03*
%TD*%
D31*
%TO.C,R56*%
X76563400Y-57677100D03*
X76563400Y-58872100D03*
%TD*%
D28*
%TO.C,R28*%
X92002045Y-87216998D03*
X93197045Y-87216998D03*
%TD*%
%TO.C,R27*%
X91982045Y-84691998D03*
X93177045Y-84691998D03*
%TD*%
D32*
%TO.C,U13*%
X126369000Y-62572900D03*
D33*
X125476000Y-62176599D03*
X125476000Y-61676600D03*
X125476000Y-61176601D03*
X125476000Y-60676600D03*
X125476000Y-60176600D03*
X125476000Y-59676599D03*
X125476000Y-59176600D03*
X125476000Y-58676601D03*
D32*
X126369000Y-58280300D03*
X126869000Y-58280300D03*
D33*
X127762000Y-58676601D03*
X127762000Y-59176600D03*
X127762000Y-59676599D03*
X127762000Y-60176600D03*
X127762000Y-60676600D03*
X127762000Y-61176601D03*
X127762000Y-61676600D03*
X127762000Y-62176599D03*
D32*
X126869000Y-62572900D03*
D34*
X126619000Y-60426600D03*
%TD*%
D31*
%TO.C,R35*%
X104839000Y-49130600D03*
X104839000Y-50325600D03*
%TD*%
D27*
%TO.C,C47*%
X130972001Y-46219255D03*
X132107001Y-46219255D03*
%TD*%
D45*
%TO.C,C55*%
X102779956Y-79232200D03*
X102779956Y-80367200D03*
%TD*%
D29*
%TO.C,R43*%
X111722500Y-46304200D03*
X110527500Y-46304200D03*
%TD*%
%TO.C,R16*%
X68848601Y-82186400D03*
X67653601Y-82186400D03*
%TD*%
D27*
%TO.C,C45*%
X91992045Y-81691998D03*
X93127045Y-81691998D03*
%TD*%
D45*
%TO.C,C36*%
X86927045Y-79231998D03*
X86927045Y-80366998D03*
%TD*%
D31*
%TO.C,R44*%
X109564300Y-49135400D03*
X109564300Y-50330400D03*
%TD*%
D30*
%TO.C,C2*%
X90622780Y-49721220D03*
X90622780Y-48586220D03*
%TD*%
D44*
%TO.C,R48*%
X84023200Y-66586700D03*
X84023200Y-65391700D03*
%TD*%
D30*
%TO.C,C58*%
X95429956Y-85277200D03*
X95429956Y-84142200D03*
%TD*%
D48*
%TO.C,L2*%
X91002045Y-84616998D03*
X91002045Y-83471998D03*
%TD*%
D49*
%TO.C,U5*%
X96490500Y-44021200D03*
X97760500Y-44021200D03*
X99030500Y-44021200D03*
X100300500Y-44021200D03*
X100300500Y-51321200D03*
X99030500Y-51321200D03*
X97760500Y-51321200D03*
X96490500Y-51321200D03*
%TD*%
D27*
%TO.C,C46*%
X130966601Y-41491255D03*
X132101601Y-41491255D03*
%TD*%
D50*
%TO.C,D4*%
X95854956Y-79617200D03*
X97904956Y-79617200D03*
%TD*%
D29*
%TO.C,R38*%
X107023400Y-49105200D03*
X105828400Y-49105200D03*
%TD*%
D45*
%TO.C,C26*%
X73041400Y-79273400D03*
X73041400Y-80408400D03*
%TD*%
D27*
%TO.C,C30*%
X67624101Y-83202400D03*
X68759101Y-83202400D03*
%TD*%
D30*
%TO.C,C32*%
X67589400Y-85336000D03*
X67589400Y-84201000D03*
%TD*%
D28*
%TO.C,R21*%
X78070600Y-87215600D03*
X79265600Y-87215600D03*
%TD*%
D44*
%TO.C,R29*%
X96418400Y-85312200D03*
X96418400Y-84117200D03*
%TD*%
D31*
%TO.C,R37*%
X109552500Y-45384200D03*
X109552500Y-46579200D03*
%TD*%
D46*
%TO.C,JP2*%
X92652045Y-79941998D03*
D47*
X91352045Y-79941998D03*
%TD*%
D32*
%TO.C,U15*%
X95692800Y-58813700D03*
D33*
X96585800Y-59210001D03*
X96585800Y-59710000D03*
X96585800Y-60209999D03*
X96585800Y-60710000D03*
X96585800Y-61210000D03*
X96585800Y-61710001D03*
X96585800Y-62210000D03*
X96585800Y-62709999D03*
D32*
X95692800Y-63106300D03*
X95192800Y-63106300D03*
D33*
X94299800Y-62709999D03*
X94299800Y-62210000D03*
X94299800Y-61710001D03*
X94299800Y-61210000D03*
X94299800Y-60710000D03*
X94299800Y-60209999D03*
X94299800Y-59710000D03*
X94299800Y-59210001D03*
D32*
X95192800Y-58813700D03*
D34*
X95442800Y-60960000D03*
%TD*%
D27*
%TO.C,C49*%
X130972001Y-47169255D03*
X132107001Y-47169255D03*
%TD*%
D29*
%TO.C,R39*%
X107023400Y-50070400D03*
X105828400Y-50070400D03*
%TD*%
D44*
%TO.C,R14*%
X94934500Y-51924200D03*
X94934500Y-50729200D03*
%TD*%
D48*
%TO.C,L1*%
X77054600Y-84652200D03*
X77054600Y-83507200D03*
%TD*%
D27*
%TO.C,C42*%
X81567045Y-83166998D03*
X82702045Y-83166998D03*
%TD*%
D38*
%TO.C,U7*%
X84556227Y-81598240D03*
X85206225Y-81598240D03*
X85856227Y-81598240D03*
X86506225Y-81598240D03*
X87156227Y-81598240D03*
D39*
X88331226Y-82744640D03*
D38*
X87806225Y-81598240D03*
X88456227Y-81598240D03*
X89106225Y-81598240D03*
D40*
X89777626Y-82269641D03*
X89777626Y-82919639D03*
X89777626Y-83569641D03*
X89777626Y-84219639D03*
D41*
X88334926Y-85220337D03*
D40*
X89777626Y-84869641D03*
X89777626Y-85519639D03*
X89777626Y-86169641D03*
X89777626Y-86819639D03*
D42*
X88659926Y-86997837D03*
D38*
X89106225Y-87491040D03*
X88456227Y-87491040D03*
X87806225Y-87491040D03*
X87156227Y-87491040D03*
X86506225Y-87491040D03*
X85856227Y-87491040D03*
X85206225Y-87491040D03*
X84556227Y-87491040D03*
D40*
X83884826Y-86819639D03*
X83884826Y-86169641D03*
X83884826Y-85519639D03*
X83884826Y-84869641D03*
X83884826Y-84219639D03*
X83884826Y-83569641D03*
X83884826Y-82919639D03*
X83884826Y-82269641D03*
D43*
X85588726Y-84544640D03*
%TD*%
D44*
%TO.C,R53*%
X76655800Y-76896900D03*
X76655800Y-75701900D03*
%TD*%
D29*
%TO.C,R42*%
X111722500Y-45354200D03*
X110527500Y-45354200D03*
%TD*%
D45*
%TO.C,C33*%
X77054600Y-86741000D03*
X77054600Y-87876000D03*
%TD*%
%TO.C,C38*%
X89877045Y-79256998D03*
X89877045Y-80391998D03*
%TD*%
%TO.C,C37*%
X88902045Y-79256998D03*
X88902045Y-80391998D03*
%TD*%
D27*
%TO.C,C35*%
X78094999Y-81729200D03*
X79229999Y-81729200D03*
%TD*%
D29*
%TO.C,R12*%
X97779500Y-42429200D03*
X96584500Y-42429200D03*
%TD*%
D27*
%TO.C,C59*%
X95469956Y-83142200D03*
X96604956Y-83142200D03*
%TD*%
D46*
%TO.C,JP3*%
X106554956Y-79942200D03*
D47*
X105254956Y-79942200D03*
%TD*%
D27*
%TO.C,C44*%
X91992045Y-83691998D03*
X93127045Y-83691998D03*
%TD*%
D50*
%TO.C,D2*%
X68012200Y-79646400D03*
X70062200Y-79646400D03*
%TD*%
D27*
%TO.C,C50*%
X133149700Y-41511600D03*
X134284700Y-41511600D03*
%TD*%
D30*
%TO.C,C57*%
X96704956Y-87517200D03*
X96704956Y-86382200D03*
%TD*%
D51*
%TO.C,X1*%
X119480299Y-47903099D03*
X117585252Y-49798146D03*
X115605353Y-47818247D03*
X117500400Y-45923200D03*
%TD*%
D45*
%TO.C,C53*%
X100854956Y-79207200D03*
X100854956Y-80342200D03*
%TD*%
D31*
%TO.C,R1*%
X99204956Y-79172200D03*
X99204956Y-80367200D03*
%TD*%
%TO.C,R15*%
X71365000Y-79213400D03*
X71365000Y-80408400D03*
%TD*%
D44*
%TO.C,R54*%
X90676600Y-76919400D03*
X90676600Y-75724400D03*
%TD*%
D28*
%TO.C,R33*%
X105859956Y-84642200D03*
X107054956Y-84642200D03*
%TD*%
D50*
%TO.C,D3*%
X81902045Y-79616998D03*
X83952045Y-79616998D03*
%TD*%
D45*
%TO.C,C28*%
X74971800Y-79273400D03*
X74971800Y-80408400D03*
%TD*%
D31*
%TO.C,R49*%
X71568800Y-45150800D03*
X71568800Y-46345800D03*
%TD*%
D29*
%TO.C,R31*%
X96629956Y-82092200D03*
X95434956Y-82092200D03*
%TD*%
D28*
%TO.C,R24*%
X81552045Y-81141998D03*
X82747045Y-81141998D03*
%TD*%
D44*
%TO.C,R6*%
X94934500Y-43074200D03*
X94934500Y-41879200D03*
%TD*%
%TO.C,R13*%
X94934500Y-45299200D03*
X94934500Y-44104200D03*
%TD*%
D28*
%TO.C,R20*%
X78044000Y-84726400D03*
X79239000Y-84726400D03*
%TD*%
D27*
%TO.C,C61*%
X105904956Y-83667200D03*
X107039956Y-83667200D03*
%TD*%
D29*
%TO.C,R45*%
X111739300Y-49105400D03*
X110544300Y-49105400D03*
%TD*%
D44*
%TO.C,R2*%
X92989400Y-52159500D03*
X92989400Y-50964500D03*
%TD*%
D52*
%TO.C,U1*%
X101272331Y-72694207D03*
X101272331Y-72194207D03*
X101272331Y-71694207D03*
X101272331Y-71194207D03*
X101272331Y-70694207D03*
X101272331Y-70194207D03*
X101272331Y-69694207D03*
X101272331Y-69194207D03*
X101272331Y-68694207D03*
X101272331Y-68194207D03*
X101272331Y-67694207D03*
X101272331Y-67194207D03*
X101272331Y-66694207D03*
X101272331Y-66194207D03*
X101272331Y-65694207D03*
X101272331Y-65194207D03*
X101272331Y-64694207D03*
X101272331Y-64194207D03*
X101272331Y-63694207D03*
X101272331Y-63194207D03*
X101272331Y-62694207D03*
X101272331Y-62194207D03*
X101272331Y-61694207D03*
X101272331Y-61194207D03*
X101272331Y-60694207D03*
X101272331Y-60194207D03*
X101272331Y-59694207D03*
X101272331Y-59194207D03*
X101272331Y-58694207D03*
X101272331Y-58194207D03*
X101272331Y-57694207D03*
X101272331Y-57194207D03*
X101272331Y-56694207D03*
X101272331Y-56194207D03*
X101272331Y-55694207D03*
X101272331Y-55194207D03*
D53*
X103184831Y-53281707D03*
X103684831Y-53281707D03*
X104184831Y-53281707D03*
X104684831Y-53281707D03*
X105184831Y-53281707D03*
X105684831Y-53281707D03*
X106184831Y-53281707D03*
X106684831Y-53281707D03*
X107184831Y-53281707D03*
X107684831Y-53281707D03*
X108184831Y-53281707D03*
X108684831Y-53281707D03*
X109184831Y-53281707D03*
X109684831Y-53281707D03*
X110184831Y-53281707D03*
X110684831Y-53281707D03*
X111184831Y-53281707D03*
X111684831Y-53281707D03*
X112184831Y-53281707D03*
X112684831Y-53281707D03*
X113184831Y-53281707D03*
X113684831Y-53281707D03*
X114184831Y-53281707D03*
X114684831Y-53281707D03*
X115184831Y-53281707D03*
X115684831Y-53281707D03*
X116184831Y-53281707D03*
X116684831Y-53281707D03*
X117184831Y-53281707D03*
X117684831Y-53281707D03*
X118184831Y-53281707D03*
X118684831Y-53281707D03*
X119184831Y-53281707D03*
X119684831Y-53281707D03*
X120184831Y-53281707D03*
X120684831Y-53281707D03*
D52*
X122597331Y-55194207D03*
X122597331Y-55694207D03*
X122597331Y-56194207D03*
X122597331Y-56694207D03*
X122597331Y-57194207D03*
X122597331Y-57694207D03*
X122597331Y-58194207D03*
X122597331Y-58694207D03*
X122597331Y-59194207D03*
X122597331Y-59694207D03*
X122597331Y-60194207D03*
X122597331Y-60694207D03*
X122597331Y-61194207D03*
X122597331Y-61694207D03*
X122597331Y-62194207D03*
X122597331Y-62694207D03*
X122597331Y-63194207D03*
X122597331Y-63694207D03*
X122597331Y-64194207D03*
X122597331Y-64694207D03*
X122597331Y-65194207D03*
X122597331Y-65694207D03*
X122597331Y-66194207D03*
X122597331Y-66694207D03*
X122597331Y-67194207D03*
X122597331Y-67694207D03*
X122597331Y-68194207D03*
X122597331Y-68694207D03*
X122597331Y-69194207D03*
X122597331Y-69694207D03*
X122597331Y-70194207D03*
X122597331Y-70694207D03*
X122597331Y-71194207D03*
X122597331Y-71694207D03*
X122597331Y-72194207D03*
X122597331Y-72694207D03*
D53*
X120684831Y-74606707D03*
X120184831Y-74606707D03*
X119684831Y-74606707D03*
X119184831Y-74606707D03*
X118684831Y-74606707D03*
X118184831Y-74606707D03*
X117684831Y-74606707D03*
X117184831Y-74606707D03*
X116684831Y-74606707D03*
X116184831Y-74606707D03*
X115684831Y-74606707D03*
X115184831Y-74606707D03*
X114684831Y-74606707D03*
X114184831Y-74606707D03*
X113684831Y-74606707D03*
X113184831Y-74606707D03*
X112684831Y-74606707D03*
X112184831Y-74606707D03*
X111684831Y-74606707D03*
X111184831Y-74606707D03*
X110684831Y-74606707D03*
X110184831Y-74606707D03*
X109684831Y-74606707D03*
X109184831Y-74606707D03*
X108684831Y-74606707D03*
X108184831Y-74606707D03*
X107684831Y-74606707D03*
X107184831Y-74606707D03*
X106684831Y-74606707D03*
X106184831Y-74606707D03*
X105684831Y-74606707D03*
X105184831Y-74606707D03*
X104684831Y-74606707D03*
X104184831Y-74606707D03*
X103684831Y-74606707D03*
X103184831Y-74606707D03*
%TD*%
D54*
%TO.C,C52*%
X119297158Y-50457027D03*
X120099724Y-49654461D03*
%TD*%
D31*
%TO.C,R8*%
X94933500Y-48523200D03*
X94933500Y-49718200D03*
%TD*%
%LPD*%
M02*
