%TF.GenerationSoftware,KiCad,Pcbnew,8.0.2*%
%TF.CreationDate,2024-09-16T20:23:21-04:00*%
%TF.ProjectId,fpga,66706761-2e6b-4696-9361-645f70636258,rev?*%
%TF.SameCoordinates,Original*%
%TF.FileFunction,Soldermask,Top*%
%TF.FilePolarity,Negative*%
%FSLAX46Y46*%
G04 Gerber Fmt 4.6, Leading zero omitted, Abs format (unit mm)*
G04 Created by KiCad (PCBNEW 8.0.2) date 2024-09-16 20:23:21*
%MOMM*%
%LPD*%
G01*
G04 APERTURE LIST*
G04 Aperture macros list*
%AMRoundRect*
0 Rectangle with rounded corners*
0 $1 Rounding radius*
0 $2 $3 $4 $5 $6 $7 $8 $9 X,Y pos of 4 corners*
0 Add a 4 corners polygon primitive as box body*
4,1,4,$2,$3,$4,$5,$6,$7,$8,$9,$2,$3,0*
0 Add four circle primitives for the rounded corners*
1,1,$1+$1,$2,$3*
1,1,$1+$1,$4,$5*
1,1,$1+$1,$6,$7*
1,1,$1+$1,$8,$9*
0 Add four rect primitives between the rounded corners*
20,1,$1+$1,$2,$3,$4,$5,0*
20,1,$1+$1,$4,$5,$6,$7,0*
20,1,$1+$1,$6,$7,$8,$9,0*
20,1,$1+$1,$8,$9,$2,$3,0*%
%AMRotRect*
0 Rectangle, with rotation*
0 The origin of the aperture is its center*
0 $1 length*
0 $2 width*
0 $3 Rotation angle, in degrees counterclockwise*
0 Add horizontal line*
21,1,$1,$2,0,0,$3*%
%AMFreePoly0*
4,1,19,0.500000,-0.750000,0.000000,-0.750000,0.000000,-0.744911,-0.071157,-0.744911,-0.207708,-0.704816,-0.327430,-0.627875,-0.420627,-0.520320,-0.479746,-0.390866,-0.500000,-0.250000,-0.500000,0.250000,-0.479746,0.390866,-0.420627,0.520320,-0.327430,0.627875,-0.207708,0.704816,-0.071157,0.744911,0.000000,0.744911,0.000000,0.750000,0.500000,0.750000,0.500000,-0.750000,0.500000,-0.750000,
$1*%
%AMFreePoly1*
4,1,19,0.000000,0.744911,0.071157,0.744911,0.207708,0.704816,0.327430,0.627875,0.420627,0.520320,0.479746,0.390866,0.500000,0.250000,0.500000,-0.250000,0.479746,-0.390866,0.420627,-0.520320,0.327430,-0.627875,0.207708,-0.704816,0.071157,-0.744911,0.000000,-0.744911,0.000000,-0.750000,-0.500000,-0.750000,-0.500000,0.750000,0.000000,0.750000,0.000000,0.744911,0.000000,0.744911,
$1*%
G04 Aperture macros list end*
%ADD10RoundRect,0.160000X0.160000X-0.197500X0.160000X0.197500X-0.160000X0.197500X-0.160000X-0.197500X0*%
%ADD11C,1.450000*%
%ADD12C,6.000000*%
%ADD13C,2.000000*%
%ADD14RotRect,0.900000X2.000000X278.000000*%
%ADD15RoundRect,1.025000X-1.157677X0.872372X-0.872372X-1.157677X1.157677X-0.872372X0.872372X1.157677X0*%
%ADD16C,4.100000*%
%ADD17RotRect,2.300000X1.300000X278.000000*%
%ADD18FreePoly0,180.000000*%
%ADD19FreePoly1,180.000000*%
%ADD20R,1.700000X1.700000*%
%ADD21O,1.700000X1.700000*%
%ADD22FreePoly0,90.000000*%
%ADD23FreePoly1,90.000000*%
%ADD24RoundRect,0.250000X0.325000X0.450000X-0.325000X0.450000X-0.325000X-0.450000X0.325000X-0.450000X0*%
%ADD25RoundRect,0.160000X-0.160000X0.197500X-0.160000X-0.197500X0.160000X-0.197500X0.160000X0.197500X0*%
%ADD26RoundRect,0.155000X0.155000X-0.212500X0.155000X0.212500X-0.155000X0.212500X-0.155000X-0.212500X0*%
%ADD27RoundRect,0.155000X-0.155000X0.212500X-0.155000X-0.212500X0.155000X-0.212500X0.155000X0.212500X0*%
%ADD28RoundRect,0.155000X-0.212500X-0.155000X0.212500X-0.155000X0.212500X0.155000X-0.212500X0.155000X0*%
%ADD29R,0.584200X0.406400*%
%ADD30FreePoly0,0.000000*%
%ADD31FreePoly1,0.000000*%
%ADD32RoundRect,0.102000X0.754000X-0.754000X0.754000X0.754000X-0.754000X0.754000X-0.754000X-0.754000X0*%
%ADD33C,1.712000*%
%ADD34RoundRect,0.155000X0.212500X0.155000X-0.212500X0.155000X-0.212500X-0.155000X0.212500X-0.155000X0*%
%ADD35RoundRect,0.100000X0.575000X-0.100000X0.575000X0.100000X-0.575000X0.100000X-0.575000X-0.100000X0*%
%ADD36O,1.600000X0.900000*%
%ADD37RoundRect,0.250000X0.450000X-0.550000X0.450000X0.550000X-0.450000X0.550000X-0.450000X-0.550000X0*%
%ADD38RoundRect,0.250000X0.700000X-0.700000X0.700000X0.700000X-0.700000X0.700000X-0.700000X-0.700000X0*%
%ADD39RoundRect,0.160000X0.197500X0.160000X-0.197500X0.160000X-0.197500X-0.160000X0.197500X-0.160000X0*%
G04 APERTURE END LIST*
D10*
%TO.C,R11*%
X114678031Y-55741207D03*
X114678031Y-54546207D03*
%TD*%
D11*
%TO.C,J4*%
X126025149Y-86707451D03*
X133025149Y-86707451D03*
%TD*%
D12*
%TO.C,J9*%
X63259600Y-37436200D03*
X63259600Y-86436200D03*
X121259600Y-37436200D03*
X121259600Y-86436200D03*
%TD*%
D13*
%TO.C,SW2*%
X90678000Y-51257200D03*
X85598000Y-43637200D03*
%TD*%
D11*
%TO.C,J2*%
X109581749Y-86707451D03*
X116581749Y-86707451D03*
%TD*%
D14*
%TO.C,XT60M*%
X141359388Y-34925000D03*
X143238225Y-48293619D03*
D15*
X135856175Y-38879383D03*
D16*
X136858221Y-46009313D03*
D17*
X139971677Y-41936366D03*
%TD*%
D18*
%TO.C,JP7*%
X109879087Y-62648807D03*
D19*
X108579087Y-62648807D03*
%TD*%
D10*
%TO.C,R10*%
X119297889Y-55600907D03*
X119297889Y-54405907D03*
%TD*%
D20*
%TO.C,SW9*%
X77935000Y-56344200D03*
D21*
X77935000Y-58884200D03*
X77935000Y-61424200D03*
%TD*%
D22*
%TO.C,JP9*%
X110382487Y-72097607D03*
D23*
X110382487Y-70797607D03*
%TD*%
D24*
%TO.C,D1*%
X123974431Y-52742807D03*
X121924431Y-52742807D03*
%TD*%
D25*
%TO.C,R3*%
X120263089Y-54405907D03*
X120263089Y-55600907D03*
%TD*%
D26*
%TO.C,C16*%
X113992287Y-72008807D03*
X113992287Y-70873807D03*
%TD*%
D20*
%TO.C,SW11*%
X85149800Y-56343000D03*
D21*
X85149800Y-58883000D03*
X85149800Y-61423000D03*
%TD*%
D18*
%TO.C,JP5*%
X105053087Y-62826607D03*
D19*
X103753087Y-62826607D03*
%TD*%
D27*
%TO.C,C20*%
X109696689Y-56044807D03*
X109696689Y-57179807D03*
%TD*%
D20*
%TO.C,J5*%
X64103600Y-42628200D03*
D21*
X61563600Y-42628200D03*
X64103600Y-45168200D03*
X61563600Y-45168200D03*
X64103600Y-47708200D03*
X61563600Y-47708200D03*
X64103600Y-50248200D03*
X61563600Y-50248200D03*
X64103600Y-52788200D03*
X61563600Y-52788200D03*
X64103600Y-55328200D03*
X61563600Y-55328200D03*
%TD*%
D20*
%TO.C,J8*%
X61628200Y-59087400D03*
D21*
X61628200Y-61627400D03*
X64168200Y-59087400D03*
X64168200Y-61627400D03*
X66708200Y-59087400D03*
X66708200Y-61627400D03*
X69248200Y-59087400D03*
X69248200Y-61627400D03*
X71788200Y-59087400D03*
X71788200Y-61627400D03*
X74328200Y-59087400D03*
X74328200Y-61627400D03*
%TD*%
D28*
%TO.C,C25*%
X103862687Y-66408007D03*
X104997687Y-66408007D03*
%TD*%
D29*
%TO.C,LED2*%
X106871000Y-45404001D03*
X106871000Y-46303999D03*
X104940600Y-46303999D03*
X104940600Y-45404001D03*
%TD*%
D13*
%TO.C,SW8*%
X76657200Y-51257200D03*
X71577200Y-43637200D03*
%TD*%
D28*
%TO.C,C4*%
X108663287Y-66241407D03*
X109798287Y-66241407D03*
%TD*%
D27*
%TO.C,C22*%
X107817089Y-56044807D03*
X107817089Y-57179807D03*
%TD*%
D30*
%TO.C,JP8*%
X113989287Y-67881207D03*
D31*
X115289287Y-67881207D03*
%TD*%
D26*
%TO.C,C14*%
X112109687Y-72008807D03*
X112109687Y-70873807D03*
%TD*%
D28*
%TO.C,C1*%
X108663287Y-64376007D03*
X109798287Y-64376007D03*
%TD*%
D32*
%TO.C,J1*%
X141358800Y-81769600D03*
D33*
X138818800Y-81769600D03*
X141358800Y-79229600D03*
X138818800Y-79229600D03*
X141358800Y-76689600D03*
X138818800Y-76689600D03*
X141358800Y-74149600D03*
X138818800Y-74149600D03*
X141358800Y-71609600D03*
X138818800Y-71609600D03*
X141358800Y-69069600D03*
X138818800Y-69069600D03*
X141358800Y-66529600D03*
X138818800Y-66529600D03*
%TD*%
D28*
%TO.C,C3*%
X108663287Y-65315807D03*
X109798287Y-65315807D03*
%TD*%
D34*
%TO.C,C18*%
X120055287Y-62888607D03*
X118920287Y-62888607D03*
%TD*%
D20*
%TO.C,SW3*%
X136956800Y-53340000D03*
D21*
X136956800Y-55880000D03*
X136956800Y-58420000D03*
%TD*%
D34*
%TO.C,C17*%
X120055287Y-63817207D03*
X118920287Y-63817207D03*
%TD*%
%TO.C,C6*%
X115217187Y-66154007D03*
X114082187Y-66154007D03*
%TD*%
D29*
%TO.C,LED3*%
X111584500Y-45385400D03*
X111584500Y-46285398D03*
X109654100Y-46285398D03*
X109654100Y-45385400D03*
%TD*%
D20*
%TO.C,SW5*%
X98221800Y-56337200D03*
D21*
X95681800Y-56337200D03*
X93141800Y-56337200D03*
%TD*%
D34*
%TO.C,C8*%
X115217187Y-64285607D03*
X114082187Y-64285607D03*
%TD*%
D28*
%TO.C,C5*%
X108663287Y-67170007D03*
X109798287Y-67170007D03*
%TD*%
D30*
%TO.C,JP4*%
X118810687Y-65544407D03*
D31*
X120110687Y-65544407D03*
%TD*%
D20*
%TO.C,SW10*%
X81544800Y-56343000D03*
D21*
X81544800Y-58883000D03*
X81544800Y-61423000D03*
%TD*%
D28*
%TO.C,C23*%
X103862687Y-64553807D03*
X104997687Y-64553807D03*
%TD*%
D34*
%TO.C,C13*%
X115201387Y-59626207D03*
X114066387Y-59626207D03*
%TD*%
D10*
%TO.C,R5*%
X104187831Y-55550107D03*
X104187831Y-54355107D03*
%TD*%
D34*
%TO.C,C10*%
X115208487Y-62420207D03*
X114073487Y-62420207D03*
%TD*%
%TO.C,C7*%
X115217187Y-65214207D03*
X114082187Y-65214207D03*
%TD*%
D22*
%TO.C,JP6*%
X111423889Y-57253607D03*
D23*
X111423889Y-55953607D03*
%TD*%
D29*
%TO.C,LED1*%
X106845600Y-49139001D03*
X106845600Y-50038999D03*
X104915200Y-50038999D03*
X104915200Y-49139001D03*
%TD*%
D35*
%TO.C,J3*%
X140719600Y-58051600D03*
X140719600Y-57401600D03*
X140719600Y-56751600D03*
X140719600Y-56101600D03*
X140719600Y-55451600D03*
D36*
X143394600Y-60051600D03*
D37*
X140944600Y-59951600D03*
D38*
X143394600Y-57951600D03*
X143394600Y-55551600D03*
D37*
X140944600Y-53551600D03*
D36*
X143394600Y-53451600D03*
%TD*%
D34*
%TO.C,C12*%
X115208487Y-60551807D03*
X114073487Y-60551807D03*
%TD*%
%TO.C,C19*%
X120055287Y-61963007D03*
X118920287Y-61963007D03*
%TD*%
D13*
%TO.C,SW6*%
X76655800Y-74191200D03*
X71575800Y-66571200D03*
%TD*%
D25*
%TO.C,R9*%
X103194289Y-72312907D03*
X103194289Y-73507907D03*
%TD*%
D20*
%TO.C,SW4*%
X125755400Y-71033701D03*
D21*
X128295400Y-71033701D03*
X130835400Y-71033701D03*
%TD*%
D39*
%TO.C,R4*%
X123898231Y-54241407D03*
X122703231Y-54241407D03*
%TD*%
D20*
%TO.C,J6*%
X64103600Y-65513200D03*
D21*
X61563600Y-65513200D03*
X64103600Y-68053200D03*
X61563600Y-68053200D03*
X64103600Y-70593200D03*
X61563600Y-70593200D03*
X64103600Y-73133200D03*
X61563600Y-73133200D03*
X64103600Y-75673200D03*
X61563600Y-75673200D03*
X64103600Y-78213200D03*
X61563600Y-78213200D03*
%TD*%
D26*
%TO.C,C15*%
X113049487Y-72008807D03*
X113049487Y-70873807D03*
%TD*%
D29*
%TO.C,LED4*%
X111584500Y-49143400D03*
X111584500Y-50043398D03*
X109654100Y-50043398D03*
X109654100Y-49143400D03*
%TD*%
D20*
%TO.C,SW1*%
X95740400Y-75622800D03*
D21*
X95740400Y-73082800D03*
X95740400Y-70542800D03*
%TD*%
D13*
%TO.C,SW7*%
X90676600Y-74200400D03*
X85596600Y-66580400D03*
%TD*%
D34*
%TO.C,C9*%
X115217187Y-63360007D03*
X114082187Y-63360007D03*
%TD*%
D27*
%TO.C,C21*%
X108756889Y-56044807D03*
X108756889Y-57179807D03*
%TD*%
D28*
%TO.C,C24*%
X103862687Y-65482407D03*
X104997687Y-65482407D03*
%TD*%
D34*
%TO.C,C11*%
X115208487Y-61480407D03*
X114073487Y-61480407D03*
%TD*%
D20*
%TO.C,J7*%
X68156000Y-38742000D03*
D21*
X68156000Y-36202000D03*
X70696000Y-38742000D03*
X70696000Y-36202000D03*
X73236000Y-38742000D03*
X73236000Y-36202000D03*
X75776000Y-38742000D03*
X75776000Y-36202000D03*
X78316000Y-38742000D03*
X78316000Y-36202000D03*
X80856000Y-38742000D03*
X80856000Y-36202000D03*
X83396000Y-38742000D03*
X83396000Y-36202000D03*
X85936000Y-38742000D03*
X85936000Y-36202000D03*
X88476000Y-38742000D03*
X88476000Y-36202000D03*
X91016000Y-38742000D03*
X91016000Y-36202000D03*
X93556000Y-38742000D03*
X93556000Y-36202000D03*
X96096000Y-38742000D03*
X96096000Y-36202000D03*
X98636000Y-38742000D03*
X98636000Y-36202000D03*
X101176000Y-38742000D03*
X101176000Y-36202000D03*
X103716000Y-38742000D03*
X103716000Y-36202000D03*
X106256000Y-38742000D03*
X106256000Y-36202000D03*
X108796000Y-38742000D03*
X108796000Y-36202000D03*
X111336000Y-38742000D03*
X111336000Y-36202000D03*
X113876000Y-38742000D03*
X113876000Y-36202000D03*
X116416000Y-38742000D03*
X116416000Y-36202000D03*
%TD*%
M02*
