%TF.GenerationSoftware,KiCad,Pcbnew,8.0.2*%
%TF.CreationDate,2024-09-16T20:23:21-04:00*%
%TF.ProjectId,fpga,66706761-2e6b-4696-9361-645f70636258,rev?*%
%TF.SameCoordinates,Original*%
%TF.FileFunction,Soldermask,Bot*%
%TF.FilePolarity,Negative*%
%FSLAX46Y46*%
G04 Gerber Fmt 4.6, Leading zero omitted, Abs format (unit mm)*
G04 Created by KiCad (PCBNEW 8.0.2) date 2024-09-16 20:23:21*
%MOMM*%
%LPD*%
G01*
G04 APERTURE LIST*
G04 Aperture macros list*
%AMRoundRect*
0 Rectangle with rounded corners*
0 $1 Rounding radius*
0 $2 $3 $4 $5 $6 $7 $8 $9 X,Y pos of 4 corners*
0 Add a 4 corners polygon primitive as box body*
4,1,4,$2,$3,$4,$5,$6,$7,$8,$9,$2,$3,0*
0 Add four circle primitives for the rounded corners*
1,1,$1+$1,$2,$3*
1,1,$1+$1,$4,$5*
1,1,$1+$1,$6,$7*
1,1,$1+$1,$8,$9*
0 Add four rect primitives between the rounded corners*
20,1,$1+$1,$2,$3,$4,$5,0*
20,1,$1+$1,$4,$5,$6,$7,0*
20,1,$1+$1,$6,$7,$8,$9,0*
20,1,$1+$1,$8,$9,$2,$3,0*%
%AMRotRect*
0 Rectangle, with rotation*
0 The origin of the aperture is its center*
0 $1 length*
0 $2 width*
0 $3 Rotation angle, in degrees counterclockwise*
0 Add horizontal line*
21,1,$1,$2,0,0,$3*%
%AMFreePoly0*
4,1,21,3.024497,2.399497,3.045000,2.350000,3.045000,-2.350000,3.024497,-2.399497,2.975000,-2.420000,1.425000,-2.420000,1.375503,-2.399497,1.355000,-2.350000,1.355000,-2.170000,-1.650000,-2.170000,-1.699497,-2.149497,-1.720000,-2.100000,-1.720000,2.100000,-1.699497,2.149497,-1.650000,2.170000,1.355000,2.170000,1.355000,2.350000,1.375503,2.399497,1.425000,2.420000,2.975000,2.420000,
3.024497,2.399497,3.024497,2.399497,$1*%
%AMFreePoly1*
4,1,19,0.500000,-0.750000,0.000000,-0.750000,0.000000,-0.744911,-0.071157,-0.744911,-0.207708,-0.704816,-0.327430,-0.627875,-0.420627,-0.520320,-0.479746,-0.390866,-0.500000,-0.250000,-0.500000,0.250000,-0.479746,0.390866,-0.420627,0.520320,-0.327430,0.627875,-0.207708,0.704816,-0.071157,0.744911,0.000000,0.744911,0.000000,0.750000,0.500000,0.750000,0.500000,-0.750000,0.500000,-0.750000,
$1*%
%AMFreePoly2*
4,1,19,0.000000,0.744911,0.071157,0.744911,0.207708,0.704816,0.327430,0.627875,0.420627,0.520320,0.479746,0.390866,0.500000,0.250000,0.500000,-0.250000,0.479746,-0.390866,0.420627,-0.520320,0.327430,-0.627875,0.207708,-0.704816,0.071157,-0.744911,0.000000,-0.744911,0.000000,-0.750000,-0.500000,-0.750000,-0.500000,0.750000,0.000000,0.750000,0.000000,0.744911,0.000000,0.744911,
$1*%
G04 Aperture macros list end*
%ADD10C,1.450000*%
%ADD11C,6.000000*%
%ADD12C,2.000000*%
%ADD13RotRect,0.900000X2.000000X278.000000*%
%ADD14RoundRect,1.025000X-1.157677X0.872372X-0.872372X-1.157677X1.157677X-0.872372X0.872372X1.157677X0*%
%ADD15C,4.100000*%
%ADD16RotRect,2.300000X1.300000X278.000000*%
%ADD17R,1.700000X1.700000*%
%ADD18O,1.700000X1.700000*%
%ADD19RoundRect,0.102000X0.754000X-0.754000X0.754000X0.754000X-0.754000X0.754000X-0.754000X-0.754000X0*%
%ADD20C,1.712000*%
%ADD21O,1.600000X0.900000*%
%ADD22RoundRect,0.155000X-0.212500X-0.155000X0.212500X-0.155000X0.212500X0.155000X-0.212500X0.155000X0*%
%ADD23RoundRect,0.160000X-0.197500X-0.160000X0.197500X-0.160000X0.197500X0.160000X-0.197500X0.160000X0*%
%ADD24RoundRect,0.160000X0.197500X0.160000X-0.197500X0.160000X-0.197500X-0.160000X0.197500X-0.160000X0*%
%ADD25RoundRect,0.155000X0.155000X-0.212500X0.155000X0.212500X-0.155000X0.212500X-0.155000X-0.212500X0*%
%ADD26RoundRect,0.160000X-0.160000X0.197500X-0.160000X-0.197500X0.160000X-0.197500X0.160000X0.197500X0*%
%ADD27R,0.254000X0.812800*%
%ADD28R,0.812800X0.254000*%
%ADD29R,0.990600X2.895600*%
%ADD30RoundRect,0.070000X-0.575000X0.350000X-0.575000X-0.350000X0.575000X-0.350000X0.575000X0.350000X0*%
%ADD31FreePoly0,180.000000*%
%ADD32R,1.000000X0.599999*%
%ADD33R,0.304800X0.711200*%
%ADD34R,2.649000X2.089194*%
%ADD35R,0.711200X0.304800*%
%ADD36R,2.641600X2.336800*%
%ADD37R,2.006600X0.685800*%
%ADD38R,2.211400X4.700000*%
%ADD39RoundRect,0.160000X0.160000X-0.197500X0.160000X0.197500X-0.160000X0.197500X-0.160000X-0.197500X0*%
%ADD40RoundRect,0.155000X-0.155000X0.212500X-0.155000X-0.212500X0.155000X-0.212500X0.155000X0.212500X0*%
%ADD41FreePoly1,180.000000*%
%ADD42FreePoly2,180.000000*%
%ADD43RoundRect,0.160000X0.160000X-0.222500X0.160000X0.222500X-0.160000X0.222500X-0.160000X-0.222500X0*%
%ADD44R,0.650000X1.700000*%
%ADD45RoundRect,0.250000X-0.325000X-0.450000X0.325000X-0.450000X0.325000X0.450000X-0.325000X0.450000X0*%
%ADD46RotRect,1.540000X1.800000X225.000000*%
%ADD47RoundRect,0.075000X-0.662500X-0.075000X0.662500X-0.075000X0.662500X0.075000X-0.662500X0.075000X0*%
%ADD48RoundRect,0.075000X-0.075000X-0.662500X0.075000X-0.662500X0.075000X0.662500X-0.075000X0.662500X0*%
%ADD49RoundRect,0.155000X-0.040659X-0.259862X0.259862X0.040659X0.040659X0.259862X-0.259862X-0.040659X0*%
G04 APERTURE END LIST*
D10*
%TO.C,J4*%
X126025149Y-86707451D03*
X133025149Y-86707451D03*
%TD*%
D11*
%TO.C,J9*%
X63259600Y-37436200D03*
X63259600Y-86436200D03*
X121259600Y-37436200D03*
X121259600Y-86436200D03*
%TD*%
D12*
%TO.C,SW2*%
X90678000Y-51257200D03*
X85598000Y-43637200D03*
%TD*%
D10*
%TO.C,J2*%
X109581749Y-86707451D03*
X116581749Y-86707451D03*
%TD*%
D13*
%TO.C,XT60M*%
X141359388Y-34925000D03*
X143238225Y-48293619D03*
D14*
X135856175Y-38879383D03*
D15*
X136858221Y-46009313D03*
D16*
X139971677Y-41936366D03*
%TD*%
D17*
%TO.C,SW9*%
X77935000Y-56344200D03*
D18*
X77935000Y-58884200D03*
X77935000Y-61424200D03*
%TD*%
D17*
%TO.C,SW11*%
X85149800Y-56343000D03*
D18*
X85149800Y-58883000D03*
X85149800Y-61423000D03*
%TD*%
D17*
%TO.C,J5*%
X64103600Y-42628200D03*
D18*
X61563600Y-42628200D03*
X64103600Y-45168200D03*
X61563600Y-45168200D03*
X64103600Y-47708200D03*
X61563600Y-47708200D03*
X64103600Y-50248200D03*
X61563600Y-50248200D03*
X64103600Y-52788200D03*
X61563600Y-52788200D03*
X64103600Y-55328200D03*
X61563600Y-55328200D03*
%TD*%
D17*
%TO.C,J8*%
X61628200Y-59087400D03*
D18*
X61628200Y-61627400D03*
X64168200Y-59087400D03*
X64168200Y-61627400D03*
X66708200Y-59087400D03*
X66708200Y-61627400D03*
X69248200Y-59087400D03*
X69248200Y-61627400D03*
X71788200Y-59087400D03*
X71788200Y-61627400D03*
X74328200Y-59087400D03*
X74328200Y-61627400D03*
%TD*%
D12*
%TO.C,SW8*%
X76657200Y-51257200D03*
X71577200Y-43637200D03*
%TD*%
D19*
%TO.C,J1*%
X141358800Y-81769600D03*
D20*
X138818800Y-81769600D03*
X141358800Y-79229600D03*
X138818800Y-79229600D03*
X141358800Y-76689600D03*
X138818800Y-76689600D03*
X141358800Y-74149600D03*
X138818800Y-74149600D03*
X141358800Y-71609600D03*
X138818800Y-71609600D03*
X141358800Y-69069600D03*
X138818800Y-69069600D03*
X141358800Y-66529600D03*
X138818800Y-66529600D03*
%TD*%
D17*
%TO.C,SW3*%
X136956800Y-53340000D03*
D18*
X136956800Y-55880000D03*
X136956800Y-58420000D03*
%TD*%
D17*
%TO.C,SW5*%
X98221800Y-56337200D03*
D18*
X95681800Y-56337200D03*
X93141800Y-56337200D03*
%TD*%
D17*
%TO.C,SW10*%
X81544800Y-56343000D03*
D18*
X81544800Y-58883000D03*
X81544800Y-61423000D03*
%TD*%
D21*
%TO.C,J3*%
X143394600Y-60051600D03*
X143394600Y-53451600D03*
%TD*%
D12*
%TO.C,SW6*%
X76655800Y-74191200D03*
X71575800Y-66571200D03*
%TD*%
D17*
%TO.C,SW4*%
X125755400Y-71033701D03*
D18*
X128295400Y-71033701D03*
X130835400Y-71033701D03*
%TD*%
D17*
%TO.C,J6*%
X64103600Y-65513200D03*
D18*
X61563600Y-65513200D03*
X64103600Y-68053200D03*
X61563600Y-68053200D03*
X64103600Y-70593200D03*
X61563600Y-70593200D03*
X64103600Y-73133200D03*
X61563600Y-73133200D03*
X64103600Y-75673200D03*
X61563600Y-75673200D03*
X64103600Y-78213200D03*
X61563600Y-78213200D03*
%TD*%
D17*
%TO.C,SW1*%
X95740400Y-75622800D03*
D18*
X95740400Y-73082800D03*
X95740400Y-70542800D03*
%TD*%
D12*
%TO.C,SW7*%
X90676600Y-74200400D03*
X85596600Y-66580400D03*
%TD*%
D22*
%TO.C,C62*%
X105919956Y-81667200D03*
X107054956Y-81667200D03*
%TD*%
D23*
%TO.C,R30*%
X95484956Y-81092200D03*
X96679956Y-81092200D03*
%TD*%
D24*
%TO.C,R25*%
X82752045Y-82166998D03*
X81557045Y-82166998D03*
%TD*%
D25*
%TO.C,C40*%
X82752045Y-87551998D03*
X82752045Y-86416998D03*
%TD*%
D26*
%TO.C,R36*%
X104839000Y-45395600D03*
X104839000Y-46590600D03*
%TD*%
D27*
%TO.C,U14*%
X126381000Y-68541900D03*
D28*
X125488000Y-68145599D03*
X125488000Y-67645600D03*
X125488000Y-67145601D03*
X125488000Y-66645600D03*
X125488000Y-66145600D03*
X125488000Y-65645599D03*
X125488000Y-65145600D03*
X125488000Y-64645601D03*
D27*
X126381000Y-64249300D03*
X126881000Y-64249300D03*
D28*
X127774000Y-64645601D03*
X127774000Y-65145600D03*
X127774000Y-65645599D03*
X127774000Y-66145600D03*
X127774000Y-66645600D03*
X127774000Y-67145601D03*
X127774000Y-67645600D03*
X127774000Y-68145599D03*
D27*
X126881000Y-68541900D03*
D29*
X126631000Y-66395600D03*
%TD*%
D30*
%TO.C,U11*%
X129584601Y-40850255D03*
X129584601Y-42120255D03*
X129584601Y-43400255D03*
X129584601Y-44670255D03*
D31*
X126314601Y-42760255D03*
%TD*%
D22*
%TO.C,C51*%
X130966601Y-40491255D03*
X132101601Y-40491255D03*
%TD*%
D23*
%TO.C,R34*%
X105879956Y-87242200D03*
X107074956Y-87242200D03*
%TD*%
D26*
%TO.C,R51*%
X80171400Y-61409700D03*
X80171400Y-62604700D03*
%TD*%
D30*
%TO.C,U10*%
X129592001Y-46509255D03*
X129592001Y-47779255D03*
X129592001Y-49059255D03*
X129592001Y-50329255D03*
D31*
X126322001Y-48419255D03*
%TD*%
D26*
%TO.C,R58*%
X83794600Y-58228900D03*
X83794600Y-59423900D03*
%TD*%
D24*
%TO.C,R46*%
X111734300Y-50055400D03*
X110539300Y-50055400D03*
%TD*%
D32*
%TO.C,U8*%
X133947001Y-48494255D03*
X133947001Y-49444256D03*
X133947001Y-50394254D03*
X131197001Y-50394254D03*
X131197001Y-49444256D03*
X131197001Y-48494255D03*
%TD*%
D33*
%TO.C,U12*%
X98479957Y-81570800D03*
X99129955Y-81570800D03*
X99779957Y-81570800D03*
X100429955Y-81570800D03*
X101079957Y-81570800D03*
D34*
X102254956Y-82717200D03*
D33*
X101729955Y-81570800D03*
X102379957Y-81570800D03*
X103029955Y-81570800D03*
D35*
X103701356Y-82242201D03*
X103701356Y-82892199D03*
X103701356Y-83542201D03*
X103701356Y-84192199D03*
D36*
X102258656Y-85192897D03*
D35*
X103701356Y-84842201D03*
X103701356Y-85492199D03*
X103701356Y-86142201D03*
X103701356Y-86792199D03*
D37*
X102583656Y-86970397D03*
D33*
X103029955Y-87463600D03*
X102379957Y-87463600D03*
X101729955Y-87463600D03*
X101079957Y-87463600D03*
X100429955Y-87463600D03*
X99779957Y-87463600D03*
X99129955Y-87463600D03*
X98479957Y-87463600D03*
D35*
X97808556Y-86792199D03*
X97808556Y-86142201D03*
X97808556Y-85492199D03*
X97808556Y-84842201D03*
X97808556Y-84192199D03*
X97808556Y-83542201D03*
X97808556Y-82892199D03*
X97808556Y-82242201D03*
D38*
X99512456Y-84517200D03*
%TD*%
D39*
%TO.C,R55*%
X76623400Y-53992400D03*
X76623400Y-52797400D03*
%TD*%
D33*
%TO.C,U6*%
X70655002Y-81627600D03*
X71305000Y-81627600D03*
X71955002Y-81627600D03*
X72605000Y-81627600D03*
X73255002Y-81627600D03*
D34*
X74430001Y-82774000D03*
D33*
X73905000Y-81627600D03*
X74555002Y-81627600D03*
X75205000Y-81627600D03*
D35*
X75876401Y-82299001D03*
X75876401Y-82948999D03*
X75876401Y-83599001D03*
X75876401Y-84248999D03*
D36*
X74433701Y-85249697D03*
D35*
X75876401Y-84899001D03*
X75876401Y-85548999D03*
X75876401Y-86199001D03*
X75876401Y-86848999D03*
D37*
X74758701Y-87027197D03*
D33*
X75205000Y-87520400D03*
X74555002Y-87520400D03*
X73905000Y-87520400D03*
X73255002Y-87520400D03*
X72605000Y-87520400D03*
X71955002Y-87520400D03*
X71305000Y-87520400D03*
X70655002Y-87520400D03*
D35*
X69983601Y-86848999D03*
X69983601Y-86199001D03*
X69983601Y-85548999D03*
X69983601Y-84899001D03*
X69983601Y-84248999D03*
X69983601Y-83599001D03*
X69983601Y-82948999D03*
X69983601Y-82299001D03*
D38*
X71687501Y-84574000D03*
%TD*%
D40*
%TO.C,C56*%
X101829956Y-79232200D03*
X101829956Y-80367200D03*
%TD*%
%TO.C,C60*%
X104854956Y-86707200D03*
X104854956Y-87842200D03*
%TD*%
D25*
%TO.C,C31*%
X68843000Y-87588600D03*
X68843000Y-86453600D03*
%TD*%
D41*
%TO.C,JP1*%
X78764099Y-80002000D03*
D42*
X77464099Y-80002000D03*
%TD*%
D40*
%TO.C,C29*%
X75937000Y-79273400D03*
X75937000Y-80408400D03*
%TD*%
D24*
%TO.C,R40*%
X107023400Y-45370200D03*
X105828400Y-45370200D03*
%TD*%
D40*
%TO.C,C39*%
X87902045Y-79256998D03*
X87902045Y-80391998D03*
%TD*%
D26*
%TO.C,R47*%
X71575800Y-68107300D03*
X71575800Y-69302300D03*
%TD*%
D22*
%TO.C,C34*%
X78074000Y-83761200D03*
X79209000Y-83761200D03*
%TD*%
D40*
%TO.C,C27*%
X74006600Y-79273400D03*
X74006600Y-80408400D03*
%TD*%
%TO.C,C54*%
X103754956Y-79242200D03*
X103754956Y-80377200D03*
%TD*%
D26*
%TO.C,R22*%
X85277045Y-79171998D03*
X85277045Y-80366998D03*
%TD*%
D40*
%TO.C,C43*%
X90977045Y-86724498D03*
X90977045Y-87859498D03*
%TD*%
D17*
%TO.C,J7*%
X68156000Y-38742000D03*
D18*
X68156000Y-36202000D03*
X70696000Y-38742000D03*
X70696000Y-36202000D03*
X73236000Y-38742000D03*
X73236000Y-36202000D03*
X75776000Y-38742000D03*
X75776000Y-36202000D03*
X78316000Y-38742000D03*
X78316000Y-36202000D03*
X80856000Y-38742000D03*
X80856000Y-36202000D03*
X83396000Y-38742000D03*
X83396000Y-36202000D03*
X85936000Y-38742000D03*
X85936000Y-36202000D03*
X88476000Y-38742000D03*
X88476000Y-36202000D03*
X91016000Y-38742000D03*
X91016000Y-36202000D03*
X93556000Y-38742000D03*
X93556000Y-36202000D03*
X96096000Y-38742000D03*
X96096000Y-36202000D03*
X98636000Y-38742000D03*
X98636000Y-36202000D03*
X101176000Y-38742000D03*
X101176000Y-36202000D03*
X103716000Y-38742000D03*
X103716000Y-36202000D03*
X106256000Y-38742000D03*
X106256000Y-36202000D03*
X108796000Y-38742000D03*
X108796000Y-36202000D03*
X111336000Y-38742000D03*
X111336000Y-36202000D03*
X113876000Y-38742000D03*
X113876000Y-36202000D03*
X116416000Y-38742000D03*
X116416000Y-36202000D03*
%TD*%
D23*
%TO.C,R26*%
X91027045Y-85666998D03*
X92222045Y-85666998D03*
%TD*%
D26*
%TO.C,R50*%
X76563400Y-61410900D03*
X76563400Y-62605900D03*
%TD*%
D39*
%TO.C,R23*%
X82448400Y-85357300D03*
X82448400Y-84162300D03*
%TD*%
D24*
%TO.C,R41*%
X107023400Y-46335400D03*
X105828400Y-46335400D03*
%TD*%
D39*
%TO.C,R17*%
X68529200Y-85382700D03*
X68529200Y-84187700D03*
%TD*%
D23*
%TO.C,R32*%
X104907456Y-85642200D03*
X106102456Y-85642200D03*
%TD*%
%TO.C,R19*%
X77117500Y-85691600D03*
X78312500Y-85691600D03*
%TD*%
D26*
%TO.C,R7*%
X94934500Y-46304200D03*
X94934500Y-47499200D03*
%TD*%
D25*
%TO.C,C41*%
X81502045Y-85316998D03*
X81502045Y-84181998D03*
%TD*%
D23*
%TO.C,R18*%
X67641501Y-81170400D03*
X68836501Y-81170400D03*
%TD*%
D43*
%TO.C,L3*%
X104879956Y-84592200D03*
X104879956Y-83447200D03*
%TD*%
D26*
%TO.C,R52*%
X83778200Y-61420100D03*
X83778200Y-62615100D03*
%TD*%
D32*
%TO.C,U9*%
X133916601Y-42841256D03*
X133916601Y-43791257D03*
X133916601Y-44741255D03*
X131166601Y-44741255D03*
X131166601Y-43791257D03*
X131166601Y-42841256D03*
%TD*%
D26*
%TO.C,R57*%
X80162400Y-58228900D03*
X80162400Y-59423900D03*
%TD*%
D22*
%TO.C,C48*%
X133149700Y-47150400D03*
X134284700Y-47150400D03*
%TD*%
D26*
%TO.C,R56*%
X76563400Y-57677100D03*
X76563400Y-58872100D03*
%TD*%
D23*
%TO.C,R28*%
X92002045Y-87216998D03*
X93197045Y-87216998D03*
%TD*%
%TO.C,R27*%
X91982045Y-84691998D03*
X93177045Y-84691998D03*
%TD*%
D27*
%TO.C,U13*%
X126369000Y-62572900D03*
D28*
X125476000Y-62176599D03*
X125476000Y-61676600D03*
X125476000Y-61176601D03*
X125476000Y-60676600D03*
X125476000Y-60176600D03*
X125476000Y-59676599D03*
X125476000Y-59176600D03*
X125476000Y-58676601D03*
D27*
X126369000Y-58280300D03*
X126869000Y-58280300D03*
D28*
X127762000Y-58676601D03*
X127762000Y-59176600D03*
X127762000Y-59676599D03*
X127762000Y-60176600D03*
X127762000Y-60676600D03*
X127762000Y-61176601D03*
X127762000Y-61676600D03*
X127762000Y-62176599D03*
D27*
X126869000Y-62572900D03*
D29*
X126619000Y-60426600D03*
%TD*%
D26*
%TO.C,R35*%
X104839000Y-49130600D03*
X104839000Y-50325600D03*
%TD*%
D22*
%TO.C,C47*%
X130972001Y-46219255D03*
X132107001Y-46219255D03*
%TD*%
D40*
%TO.C,C55*%
X102779956Y-79232200D03*
X102779956Y-80367200D03*
%TD*%
D24*
%TO.C,R43*%
X111722500Y-46304200D03*
X110527500Y-46304200D03*
%TD*%
%TO.C,R16*%
X68848601Y-82186400D03*
X67653601Y-82186400D03*
%TD*%
D22*
%TO.C,C45*%
X91992045Y-81691998D03*
X93127045Y-81691998D03*
%TD*%
D40*
%TO.C,C36*%
X86927045Y-79231998D03*
X86927045Y-80366998D03*
%TD*%
D26*
%TO.C,R44*%
X109564300Y-49135400D03*
X109564300Y-50330400D03*
%TD*%
D25*
%TO.C,C2*%
X90622780Y-49721220D03*
X90622780Y-48586220D03*
%TD*%
D39*
%TO.C,R48*%
X84023200Y-66586700D03*
X84023200Y-65391700D03*
%TD*%
D25*
%TO.C,C58*%
X95429956Y-85277200D03*
X95429956Y-84142200D03*
%TD*%
D43*
%TO.C,L2*%
X91002045Y-84616998D03*
X91002045Y-83471998D03*
%TD*%
D44*
%TO.C,U5*%
X96490500Y-44021200D03*
X97760500Y-44021200D03*
X99030500Y-44021200D03*
X100300500Y-44021200D03*
X100300500Y-51321200D03*
X99030500Y-51321200D03*
X97760500Y-51321200D03*
X96490500Y-51321200D03*
%TD*%
D22*
%TO.C,C46*%
X130966601Y-41491255D03*
X132101601Y-41491255D03*
%TD*%
D45*
%TO.C,D4*%
X95854956Y-79617200D03*
X97904956Y-79617200D03*
%TD*%
D24*
%TO.C,R38*%
X107023400Y-49105200D03*
X105828400Y-49105200D03*
%TD*%
D40*
%TO.C,C26*%
X73041400Y-79273400D03*
X73041400Y-80408400D03*
%TD*%
D22*
%TO.C,C30*%
X67624101Y-83202400D03*
X68759101Y-83202400D03*
%TD*%
D25*
%TO.C,C32*%
X67589400Y-85336000D03*
X67589400Y-84201000D03*
%TD*%
D23*
%TO.C,R21*%
X78070600Y-87215600D03*
X79265600Y-87215600D03*
%TD*%
D39*
%TO.C,R29*%
X96418400Y-85312200D03*
X96418400Y-84117200D03*
%TD*%
D26*
%TO.C,R37*%
X109552500Y-45384200D03*
X109552500Y-46579200D03*
%TD*%
D41*
%TO.C,JP2*%
X92652045Y-79941998D03*
D42*
X91352045Y-79941998D03*
%TD*%
D27*
%TO.C,U15*%
X95692800Y-58813700D03*
D28*
X96585800Y-59210001D03*
X96585800Y-59710000D03*
X96585800Y-60209999D03*
X96585800Y-60710000D03*
X96585800Y-61210000D03*
X96585800Y-61710001D03*
X96585800Y-62210000D03*
X96585800Y-62709999D03*
D27*
X95692800Y-63106300D03*
X95192800Y-63106300D03*
D28*
X94299800Y-62709999D03*
X94299800Y-62210000D03*
X94299800Y-61710001D03*
X94299800Y-61210000D03*
X94299800Y-60710000D03*
X94299800Y-60209999D03*
X94299800Y-59710000D03*
X94299800Y-59210001D03*
D27*
X95192800Y-58813700D03*
D29*
X95442800Y-60960000D03*
%TD*%
D22*
%TO.C,C49*%
X130972001Y-47169255D03*
X132107001Y-47169255D03*
%TD*%
D24*
%TO.C,R39*%
X107023400Y-50070400D03*
X105828400Y-50070400D03*
%TD*%
D39*
%TO.C,R14*%
X94934500Y-51924200D03*
X94934500Y-50729200D03*
%TD*%
D43*
%TO.C,L1*%
X77054600Y-84652200D03*
X77054600Y-83507200D03*
%TD*%
D22*
%TO.C,C42*%
X81567045Y-83166998D03*
X82702045Y-83166998D03*
%TD*%
D33*
%TO.C,U7*%
X84556227Y-81598240D03*
X85206225Y-81598240D03*
X85856227Y-81598240D03*
X86506225Y-81598240D03*
X87156227Y-81598240D03*
D34*
X88331226Y-82744640D03*
D33*
X87806225Y-81598240D03*
X88456227Y-81598240D03*
X89106225Y-81598240D03*
D35*
X89777626Y-82269641D03*
X89777626Y-82919639D03*
X89777626Y-83569641D03*
X89777626Y-84219639D03*
D36*
X88334926Y-85220337D03*
D35*
X89777626Y-84869641D03*
X89777626Y-85519639D03*
X89777626Y-86169641D03*
X89777626Y-86819639D03*
D37*
X88659926Y-86997837D03*
D33*
X89106225Y-87491040D03*
X88456227Y-87491040D03*
X87806225Y-87491040D03*
X87156227Y-87491040D03*
X86506225Y-87491040D03*
X85856227Y-87491040D03*
X85206225Y-87491040D03*
X84556227Y-87491040D03*
D35*
X83884826Y-86819639D03*
X83884826Y-86169641D03*
X83884826Y-85519639D03*
X83884826Y-84869641D03*
X83884826Y-84219639D03*
X83884826Y-83569641D03*
X83884826Y-82919639D03*
X83884826Y-82269641D03*
D38*
X85588726Y-84544640D03*
%TD*%
D39*
%TO.C,R53*%
X76655800Y-76896900D03*
X76655800Y-75701900D03*
%TD*%
D24*
%TO.C,R42*%
X111722500Y-45354200D03*
X110527500Y-45354200D03*
%TD*%
D40*
%TO.C,C33*%
X77054600Y-86741000D03*
X77054600Y-87876000D03*
%TD*%
%TO.C,C38*%
X89877045Y-79256998D03*
X89877045Y-80391998D03*
%TD*%
%TO.C,C37*%
X88902045Y-79256998D03*
X88902045Y-80391998D03*
%TD*%
D22*
%TO.C,C35*%
X78094999Y-81729200D03*
X79229999Y-81729200D03*
%TD*%
D24*
%TO.C,R12*%
X97779500Y-42429200D03*
X96584500Y-42429200D03*
%TD*%
D22*
%TO.C,C59*%
X95469956Y-83142200D03*
X96604956Y-83142200D03*
%TD*%
D41*
%TO.C,JP3*%
X106554956Y-79942200D03*
D42*
X105254956Y-79942200D03*
%TD*%
D22*
%TO.C,C44*%
X91992045Y-83691998D03*
X93127045Y-83691998D03*
%TD*%
D45*
%TO.C,D2*%
X68012200Y-79646400D03*
X70062200Y-79646400D03*
%TD*%
D22*
%TO.C,C50*%
X133149700Y-41511600D03*
X134284700Y-41511600D03*
%TD*%
D25*
%TO.C,C57*%
X96704956Y-87517200D03*
X96704956Y-86382200D03*
%TD*%
D46*
%TO.C,X1*%
X119480299Y-47903099D03*
X117585252Y-49798146D03*
X115605353Y-47818247D03*
X117500400Y-45923200D03*
%TD*%
D40*
%TO.C,C53*%
X100854956Y-79207200D03*
X100854956Y-80342200D03*
%TD*%
D26*
%TO.C,R1*%
X99204956Y-79172200D03*
X99204956Y-80367200D03*
%TD*%
%TO.C,R15*%
X71365000Y-79213400D03*
X71365000Y-80408400D03*
%TD*%
D39*
%TO.C,R54*%
X90676600Y-76919400D03*
X90676600Y-75724400D03*
%TD*%
D23*
%TO.C,R33*%
X105859956Y-84642200D03*
X107054956Y-84642200D03*
%TD*%
D45*
%TO.C,D3*%
X81902045Y-79616998D03*
X83952045Y-79616998D03*
%TD*%
D40*
%TO.C,C28*%
X74971800Y-79273400D03*
X74971800Y-80408400D03*
%TD*%
D26*
%TO.C,R49*%
X71568800Y-45150800D03*
X71568800Y-46345800D03*
%TD*%
D24*
%TO.C,R31*%
X96629956Y-82092200D03*
X95434956Y-82092200D03*
%TD*%
D23*
%TO.C,R24*%
X81552045Y-81141998D03*
X82747045Y-81141998D03*
%TD*%
D39*
%TO.C,R6*%
X94934500Y-43074200D03*
X94934500Y-41879200D03*
%TD*%
%TO.C,R13*%
X94934500Y-45299200D03*
X94934500Y-44104200D03*
%TD*%
D23*
%TO.C,R20*%
X78044000Y-84726400D03*
X79239000Y-84726400D03*
%TD*%
D22*
%TO.C,C61*%
X105904956Y-83667200D03*
X107039956Y-83667200D03*
%TD*%
D24*
%TO.C,R45*%
X111739300Y-49105400D03*
X110544300Y-49105400D03*
%TD*%
D39*
%TO.C,R2*%
X92989400Y-52159500D03*
X92989400Y-50964500D03*
%TD*%
D47*
%TO.C,U1*%
X101272331Y-72694207D03*
X101272331Y-72194207D03*
X101272331Y-71694207D03*
X101272331Y-71194207D03*
X101272331Y-70694207D03*
X101272331Y-70194207D03*
X101272331Y-69694207D03*
X101272331Y-69194207D03*
X101272331Y-68694207D03*
X101272331Y-68194207D03*
X101272331Y-67694207D03*
X101272331Y-67194207D03*
X101272331Y-66694207D03*
X101272331Y-66194207D03*
X101272331Y-65694207D03*
X101272331Y-65194207D03*
X101272331Y-64694207D03*
X101272331Y-64194207D03*
X101272331Y-63694207D03*
X101272331Y-63194207D03*
X101272331Y-62694207D03*
X101272331Y-62194207D03*
X101272331Y-61694207D03*
X101272331Y-61194207D03*
X101272331Y-60694207D03*
X101272331Y-60194207D03*
X101272331Y-59694207D03*
X101272331Y-59194207D03*
X101272331Y-58694207D03*
X101272331Y-58194207D03*
X101272331Y-57694207D03*
X101272331Y-57194207D03*
X101272331Y-56694207D03*
X101272331Y-56194207D03*
X101272331Y-55694207D03*
X101272331Y-55194207D03*
D48*
X103184831Y-53281707D03*
X103684831Y-53281707D03*
X104184831Y-53281707D03*
X104684831Y-53281707D03*
X105184831Y-53281707D03*
X105684831Y-53281707D03*
X106184831Y-53281707D03*
X106684831Y-53281707D03*
X107184831Y-53281707D03*
X107684831Y-53281707D03*
X108184831Y-53281707D03*
X108684831Y-53281707D03*
X109184831Y-53281707D03*
X109684831Y-53281707D03*
X110184831Y-53281707D03*
X110684831Y-53281707D03*
X111184831Y-53281707D03*
X111684831Y-53281707D03*
X112184831Y-53281707D03*
X112684831Y-53281707D03*
X113184831Y-53281707D03*
X113684831Y-53281707D03*
X114184831Y-53281707D03*
X114684831Y-53281707D03*
X115184831Y-53281707D03*
X115684831Y-53281707D03*
X116184831Y-53281707D03*
X116684831Y-53281707D03*
X117184831Y-53281707D03*
X117684831Y-53281707D03*
X118184831Y-53281707D03*
X118684831Y-53281707D03*
X119184831Y-53281707D03*
X119684831Y-53281707D03*
X120184831Y-53281707D03*
X120684831Y-53281707D03*
D47*
X122597331Y-55194207D03*
X122597331Y-55694207D03*
X122597331Y-56194207D03*
X122597331Y-56694207D03*
X122597331Y-57194207D03*
X122597331Y-57694207D03*
X122597331Y-58194207D03*
X122597331Y-58694207D03*
X122597331Y-59194207D03*
X122597331Y-59694207D03*
X122597331Y-60194207D03*
X122597331Y-60694207D03*
X122597331Y-61194207D03*
X122597331Y-61694207D03*
X122597331Y-62194207D03*
X122597331Y-62694207D03*
X122597331Y-63194207D03*
X122597331Y-63694207D03*
X122597331Y-64194207D03*
X122597331Y-64694207D03*
X122597331Y-65194207D03*
X122597331Y-65694207D03*
X122597331Y-66194207D03*
X122597331Y-66694207D03*
X122597331Y-67194207D03*
X122597331Y-67694207D03*
X122597331Y-68194207D03*
X122597331Y-68694207D03*
X122597331Y-69194207D03*
X122597331Y-69694207D03*
X122597331Y-70194207D03*
X122597331Y-70694207D03*
X122597331Y-71194207D03*
X122597331Y-71694207D03*
X122597331Y-72194207D03*
X122597331Y-72694207D03*
D48*
X120684831Y-74606707D03*
X120184831Y-74606707D03*
X119684831Y-74606707D03*
X119184831Y-74606707D03*
X118684831Y-74606707D03*
X118184831Y-74606707D03*
X117684831Y-74606707D03*
X117184831Y-74606707D03*
X116684831Y-74606707D03*
X116184831Y-74606707D03*
X115684831Y-74606707D03*
X115184831Y-74606707D03*
X114684831Y-74606707D03*
X114184831Y-74606707D03*
X113684831Y-74606707D03*
X113184831Y-74606707D03*
X112684831Y-74606707D03*
X112184831Y-74606707D03*
X111684831Y-74606707D03*
X111184831Y-74606707D03*
X110684831Y-74606707D03*
X110184831Y-74606707D03*
X109684831Y-74606707D03*
X109184831Y-74606707D03*
X108684831Y-74606707D03*
X108184831Y-74606707D03*
X107684831Y-74606707D03*
X107184831Y-74606707D03*
X106684831Y-74606707D03*
X106184831Y-74606707D03*
X105684831Y-74606707D03*
X105184831Y-74606707D03*
X104684831Y-74606707D03*
X104184831Y-74606707D03*
X103684831Y-74606707D03*
X103184831Y-74606707D03*
%TD*%
D49*
%TO.C,C52*%
X119297158Y-50457027D03*
X120099724Y-49654461D03*
%TD*%
D26*
%TO.C,R8*%
X94933500Y-48523200D03*
X94933500Y-49718200D03*
%TD*%
M02*
